G04 #@! TF.GenerationSoftware,KiCad,Pcbnew,(5.0.0-3-g5ebb6b6)*
G04 #@! TF.CreationDate,2018-12-25T22:54:35+09:00*
G04 #@! TF.ProjectId,Z80-GRANT,5A38302D4752414E542E6B696361645F,rev?*
G04 #@! TF.SameCoordinates,Original*
G04 #@! TF.FileFunction,Soldermask,Top*
G04 #@! TF.FilePolarity,Negative*
%FSLAX46Y46*%
G04 Gerber Fmt 4.6, Leading zero omitted, Abs format (unit mm)*
G04 Created by KiCad (PCBNEW (5.0.0-3-g5ebb6b6)) date 2018 December 25, Tuesday 22:54:35*
%MOMM*%
%LPD*%
G01*
G04 APERTURE LIST*
%ADD10C,2.000000*%
%ADD11R,1.600000X1.600000*%
%ADD12C,1.600000*%
%ADD13R,2.000000X2.000000*%
%ADD14R,2.200000X2.200000*%
%ADD15O,2.200000X2.200000*%
%ADD16C,2.200000*%
%ADD17R,2.127200X2.127200*%
%ADD18O,2.127200X2.127200*%
%ADD19R,2.432000X2.127200*%
%ADD20O,2.432000X2.127200*%
%ADD21R,4.400000X4.400000*%
%ADD22R,3.900120X3.900120*%
%ADD23O,2.000000X2.000000*%
%ADD24C,2.400000*%
%ADD25R,2.300000X2.300000*%
%ADD26C,2.300000*%
%ADD27C,1.822400*%
%ADD28C,3.600000*%
G04 APERTURE END LIST*
D10*
G04 #@! TO.C,C1*
X121000000Y-99500000D03*
X121000000Y-102000000D03*
G04 #@! TD*
G04 #@! TO.C,C2*
X157500000Y-118000000D03*
X160000000Y-118000000D03*
G04 #@! TD*
G04 #@! TO.C,C3*
X157500000Y-124000000D03*
X160000000Y-124000000D03*
G04 #@! TD*
D11*
G04 #@! TO.C,C4*
X172000000Y-105500000D03*
D12*
X172000000Y-104000000D03*
G04 #@! TD*
D13*
G04 #@! TO.C,C5*
X178500000Y-121000000D03*
D10*
X181000000Y-121000000D03*
G04 #@! TD*
G04 #@! TO.C,C6*
X164000000Y-53000000D03*
X164000000Y-50500000D03*
G04 #@! TD*
G04 #@! TO.C,C7*
X137000000Y-82500000D03*
X137000000Y-80000000D03*
G04 #@! TD*
G04 #@! TO.C,C8*
X141000000Y-67000000D03*
X141000000Y-69500000D03*
G04 #@! TD*
G04 #@! TO.C,C9*
X117000000Y-122500000D03*
X117000000Y-120000000D03*
G04 #@! TD*
G04 #@! TO.C,C10*
X137000000Y-62000000D03*
X137000000Y-59500000D03*
G04 #@! TD*
G04 #@! TO.C,C11*
X140000000Y-122500000D03*
X140000000Y-120000000D03*
G04 #@! TD*
G04 #@! TO.C,C12*
X174000000Y-97000000D03*
X174000000Y-94500000D03*
G04 #@! TD*
D14*
G04 #@! TO.C,D1*
X172466000Y-119620000D03*
D15*
X172466000Y-112000000D03*
G04 #@! TD*
D14*
G04 #@! TO.C,D2*
X166000000Y-127000000D03*
D16*
X166000000Y-124460000D03*
G04 #@! TD*
D17*
G04 #@! TO.C,J1*
X161620000Y-59460000D03*
D18*
X161620000Y-62000000D03*
X159080000Y-59460000D03*
X159080000Y-62000000D03*
X156540000Y-59460000D03*
X156540000Y-62000000D03*
X154000000Y-59460000D03*
X154000000Y-62000000D03*
X151460000Y-59460000D03*
X151460000Y-62000000D03*
X148920000Y-59460000D03*
X148920000Y-62000000D03*
X146380000Y-59460000D03*
X146380000Y-62000000D03*
X143840000Y-59460000D03*
X143840000Y-62000000D03*
G04 #@! TD*
D19*
G04 #@! TO.C,J2*
X179000000Y-46840000D03*
D20*
X179000000Y-49380000D03*
X179000000Y-51920000D03*
X179000000Y-54460000D03*
X179000000Y-57000000D03*
X179000000Y-59540000D03*
G04 #@! TD*
D17*
G04 #@! TO.C,J3*
X162080000Y-131000000D03*
D18*
X162080000Y-133540000D03*
X159540000Y-131000000D03*
X159540000Y-133540000D03*
X157000000Y-131000000D03*
X157000000Y-133540000D03*
X154460000Y-131000000D03*
X154460000Y-133540000D03*
X151920000Y-131000000D03*
X151920000Y-133540000D03*
X149380000Y-131000000D03*
X149380000Y-133540000D03*
X146840000Y-131000000D03*
X146840000Y-133540000D03*
X144300000Y-131000000D03*
X144300000Y-133540000D03*
X141760000Y-131000000D03*
X141760000Y-133540000D03*
X139220000Y-131000000D03*
X139220000Y-133540000D03*
X136680000Y-131000000D03*
X136680000Y-133540000D03*
X134140000Y-131000000D03*
X134140000Y-133540000D03*
X131600000Y-131000000D03*
X131600000Y-133540000D03*
X129060000Y-131000000D03*
X129060000Y-133540000D03*
X126520000Y-131000000D03*
X126520000Y-133540000D03*
X123980000Y-131000000D03*
X123980000Y-133540000D03*
X121440000Y-131000000D03*
X121440000Y-133540000D03*
X118900000Y-131000000D03*
X118900000Y-133540000D03*
X116360000Y-131000000D03*
X116360000Y-133540000D03*
X113820000Y-131000000D03*
X113820000Y-133540000D03*
G04 #@! TD*
D21*
G04 #@! TO.C,J4*
X174244000Y-129598860D03*
D22*
X174244000Y-135598340D03*
X178943000Y-132598600D03*
G04 #@! TD*
D10*
G04 #@! TO.C,R1*
X115000000Y-88000000D03*
D23*
X104840000Y-88000000D03*
G04 #@! TD*
D10*
G04 #@! TO.C,R2*
X158000000Y-114000000D03*
D23*
X147840000Y-114000000D03*
G04 #@! TD*
D10*
G04 #@! TO.C,R3*
X144000000Y-125000000D03*
D23*
X144000000Y-114840000D03*
G04 #@! TD*
D10*
G04 #@! TO.C,R4*
X168656000Y-120160000D03*
D23*
X168656000Y-110000000D03*
G04 #@! TD*
D10*
G04 #@! TO.C,R5*
X165000000Y-120160000D03*
D23*
X165000000Y-110000000D03*
G04 #@! TD*
D13*
G04 #@! TO.C,RN1*
X119680000Y-88000000D03*
D23*
X122220000Y-88000000D03*
X124760000Y-88000000D03*
X127300000Y-88000000D03*
X129840000Y-88000000D03*
X132380000Y-88000000D03*
X134920000Y-88000000D03*
X137460000Y-88000000D03*
X140000000Y-88000000D03*
G04 #@! TD*
D24*
G04 #@! TO.C,SW1*
X177500000Y-106500000D03*
X177500000Y-102000000D03*
X184000000Y-106500000D03*
X184000000Y-102000000D03*
G04 #@! TD*
D25*
G04 #@! TO.C,SW2*
X178515000Y-113000000D03*
D26*
X181015000Y-113000000D03*
X183515000Y-113000000D03*
G04 #@! TD*
D27*
G04 #@! TO.C,Y1*
X150000000Y-119920000D03*
X150000000Y-125000000D03*
G04 #@! TD*
D28*
G04 #@! TO.C,M1*
X93460000Y-70970000D03*
G04 #@! TD*
G04 #@! TO.C,M2*
X182450000Y-70970000D03*
G04 #@! TD*
G04 #@! TO.C,M3*
X93460000Y-136960000D03*
G04 #@! TD*
G04 #@! TO.C,M4*
X182450000Y-136960000D03*
G04 #@! TD*
D13*
G04 #@! TO.C,U2*
X171080000Y-89000000D03*
D23*
X155840000Y-96620000D03*
X168540000Y-89000000D03*
X158380000Y-96620000D03*
X166000000Y-89000000D03*
X160920000Y-96620000D03*
X163460000Y-89000000D03*
X163460000Y-96620000D03*
X160920000Y-89000000D03*
X166000000Y-96620000D03*
X158380000Y-89000000D03*
X168540000Y-96620000D03*
X155840000Y-89000000D03*
X171080000Y-96620000D03*
G04 #@! TD*
D13*
G04 #@! TO.C,U3*
X136240000Y-115000000D03*
D23*
X121000000Y-122620000D03*
X133700000Y-115000000D03*
X123540000Y-122620000D03*
X131160000Y-115000000D03*
X126080000Y-122620000D03*
X128620000Y-115000000D03*
X128620000Y-122620000D03*
X126080000Y-115000000D03*
X131160000Y-122620000D03*
X123540000Y-115000000D03*
X133700000Y-122620000D03*
X121000000Y-115000000D03*
X136240000Y-122620000D03*
G04 #@! TD*
D13*
G04 #@! TO.C,U4*
X134320000Y-46760000D03*
D23*
X101300000Y-62000000D03*
X131780000Y-46760000D03*
X103840000Y-62000000D03*
X129240000Y-46760000D03*
X106380000Y-62000000D03*
X126700000Y-46760000D03*
X108920000Y-62000000D03*
X124160000Y-46760000D03*
X111460000Y-62000000D03*
X121620000Y-46760000D03*
X114000000Y-62000000D03*
X119080000Y-46760000D03*
X116540000Y-62000000D03*
X116540000Y-46760000D03*
X119080000Y-62000000D03*
X114000000Y-46760000D03*
X121620000Y-62000000D03*
X111460000Y-46760000D03*
X124160000Y-62000000D03*
X108920000Y-46760000D03*
X126700000Y-62000000D03*
X106380000Y-46760000D03*
X129240000Y-62000000D03*
X103840000Y-46760000D03*
X131780000Y-62000000D03*
X101300000Y-46760000D03*
X134320000Y-62000000D03*
G04 #@! TD*
D13*
G04 #@! TO.C,U5*
X161080000Y-47000000D03*
D23*
X143300000Y-54620000D03*
X158540000Y-47000000D03*
X145840000Y-54620000D03*
X156000000Y-47000000D03*
X148380000Y-54620000D03*
X153460000Y-47000000D03*
X150920000Y-54620000D03*
X150920000Y-47000000D03*
X153460000Y-54620000D03*
X148380000Y-47000000D03*
X156000000Y-54620000D03*
X145840000Y-47000000D03*
X158540000Y-54620000D03*
X143300000Y-47000000D03*
X161080000Y-54620000D03*
G04 #@! TD*
D13*
G04 #@! TO.C,U6*
X134240000Y-67000000D03*
D23*
X101220000Y-82240000D03*
X131700000Y-67000000D03*
X103760000Y-82240000D03*
X129160000Y-67000000D03*
X106300000Y-82240000D03*
X126620000Y-67000000D03*
X108840000Y-82240000D03*
X124080000Y-67000000D03*
X111380000Y-82240000D03*
X121540000Y-67000000D03*
X113920000Y-82240000D03*
X119000000Y-67000000D03*
X116460000Y-82240000D03*
X116460000Y-67000000D03*
X119000000Y-82240000D03*
X113920000Y-67000000D03*
X121540000Y-82240000D03*
X111380000Y-67000000D03*
X124080000Y-82240000D03*
X108840000Y-67000000D03*
X126620000Y-82240000D03*
X106300000Y-67000000D03*
X129160000Y-82240000D03*
X103760000Y-67000000D03*
X131700000Y-82240000D03*
X101220000Y-67000000D03*
X134240000Y-82240000D03*
G04 #@! TD*
D13*
G04 #@! TO.C,U7*
X113540000Y-115000000D03*
D23*
X98300000Y-122620000D03*
X111000000Y-115000000D03*
X100840000Y-122620000D03*
X108460000Y-115000000D03*
X103380000Y-122620000D03*
X105920000Y-115000000D03*
X105920000Y-122620000D03*
X103380000Y-115000000D03*
X108460000Y-122620000D03*
X100840000Y-115000000D03*
X111000000Y-122620000D03*
X98300000Y-115000000D03*
X113540000Y-122620000D03*
G04 #@! TD*
D13*
G04 #@! TO.C,U8*
X171540000Y-67000000D03*
D23*
X143600000Y-82240000D03*
X169000000Y-67000000D03*
X146140000Y-82240000D03*
X166460000Y-67000000D03*
X148680000Y-82240000D03*
X163920000Y-67000000D03*
X151220000Y-82240000D03*
X161380000Y-67000000D03*
X153760000Y-82240000D03*
X158840000Y-67000000D03*
X156300000Y-82240000D03*
X156300000Y-67000000D03*
X158840000Y-82240000D03*
X153760000Y-67000000D03*
X161380000Y-82240000D03*
X151220000Y-67000000D03*
X163920000Y-82240000D03*
X148680000Y-67000000D03*
X166460000Y-82240000D03*
X146140000Y-67000000D03*
X169000000Y-82240000D03*
X143600000Y-67000000D03*
X171540000Y-82240000D03*
G04 #@! TD*
D13*
G04 #@! TO.C,U1*
X146560000Y-94000000D03*
D23*
X98300000Y-109240000D03*
X144020000Y-94000000D03*
X100840000Y-109240000D03*
X141480000Y-94000000D03*
X103380000Y-109240000D03*
X138940000Y-94000000D03*
X105920000Y-109240000D03*
X136400000Y-94000000D03*
X108460000Y-109240000D03*
X133860000Y-94000000D03*
X111000000Y-109240000D03*
X131320000Y-94000000D03*
X113540000Y-109240000D03*
X128780000Y-94000000D03*
X116080000Y-109240000D03*
X126240000Y-94000000D03*
X118620000Y-109240000D03*
X123700000Y-94000000D03*
X121160000Y-109240000D03*
X121160000Y-94000000D03*
X123700000Y-109240000D03*
X118620000Y-94000000D03*
X126240000Y-109240000D03*
X116080000Y-94000000D03*
X128780000Y-109240000D03*
X113540000Y-94000000D03*
X131320000Y-109240000D03*
X111000000Y-94000000D03*
X133860000Y-109240000D03*
X108460000Y-94000000D03*
X136400000Y-109240000D03*
X105920000Y-94000000D03*
X138940000Y-109240000D03*
X103380000Y-94000000D03*
X141480000Y-109240000D03*
X100840000Y-94000000D03*
X144020000Y-109240000D03*
X98300000Y-94000000D03*
X146560000Y-109240000D03*
G04 #@! TD*
M02*
