G04 #@! TF.GenerationSoftware,KiCad,Pcbnew,(5.0.0-3-g5ebb6b6)*
G04 #@! TF.CreationDate,2018-12-25T22:54:35+09:00*
G04 #@! TF.ProjectId,Z80-GRANT,5A38302D4752414E542E6B696361645F,rev?*
G04 #@! TF.SameCoordinates,Original*
G04 #@! TF.FileFunction,Legend,Top*
G04 #@! TF.FilePolarity,Positive*
%FSLAX46Y46*%
G04 Gerber Fmt 4.6, Leading zero omitted, Abs format (unit mm)*
G04 Created by KiCad (PCBNEW (5.0.0-3-g5ebb6b6)) date 2018 December 25, Tuesday 22:54:35*
%MOMM*%
%LPD*%
G01*
G04 APERTURE LIST*
%ADD10C,0.150000*%
%ADD11C,0.300000*%
%ADD12C,0.100000*%
%ADD13C,0.200000*%
%ADD14C,0.250000*%
%ADD15C,0.120000*%
G04 APERTURE END LIST*
D10*
X108608761Y-140199428D02*
X108656380Y-140056571D01*
X108656380Y-139818476D01*
X108608761Y-139723238D01*
X108561142Y-139675619D01*
X108465904Y-139628000D01*
X108370666Y-139628000D01*
X108275428Y-139675619D01*
X108227809Y-139723238D01*
X108180190Y-139818476D01*
X108132571Y-140008952D01*
X108084952Y-140104190D01*
X108037333Y-140151809D01*
X107942095Y-140199428D01*
X107846857Y-140199428D01*
X107751619Y-140151809D01*
X107704000Y-140104190D01*
X107656380Y-140008952D01*
X107656380Y-139770857D01*
X107704000Y-139628000D01*
X108132571Y-138866095D02*
X108180190Y-138723238D01*
X108227809Y-138675619D01*
X108323047Y-138628000D01*
X108465904Y-138628000D01*
X108561142Y-138675619D01*
X108608761Y-138723238D01*
X108656380Y-138818476D01*
X108656380Y-139199428D01*
X107656380Y-139199428D01*
X107656380Y-138866095D01*
X107704000Y-138770857D01*
X107751619Y-138723238D01*
X107846857Y-138675619D01*
X107942095Y-138675619D01*
X108037333Y-138723238D01*
X108084952Y-138770857D01*
X108132571Y-138866095D01*
X108132571Y-139199428D01*
X108561142Y-137628000D02*
X108608761Y-137675619D01*
X108656380Y-137818476D01*
X108656380Y-137913714D01*
X108608761Y-138056571D01*
X108513523Y-138151809D01*
X108418285Y-138199428D01*
X108227809Y-138247047D01*
X108084952Y-138247047D01*
X107894476Y-138199428D01*
X107799238Y-138151809D01*
X107704000Y-138056571D01*
X107656380Y-137913714D01*
X107656380Y-137818476D01*
X107704000Y-137675619D01*
X107751619Y-137628000D01*
X108084952Y-137056571D02*
X108037333Y-137151809D01*
X107989714Y-137199428D01*
X107894476Y-137247047D01*
X107846857Y-137247047D01*
X107751619Y-137199428D01*
X107704000Y-137151809D01*
X107656380Y-137056571D01*
X107656380Y-136866095D01*
X107704000Y-136770857D01*
X107751619Y-136723238D01*
X107846857Y-136675619D01*
X107894476Y-136675619D01*
X107989714Y-136723238D01*
X108037333Y-136770857D01*
X108084952Y-136866095D01*
X108084952Y-137056571D01*
X108132571Y-137151809D01*
X108180190Y-137199428D01*
X108275428Y-137247047D01*
X108465904Y-137247047D01*
X108561142Y-137199428D01*
X108608761Y-137151809D01*
X108656380Y-137056571D01*
X108656380Y-136866095D01*
X108608761Y-136770857D01*
X108561142Y-136723238D01*
X108465904Y-136675619D01*
X108275428Y-136675619D01*
X108180190Y-136723238D01*
X108132571Y-136770857D01*
X108084952Y-136866095D01*
X107656380Y-136056571D02*
X107656380Y-135961333D01*
X107704000Y-135866095D01*
X107751619Y-135818476D01*
X107846857Y-135770857D01*
X108037333Y-135723238D01*
X108275428Y-135723238D01*
X108465904Y-135770857D01*
X108561142Y-135818476D01*
X108608761Y-135866095D01*
X108656380Y-135961333D01*
X108656380Y-136056571D01*
X108608761Y-136151809D01*
X108561142Y-136199428D01*
X108465904Y-136247047D01*
X108275428Y-136294666D01*
X108037333Y-136294666D01*
X107846857Y-136247047D01*
X107751619Y-136199428D01*
X107704000Y-136151809D01*
X107656380Y-136056571D01*
X108084952Y-135151809D02*
X108037333Y-135247047D01*
X107989714Y-135294666D01*
X107894476Y-135342285D01*
X107846857Y-135342285D01*
X107751619Y-135294666D01*
X107704000Y-135247047D01*
X107656380Y-135151809D01*
X107656380Y-134961333D01*
X107704000Y-134866095D01*
X107751619Y-134818476D01*
X107846857Y-134770857D01*
X107894476Y-134770857D01*
X107989714Y-134818476D01*
X108037333Y-134866095D01*
X108084952Y-134961333D01*
X108084952Y-135151809D01*
X108132571Y-135247047D01*
X108180190Y-135294666D01*
X108275428Y-135342285D01*
X108465904Y-135342285D01*
X108561142Y-135294666D01*
X108608761Y-135247047D01*
X108656380Y-135151809D01*
X108656380Y-134961333D01*
X108608761Y-134866095D01*
X108561142Y-134818476D01*
X108465904Y-134770857D01*
X108275428Y-134770857D01*
X108180190Y-134818476D01*
X108132571Y-134866095D01*
X108084952Y-134961333D01*
X107656380Y-134151809D02*
X107656380Y-134056571D01*
X107704000Y-133961333D01*
X107751619Y-133913714D01*
X107846857Y-133866095D01*
X108037333Y-133818476D01*
X108275428Y-133818476D01*
X108465904Y-133866095D01*
X108561142Y-133913714D01*
X108608761Y-133961333D01*
X108656380Y-134056571D01*
X108656380Y-134151809D01*
X108608761Y-134247047D01*
X108561142Y-134294666D01*
X108465904Y-134342285D01*
X108275428Y-134389904D01*
X108037333Y-134389904D01*
X107846857Y-134342285D01*
X107751619Y-134294666D01*
X107704000Y-134247047D01*
X107656380Y-134151809D01*
X108132571Y-132294666D02*
X108180190Y-132151809D01*
X108227809Y-132104190D01*
X108323047Y-132056571D01*
X108465904Y-132056571D01*
X108561142Y-132104190D01*
X108608761Y-132151809D01*
X108656380Y-132247047D01*
X108656380Y-132628000D01*
X107656380Y-132628000D01*
X107656380Y-132294666D01*
X107704000Y-132199428D01*
X107751619Y-132151809D01*
X107846857Y-132104190D01*
X107942095Y-132104190D01*
X108037333Y-132151809D01*
X108084952Y-132199428D01*
X108132571Y-132294666D01*
X108132571Y-132628000D01*
X107656380Y-131628000D02*
X108465904Y-131628000D01*
X108561142Y-131580380D01*
X108608761Y-131532761D01*
X108656380Y-131437523D01*
X108656380Y-131247047D01*
X108608761Y-131151809D01*
X108561142Y-131104190D01*
X108465904Y-131056571D01*
X107656380Y-131056571D01*
X108608761Y-130628000D02*
X108656380Y-130485142D01*
X108656380Y-130247047D01*
X108608761Y-130151809D01*
X108561142Y-130104190D01*
X108465904Y-130056571D01*
X108370666Y-130056571D01*
X108275428Y-130104190D01*
X108227809Y-130151809D01*
X108180190Y-130247047D01*
X108132571Y-130437523D01*
X108084952Y-130532761D01*
X108037333Y-130580380D01*
X107942095Y-130628000D01*
X107846857Y-130628000D01*
X107751619Y-130580380D01*
X107704000Y-130532761D01*
X107656380Y-130437523D01*
X107656380Y-130199428D01*
X107704000Y-130056571D01*
D11*
X119634000Y-90213714D02*
X120276857Y-91356571D01*
X118991142Y-91356571D01*
X119634000Y-90213714D01*
X164528571Y-131171142D02*
X165671428Y-130528285D01*
X165671428Y-131814000D01*
X164528571Y-131171142D01*
D12*
X143946571Y-64952476D02*
X143946571Y-64619142D01*
X144470380Y-64476285D02*
X144470380Y-64952476D01*
X143470380Y-64952476D01*
X143470380Y-64476285D01*
X143470380Y-63857238D02*
X143470380Y-63762000D01*
X143518000Y-63666761D01*
X143565619Y-63619142D01*
X143660857Y-63571523D01*
X143851333Y-63523904D01*
X144089428Y-63523904D01*
X144279904Y-63571523D01*
X144375142Y-63619142D01*
X144422761Y-63666761D01*
X144470380Y-63762000D01*
X144470380Y-63857238D01*
X144422761Y-63952476D01*
X144375142Y-64000095D01*
X144279904Y-64047714D01*
X144089428Y-64095333D01*
X143851333Y-64095333D01*
X143660857Y-64047714D01*
X143565619Y-64000095D01*
X143518000Y-63952476D01*
X143470380Y-63857238D01*
X146915142Y-64428666D02*
X146962761Y-64476285D01*
X147010380Y-64619142D01*
X147010380Y-64714380D01*
X146962761Y-64857238D01*
X146867523Y-64952476D01*
X146772285Y-65000095D01*
X146581809Y-65047714D01*
X146438952Y-65047714D01*
X146248476Y-65000095D01*
X146153238Y-64952476D01*
X146058000Y-64857238D01*
X146010380Y-64714380D01*
X146010380Y-64619142D01*
X146058000Y-64476285D01*
X146105619Y-64428666D01*
X146010380Y-63809619D02*
X146010380Y-63714380D01*
X146058000Y-63619142D01*
X146105619Y-63571523D01*
X146200857Y-63523904D01*
X146391333Y-63476285D01*
X146629428Y-63476285D01*
X146819904Y-63523904D01*
X146915142Y-63571523D01*
X146962761Y-63619142D01*
X147010380Y-63714380D01*
X147010380Y-63809619D01*
X146962761Y-63904857D01*
X146915142Y-63952476D01*
X146819904Y-64000095D01*
X146629428Y-64047714D01*
X146391333Y-64047714D01*
X146200857Y-64000095D01*
X146105619Y-63952476D01*
X146058000Y-63904857D01*
X146010380Y-63809619D01*
X149264666Y-64976285D02*
X149264666Y-64500095D01*
X149550380Y-65071523D02*
X148550380Y-64738190D01*
X149550380Y-64404857D01*
X148550380Y-63881047D02*
X148550380Y-63785809D01*
X148598000Y-63690571D01*
X148645619Y-63642952D01*
X148740857Y-63595333D01*
X148931333Y-63547714D01*
X149169428Y-63547714D01*
X149359904Y-63595333D01*
X149455142Y-63642952D01*
X149502761Y-63690571D01*
X149550380Y-63785809D01*
X149550380Y-63881047D01*
X149502761Y-63976285D01*
X149455142Y-64023904D01*
X149359904Y-64071523D01*
X149169428Y-64119142D01*
X148931333Y-64119142D01*
X148740857Y-64071523D01*
X148645619Y-64023904D01*
X148598000Y-63976285D01*
X148550380Y-63881047D01*
X151264952Y-64833428D02*
X151217333Y-64928666D01*
X151169714Y-64976285D01*
X151074476Y-65023904D01*
X151026857Y-65023904D01*
X150931619Y-64976285D01*
X150884000Y-64928666D01*
X150836380Y-64833428D01*
X150836380Y-64642952D01*
X150884000Y-64547714D01*
X150931619Y-64500095D01*
X151026857Y-64452476D01*
X151074476Y-64452476D01*
X151169714Y-64500095D01*
X151217333Y-64547714D01*
X151264952Y-64642952D01*
X151264952Y-64833428D01*
X151312571Y-64928666D01*
X151360190Y-64976285D01*
X151455428Y-65023904D01*
X151645904Y-65023904D01*
X151741142Y-64976285D01*
X151788761Y-64928666D01*
X151836380Y-64833428D01*
X151836380Y-64642952D01*
X151788761Y-64547714D01*
X151741142Y-64500095D01*
X151645904Y-64452476D01*
X151455428Y-64452476D01*
X151360190Y-64500095D01*
X151312571Y-64547714D01*
X151264952Y-64642952D01*
X150836380Y-63833428D02*
X150836380Y-63738190D01*
X150884000Y-63642952D01*
X150931619Y-63595333D01*
X151026857Y-63547714D01*
X151217333Y-63500095D01*
X151455428Y-63500095D01*
X151645904Y-63547714D01*
X151741142Y-63595333D01*
X151788761Y-63642952D01*
X151836380Y-63738190D01*
X151836380Y-63833428D01*
X151788761Y-63928666D01*
X151741142Y-63976285D01*
X151645904Y-64023904D01*
X151455428Y-64071523D01*
X151217333Y-64071523D01*
X151026857Y-64023904D01*
X150931619Y-63976285D01*
X150884000Y-63928666D01*
X150836380Y-63833428D01*
X153630380Y-64547714D02*
X153630380Y-64738190D01*
X153678000Y-64833428D01*
X153725619Y-64881047D01*
X153868476Y-64976285D01*
X154058952Y-65023904D01*
X154439904Y-65023904D01*
X154535142Y-64976285D01*
X154582761Y-64928666D01*
X154630380Y-64833428D01*
X154630380Y-64642952D01*
X154582761Y-64547714D01*
X154535142Y-64500095D01*
X154439904Y-64452476D01*
X154201809Y-64452476D01*
X154106571Y-64500095D01*
X154058952Y-64547714D01*
X154011333Y-64642952D01*
X154011333Y-64833428D01*
X154058952Y-64928666D01*
X154106571Y-64976285D01*
X154201809Y-65023904D01*
X153630380Y-63833428D02*
X153630380Y-63738190D01*
X153678000Y-63642952D01*
X153725619Y-63595333D01*
X153820857Y-63547714D01*
X154011333Y-63500095D01*
X154249428Y-63500095D01*
X154439904Y-63547714D01*
X154535142Y-63595333D01*
X154582761Y-63642952D01*
X154630380Y-63738190D01*
X154630380Y-63833428D01*
X154582761Y-63928666D01*
X154535142Y-63976285D01*
X154439904Y-64023904D01*
X154249428Y-64071523D01*
X154011333Y-64071523D01*
X153820857Y-64023904D01*
X153725619Y-63976285D01*
X153678000Y-63928666D01*
X153630380Y-63833428D01*
X156503714Y-64547714D02*
X157170380Y-64547714D01*
X156122761Y-64785809D02*
X156837047Y-65023904D01*
X156837047Y-64404857D01*
X156170380Y-63833428D02*
X156170380Y-63738190D01*
X156218000Y-63642952D01*
X156265619Y-63595333D01*
X156360857Y-63547714D01*
X156551333Y-63500095D01*
X156789428Y-63500095D01*
X156979904Y-63547714D01*
X157075142Y-63595333D01*
X157122761Y-63642952D01*
X157170380Y-63738190D01*
X157170380Y-63833428D01*
X157122761Y-63928666D01*
X157075142Y-63976285D01*
X156979904Y-64023904D01*
X156789428Y-64071523D01*
X156551333Y-64071523D01*
X156360857Y-64023904D01*
X156265619Y-63976285D01*
X156218000Y-63928666D01*
X156170380Y-63833428D01*
X158551619Y-65023904D02*
X158504000Y-64976285D01*
X158456380Y-64881047D01*
X158456380Y-64642952D01*
X158504000Y-64547714D01*
X158551619Y-64500095D01*
X158646857Y-64452476D01*
X158742095Y-64452476D01*
X158884952Y-64500095D01*
X159456380Y-65071523D01*
X159456380Y-64452476D01*
X158456380Y-63833428D02*
X158456380Y-63738190D01*
X158504000Y-63642952D01*
X158551619Y-63595333D01*
X158646857Y-63547714D01*
X158837333Y-63500095D01*
X159075428Y-63500095D01*
X159265904Y-63547714D01*
X159361142Y-63595333D01*
X159408761Y-63642952D01*
X159456380Y-63738190D01*
X159456380Y-63833428D01*
X159408761Y-63928666D01*
X159361142Y-63976285D01*
X159265904Y-64023904D01*
X159075428Y-64071523D01*
X158837333Y-64071523D01*
X158646857Y-64023904D01*
X158551619Y-63976285D01*
X158504000Y-63928666D01*
X158456380Y-63833428D01*
X161250380Y-64785809D02*
X161250380Y-64690571D01*
X161298000Y-64595333D01*
X161345619Y-64547714D01*
X161440857Y-64500095D01*
X161631333Y-64452476D01*
X161869428Y-64452476D01*
X162059904Y-64500095D01*
X162155142Y-64547714D01*
X162202761Y-64595333D01*
X162250380Y-64690571D01*
X162250380Y-64785809D01*
X162202761Y-64881047D01*
X162155142Y-64928666D01*
X162059904Y-64976285D01*
X161869428Y-65023904D01*
X161631333Y-65023904D01*
X161440857Y-64976285D01*
X161345619Y-64928666D01*
X161298000Y-64881047D01*
X161250380Y-64785809D01*
X161250380Y-63833428D02*
X161250380Y-63738190D01*
X161298000Y-63642952D01*
X161345619Y-63595333D01*
X161440857Y-63547714D01*
X161631333Y-63500095D01*
X161869428Y-63500095D01*
X162059904Y-63547714D01*
X162155142Y-63595333D01*
X162202761Y-63642952D01*
X162250380Y-63738190D01*
X162250380Y-63833428D01*
X162202761Y-63928666D01*
X162155142Y-63976285D01*
X162059904Y-64023904D01*
X161869428Y-64071523D01*
X161631333Y-64071523D01*
X161440857Y-64023904D01*
X161345619Y-63976285D01*
X161298000Y-63928666D01*
X161250380Y-63833428D01*
D10*
X177752857Y-62158571D02*
X177419523Y-62158571D01*
X177419523Y-62682380D02*
X177419523Y-61682380D01*
X177895714Y-61682380D01*
X178133809Y-61682380D02*
X178705238Y-61682380D01*
X178419523Y-62682380D02*
X178419523Y-61682380D01*
X179038571Y-62682380D02*
X179038571Y-61682380D01*
X179276666Y-61682380D01*
X179419523Y-61730000D01*
X179514761Y-61825238D01*
X179562380Y-61920476D01*
X179610000Y-62110952D01*
X179610000Y-62253809D01*
X179562380Y-62444285D01*
X179514761Y-62539523D01*
X179419523Y-62634761D01*
X179276666Y-62682380D01*
X179038571Y-62682380D01*
X180038571Y-62682380D02*
X180038571Y-61682380D01*
X181229047Y-62634761D02*
X181371904Y-62682380D01*
X181610000Y-62682380D01*
X181705238Y-62634761D01*
X181752857Y-62587142D01*
X181800476Y-62491904D01*
X181800476Y-62396666D01*
X181752857Y-62301428D01*
X181705238Y-62253809D01*
X181610000Y-62206190D01*
X181419523Y-62158571D01*
X181324285Y-62110952D01*
X181276666Y-62063333D01*
X181229047Y-61968095D01*
X181229047Y-61872857D01*
X181276666Y-61777619D01*
X181324285Y-61730000D01*
X181419523Y-61682380D01*
X181657619Y-61682380D01*
X181800476Y-61730000D01*
X182229047Y-62158571D02*
X182562380Y-62158571D01*
X182705238Y-62682380D02*
X182229047Y-62682380D01*
X182229047Y-61682380D01*
X182705238Y-61682380D01*
X183705238Y-62682380D02*
X183371904Y-62206190D01*
X183133809Y-62682380D02*
X183133809Y-61682380D01*
X183514761Y-61682380D01*
X183610000Y-61730000D01*
X183657619Y-61777619D01*
X183705238Y-61872857D01*
X183705238Y-62015714D01*
X183657619Y-62110952D01*
X183610000Y-62158571D01*
X183514761Y-62206190D01*
X183133809Y-62206190D01*
X184133809Y-62682380D02*
X184133809Y-61682380D01*
X184562380Y-62396666D02*
X185038571Y-62396666D01*
X184467142Y-62682380D02*
X184800476Y-61682380D01*
X185133809Y-62682380D01*
X185943333Y-62682380D02*
X185467142Y-62682380D01*
X185467142Y-61682380D01*
X175093380Y-59920142D02*
X175045761Y-59967761D01*
X174902904Y-60015380D01*
X174807666Y-60015380D01*
X174664809Y-59967761D01*
X174569571Y-59872523D01*
X174521952Y-59777285D01*
X174474333Y-59586809D01*
X174474333Y-59443952D01*
X174521952Y-59253476D01*
X174569571Y-59158238D01*
X174664809Y-59063000D01*
X174807666Y-59015380D01*
X174902904Y-59015380D01*
X175045761Y-59063000D01*
X175093380Y-59110619D01*
X175379095Y-59015380D02*
X175950523Y-59015380D01*
X175664809Y-60015380D02*
X175664809Y-59015380D01*
X176236238Y-59967761D02*
X176379095Y-60015380D01*
X176617190Y-60015380D01*
X176712428Y-59967761D01*
X176760047Y-59920142D01*
X176807666Y-59824904D01*
X176807666Y-59729666D01*
X176760047Y-59634428D01*
X176712428Y-59586809D01*
X176617190Y-59539190D01*
X176426714Y-59491571D01*
X176331476Y-59443952D01*
X176283857Y-59396333D01*
X176236238Y-59301095D01*
X176236238Y-59205857D01*
X176283857Y-59110619D01*
X176331476Y-59063000D01*
X176426714Y-59015380D01*
X176664809Y-59015380D01*
X176807666Y-59063000D01*
X174950523Y-56602380D02*
X175521952Y-56602380D01*
X175236238Y-57602380D02*
X175236238Y-56602380D01*
X175760047Y-57602380D02*
X176283857Y-56935714D01*
X175760047Y-56935714D02*
X176283857Y-57602380D01*
X175545761Y-55062380D02*
X175212428Y-54586190D01*
X174974333Y-55062380D02*
X174974333Y-54062380D01*
X175355285Y-54062380D01*
X175450523Y-54110000D01*
X175498142Y-54157619D01*
X175545761Y-54252857D01*
X175545761Y-54395714D01*
X175498142Y-54490952D01*
X175450523Y-54538571D01*
X175355285Y-54586190D01*
X174974333Y-54586190D01*
X175879095Y-55062380D02*
X176402904Y-54395714D01*
X175879095Y-54395714D02*
X176402904Y-55062380D01*
X174855285Y-52522380D02*
X174855285Y-51522380D01*
X175426714Y-52522380D01*
X175426714Y-51522380D01*
X176474333Y-52427142D02*
X176426714Y-52474761D01*
X176283857Y-52522380D01*
X176188619Y-52522380D01*
X176045761Y-52474761D01*
X175950523Y-52379523D01*
X175902904Y-52284285D01*
X175855285Y-52093809D01*
X175855285Y-51950952D01*
X175902904Y-51760476D01*
X175950523Y-51665238D01*
X176045761Y-51570000D01*
X176188619Y-51522380D01*
X176283857Y-51522380D01*
X176426714Y-51570000D01*
X176474333Y-51617619D01*
X175093380Y-49855380D02*
X174760047Y-49379190D01*
X174521952Y-49855380D02*
X174521952Y-48855380D01*
X174902904Y-48855380D01*
X174998142Y-48903000D01*
X175045761Y-48950619D01*
X175093380Y-49045857D01*
X175093380Y-49188714D01*
X175045761Y-49283952D01*
X174998142Y-49331571D01*
X174902904Y-49379190D01*
X174521952Y-49379190D01*
X175379095Y-48855380D02*
X175950523Y-48855380D01*
X175664809Y-49855380D02*
X175664809Y-48855380D01*
X176236238Y-49807761D02*
X176379095Y-49855380D01*
X176617190Y-49855380D01*
X176712428Y-49807761D01*
X176760047Y-49760142D01*
X176807666Y-49664904D01*
X176807666Y-49569666D01*
X176760047Y-49474428D01*
X176712428Y-49426809D01*
X176617190Y-49379190D01*
X176426714Y-49331571D01*
X176331476Y-49283952D01*
X176283857Y-49236333D01*
X176236238Y-49141095D01*
X176236238Y-49045857D01*
X176283857Y-48950619D01*
X176331476Y-48903000D01*
X176426714Y-48855380D01*
X176664809Y-48855380D01*
X176807666Y-48903000D01*
X174752095Y-46109000D02*
X174656857Y-46061380D01*
X174514000Y-46061380D01*
X174371142Y-46109000D01*
X174275904Y-46204238D01*
X174228285Y-46299476D01*
X174180666Y-46489952D01*
X174180666Y-46632809D01*
X174228285Y-46823285D01*
X174275904Y-46918523D01*
X174371142Y-47013761D01*
X174514000Y-47061380D01*
X174609238Y-47061380D01*
X174752095Y-47013761D01*
X174799714Y-46966142D01*
X174799714Y-46632809D01*
X174609238Y-46632809D01*
X175228285Y-47061380D02*
X175228285Y-46061380D01*
X175799714Y-47061380D01*
X175799714Y-46061380D01*
X176275904Y-47061380D02*
X176275904Y-46061380D01*
X176514000Y-46061380D01*
X176656857Y-46109000D01*
X176752095Y-46204238D01*
X176799714Y-46299476D01*
X176847333Y-46489952D01*
X176847333Y-46632809D01*
X176799714Y-46823285D01*
X176752095Y-46918523D01*
X176656857Y-47013761D01*
X176514000Y-47061380D01*
X176275904Y-47061380D01*
D13*
X168600380Y-128277904D02*
X167600380Y-128277904D01*
X168600380Y-127706476D02*
X168028952Y-128135047D01*
X167600380Y-127706476D02*
X168171809Y-128277904D01*
D11*
X114903571Y-53153571D02*
X114617857Y-53153571D01*
X114475000Y-53225000D01*
X114403571Y-53296428D01*
X114260714Y-53510714D01*
X114189285Y-53796428D01*
X114189285Y-54367857D01*
X114260714Y-54510714D01*
X114332142Y-54582142D01*
X114475000Y-54653571D01*
X114760714Y-54653571D01*
X114903571Y-54582142D01*
X114975000Y-54510714D01*
X115046428Y-54367857D01*
X115046428Y-54010714D01*
X114975000Y-53867857D01*
X114903571Y-53796428D01*
X114760714Y-53725000D01*
X114475000Y-53725000D01*
X114332142Y-53796428D01*
X114260714Y-53867857D01*
X114189285Y-54010714D01*
X115617857Y-53296428D02*
X115689285Y-53225000D01*
X115832142Y-53153571D01*
X116189285Y-53153571D01*
X116332142Y-53225000D01*
X116403571Y-53296428D01*
X116475000Y-53439285D01*
X116475000Y-53582142D01*
X116403571Y-53796428D01*
X115546428Y-54653571D01*
X116475000Y-54653571D01*
X117046428Y-53296428D02*
X117117857Y-53225000D01*
X117260714Y-53153571D01*
X117617857Y-53153571D01*
X117760714Y-53225000D01*
X117832142Y-53296428D01*
X117903571Y-53439285D01*
X117903571Y-53582142D01*
X117832142Y-53796428D01*
X116975000Y-54653571D01*
X117903571Y-54653571D01*
X119260714Y-53153571D02*
X118546428Y-53153571D01*
X118475000Y-53867857D01*
X118546428Y-53796428D01*
X118689285Y-53725000D01*
X119046428Y-53725000D01*
X119189285Y-53796428D01*
X119260714Y-53867857D01*
X119332142Y-54010714D01*
X119332142Y-54367857D01*
X119260714Y-54510714D01*
X119189285Y-54582142D01*
X119046428Y-54653571D01*
X118689285Y-54653571D01*
X118546428Y-54582142D01*
X118475000Y-54510714D01*
X120617857Y-53153571D02*
X120332142Y-53153571D01*
X120189285Y-53225000D01*
X120117857Y-53296428D01*
X119975000Y-53510714D01*
X119903571Y-53796428D01*
X119903571Y-54367857D01*
X119975000Y-54510714D01*
X120046428Y-54582142D01*
X120189285Y-54653571D01*
X120475000Y-54653571D01*
X120617857Y-54582142D01*
X120689285Y-54510714D01*
X120760714Y-54367857D01*
X120760714Y-54010714D01*
X120689285Y-53867857D01*
X120617857Y-53796428D01*
X120475000Y-53725000D01*
X120189285Y-53725000D01*
X120046428Y-53796428D01*
X119975000Y-53867857D01*
X119903571Y-54010714D01*
X147507142Y-49978571D02*
X148507142Y-49978571D01*
X147864285Y-51478571D01*
X149721428Y-50478571D02*
X149721428Y-51478571D01*
X149364285Y-49907142D02*
X149007142Y-50978571D01*
X149935714Y-50978571D01*
X150507142Y-51478571D02*
X150507142Y-49978571D01*
X150507142Y-50692857D02*
X151364285Y-50692857D01*
X151364285Y-51478571D02*
X151364285Y-49978571D01*
X152935714Y-51335714D02*
X152864285Y-51407142D01*
X152650000Y-51478571D01*
X152507142Y-51478571D01*
X152292857Y-51407142D01*
X152150000Y-51264285D01*
X152078571Y-51121428D01*
X152007142Y-50835714D01*
X152007142Y-50621428D01*
X152078571Y-50335714D01*
X152150000Y-50192857D01*
X152292857Y-50050000D01*
X152507142Y-49978571D01*
X152650000Y-49978571D01*
X152864285Y-50050000D01*
X152935714Y-50121428D01*
X154364285Y-51478571D02*
X153507142Y-51478571D01*
X153935714Y-51478571D02*
X153935714Y-49978571D01*
X153792857Y-50192857D01*
X153650000Y-50335714D01*
X153507142Y-50407142D01*
X154864285Y-49978571D02*
X155792857Y-49978571D01*
X155292857Y-50550000D01*
X155507142Y-50550000D01*
X155650000Y-50621428D01*
X155721428Y-50692857D01*
X155792857Y-50835714D01*
X155792857Y-51192857D01*
X155721428Y-51335714D01*
X155650000Y-51407142D01*
X155507142Y-51478571D01*
X155078571Y-51478571D01*
X154935714Y-51407142D01*
X154864285Y-51335714D01*
X156650000Y-50621428D02*
X156507142Y-50550000D01*
X156435714Y-50478571D01*
X156364285Y-50335714D01*
X156364285Y-50264285D01*
X156435714Y-50121428D01*
X156507142Y-50050000D01*
X156650000Y-49978571D01*
X156935714Y-49978571D01*
X157078571Y-50050000D01*
X157150000Y-50121428D01*
X157221428Y-50264285D01*
X157221428Y-50335714D01*
X157150000Y-50478571D01*
X157078571Y-50550000D01*
X156935714Y-50621428D01*
X156650000Y-50621428D01*
X156507142Y-50692857D01*
X156435714Y-50764285D01*
X156364285Y-50907142D01*
X156364285Y-51192857D01*
X156435714Y-51335714D01*
X156507142Y-51407142D01*
X156650000Y-51478571D01*
X156935714Y-51478571D01*
X157078571Y-51407142D01*
X157150000Y-51335714D01*
X157221428Y-51192857D01*
X157221428Y-50907142D01*
X157150000Y-50764285D01*
X157078571Y-50692857D01*
X156935714Y-50621428D01*
D10*
X164631666Y-63229761D02*
X164631666Y-62753571D01*
X164917380Y-63325000D02*
X163917380Y-62991666D01*
X164917380Y-62658333D01*
X164822142Y-61753571D02*
X164869761Y-61801190D01*
X164917380Y-61944047D01*
X164917380Y-62039285D01*
X164869761Y-62182142D01*
X164774523Y-62277380D01*
X164679285Y-62325000D01*
X164488809Y-62372619D01*
X164345952Y-62372619D01*
X164155476Y-62325000D01*
X164060238Y-62277380D01*
X163965000Y-62182142D01*
X163917380Y-62039285D01*
X163917380Y-61944047D01*
X163965000Y-61801190D01*
X164012619Y-61753571D01*
X164917380Y-61325000D02*
X163917380Y-61325000D01*
X164631666Y-60896428D02*
X164631666Y-60420238D01*
X164917380Y-60991666D02*
X163917380Y-60658333D01*
X164917380Y-60325000D01*
X164536428Y-59991666D02*
X164536428Y-59229761D01*
X163917380Y-58467857D02*
X164631666Y-58467857D01*
X164774523Y-58515476D01*
X164869761Y-58610714D01*
X164917380Y-58753571D01*
X164917380Y-58848809D01*
X164917380Y-57991666D02*
X163917380Y-57991666D01*
X163917380Y-57610714D01*
X163965000Y-57515476D01*
X164012619Y-57467857D01*
X164107857Y-57420238D01*
X164250714Y-57420238D01*
X164345952Y-57467857D01*
X164393571Y-57515476D01*
X164441190Y-57610714D01*
X164441190Y-57991666D01*
D11*
X124091428Y-117923571D02*
X125091428Y-117923571D01*
X124448571Y-119423571D01*
X126305714Y-118423571D02*
X126305714Y-119423571D01*
X125948571Y-117852142D02*
X125591428Y-118923571D01*
X126520000Y-118923571D01*
X127091428Y-119423571D02*
X127091428Y-117923571D01*
X127091428Y-118637857D02*
X127948571Y-118637857D01*
X127948571Y-119423571D02*
X127948571Y-117923571D01*
X129520000Y-119280714D02*
X129448571Y-119352142D01*
X129234285Y-119423571D01*
X129091428Y-119423571D01*
X128877142Y-119352142D01*
X128734285Y-119209285D01*
X128662857Y-119066428D01*
X128591428Y-118780714D01*
X128591428Y-118566428D01*
X128662857Y-118280714D01*
X128734285Y-118137857D01*
X128877142Y-117995000D01*
X129091428Y-117923571D01*
X129234285Y-117923571D01*
X129448571Y-117995000D01*
X129520000Y-118066428D01*
X130448571Y-117923571D02*
X130591428Y-117923571D01*
X130734285Y-117995000D01*
X130805714Y-118066428D01*
X130877142Y-118209285D01*
X130948571Y-118495000D01*
X130948571Y-118852142D01*
X130877142Y-119137857D01*
X130805714Y-119280714D01*
X130734285Y-119352142D01*
X130591428Y-119423571D01*
X130448571Y-119423571D01*
X130305714Y-119352142D01*
X130234285Y-119280714D01*
X130162857Y-119137857D01*
X130091428Y-118852142D01*
X130091428Y-118495000D01*
X130162857Y-118209285D01*
X130234285Y-118066428D01*
X130305714Y-117995000D01*
X130448571Y-117923571D01*
X132234285Y-118423571D02*
X132234285Y-119423571D01*
X131877142Y-117852142D02*
X131520000Y-118923571D01*
X132448571Y-118923571D01*
X101866428Y-117923571D02*
X102866428Y-117923571D01*
X102223571Y-119423571D01*
X104080714Y-118423571D02*
X104080714Y-119423571D01*
X103723571Y-117852142D02*
X103366428Y-118923571D01*
X104295000Y-118923571D01*
X104866428Y-119423571D02*
X104866428Y-117923571D01*
X104866428Y-118637857D02*
X105723571Y-118637857D01*
X105723571Y-119423571D02*
X105723571Y-117923571D01*
X107295000Y-119280714D02*
X107223571Y-119352142D01*
X107009285Y-119423571D01*
X106866428Y-119423571D01*
X106652142Y-119352142D01*
X106509285Y-119209285D01*
X106437857Y-119066428D01*
X106366428Y-118780714D01*
X106366428Y-118566428D01*
X106437857Y-118280714D01*
X106509285Y-118137857D01*
X106652142Y-117995000D01*
X106866428Y-117923571D01*
X107009285Y-117923571D01*
X107223571Y-117995000D01*
X107295000Y-118066428D01*
X107795000Y-117923571D02*
X108723571Y-117923571D01*
X108223571Y-118495000D01*
X108437857Y-118495000D01*
X108580714Y-118566428D01*
X108652142Y-118637857D01*
X108723571Y-118780714D01*
X108723571Y-119137857D01*
X108652142Y-119280714D01*
X108580714Y-119352142D01*
X108437857Y-119423571D01*
X108009285Y-119423571D01*
X107866428Y-119352142D01*
X107795000Y-119280714D01*
X109295000Y-118066428D02*
X109366428Y-117995000D01*
X109509285Y-117923571D01*
X109866428Y-117923571D01*
X110009285Y-117995000D01*
X110080714Y-118066428D01*
X110152142Y-118209285D01*
X110152142Y-118352142D01*
X110080714Y-118566428D01*
X109223571Y-119423571D01*
X110152142Y-119423571D01*
X159016428Y-91888571D02*
X160016428Y-91888571D01*
X159373571Y-93388571D01*
X161230714Y-92388571D02*
X161230714Y-93388571D01*
X160873571Y-91817142D02*
X160516428Y-92888571D01*
X161445000Y-92888571D01*
X162016428Y-93388571D02*
X162016428Y-91888571D01*
X162016428Y-92602857D02*
X162873571Y-92602857D01*
X162873571Y-93388571D02*
X162873571Y-91888571D01*
X164445000Y-93245714D02*
X164373571Y-93317142D01*
X164159285Y-93388571D01*
X164016428Y-93388571D01*
X163802142Y-93317142D01*
X163659285Y-93174285D01*
X163587857Y-93031428D01*
X163516428Y-92745714D01*
X163516428Y-92531428D01*
X163587857Y-92245714D01*
X163659285Y-92102857D01*
X163802142Y-91960000D01*
X164016428Y-91888571D01*
X164159285Y-91888571D01*
X164373571Y-91960000D01*
X164445000Y-92031428D01*
X165873571Y-93388571D02*
X165016428Y-93388571D01*
X165445000Y-93388571D02*
X165445000Y-91888571D01*
X165302142Y-92102857D01*
X165159285Y-92245714D01*
X165016428Y-92317142D01*
X167159285Y-92388571D02*
X167159285Y-93388571D01*
X166802142Y-91817142D02*
X166445000Y-92888571D01*
X167373571Y-92888571D01*
X127929285Y-100778571D02*
X128929285Y-100778571D01*
X127929285Y-102278571D01*
X128929285Y-102278571D01*
X129715000Y-101421428D02*
X129572142Y-101350000D01*
X129500714Y-101278571D01*
X129429285Y-101135714D01*
X129429285Y-101064285D01*
X129500714Y-100921428D01*
X129572142Y-100850000D01*
X129715000Y-100778571D01*
X130000714Y-100778571D01*
X130143571Y-100850000D01*
X130215000Y-100921428D01*
X130286428Y-101064285D01*
X130286428Y-101135714D01*
X130215000Y-101278571D01*
X130143571Y-101350000D01*
X130000714Y-101421428D01*
X129715000Y-101421428D01*
X129572142Y-101492857D01*
X129500714Y-101564285D01*
X129429285Y-101707142D01*
X129429285Y-101992857D01*
X129500714Y-102135714D01*
X129572142Y-102207142D01*
X129715000Y-102278571D01*
X130000714Y-102278571D01*
X130143571Y-102207142D01*
X130215000Y-102135714D01*
X130286428Y-101992857D01*
X130286428Y-101707142D01*
X130215000Y-101564285D01*
X130143571Y-101492857D01*
X130000714Y-101421428D01*
X131215000Y-100778571D02*
X131357857Y-100778571D01*
X131500714Y-100850000D01*
X131572142Y-100921428D01*
X131643571Y-101064285D01*
X131715000Y-101350000D01*
X131715000Y-101707142D01*
X131643571Y-101992857D01*
X131572142Y-102135714D01*
X131500714Y-102207142D01*
X131357857Y-102278571D01*
X131215000Y-102278571D01*
X131072142Y-102207142D01*
X131000714Y-102135714D01*
X130929285Y-101992857D01*
X130857857Y-101707142D01*
X130857857Y-101350000D01*
X130929285Y-101064285D01*
X131000714Y-100921428D01*
X131072142Y-100850000D01*
X131215000Y-100778571D01*
X134357857Y-102135714D02*
X134286428Y-102207142D01*
X134072142Y-102278571D01*
X133929285Y-102278571D01*
X133715000Y-102207142D01*
X133572142Y-102064285D01*
X133500714Y-101921428D01*
X133429285Y-101635714D01*
X133429285Y-101421428D01*
X133500714Y-101135714D01*
X133572142Y-100992857D01*
X133715000Y-100850000D01*
X133929285Y-100778571D01*
X134072142Y-100778571D01*
X134286428Y-100850000D01*
X134357857Y-100921428D01*
X135000714Y-102278571D02*
X135000714Y-100778571D01*
X135572142Y-100778571D01*
X135715000Y-100850000D01*
X135786428Y-100921428D01*
X135857857Y-101064285D01*
X135857857Y-101278571D01*
X135786428Y-101421428D01*
X135715000Y-101492857D01*
X135572142Y-101564285D01*
X135000714Y-101564285D01*
X136500714Y-100778571D02*
X136500714Y-101992857D01*
X136572142Y-102135714D01*
X136643571Y-102207142D01*
X136786428Y-102278571D01*
X137072142Y-102278571D01*
X137215000Y-102207142D01*
X137286428Y-102135714D01*
X137357857Y-101992857D01*
X137357857Y-100778571D01*
X114074285Y-73616428D02*
X114145714Y-73545000D01*
X114288571Y-73473571D01*
X114645714Y-73473571D01*
X114788571Y-73545000D01*
X114860000Y-73616428D01*
X114931428Y-73759285D01*
X114931428Y-73902142D01*
X114860000Y-74116428D01*
X114002857Y-74973571D01*
X114931428Y-74973571D01*
X115788571Y-74116428D02*
X115645714Y-74045000D01*
X115574285Y-73973571D01*
X115502857Y-73830714D01*
X115502857Y-73759285D01*
X115574285Y-73616428D01*
X115645714Y-73545000D01*
X115788571Y-73473571D01*
X116074285Y-73473571D01*
X116217142Y-73545000D01*
X116288571Y-73616428D01*
X116360000Y-73759285D01*
X116360000Y-73830714D01*
X116288571Y-73973571D01*
X116217142Y-74045000D01*
X116074285Y-74116428D01*
X115788571Y-74116428D01*
X115645714Y-74187857D01*
X115574285Y-74259285D01*
X115502857Y-74402142D01*
X115502857Y-74687857D01*
X115574285Y-74830714D01*
X115645714Y-74902142D01*
X115788571Y-74973571D01*
X116074285Y-74973571D01*
X116217142Y-74902142D01*
X116288571Y-74830714D01*
X116360000Y-74687857D01*
X116360000Y-74402142D01*
X116288571Y-74259285D01*
X116217142Y-74187857D01*
X116074285Y-74116428D01*
X117860000Y-74830714D02*
X117788571Y-74902142D01*
X117574285Y-74973571D01*
X117431428Y-74973571D01*
X117217142Y-74902142D01*
X117074285Y-74759285D01*
X117002857Y-74616428D01*
X116931428Y-74330714D01*
X116931428Y-74116428D01*
X117002857Y-73830714D01*
X117074285Y-73687857D01*
X117217142Y-73545000D01*
X117431428Y-73473571D01*
X117574285Y-73473571D01*
X117788571Y-73545000D01*
X117860000Y-73616428D01*
X118431428Y-73616428D02*
X118502857Y-73545000D01*
X118645714Y-73473571D01*
X119002857Y-73473571D01*
X119145714Y-73545000D01*
X119217142Y-73616428D01*
X119288571Y-73759285D01*
X119288571Y-73902142D01*
X119217142Y-74116428D01*
X118360000Y-74973571D01*
X119288571Y-74973571D01*
X120645714Y-73473571D02*
X119931428Y-73473571D01*
X119860000Y-74187857D01*
X119931428Y-74116428D01*
X120074285Y-74045000D01*
X120431428Y-74045000D01*
X120574285Y-74116428D01*
X120645714Y-74187857D01*
X120717142Y-74330714D01*
X120717142Y-74687857D01*
X120645714Y-74830714D01*
X120574285Y-74902142D01*
X120431428Y-74973571D01*
X120074285Y-74973571D01*
X119931428Y-74902142D01*
X119860000Y-74830714D01*
X122002857Y-73473571D02*
X121717142Y-73473571D01*
X121574285Y-73545000D01*
X121502857Y-73616428D01*
X121360000Y-73830714D01*
X121288571Y-74116428D01*
X121288571Y-74687857D01*
X121360000Y-74830714D01*
X121431428Y-74902142D01*
X121574285Y-74973571D01*
X121860000Y-74973571D01*
X122002857Y-74902142D01*
X122074285Y-74830714D01*
X122145714Y-74687857D01*
X122145714Y-74330714D01*
X122074285Y-74187857D01*
X122002857Y-74116428D01*
X121860000Y-74045000D01*
X121574285Y-74045000D01*
X121431428Y-74116428D01*
X121360000Y-74187857D01*
X121288571Y-74330714D01*
X154987857Y-74108571D02*
X154702142Y-74108571D01*
X154559285Y-74180000D01*
X154487857Y-74251428D01*
X154345000Y-74465714D01*
X154273571Y-74751428D01*
X154273571Y-75322857D01*
X154345000Y-75465714D01*
X154416428Y-75537142D01*
X154559285Y-75608571D01*
X154845000Y-75608571D01*
X154987857Y-75537142D01*
X155059285Y-75465714D01*
X155130714Y-75322857D01*
X155130714Y-74965714D01*
X155059285Y-74822857D01*
X154987857Y-74751428D01*
X154845000Y-74680000D01*
X154559285Y-74680000D01*
X154416428Y-74751428D01*
X154345000Y-74822857D01*
X154273571Y-74965714D01*
X155987857Y-74751428D02*
X155845000Y-74680000D01*
X155773571Y-74608571D01*
X155702142Y-74465714D01*
X155702142Y-74394285D01*
X155773571Y-74251428D01*
X155845000Y-74180000D01*
X155987857Y-74108571D01*
X156273571Y-74108571D01*
X156416428Y-74180000D01*
X156487857Y-74251428D01*
X156559285Y-74394285D01*
X156559285Y-74465714D01*
X156487857Y-74608571D01*
X156416428Y-74680000D01*
X156273571Y-74751428D01*
X155987857Y-74751428D01*
X155845000Y-74822857D01*
X155773571Y-74894285D01*
X155702142Y-75037142D01*
X155702142Y-75322857D01*
X155773571Y-75465714D01*
X155845000Y-75537142D01*
X155987857Y-75608571D01*
X156273571Y-75608571D01*
X156416428Y-75537142D01*
X156487857Y-75465714D01*
X156559285Y-75322857D01*
X156559285Y-75037142D01*
X156487857Y-74894285D01*
X156416428Y-74822857D01*
X156273571Y-74751428D01*
X157916428Y-74108571D02*
X157202142Y-74108571D01*
X157130714Y-74822857D01*
X157202142Y-74751428D01*
X157345000Y-74680000D01*
X157702142Y-74680000D01*
X157845000Y-74751428D01*
X157916428Y-74822857D01*
X157987857Y-74965714D01*
X157987857Y-75322857D01*
X157916428Y-75465714D01*
X157845000Y-75537142D01*
X157702142Y-75608571D01*
X157345000Y-75608571D01*
X157202142Y-75537142D01*
X157130714Y-75465714D01*
X158916428Y-74108571D02*
X159059285Y-74108571D01*
X159202142Y-74180000D01*
X159273571Y-74251428D01*
X159345000Y-74394285D01*
X159416428Y-74680000D01*
X159416428Y-75037142D01*
X159345000Y-75322857D01*
X159273571Y-75465714D01*
X159202142Y-75537142D01*
X159059285Y-75608571D01*
X158916428Y-75608571D01*
X158773571Y-75537142D01*
X158702142Y-75465714D01*
X158630714Y-75322857D01*
X158559285Y-75037142D01*
X158559285Y-74680000D01*
X158630714Y-74394285D01*
X158702142Y-74251428D01*
X158773571Y-74180000D01*
X158916428Y-74108571D01*
D14*
X181372857Y-92146499D02*
X180172857Y-92146499D01*
X181372857Y-91460785D02*
X180687142Y-91975071D01*
X180172857Y-91460785D02*
X180858571Y-92146499D01*
X180172857Y-91060785D02*
X180172857Y-90260785D01*
X181372857Y-91060785D01*
X181372857Y-90260785D01*
X180687142Y-89632214D02*
X180630000Y-89746499D01*
X180572857Y-89803642D01*
X180458571Y-89860785D01*
X180401428Y-89860785D01*
X180287142Y-89803642D01*
X180230000Y-89746499D01*
X180172857Y-89632214D01*
X180172857Y-89403642D01*
X180230000Y-89289357D01*
X180287142Y-89232214D01*
X180401428Y-89175071D01*
X180458571Y-89175071D01*
X180572857Y-89232214D01*
X180630000Y-89289357D01*
X180687142Y-89403642D01*
X180687142Y-89632214D01*
X180744285Y-89746499D01*
X180801428Y-89803642D01*
X180915714Y-89860785D01*
X181144285Y-89860785D01*
X181258571Y-89803642D01*
X181315714Y-89746499D01*
X181372857Y-89632214D01*
X181372857Y-89403642D01*
X181315714Y-89289357D01*
X181258571Y-89232214D01*
X181144285Y-89175071D01*
X180915714Y-89175071D01*
X180801428Y-89232214D01*
X180744285Y-89289357D01*
X180687142Y-89403642D01*
X180172857Y-88432214D02*
X180172857Y-88317928D01*
X180230000Y-88203642D01*
X180287142Y-88146499D01*
X180401428Y-88089357D01*
X180630000Y-88032214D01*
X180915714Y-88032214D01*
X181144285Y-88089357D01*
X181258571Y-88146499D01*
X181315714Y-88203642D01*
X181372857Y-88317928D01*
X181372857Y-88432214D01*
X181315714Y-88546499D01*
X181258571Y-88603642D01*
X181144285Y-88660785D01*
X180915714Y-88717928D01*
X180630000Y-88717928D01*
X180401428Y-88660785D01*
X180287142Y-88603642D01*
X180230000Y-88546499D01*
X180172857Y-88432214D01*
X180915714Y-87517928D02*
X180915714Y-86603642D01*
X181315714Y-86089357D02*
X181372857Y-85917928D01*
X181372857Y-85632214D01*
X181315714Y-85517928D01*
X181258571Y-85460785D01*
X181144285Y-85403642D01*
X181030000Y-85403642D01*
X180915714Y-85460785D01*
X180858571Y-85517928D01*
X180801428Y-85632214D01*
X180744285Y-85860785D01*
X180687142Y-85975071D01*
X180630000Y-86032214D01*
X180515714Y-86089357D01*
X180401428Y-86089357D01*
X180287142Y-86032214D01*
X180230000Y-85975071D01*
X180172857Y-85860785D01*
X180172857Y-85575071D01*
X180230000Y-85403642D01*
X180744285Y-84489357D02*
X180801428Y-84317928D01*
X180858571Y-84260785D01*
X180972857Y-84203642D01*
X181144285Y-84203642D01*
X181258571Y-84260785D01*
X181315714Y-84317928D01*
X181372857Y-84432214D01*
X181372857Y-84889357D01*
X180172857Y-84889357D01*
X180172857Y-84489357D01*
X180230000Y-84375071D01*
X180287142Y-84317928D01*
X180401428Y-84260785D01*
X180515714Y-84260785D01*
X180630000Y-84317928D01*
X180687142Y-84375071D01*
X180744285Y-84489357D01*
X180744285Y-84889357D01*
X180915714Y-83689357D02*
X180915714Y-82775071D01*
X181372857Y-82203642D02*
X180172857Y-82203642D01*
X181030000Y-81803642D01*
X180172857Y-81403642D01*
X181372857Y-81403642D01*
X181258571Y-80146500D02*
X181315714Y-80203642D01*
X181372857Y-80375071D01*
X181372857Y-80489357D01*
X181315714Y-80660785D01*
X181201428Y-80775071D01*
X181087142Y-80832214D01*
X180858571Y-80889357D01*
X180687142Y-80889357D01*
X180458571Y-80832214D01*
X180344285Y-80775071D01*
X180230000Y-80660785D01*
X180172857Y-80489357D01*
X180172857Y-80375071D01*
X180230000Y-80203642D01*
X180287142Y-80146500D01*
X180172857Y-79117928D02*
X180172857Y-79346500D01*
X180230000Y-79460785D01*
X180287142Y-79517928D01*
X180458571Y-79632214D01*
X180687142Y-79689357D01*
X181144285Y-79689357D01*
X181258571Y-79632214D01*
X181315714Y-79575071D01*
X181372857Y-79460785D01*
X181372857Y-79232214D01*
X181315714Y-79117928D01*
X181258571Y-79060785D01*
X181144285Y-79003642D01*
X180858571Y-79003642D01*
X180744285Y-79060785D01*
X180687142Y-79117928D01*
X180630000Y-79232214D01*
X180630000Y-79460785D01*
X180687142Y-79575071D01*
X180744285Y-79632214D01*
X180858571Y-79689357D01*
X180687142Y-78317928D02*
X180630000Y-78432214D01*
X180572857Y-78489357D01*
X180458571Y-78546500D01*
X180401428Y-78546500D01*
X180287142Y-78489357D01*
X180230000Y-78432214D01*
X180172857Y-78317928D01*
X180172857Y-78089357D01*
X180230000Y-77975071D01*
X180287142Y-77917928D01*
X180401428Y-77860785D01*
X180458571Y-77860785D01*
X180572857Y-77917928D01*
X180630000Y-77975071D01*
X180687142Y-78089357D01*
X180687142Y-78317928D01*
X180744285Y-78432214D01*
X180801428Y-78489357D01*
X180915714Y-78546500D01*
X181144285Y-78546500D01*
X181258571Y-78489357D01*
X181315714Y-78432214D01*
X181372857Y-78317928D01*
X181372857Y-78089357D01*
X181315714Y-77975071D01*
X181258571Y-77917928D01*
X181144285Y-77860785D01*
X180915714Y-77860785D01*
X180801428Y-77917928D01*
X180744285Y-77975071D01*
X180687142Y-78089357D01*
X180172857Y-76775071D02*
X180172857Y-77346500D01*
X180744285Y-77403642D01*
X180687142Y-77346500D01*
X180630000Y-77232214D01*
X180630000Y-76946500D01*
X180687142Y-76832214D01*
X180744285Y-76775071D01*
X180858571Y-76717928D01*
X181144285Y-76717928D01*
X181258571Y-76775071D01*
X181315714Y-76832214D01*
X181372857Y-76946500D01*
X181372857Y-77232214D01*
X181315714Y-77346500D01*
X181258571Y-77403642D01*
X180172857Y-75975071D02*
X180172857Y-75860785D01*
X180230000Y-75746500D01*
X180287142Y-75689357D01*
X180401428Y-75632214D01*
X180630000Y-75575071D01*
X180915714Y-75575071D01*
X181144285Y-75632214D01*
X181258571Y-75689357D01*
X181315714Y-75746500D01*
X181372857Y-75860785D01*
X181372857Y-75975071D01*
X181315714Y-76089357D01*
X181258571Y-76146500D01*
X181144285Y-76203642D01*
X180915714Y-76260785D01*
X180630000Y-76260785D01*
X180401428Y-76203642D01*
X180287142Y-76146500D01*
X180230000Y-76089357D01*
X180172857Y-75975071D01*
X183422857Y-78832214D02*
X182851428Y-79232214D01*
X183422857Y-79517928D02*
X182222857Y-79517928D01*
X182222857Y-79060785D01*
X182280000Y-78946500D01*
X182337142Y-78889357D01*
X182451428Y-78832214D01*
X182622857Y-78832214D01*
X182737142Y-78889357D01*
X182794285Y-78946500D01*
X182851428Y-79060785D01*
X182851428Y-79517928D01*
X182794285Y-78317928D02*
X182794285Y-77917928D01*
X183422857Y-77746500D02*
X183422857Y-78317928D01*
X182222857Y-78317928D01*
X182222857Y-77746500D01*
X182222857Y-77403642D02*
X183422857Y-77003642D01*
X182222857Y-76603642D01*
X183422857Y-75575071D02*
X183422857Y-76260785D01*
X183422857Y-75917928D02*
X182222857Y-75917928D01*
X182394285Y-76032214D01*
X182508571Y-76146500D01*
X182565714Y-76260785D01*
X185472857Y-84089357D02*
X184272857Y-84089357D01*
X185472857Y-83403642D02*
X184787142Y-83917928D01*
X184272857Y-83403642D02*
X184958571Y-84089357D01*
X184272857Y-82889357D02*
X185244285Y-82889357D01*
X185358571Y-82832214D01*
X185415714Y-82775071D01*
X185472857Y-82660785D01*
X185472857Y-82432214D01*
X185415714Y-82317928D01*
X185358571Y-82260785D01*
X185244285Y-82203642D01*
X184272857Y-82203642D01*
X185472857Y-81632214D02*
X184272857Y-81632214D01*
X185472857Y-80946500D01*
X184272857Y-80946500D01*
X185472857Y-80375071D02*
X184272857Y-80375071D01*
X185015714Y-79803642D02*
X185015714Y-78889357D01*
X185472857Y-78317928D02*
X184272857Y-78317928D01*
X185472857Y-77632214D01*
X184272857Y-77632214D01*
X184844285Y-77060785D02*
X184844285Y-76660785D01*
X185472857Y-76489357D02*
X185472857Y-77060785D01*
X184272857Y-77060785D01*
X184272857Y-76489357D01*
X184272857Y-76146500D02*
X184272857Y-75460785D01*
X185472857Y-75803642D02*
X184272857Y-75803642D01*
D15*
G04 #@! TO.C,C1*
X122060000Y-99190000D02*
X122060000Y-102310000D01*
X119940000Y-99190000D02*
X119940000Y-102310000D01*
X122060000Y-99190000D02*
X121996000Y-99190000D01*
X120004000Y-99190000D02*
X119940000Y-99190000D01*
X122060000Y-102310000D02*
X121996000Y-102310000D01*
X120004000Y-102310000D02*
X119940000Y-102310000D01*
G04 #@! TO.C,C2*
X157190000Y-116940000D02*
X160310000Y-116940000D01*
X157190000Y-119060000D02*
X160310000Y-119060000D01*
X157190000Y-116940000D02*
X157190000Y-117004000D01*
X157190000Y-118996000D02*
X157190000Y-119060000D01*
X160310000Y-116940000D02*
X160310000Y-117004000D01*
X160310000Y-118996000D02*
X160310000Y-119060000D01*
G04 #@! TO.C,C3*
X157190000Y-122940000D02*
X160310000Y-122940000D01*
X157190000Y-125060000D02*
X160310000Y-125060000D01*
X157190000Y-122940000D02*
X157190000Y-123004000D01*
X157190000Y-124996000D02*
X157190000Y-125060000D01*
X160310000Y-122940000D02*
X160310000Y-123004000D01*
X160310000Y-124996000D02*
X160310000Y-125060000D01*
G04 #@! TO.C,C4*
X171020830Y-102903564D02*
G75*
G03X171020000Y-106595996I979170J-1846436D01*
G01*
X172979170Y-102903564D02*
G75*
G02X172980000Y-106595996I-979170J-1846436D01*
G01*
X172979170Y-102903564D02*
G75*
G03X171020000Y-102904004I-979170J-1846436D01*
G01*
X172780000Y-104750000D02*
X174050000Y-104750000D01*
X169950000Y-104750000D02*
X171220000Y-104750000D01*
X169950000Y-104710000D02*
X171220000Y-104710000D01*
X172780000Y-104710000D02*
X174050000Y-104710000D01*
X169951000Y-104670000D02*
X171220000Y-104670000D01*
X172780000Y-104670000D02*
X174049000Y-104670000D01*
X169953000Y-104630000D02*
X171220000Y-104630000D01*
X172780000Y-104630000D02*
X174047000Y-104630000D01*
X169956000Y-104590000D02*
X171220000Y-104590000D01*
X172780000Y-104590000D02*
X174044000Y-104590000D01*
X169959000Y-104550000D02*
X171220000Y-104550000D01*
X172780000Y-104550000D02*
X174041000Y-104550000D01*
X169963000Y-104510000D02*
X171220000Y-104510000D01*
X172780000Y-104510000D02*
X174037000Y-104510000D01*
X169968000Y-104470000D02*
X171220000Y-104470000D01*
X172780000Y-104470000D02*
X174032000Y-104470000D01*
X169974000Y-104430000D02*
X171220000Y-104430000D01*
X172780000Y-104430000D02*
X174026000Y-104430000D01*
X169981000Y-104390000D02*
X171220000Y-104390000D01*
X172780000Y-104390000D02*
X174019000Y-104390000D01*
X169988000Y-104350000D02*
X171220000Y-104350000D01*
X172780000Y-104350000D02*
X174012000Y-104350000D01*
X169996000Y-104310000D02*
X171220000Y-104310000D01*
X172780000Y-104310000D02*
X174004000Y-104310000D01*
X170005000Y-104270000D02*
X171220000Y-104270000D01*
X172780000Y-104270000D02*
X173995000Y-104270000D01*
X170015000Y-104230000D02*
X171220000Y-104230000D01*
X172780000Y-104230000D02*
X173985000Y-104230000D01*
X170026000Y-104190000D02*
X171220000Y-104190000D01*
X172780000Y-104190000D02*
X173974000Y-104190000D01*
X170037000Y-104150000D02*
X171220000Y-104150000D01*
X172780000Y-104150000D02*
X173963000Y-104150000D01*
X170050000Y-104110000D02*
X171220000Y-104110000D01*
X172780000Y-104110000D02*
X173950000Y-104110000D01*
X170063000Y-104070000D02*
X171220000Y-104070000D01*
X172780000Y-104070000D02*
X173937000Y-104070000D01*
X170077000Y-104029000D02*
X171220000Y-104029000D01*
X172780000Y-104029000D02*
X173923000Y-104029000D01*
X170093000Y-103989000D02*
X171220000Y-103989000D01*
X172780000Y-103989000D02*
X173907000Y-103989000D01*
X170109000Y-103949000D02*
X171220000Y-103949000D01*
X172780000Y-103949000D02*
X173891000Y-103949000D01*
X170126000Y-103909000D02*
X171220000Y-103909000D01*
X172780000Y-103909000D02*
X173874000Y-103909000D01*
X170144000Y-103869000D02*
X171220000Y-103869000D01*
X172780000Y-103869000D02*
X173856000Y-103869000D01*
X170163000Y-103829000D02*
X171220000Y-103829000D01*
X172780000Y-103829000D02*
X173837000Y-103829000D01*
X170183000Y-103789000D02*
X171220000Y-103789000D01*
X172780000Y-103789000D02*
X173817000Y-103789000D01*
X170204000Y-103749000D02*
X171220000Y-103749000D01*
X172780000Y-103749000D02*
X173796000Y-103749000D01*
X170227000Y-103709000D02*
X171220000Y-103709000D01*
X172780000Y-103709000D02*
X173773000Y-103709000D01*
X170250000Y-103669000D02*
X171220000Y-103669000D01*
X172780000Y-103669000D02*
X173750000Y-103669000D01*
X170275000Y-103629000D02*
X171220000Y-103629000D01*
X172780000Y-103629000D02*
X173725000Y-103629000D01*
X170301000Y-103589000D02*
X171220000Y-103589000D01*
X172780000Y-103589000D02*
X173699000Y-103589000D01*
X170328000Y-103549000D02*
X171220000Y-103549000D01*
X172780000Y-103549000D02*
X173672000Y-103549000D01*
X170357000Y-103509000D02*
X171220000Y-103509000D01*
X172780000Y-103509000D02*
X173643000Y-103509000D01*
X170387000Y-103469000D02*
X171220000Y-103469000D01*
X172780000Y-103469000D02*
X173613000Y-103469000D01*
X170419000Y-103429000D02*
X171220000Y-103429000D01*
X172780000Y-103429000D02*
X173581000Y-103429000D01*
X170453000Y-103389000D02*
X171220000Y-103389000D01*
X172780000Y-103389000D02*
X173547000Y-103389000D01*
X170488000Y-103349000D02*
X171220000Y-103349000D01*
X172780000Y-103349000D02*
X173512000Y-103349000D01*
X170525000Y-103309000D02*
X171220000Y-103309000D01*
X172780000Y-103309000D02*
X173475000Y-103309000D01*
X170564000Y-103269000D02*
X171220000Y-103269000D01*
X172780000Y-103269000D02*
X173436000Y-103269000D01*
X170605000Y-103229000D02*
X171220000Y-103229000D01*
X172780000Y-103229000D02*
X173395000Y-103229000D01*
X170649000Y-103189000D02*
X173351000Y-103189000D01*
X170695000Y-103149000D02*
X173305000Y-103149000D01*
X170744000Y-103109000D02*
X173256000Y-103109000D01*
X170796000Y-103069000D02*
X173204000Y-103069000D01*
X170852000Y-103029000D02*
X173148000Y-103029000D01*
X170912000Y-102989000D02*
X173088000Y-102989000D01*
X170977000Y-102949000D02*
X173023000Y-102949000D01*
X171048000Y-102909000D02*
X172952000Y-102909000D01*
X171126000Y-102869000D02*
X172874000Y-102869000D01*
X171214000Y-102829000D02*
X172786000Y-102829000D01*
X171314000Y-102789000D02*
X172686000Y-102789000D01*
X171433000Y-102749000D02*
X172567000Y-102749000D01*
X171585000Y-102709000D02*
X172415000Y-102709000D01*
X171835000Y-102669000D02*
X172165000Y-102669000D01*
X172000000Y-107200000D02*
X172000000Y-106300000D01*
X171550000Y-106750000D02*
X172450000Y-106750000D01*
G04 #@! TO.C,C5*
X183840000Y-121000000D02*
G75*
G03X183840000Y-121000000I-4090000J0D01*
G01*
X179750000Y-116950000D02*
X179750000Y-125050000D01*
X179790000Y-116950000D02*
X179790000Y-125050000D01*
X179830000Y-116950000D02*
X179830000Y-125050000D01*
X179870000Y-116951000D02*
X179870000Y-125049000D01*
X179910000Y-116953000D02*
X179910000Y-125047000D01*
X179950000Y-116954000D02*
X179950000Y-125046000D01*
X179990000Y-116957000D02*
X179990000Y-125043000D01*
X180030000Y-116959000D02*
X180030000Y-120020000D01*
X180030000Y-121980000D02*
X180030000Y-125041000D01*
X180070000Y-116962000D02*
X180070000Y-120020000D01*
X180070000Y-121980000D02*
X180070000Y-125038000D01*
X180110000Y-116965000D02*
X180110000Y-120020000D01*
X180110000Y-121980000D02*
X180110000Y-125035000D01*
X180150000Y-116969000D02*
X180150000Y-120020000D01*
X180150000Y-121980000D02*
X180150000Y-125031000D01*
X180190000Y-116973000D02*
X180190000Y-120020000D01*
X180190000Y-121980000D02*
X180190000Y-125027000D01*
X180230000Y-116978000D02*
X180230000Y-120020000D01*
X180230000Y-121980000D02*
X180230000Y-125022000D01*
X180270000Y-116983000D02*
X180270000Y-120020000D01*
X180270000Y-121980000D02*
X180270000Y-125017000D01*
X180310000Y-116988000D02*
X180310000Y-120020000D01*
X180310000Y-121980000D02*
X180310000Y-125012000D01*
X180350000Y-116994000D02*
X180350000Y-120020000D01*
X180350000Y-121980000D02*
X180350000Y-125006000D01*
X180390000Y-117000000D02*
X180390000Y-120020000D01*
X180390000Y-121980000D02*
X180390000Y-125000000D01*
X180430000Y-117006000D02*
X180430000Y-120020000D01*
X180430000Y-121980000D02*
X180430000Y-124994000D01*
X180471000Y-117013000D02*
X180471000Y-120020000D01*
X180471000Y-121980000D02*
X180471000Y-124987000D01*
X180511000Y-117021000D02*
X180511000Y-120020000D01*
X180511000Y-121980000D02*
X180511000Y-124979000D01*
X180551000Y-117029000D02*
X180551000Y-120020000D01*
X180551000Y-121980000D02*
X180551000Y-124971000D01*
X180591000Y-117037000D02*
X180591000Y-120020000D01*
X180591000Y-121980000D02*
X180591000Y-124963000D01*
X180631000Y-117045000D02*
X180631000Y-120020000D01*
X180631000Y-121980000D02*
X180631000Y-124955000D01*
X180671000Y-117054000D02*
X180671000Y-120020000D01*
X180671000Y-121980000D02*
X180671000Y-124946000D01*
X180711000Y-117064000D02*
X180711000Y-120020000D01*
X180711000Y-121980000D02*
X180711000Y-124936000D01*
X180751000Y-117074000D02*
X180751000Y-120020000D01*
X180751000Y-121980000D02*
X180751000Y-124926000D01*
X180791000Y-117084000D02*
X180791000Y-120020000D01*
X180791000Y-121980000D02*
X180791000Y-124916000D01*
X180831000Y-117095000D02*
X180831000Y-120020000D01*
X180831000Y-121980000D02*
X180831000Y-124905000D01*
X180871000Y-117106000D02*
X180871000Y-120020000D01*
X180871000Y-121980000D02*
X180871000Y-124894000D01*
X180911000Y-117117000D02*
X180911000Y-120020000D01*
X180911000Y-121980000D02*
X180911000Y-124883000D01*
X180951000Y-117130000D02*
X180951000Y-120020000D01*
X180951000Y-121980000D02*
X180951000Y-124870000D01*
X180991000Y-117142000D02*
X180991000Y-120020000D01*
X180991000Y-121980000D02*
X180991000Y-124858000D01*
X181031000Y-117155000D02*
X181031000Y-120020000D01*
X181031000Y-121980000D02*
X181031000Y-124845000D01*
X181071000Y-117168000D02*
X181071000Y-120020000D01*
X181071000Y-121980000D02*
X181071000Y-124832000D01*
X181111000Y-117182000D02*
X181111000Y-120020000D01*
X181111000Y-121980000D02*
X181111000Y-124818000D01*
X181151000Y-117197000D02*
X181151000Y-120020000D01*
X181151000Y-121980000D02*
X181151000Y-124803000D01*
X181191000Y-117211000D02*
X181191000Y-120020000D01*
X181191000Y-121980000D02*
X181191000Y-124789000D01*
X181231000Y-117227000D02*
X181231000Y-120020000D01*
X181231000Y-121980000D02*
X181231000Y-124773000D01*
X181271000Y-117242000D02*
X181271000Y-120020000D01*
X181271000Y-121980000D02*
X181271000Y-124758000D01*
X181311000Y-117259000D02*
X181311000Y-120020000D01*
X181311000Y-121980000D02*
X181311000Y-124741000D01*
X181351000Y-117275000D02*
X181351000Y-120020000D01*
X181351000Y-121980000D02*
X181351000Y-124725000D01*
X181391000Y-117293000D02*
X181391000Y-120020000D01*
X181391000Y-121980000D02*
X181391000Y-124707000D01*
X181431000Y-117310000D02*
X181431000Y-120020000D01*
X181431000Y-121980000D02*
X181431000Y-124690000D01*
X181471000Y-117329000D02*
X181471000Y-120020000D01*
X181471000Y-121980000D02*
X181471000Y-124671000D01*
X181511000Y-117348000D02*
X181511000Y-120020000D01*
X181511000Y-121980000D02*
X181511000Y-124652000D01*
X181551000Y-117367000D02*
X181551000Y-120020000D01*
X181551000Y-121980000D02*
X181551000Y-124633000D01*
X181591000Y-117387000D02*
X181591000Y-120020000D01*
X181591000Y-121980000D02*
X181591000Y-124613000D01*
X181631000Y-117407000D02*
X181631000Y-120020000D01*
X181631000Y-121980000D02*
X181631000Y-124593000D01*
X181671000Y-117428000D02*
X181671000Y-120020000D01*
X181671000Y-121980000D02*
X181671000Y-124572000D01*
X181711000Y-117450000D02*
X181711000Y-120020000D01*
X181711000Y-121980000D02*
X181711000Y-124550000D01*
X181751000Y-117472000D02*
X181751000Y-120020000D01*
X181751000Y-121980000D02*
X181751000Y-124528000D01*
X181791000Y-117495000D02*
X181791000Y-120020000D01*
X181791000Y-121980000D02*
X181791000Y-124505000D01*
X181831000Y-117518000D02*
X181831000Y-120020000D01*
X181831000Y-121980000D02*
X181831000Y-124482000D01*
X181871000Y-117542000D02*
X181871000Y-120020000D01*
X181871000Y-121980000D02*
X181871000Y-124458000D01*
X181911000Y-117566000D02*
X181911000Y-120020000D01*
X181911000Y-121980000D02*
X181911000Y-124434000D01*
X181951000Y-117592000D02*
X181951000Y-120020000D01*
X181951000Y-121980000D02*
X181951000Y-124408000D01*
X181991000Y-117617000D02*
X181991000Y-124383000D01*
X182031000Y-117644000D02*
X182031000Y-124356000D01*
X182071000Y-117671000D02*
X182071000Y-124329000D01*
X182111000Y-117699000D02*
X182111000Y-124301000D01*
X182151000Y-117728000D02*
X182151000Y-124272000D01*
X182191000Y-117757000D02*
X182191000Y-124243000D01*
X182231000Y-117787000D02*
X182231000Y-124213000D01*
X182271000Y-117818000D02*
X182271000Y-124182000D01*
X182311000Y-117850000D02*
X182311000Y-124150000D01*
X182351000Y-117882000D02*
X182351000Y-124118000D01*
X182391000Y-117916000D02*
X182391000Y-124084000D01*
X182431000Y-117950000D02*
X182431000Y-124050000D01*
X182471000Y-117985000D02*
X182471000Y-124015000D01*
X182511000Y-118021000D02*
X182511000Y-123979000D01*
X182551000Y-118058000D02*
X182551000Y-123942000D01*
X182591000Y-118096000D02*
X182591000Y-123904000D01*
X182631000Y-118135000D02*
X182631000Y-123865000D01*
X182671000Y-118176000D02*
X182671000Y-123824000D01*
X182711000Y-118217000D02*
X182711000Y-123783000D01*
X182751000Y-118260000D02*
X182751000Y-123740000D01*
X182791000Y-118303000D02*
X182791000Y-123697000D01*
X182831000Y-118348000D02*
X182831000Y-123652000D01*
X182871000Y-118395000D02*
X182871000Y-123605000D01*
X182911000Y-118443000D02*
X182911000Y-123557000D01*
X182951000Y-118492000D02*
X182951000Y-123508000D01*
X182991000Y-118543000D02*
X182991000Y-123457000D01*
X183031000Y-118596000D02*
X183031000Y-123404000D01*
X183071000Y-118651000D02*
X183071000Y-123349000D01*
X183111000Y-118707000D02*
X183111000Y-123293000D01*
X183151000Y-118766000D02*
X183151000Y-123234000D01*
X183191000Y-118827000D02*
X183191000Y-123173000D01*
X183231000Y-118891000D02*
X183231000Y-123109000D01*
X183271000Y-118957000D02*
X183271000Y-123043000D01*
X183311000Y-119026000D02*
X183311000Y-122974000D01*
X183351000Y-119098000D02*
X183351000Y-122902000D01*
X183391000Y-119174000D02*
X183391000Y-122826000D01*
X183431000Y-119255000D02*
X183431000Y-122745000D01*
X183471000Y-119340000D02*
X183471000Y-122660000D01*
X183511000Y-119430000D02*
X183511000Y-122570000D01*
X183551000Y-119527000D02*
X183551000Y-122473000D01*
X183591000Y-119631000D02*
X183591000Y-122369000D01*
X183631000Y-119746000D02*
X183631000Y-122254000D01*
X183671000Y-119873000D02*
X183671000Y-122127000D01*
X183711000Y-120017000D02*
X183711000Y-121983000D01*
X183751000Y-120186000D02*
X183751000Y-121814000D01*
X183791000Y-120402000D02*
X183791000Y-121598000D01*
X183831000Y-120754000D02*
X183831000Y-121246000D01*
X176300000Y-121000000D02*
X177500000Y-121000000D01*
X176900000Y-120350000D02*
X176900000Y-121650000D01*
G04 #@! TO.C,C6*
X162940000Y-53310000D02*
X162940000Y-50190000D01*
X165060000Y-53310000D02*
X165060000Y-50190000D01*
X162940000Y-53310000D02*
X163004000Y-53310000D01*
X164996000Y-53310000D02*
X165060000Y-53310000D01*
X162940000Y-50190000D02*
X163004000Y-50190000D01*
X164996000Y-50190000D02*
X165060000Y-50190000D01*
G04 #@! TO.C,C7*
X135940000Y-82810000D02*
X135940000Y-79690000D01*
X138060000Y-82810000D02*
X138060000Y-79690000D01*
X135940000Y-82810000D02*
X136004000Y-82810000D01*
X137996000Y-82810000D02*
X138060000Y-82810000D01*
X135940000Y-79690000D02*
X136004000Y-79690000D01*
X137996000Y-79690000D02*
X138060000Y-79690000D01*
G04 #@! TO.C,C8*
X142060000Y-66690000D02*
X142060000Y-69810000D01*
X139940000Y-66690000D02*
X139940000Y-69810000D01*
X142060000Y-66690000D02*
X141996000Y-66690000D01*
X140004000Y-66690000D02*
X139940000Y-66690000D01*
X142060000Y-69810000D02*
X141996000Y-69810000D01*
X140004000Y-69810000D02*
X139940000Y-69810000D01*
G04 #@! TO.C,C9*
X115940000Y-122810000D02*
X115940000Y-119690000D01*
X118060000Y-122810000D02*
X118060000Y-119690000D01*
X115940000Y-122810000D02*
X116004000Y-122810000D01*
X117996000Y-122810000D02*
X118060000Y-122810000D01*
X115940000Y-119690000D02*
X116004000Y-119690000D01*
X117996000Y-119690000D02*
X118060000Y-119690000D01*
G04 #@! TO.C,C10*
X135940000Y-62310000D02*
X135940000Y-59190000D01*
X138060000Y-62310000D02*
X138060000Y-59190000D01*
X135940000Y-62310000D02*
X136004000Y-62310000D01*
X137996000Y-62310000D02*
X138060000Y-62310000D01*
X135940000Y-59190000D02*
X136004000Y-59190000D01*
X137996000Y-59190000D02*
X138060000Y-59190000D01*
G04 #@! TO.C,C11*
X138940000Y-122810000D02*
X138940000Y-119690000D01*
X141060000Y-122810000D02*
X141060000Y-119690000D01*
X138940000Y-122810000D02*
X139004000Y-122810000D01*
X140996000Y-122810000D02*
X141060000Y-122810000D01*
X138940000Y-119690000D02*
X139004000Y-119690000D01*
X140996000Y-119690000D02*
X141060000Y-119690000D01*
G04 #@! TO.C,C12*
X172940000Y-97310000D02*
X172940000Y-94190000D01*
X175060000Y-97310000D02*
X175060000Y-94190000D01*
X172940000Y-97310000D02*
X173004000Y-97310000D01*
X174996000Y-97310000D02*
X175060000Y-97310000D01*
X172940000Y-94190000D02*
X173004000Y-94190000D01*
X174996000Y-94190000D02*
X175060000Y-94190000D01*
G04 #@! TO.C,D1*
X171056000Y-118470000D02*
X173876000Y-118470000D01*
X173876000Y-118470000D02*
X173876000Y-113150000D01*
X173876000Y-113150000D02*
X171056000Y-113150000D01*
X171056000Y-113150000D02*
X171056000Y-118470000D01*
X172466000Y-118540000D02*
X172466000Y-118470000D01*
X172466000Y-113080000D02*
X172466000Y-113150000D01*
X171056000Y-117630000D02*
X173876000Y-117630000D01*
G04 #@! TO.C,D2*
X164921392Y-124057665D02*
G75*
G03X164764484Y-127290000I1078608J-1672335D01*
G01*
X167078608Y-124057665D02*
G75*
G02X167235516Y-127290000I-1078608J-1672335D01*
G01*
X164920163Y-124688870D02*
G75*
G03X164920000Y-126770961I1079837J-1041130D01*
G01*
X167079837Y-124688870D02*
G75*
G02X167080000Y-126770961I-1079837J-1041130D01*
G01*
X164764000Y-127290000D02*
X164920000Y-127290000D01*
X167080000Y-127290000D02*
X167236000Y-127290000D01*
D10*
G04 #@! TO.C,J1*
X142570000Y-63270000D02*
X162890000Y-63270000D01*
X160350000Y-58190000D02*
X142570000Y-58190000D01*
X142570000Y-63270000D02*
X142570000Y-58190000D01*
X162890000Y-63270000D02*
X162890000Y-60730000D01*
X163170000Y-59460000D02*
X163170000Y-57910000D01*
X162890000Y-60730000D02*
X160350000Y-60730000D01*
X160350000Y-60730000D02*
X160350000Y-58190000D01*
X163170000Y-57910000D02*
X161620000Y-57910000D01*
G04 #@! TO.C,J2*
X177700000Y-45290000D02*
X177700000Y-46840000D01*
X179000000Y-45290000D02*
X177700000Y-45290000D01*
X183191000Y-46713000D02*
X189033000Y-46713000D01*
X189033000Y-46713000D02*
X189033000Y-46967000D01*
X189033000Y-46967000D02*
X183191000Y-46967000D01*
X183191000Y-46967000D02*
X183191000Y-46840000D01*
X183191000Y-46840000D02*
X189033000Y-46840000D01*
X180524000Y-46586000D02*
X180143000Y-46586000D01*
X180524000Y-47094000D02*
X180143000Y-47094000D01*
X180524000Y-49126000D02*
X180143000Y-49126000D01*
X180524000Y-49634000D02*
X180143000Y-49634000D01*
X180524000Y-51666000D02*
X180143000Y-51666000D01*
X180524000Y-52174000D02*
X180143000Y-52174000D01*
X180524000Y-59794000D02*
X180143000Y-59794000D01*
X180524000Y-59286000D02*
X180143000Y-59286000D01*
X180524000Y-57254000D02*
X180143000Y-57254000D01*
X180524000Y-56746000D02*
X180143000Y-56746000D01*
X180524000Y-54714000D02*
X180143000Y-54714000D01*
X180524000Y-54206000D02*
X180143000Y-54206000D01*
X180524000Y-45570000D02*
X183064000Y-45570000D01*
X180524000Y-48110000D02*
X183064000Y-48110000D01*
X180524000Y-48110000D02*
X180524000Y-50650000D01*
X180524000Y-50650000D02*
X183064000Y-50650000D01*
X183064000Y-49126000D02*
X189160000Y-49126000D01*
X189160000Y-49126000D02*
X189160000Y-49634000D01*
X189160000Y-49634000D02*
X183064000Y-49634000D01*
X183064000Y-50650000D02*
X183064000Y-48110000D01*
X183064000Y-48110000D02*
X183064000Y-45570000D01*
X189160000Y-47094000D02*
X183064000Y-47094000D01*
X189160000Y-46586000D02*
X189160000Y-47094000D01*
X183064000Y-46586000D02*
X189160000Y-46586000D01*
X180524000Y-48110000D02*
X183064000Y-48110000D01*
X180524000Y-45570000D02*
X180524000Y-48110000D01*
X180524000Y-55730000D02*
X183064000Y-55730000D01*
X180524000Y-55730000D02*
X180524000Y-58270000D01*
X180524000Y-58270000D02*
X183064000Y-58270000D01*
X183064000Y-56746000D02*
X189160000Y-56746000D01*
X189160000Y-56746000D02*
X189160000Y-57254000D01*
X189160000Y-57254000D02*
X183064000Y-57254000D01*
X183064000Y-58270000D02*
X183064000Y-55730000D01*
X183064000Y-60810000D02*
X183064000Y-58270000D01*
X189160000Y-59794000D02*
X183064000Y-59794000D01*
X189160000Y-59286000D02*
X189160000Y-59794000D01*
X183064000Y-59286000D02*
X189160000Y-59286000D01*
X180524000Y-60810000D02*
X183064000Y-60810000D01*
X180524000Y-58270000D02*
X180524000Y-60810000D01*
X180524000Y-58270000D02*
X183064000Y-58270000D01*
X180524000Y-53190000D02*
X183064000Y-53190000D01*
X180524000Y-53190000D02*
X180524000Y-55730000D01*
X180524000Y-55730000D02*
X183064000Y-55730000D01*
X183064000Y-54206000D02*
X189160000Y-54206000D01*
X189160000Y-54206000D02*
X189160000Y-54714000D01*
X189160000Y-54714000D02*
X183064000Y-54714000D01*
X183064000Y-55730000D02*
X183064000Y-53190000D01*
X183064000Y-53190000D02*
X183064000Y-50650000D01*
X189160000Y-52174000D02*
X183064000Y-52174000D01*
X189160000Y-51666000D02*
X189160000Y-52174000D01*
X183064000Y-51666000D02*
X189160000Y-51666000D01*
X180524000Y-53190000D02*
X183064000Y-53190000D01*
X180524000Y-50650000D02*
X180524000Y-53190000D01*
X180524000Y-50650000D02*
X183064000Y-50650000D01*
G04 #@! TO.C,J3*
X152174000Y-132524000D02*
X152174000Y-132016000D01*
X151666000Y-132524000D02*
X151666000Y-132016000D01*
X149634000Y-132524000D02*
X149634000Y-132016000D01*
X149126000Y-132524000D02*
X149126000Y-132016000D01*
X154206000Y-132524000D02*
X154206000Y-132016000D01*
X154714000Y-132524000D02*
X154714000Y-132016000D01*
X156746000Y-132524000D02*
X156746000Y-132016000D01*
X157254000Y-132524000D02*
X157254000Y-132016000D01*
X159286000Y-132524000D02*
X159286000Y-132016000D01*
X159794000Y-132524000D02*
X159794000Y-132016000D01*
X161826000Y-132524000D02*
X161826000Y-132016000D01*
X162334000Y-132524000D02*
X162334000Y-132016000D01*
X121694000Y-132524000D02*
X121694000Y-132016000D01*
X121186000Y-132524000D02*
X121186000Y-132016000D01*
X119154000Y-132524000D02*
X119154000Y-132016000D01*
X118646000Y-132524000D02*
X118646000Y-132016000D01*
X123726000Y-132524000D02*
X123726000Y-132016000D01*
X124234000Y-132524000D02*
X124234000Y-132016000D01*
X126266000Y-132524000D02*
X126266000Y-132016000D01*
X126774000Y-132524000D02*
X126774000Y-132016000D01*
X116614000Y-132524000D02*
X116614000Y-132016000D01*
X116106000Y-132524000D02*
X116106000Y-132016000D01*
X114074000Y-132524000D02*
X114074000Y-132016000D01*
X113566000Y-132524000D02*
X113566000Y-132016000D01*
X131854000Y-132524000D02*
X131854000Y-132016000D01*
X131346000Y-132524000D02*
X131346000Y-132016000D01*
X129314000Y-132524000D02*
X129314000Y-132016000D01*
X128806000Y-132524000D02*
X128806000Y-132016000D01*
X133886000Y-132524000D02*
X133886000Y-132016000D01*
X134394000Y-132524000D02*
X134394000Y-132016000D01*
X136426000Y-132524000D02*
X136426000Y-132016000D01*
X136934000Y-132524000D02*
X136934000Y-132016000D01*
X147094000Y-132524000D02*
X147094000Y-132016000D01*
X146586000Y-132524000D02*
X146586000Y-132016000D01*
X144554000Y-132524000D02*
X144554000Y-132016000D01*
X144046000Y-132524000D02*
X144046000Y-132016000D01*
X138966000Y-132524000D02*
X138966000Y-132016000D01*
X139474000Y-132524000D02*
X139474000Y-132016000D01*
X141506000Y-132524000D02*
X141506000Y-132016000D01*
X142014000Y-132524000D02*
X142014000Y-132016000D01*
X116614000Y-135064000D02*
X116614000Y-134556000D01*
X116106000Y-135064000D02*
X116106000Y-134556000D01*
X114074000Y-135064000D02*
X114074000Y-134556000D01*
X113566000Y-135064000D02*
X113566000Y-134556000D01*
X118646000Y-135064000D02*
X118646000Y-134556000D01*
X119154000Y-135064000D02*
X119154000Y-134556000D01*
X121186000Y-135064000D02*
X121186000Y-134556000D01*
X121694000Y-135064000D02*
X121694000Y-134556000D01*
X136934000Y-135064000D02*
X136934000Y-134556000D01*
X136426000Y-135064000D02*
X136426000Y-134556000D01*
X134394000Y-135064000D02*
X134394000Y-134556000D01*
X133886000Y-135064000D02*
X133886000Y-134556000D01*
X138966000Y-135064000D02*
X138966000Y-134556000D01*
X139474000Y-135064000D02*
X139474000Y-134556000D01*
X141506000Y-135064000D02*
X141506000Y-134556000D01*
X142014000Y-135064000D02*
X142014000Y-134556000D01*
X131854000Y-135064000D02*
X131854000Y-134556000D01*
X131346000Y-135064000D02*
X131346000Y-134556000D01*
X129314000Y-135064000D02*
X129314000Y-134556000D01*
X128806000Y-135064000D02*
X128806000Y-134556000D01*
X123726000Y-135064000D02*
X123726000Y-134556000D01*
X124234000Y-135064000D02*
X124234000Y-134556000D01*
X126266000Y-135064000D02*
X126266000Y-134556000D01*
X126774000Y-135064000D02*
X126774000Y-134556000D01*
X147094000Y-135064000D02*
X147094000Y-134556000D01*
X146586000Y-135064000D02*
X146586000Y-134556000D01*
X144554000Y-135064000D02*
X144554000Y-134556000D01*
X144046000Y-135064000D02*
X144046000Y-134556000D01*
X149126000Y-135064000D02*
X149126000Y-134556000D01*
X149634000Y-135064000D02*
X149634000Y-134556000D01*
X151666000Y-135064000D02*
X151666000Y-134556000D01*
X152174000Y-135064000D02*
X152174000Y-134556000D01*
X162334000Y-135064000D02*
X162334000Y-134556000D01*
X161826000Y-135064000D02*
X161826000Y-134556000D01*
X159794000Y-135064000D02*
X159794000Y-134556000D01*
X159286000Y-135064000D02*
X159286000Y-134556000D01*
X154206000Y-135064000D02*
X154206000Y-134556000D01*
X154714000Y-135064000D02*
X154714000Y-134556000D01*
X156746000Y-135064000D02*
X156746000Y-134556000D01*
X157254000Y-135064000D02*
X157254000Y-134556000D01*
X163630000Y-131000000D02*
X163630000Y-129850000D01*
X163630000Y-129850000D02*
X162080000Y-129850000D01*
X162207000Y-137604000D02*
X162207000Y-143573000D01*
X162207000Y-143573000D02*
X161953000Y-143573000D01*
X161953000Y-143573000D02*
X161953000Y-137731000D01*
X161953000Y-137731000D02*
X162080000Y-137731000D01*
X162080000Y-137731000D02*
X162080000Y-143573000D01*
X122710000Y-135064000D02*
X122710000Y-137604000D01*
X122710000Y-135064000D02*
X120170000Y-135064000D01*
X120170000Y-135064000D02*
X120170000Y-137604000D01*
X121694000Y-137604000D02*
X121694000Y-143700000D01*
X121694000Y-143700000D02*
X121186000Y-143700000D01*
X121186000Y-143700000D02*
X121186000Y-137604000D01*
X120170000Y-137604000D02*
X122710000Y-137604000D01*
X117630000Y-137604000D02*
X120170000Y-137604000D01*
X118646000Y-143700000D02*
X118646000Y-137604000D01*
X119154000Y-143700000D02*
X118646000Y-143700000D01*
X119154000Y-137604000D02*
X119154000Y-143700000D01*
X117630000Y-135064000D02*
X117630000Y-137604000D01*
X120170000Y-135064000D02*
X117630000Y-135064000D01*
X120170000Y-135064000D02*
X120170000Y-137604000D01*
X115090000Y-135064000D02*
X115090000Y-137604000D01*
X115090000Y-135064000D02*
X112550000Y-135064000D01*
X114074000Y-137604000D02*
X114074000Y-143700000D01*
X114074000Y-143700000D02*
X113566000Y-143700000D01*
X113566000Y-143700000D02*
X113566000Y-137604000D01*
X112550000Y-137604000D02*
X115090000Y-137604000D01*
X115090000Y-137604000D02*
X117630000Y-137604000D01*
X116106000Y-143700000D02*
X116106000Y-137604000D01*
X116614000Y-143700000D02*
X116106000Y-143700000D01*
X116614000Y-137604000D02*
X116614000Y-143700000D01*
X115090000Y-135064000D02*
X115090000Y-137604000D01*
X117630000Y-135064000D02*
X115090000Y-135064000D01*
X117630000Y-135064000D02*
X117630000Y-137604000D01*
X112550000Y-135064000D02*
X112550000Y-137604000D01*
X143030000Y-135064000D02*
X143030000Y-137604000D01*
X143030000Y-135064000D02*
X140490000Y-135064000D01*
X140490000Y-135064000D02*
X140490000Y-137604000D01*
X142014000Y-137604000D02*
X142014000Y-143700000D01*
X142014000Y-143700000D02*
X141506000Y-143700000D01*
X141506000Y-143700000D02*
X141506000Y-137604000D01*
X140490000Y-137604000D02*
X143030000Y-137604000D01*
X137950000Y-137604000D02*
X140490000Y-137604000D01*
X138966000Y-143700000D02*
X138966000Y-137604000D01*
X139474000Y-143700000D02*
X138966000Y-143700000D01*
X139474000Y-137604000D02*
X139474000Y-143700000D01*
X137950000Y-135064000D02*
X137950000Y-137604000D01*
X140490000Y-135064000D02*
X137950000Y-135064000D01*
X140490000Y-135064000D02*
X140490000Y-137604000D01*
X135410000Y-135064000D02*
X135410000Y-137604000D01*
X135410000Y-135064000D02*
X132870000Y-135064000D01*
X132870000Y-135064000D02*
X132870000Y-137604000D01*
X134394000Y-137604000D02*
X134394000Y-143700000D01*
X134394000Y-143700000D02*
X133886000Y-143700000D01*
X133886000Y-143700000D02*
X133886000Y-137604000D01*
X132870000Y-137604000D02*
X135410000Y-137604000D01*
X135410000Y-137604000D02*
X137950000Y-137604000D01*
X136426000Y-143700000D02*
X136426000Y-137604000D01*
X136934000Y-143700000D02*
X136426000Y-143700000D01*
X136934000Y-137604000D02*
X136934000Y-143700000D01*
X135410000Y-135064000D02*
X135410000Y-137604000D01*
X137950000Y-135064000D02*
X135410000Y-135064000D01*
X137950000Y-135064000D02*
X137950000Y-137604000D01*
X127790000Y-135064000D02*
X127790000Y-137604000D01*
X127790000Y-135064000D02*
X125250000Y-135064000D01*
X125250000Y-135064000D02*
X125250000Y-137604000D01*
X126774000Y-137604000D02*
X126774000Y-143700000D01*
X126774000Y-143700000D02*
X126266000Y-143700000D01*
X126266000Y-143700000D02*
X126266000Y-137604000D01*
X125250000Y-137604000D02*
X127790000Y-137604000D01*
X122710000Y-137604000D02*
X125250000Y-137604000D01*
X123726000Y-143700000D02*
X123726000Y-137604000D01*
X124234000Y-143700000D02*
X123726000Y-143700000D01*
X124234000Y-137604000D02*
X124234000Y-143700000D01*
X122710000Y-135064000D02*
X122710000Y-137604000D01*
X125250000Y-135064000D02*
X122710000Y-135064000D01*
X125250000Y-135064000D02*
X125250000Y-137604000D01*
X130330000Y-135064000D02*
X130330000Y-137604000D01*
X130330000Y-135064000D02*
X127790000Y-135064000D01*
X127790000Y-135064000D02*
X127790000Y-137604000D01*
X129314000Y-137604000D02*
X129314000Y-143700000D01*
X129314000Y-143700000D02*
X128806000Y-143700000D01*
X128806000Y-143700000D02*
X128806000Y-137604000D01*
X127790000Y-137604000D02*
X130330000Y-137604000D01*
X130330000Y-137604000D02*
X132870000Y-137604000D01*
X131346000Y-143700000D02*
X131346000Y-137604000D01*
X131854000Y-143700000D02*
X131346000Y-143700000D01*
X131854000Y-137604000D02*
X131854000Y-143700000D01*
X130330000Y-135064000D02*
X130330000Y-137604000D01*
X132870000Y-135064000D02*
X130330000Y-135064000D01*
X132870000Y-135064000D02*
X132870000Y-137604000D01*
X153190000Y-135064000D02*
X153190000Y-137604000D01*
X153190000Y-135064000D02*
X150650000Y-135064000D01*
X150650000Y-135064000D02*
X150650000Y-137604000D01*
X152174000Y-137604000D02*
X152174000Y-143700000D01*
X152174000Y-143700000D02*
X151666000Y-143700000D01*
X151666000Y-143700000D02*
X151666000Y-137604000D01*
X150650000Y-137604000D02*
X153190000Y-137604000D01*
X148110000Y-137604000D02*
X150650000Y-137604000D01*
X149126000Y-143700000D02*
X149126000Y-137604000D01*
X149634000Y-143700000D02*
X149126000Y-143700000D01*
X149634000Y-137604000D02*
X149634000Y-143700000D01*
X148110000Y-135064000D02*
X148110000Y-137604000D01*
X150650000Y-135064000D02*
X148110000Y-135064000D01*
X150650000Y-135064000D02*
X150650000Y-137604000D01*
X145570000Y-135064000D02*
X145570000Y-137604000D01*
X145570000Y-135064000D02*
X143030000Y-135064000D01*
X143030000Y-135064000D02*
X143030000Y-137604000D01*
X144554000Y-137604000D02*
X144554000Y-143700000D01*
X144554000Y-143700000D02*
X144046000Y-143700000D01*
X144046000Y-143700000D02*
X144046000Y-137604000D01*
X143030000Y-137604000D02*
X145570000Y-137604000D01*
X145570000Y-137604000D02*
X148110000Y-137604000D01*
X146586000Y-143700000D02*
X146586000Y-137604000D01*
X147094000Y-143700000D02*
X146586000Y-143700000D01*
X147094000Y-137604000D02*
X147094000Y-143700000D01*
X145570000Y-135064000D02*
X145570000Y-137604000D01*
X148110000Y-135064000D02*
X145570000Y-135064000D01*
X148110000Y-135064000D02*
X148110000Y-137604000D01*
X158270000Y-135064000D02*
X158270000Y-137604000D01*
X158270000Y-135064000D02*
X155730000Y-135064000D01*
X155730000Y-135064000D02*
X155730000Y-137604000D01*
X157254000Y-137604000D02*
X157254000Y-143700000D01*
X157254000Y-143700000D02*
X156746000Y-143700000D01*
X156746000Y-143700000D02*
X156746000Y-137604000D01*
X155730000Y-137604000D02*
X158270000Y-137604000D01*
X153190000Y-137604000D02*
X155730000Y-137604000D01*
X154206000Y-143700000D02*
X154206000Y-137604000D01*
X154714000Y-143700000D02*
X154206000Y-143700000D01*
X154714000Y-137604000D02*
X154714000Y-143700000D01*
X153190000Y-135064000D02*
X153190000Y-137604000D01*
X155730000Y-135064000D02*
X153190000Y-135064000D01*
X155730000Y-135064000D02*
X155730000Y-137604000D01*
X160810000Y-135064000D02*
X160810000Y-137604000D01*
X160810000Y-135064000D02*
X158270000Y-135064000D01*
X158270000Y-135064000D02*
X158270000Y-137604000D01*
X159794000Y-137604000D02*
X159794000Y-143700000D01*
X159794000Y-143700000D02*
X159286000Y-143700000D01*
X159286000Y-143700000D02*
X159286000Y-137604000D01*
X158270000Y-137604000D02*
X160810000Y-137604000D01*
X160810000Y-137604000D02*
X163350000Y-137604000D01*
X161826000Y-143700000D02*
X161826000Y-137604000D01*
X162334000Y-143700000D02*
X161826000Y-143700000D01*
X162334000Y-137604000D02*
X162334000Y-143700000D01*
X160810000Y-135064000D02*
X160810000Y-137604000D01*
X163350000Y-135064000D02*
X160810000Y-135064000D01*
X163350000Y-135064000D02*
X163350000Y-137604000D01*
G04 #@! TO.C,J4*
X169743120Y-139799500D02*
X178744880Y-139799500D01*
X169743120Y-143299620D02*
X178744880Y-143299620D01*
X178744880Y-143299620D02*
X178744880Y-128798760D01*
X178744880Y-128798760D02*
X169743120Y-128798760D01*
X169743120Y-128798760D02*
X169743120Y-143299620D01*
D15*
G04 #@! TO.C,R1*
X113130000Y-89310000D02*
X113130000Y-86690000D01*
X113130000Y-86690000D02*
X106710000Y-86690000D01*
X106710000Y-86690000D02*
X106710000Y-89310000D01*
X106710000Y-89310000D02*
X113130000Y-89310000D01*
X114020000Y-88000000D02*
X113130000Y-88000000D01*
X105820000Y-88000000D02*
X106710000Y-88000000D01*
G04 #@! TO.C,R2*
X156130000Y-115310000D02*
X156130000Y-112690000D01*
X156130000Y-112690000D02*
X149710000Y-112690000D01*
X149710000Y-112690000D02*
X149710000Y-115310000D01*
X149710000Y-115310000D02*
X156130000Y-115310000D01*
X157020000Y-114000000D02*
X156130000Y-114000000D01*
X148820000Y-114000000D02*
X149710000Y-114000000D01*
G04 #@! TO.C,R3*
X142690000Y-123130000D02*
X145310000Y-123130000D01*
X145310000Y-123130000D02*
X145310000Y-116710000D01*
X145310000Y-116710000D02*
X142690000Y-116710000D01*
X142690000Y-116710000D02*
X142690000Y-123130000D01*
X144000000Y-124020000D02*
X144000000Y-123130000D01*
X144000000Y-115820000D02*
X144000000Y-116710000D01*
G04 #@! TO.C,R4*
X167346000Y-118290000D02*
X169966000Y-118290000D01*
X169966000Y-118290000D02*
X169966000Y-111870000D01*
X169966000Y-111870000D02*
X167346000Y-111870000D01*
X167346000Y-111870000D02*
X167346000Y-118290000D01*
X168656000Y-119180000D02*
X168656000Y-118290000D01*
X168656000Y-110980000D02*
X168656000Y-111870000D01*
G04 #@! TO.C,R5*
X163690000Y-118290000D02*
X166310000Y-118290000D01*
X166310000Y-118290000D02*
X166310000Y-111870000D01*
X166310000Y-111870000D02*
X163690000Y-111870000D01*
X163690000Y-111870000D02*
X163690000Y-118290000D01*
X165000000Y-119180000D02*
X165000000Y-118290000D01*
X165000000Y-110980000D02*
X165000000Y-111870000D01*
G04 #@! TO.C,RN1*
X118240000Y-86600000D02*
X118240000Y-89400000D01*
X118240000Y-89400000D02*
X141440000Y-89400000D01*
X141440000Y-89400000D02*
X141440000Y-86600000D01*
X141440000Y-86600000D02*
X118240000Y-86600000D01*
X120950000Y-86600000D02*
X120950000Y-89400000D01*
D10*
G04 #@! TO.C,SW1*
X178500000Y-107500000D02*
X183000000Y-107500000D01*
X177250000Y-103500000D02*
X177250000Y-105000000D01*
X183000000Y-101000000D02*
X178500000Y-101000000D01*
X184250000Y-105000000D02*
X184250000Y-103500000D01*
D12*
G04 #@! TO.C,SW2*
X186815000Y-115100000D02*
X186315000Y-115100000D01*
X186815000Y-115100000D02*
X186815000Y-114600000D01*
X174915000Y-115100000D02*
X175415000Y-115100000D01*
X174915000Y-115100000D02*
X174915000Y-114600000D01*
X174915000Y-110900000D02*
X175415000Y-110900000D01*
X174915000Y-110900000D02*
X174915000Y-111400000D01*
X186815000Y-110900000D02*
X186815000Y-111400000D01*
X186815000Y-110900000D02*
X186315000Y-110900000D01*
D10*
G04 #@! TO.C,Y1*
X147714000Y-125254000D02*
G75*
G03X152286000Y-125254000I2286000J0D01*
G01*
X152286000Y-119666000D02*
G75*
G03X147714000Y-119666000I-2286000J0D01*
G01*
X147714000Y-119666000D02*
X147714000Y-125254000D01*
X152286000Y-119666000D02*
X152286000Y-125254000D01*
D15*
G04 #@! TO.C,U2*
X172470000Y-91810000D02*
X172470000Y-90040000D01*
X172470000Y-90040000D02*
X154450000Y-90040000D01*
X154450000Y-90040000D02*
X154450000Y-95580000D01*
X154450000Y-95580000D02*
X172470000Y-95580000D01*
X172470000Y-95580000D02*
X172470000Y-93810000D01*
X172470000Y-87610000D02*
X154450000Y-87610000D01*
X154450000Y-87610000D02*
X154450000Y-98010000D01*
X154450000Y-98010000D02*
X172470000Y-98010000D01*
X172470000Y-98010000D02*
X172470000Y-87610000D01*
X172470000Y-93810000D02*
G75*
G02X172470000Y-91810000I0J1000000D01*
G01*
G04 #@! TO.C,U3*
X137630000Y-117810000D02*
X137630000Y-116040000D01*
X137630000Y-116040000D02*
X119610000Y-116040000D01*
X119610000Y-116040000D02*
X119610000Y-121580000D01*
X119610000Y-121580000D02*
X137630000Y-121580000D01*
X137630000Y-121580000D02*
X137630000Y-119810000D01*
X137630000Y-113610000D02*
X119610000Y-113610000D01*
X119610000Y-113610000D02*
X119610000Y-124010000D01*
X119610000Y-124010000D02*
X137630000Y-124010000D01*
X137630000Y-124010000D02*
X137630000Y-113610000D01*
X137630000Y-119810000D02*
G75*
G02X137630000Y-117810000I0J1000000D01*
G01*
G04 #@! TO.C,U4*
X135710000Y-53380000D02*
X135710000Y-47800000D01*
X135710000Y-47800000D02*
X99910000Y-47800000D01*
X99910000Y-47800000D02*
X99910000Y-60960000D01*
X99910000Y-60960000D02*
X135710000Y-60960000D01*
X135710000Y-60960000D02*
X135710000Y-55380000D01*
X135710000Y-45370000D02*
X99910000Y-45370000D01*
X99910000Y-45370000D02*
X99910000Y-63390000D01*
X99910000Y-63390000D02*
X135710000Y-63390000D01*
X135710000Y-63390000D02*
X135710000Y-45370000D01*
X135710000Y-55380000D02*
G75*
G02X135710000Y-53380000I0J1000000D01*
G01*
G04 #@! TO.C,U5*
X162470000Y-49810000D02*
X162470000Y-48040000D01*
X162470000Y-48040000D02*
X141910000Y-48040000D01*
X141910000Y-48040000D02*
X141910000Y-53580000D01*
X141910000Y-53580000D02*
X162470000Y-53580000D01*
X162470000Y-53580000D02*
X162470000Y-51810000D01*
X162470000Y-45610000D02*
X141910000Y-45610000D01*
X141910000Y-45610000D02*
X141910000Y-56010000D01*
X141910000Y-56010000D02*
X162470000Y-56010000D01*
X162470000Y-56010000D02*
X162470000Y-45610000D01*
X162470000Y-51810000D02*
G75*
G02X162470000Y-49810000I0J1000000D01*
G01*
G04 #@! TO.C,U6*
X135630000Y-73620000D02*
X135630000Y-68040000D01*
X135630000Y-68040000D02*
X99830000Y-68040000D01*
X99830000Y-68040000D02*
X99830000Y-81200000D01*
X99830000Y-81200000D02*
X135630000Y-81200000D01*
X135630000Y-81200000D02*
X135630000Y-75620000D01*
X135630000Y-65610000D02*
X99830000Y-65610000D01*
X99830000Y-65610000D02*
X99830000Y-83630000D01*
X99830000Y-83630000D02*
X135630000Y-83630000D01*
X135630000Y-83630000D02*
X135630000Y-65610000D01*
X135630000Y-75620000D02*
G75*
G02X135630000Y-73620000I0J1000000D01*
G01*
G04 #@! TO.C,U7*
X114930000Y-117810000D02*
X114930000Y-116040000D01*
X114930000Y-116040000D02*
X96910000Y-116040000D01*
X96910000Y-116040000D02*
X96910000Y-121580000D01*
X96910000Y-121580000D02*
X114930000Y-121580000D01*
X114930000Y-121580000D02*
X114930000Y-119810000D01*
X114930000Y-113610000D02*
X96910000Y-113610000D01*
X96910000Y-113610000D02*
X96910000Y-124010000D01*
X96910000Y-124010000D02*
X114930000Y-124010000D01*
X114930000Y-124010000D02*
X114930000Y-113610000D01*
X114930000Y-119810000D02*
G75*
G02X114930000Y-117810000I0J1000000D01*
G01*
G04 #@! TO.C,U8*
X172930000Y-73620000D02*
X172930000Y-68040000D01*
X172930000Y-68040000D02*
X142210000Y-68040000D01*
X142210000Y-68040000D02*
X142210000Y-81200000D01*
X142210000Y-81200000D02*
X172930000Y-81200000D01*
X172930000Y-81200000D02*
X172930000Y-75620000D01*
X172930000Y-65610000D02*
X142210000Y-65610000D01*
X142210000Y-65610000D02*
X142210000Y-83630000D01*
X142210000Y-83630000D02*
X172930000Y-83630000D01*
X172930000Y-83630000D02*
X172930000Y-65610000D01*
X172930000Y-75620000D02*
G75*
G02X172930000Y-73620000I0J1000000D01*
G01*
G04 #@! TO.C,U1*
X147950000Y-100620000D02*
X147950000Y-95040000D01*
X147950000Y-95040000D02*
X96910000Y-95040000D01*
X96910000Y-95040000D02*
X96910000Y-108200000D01*
X96910000Y-108200000D02*
X147950000Y-108200000D01*
X147950000Y-108200000D02*
X147950000Y-102620000D01*
X147950000Y-92610000D02*
X96910000Y-92610000D01*
X96910000Y-92610000D02*
X96910000Y-110630000D01*
X96910000Y-110630000D02*
X147950000Y-110630000D01*
X147950000Y-110630000D02*
X147950000Y-92610000D01*
X147950000Y-102620000D02*
G75*
G02X147950000Y-100620000I0J1000000D01*
G01*
G04 #@! TO.C,C1*
D10*
X123667142Y-100916666D02*
X123714761Y-100964285D01*
X123762380Y-101107142D01*
X123762380Y-101202380D01*
X123714761Y-101345238D01*
X123619523Y-101440476D01*
X123524285Y-101488095D01*
X123333809Y-101535714D01*
X123190952Y-101535714D01*
X123000476Y-101488095D01*
X122905238Y-101440476D01*
X122810000Y-101345238D01*
X122762380Y-101202380D01*
X122762380Y-101107142D01*
X122810000Y-100964285D01*
X122857619Y-100916666D01*
X123762380Y-99964285D02*
X123762380Y-100535714D01*
X123762380Y-100250000D02*
X122762380Y-100250000D01*
X122905238Y-100345238D01*
X123000476Y-100440476D01*
X123048095Y-100535714D01*
G04 #@! TO.C,C2*
X158583333Y-116562142D02*
X158535714Y-116609761D01*
X158392857Y-116657380D01*
X158297619Y-116657380D01*
X158154761Y-116609761D01*
X158059523Y-116514523D01*
X158011904Y-116419285D01*
X157964285Y-116228809D01*
X157964285Y-116085952D01*
X158011904Y-115895476D01*
X158059523Y-115800238D01*
X158154761Y-115705000D01*
X158297619Y-115657380D01*
X158392857Y-115657380D01*
X158535714Y-115705000D01*
X158583333Y-115752619D01*
X158964285Y-115752619D02*
X159011904Y-115705000D01*
X159107142Y-115657380D01*
X159345238Y-115657380D01*
X159440476Y-115705000D01*
X159488095Y-115752619D01*
X159535714Y-115847857D01*
X159535714Y-115943095D01*
X159488095Y-116085952D01*
X158916666Y-116657380D01*
X159535714Y-116657380D01*
G04 #@! TO.C,C3*
X158583333Y-122531142D02*
X158535714Y-122578761D01*
X158392857Y-122626380D01*
X158297619Y-122626380D01*
X158154761Y-122578761D01*
X158059523Y-122483523D01*
X158011904Y-122388285D01*
X157964285Y-122197809D01*
X157964285Y-122054952D01*
X158011904Y-121864476D01*
X158059523Y-121769238D01*
X158154761Y-121674000D01*
X158297619Y-121626380D01*
X158392857Y-121626380D01*
X158535714Y-121674000D01*
X158583333Y-121721619D01*
X158916666Y-121626380D02*
X159535714Y-121626380D01*
X159202380Y-122007333D01*
X159345238Y-122007333D01*
X159440476Y-122054952D01*
X159488095Y-122102571D01*
X159535714Y-122197809D01*
X159535714Y-122435904D01*
X159488095Y-122531142D01*
X159440476Y-122578761D01*
X159345238Y-122626380D01*
X159059523Y-122626380D01*
X158964285Y-122578761D01*
X158916666Y-122531142D01*
G04 #@! TO.C,C4*
X173881142Y-107698666D02*
X173928761Y-107746285D01*
X173976380Y-107889142D01*
X173976380Y-107984380D01*
X173928761Y-108127238D01*
X173833523Y-108222476D01*
X173738285Y-108270095D01*
X173547809Y-108317714D01*
X173404952Y-108317714D01*
X173214476Y-108270095D01*
X173119238Y-108222476D01*
X173024000Y-108127238D01*
X172976380Y-107984380D01*
X172976380Y-107889142D01*
X173024000Y-107746285D01*
X173071619Y-107698666D01*
X173309714Y-106841523D02*
X173976380Y-106841523D01*
X172928761Y-107079619D02*
X173643047Y-107317714D01*
X173643047Y-106698666D01*
G04 #@! TO.C,C5*
X175793333Y-118055142D02*
X175745714Y-118102761D01*
X175602857Y-118150380D01*
X175507619Y-118150380D01*
X175364761Y-118102761D01*
X175269523Y-118007523D01*
X175221904Y-117912285D01*
X175174285Y-117721809D01*
X175174285Y-117578952D01*
X175221904Y-117388476D01*
X175269523Y-117293238D01*
X175364761Y-117198000D01*
X175507619Y-117150380D01*
X175602857Y-117150380D01*
X175745714Y-117198000D01*
X175793333Y-117245619D01*
X176698095Y-117150380D02*
X176221904Y-117150380D01*
X176174285Y-117626571D01*
X176221904Y-117578952D01*
X176317142Y-117531333D01*
X176555238Y-117531333D01*
X176650476Y-117578952D01*
X176698095Y-117626571D01*
X176745714Y-117721809D01*
X176745714Y-117959904D01*
X176698095Y-118055142D01*
X176650476Y-118102761D01*
X176555238Y-118150380D01*
X176317142Y-118150380D01*
X176221904Y-118102761D01*
X176174285Y-118055142D01*
G04 #@! TO.C,C6*
X166727142Y-51601666D02*
X166774761Y-51649285D01*
X166822380Y-51792142D01*
X166822380Y-51887380D01*
X166774761Y-52030238D01*
X166679523Y-52125476D01*
X166584285Y-52173095D01*
X166393809Y-52220714D01*
X166250952Y-52220714D01*
X166060476Y-52173095D01*
X165965238Y-52125476D01*
X165870000Y-52030238D01*
X165822380Y-51887380D01*
X165822380Y-51792142D01*
X165870000Y-51649285D01*
X165917619Y-51601666D01*
X165822380Y-50744523D02*
X165822380Y-50935000D01*
X165870000Y-51030238D01*
X165917619Y-51077857D01*
X166060476Y-51173095D01*
X166250952Y-51220714D01*
X166631904Y-51220714D01*
X166727142Y-51173095D01*
X166774761Y-51125476D01*
X166822380Y-51030238D01*
X166822380Y-50839761D01*
X166774761Y-50744523D01*
X166727142Y-50696904D01*
X166631904Y-50649285D01*
X166393809Y-50649285D01*
X166298571Y-50696904D01*
X166250952Y-50744523D01*
X166203333Y-50839761D01*
X166203333Y-51030238D01*
X166250952Y-51125476D01*
X166298571Y-51173095D01*
X166393809Y-51220714D01*
G04 #@! TO.C,C7*
X137230142Y-78007666D02*
X137277761Y-78055285D01*
X137325380Y-78198142D01*
X137325380Y-78293380D01*
X137277761Y-78436238D01*
X137182523Y-78531476D01*
X137087285Y-78579095D01*
X136896809Y-78626714D01*
X136753952Y-78626714D01*
X136563476Y-78579095D01*
X136468238Y-78531476D01*
X136373000Y-78436238D01*
X136325380Y-78293380D01*
X136325380Y-78198142D01*
X136373000Y-78055285D01*
X136420619Y-78007666D01*
X136325380Y-77674333D02*
X136325380Y-77007666D01*
X137325380Y-77436238D01*
G04 #@! TO.C,C8*
X141327142Y-72556666D02*
X141374761Y-72604285D01*
X141422380Y-72747142D01*
X141422380Y-72842380D01*
X141374761Y-72985238D01*
X141279523Y-73080476D01*
X141184285Y-73128095D01*
X140993809Y-73175714D01*
X140850952Y-73175714D01*
X140660476Y-73128095D01*
X140565238Y-73080476D01*
X140470000Y-72985238D01*
X140422380Y-72842380D01*
X140422380Y-72747142D01*
X140470000Y-72604285D01*
X140517619Y-72556666D01*
X140850952Y-71985238D02*
X140803333Y-72080476D01*
X140755714Y-72128095D01*
X140660476Y-72175714D01*
X140612857Y-72175714D01*
X140517619Y-72128095D01*
X140470000Y-72080476D01*
X140422380Y-71985238D01*
X140422380Y-71794761D01*
X140470000Y-71699523D01*
X140517619Y-71651904D01*
X140612857Y-71604285D01*
X140660476Y-71604285D01*
X140755714Y-71651904D01*
X140803333Y-71699523D01*
X140850952Y-71794761D01*
X140850952Y-71985238D01*
X140898571Y-72080476D01*
X140946190Y-72128095D01*
X141041428Y-72175714D01*
X141231904Y-72175714D01*
X141327142Y-72128095D01*
X141374761Y-72080476D01*
X141422380Y-71985238D01*
X141422380Y-71794761D01*
X141374761Y-71699523D01*
X141327142Y-71651904D01*
X141231904Y-71604285D01*
X141041428Y-71604285D01*
X140946190Y-71651904D01*
X140898571Y-71699523D01*
X140850952Y-71794761D01*
G04 #@! TO.C,C9*
X117230142Y-117840666D02*
X117277761Y-117888285D01*
X117325380Y-118031142D01*
X117325380Y-118126380D01*
X117277761Y-118269238D01*
X117182523Y-118364476D01*
X117087285Y-118412095D01*
X116896809Y-118459714D01*
X116753952Y-118459714D01*
X116563476Y-118412095D01*
X116468238Y-118364476D01*
X116373000Y-118269238D01*
X116325380Y-118126380D01*
X116325380Y-118031142D01*
X116373000Y-117888285D01*
X116420619Y-117840666D01*
X117325380Y-117364476D02*
X117325380Y-117174000D01*
X117277761Y-117078761D01*
X117230142Y-117031142D01*
X117087285Y-116935904D01*
X116896809Y-116888285D01*
X116515857Y-116888285D01*
X116420619Y-116935904D01*
X116373000Y-116983523D01*
X116325380Y-117078761D01*
X116325380Y-117269238D01*
X116373000Y-117364476D01*
X116420619Y-117412095D01*
X116515857Y-117459714D01*
X116753952Y-117459714D01*
X116849190Y-117412095D01*
X116896809Y-117364476D01*
X116944428Y-117269238D01*
X116944428Y-117078761D01*
X116896809Y-116983523D01*
X116849190Y-116935904D01*
X116753952Y-116888285D01*
G04 #@! TO.C,C10*
X137611142Y-57308857D02*
X137658761Y-57356476D01*
X137706380Y-57499333D01*
X137706380Y-57594571D01*
X137658761Y-57737428D01*
X137563523Y-57832666D01*
X137468285Y-57880285D01*
X137277809Y-57927904D01*
X137134952Y-57927904D01*
X136944476Y-57880285D01*
X136849238Y-57832666D01*
X136754000Y-57737428D01*
X136706380Y-57594571D01*
X136706380Y-57499333D01*
X136754000Y-57356476D01*
X136801619Y-57308857D01*
X137706380Y-56356476D02*
X137706380Y-56927904D01*
X137706380Y-56642190D02*
X136706380Y-56642190D01*
X136849238Y-56737428D01*
X136944476Y-56832666D01*
X136992095Y-56927904D01*
X136706380Y-55737428D02*
X136706380Y-55642190D01*
X136754000Y-55546952D01*
X136801619Y-55499333D01*
X136896857Y-55451714D01*
X137087333Y-55404095D01*
X137325428Y-55404095D01*
X137515904Y-55451714D01*
X137611142Y-55499333D01*
X137658761Y-55546952D01*
X137706380Y-55642190D01*
X137706380Y-55737428D01*
X137658761Y-55832666D01*
X137611142Y-55880285D01*
X137515904Y-55927904D01*
X137325428Y-55975523D01*
X137087333Y-55975523D01*
X136896857Y-55927904D01*
X136801619Y-55880285D01*
X136754000Y-55832666D01*
X136706380Y-55737428D01*
G04 #@! TO.C,C11*
X140611142Y-118102857D02*
X140658761Y-118150476D01*
X140706380Y-118293333D01*
X140706380Y-118388571D01*
X140658761Y-118531428D01*
X140563523Y-118626666D01*
X140468285Y-118674285D01*
X140277809Y-118721904D01*
X140134952Y-118721904D01*
X139944476Y-118674285D01*
X139849238Y-118626666D01*
X139754000Y-118531428D01*
X139706380Y-118388571D01*
X139706380Y-118293333D01*
X139754000Y-118150476D01*
X139801619Y-118102857D01*
X140706380Y-117150476D02*
X140706380Y-117721904D01*
X140706380Y-117436190D02*
X139706380Y-117436190D01*
X139849238Y-117531428D01*
X139944476Y-117626666D01*
X139992095Y-117721904D01*
X140706380Y-116198095D02*
X140706380Y-116769523D01*
X140706380Y-116483809D02*
X139706380Y-116483809D01*
X139849238Y-116579047D01*
X139944476Y-116674285D01*
X139992095Y-116769523D01*
G04 #@! TO.C,C12*
X176252142Y-96527857D02*
X176299761Y-96575476D01*
X176347380Y-96718333D01*
X176347380Y-96813571D01*
X176299761Y-96956428D01*
X176204523Y-97051666D01*
X176109285Y-97099285D01*
X175918809Y-97146904D01*
X175775952Y-97146904D01*
X175585476Y-97099285D01*
X175490238Y-97051666D01*
X175395000Y-96956428D01*
X175347380Y-96813571D01*
X175347380Y-96718333D01*
X175395000Y-96575476D01*
X175442619Y-96527857D01*
X176347380Y-95575476D02*
X176347380Y-96146904D01*
X176347380Y-95861190D02*
X175347380Y-95861190D01*
X175490238Y-95956428D01*
X175585476Y-96051666D01*
X175633095Y-96146904D01*
X175442619Y-95194523D02*
X175395000Y-95146904D01*
X175347380Y-95051666D01*
X175347380Y-94813571D01*
X175395000Y-94718333D01*
X175442619Y-94670714D01*
X175537857Y-94623095D01*
X175633095Y-94623095D01*
X175775952Y-94670714D01*
X176347380Y-95242142D01*
X176347380Y-94623095D01*
G04 #@! TO.C,D1*
X173172380Y-122658095D02*
X172172380Y-122658095D01*
X172172380Y-122420000D01*
X172220000Y-122277142D01*
X172315238Y-122181904D01*
X172410476Y-122134285D01*
X172600952Y-122086666D01*
X172743809Y-122086666D01*
X172934285Y-122134285D01*
X173029523Y-122181904D01*
X173124761Y-122277142D01*
X173172380Y-122420000D01*
X173172380Y-122658095D01*
X173172380Y-121134285D02*
X173172380Y-121705714D01*
X173172380Y-121420000D02*
X172172380Y-121420000D01*
X172315238Y-121515238D01*
X172410476Y-121610476D01*
X172458095Y-121705714D01*
G04 #@! TO.C,D2*
X169362380Y-125833095D02*
X168362380Y-125833095D01*
X168362380Y-125595000D01*
X168410000Y-125452142D01*
X168505238Y-125356904D01*
X168600476Y-125309285D01*
X168790952Y-125261666D01*
X168933809Y-125261666D01*
X169124285Y-125309285D01*
X169219523Y-125356904D01*
X169314761Y-125452142D01*
X169362380Y-125595000D01*
X169362380Y-125833095D01*
X168457619Y-124880714D02*
X168410000Y-124833095D01*
X168362380Y-124737857D01*
X168362380Y-124499761D01*
X168410000Y-124404523D01*
X168457619Y-124356904D01*
X168552857Y-124309285D01*
X168648095Y-124309285D01*
X168790952Y-124356904D01*
X169362380Y-124928333D01*
X169362380Y-124309285D01*
G04 #@! TO.C,J1*
X140422380Y-60023333D02*
X141136666Y-60023333D01*
X141279523Y-60070952D01*
X141374761Y-60166190D01*
X141422380Y-60309047D01*
X141422380Y-60404285D01*
X141422380Y-59023333D02*
X141422380Y-59594761D01*
X141422380Y-59309047D02*
X140422380Y-59309047D01*
X140565238Y-59404285D01*
X140660476Y-59499523D01*
X140708095Y-59594761D01*
G04 #@! TO.C,J2*
X181968666Y-43498380D02*
X181968666Y-44212666D01*
X181921047Y-44355523D01*
X181825809Y-44450761D01*
X181682952Y-44498380D01*
X181587714Y-44498380D01*
X182397238Y-43593619D02*
X182444857Y-43546000D01*
X182540095Y-43498380D01*
X182778190Y-43498380D01*
X182873428Y-43546000D01*
X182921047Y-43593619D01*
X182968666Y-43688857D01*
X182968666Y-43784095D01*
X182921047Y-43926952D01*
X182349619Y-44498380D01*
X182968666Y-44498380D01*
G04 #@! TO.C,J3*
X161377380Y-128603333D02*
X162091666Y-128603333D01*
X162234523Y-128650952D01*
X162329761Y-128746190D01*
X162377380Y-128889047D01*
X162377380Y-128984285D01*
X161377380Y-128222380D02*
X161377380Y-127603333D01*
X161758333Y-127936666D01*
X161758333Y-127793809D01*
X161805952Y-127698571D01*
X161853571Y-127650952D01*
X161948809Y-127603333D01*
X162186904Y-127603333D01*
X162282142Y-127650952D01*
X162329761Y-127698571D01*
X162377380Y-127793809D01*
X162377380Y-128079523D01*
X162329761Y-128174761D01*
X162282142Y-128222380D01*
G04 #@! TO.C,J4*
X170354666Y-127722380D02*
X170354666Y-128436666D01*
X170307047Y-128579523D01*
X170211809Y-128674761D01*
X170068952Y-128722380D01*
X169973714Y-128722380D01*
X171259428Y-128055714D02*
X171259428Y-128722380D01*
X171021333Y-127674761D02*
X170783238Y-128389047D01*
X171402285Y-128389047D01*
G04 #@! TO.C,R1*
X109688333Y-86177380D02*
X109355000Y-85701190D01*
X109116904Y-86177380D02*
X109116904Y-85177380D01*
X109497857Y-85177380D01*
X109593095Y-85225000D01*
X109640714Y-85272619D01*
X109688333Y-85367857D01*
X109688333Y-85510714D01*
X109640714Y-85605952D01*
X109593095Y-85653571D01*
X109497857Y-85701190D01*
X109116904Y-85701190D01*
X110640714Y-86177380D02*
X110069285Y-86177380D01*
X110355000Y-86177380D02*
X110355000Y-85177380D01*
X110259761Y-85320238D01*
X110164523Y-85415476D01*
X110069285Y-85463095D01*
G04 #@! TO.C,R2*
X152868333Y-112339380D02*
X152535000Y-111863190D01*
X152296904Y-112339380D02*
X152296904Y-111339380D01*
X152677857Y-111339380D01*
X152773095Y-111387000D01*
X152820714Y-111434619D01*
X152868333Y-111529857D01*
X152868333Y-111672714D01*
X152820714Y-111767952D01*
X152773095Y-111815571D01*
X152677857Y-111863190D01*
X152296904Y-111863190D01*
X153249285Y-111434619D02*
X153296904Y-111387000D01*
X153392142Y-111339380D01*
X153630238Y-111339380D01*
X153725476Y-111387000D01*
X153773095Y-111434619D01*
X153820714Y-111529857D01*
X153820714Y-111625095D01*
X153773095Y-111767952D01*
X153201666Y-112339380D01*
X153820714Y-112339380D01*
G04 #@! TO.C,R3*
X146756380Y-119800666D02*
X146280190Y-120134000D01*
X146756380Y-120372095D02*
X145756380Y-120372095D01*
X145756380Y-119991142D01*
X145804000Y-119895904D01*
X145851619Y-119848285D01*
X145946857Y-119800666D01*
X146089714Y-119800666D01*
X146184952Y-119848285D01*
X146232571Y-119895904D01*
X146280190Y-119991142D01*
X146280190Y-120372095D01*
X145756380Y-119467333D02*
X145756380Y-118848285D01*
X146137333Y-119181619D01*
X146137333Y-119038761D01*
X146184952Y-118943523D01*
X146232571Y-118895904D01*
X146327809Y-118848285D01*
X146565904Y-118848285D01*
X146661142Y-118895904D01*
X146708761Y-118943523D01*
X146756380Y-119038761D01*
X146756380Y-119324476D01*
X146708761Y-119419714D01*
X146661142Y-119467333D01*
G04 #@! TO.C,R4*
X167330380Y-115228666D02*
X166854190Y-115562000D01*
X167330380Y-115800095D02*
X166330380Y-115800095D01*
X166330380Y-115419142D01*
X166378000Y-115323904D01*
X166425619Y-115276285D01*
X166520857Y-115228666D01*
X166663714Y-115228666D01*
X166758952Y-115276285D01*
X166806571Y-115323904D01*
X166854190Y-115419142D01*
X166854190Y-115800095D01*
X166663714Y-114371523D02*
X167330380Y-114371523D01*
X166282761Y-114609619D02*
X166997047Y-114847714D01*
X166997047Y-114228666D01*
G04 #@! TO.C,R5*
X163393380Y-115355666D02*
X162917190Y-115689000D01*
X163393380Y-115927095D02*
X162393380Y-115927095D01*
X162393380Y-115546142D01*
X162441000Y-115450904D01*
X162488619Y-115403285D01*
X162583857Y-115355666D01*
X162726714Y-115355666D01*
X162821952Y-115403285D01*
X162869571Y-115450904D01*
X162917190Y-115546142D01*
X162917190Y-115927095D01*
X162393380Y-114450904D02*
X162393380Y-114927095D01*
X162869571Y-114974714D01*
X162821952Y-114927095D01*
X162774333Y-114831857D01*
X162774333Y-114593761D01*
X162821952Y-114498523D01*
X162869571Y-114450904D01*
X162964809Y-114403285D01*
X163202904Y-114403285D01*
X163298142Y-114450904D01*
X163345761Y-114498523D01*
X163393380Y-114593761D01*
X163393380Y-114831857D01*
X163345761Y-114927095D01*
X163298142Y-114974714D01*
G04 #@! TO.C,RN1*
X130419523Y-86052380D02*
X130086190Y-85576190D01*
X129848095Y-86052380D02*
X129848095Y-85052380D01*
X130229047Y-85052380D01*
X130324285Y-85100000D01*
X130371904Y-85147619D01*
X130419523Y-85242857D01*
X130419523Y-85385714D01*
X130371904Y-85480952D01*
X130324285Y-85528571D01*
X130229047Y-85576190D01*
X129848095Y-85576190D01*
X130848095Y-86052380D02*
X130848095Y-85052380D01*
X131419523Y-86052380D01*
X131419523Y-85052380D01*
X132419523Y-86052380D02*
X131848095Y-86052380D01*
X132133809Y-86052380D02*
X132133809Y-85052380D01*
X132038571Y-85195238D01*
X131943333Y-85290476D01*
X131848095Y-85338095D01*
G04 #@! TO.C,SW1*
X179416666Y-100734761D02*
X179559523Y-100782380D01*
X179797619Y-100782380D01*
X179892857Y-100734761D01*
X179940476Y-100687142D01*
X179988095Y-100591904D01*
X179988095Y-100496666D01*
X179940476Y-100401428D01*
X179892857Y-100353809D01*
X179797619Y-100306190D01*
X179607142Y-100258571D01*
X179511904Y-100210952D01*
X179464285Y-100163333D01*
X179416666Y-100068095D01*
X179416666Y-99972857D01*
X179464285Y-99877619D01*
X179511904Y-99830000D01*
X179607142Y-99782380D01*
X179845238Y-99782380D01*
X179988095Y-99830000D01*
X180321428Y-99782380D02*
X180559523Y-100782380D01*
X180750000Y-100068095D01*
X180940476Y-100782380D01*
X181178571Y-99782380D01*
X182083333Y-100782380D02*
X181511904Y-100782380D01*
X181797619Y-100782380D02*
X181797619Y-99782380D01*
X181702380Y-99925238D01*
X181607142Y-100020476D01*
X181511904Y-100068095D01*
G04 #@! TO.C,SW2*
X179641666Y-110894761D02*
X179784523Y-110942380D01*
X180022619Y-110942380D01*
X180117857Y-110894761D01*
X180165476Y-110847142D01*
X180213095Y-110751904D01*
X180213095Y-110656666D01*
X180165476Y-110561428D01*
X180117857Y-110513809D01*
X180022619Y-110466190D01*
X179832142Y-110418571D01*
X179736904Y-110370952D01*
X179689285Y-110323333D01*
X179641666Y-110228095D01*
X179641666Y-110132857D01*
X179689285Y-110037619D01*
X179736904Y-109990000D01*
X179832142Y-109942380D01*
X180070238Y-109942380D01*
X180213095Y-109990000D01*
X180546428Y-109942380D02*
X180784523Y-110942380D01*
X180975000Y-110228095D01*
X181165476Y-110942380D01*
X181403571Y-109942380D01*
X181736904Y-110037619D02*
X181784523Y-109990000D01*
X181879761Y-109942380D01*
X182117857Y-109942380D01*
X182213095Y-109990000D01*
X182260714Y-110037619D01*
X182308333Y-110132857D01*
X182308333Y-110228095D01*
X182260714Y-110370952D01*
X181689285Y-110942380D01*
X182308333Y-110942380D01*
G04 #@! TO.C,Y1*
X149976190Y-123063190D02*
X150452380Y-123063190D01*
X149452380Y-123396523D02*
X149976190Y-123063190D01*
X149452380Y-122729857D01*
X150452380Y-121872714D02*
X150452380Y-122444142D01*
X150452380Y-122158428D02*
X149452380Y-122158428D01*
X149595238Y-122253666D01*
X149690476Y-122348904D01*
X149738095Y-122444142D01*
G04 #@! TO.C,U2*
X173442380Y-89026904D02*
X174251904Y-89026904D01*
X174347142Y-88979285D01*
X174394761Y-88931666D01*
X174442380Y-88836428D01*
X174442380Y-88645952D01*
X174394761Y-88550714D01*
X174347142Y-88503095D01*
X174251904Y-88455476D01*
X173442380Y-88455476D01*
X173537619Y-88026904D02*
X173490000Y-87979285D01*
X173442380Y-87884047D01*
X173442380Y-87645952D01*
X173490000Y-87550714D01*
X173537619Y-87503095D01*
X173632857Y-87455476D01*
X173728095Y-87455476D01*
X173870952Y-87503095D01*
X174442380Y-88074523D01*
X174442380Y-87455476D01*
G04 #@! TO.C,U3*
X138136380Y-115188904D02*
X138945904Y-115188904D01*
X139041142Y-115141285D01*
X139088761Y-115093666D01*
X139136380Y-114998428D01*
X139136380Y-114807952D01*
X139088761Y-114712714D01*
X139041142Y-114665095D01*
X138945904Y-114617476D01*
X138136380Y-114617476D01*
X138136380Y-114236523D02*
X138136380Y-113617476D01*
X138517333Y-113950809D01*
X138517333Y-113807952D01*
X138564952Y-113712714D01*
X138612571Y-113665095D01*
X138707809Y-113617476D01*
X138945904Y-113617476D01*
X139041142Y-113665095D01*
X139088761Y-113712714D01*
X139136380Y-113807952D01*
X139136380Y-114093666D01*
X139088761Y-114188904D01*
X139041142Y-114236523D01*
G04 #@! TO.C,U4*
X136612380Y-47116904D02*
X137421904Y-47116904D01*
X137517142Y-47069285D01*
X137564761Y-47021666D01*
X137612380Y-46926428D01*
X137612380Y-46735952D01*
X137564761Y-46640714D01*
X137517142Y-46593095D01*
X137421904Y-46545476D01*
X136612380Y-46545476D01*
X136945714Y-45640714D02*
X137612380Y-45640714D01*
X136564761Y-45878809D02*
X137279047Y-46116904D01*
X137279047Y-45497857D01*
G04 #@! TO.C,U5*
X163282380Y-47116904D02*
X164091904Y-47116904D01*
X164187142Y-47069285D01*
X164234761Y-47021666D01*
X164282380Y-46926428D01*
X164282380Y-46735952D01*
X164234761Y-46640714D01*
X164187142Y-46593095D01*
X164091904Y-46545476D01*
X163282380Y-46545476D01*
X163282380Y-45593095D02*
X163282380Y-46069285D01*
X163758571Y-46116904D01*
X163710952Y-46069285D01*
X163663333Y-45974047D01*
X163663333Y-45735952D01*
X163710952Y-45640714D01*
X163758571Y-45593095D01*
X163853809Y-45545476D01*
X164091904Y-45545476D01*
X164187142Y-45593095D01*
X164234761Y-45640714D01*
X164282380Y-45735952D01*
X164282380Y-45974047D01*
X164234761Y-46069285D01*
X164187142Y-46116904D01*
G04 #@! TO.C,U6*
X135977380Y-67436904D02*
X136786904Y-67436904D01*
X136882142Y-67389285D01*
X136929761Y-67341666D01*
X136977380Y-67246428D01*
X136977380Y-67055952D01*
X136929761Y-66960714D01*
X136882142Y-66913095D01*
X136786904Y-66865476D01*
X135977380Y-66865476D01*
X135977380Y-65960714D02*
X135977380Y-66151190D01*
X136025000Y-66246428D01*
X136072619Y-66294047D01*
X136215476Y-66389285D01*
X136405952Y-66436904D01*
X136786904Y-66436904D01*
X136882142Y-66389285D01*
X136929761Y-66341666D01*
X136977380Y-66246428D01*
X136977380Y-66055952D01*
X136929761Y-65960714D01*
X136882142Y-65913095D01*
X136786904Y-65865476D01*
X136548809Y-65865476D01*
X136453571Y-65913095D01*
X136405952Y-65960714D01*
X136358333Y-66055952D01*
X136358333Y-66246428D01*
X136405952Y-66341666D01*
X136453571Y-66389285D01*
X136548809Y-66436904D01*
G04 #@! TO.C,U7*
X115530380Y-115315904D02*
X116339904Y-115315904D01*
X116435142Y-115268285D01*
X116482761Y-115220666D01*
X116530380Y-115125428D01*
X116530380Y-114934952D01*
X116482761Y-114839714D01*
X116435142Y-114792095D01*
X116339904Y-114744476D01*
X115530380Y-114744476D01*
X115530380Y-114363523D02*
X115530380Y-113696857D01*
X116530380Y-114125428D01*
G04 #@! TO.C,U8*
X173442380Y-67436904D02*
X174251904Y-67436904D01*
X174347142Y-67389285D01*
X174394761Y-67341666D01*
X174442380Y-67246428D01*
X174442380Y-67055952D01*
X174394761Y-66960714D01*
X174347142Y-66913095D01*
X174251904Y-66865476D01*
X173442380Y-66865476D01*
X173870952Y-66246428D02*
X173823333Y-66341666D01*
X173775714Y-66389285D01*
X173680476Y-66436904D01*
X173632857Y-66436904D01*
X173537619Y-66389285D01*
X173490000Y-66341666D01*
X173442380Y-66246428D01*
X173442380Y-66055952D01*
X173490000Y-65960714D01*
X173537619Y-65913095D01*
X173632857Y-65865476D01*
X173680476Y-65865476D01*
X173775714Y-65913095D01*
X173823333Y-65960714D01*
X173870952Y-66055952D01*
X173870952Y-66246428D01*
X173918571Y-66341666D01*
X173966190Y-66389285D01*
X174061428Y-66436904D01*
X174251904Y-66436904D01*
X174347142Y-66389285D01*
X174394761Y-66341666D01*
X174442380Y-66246428D01*
X174442380Y-66055952D01*
X174394761Y-65960714D01*
X174347142Y-65913095D01*
X174251904Y-65865476D01*
X174061428Y-65865476D01*
X173966190Y-65913095D01*
X173918571Y-65960714D01*
X173870952Y-66055952D01*
G04 #@! TO.C,U1*
X148677380Y-94106904D02*
X149486904Y-94106904D01*
X149582142Y-94059285D01*
X149629761Y-94011666D01*
X149677380Y-93916428D01*
X149677380Y-93725952D01*
X149629761Y-93630714D01*
X149582142Y-93583095D01*
X149486904Y-93535476D01*
X148677380Y-93535476D01*
X149677380Y-92535476D02*
X149677380Y-93106904D01*
X149677380Y-92821190D02*
X148677380Y-92821190D01*
X148820238Y-92916428D01*
X148915476Y-93011666D01*
X148963095Y-93106904D01*
G04 #@! TD*
M02*
