G04 #@! TF.GenerationSoftware,KiCad,Pcbnew,(5.0.0-3-g5ebb6b6)*
G04 #@! TF.CreationDate,2018-12-25T22:54:34+09:00*
G04 #@! TF.ProjectId,Z80-GRANT,5A38302D4752414E542E6B696361645F,rev?*
G04 #@! TF.SameCoordinates,Original*
G04 #@! TF.FileFunction,Copper,L2,Bot,Signal*
G04 #@! TF.FilePolarity,Positive*
%FSLAX46Y46*%
G04 Gerber Fmt 4.6, Leading zero omitted, Abs format (unit mm)*
G04 Created by KiCad (PCBNEW (5.0.0-3-g5ebb6b6)) date 2018 December 25, Tuesday 22:54:34*
%MOMM*%
%LPD*%
G01*
G04 APERTURE LIST*
G04 #@! TA.AperFunction,ComponentPad*
%ADD10C,1.600000*%
G04 #@! TD*
G04 #@! TA.AperFunction,ComponentPad*
%ADD11R,1.200000X1.200000*%
G04 #@! TD*
G04 #@! TA.AperFunction,ComponentPad*
%ADD12C,1.200000*%
G04 #@! TD*
G04 #@! TA.AperFunction,ComponentPad*
%ADD13R,1.600000X1.600000*%
G04 #@! TD*
G04 #@! TA.AperFunction,ComponentPad*
%ADD14R,1.800000X1.800000*%
G04 #@! TD*
G04 #@! TA.AperFunction,ComponentPad*
%ADD15O,1.800000X1.800000*%
G04 #@! TD*
G04 #@! TA.AperFunction,ComponentPad*
%ADD16C,1.800000*%
G04 #@! TD*
G04 #@! TA.AperFunction,ComponentPad*
%ADD17R,1.727200X1.727200*%
G04 #@! TD*
G04 #@! TA.AperFunction,ComponentPad*
%ADD18O,1.727200X1.727200*%
G04 #@! TD*
G04 #@! TA.AperFunction,ComponentPad*
%ADD19R,2.032000X1.727200*%
G04 #@! TD*
G04 #@! TA.AperFunction,ComponentPad*
%ADD20O,2.032000X1.727200*%
G04 #@! TD*
G04 #@! TA.AperFunction,ComponentPad*
%ADD21R,4.000000X4.000000*%
G04 #@! TD*
G04 #@! TA.AperFunction,ComponentPad*
%ADD22R,3.500120X3.500120*%
G04 #@! TD*
G04 #@! TA.AperFunction,ComponentPad*
%ADD23O,1.600000X1.600000*%
G04 #@! TD*
G04 #@! TA.AperFunction,ComponentPad*
%ADD24C,2.000000*%
G04 #@! TD*
G04 #@! TA.AperFunction,ComponentPad*
%ADD25R,1.900000X1.900000*%
G04 #@! TD*
G04 #@! TA.AperFunction,ComponentPad*
%ADD26C,1.900000*%
G04 #@! TD*
G04 #@! TA.AperFunction,ComponentPad*
%ADD27C,1.422400*%
G04 #@! TD*
G04 #@! TA.AperFunction,ViaPad*
%ADD28C,0.889000*%
G04 #@! TD*
G04 #@! TA.AperFunction,Conductor*
%ADD29C,0.609600*%
G04 #@! TD*
G04 #@! TA.AperFunction,Conductor*
%ADD30C,0.203200*%
G04 #@! TD*
G04 #@! TA.AperFunction,Conductor*
%ADD31C,0.254000*%
G04 #@! TD*
G04 APERTURE END LIST*
D10*
G04 #@! TO.P,C1,1*
G04 #@! TO.N,VCC*
X121000000Y-99500000D03*
G04 #@! TO.P,C1,2*
G04 #@! TO.N,GND*
X121000000Y-102000000D03*
G04 #@! TD*
G04 #@! TO.P,C2,1*
G04 #@! TO.N,Net-(C2-Pad1)*
X157500000Y-118000000D03*
G04 #@! TO.P,C2,2*
G04 #@! TO.N,GND*
X160000000Y-118000000D03*
G04 #@! TD*
G04 #@! TO.P,C3,1*
G04 #@! TO.N,Net-(C3-Pad1)*
X157500000Y-124000000D03*
G04 #@! TO.P,C3,2*
G04 #@! TO.N,GND*
X160000000Y-124000000D03*
G04 #@! TD*
D11*
G04 #@! TO.P,C4,1*
G04 #@! TO.N,~RESIN*
X172000000Y-105500000D03*
D12*
G04 #@! TO.P,C4,2*
G04 #@! TO.N,GND*
X172000000Y-104000000D03*
G04 #@! TD*
D13*
G04 #@! TO.P,C5,1*
G04 #@! TO.N,VCC*
X178500000Y-121000000D03*
D10*
G04 #@! TO.P,C5,2*
G04 #@! TO.N,GND*
X181000000Y-121000000D03*
G04 #@! TD*
G04 #@! TO.P,C6,1*
G04 #@! TO.N,VCC*
X164000000Y-53000000D03*
G04 #@! TO.P,C6,2*
G04 #@! TO.N,GND*
X164000000Y-50500000D03*
G04 #@! TD*
G04 #@! TO.P,C7,1*
G04 #@! TO.N,VCC*
X137000000Y-82500000D03*
G04 #@! TO.P,C7,2*
G04 #@! TO.N,GND*
X137000000Y-80000000D03*
G04 #@! TD*
G04 #@! TO.P,C8,1*
G04 #@! TO.N,VCC*
X141000000Y-67000000D03*
G04 #@! TO.P,C8,2*
G04 #@! TO.N,GND*
X141000000Y-69500000D03*
G04 #@! TD*
G04 #@! TO.P,C9,1*
G04 #@! TO.N,VCC*
X117000000Y-122500000D03*
G04 #@! TO.P,C9,2*
G04 #@! TO.N,GND*
X117000000Y-120000000D03*
G04 #@! TD*
G04 #@! TO.P,C10,1*
G04 #@! TO.N,VCC*
X137000000Y-62000000D03*
G04 #@! TO.P,C10,2*
G04 #@! TO.N,GND*
X137000000Y-59500000D03*
G04 #@! TD*
G04 #@! TO.P,C11,1*
G04 #@! TO.N,VCC*
X140000000Y-122500000D03*
G04 #@! TO.P,C11,2*
G04 #@! TO.N,GND*
X140000000Y-120000000D03*
G04 #@! TD*
G04 #@! TO.P,C12,1*
G04 #@! TO.N,VCC*
X174000000Y-97000000D03*
G04 #@! TO.P,C12,2*
G04 #@! TO.N,GND*
X174000000Y-94500000D03*
G04 #@! TD*
D14*
G04 #@! TO.P,D1,1*
G04 #@! TO.N,VCC*
X172466000Y-119620000D03*
D15*
G04 #@! TO.P,D1,2*
G04 #@! TO.N,~RESIN*
X172466000Y-112000000D03*
G04 #@! TD*
D14*
G04 #@! TO.P,D2,1*
G04 #@! TO.N,GND*
X166000000Y-127000000D03*
D16*
G04 #@! TO.P,D2,2*
G04 #@! TO.N,Net-(D2-Pad2)*
X166000000Y-124460000D03*
G04 #@! TD*
D17*
G04 #@! TO.P,J1,1*
G04 #@! TO.N,Net-(J1-Pad1)*
X161620000Y-59460000D03*
D18*
G04 #@! TO.P,J1,2*
G04 #@! TO.N,Net-(J1-Pad10)*
X161620000Y-62000000D03*
G04 #@! TO.P,J1,3*
G04 #@! TO.N,Net-(J1-Pad3)*
X159080000Y-59460000D03*
G04 #@! TO.P,J1,4*
G04 #@! TO.N,Net-(J1-Pad10)*
X159080000Y-62000000D03*
G04 #@! TO.P,J1,5*
G04 #@! TO.N,Net-(J1-Pad5)*
X156540000Y-59460000D03*
G04 #@! TO.P,J1,6*
G04 #@! TO.N,Net-(J1-Pad10)*
X156540000Y-62000000D03*
G04 #@! TO.P,J1,7*
G04 #@! TO.N,Net-(J1-Pad7)*
X154000000Y-59460000D03*
G04 #@! TO.P,J1,8*
G04 #@! TO.N,Net-(J1-Pad10)*
X154000000Y-62000000D03*
G04 #@! TO.P,J1,9*
G04 #@! TO.N,Net-(J1-Pad9)*
X151460000Y-59460000D03*
G04 #@! TO.P,J1,10*
G04 #@! TO.N,Net-(J1-Pad10)*
X151460000Y-62000000D03*
G04 #@! TO.P,J1,11*
G04 #@! TO.N,Net-(J1-Pad11)*
X148920000Y-59460000D03*
G04 #@! TO.P,J1,12*
G04 #@! TO.N,Net-(J1-Pad10)*
X148920000Y-62000000D03*
G04 #@! TO.P,J1,13*
G04 #@! TO.N,Net-(J1-Pad13)*
X146380000Y-59460000D03*
G04 #@! TO.P,J1,14*
G04 #@! TO.N,Net-(J1-Pad10)*
X146380000Y-62000000D03*
G04 #@! TO.P,J1,15*
G04 #@! TO.N,Net-(J1-Pad15)*
X143840000Y-59460000D03*
G04 #@! TO.P,J1,16*
G04 #@! TO.N,Net-(J1-Pad10)*
X143840000Y-62000000D03*
G04 #@! TD*
D19*
G04 #@! TO.P,J2,1*
G04 #@! TO.N,GND*
X179000000Y-46840000D03*
D20*
G04 #@! TO.P,J2,2*
G04 #@! TO.N,Net-(J2-Pad2)*
X179000000Y-49380000D03*
G04 #@! TO.P,J2,3*
G04 #@! TO.N,Net-(J2-Pad3)*
X179000000Y-51920000D03*
G04 #@! TO.P,J2,4*
G04 #@! TO.N,Net-(J2-Pad4)*
X179000000Y-54460000D03*
G04 #@! TO.P,J2,5*
G04 #@! TO.N,Net-(J2-Pad5)*
X179000000Y-57000000D03*
G04 #@! TO.P,J2,6*
G04 #@! TO.N,Net-(J2-Pad6)*
X179000000Y-59540000D03*
G04 #@! TD*
D17*
G04 #@! TO.P,J3,1*
G04 #@! TO.N,VCC*
X162080000Y-131000000D03*
D18*
G04 #@! TO.P,J3,2*
G04 #@! TO.N,GND*
X162080000Y-133540000D03*
G04 #@! TO.P,J3,3*
G04 #@! TO.N,VCC*
X159540000Y-131000000D03*
G04 #@! TO.P,J3,4*
G04 #@! TO.N,GND*
X159540000Y-133540000D03*
G04 #@! TO.P,J3,5*
G04 #@! TO.N,Net-(J3-Pad5)*
X157000000Y-131000000D03*
G04 #@! TO.P,J3,6*
G04 #@! TO.N,~RESIN*
X157000000Y-133540000D03*
G04 #@! TO.P,J3,7*
G04 #@! TO.N,Net-(J3-Pad7)*
X154460000Y-131000000D03*
G04 #@! TO.P,J3,8*
G04 #@! TO.N,CLK*
X154460000Y-133540000D03*
G04 #@! TO.P,J3,9*
G04 #@! TO.N,D0*
X151920000Y-131000000D03*
G04 #@! TO.P,J3,10*
G04 #@! TO.N,D1*
X151920000Y-133540000D03*
G04 #@! TO.P,J3,11*
G04 #@! TO.N,D2*
X149380000Y-131000000D03*
G04 #@! TO.P,J3,12*
G04 #@! TO.N,D3*
X149380000Y-133540000D03*
G04 #@! TO.P,J3,13*
G04 #@! TO.N,D4*
X146840000Y-131000000D03*
G04 #@! TO.P,J3,14*
G04 #@! TO.N,D5*
X146840000Y-133540000D03*
G04 #@! TO.P,J3,15*
G04 #@! TO.N,D6*
X144300000Y-131000000D03*
G04 #@! TO.P,J3,16*
G04 #@! TO.N,D7*
X144300000Y-133540000D03*
G04 #@! TO.P,J3,17*
G04 #@! TO.N,~IORD*
X141760000Y-131000000D03*
G04 #@! TO.P,J3,18*
G04 #@! TO.N,~MEMRD*
X141760000Y-133540000D03*
G04 #@! TO.P,J3,19*
G04 #@! TO.N,~IOWR*
X139220000Y-131000000D03*
G04 #@! TO.P,J3,20*
G04 #@! TO.N,~MEMWR*
X139220000Y-133540000D03*
G04 #@! TO.P,J3,21*
G04 #@! TO.N,RES*
X136680000Y-131000000D03*
G04 #@! TO.P,J3,22*
G04 #@! TO.N,Net-(J3-Pad22)*
X136680000Y-133540000D03*
G04 #@! TO.P,J3,23*
G04 #@! TO.N,Net-(J3-Pad23)*
X134140000Y-131000000D03*
G04 #@! TO.P,J3,24*
G04 #@! TO.N,Net-(J3-Pad24)*
X134140000Y-133540000D03*
G04 #@! TO.P,J3,25*
G04 #@! TO.N,A0*
X131600000Y-131000000D03*
G04 #@! TO.P,J3,26*
G04 #@! TO.N,A1*
X131600000Y-133540000D03*
G04 #@! TO.P,J3,27*
G04 #@! TO.N,A2*
X129060000Y-131000000D03*
G04 #@! TO.P,J3,28*
G04 #@! TO.N,A3*
X129060000Y-133540000D03*
G04 #@! TO.P,J3,29*
G04 #@! TO.N,A4*
X126520000Y-131000000D03*
G04 #@! TO.P,J3,30*
G04 #@! TO.N,A5*
X126520000Y-133540000D03*
G04 #@! TO.P,J3,31*
G04 #@! TO.N,A6*
X123980000Y-131000000D03*
G04 #@! TO.P,J3,32*
G04 #@! TO.N,A7*
X123980000Y-133540000D03*
G04 #@! TO.P,J3,33*
G04 #@! TO.N,A8*
X121440000Y-131000000D03*
G04 #@! TO.P,J3,34*
G04 #@! TO.N,A9*
X121440000Y-133540000D03*
G04 #@! TO.P,J3,35*
G04 #@! TO.N,A10*
X118900000Y-131000000D03*
G04 #@! TO.P,J3,36*
G04 #@! TO.N,A11*
X118900000Y-133540000D03*
G04 #@! TO.P,J3,37*
G04 #@! TO.N,A12*
X116360000Y-131000000D03*
G04 #@! TO.P,J3,38*
G04 #@! TO.N,A13*
X116360000Y-133540000D03*
G04 #@! TO.P,J3,39*
G04 #@! TO.N,A14*
X113820000Y-131000000D03*
G04 #@! TO.P,J3,40*
G04 #@! TO.N,A15*
X113820000Y-133540000D03*
G04 #@! TD*
D21*
G04 #@! TO.P,J4,1*
G04 #@! TO.N,Net-(J4-Pad1)*
X174244000Y-129598860D03*
D22*
G04 #@! TO.P,J4,2*
G04 #@! TO.N,GND*
X174244000Y-135598340D03*
G04 #@! TO.P,J4,3*
G04 #@! TO.N,Net-(J4-Pad3)*
X178943000Y-132598600D03*
G04 #@! TD*
D10*
G04 #@! TO.P,R1,1*
G04 #@! TO.N,~INT*
X115000000Y-88000000D03*
D23*
G04 #@! TO.P,R1,2*
G04 #@! TO.N,VCC*
X104840000Y-88000000D03*
G04 #@! TD*
D10*
G04 #@! TO.P,R2,1*
G04 #@! TO.N,Net-(C2-Pad1)*
X158000000Y-114000000D03*
D23*
G04 #@! TO.P,R2,2*
G04 #@! TO.N,Net-(R2-Pad2)*
X147840000Y-114000000D03*
G04 #@! TD*
D10*
G04 #@! TO.P,R3,1*
G04 #@! TO.N,Net-(C3-Pad1)*
X144000000Y-125000000D03*
D23*
G04 #@! TO.P,R3,2*
G04 #@! TO.N,Net-(R2-Pad2)*
X144000000Y-114840000D03*
G04 #@! TD*
D10*
G04 #@! TO.P,R4,1*
G04 #@! TO.N,~RESIN*
X168656000Y-120160000D03*
D23*
G04 #@! TO.P,R4,2*
G04 #@! TO.N,VCC*
X168656000Y-110000000D03*
G04 #@! TD*
D10*
G04 #@! TO.P,R5,1*
G04 #@! TO.N,Net-(D2-Pad2)*
X165000000Y-120160000D03*
D23*
G04 #@! TO.P,R5,2*
G04 #@! TO.N,VCC*
X165000000Y-110000000D03*
G04 #@! TD*
D13*
G04 #@! TO.P,RN1,1*
G04 #@! TO.N,VCC*
X119680000Y-88000000D03*
D23*
G04 #@! TO.P,RN1,2*
G04 #@! TO.N,D0*
X122220000Y-88000000D03*
G04 #@! TO.P,RN1,3*
G04 #@! TO.N,D1*
X124760000Y-88000000D03*
G04 #@! TO.P,RN1,4*
G04 #@! TO.N,D2*
X127300000Y-88000000D03*
G04 #@! TO.P,RN1,5*
G04 #@! TO.N,D3*
X129840000Y-88000000D03*
G04 #@! TO.P,RN1,6*
G04 #@! TO.N,D4*
X132380000Y-88000000D03*
G04 #@! TO.P,RN1,7*
G04 #@! TO.N,D5*
X134920000Y-88000000D03*
G04 #@! TO.P,RN1,8*
G04 #@! TO.N,D6*
X137460000Y-88000000D03*
G04 #@! TO.P,RN1,9*
G04 #@! TO.N,D7*
X140000000Y-88000000D03*
G04 #@! TD*
D24*
G04 #@! TO.P,SW1,2*
G04 #@! TO.N,~RESIN*
X177500000Y-106500000D03*
G04 #@! TO.P,SW1,1*
G04 #@! TO.N,GND*
X177500000Y-102000000D03*
G04 #@! TO.P,SW1,2*
G04 #@! TO.N,~RESIN*
X184000000Y-106500000D03*
G04 #@! TO.P,SW1,1*
G04 #@! TO.N,GND*
X184000000Y-102000000D03*
G04 #@! TD*
D25*
G04 #@! TO.P,SW2,1*
G04 #@! TO.N,Net-(SW2-Pad1)*
X178515000Y-113000000D03*
D26*
G04 #@! TO.P,SW2,2*
G04 #@! TO.N,VCC*
X181015000Y-113000000D03*
G04 #@! TO.P,SW2,3*
G04 #@! TO.N,Net-(J4-Pad1)*
X183515000Y-113000000D03*
G04 #@! TD*
D27*
G04 #@! TO.P,Y1,1*
G04 #@! TO.N,Net-(C2-Pad1)*
X150000000Y-119920000D03*
G04 #@! TO.P,Y1,2*
G04 #@! TO.N,Net-(C3-Pad1)*
X150000000Y-125000000D03*
G04 #@! TD*
D13*
G04 #@! TO.P,U2,1*
G04 #@! TO.N,RES*
X171080000Y-89000000D03*
D23*
G04 #@! TO.P,U2,8*
G04 #@! TO.N,Net-(U2-Pad8)*
X155840000Y-96620000D03*
G04 #@! TO.P,U2,2*
G04 #@! TO.N,Net-(U1-Pad26)*
X168540000Y-89000000D03*
G04 #@! TO.P,U2,9*
G04 #@! TO.N,GND*
X158380000Y-96620000D03*
G04 #@! TO.P,U2,3*
G04 #@! TO.N,~RESIN*
X166000000Y-89000000D03*
G04 #@! TO.P,U2,10*
G04 #@! TO.N,Net-(U2-Pad10)*
X160920000Y-96620000D03*
G04 #@! TO.P,U2,4*
G04 #@! TO.N,RES*
X163460000Y-89000000D03*
G04 #@! TO.P,U2,11*
G04 #@! TO.N,GND*
X163460000Y-96620000D03*
G04 #@! TO.P,U2,5*
X160920000Y-89000000D03*
G04 #@! TO.P,U2,12*
G04 #@! TO.N,Net-(U2-Pad12)*
X166000000Y-96620000D03*
G04 #@! TO.P,U2,6*
G04 #@! TO.N,Net-(U2-Pad6)*
X158380000Y-89000000D03*
G04 #@! TO.P,U2,13*
G04 #@! TO.N,GND*
X168540000Y-96620000D03*
G04 #@! TO.P,U2,7*
X155840000Y-89000000D03*
G04 #@! TO.P,U2,14*
G04 #@! TO.N,VCC*
X171080000Y-96620000D03*
G04 #@! TD*
D13*
G04 #@! TO.P,U3,1*
G04 #@! TO.N,Net-(R2-Pad2)*
X136240000Y-115000000D03*
D23*
G04 #@! TO.P,U3,8*
G04 #@! TO.N,Net-(U3-Pad8)*
X121000000Y-122620000D03*
G04 #@! TO.P,U3,2*
G04 #@! TO.N,CLK*
X133700000Y-115000000D03*
G04 #@! TO.P,U3,9*
G04 #@! TO.N,~IOREQ*
X123540000Y-122620000D03*
G04 #@! TO.P,U3,3*
G04 #@! TO.N,Net-(C3-Pad1)*
X131160000Y-115000000D03*
G04 #@! TO.P,U3,10*
G04 #@! TO.N,Net-(U3-Pad10)*
X126080000Y-122620000D03*
G04 #@! TO.P,U3,4*
G04 #@! TO.N,Net-(R2-Pad2)*
X128620000Y-115000000D03*
G04 #@! TO.P,U3,11*
G04 #@! TO.N,GND*
X128620000Y-122620000D03*
G04 #@! TO.P,U3,5*
G04 #@! TO.N,A15*
X126080000Y-115000000D03*
G04 #@! TO.P,U3,12*
G04 #@! TO.N,Net-(U3-Pad12)*
X131160000Y-122620000D03*
G04 #@! TO.P,U3,6*
G04 #@! TO.N,Net-(U3-Pad6)*
X123540000Y-115000000D03*
G04 #@! TO.P,U3,13*
G04 #@! TO.N,GND*
X133700000Y-122620000D03*
G04 #@! TO.P,U3,7*
X121000000Y-115000000D03*
G04 #@! TO.P,U3,14*
G04 #@! TO.N,VCC*
X136240000Y-122620000D03*
G04 #@! TD*
D13*
G04 #@! TO.P,U4,1*
G04 #@! TO.N,A14*
X134320000Y-46760000D03*
D23*
G04 #@! TO.P,U4,15*
G04 #@! TO.N,D3*
X101300000Y-62000000D03*
G04 #@! TO.P,U4,2*
G04 #@! TO.N,A12*
X131780000Y-46760000D03*
G04 #@! TO.P,U4,16*
G04 #@! TO.N,D4*
X103840000Y-62000000D03*
G04 #@! TO.P,U4,3*
G04 #@! TO.N,A7*
X129240000Y-46760000D03*
G04 #@! TO.P,U4,17*
G04 #@! TO.N,D5*
X106380000Y-62000000D03*
G04 #@! TO.P,U4,4*
G04 #@! TO.N,A6*
X126700000Y-46760000D03*
G04 #@! TO.P,U4,18*
G04 #@! TO.N,D6*
X108920000Y-62000000D03*
G04 #@! TO.P,U4,5*
G04 #@! TO.N,A5*
X124160000Y-46760000D03*
G04 #@! TO.P,U4,19*
G04 #@! TO.N,D7*
X111460000Y-62000000D03*
G04 #@! TO.P,U4,6*
G04 #@! TO.N,A4*
X121620000Y-46760000D03*
G04 #@! TO.P,U4,20*
G04 #@! TO.N,Net-(U3-Pad6)*
X114000000Y-62000000D03*
G04 #@! TO.P,U4,7*
G04 #@! TO.N,A3*
X119080000Y-46760000D03*
G04 #@! TO.P,U4,21*
G04 #@! TO.N,A10*
X116540000Y-62000000D03*
G04 #@! TO.P,U4,8*
G04 #@! TO.N,A2*
X116540000Y-46760000D03*
G04 #@! TO.P,U4,22*
G04 #@! TO.N,~MEMRD*
X119080000Y-62000000D03*
G04 #@! TO.P,U4,9*
G04 #@! TO.N,A1*
X114000000Y-46760000D03*
G04 #@! TO.P,U4,23*
G04 #@! TO.N,A11*
X121620000Y-62000000D03*
G04 #@! TO.P,U4,10*
G04 #@! TO.N,A0*
X111460000Y-46760000D03*
G04 #@! TO.P,U4,24*
G04 #@! TO.N,A9*
X124160000Y-62000000D03*
G04 #@! TO.P,U4,11*
G04 #@! TO.N,D0*
X108920000Y-46760000D03*
G04 #@! TO.P,U4,25*
G04 #@! TO.N,A8*
X126700000Y-62000000D03*
G04 #@! TO.P,U4,12*
G04 #@! TO.N,D1*
X106380000Y-46760000D03*
G04 #@! TO.P,U4,26*
G04 #@! TO.N,A13*
X129240000Y-62000000D03*
G04 #@! TO.P,U4,13*
G04 #@! TO.N,D2*
X103840000Y-46760000D03*
G04 #@! TO.P,U4,27*
G04 #@! TO.N,~MEMWR*
X131780000Y-62000000D03*
G04 #@! TO.P,U4,14*
G04 #@! TO.N,GND*
X101300000Y-46760000D03*
G04 #@! TO.P,U4,28*
G04 #@! TO.N,VCC*
X134320000Y-62000000D03*
G04 #@! TD*
D13*
G04 #@! TO.P,U5,1*
G04 #@! TO.N,A5*
X161080000Y-47000000D03*
D23*
G04 #@! TO.P,U5,9*
G04 #@! TO.N,Net-(J1-Pad13)*
X143300000Y-54620000D03*
G04 #@! TO.P,U5,2*
G04 #@! TO.N,A6*
X158540000Y-47000000D03*
G04 #@! TO.P,U5,10*
G04 #@! TO.N,Net-(J1-Pad11)*
X145840000Y-54620000D03*
G04 #@! TO.P,U5,3*
G04 #@! TO.N,A7*
X156000000Y-47000000D03*
G04 #@! TO.P,U5,11*
G04 #@! TO.N,Net-(J1-Pad9)*
X148380000Y-54620000D03*
G04 #@! TO.P,U5,4*
G04 #@! TO.N,GND*
X153460000Y-47000000D03*
G04 #@! TO.P,U5,12*
G04 #@! TO.N,Net-(J1-Pad7)*
X150920000Y-54620000D03*
G04 #@! TO.P,U5,5*
G04 #@! TO.N,GND*
X150920000Y-47000000D03*
G04 #@! TO.P,U5,13*
G04 #@! TO.N,Net-(J1-Pad5)*
X153460000Y-54620000D03*
G04 #@! TO.P,U5,6*
G04 #@! TO.N,VCC*
X148380000Y-47000000D03*
G04 #@! TO.P,U5,14*
G04 #@! TO.N,Net-(J1-Pad3)*
X156000000Y-54620000D03*
G04 #@! TO.P,U5,7*
G04 #@! TO.N,Net-(J1-Pad15)*
X145840000Y-47000000D03*
G04 #@! TO.P,U5,15*
G04 #@! TO.N,Net-(J1-Pad1)*
X158540000Y-54620000D03*
G04 #@! TO.P,U5,8*
G04 #@! TO.N,GND*
X143300000Y-47000000D03*
G04 #@! TO.P,U5,16*
G04 #@! TO.N,VCC*
X161080000Y-54620000D03*
G04 #@! TD*
D13*
G04 #@! TO.P,U6,1*
G04 #@! TO.N,A14*
X134240000Y-67000000D03*
D23*
G04 #@! TO.P,U6,15*
G04 #@! TO.N,D3*
X101220000Y-82240000D03*
G04 #@! TO.P,U6,2*
G04 #@! TO.N,A12*
X131700000Y-67000000D03*
G04 #@! TO.P,U6,16*
G04 #@! TO.N,D4*
X103760000Y-82240000D03*
G04 #@! TO.P,U6,3*
G04 #@! TO.N,A7*
X129160000Y-67000000D03*
G04 #@! TO.P,U6,17*
G04 #@! TO.N,D5*
X106300000Y-82240000D03*
G04 #@! TO.P,U6,4*
G04 #@! TO.N,A6*
X126620000Y-67000000D03*
G04 #@! TO.P,U6,18*
G04 #@! TO.N,D6*
X108840000Y-82240000D03*
G04 #@! TO.P,U6,5*
G04 #@! TO.N,A5*
X124080000Y-67000000D03*
G04 #@! TO.P,U6,19*
G04 #@! TO.N,D7*
X111380000Y-82240000D03*
G04 #@! TO.P,U6,6*
G04 #@! TO.N,A4*
X121540000Y-67000000D03*
G04 #@! TO.P,U6,20*
G04 #@! TO.N,A15*
X113920000Y-82240000D03*
G04 #@! TO.P,U6,7*
G04 #@! TO.N,A3*
X119000000Y-67000000D03*
G04 #@! TO.P,U6,21*
G04 #@! TO.N,A10*
X116460000Y-82240000D03*
G04 #@! TO.P,U6,8*
G04 #@! TO.N,A2*
X116460000Y-67000000D03*
G04 #@! TO.P,U6,22*
G04 #@! TO.N,~MEMRD*
X119000000Y-82240000D03*
G04 #@! TO.P,U6,9*
G04 #@! TO.N,A1*
X113920000Y-67000000D03*
G04 #@! TO.P,U6,23*
G04 #@! TO.N,A11*
X121540000Y-82240000D03*
G04 #@! TO.P,U6,10*
G04 #@! TO.N,A0*
X111380000Y-67000000D03*
G04 #@! TO.P,U6,24*
G04 #@! TO.N,A9*
X124080000Y-82240000D03*
G04 #@! TO.P,U6,11*
G04 #@! TO.N,D0*
X108840000Y-67000000D03*
G04 #@! TO.P,U6,25*
G04 #@! TO.N,A8*
X126620000Y-82240000D03*
G04 #@! TO.P,U6,12*
G04 #@! TO.N,D1*
X106300000Y-67000000D03*
G04 #@! TO.P,U6,26*
G04 #@! TO.N,A13*
X129160000Y-82240000D03*
G04 #@! TO.P,U6,13*
G04 #@! TO.N,D2*
X103760000Y-67000000D03*
G04 #@! TO.P,U6,27*
G04 #@! TO.N,VCC*
X131700000Y-82240000D03*
G04 #@! TO.P,U6,14*
G04 #@! TO.N,GND*
X101220000Y-67000000D03*
G04 #@! TO.P,U6,28*
G04 #@! TO.N,VCC*
X134240000Y-82240000D03*
G04 #@! TD*
D13*
G04 #@! TO.P,U7,1*
G04 #@! TO.N,~RD*
X113540000Y-115000000D03*
D23*
G04 #@! TO.P,U7,8*
G04 #@! TO.N,~IORD*
X98300000Y-122620000D03*
G04 #@! TO.P,U7,2*
G04 #@! TO.N,~MREQ*
X111000000Y-115000000D03*
G04 #@! TO.P,U7,9*
G04 #@! TO.N,~RD*
X100840000Y-122620000D03*
G04 #@! TO.P,U7,3*
G04 #@! TO.N,~MEMRD*
X108460000Y-115000000D03*
G04 #@! TO.P,U7,10*
G04 #@! TO.N,~IOREQ*
X103380000Y-122620000D03*
G04 #@! TO.P,U7,4*
G04 #@! TO.N,~MREQ*
X105920000Y-115000000D03*
G04 #@! TO.P,U7,11*
G04 #@! TO.N,~IOWR*
X105920000Y-122620000D03*
G04 #@! TO.P,U7,5*
G04 #@! TO.N,~WR*
X103380000Y-115000000D03*
G04 #@! TO.P,U7,12*
G04 #@! TO.N,~IOREQ*
X108460000Y-122620000D03*
G04 #@! TO.P,U7,6*
G04 #@! TO.N,~MEMWR*
X100840000Y-115000000D03*
G04 #@! TO.P,U7,13*
G04 #@! TO.N,~WR*
X111000000Y-122620000D03*
G04 #@! TO.P,U7,7*
G04 #@! TO.N,GND*
X98300000Y-115000000D03*
G04 #@! TO.P,U7,14*
G04 #@! TO.N,VCC*
X113540000Y-122620000D03*
G04 #@! TD*
D13*
G04 #@! TO.P,U8,1*
G04 #@! TO.N,GND*
X171540000Y-67000000D03*
D23*
G04 #@! TO.P,U8,13*
G04 #@! TO.N,~WR*
X143600000Y-82240000D03*
G04 #@! TO.P,U8,2*
G04 #@! TO.N,Net-(J2-Pad4)*
X169000000Y-67000000D03*
G04 #@! TO.P,U8,14*
G04 #@! TO.N,Net-(U3-Pad8)*
X146140000Y-82240000D03*
G04 #@! TO.P,U8,3*
G04 #@! TO.N,CLK*
X166460000Y-67000000D03*
G04 #@! TO.P,U8,15*
G04 #@! TO.N,D7*
X148680000Y-82240000D03*
G04 #@! TO.P,U8,4*
G04 #@! TO.N,CLK*
X163920000Y-67000000D03*
G04 #@! TO.P,U8,16*
G04 #@! TO.N,D6*
X151220000Y-82240000D03*
G04 #@! TO.P,U8,5*
G04 #@! TO.N,Net-(J2-Pad2)*
X161380000Y-67000000D03*
G04 #@! TO.P,U8,17*
G04 #@! TO.N,D5*
X153760000Y-82240000D03*
G04 #@! TO.P,U8,6*
G04 #@! TO.N,Net-(J2-Pad5)*
X158840000Y-67000000D03*
G04 #@! TO.P,U8,18*
G04 #@! TO.N,D4*
X156300000Y-82240000D03*
G04 #@! TO.P,U8,7*
G04 #@! TO.N,~INT*
X156300000Y-67000000D03*
G04 #@! TO.P,U8,19*
G04 #@! TO.N,D3*
X158840000Y-82240000D03*
G04 #@! TO.P,U8,8*
G04 #@! TO.N,VCC*
X153760000Y-67000000D03*
G04 #@! TO.P,U8,20*
G04 #@! TO.N,D2*
X161380000Y-82240000D03*
G04 #@! TO.P,U8,9*
G04 #@! TO.N,Net-(J1-Pad10)*
X151220000Y-67000000D03*
G04 #@! TO.P,U8,21*
G04 #@! TO.N,D1*
X163920000Y-82240000D03*
G04 #@! TO.P,U8,10*
G04 #@! TO.N,VCC*
X148680000Y-67000000D03*
G04 #@! TO.P,U8,22*
G04 #@! TO.N,D0*
X166460000Y-82240000D03*
G04 #@! TO.P,U8,11*
G04 #@! TO.N,A0*
X146140000Y-67000000D03*
G04 #@! TO.P,U8,23*
G04 #@! TO.N,GND*
X169000000Y-82240000D03*
G04 #@! TO.P,U8,12*
G04 #@! TO.N,VCC*
X143600000Y-67000000D03*
G04 #@! TO.P,U8,24*
G04 #@! TO.N,Net-(J2-Pad6)*
X171540000Y-82240000D03*
G04 #@! TD*
D13*
G04 #@! TO.P,U1,1*
G04 #@! TO.N,A11*
X146560000Y-94000000D03*
D23*
G04 #@! TO.P,U1,21*
G04 #@! TO.N,~RD*
X98300000Y-109240000D03*
G04 #@! TO.P,U1,2*
G04 #@! TO.N,A12*
X144020000Y-94000000D03*
G04 #@! TO.P,U1,22*
G04 #@! TO.N,~WR*
X100840000Y-109240000D03*
G04 #@! TO.P,U1,3*
G04 #@! TO.N,A13*
X141480000Y-94000000D03*
G04 #@! TO.P,U1,23*
G04 #@! TO.N,Net-(U1-Pad23)*
X103380000Y-109240000D03*
G04 #@! TO.P,U1,4*
G04 #@! TO.N,A14*
X138940000Y-94000000D03*
G04 #@! TO.P,U1,24*
G04 #@! TO.N,VCC*
X105920000Y-109240000D03*
G04 #@! TO.P,U1,5*
G04 #@! TO.N,A15*
X136400000Y-94000000D03*
G04 #@! TO.P,U1,25*
G04 #@! TO.N,VCC*
X108460000Y-109240000D03*
G04 #@! TO.P,U1,6*
G04 #@! TO.N,CLK*
X133860000Y-94000000D03*
G04 #@! TO.P,U1,26*
G04 #@! TO.N,Net-(U1-Pad26)*
X111000000Y-109240000D03*
G04 #@! TO.P,U1,7*
G04 #@! TO.N,D4*
X131320000Y-94000000D03*
G04 #@! TO.P,U1,27*
G04 #@! TO.N,Net-(U1-Pad27)*
X113540000Y-109240000D03*
G04 #@! TO.P,U1,8*
G04 #@! TO.N,D3*
X128780000Y-94000000D03*
G04 #@! TO.P,U1,28*
G04 #@! TO.N,Net-(U1-Pad28)*
X116080000Y-109240000D03*
G04 #@! TO.P,U1,9*
G04 #@! TO.N,D5*
X126240000Y-94000000D03*
G04 #@! TO.P,U1,29*
G04 #@! TO.N,GND*
X118620000Y-109240000D03*
G04 #@! TO.P,U1,10*
G04 #@! TO.N,D6*
X123700000Y-94000000D03*
G04 #@! TO.P,U1,30*
G04 #@! TO.N,A0*
X121160000Y-109240000D03*
G04 #@! TO.P,U1,11*
G04 #@! TO.N,VCC*
X121160000Y-94000000D03*
G04 #@! TO.P,U1,31*
G04 #@! TO.N,A1*
X123700000Y-109240000D03*
G04 #@! TO.P,U1,12*
G04 #@! TO.N,D2*
X118620000Y-94000000D03*
G04 #@! TO.P,U1,32*
G04 #@! TO.N,A2*
X126240000Y-109240000D03*
G04 #@! TO.P,U1,13*
G04 #@! TO.N,D7*
X116080000Y-94000000D03*
G04 #@! TO.P,U1,33*
G04 #@! TO.N,A3*
X128780000Y-109240000D03*
G04 #@! TO.P,U1,14*
G04 #@! TO.N,D0*
X113540000Y-94000000D03*
G04 #@! TO.P,U1,34*
G04 #@! TO.N,A4*
X131320000Y-109240000D03*
G04 #@! TO.P,U1,15*
G04 #@! TO.N,D1*
X111000000Y-94000000D03*
G04 #@! TO.P,U1,35*
G04 #@! TO.N,A5*
X133860000Y-109240000D03*
G04 #@! TO.P,U1,16*
G04 #@! TO.N,~INT*
X108460000Y-94000000D03*
G04 #@! TO.P,U1,36*
G04 #@! TO.N,A6*
X136400000Y-109240000D03*
G04 #@! TO.P,U1,17*
G04 #@! TO.N,VCC*
X105920000Y-94000000D03*
G04 #@! TO.P,U1,37*
G04 #@! TO.N,A7*
X138940000Y-109240000D03*
G04 #@! TO.P,U1,18*
G04 #@! TO.N,Net-(U1-Pad18)*
X103380000Y-94000000D03*
G04 #@! TO.P,U1,38*
G04 #@! TO.N,A8*
X141480000Y-109240000D03*
G04 #@! TO.P,U1,19*
G04 #@! TO.N,~MREQ*
X100840000Y-94000000D03*
G04 #@! TO.P,U1,39*
G04 #@! TO.N,A9*
X144020000Y-109240000D03*
G04 #@! TO.P,U1,20*
G04 #@! TO.N,~IOREQ*
X98300000Y-94000000D03*
G04 #@! TO.P,U1,40*
G04 #@! TO.N,A10*
X146560000Y-109240000D03*
G04 #@! TD*
D28*
G04 #@! TO.N,GND*
X97288600Y-112506800D03*
X131902100Y-121283700D03*
X99695000Y-87630000D03*
X154305000Y-99695000D03*
X139547500Y-73025000D03*
G04 #@! TO.N,Net-(C3-Pad1)*
X139653400Y-118129400D03*
G04 #@! TO.N,D1*
X124760000Y-84518200D03*
G04 #@! TO.N,D5*
X134920000Y-89892100D03*
G04 #@! TO.N,~IOWR*
X135618700Y-134847500D03*
G04 #@! TO.N,A0*
X144994300Y-103812400D03*
G04 #@! TO.N,A4*
X128279600Y-119214600D03*
G04 #@! TO.N,A8*
X135629900Y-118991100D03*
G04 #@! TO.N,A9*
X130298300Y-83464300D03*
G04 #@! TO.N,A10*
X124687100Y-126755000D03*
X148478500Y-106458100D03*
X144870000Y-78150800D03*
G04 #@! TO.N,A11*
X138530300Y-82327500D03*
G04 #@! TO.N,A12*
X130694000Y-105107600D03*
G04 #@! TO.N,A13*
X137444900Y-84368000D03*
G04 #@! TO.N,A14*
X120906700Y-104383600D03*
G04 #@! TO.N,A15*
X113538500Y-87426100D03*
X123054700Y-100804600D03*
G04 #@! TO.N,~WR*
X145759700Y-97596200D03*
G04 #@! TD*
D29*
G04 #@! TO.N,VCC*
X104840000Y-88000000D02*
X104840000Y-89308300D01*
X105920000Y-94000000D02*
X105920000Y-95308300D01*
X114848400Y-120003300D02*
X113540000Y-121311700D01*
X114848400Y-113983800D02*
X114848400Y-120003300D01*
X112984600Y-112120000D02*
X114848400Y-113983800D01*
X111340000Y-112120000D02*
X112984600Y-112120000D01*
X108460000Y-109240000D02*
X111340000Y-112120000D01*
X113540000Y-122620000D02*
X113540000Y-121311700D01*
X137668300Y-122500000D02*
X137548300Y-122620000D01*
X140000000Y-122500000D02*
X137668300Y-122500000D01*
X136240000Y-122620000D02*
X137548300Y-122620000D01*
X172466000Y-119620000D02*
X172466000Y-118211700D01*
X104840000Y-91611700D02*
X105920000Y-92691700D01*
X104840000Y-89308300D02*
X104840000Y-91611700D01*
X105920000Y-94000000D02*
X105920000Y-92691700D01*
X108460000Y-109240000D02*
X108460000Y-107931700D01*
X108460000Y-99500000D02*
X108460000Y-107931700D01*
X121000000Y-99500000D02*
X108460000Y-99500000D01*
X105920000Y-96960000D02*
X105920000Y-95308300D01*
X108460000Y-99500000D02*
X105920000Y-96960000D01*
X172855400Y-61855400D02*
X164000000Y-53000000D01*
X172855400Y-93536300D02*
X172855400Y-61855400D01*
X171080000Y-95311700D02*
X172855400Y-93536300D01*
X171080000Y-96620000D02*
X171080000Y-95311700D01*
X168656000Y-114401700D02*
X172466000Y-118211700D01*
X168656000Y-110000000D02*
X168656000Y-114401700D01*
X168656000Y-100352300D02*
X171080000Y-97928300D01*
X168656000Y-110000000D02*
X168656000Y-100352300D01*
X171080000Y-96620000D02*
X171080000Y-97274100D01*
X171080000Y-97274100D02*
X171080000Y-97928300D01*
X173725900Y-97274100D02*
X174000000Y-97000000D01*
X171080000Y-97274100D02*
X173725900Y-97274100D01*
X147359200Y-68320800D02*
X148680000Y-67000000D01*
X144362100Y-68320800D02*
X147359200Y-68320800D01*
X144349600Y-68308300D02*
X144362100Y-68320800D01*
X143600000Y-68308300D02*
X144349600Y-68308300D01*
X144362100Y-75137900D02*
X137000000Y-82500000D01*
X144362100Y-68320800D02*
X144362100Y-75137900D01*
X143600000Y-67000000D02*
X143600000Y-68308300D01*
X119680000Y-91211700D02*
X119680000Y-88000000D01*
X121160000Y-92691700D02*
X119680000Y-91211700D01*
X121160000Y-94000000D02*
X121160000Y-92691700D01*
G04 #@! TO.N,GND*
X143300000Y-47000000D02*
X141991700Y-47000000D01*
X177500000Y-102000000D02*
X184000000Y-102000000D01*
X101300000Y-46760000D02*
X101300000Y-48068300D01*
X101220000Y-67000000D02*
X101220000Y-65691700D01*
X120691700Y-116308300D02*
X117000000Y-120000000D01*
X121000000Y-116308300D02*
X120691700Y-116308300D01*
X121000000Y-115000000D02*
X121000000Y-116308300D01*
X99990500Y-64462200D02*
X101220000Y-65691700D01*
X99990500Y-49377800D02*
X99990500Y-64462200D01*
X101300000Y-48068300D02*
X99990500Y-49377800D01*
X141991700Y-47000000D02*
X141216700Y-47000000D01*
X139666700Y-45450000D02*
X141216700Y-47000000D01*
X102610000Y-45450000D02*
X139666700Y-45450000D01*
X101300000Y-46760000D02*
X102610000Y-45450000D01*
X141216700Y-55283300D02*
X137000000Y-59500000D01*
X141216700Y-47000000D02*
X141216700Y-55283300D01*
X166000000Y-127000000D02*
X167408300Y-127000000D01*
X162080000Y-133540000D02*
X163451900Y-133540000D01*
X167408300Y-133540000D02*
X163451900Y-133540000D01*
X167408300Y-133540000D02*
X167408300Y-127000000D01*
X169927300Y-133540000D02*
X167408300Y-133540000D01*
X171985600Y-135598300D02*
X169927300Y-133540000D01*
X174244000Y-135598300D02*
X171985600Y-135598300D01*
X139547500Y-69500000D02*
X141000000Y-69500000D01*
X139547500Y-62047500D02*
X139547500Y-69500000D01*
X137000000Y-59500000D02*
X139547500Y-62047500D01*
X139547500Y-77452500D02*
X137000000Y-80000000D01*
X139547500Y-69500000D02*
X139547500Y-73025000D01*
X96958200Y-72570100D02*
X101220000Y-68308300D01*
X96958200Y-112176400D02*
X96958200Y-72570100D01*
X97288600Y-112506800D02*
X96958200Y-112176400D01*
X101220000Y-67000000D02*
X101220000Y-68308300D01*
X131953900Y-121335500D02*
X131902100Y-121283700D01*
X133700000Y-121335500D02*
X131953900Y-121335500D01*
X133700000Y-122620000D02*
X133700000Y-121335500D01*
X169000000Y-70848300D02*
X169000000Y-82240000D01*
X171540000Y-68308300D02*
X169000000Y-70848300D01*
X171540000Y-67000000D02*
X171540000Y-68308300D01*
X180164400Y-135598300D02*
X174244000Y-135598300D01*
X181201500Y-134561200D02*
X180164400Y-135598300D01*
X181201500Y-121201500D02*
X181201500Y-134561200D01*
X181000000Y-121000000D02*
X181201500Y-121201500D01*
X134533100Y-120502400D02*
X133700000Y-121335500D01*
X139497600Y-120502400D02*
X134533100Y-120502400D01*
X140000000Y-120000000D02*
X139497600Y-120502400D01*
X118620000Y-104380000D02*
X121000000Y-102000000D01*
X118620000Y-109240000D02*
X118620000Y-104380000D01*
X139547500Y-73025000D02*
X139547500Y-77452500D01*
D30*
G04 #@! TO.N,Net-(C2-Pad1)*
X157500000Y-114500000D02*
X158000000Y-114000000D01*
X157500000Y-118000000D02*
X157500000Y-114500000D01*
G04 #@! TO.N,Net-(C3-Pad1)*
X131160000Y-115000000D02*
X132265100Y-115000000D01*
X137629100Y-116105100D02*
X139653400Y-118129400D01*
X133231900Y-116105100D02*
X137629100Y-116105100D01*
X132265100Y-115138300D02*
X133231900Y-116105100D01*
X132265100Y-115000000D02*
X132265100Y-115138300D01*
G04 #@! TO.N,~RESIN*
X172000000Y-105500000D02*
X172905100Y-105500000D01*
X168656000Y-123532500D02*
X168656000Y-120160000D01*
X166393700Y-125794800D02*
X168656000Y-123532500D01*
X163092200Y-125794800D02*
X166393700Y-125794800D01*
X158168700Y-130718300D02*
X163092200Y-125794800D01*
X158168700Y-131494900D02*
X158168700Y-130718300D01*
X157292300Y-132371300D02*
X158168700Y-131494900D01*
X157000000Y-132371300D02*
X157292300Y-132371300D01*
X157000000Y-133540000D02*
X157000000Y-132371300D01*
X173905100Y-109355800D02*
X172466000Y-110794900D01*
X173905100Y-106500000D02*
X173905100Y-109355800D01*
X177500000Y-106500000D02*
X173905100Y-106500000D01*
X173905100Y-106500000D02*
X172905100Y-105500000D01*
X172466000Y-112000000D02*
X172466000Y-110794900D01*
X167105100Y-118609100D02*
X168656000Y-120160000D01*
X167105100Y-91210200D02*
X167105100Y-118609100D01*
X166000000Y-90105100D02*
X167105100Y-91210200D01*
X166000000Y-89000000D02*
X166000000Y-90105100D01*
G04 #@! TO.N,Net-(J1-Pad1)*
X161106200Y-58291300D02*
X161620000Y-58291300D01*
X158540000Y-55725100D02*
X161106200Y-58291300D01*
X158540000Y-54620000D02*
X158540000Y-55725100D01*
X161620000Y-59460000D02*
X161620000Y-58291300D01*
G04 #@! TO.N,Net-(J1-Pad10)*
X151220000Y-63408700D02*
X151460000Y-63168700D01*
X151220000Y-67000000D02*
X151220000Y-63408700D01*
X151460000Y-62000000D02*
X151460000Y-63168700D01*
G04 #@! TO.N,Net-(J1-Pad3)*
X158566200Y-58291300D02*
X159080000Y-58291300D01*
X156000000Y-55725100D02*
X158566200Y-58291300D01*
X156000000Y-54620000D02*
X156000000Y-55725100D01*
X159080000Y-59460000D02*
X159080000Y-58291300D01*
G04 #@! TO.N,Net-(J1-Pad5)*
X156026200Y-58291300D02*
X156540000Y-58291300D01*
X153460000Y-55725100D02*
X156026200Y-58291300D01*
X153460000Y-54620000D02*
X153460000Y-55725100D01*
X156540000Y-59460000D02*
X156540000Y-58291300D01*
G04 #@! TO.N,Net-(J1-Pad9)*
X150946200Y-58291300D02*
X151460000Y-58291300D01*
X148380000Y-55725100D02*
X150946200Y-58291300D01*
X148380000Y-54620000D02*
X148380000Y-55725100D01*
X151460000Y-59460000D02*
X151460000Y-58291300D01*
G04 #@! TO.N,Net-(J1-Pad11)*
X148406200Y-58291300D02*
X148920000Y-58291300D01*
X145840000Y-55725100D02*
X148406200Y-58291300D01*
X145840000Y-54620000D02*
X145840000Y-55725100D01*
X148920000Y-59460000D02*
X148920000Y-58291300D01*
G04 #@! TO.N,Net-(J1-Pad15)*
X144666400Y-57464900D02*
X143840000Y-58291300D01*
X144666400Y-49278700D02*
X144666400Y-57464900D01*
X145840000Y-48105100D02*
X144666400Y-49278700D01*
X145840000Y-47000000D02*
X145840000Y-48105100D01*
X143840000Y-59460000D02*
X143840000Y-58291300D01*
G04 #@! TO.N,Net-(J2-Pad2)*
X177831300Y-50548700D02*
X179000000Y-50548700D01*
X176486100Y-51893900D02*
X177831300Y-50548700D01*
X163462600Y-51893900D02*
X176486100Y-51893900D01*
X162801500Y-52555000D02*
X163462600Y-51893900D01*
X162801500Y-64473400D02*
X162801500Y-52555000D01*
X161380000Y-65894900D02*
X162801500Y-64473400D01*
X161380000Y-67000000D02*
X161380000Y-65894900D01*
X179000000Y-49380000D02*
X179000000Y-50548700D01*
G04 #@! TO.N,CLK*
X154823200Y-132371300D02*
X154460000Y-132371300D01*
X155730000Y-131464500D02*
X154823200Y-132371300D01*
X155730000Y-122472500D02*
X155730000Y-131464500D01*
X158750000Y-119452500D02*
X155730000Y-122472500D01*
X158750000Y-115250000D02*
X158750000Y-119452500D01*
X161643900Y-112356100D02*
X158750000Y-115250000D01*
X161643900Y-111743700D02*
X161643900Y-112356100D01*
X164730000Y-108657600D02*
X161643900Y-111743700D01*
X164730000Y-86975200D02*
X164730000Y-108657600D01*
X167625800Y-84079400D02*
X164730000Y-86975200D01*
X167625800Y-69270900D02*
X167625800Y-84079400D01*
X166460000Y-68105100D02*
X167625800Y-69270900D01*
X166460000Y-67000000D02*
X166460000Y-68105100D01*
X154460000Y-133540000D02*
X154460000Y-132371300D01*
X134805100Y-114380200D02*
X134805100Y-115000000D01*
X137011600Y-112173700D02*
X134805100Y-114380200D01*
X140123400Y-112173700D02*
X137011600Y-112173700D01*
X142592500Y-109704600D02*
X140123400Y-112173700D01*
X142592500Y-107195400D02*
X142592500Y-109704600D01*
X133860000Y-98462900D02*
X142592500Y-107195400D01*
X133860000Y-94000000D02*
X133860000Y-98462900D01*
X133700000Y-115000000D02*
X134805100Y-115000000D01*
G04 #@! TO.N,D0*
X107808000Y-48977100D02*
X108920000Y-47865100D01*
X107808000Y-64862900D02*
X107808000Y-48977100D01*
X108840000Y-65894900D02*
X107808000Y-64862900D01*
X108840000Y-67000000D02*
X108840000Y-65894900D01*
X108920000Y-46760000D02*
X108920000Y-47865100D01*
X108840000Y-67000000D02*
X108840000Y-68105100D01*
X113540000Y-94000000D02*
X113540000Y-92894900D01*
X166460000Y-82240000D02*
X166460000Y-83345100D01*
X151920000Y-131000000D02*
X151920000Y-129831300D01*
X108840000Y-79338100D02*
X108840000Y-68105100D01*
X107725200Y-80452900D02*
X108840000Y-79338100D01*
X107725200Y-82756600D02*
X107725200Y-80452900D01*
X111385300Y-86416700D02*
X107725200Y-82756600D01*
X115592400Y-86416700D02*
X111385300Y-86416700D01*
X116545500Y-87369800D02*
X115592400Y-86416700D01*
X116545500Y-89889400D02*
X116545500Y-87369800D01*
X113540000Y-92894900D02*
X116545500Y-89889400D01*
X162190000Y-87615100D02*
X166460000Y-83345100D01*
X162190000Y-107421200D02*
X162190000Y-87615100D01*
X152614100Y-116997100D02*
X162190000Y-107421200D01*
X152614100Y-129137200D02*
X152614100Y-116997100D01*
X151920000Y-129831300D02*
X152614100Y-129137200D01*
G04 #@! TO.N,D1*
X163920000Y-82240000D02*
X163920000Y-83345100D01*
X151920000Y-133540000D02*
X151920000Y-132371300D01*
X106380000Y-46760000D02*
X106380000Y-47865100D01*
X105269300Y-48975800D02*
X106380000Y-47865100D01*
X105269300Y-64864200D02*
X105269300Y-48975800D01*
X106300000Y-65894900D02*
X105269300Y-64864200D01*
X106300000Y-67000000D02*
X106300000Y-65894900D01*
X106300000Y-80559600D02*
X106300000Y-67000000D01*
X105179600Y-81680000D02*
X106300000Y-80559600D01*
X105179600Y-84863800D02*
X105179600Y-81680000D01*
X107125600Y-86809800D02*
X105179600Y-84863800D01*
X107125600Y-94259700D02*
X107125600Y-86809800D01*
X107971300Y-95105400D02*
X107125600Y-94259700D01*
X109894600Y-95105400D02*
X107971300Y-95105400D01*
X111000000Y-94000000D02*
X109894600Y-95105400D01*
X159650000Y-87615100D02*
X163920000Y-83345100D01*
X159650000Y-109385800D02*
X159650000Y-87615100D01*
X152207400Y-116828400D02*
X159650000Y-109385800D01*
X152207400Y-126245000D02*
X152207400Y-116828400D01*
X150703900Y-127748500D02*
X152207400Y-126245000D01*
X150703900Y-131518400D02*
X150703900Y-127748500D01*
X151556800Y-132371300D02*
X150703900Y-131518400D01*
X151920000Y-132371300D02*
X151556800Y-132371300D01*
X124760000Y-88000000D02*
X124760000Y-86894900D01*
X124760000Y-86894900D02*
X124760000Y-84518200D01*
G04 #@! TO.N,D2*
X103840000Y-46760000D02*
X103840000Y-47865100D01*
X102731600Y-48973500D02*
X103840000Y-47865100D01*
X102731600Y-64866500D02*
X102731600Y-48973500D01*
X103760000Y-65894900D02*
X102731600Y-64866500D01*
X103760000Y-67000000D02*
X103760000Y-65894900D01*
X161380000Y-82240000D02*
X161380000Y-83345100D01*
X149380000Y-131000000D02*
X149380000Y-129831300D01*
X156978100Y-87747000D02*
X161380000Y-83345100D01*
X156978100Y-111432900D02*
X156978100Y-87747000D01*
X151799700Y-116611300D02*
X156978100Y-111432900D01*
X151799700Y-119557600D02*
X151799700Y-116611300D01*
X148970600Y-122386700D02*
X151799700Y-119557600D01*
X148970600Y-129421900D02*
X148970600Y-122386700D01*
X149380000Y-129831300D02*
X148970600Y-129421900D01*
G04 #@! TO.N,D3*
X101300000Y-64909000D02*
X101300000Y-62000000D01*
X102333200Y-65942200D02*
X101300000Y-64909000D01*
X102333200Y-80021700D02*
X102333200Y-65942200D01*
X101220000Y-81134900D02*
X102333200Y-80021700D01*
X101220000Y-82240000D02*
X101220000Y-81134900D01*
X129840000Y-88000000D02*
X129840000Y-89105100D01*
X149380000Y-133540000D02*
X149380000Y-132371300D01*
X158840000Y-82240000D02*
X158840000Y-83345100D01*
X158840000Y-83348200D02*
X158840000Y-83345100D01*
X151393000Y-90795200D02*
X158840000Y-83348200D01*
X151393000Y-116982700D02*
X151393000Y-90795200D01*
X148211200Y-120164500D02*
X151393000Y-116982700D01*
X148211200Y-131565700D02*
X148211200Y-120164500D01*
X149016800Y-132371300D02*
X148211200Y-131565700D01*
X149380000Y-132371300D02*
X149016800Y-132371300D01*
X128780000Y-94000000D02*
X128780000Y-92894900D01*
X129840000Y-91834900D02*
X129840000Y-89105100D01*
X128780000Y-92894900D02*
X129840000Y-91834900D01*
G04 #@! TO.N,D4*
X103760000Y-82240000D02*
X103760000Y-81134900D01*
X132380000Y-91834900D02*
X132380000Y-88000000D01*
X131320000Y-92894900D02*
X132380000Y-91834900D01*
X131320000Y-94000000D02*
X131320000Y-92894900D01*
X104870700Y-80024200D02*
X103760000Y-81134900D01*
X104870700Y-66430300D02*
X104870700Y-80024200D01*
X103840000Y-65399600D02*
X104870700Y-66430300D01*
X103840000Y-62000000D02*
X103840000Y-65399600D01*
X156300000Y-82240000D02*
X156300000Y-83345100D01*
X146840000Y-131000000D02*
X146840000Y-129831300D01*
X150986300Y-88658800D02*
X156300000Y-83345100D01*
X150986300Y-116274500D02*
X150986300Y-88658800D01*
X147804400Y-119456400D02*
X150986300Y-116274500D01*
X147804400Y-128866900D02*
X147804400Y-119456400D01*
X146840000Y-129831300D02*
X147804400Y-128866900D01*
G04 #@! TO.N,D5*
X106380000Y-65399600D02*
X106380000Y-62000000D01*
X107410700Y-66430300D02*
X106380000Y-65399600D01*
X107410700Y-80024200D02*
X107410700Y-66430300D01*
X106300000Y-81134900D02*
X107410700Y-80024200D01*
X106300000Y-82240000D02*
X106300000Y-81134900D01*
X153760000Y-82240000D02*
X153760000Y-83345100D01*
X146840000Y-133540000D02*
X146840000Y-132371300D01*
X150579600Y-86525500D02*
X153760000Y-83345100D01*
X150579600Y-116070700D02*
X150579600Y-86525500D01*
X147397600Y-119252700D02*
X150579600Y-116070700D01*
X147397600Y-127067800D02*
X147397600Y-119252700D01*
X145649400Y-128816000D02*
X147397600Y-127067800D01*
X145649400Y-131543900D02*
X145649400Y-128816000D01*
X146476800Y-132371300D02*
X145649400Y-131543900D01*
X146840000Y-132371300D02*
X146476800Y-132371300D01*
X134920000Y-88000000D02*
X134920000Y-89892100D01*
G04 #@! TO.N,D6*
X108840000Y-82240000D02*
X108840000Y-81134900D01*
X109950700Y-80024200D02*
X108840000Y-81134900D01*
X109950700Y-66430300D02*
X109950700Y-80024200D01*
X108920000Y-65399600D02*
X109950700Y-66430300D01*
X108920000Y-62000000D02*
X108920000Y-65399600D01*
X151220000Y-82240000D02*
X151220000Y-83345100D01*
X150172900Y-84392200D02*
X151220000Y-83345100D01*
X150172900Y-115902200D02*
X150172900Y-84392200D01*
X146917600Y-119157500D02*
X150172900Y-115902200D01*
X146917600Y-126111600D02*
X146917600Y-119157500D01*
X144300000Y-128729200D02*
X146917600Y-126111600D01*
X144300000Y-131000000D02*
X144300000Y-128729200D01*
G04 #@! TO.N,D7*
X148680000Y-82240000D02*
X148680000Y-83345100D01*
X144300000Y-133540000D02*
X144300000Y-132371300D01*
X116080000Y-94000000D02*
X116080000Y-92894900D01*
X111380000Y-82240000D02*
X112485100Y-82240000D01*
X112485100Y-82474200D02*
X112485100Y-82240000D01*
X115209700Y-85198800D02*
X112485100Y-82474200D01*
X115550700Y-85198800D02*
X115209700Y-85198800D01*
X117360100Y-87008200D02*
X115550700Y-85198800D01*
X117360100Y-91614800D02*
X117360100Y-87008200D01*
X116080000Y-92894900D02*
X117360100Y-91614800D01*
X149766200Y-84431300D02*
X148680000Y-83345100D01*
X149766200Y-115733600D02*
X149766200Y-84431300D01*
X145743000Y-119756800D02*
X149766200Y-115733600D01*
X145743000Y-126257100D02*
X145743000Y-119756800D01*
X143086400Y-128913700D02*
X145743000Y-126257100D01*
X143086400Y-131520900D02*
X143086400Y-128913700D01*
X143936800Y-132371300D02*
X143086400Y-131520900D01*
X144300000Y-132371300D02*
X143936800Y-132371300D01*
G04 #@! TO.N,~IORD*
X98300000Y-122620000D02*
X99405100Y-122620000D01*
X141760000Y-131000000D02*
X141760000Y-132168700D01*
X142123200Y-132168700D02*
X141760000Y-132168700D01*
X142942400Y-132987900D02*
X142123200Y-132168700D01*
X142942400Y-134051600D02*
X142942400Y-132987900D01*
X139803000Y-137191000D02*
X142942400Y-134051600D01*
X113838000Y-137191000D02*
X139803000Y-137191000D01*
X99405100Y-122758100D02*
X113838000Y-137191000D01*
X99405100Y-122620000D02*
X99405100Y-122758100D01*
G04 #@! TO.N,~MEMRD*
X108460000Y-115000000D02*
X108460000Y-116105100D01*
X141760000Y-133540000D02*
X140591300Y-133540000D01*
X112110900Y-119756000D02*
X108460000Y-116105100D01*
X112110900Y-133483800D02*
X112110900Y-119756000D01*
X114572900Y-135945800D02*
X112110900Y-133483800D01*
X133460000Y-135945800D02*
X114572900Y-135945800D01*
X135435700Y-133970100D02*
X133460000Y-135945800D01*
X135435700Y-133070700D02*
X135435700Y-133970100D01*
X136160000Y-132346400D02*
X135435700Y-133070700D01*
X139760900Y-132346400D02*
X136160000Y-132346400D01*
X140591300Y-133176800D02*
X139760900Y-132346400D01*
X140591300Y-133540000D02*
X140591300Y-133176800D01*
X119080000Y-65399600D02*
X119080000Y-62000000D01*
X120172400Y-66492000D02*
X119080000Y-65399600D01*
X120172400Y-79962500D02*
X120172400Y-66492000D01*
X119000000Y-81134900D02*
X120172400Y-79962500D01*
X119000000Y-82240000D02*
X119000000Y-81134900D01*
G04 #@! TO.N,~IOWR*
X105920000Y-122620000D02*
X105920000Y-123725100D01*
X105920100Y-123725100D02*
X105920000Y-123725100D01*
X105920100Y-127898900D02*
X105920100Y-123725100D01*
X114373800Y-136352600D02*
X105920100Y-127898900D01*
X134113600Y-136352600D02*
X114373800Y-136352600D01*
X135618700Y-134847500D02*
X134113600Y-136352600D01*
G04 #@! TO.N,~MEMWR*
X138051300Y-133903200D02*
X138051300Y-133540000D01*
X135179800Y-136774700D02*
X138051300Y-133903200D01*
X114131700Y-136774700D02*
X135179800Y-136774700D01*
X104650000Y-127293000D02*
X114131700Y-136774700D01*
X104650000Y-119915100D02*
X104650000Y-127293000D01*
X100840000Y-116105100D02*
X104650000Y-119915100D01*
X100840000Y-115000000D02*
X100840000Y-116105100D01*
X139220000Y-133540000D02*
X138051300Y-133540000D01*
G04 #@! TO.N,A0*
X110348000Y-48977100D02*
X111460000Y-47865100D01*
X110348000Y-64862900D02*
X110348000Y-48977100D01*
X111380000Y-65894900D02*
X110348000Y-64862900D01*
X111380000Y-67000000D02*
X111380000Y-65894900D01*
X111460000Y-46760000D02*
X111460000Y-47865100D01*
X131600000Y-131000000D02*
X132768700Y-131000000D01*
X146140000Y-67000000D02*
X147245100Y-67000000D01*
X132768700Y-130706100D02*
X132768700Y-131000000D01*
X137876000Y-125598800D02*
X132768700Y-130706100D01*
X139110000Y-125598800D02*
X137876000Y-125598800D01*
X144450700Y-120258100D02*
X139110000Y-125598800D01*
X144450700Y-119682900D02*
X144450700Y-120258100D01*
X148948900Y-115184700D02*
X144450700Y-119682900D01*
X148948900Y-108264200D02*
X148948900Y-115184700D01*
X144994300Y-104309600D02*
X148948900Y-108264200D01*
X144994300Y-103812400D02*
X144994300Y-104309600D01*
X144994300Y-97234400D02*
X144994300Y-103812400D01*
X146359700Y-95869000D02*
X144994300Y-97234400D01*
X146773100Y-95869000D02*
X146359700Y-95869000D01*
X147665100Y-94977000D02*
X146773100Y-95869000D01*
X147665100Y-90492300D02*
X147665100Y-94977000D01*
X142469400Y-85296600D02*
X147665100Y-90492300D01*
X142469400Y-78977200D02*
X142469400Y-85296600D01*
X149788000Y-71658600D02*
X142469400Y-78977200D01*
X149788000Y-66488500D02*
X149788000Y-71658600D01*
X149137500Y-65838000D02*
X149788000Y-66488500D01*
X148178100Y-65838000D02*
X149137500Y-65838000D01*
X147245100Y-66771000D02*
X148178100Y-65838000D01*
X147245100Y-67000000D02*
X147245100Y-66771000D01*
G04 #@! TO.N,A1*
X112888000Y-48977100D02*
X114000000Y-47865100D01*
X112888000Y-64862900D02*
X112888000Y-48977100D01*
X113920000Y-65894900D02*
X112888000Y-64862900D01*
X113920000Y-67000000D02*
X113920000Y-65894900D01*
X114000000Y-46760000D02*
X114000000Y-47865100D01*
X113920000Y-77572300D02*
X113920000Y-67000000D01*
X110233700Y-81258600D02*
X113920000Y-77572300D01*
X110233700Y-82671100D02*
X110233700Y-81258600D01*
X113312000Y-85749400D02*
X110233700Y-82671100D01*
X115526100Y-85749400D02*
X113312000Y-85749400D01*
X116953400Y-87176700D02*
X115526100Y-85749400D01*
X116953400Y-91446300D02*
X116953400Y-87176700D01*
X114974000Y-93425700D02*
X116953400Y-91446300D01*
X114974000Y-94533300D02*
X114974000Y-93425700D01*
X117943900Y-97503200D02*
X114974000Y-94533300D01*
X121214300Y-97503200D02*
X117943900Y-97503200D01*
X123858800Y-100147700D02*
X121214300Y-97503200D01*
X123858800Y-107976100D02*
X123858800Y-100147700D01*
X123700000Y-108134900D02*
X123858800Y-107976100D01*
X123700000Y-109240000D02*
X123700000Y-108134900D01*
G04 #@! TO.N,A2*
X126240000Y-109240000D02*
X126240000Y-108134900D01*
X116540000Y-46760000D02*
X116540000Y-47865100D01*
X115412100Y-48993000D02*
X116540000Y-47865100D01*
X115412100Y-64847000D02*
X115412100Y-48993000D01*
X116460000Y-65894900D02*
X115412100Y-64847000D01*
X116460000Y-67000000D02*
X116460000Y-65894900D01*
X116460000Y-67000000D02*
X116460000Y-68105100D01*
X126239900Y-108134900D02*
X126240000Y-108134900D01*
X126239900Y-101953700D02*
X126239900Y-108134900D01*
X119408600Y-95122400D02*
X126239900Y-101953700D01*
X118172100Y-95122400D02*
X119408600Y-95122400D01*
X117488000Y-94438300D02*
X118172100Y-95122400D01*
X117488000Y-92637300D02*
X117488000Y-94438300D01*
X117766800Y-92358500D02*
X117488000Y-92637300D01*
X117766800Y-86839800D02*
X117766800Y-92358500D01*
X115345000Y-84418000D02*
X117766800Y-86839800D01*
X115345000Y-69220100D02*
X115345000Y-84418000D01*
X116460000Y-68105100D02*
X115345000Y-69220100D01*
G04 #@! TO.N,A3*
X119080000Y-46760000D02*
X119080000Y-47865100D01*
X117969300Y-48975800D02*
X119080000Y-47865100D01*
X117969300Y-64864200D02*
X117969300Y-48975800D01*
X119000000Y-65894900D02*
X117969300Y-64864200D01*
X119000000Y-67000000D02*
X119000000Y-65894900D01*
X119000000Y-80559600D02*
X119000000Y-67000000D01*
X117879600Y-81680000D02*
X119000000Y-80559600D01*
X117879600Y-84733500D02*
X117879600Y-81680000D01*
X118574800Y-85428700D02*
X117879600Y-84733500D01*
X118574800Y-91779000D02*
X118574800Y-85428700D01*
X120033900Y-93238100D02*
X118574800Y-91779000D01*
X120033900Y-95008100D02*
X120033900Y-93238100D01*
X128780000Y-103754200D02*
X120033900Y-95008100D01*
X128780000Y-109240000D02*
X128780000Y-103754200D01*
G04 #@! TO.N,A4*
X120498700Y-48986400D02*
X121620000Y-47865100D01*
X120498700Y-64853600D02*
X120498700Y-48986400D01*
X121540000Y-65894900D02*
X120498700Y-64853600D01*
X121620000Y-46760000D02*
X121620000Y-47865100D01*
X121540000Y-67000000D02*
X121540000Y-65894900D01*
X123933700Y-127245000D02*
X126520000Y-129831300D01*
X123933700Y-126350400D02*
X123933700Y-127245000D01*
X127350000Y-122934100D02*
X123933700Y-126350400D01*
X127350000Y-120144200D02*
X127350000Y-122934100D01*
X128279600Y-119214600D02*
X127350000Y-120144200D01*
X126520000Y-131000000D02*
X126520000Y-129831300D01*
X131320000Y-109240000D02*
X131320000Y-108134900D01*
X121540000Y-80559600D02*
X121540000Y-67000000D01*
X120429000Y-81670600D02*
X121540000Y-80559600D01*
X120429000Y-84857200D02*
X120429000Y-81670600D01*
X121114800Y-85543000D02*
X120429000Y-84857200D01*
X121114800Y-90324300D02*
X121114800Y-85543000D01*
X122326300Y-91535800D02*
X121114800Y-90324300D01*
X122326300Y-94903600D02*
X122326300Y-91535800D01*
X131443600Y-104020900D02*
X122326300Y-94903600D01*
X131443600Y-108011300D02*
X131443600Y-104020900D01*
X131320000Y-108134900D02*
X131443600Y-108011300D01*
G04 #@! TO.N,A5*
X125351300Y-133903200D02*
X125351300Y-133540000D01*
X124533800Y-134720700D02*
X125351300Y-133903200D01*
X120930800Y-134720700D02*
X124533800Y-134720700D01*
X120218500Y-134008400D02*
X120930800Y-134720700D01*
X120218500Y-125691600D02*
X120218500Y-134008400D01*
X122184900Y-123725200D02*
X120218500Y-125691600D01*
X122184900Y-122404600D02*
X122184900Y-123725200D01*
X123461100Y-121128400D02*
X122184900Y-122404600D01*
X124063400Y-121128400D02*
X123461100Y-121128400D01*
X129842100Y-115349700D02*
X124063400Y-121128400D01*
X129842100Y-114363000D02*
X129842100Y-115349700D01*
X133860000Y-110345100D02*
X129842100Y-114363000D01*
X126520000Y-133540000D02*
X125351300Y-133540000D01*
X133860000Y-109792500D02*
X133860000Y-110345100D01*
X133860000Y-109792500D02*
X133860000Y-109240000D01*
X133860000Y-104725900D02*
X133860000Y-109240000D01*
X124970000Y-95835900D02*
X133860000Y-104725900D01*
X124970000Y-91331500D02*
X124970000Y-95835900D01*
X123632100Y-89993600D02*
X124970000Y-91331500D01*
X123632100Y-85767000D02*
X123632100Y-89993600D01*
X122966100Y-85101000D02*
X123632100Y-85767000D01*
X122966100Y-79085000D02*
X122966100Y-85101000D01*
X124080000Y-77971100D02*
X122966100Y-79085000D01*
X124080000Y-67000000D02*
X124080000Y-77971100D01*
G04 #@! TO.N,A6*
X126620000Y-80559600D02*
X126620000Y-67000000D01*
X125501500Y-81678100D02*
X126620000Y-80559600D01*
X125501500Y-83755300D02*
X125501500Y-81678100D01*
X126121700Y-84375500D02*
X125501500Y-83755300D01*
X126121700Y-89943200D02*
X126121700Y-84375500D01*
X127510000Y-91331500D02*
X126121700Y-89943200D01*
X127510000Y-97163300D02*
X127510000Y-91331500D01*
X136400000Y-106053300D02*
X127510000Y-97163300D01*
X136400000Y-109240000D02*
X136400000Y-106053300D01*
G04 #@! TO.N,A7*
X129160000Y-80559600D02*
X129160000Y-67000000D01*
X128039000Y-81680600D02*
X129160000Y-80559600D01*
X128039000Y-82699200D02*
X128039000Y-81680600D01*
X130327900Y-84988100D02*
X128039000Y-82699200D01*
X130996900Y-84988100D02*
X130327900Y-84988100D01*
X133492900Y-87484100D02*
X130996900Y-84988100D01*
X133492900Y-91991900D02*
X133492900Y-87484100D01*
X132739800Y-92745000D02*
X133492900Y-91991900D01*
X132739800Y-98867700D02*
X132739800Y-92745000D01*
X138940000Y-105067900D02*
X132739800Y-98867700D01*
X138940000Y-109240000D02*
X138940000Y-105067900D01*
G04 #@! TO.N,A8*
X126620000Y-82240000D02*
X126620000Y-81134900D01*
X126700000Y-62000000D02*
X126700000Y-63105100D01*
X135103800Y-118465000D02*
X135629900Y-118991100D01*
X127969100Y-118465000D02*
X135103800Y-118465000D01*
X124810000Y-121624100D02*
X127969100Y-118465000D01*
X124810000Y-122979300D02*
X124810000Y-121624100D01*
X121440000Y-126349300D02*
X124810000Y-122979300D01*
X121440000Y-131000000D02*
X121440000Y-126349300D01*
X127729800Y-80025100D02*
X126620000Y-81134900D01*
X127729800Y-64134900D02*
X127729800Y-80025100D01*
X126700000Y-63105100D02*
X127729800Y-64134900D01*
X141480000Y-109240000D02*
X140374900Y-109240000D01*
X126620000Y-82240000D02*
X126620000Y-83345100D01*
X126849000Y-83345100D02*
X126620000Y-83345100D01*
X130948000Y-87444100D02*
X126849000Y-83345100D01*
X130948000Y-92081900D02*
X130948000Y-87444100D01*
X130196000Y-92833900D02*
X130948000Y-92081900D01*
X130196000Y-98229800D02*
X130196000Y-92833900D01*
X137670000Y-105703800D02*
X130196000Y-98229800D01*
X137670000Y-109584400D02*
X137670000Y-105703800D01*
X138452000Y-110366400D02*
X137670000Y-109584400D01*
X139386600Y-110366400D02*
X138452000Y-110366400D01*
X140374900Y-109378100D02*
X139386600Y-110366400D01*
X140374900Y-109240000D02*
X140374900Y-109378100D01*
G04 #@! TO.N,A9*
X121440000Y-133540000D02*
X122608700Y-133540000D01*
X124080000Y-82240000D02*
X124080000Y-81134900D01*
X124160000Y-62000000D02*
X124160000Y-63105100D01*
X144020000Y-109240000D02*
X144020000Y-108404100D01*
X122608700Y-133176800D02*
X122608700Y-133540000D01*
X123515500Y-132270000D02*
X122608700Y-133176800D01*
X126921000Y-132270000D02*
X123515500Y-132270000D01*
X127787200Y-131403800D02*
X126921000Y-132270000D01*
X127787200Y-130128700D02*
X127787200Y-131403800D01*
X134970000Y-122945900D02*
X127787200Y-130128700D01*
X134970000Y-122298800D02*
X134970000Y-122945900D01*
X136071400Y-121197400D02*
X134970000Y-122298800D01*
X140393200Y-121197400D02*
X136071400Y-121197400D01*
X145173200Y-116417400D02*
X140393200Y-121197400D01*
X145173200Y-112930400D02*
X145173200Y-116417400D01*
X148121600Y-109982000D02*
X145173200Y-112930400D01*
X148121600Y-108641000D02*
X148121600Y-109982000D01*
X147171800Y-107691200D02*
X148121600Y-108641000D01*
X144020000Y-107691200D02*
X147171800Y-107691200D01*
X144020000Y-108404100D02*
X144020000Y-107691200D01*
X130298300Y-83464400D02*
X130298300Y-83464300D01*
X131984000Y-83464400D02*
X130298300Y-83464400D01*
X136190000Y-87670400D02*
X131984000Y-83464400D01*
X136190000Y-89851500D02*
X136190000Y-87670400D01*
X137670000Y-91331500D02*
X136190000Y-89851500D01*
X137670000Y-101341200D02*
X137670000Y-91331500D01*
X144020000Y-107691200D02*
X137670000Y-101341200D01*
X125193200Y-80021700D02*
X124080000Y-81134900D01*
X125193200Y-64138300D02*
X125193200Y-80021700D01*
X124160000Y-63105100D02*
X125193200Y-64138300D01*
G04 #@! TO.N,A10*
X116460000Y-82240000D02*
X116460000Y-81134900D01*
X146560000Y-109240000D02*
X146560000Y-110345100D01*
X140872200Y-116032900D02*
X146560000Y-110345100D01*
X140872200Y-117970800D02*
X140872200Y-116032900D01*
X139964000Y-118879000D02*
X140872200Y-117970800D01*
X137717400Y-118879000D02*
X139964000Y-118879000D01*
X136704000Y-119892400D02*
X137717400Y-118879000D01*
X132222700Y-119892400D02*
X136704000Y-119892400D01*
X129890000Y-122225100D02*
X132222700Y-119892400D01*
X129890000Y-122975200D02*
X129890000Y-122225100D01*
X126110200Y-126755000D02*
X129890000Y-122975200D01*
X124687100Y-126755000D02*
X126110200Y-126755000D01*
X117570700Y-80024200D02*
X116460000Y-81134900D01*
X117570700Y-66430300D02*
X117570700Y-80024200D01*
X116540000Y-65399600D02*
X117570700Y-66430300D01*
X116540000Y-62000000D02*
X116540000Y-65399600D01*
X144870000Y-83213600D02*
X144870000Y-78150800D01*
X148478500Y-86822100D02*
X144870000Y-83213600D01*
X148478500Y-106458100D02*
X148478500Y-86822100D01*
G04 #@! TO.N,A11*
X121540000Y-82240000D02*
X121540000Y-81134900D01*
X121620000Y-62000000D02*
X121620000Y-63105100D01*
X146560000Y-90357200D02*
X138530300Y-82327500D01*
X146560000Y-94000000D02*
X146560000Y-90357200D01*
X122072900Y-80602000D02*
X121540000Y-81134900D01*
X122072900Y-79115500D02*
X122072900Y-80602000D01*
X122661100Y-78527300D02*
X122072900Y-79115500D01*
X122661100Y-64146200D02*
X122661100Y-78527300D01*
X121620000Y-63105100D02*
X122661100Y-64146200D01*
G04 #@! TO.N,A12*
X131700000Y-67000000D02*
X132805100Y-67000000D01*
X132805100Y-66380200D02*
X132805100Y-67000000D01*
X133345200Y-65840100D02*
X132805100Y-66380200D01*
X133050000Y-49135100D02*
X131780000Y-47865100D01*
X133050000Y-65544900D02*
X133050000Y-49135100D01*
X133345200Y-65840100D02*
X133050000Y-65544900D01*
X131780000Y-46760000D02*
X131780000Y-47865100D01*
X144020000Y-94000000D02*
X144020000Y-92894900D01*
X144020000Y-89877700D02*
X144020000Y-92894900D01*
X137760700Y-83618400D02*
X144020000Y-89877700D01*
X136535700Y-83618400D02*
X137760700Y-83618400D01*
X135847400Y-82930100D02*
X136535700Y-83618400D01*
X135847400Y-66539400D02*
X135847400Y-82930100D01*
X135148100Y-65840100D02*
X135847400Y-66539400D01*
X133345200Y-65840100D02*
X135148100Y-65840100D01*
X130050000Y-105751600D02*
X130694000Y-105107600D01*
X130050000Y-109589300D02*
X130050000Y-105751600D01*
X127185200Y-112454100D02*
X130050000Y-109589300D01*
X127185200Y-115483600D02*
X127185200Y-112454100D01*
X126398800Y-116270000D02*
X127185200Y-115483600D01*
X125765400Y-116270000D02*
X126398800Y-116270000D01*
X116360000Y-125675400D02*
X125765400Y-116270000D01*
X116360000Y-131000000D02*
X116360000Y-125675400D01*
G04 #@! TO.N,A13*
X116360000Y-133540000D02*
X117528700Y-133540000D01*
X130271700Y-64136800D02*
X129240000Y-63105100D01*
X130271700Y-80023200D02*
X130271700Y-64136800D01*
X129160000Y-81134900D02*
X130271700Y-80023200D01*
X129160000Y-82240000D02*
X129160000Y-81134900D01*
X129240000Y-62000000D02*
X129240000Y-63105100D01*
X141480000Y-94552500D02*
X141480000Y-95105100D01*
X141480000Y-94552500D02*
X141480000Y-94000000D01*
X137935200Y-84368000D02*
X137444900Y-84368000D01*
X141480000Y-87912800D02*
X137935200Y-84368000D01*
X141480000Y-94000000D02*
X141480000Y-87912800D01*
X117528700Y-133832200D02*
X117528700Y-133540000D01*
X118824300Y-135127800D02*
X117528700Y-133832200D01*
X126587100Y-135127800D02*
X118824300Y-135127800D01*
X127790000Y-133924900D02*
X126587100Y-135127800D01*
X127790000Y-133117300D02*
X127790000Y-133924900D01*
X128536100Y-132371200D02*
X127790000Y-133117300D01*
X129450500Y-132371200D02*
X128536100Y-132371200D01*
X130330000Y-131491700D02*
X129450500Y-132371200D01*
X130330000Y-130612100D02*
X130330000Y-131491700D01*
X135893900Y-125048200D02*
X130330000Y-130612100D01*
X139085400Y-125048200D02*
X135893900Y-125048200D01*
X144044000Y-120089600D02*
X139085400Y-125048200D01*
X144044000Y-119514400D02*
X144044000Y-120089600D01*
X145960100Y-117598300D02*
X144044000Y-119514400D01*
X145960100Y-113314300D02*
X145960100Y-117598300D01*
X148542100Y-110732300D02*
X145960100Y-113314300D01*
X148542100Y-108432700D02*
X148542100Y-110732300D01*
X141480000Y-101370600D02*
X148542100Y-108432700D01*
X141480000Y-95105100D02*
X141480000Y-101370600D01*
G04 #@! TO.N,A14*
X138940000Y-94000000D02*
X138940000Y-92894900D01*
X134240000Y-67000000D02*
X134240000Y-68105100D01*
X138589700Y-92544600D02*
X138940000Y-92894900D01*
X138589700Y-86706600D02*
X138589700Y-92544600D01*
X135345100Y-83462000D02*
X138589700Y-86706600D01*
X135345100Y-69210200D02*
X135345100Y-83462000D01*
X134240000Y-68105100D02*
X135345100Y-69210200D01*
X113820000Y-124487100D02*
X113820000Y-131000000D01*
X115894800Y-122412300D02*
X113820000Y-124487100D01*
X115894800Y-117607500D02*
X115894800Y-122412300D01*
X119890000Y-113612300D02*
X115894800Y-117607500D01*
X119890000Y-105400300D02*
X119890000Y-113612300D01*
X120906700Y-104383600D02*
X119890000Y-105400300D01*
G04 #@! TO.N,A15*
X114112300Y-132371300D02*
X113820000Y-132371300D01*
X114988700Y-131494900D02*
X114112300Y-132371300D01*
X114988700Y-126091300D02*
X114988700Y-131494900D01*
X126080000Y-115000000D02*
X114988700Y-126091300D01*
X113820000Y-133540000D02*
X113820000Y-132371300D01*
X126080000Y-115000000D02*
X126080000Y-113894900D01*
X123054700Y-99922200D02*
X123054700Y-100804600D01*
X121468900Y-98336400D02*
X123054700Y-99922200D01*
X116285200Y-98336400D02*
X121468900Y-98336400D01*
X112406300Y-94457500D02*
X116285200Y-98336400D01*
X112406300Y-93147900D02*
X112406300Y-94457500D01*
X116138800Y-89415400D02*
X112406300Y-93147900D01*
X116138800Y-87538300D02*
X116138800Y-89415400D01*
X115474700Y-86874200D02*
X116138800Y-87538300D01*
X114090400Y-86874200D02*
X115474700Y-86874200D01*
X113538500Y-87426100D02*
X114090400Y-86874200D01*
X122586200Y-110401100D02*
X126080000Y-113894900D01*
X122586200Y-101273100D02*
X122586200Y-110401100D01*
X123054700Y-100804600D02*
X122586200Y-101273100D01*
D29*
G04 #@! TO.N,Net-(J4-Pad1)*
X174244000Y-122271000D02*
X174244000Y-129598900D01*
X183515000Y-113000000D02*
X174244000Y-122271000D01*
D30*
G04 #@! TO.N,~INT*
X109565100Y-93434900D02*
X115000000Y-88000000D01*
X109565100Y-94000000D02*
X109565100Y-93434900D01*
X108460000Y-94000000D02*
X109565100Y-94000000D01*
G04 #@! TO.N,Net-(R2-Pad2)*
X136240000Y-115000000D02*
X137345100Y-115000000D01*
X144000000Y-113528400D02*
X144000000Y-114840000D01*
X147714900Y-109813500D02*
X144000000Y-113528400D01*
X147714900Y-108809500D02*
X147714900Y-109813500D01*
X147040300Y-108134900D02*
X147714900Y-108809500D01*
X146079900Y-108134900D02*
X147040300Y-108134900D01*
X145290000Y-108924800D02*
X146079900Y-108134900D01*
X145290000Y-109583400D02*
X145290000Y-108924800D01*
X139873400Y-115000000D02*
X145290000Y-109583400D01*
X137345100Y-115000000D02*
X139873400Y-115000000D01*
G04 #@! TO.N,~MREQ*
X100840000Y-94000000D02*
X100840000Y-95105100D01*
X105920000Y-115000000D02*
X105920000Y-113894900D01*
X104751700Y-112726600D02*
X105920000Y-113894900D01*
X104751700Y-99016800D02*
X104751700Y-112726600D01*
X100840000Y-95105100D02*
X104751700Y-99016800D01*
X108928100Y-113894900D02*
X105920000Y-113894900D01*
X109894900Y-114861700D02*
X108928100Y-113894900D01*
X109894900Y-115000000D02*
X109894900Y-114861700D01*
X111000000Y-115000000D02*
X109894900Y-115000000D01*
G04 #@! TO.N,~IOREQ*
X99405100Y-117540000D02*
X103380000Y-121514900D01*
X99405100Y-96210200D02*
X99405100Y-117540000D01*
X98300000Y-95105100D02*
X99405100Y-96210200D01*
X98300000Y-94000000D02*
X98300000Y-95105100D01*
X103380000Y-122620000D02*
X103380000Y-121514900D01*
G04 #@! TO.N,~RD*
X98300000Y-109240000D02*
X98300000Y-110345100D01*
X100840000Y-122620000D02*
X100840000Y-121514900D01*
X98300000Y-113323600D02*
X98300000Y-110345100D01*
X97194200Y-114429400D02*
X98300000Y-113323600D01*
X97194200Y-117869100D02*
X97194200Y-114429400D01*
X100840000Y-121514900D02*
X97194200Y-117869100D01*
G04 #@! TO.N,~WR*
X104485100Y-115229000D02*
X104485100Y-115000000D01*
X110771000Y-121514900D02*
X104485100Y-115229000D01*
X111000000Y-121514900D02*
X110771000Y-121514900D01*
X111000000Y-122620000D02*
X111000000Y-121514900D01*
X103380000Y-115000000D02*
X104485100Y-115000000D01*
X100840000Y-111354900D02*
X103380000Y-113894900D01*
X100840000Y-109240000D02*
X100840000Y-111354900D01*
X103380000Y-115000000D02*
X103380000Y-113894900D01*
X148071800Y-95284100D02*
X145759700Y-97596200D01*
X148071800Y-87816900D02*
X148071800Y-95284100D01*
X143600000Y-83345100D02*
X148071800Y-87816900D01*
X143600000Y-82240000D02*
X143600000Y-83345100D01*
G04 #@! TO.N,Net-(U3-Pad8)*
X146140000Y-82240000D02*
X146140000Y-83345100D01*
X121000000Y-122620000D02*
X121000000Y-123725100D01*
X117630000Y-127095100D02*
X121000000Y-123725100D01*
X117630000Y-131422700D02*
X117630000Y-127095100D01*
X116883900Y-132168800D02*
X117630000Y-131422700D01*
X116038500Y-132168800D02*
X116883900Y-132168800D01*
X115191200Y-133016100D02*
X116038500Y-132168800D01*
X115191200Y-134081200D02*
X115191200Y-133016100D01*
X116646300Y-135536300D02*
X115191200Y-134081200D01*
X131307900Y-135536300D02*
X116646300Y-135536300D01*
X132870000Y-133974200D02*
X131307900Y-135536300D01*
X132870000Y-133117300D02*
X132870000Y-133974200D01*
X133616100Y-132371200D02*
X132870000Y-133117300D01*
X134507300Y-132371200D02*
X133616100Y-132371200D01*
X135403000Y-131475500D02*
X134507300Y-132371200D01*
X135403000Y-130346400D02*
X135403000Y-131475500D01*
X145001300Y-120748100D02*
X135403000Y-130346400D01*
X145001300Y-119923100D02*
X145001300Y-120748100D01*
X149359500Y-115564900D02*
X145001300Y-119923100D01*
X149359500Y-86564600D02*
X149359500Y-115564900D01*
X146140000Y-83345100D02*
X149359500Y-86564600D01*
G04 #@! TD*
D31*
G04 #@! TO.N,GND*
G36*
X187198000Y-140843000D02*
X89027000Y-140843000D01*
X89027000Y-136515431D01*
X91225000Y-136515431D01*
X91225000Y-137404569D01*
X91565259Y-138226026D01*
X92193974Y-138854741D01*
X93015431Y-139195000D01*
X93904569Y-139195000D01*
X94726026Y-138854741D01*
X95354741Y-138226026D01*
X95695000Y-137404569D01*
X95695000Y-136515431D01*
X95354741Y-135693974D01*
X94726026Y-135065259D01*
X93904569Y-134725000D01*
X93015431Y-134725000D01*
X92193974Y-135065259D01*
X91565259Y-135693974D01*
X91225000Y-136515431D01*
X89027000Y-136515431D01*
X89027000Y-114429400D01*
X96443171Y-114429400D01*
X96457601Y-114501945D01*
X96457600Y-117796560D01*
X96443171Y-117869100D01*
X96457600Y-117941640D01*
X96457600Y-117941643D01*
X96500339Y-118156506D01*
X96663142Y-118400158D01*
X96724642Y-118441251D01*
X99843423Y-121560032D01*
X99805423Y-121585423D01*
X99591225Y-121905993D01*
X99542268Y-121896255D01*
X99334577Y-121585423D01*
X98859909Y-121268260D01*
X98441333Y-121185000D01*
X98158667Y-121185000D01*
X97740091Y-121268260D01*
X97265423Y-121585423D01*
X96948260Y-122060091D01*
X96836887Y-122620000D01*
X96948260Y-123179909D01*
X97265423Y-123654577D01*
X97740091Y-123971740D01*
X98158667Y-124055000D01*
X98441333Y-124055000D01*
X98859909Y-123971740D01*
X99289792Y-123684501D01*
X113265851Y-137660561D01*
X113306942Y-137722058D01*
X113368439Y-137763149D01*
X113368441Y-137763151D01*
X113460481Y-137824650D01*
X113550593Y-137884861D01*
X113765456Y-137927600D01*
X113765459Y-137927600D01*
X113838000Y-137942029D01*
X113910540Y-137927600D01*
X139730460Y-137927600D01*
X139803000Y-137942029D01*
X139875540Y-137927600D01*
X139875544Y-137927600D01*
X140090407Y-137884861D01*
X140334058Y-137722058D01*
X140375151Y-137660558D01*
X142151619Y-135884090D01*
X171858940Y-135884090D01*
X171858940Y-137474709D01*
X171955613Y-137708098D01*
X172134241Y-137886727D01*
X172367630Y-137983400D01*
X173958250Y-137983400D01*
X174117000Y-137824650D01*
X174117000Y-135725340D01*
X174371000Y-135725340D01*
X174371000Y-137824650D01*
X174529750Y-137983400D01*
X176120370Y-137983400D01*
X176353759Y-137886727D01*
X176532387Y-137708098D01*
X176629060Y-137474709D01*
X176629060Y-136515431D01*
X180215000Y-136515431D01*
X180215000Y-137404569D01*
X180555259Y-138226026D01*
X181183974Y-138854741D01*
X182005431Y-139195000D01*
X182894569Y-139195000D01*
X183716026Y-138854741D01*
X184344741Y-138226026D01*
X184685000Y-137404569D01*
X184685000Y-136515431D01*
X184344741Y-135693974D01*
X183716026Y-135065259D01*
X182894569Y-134725000D01*
X182005431Y-134725000D01*
X181183974Y-135065259D01*
X180555259Y-135693974D01*
X180215000Y-136515431D01*
X176629060Y-136515431D01*
X176629060Y-135884090D01*
X176470310Y-135725340D01*
X174371000Y-135725340D01*
X174117000Y-135725340D01*
X172017690Y-135725340D01*
X171858940Y-135884090D01*
X142151619Y-135884090D01*
X143336889Y-134698820D01*
X143715275Y-134951650D01*
X144152402Y-135038600D01*
X144447598Y-135038600D01*
X144884725Y-134951650D01*
X145380430Y-134620430D01*
X145570000Y-134336719D01*
X145759570Y-134620430D01*
X146255275Y-134951650D01*
X146692402Y-135038600D01*
X146987598Y-135038600D01*
X147424725Y-134951650D01*
X147920430Y-134620430D01*
X148110000Y-134336719D01*
X148299570Y-134620430D01*
X148795275Y-134951650D01*
X149232402Y-135038600D01*
X149527598Y-135038600D01*
X149964725Y-134951650D01*
X150460430Y-134620430D01*
X150650000Y-134336719D01*
X150839570Y-134620430D01*
X151335275Y-134951650D01*
X151772402Y-135038600D01*
X152067598Y-135038600D01*
X152504725Y-134951650D01*
X153000430Y-134620430D01*
X153190000Y-134336719D01*
X153379570Y-134620430D01*
X153875275Y-134951650D01*
X154312402Y-135038600D01*
X154607598Y-135038600D01*
X155044725Y-134951650D01*
X155540430Y-134620430D01*
X155730000Y-134336719D01*
X155919570Y-134620430D01*
X156415275Y-134951650D01*
X156852402Y-135038600D01*
X157147598Y-135038600D01*
X157584725Y-134951650D01*
X158080430Y-134620430D01*
X158281854Y-134318979D01*
X158333179Y-134428490D01*
X158765053Y-134822688D01*
X159180974Y-134994958D01*
X159413000Y-134873817D01*
X159413000Y-133667000D01*
X159667000Y-133667000D01*
X159667000Y-134873817D01*
X159899026Y-134994958D01*
X160314947Y-134822688D01*
X160746821Y-134428490D01*
X160810000Y-134293687D01*
X160873179Y-134428490D01*
X161305053Y-134822688D01*
X161720974Y-134994958D01*
X161953000Y-134873817D01*
X161953000Y-133667000D01*
X162207000Y-133667000D01*
X162207000Y-134873817D01*
X162439026Y-134994958D01*
X162854947Y-134822688D01*
X163286821Y-134428490D01*
X163534968Y-133899027D01*
X163443018Y-133721971D01*
X171858940Y-133721971D01*
X171858940Y-135312590D01*
X172017690Y-135471340D01*
X174117000Y-135471340D01*
X174117000Y-133372030D01*
X173958250Y-133213280D01*
X172367630Y-133213280D01*
X172134241Y-133309953D01*
X171955613Y-133488582D01*
X171858940Y-133721971D01*
X163443018Y-133721971D01*
X163414469Y-133667000D01*
X162207000Y-133667000D01*
X161953000Y-133667000D01*
X159667000Y-133667000D01*
X159413000Y-133667000D01*
X159393000Y-133667000D01*
X159393000Y-133413000D01*
X159413000Y-133413000D01*
X159413000Y-133393000D01*
X159667000Y-133393000D01*
X159667000Y-133413000D01*
X161953000Y-133413000D01*
X161953000Y-133393000D01*
X162207000Y-133393000D01*
X162207000Y-133413000D01*
X163414469Y-133413000D01*
X163534968Y-133180973D01*
X163286821Y-132651510D01*
X163099050Y-132480119D01*
X163191365Y-132461757D01*
X163401409Y-132321409D01*
X163541757Y-132111365D01*
X163591040Y-131863600D01*
X163591040Y-130136400D01*
X163541757Y-129888635D01*
X163401409Y-129678591D01*
X163191365Y-129538243D01*
X162943600Y-129488960D01*
X161216400Y-129488960D01*
X160968635Y-129538243D01*
X160758591Y-129678591D01*
X160618243Y-129888635D01*
X160613068Y-129914651D01*
X160253988Y-129674721D01*
X162642959Y-127285750D01*
X164465000Y-127285750D01*
X164465000Y-128026309D01*
X164561673Y-128259698D01*
X164740301Y-128438327D01*
X164973690Y-128535000D01*
X165714250Y-128535000D01*
X165873000Y-128376250D01*
X165873000Y-127127000D01*
X166127000Y-127127000D01*
X166127000Y-128376250D01*
X166285750Y-128535000D01*
X167026310Y-128535000D01*
X167259699Y-128438327D01*
X167438327Y-128259698D01*
X167535000Y-128026309D01*
X167535000Y-127598860D01*
X171596560Y-127598860D01*
X171596560Y-131598860D01*
X171645843Y-131846625D01*
X171786191Y-132056669D01*
X171996235Y-132197017D01*
X172244000Y-132246300D01*
X176244000Y-132246300D01*
X176491765Y-132197017D01*
X176545500Y-132161112D01*
X176545500Y-133520240D01*
X176532387Y-133488582D01*
X176353759Y-133309953D01*
X176120370Y-133213280D01*
X174529750Y-133213280D01*
X174371000Y-133372030D01*
X174371000Y-135471340D01*
X176470310Y-135471340D01*
X176629060Y-135312590D01*
X176629060Y-134647724D01*
X176735131Y-134806469D01*
X176945175Y-134946817D01*
X177192940Y-134996100D01*
X180693060Y-134996100D01*
X180940825Y-134946817D01*
X181150869Y-134806469D01*
X181291217Y-134596425D01*
X181340500Y-134348660D01*
X181340500Y-130848540D01*
X181291217Y-130600775D01*
X181150869Y-130390731D01*
X180940825Y-130250383D01*
X180693060Y-130201100D01*
X177192940Y-130201100D01*
X176945175Y-130250383D01*
X176891440Y-130286288D01*
X176891440Y-127598860D01*
X176842157Y-127351095D01*
X176701809Y-127141051D01*
X176491765Y-127000703D01*
X176244000Y-126951420D01*
X175183800Y-126951420D01*
X175183800Y-122660277D01*
X177052560Y-120791517D01*
X177052560Y-121800000D01*
X177101843Y-122047765D01*
X177242191Y-122257809D01*
X177452235Y-122398157D01*
X177700000Y-122447440D01*
X179300000Y-122447440D01*
X179547765Y-122398157D01*
X179757809Y-122257809D01*
X179898157Y-122047765D01*
X179906117Y-122007745D01*
X180171861Y-122007745D01*
X180245995Y-122253864D01*
X180783223Y-122446965D01*
X181353454Y-122419778D01*
X181754005Y-122253864D01*
X181828139Y-122007745D01*
X181000000Y-121179605D01*
X180171861Y-122007745D01*
X179906117Y-122007745D01*
X179944693Y-121813813D01*
X179992255Y-121828139D01*
X180820395Y-121000000D01*
X181179605Y-121000000D01*
X182007745Y-121828139D01*
X182253864Y-121754005D01*
X182446965Y-121216777D01*
X182419778Y-120646546D01*
X182253864Y-120245995D01*
X182007745Y-120171861D01*
X181179605Y-121000000D01*
X180820395Y-121000000D01*
X179992255Y-120171861D01*
X179944693Y-120186187D01*
X179906118Y-119992255D01*
X180171861Y-119992255D01*
X181000000Y-120820395D01*
X181828139Y-119992255D01*
X181754005Y-119746136D01*
X181216777Y-119553035D01*
X180646546Y-119580222D01*
X180245995Y-119746136D01*
X180171861Y-119992255D01*
X179906118Y-119992255D01*
X179898157Y-119952235D01*
X179757809Y-119742191D01*
X179547765Y-119601843D01*
X179300000Y-119552560D01*
X178291517Y-119552560D01*
X183259078Y-114585000D01*
X183830276Y-114585000D01*
X184412830Y-114343698D01*
X184858698Y-113897830D01*
X185100000Y-113315276D01*
X185100000Y-112684724D01*
X184858698Y-112102170D01*
X184412830Y-111656302D01*
X183830276Y-111415000D01*
X183199724Y-111415000D01*
X182617170Y-111656302D01*
X182265000Y-112008472D01*
X181912830Y-111656302D01*
X181330276Y-111415000D01*
X180699724Y-111415000D01*
X180117170Y-111656302D01*
X180026339Y-111747133D01*
X179922809Y-111592191D01*
X179712765Y-111451843D01*
X179465000Y-111402560D01*
X177565000Y-111402560D01*
X177317235Y-111451843D01*
X177107191Y-111592191D01*
X176966843Y-111802235D01*
X176917560Y-112050000D01*
X176917560Y-113950000D01*
X176966843Y-114197765D01*
X177107191Y-114407809D01*
X177317235Y-114548157D01*
X177565000Y-114597440D01*
X179465000Y-114597440D01*
X179712765Y-114548157D01*
X179922809Y-114407809D01*
X180026339Y-114252867D01*
X180117170Y-114343698D01*
X180629861Y-114556062D01*
X173644911Y-121541012D01*
X173566443Y-121593443D01*
X173514013Y-121671910D01*
X173514012Y-121671911D01*
X173372700Y-121883400D01*
X173358728Y-121904310D01*
X173304200Y-122178442D01*
X173304200Y-122178446D01*
X173285790Y-122271000D01*
X173304200Y-122363554D01*
X173304201Y-126951420D01*
X172244000Y-126951420D01*
X171996235Y-127000703D01*
X171786191Y-127141051D01*
X171645843Y-127351095D01*
X171596560Y-127598860D01*
X167535000Y-127598860D01*
X167535000Y-127285750D01*
X167376250Y-127127000D01*
X166127000Y-127127000D01*
X165873000Y-127127000D01*
X164623750Y-127127000D01*
X164465000Y-127285750D01*
X162642959Y-127285750D01*
X163397309Y-126531400D01*
X164465000Y-126531400D01*
X164465000Y-126714250D01*
X164623750Y-126873000D01*
X165873000Y-126873000D01*
X165873000Y-126853000D01*
X166127000Y-126853000D01*
X166127000Y-126873000D01*
X167376250Y-126873000D01*
X167535000Y-126714250D01*
X167535000Y-125973691D01*
X167453434Y-125776775D01*
X169125558Y-124104651D01*
X169187058Y-124063558D01*
X169349861Y-123819907D01*
X169392600Y-123605044D01*
X169392600Y-123605041D01*
X169407029Y-123532501D01*
X169392600Y-123459960D01*
X169392600Y-121408123D01*
X169468862Y-121376534D01*
X169872534Y-120972862D01*
X170091000Y-120445439D01*
X170091000Y-119874561D01*
X169872534Y-119347138D01*
X169468862Y-118943466D01*
X168941439Y-118725000D01*
X168370561Y-118725000D01*
X168294298Y-118756589D01*
X167841700Y-118303991D01*
X167841700Y-114874607D01*
X167926012Y-115000789D01*
X167926015Y-115000792D01*
X167978444Y-115079257D01*
X168056909Y-115131686D01*
X171155681Y-118230459D01*
X171108191Y-118262191D01*
X170967843Y-118472235D01*
X170918560Y-118720000D01*
X170918560Y-120520000D01*
X170967843Y-120767765D01*
X171108191Y-120977809D01*
X171318235Y-121118157D01*
X171566000Y-121167440D01*
X173366000Y-121167440D01*
X173613765Y-121118157D01*
X173823809Y-120977809D01*
X173964157Y-120767765D01*
X174013440Y-120520000D01*
X174013440Y-118720000D01*
X173964157Y-118472235D01*
X173823809Y-118262191D01*
X173613765Y-118121843D01*
X173397792Y-118078884D01*
X173351272Y-117845009D01*
X173286539Y-117748129D01*
X173195988Y-117612610D01*
X173195986Y-117612608D01*
X173143557Y-117534143D01*
X173065092Y-117481714D01*
X169595800Y-114012423D01*
X169595800Y-111097905D01*
X169690577Y-111034577D01*
X170007740Y-110559909D01*
X170119113Y-110000000D01*
X170007740Y-109440091D01*
X169690577Y-108965423D01*
X169595800Y-108902095D01*
X169595800Y-103831036D01*
X170752193Y-103831036D01*
X170782518Y-104321413D01*
X170874505Y-104543490D01*
X170801843Y-104652235D01*
X170752560Y-104900000D01*
X170752560Y-106100000D01*
X170801843Y-106347765D01*
X170942191Y-106557809D01*
X171152235Y-106698157D01*
X171400000Y-106747440D01*
X172600000Y-106747440D01*
X172847765Y-106698157D01*
X172975918Y-106612527D01*
X173168500Y-106805110D01*
X173168501Y-109050689D01*
X171996440Y-110222751D01*
X171934943Y-110263842D01*
X171893852Y-110325339D01*
X171893849Y-110325342D01*
X171772139Y-110507494D01*
X171746905Y-110634356D01*
X171359327Y-110893327D01*
X171020062Y-111401073D01*
X170900928Y-112000000D01*
X171020062Y-112598927D01*
X171359327Y-113106673D01*
X171867073Y-113445938D01*
X172314818Y-113535000D01*
X172617182Y-113535000D01*
X173064927Y-113445938D01*
X173572673Y-113106673D01*
X173911938Y-112598927D01*
X174031072Y-112000000D01*
X173911938Y-111401073D01*
X173572673Y-110893327D01*
X173474727Y-110827882D01*
X174374660Y-109927950D01*
X174436158Y-109886858D01*
X174477249Y-109825361D01*
X174477251Y-109825359D01*
X174598961Y-109643207D01*
X174601628Y-109629800D01*
X174641700Y-109428344D01*
X174641700Y-109428341D01*
X174656129Y-109355800D01*
X174641700Y-109283260D01*
X174641700Y-107236600D01*
X176035399Y-107236600D01*
X176113914Y-107426153D01*
X176573847Y-107886086D01*
X177174778Y-108135000D01*
X177825222Y-108135000D01*
X178426153Y-107886086D01*
X178886086Y-107426153D01*
X179135000Y-106825222D01*
X179135000Y-106174778D01*
X182365000Y-106174778D01*
X182365000Y-106825222D01*
X182613914Y-107426153D01*
X183073847Y-107886086D01*
X183674778Y-108135000D01*
X184325222Y-108135000D01*
X184926153Y-107886086D01*
X185386086Y-107426153D01*
X185635000Y-106825222D01*
X185635000Y-106174778D01*
X185386086Y-105573847D01*
X184926153Y-105113914D01*
X184325222Y-104865000D01*
X183674778Y-104865000D01*
X183073847Y-105113914D01*
X182613914Y-105573847D01*
X182365000Y-106174778D01*
X179135000Y-106174778D01*
X178886086Y-105573847D01*
X178426153Y-105113914D01*
X177825222Y-104865000D01*
X177174778Y-104865000D01*
X176573847Y-105113914D01*
X176113914Y-105573847D01*
X176035399Y-105763400D01*
X174210210Y-105763400D01*
X173477251Y-105030442D01*
X173436158Y-104968942D01*
X173234328Y-104834083D01*
X173198157Y-104652235D01*
X173121291Y-104537198D01*
X173247807Y-104168964D01*
X173217482Y-103678587D01*
X173088164Y-103366383D01*
X172862735Y-103316870D01*
X172179605Y-104000000D01*
X172193748Y-104014143D01*
X172014143Y-104193748D01*
X172000000Y-104179605D01*
X171985858Y-104193748D01*
X171806253Y-104014143D01*
X171820395Y-104000000D01*
X171137265Y-103316870D01*
X170911836Y-103366383D01*
X170752193Y-103831036D01*
X169595800Y-103831036D01*
X169595800Y-103137265D01*
X171316870Y-103137265D01*
X172000000Y-103820395D01*
X172667863Y-103152532D01*
X176527073Y-103152532D01*
X176625736Y-103419387D01*
X177235461Y-103645908D01*
X177885460Y-103621856D01*
X178374264Y-103419387D01*
X178472927Y-103152532D01*
X183027073Y-103152532D01*
X183125736Y-103419387D01*
X183735461Y-103645908D01*
X184385460Y-103621856D01*
X184874264Y-103419387D01*
X184972927Y-103152532D01*
X184000000Y-102179605D01*
X183027073Y-103152532D01*
X178472927Y-103152532D01*
X177500000Y-102179605D01*
X176527073Y-103152532D01*
X172667863Y-103152532D01*
X172683130Y-103137265D01*
X172633617Y-102911836D01*
X172168964Y-102752193D01*
X171678587Y-102782518D01*
X171366383Y-102911836D01*
X171316870Y-103137265D01*
X169595800Y-103137265D01*
X169595800Y-101735461D01*
X175854092Y-101735461D01*
X175878144Y-102385460D01*
X176080613Y-102874264D01*
X176347468Y-102972927D01*
X177320395Y-102000000D01*
X177679605Y-102000000D01*
X178652532Y-102972927D01*
X178919387Y-102874264D01*
X179145908Y-102264539D01*
X179126331Y-101735461D01*
X182354092Y-101735461D01*
X182378144Y-102385460D01*
X182580613Y-102874264D01*
X182847468Y-102972927D01*
X183820395Y-102000000D01*
X184179605Y-102000000D01*
X185152532Y-102972927D01*
X185419387Y-102874264D01*
X185645908Y-102264539D01*
X185621856Y-101614540D01*
X185419387Y-101125736D01*
X185152532Y-101027073D01*
X184179605Y-102000000D01*
X183820395Y-102000000D01*
X182847468Y-101027073D01*
X182580613Y-101125736D01*
X182354092Y-101735461D01*
X179126331Y-101735461D01*
X179121856Y-101614540D01*
X178919387Y-101125736D01*
X178652532Y-101027073D01*
X177679605Y-102000000D01*
X177320395Y-102000000D01*
X176347468Y-101027073D01*
X176080613Y-101125736D01*
X175854092Y-101735461D01*
X169595800Y-101735461D01*
X169595800Y-100847468D01*
X176527073Y-100847468D01*
X177500000Y-101820395D01*
X178472927Y-100847468D01*
X183027073Y-100847468D01*
X184000000Y-101820395D01*
X184972927Y-100847468D01*
X184874264Y-100580613D01*
X184264539Y-100354092D01*
X183614540Y-100378144D01*
X183125736Y-100580613D01*
X183027073Y-100847468D01*
X178472927Y-100847468D01*
X178374264Y-100580613D01*
X177764539Y-100354092D01*
X177114540Y-100378144D01*
X176625736Y-100580613D01*
X176527073Y-100847468D01*
X169595800Y-100847468D01*
X169595800Y-100741577D01*
X171679092Y-98658286D01*
X171757557Y-98605857D01*
X171809986Y-98527392D01*
X171809988Y-98527390D01*
X171918909Y-98364377D01*
X171965272Y-98294991D01*
X171981402Y-98213900D01*
X173184504Y-98213900D01*
X173187138Y-98216534D01*
X173714561Y-98435000D01*
X174285439Y-98435000D01*
X174812862Y-98216534D01*
X175216534Y-97812862D01*
X175435000Y-97285439D01*
X175435000Y-96714561D01*
X175216534Y-96187138D01*
X174812862Y-95783466D01*
X174747701Y-95756475D01*
X174754005Y-95753864D01*
X174828139Y-95507745D01*
X174000000Y-94679605D01*
X173171861Y-95507745D01*
X173245995Y-95753864D01*
X173252746Y-95756290D01*
X173187138Y-95783466D01*
X172783466Y-96187138D01*
X172722509Y-96334300D01*
X172486284Y-96334300D01*
X172431740Y-96060091D01*
X172122899Y-95597878D01*
X172664312Y-95056465D01*
X172746136Y-95254005D01*
X172992255Y-95328139D01*
X173820395Y-94500000D01*
X174179605Y-94500000D01*
X175007745Y-95328139D01*
X175253864Y-95254005D01*
X175446965Y-94716777D01*
X175419778Y-94146546D01*
X175253864Y-93745995D01*
X175007745Y-93671861D01*
X174179605Y-94500000D01*
X173820395Y-94500000D01*
X173806253Y-94485858D01*
X173985858Y-94306252D01*
X174000000Y-94320395D01*
X174828139Y-93492255D01*
X174754005Y-93246136D01*
X174216777Y-93053035D01*
X173795200Y-93073135D01*
X173795200Y-70525431D01*
X180215000Y-70525431D01*
X180215000Y-71414569D01*
X180555259Y-72236026D01*
X181183974Y-72864741D01*
X182005431Y-73205000D01*
X182894569Y-73205000D01*
X183716026Y-72864741D01*
X184344741Y-72236026D01*
X184685000Y-71414569D01*
X184685000Y-70525431D01*
X184344741Y-69703974D01*
X183716026Y-69075259D01*
X182894569Y-68735000D01*
X182005431Y-68735000D01*
X181183974Y-69075259D01*
X180555259Y-69703974D01*
X180215000Y-70525431D01*
X173795200Y-70525431D01*
X173795200Y-61947954D01*
X173813610Y-61855400D01*
X173795200Y-61762846D01*
X173795200Y-61762841D01*
X173740672Y-61488709D01*
X173691605Y-61415275D01*
X173585388Y-61256310D01*
X173585386Y-61256308D01*
X173532957Y-61177843D01*
X173454492Y-61125414D01*
X165435000Y-53105923D01*
X165435000Y-52714561D01*
X165400181Y-52630500D01*
X176413560Y-52630500D01*
X176486100Y-52644929D01*
X176558640Y-52630500D01*
X176558644Y-52630500D01*
X176773507Y-52587761D01*
X177017158Y-52424958D01*
X177058251Y-52363458D01*
X177349848Y-52071861D01*
X177435950Y-52504725D01*
X177767170Y-53000430D01*
X178050881Y-53190000D01*
X177767170Y-53379570D01*
X177435950Y-53875275D01*
X177319641Y-54460000D01*
X177435950Y-55044725D01*
X177767170Y-55540430D01*
X178050881Y-55730000D01*
X177767170Y-55919570D01*
X177435950Y-56415275D01*
X177319641Y-57000000D01*
X177435950Y-57584725D01*
X177767170Y-58080430D01*
X178050881Y-58270000D01*
X177767170Y-58459570D01*
X177435950Y-58955275D01*
X177319641Y-59540000D01*
X177435950Y-60124725D01*
X177767170Y-60620430D01*
X178262875Y-60951650D01*
X178700002Y-61038600D01*
X179299998Y-61038600D01*
X179737125Y-60951650D01*
X180232830Y-60620430D01*
X180564050Y-60124725D01*
X180680359Y-59540000D01*
X180564050Y-58955275D01*
X180232830Y-58459570D01*
X179949119Y-58270000D01*
X180232830Y-58080430D01*
X180564050Y-57584725D01*
X180680359Y-57000000D01*
X180564050Y-56415275D01*
X180232830Y-55919570D01*
X179949119Y-55730000D01*
X180232830Y-55540430D01*
X180564050Y-55044725D01*
X180680359Y-54460000D01*
X180564050Y-53875275D01*
X180232830Y-53379570D01*
X179949119Y-53190000D01*
X180232830Y-53000430D01*
X180564050Y-52504725D01*
X180680359Y-51920000D01*
X180564050Y-51335275D01*
X180232830Y-50839570D01*
X179949119Y-50650000D01*
X180232830Y-50460430D01*
X180564050Y-49964725D01*
X180680359Y-49380000D01*
X180564050Y-48795275D01*
X180233633Y-48300772D01*
X180375698Y-48241927D01*
X180554327Y-48063299D01*
X180651000Y-47829910D01*
X180651000Y-47125750D01*
X180492250Y-46967000D01*
X179127000Y-46967000D01*
X179127000Y-46987000D01*
X178873000Y-46987000D01*
X178873000Y-46967000D01*
X177507750Y-46967000D01*
X177349000Y-47125750D01*
X177349000Y-47829910D01*
X177445673Y-48063299D01*
X177624302Y-48241927D01*
X177766367Y-48300772D01*
X177435950Y-48795275D01*
X177319641Y-49380000D01*
X177429320Y-49931394D01*
X177361741Y-49976549D01*
X177361739Y-49976551D01*
X177300242Y-50017642D01*
X177259150Y-50079140D01*
X176180991Y-51157300D01*
X165288624Y-51157300D01*
X165446965Y-50716777D01*
X165419778Y-50146546D01*
X165253864Y-49745995D01*
X165007745Y-49671861D01*
X164179605Y-50500000D01*
X164193748Y-50514142D01*
X164014142Y-50693748D01*
X164000000Y-50679605D01*
X163985858Y-50693748D01*
X163806252Y-50514142D01*
X163820395Y-50500000D01*
X162992255Y-49671861D01*
X162746136Y-49745995D01*
X162553035Y-50283223D01*
X162580222Y-50853454D01*
X162746136Y-51254005D01*
X162986206Y-51326317D01*
X162931542Y-51362842D01*
X162890450Y-51424340D01*
X162331940Y-51982851D01*
X162270443Y-52023942D01*
X162229352Y-52085439D01*
X162229349Y-52085442D01*
X162107639Y-52267594D01*
X162050471Y-52555000D01*
X162064901Y-52627545D01*
X162064901Y-53552231D01*
X161639909Y-53268260D01*
X161221333Y-53185000D01*
X160938667Y-53185000D01*
X160520091Y-53268260D01*
X160045423Y-53585423D01*
X159810000Y-53937758D01*
X159574577Y-53585423D01*
X159099909Y-53268260D01*
X158681333Y-53185000D01*
X158398667Y-53185000D01*
X157980091Y-53268260D01*
X157505423Y-53585423D01*
X157270000Y-53937758D01*
X157034577Y-53585423D01*
X156559909Y-53268260D01*
X156141333Y-53185000D01*
X155858667Y-53185000D01*
X155440091Y-53268260D01*
X154965423Y-53585423D01*
X154730000Y-53937758D01*
X154494577Y-53585423D01*
X154019909Y-53268260D01*
X153601333Y-53185000D01*
X153318667Y-53185000D01*
X152900091Y-53268260D01*
X152425423Y-53585423D01*
X152190000Y-53937758D01*
X151954577Y-53585423D01*
X151479909Y-53268260D01*
X151061333Y-53185000D01*
X150778667Y-53185000D01*
X150360091Y-53268260D01*
X149885423Y-53585423D01*
X149650000Y-53937758D01*
X149414577Y-53585423D01*
X148939909Y-53268260D01*
X148521333Y-53185000D01*
X148238667Y-53185000D01*
X147820091Y-53268260D01*
X147345423Y-53585423D01*
X147110000Y-53937758D01*
X146874577Y-53585423D01*
X146399909Y-53268260D01*
X145981333Y-53185000D01*
X145698667Y-53185000D01*
X145403000Y-53243812D01*
X145403000Y-49583809D01*
X145494554Y-49492255D01*
X163171861Y-49492255D01*
X164000000Y-50320395D01*
X164828139Y-49492255D01*
X164754005Y-49246136D01*
X164216777Y-49053035D01*
X163646546Y-49080222D01*
X163245995Y-49246136D01*
X163171861Y-49492255D01*
X145494554Y-49492255D01*
X146309560Y-48677250D01*
X146371058Y-48636158D01*
X146412149Y-48574661D01*
X146412151Y-48574659D01*
X146533861Y-48392507D01*
X146560654Y-48257809D01*
X146563745Y-48242268D01*
X146874577Y-48034577D01*
X147110000Y-47682242D01*
X147345423Y-48034577D01*
X147820091Y-48351740D01*
X148238667Y-48435000D01*
X148521333Y-48435000D01*
X148939909Y-48351740D01*
X149414577Y-48034577D01*
X149670947Y-47650892D01*
X149767611Y-47855134D01*
X150182577Y-48231041D01*
X150570961Y-48391904D01*
X150793000Y-48269915D01*
X150793000Y-47127000D01*
X151047000Y-47127000D01*
X151047000Y-48269915D01*
X151269039Y-48391904D01*
X151657423Y-48231041D01*
X152072389Y-47855134D01*
X152190000Y-47606633D01*
X152307611Y-47855134D01*
X152722577Y-48231041D01*
X153110961Y-48391904D01*
X153333000Y-48269915D01*
X153333000Y-47127000D01*
X151047000Y-47127000D01*
X150793000Y-47127000D01*
X150773000Y-47127000D01*
X150773000Y-46873000D01*
X150793000Y-46873000D01*
X150793000Y-45730085D01*
X151047000Y-45730085D01*
X151047000Y-46873000D01*
X153333000Y-46873000D01*
X153333000Y-45730085D01*
X153587000Y-45730085D01*
X153587000Y-46873000D01*
X153607000Y-46873000D01*
X153607000Y-47127000D01*
X153587000Y-47127000D01*
X153587000Y-48269915D01*
X153809039Y-48391904D01*
X154197423Y-48231041D01*
X154612389Y-47855134D01*
X154709053Y-47650892D01*
X154965423Y-48034577D01*
X155440091Y-48351740D01*
X155858667Y-48435000D01*
X156141333Y-48435000D01*
X156559909Y-48351740D01*
X157034577Y-48034577D01*
X157270000Y-47682242D01*
X157505423Y-48034577D01*
X157980091Y-48351740D01*
X158398667Y-48435000D01*
X158681333Y-48435000D01*
X159099909Y-48351740D01*
X159574577Y-48034577D01*
X159655215Y-47913894D01*
X159681843Y-48047765D01*
X159822191Y-48257809D01*
X160032235Y-48398157D01*
X160280000Y-48447440D01*
X161880000Y-48447440D01*
X162127765Y-48398157D01*
X162337809Y-48257809D01*
X162478157Y-48047765D01*
X162527440Y-47800000D01*
X162527440Y-46200000D01*
X162478157Y-45952235D01*
X162409906Y-45850090D01*
X177349000Y-45850090D01*
X177349000Y-46554250D01*
X177507750Y-46713000D01*
X178873000Y-46713000D01*
X178873000Y-45500150D01*
X179127000Y-45500150D01*
X179127000Y-46713000D01*
X180492250Y-46713000D01*
X180651000Y-46554250D01*
X180651000Y-45850090D01*
X180554327Y-45616701D01*
X180375698Y-45438073D01*
X180142309Y-45341400D01*
X179285750Y-45341400D01*
X179127000Y-45500150D01*
X178873000Y-45500150D01*
X178714250Y-45341400D01*
X177857691Y-45341400D01*
X177624302Y-45438073D01*
X177445673Y-45616701D01*
X177349000Y-45850090D01*
X162409906Y-45850090D01*
X162337809Y-45742191D01*
X162127765Y-45601843D01*
X161880000Y-45552560D01*
X160280000Y-45552560D01*
X160032235Y-45601843D01*
X159822191Y-45742191D01*
X159681843Y-45952235D01*
X159655215Y-46086106D01*
X159574577Y-45965423D01*
X159099909Y-45648260D01*
X158681333Y-45565000D01*
X158398667Y-45565000D01*
X157980091Y-45648260D01*
X157505423Y-45965423D01*
X157270000Y-46317758D01*
X157034577Y-45965423D01*
X156559909Y-45648260D01*
X156141333Y-45565000D01*
X155858667Y-45565000D01*
X155440091Y-45648260D01*
X154965423Y-45965423D01*
X154709053Y-46349108D01*
X154612389Y-46144866D01*
X154197423Y-45768959D01*
X153809039Y-45608096D01*
X153587000Y-45730085D01*
X153333000Y-45730085D01*
X153110961Y-45608096D01*
X152722577Y-45768959D01*
X152307611Y-46144866D01*
X152190000Y-46393367D01*
X152072389Y-46144866D01*
X151657423Y-45768959D01*
X151269039Y-45608096D01*
X151047000Y-45730085D01*
X150793000Y-45730085D01*
X150570961Y-45608096D01*
X150182577Y-45768959D01*
X149767611Y-46144866D01*
X149670947Y-46349108D01*
X149414577Y-45965423D01*
X148939909Y-45648260D01*
X148521333Y-45565000D01*
X148238667Y-45565000D01*
X147820091Y-45648260D01*
X147345423Y-45965423D01*
X147110000Y-46317758D01*
X146874577Y-45965423D01*
X146399909Y-45648260D01*
X145981333Y-45565000D01*
X145698667Y-45565000D01*
X145280091Y-45648260D01*
X144805423Y-45965423D01*
X144549053Y-46349108D01*
X144452389Y-46144866D01*
X144037423Y-45768959D01*
X143649039Y-45608096D01*
X143427000Y-45730085D01*
X143427000Y-46873000D01*
X143447000Y-46873000D01*
X143447000Y-47127000D01*
X143427000Y-47127000D01*
X143427000Y-48269915D01*
X143649039Y-48391904D01*
X144037423Y-48231041D01*
X144452389Y-47855134D01*
X144549053Y-47650892D01*
X144805423Y-48034577D01*
X144843423Y-48059968D01*
X144196842Y-48706549D01*
X144135342Y-48747642D01*
X143972539Y-48991294D01*
X143929800Y-49206157D01*
X143929800Y-49206160D01*
X143915371Y-49278700D01*
X143929800Y-49351240D01*
X143929800Y-53314960D01*
X143859909Y-53268260D01*
X143441333Y-53185000D01*
X143158667Y-53185000D01*
X142740091Y-53268260D01*
X142265423Y-53585423D01*
X141948260Y-54060091D01*
X141836887Y-54620000D01*
X141948260Y-55179909D01*
X142265423Y-55654577D01*
X142740091Y-55971740D01*
X143158667Y-56055000D01*
X143441333Y-56055000D01*
X143859909Y-55971740D01*
X143929801Y-55925040D01*
X143929801Y-57159789D01*
X143370440Y-57719151D01*
X143308943Y-57760242D01*
X143267852Y-57821739D01*
X143267849Y-57821742D01*
X143146139Y-58003894D01*
X143119212Y-58139264D01*
X142759570Y-58379570D01*
X142428350Y-58875275D01*
X142312041Y-59460000D01*
X142428350Y-60044725D01*
X142759570Y-60540430D01*
X143043281Y-60730000D01*
X142759570Y-60919570D01*
X142428350Y-61415275D01*
X142312041Y-62000000D01*
X142428350Y-62584725D01*
X142759570Y-63080430D01*
X143255275Y-63411650D01*
X143692402Y-63498600D01*
X143987598Y-63498600D01*
X144424725Y-63411650D01*
X144920430Y-63080430D01*
X145110000Y-62796719D01*
X145299570Y-63080430D01*
X145795275Y-63411650D01*
X146232402Y-63498600D01*
X146527598Y-63498600D01*
X146964725Y-63411650D01*
X147460430Y-63080430D01*
X147650000Y-62796719D01*
X147839570Y-63080430D01*
X148335275Y-63411650D01*
X148772402Y-63498600D01*
X149067598Y-63498600D01*
X149504725Y-63411650D01*
X150000430Y-63080430D01*
X150190000Y-62796719D01*
X150379570Y-63080430D01*
X150516119Y-63171669D01*
X150468971Y-63408700D01*
X150483401Y-63481245D01*
X150483400Y-65766321D01*
X150258213Y-65916786D01*
X150257561Y-65916351D01*
X149709651Y-65368442D01*
X149668558Y-65306942D01*
X149424907Y-65144139D01*
X149210044Y-65101400D01*
X149210040Y-65101400D01*
X149137500Y-65086971D01*
X149064960Y-65101400D01*
X148250640Y-65101400D01*
X148178099Y-65086971D01*
X148105559Y-65101400D01*
X148105556Y-65101400D01*
X147906444Y-65141006D01*
X147890693Y-65144139D01*
X147708541Y-65265849D01*
X147708539Y-65265851D01*
X147647042Y-65306942D01*
X147605950Y-65368440D01*
X147075301Y-65899089D01*
X146699909Y-65648260D01*
X146281333Y-65565000D01*
X145998667Y-65565000D01*
X145580091Y-65648260D01*
X145105423Y-65965423D01*
X144870000Y-66317758D01*
X144634577Y-65965423D01*
X144159909Y-65648260D01*
X143741333Y-65565000D01*
X143458667Y-65565000D01*
X143040091Y-65648260D01*
X142565423Y-65965423D01*
X142293355Y-66372601D01*
X142216534Y-66187138D01*
X141812862Y-65783466D01*
X141285439Y-65565000D01*
X140714561Y-65565000D01*
X140187138Y-65783466D01*
X139783466Y-66187138D01*
X139565000Y-66714561D01*
X139565000Y-67285439D01*
X139783466Y-67812862D01*
X140187138Y-68216534D01*
X140252299Y-68243525D01*
X140245995Y-68246136D01*
X140171861Y-68492255D01*
X141000000Y-69320395D01*
X141828139Y-68492255D01*
X141754005Y-68246136D01*
X141747254Y-68243710D01*
X141812862Y-68216534D01*
X142216534Y-67812862D01*
X142293355Y-67627399D01*
X142565423Y-68034577D01*
X142660201Y-68097905D01*
X142660201Y-68215737D01*
X142641789Y-68308300D01*
X142714728Y-68674991D01*
X142922443Y-68985857D01*
X143233309Y-69193572D01*
X143422300Y-69231165D01*
X143422301Y-74748621D01*
X138424538Y-79746385D01*
X138419778Y-79646546D01*
X138253864Y-79245995D01*
X138007745Y-79171861D01*
X137179605Y-80000000D01*
X137193748Y-80014143D01*
X137014143Y-80193748D01*
X137000000Y-80179605D01*
X136985858Y-80193748D01*
X136806253Y-80014143D01*
X136820395Y-80000000D01*
X136806253Y-79985858D01*
X136985858Y-79806252D01*
X137000000Y-79820395D01*
X137828139Y-78992255D01*
X137754005Y-78746136D01*
X137216777Y-78553035D01*
X136646546Y-78580222D01*
X136584000Y-78606129D01*
X136584000Y-70507745D01*
X140171861Y-70507745D01*
X140245995Y-70753864D01*
X140783223Y-70946965D01*
X141353454Y-70919778D01*
X141754005Y-70753864D01*
X141828139Y-70507745D01*
X141000000Y-69679605D01*
X140171861Y-70507745D01*
X136584000Y-70507745D01*
X136584000Y-69283223D01*
X139553035Y-69283223D01*
X139580222Y-69853454D01*
X139746136Y-70254005D01*
X139992255Y-70328139D01*
X140820395Y-69500000D01*
X141179605Y-69500000D01*
X142007745Y-70328139D01*
X142253864Y-70254005D01*
X142446965Y-69716777D01*
X142419778Y-69146546D01*
X142253864Y-68745995D01*
X142007745Y-68671861D01*
X141179605Y-69500000D01*
X140820395Y-69500000D01*
X139992255Y-68671861D01*
X139746136Y-68745995D01*
X139553035Y-69283223D01*
X136584000Y-69283223D01*
X136584000Y-66611940D01*
X136598429Y-66539400D01*
X136584000Y-66466857D01*
X136584000Y-66466856D01*
X136541261Y-66251993D01*
X136497926Y-66187138D01*
X136419551Y-66069841D01*
X136419549Y-66069839D01*
X136378458Y-66008342D01*
X136316961Y-65967251D01*
X135720251Y-65370542D01*
X135679158Y-65309042D01*
X135435507Y-65146239D01*
X135220644Y-65103500D01*
X135220640Y-65103500D01*
X135148100Y-65089071D01*
X135075560Y-65103500D01*
X133786600Y-65103500D01*
X133786600Y-63357013D01*
X134178667Y-63435000D01*
X134461333Y-63435000D01*
X134879909Y-63351740D01*
X135354577Y-63034577D01*
X135671740Y-62559909D01*
X135673995Y-62548575D01*
X135783466Y-62812862D01*
X136187138Y-63216534D01*
X136714561Y-63435000D01*
X137285439Y-63435000D01*
X137812862Y-63216534D01*
X138216534Y-62812862D01*
X138435000Y-62285439D01*
X138435000Y-61714561D01*
X138216534Y-61187138D01*
X137812862Y-60783466D01*
X137747701Y-60756475D01*
X137754005Y-60753864D01*
X137828139Y-60507745D01*
X137000000Y-59679605D01*
X136171861Y-60507745D01*
X136245995Y-60753864D01*
X136252746Y-60756290D01*
X136187138Y-60783466D01*
X135783466Y-61187138D01*
X135673995Y-61451425D01*
X135671740Y-61440091D01*
X135354577Y-60965423D01*
X134879909Y-60648260D01*
X134461333Y-60565000D01*
X134178667Y-60565000D01*
X133786600Y-60642987D01*
X133786600Y-59283223D01*
X135553035Y-59283223D01*
X135580222Y-59853454D01*
X135746136Y-60254005D01*
X135992255Y-60328139D01*
X136820395Y-59500000D01*
X137179605Y-59500000D01*
X138007745Y-60328139D01*
X138253864Y-60254005D01*
X138446965Y-59716777D01*
X138419778Y-59146546D01*
X138253864Y-58745995D01*
X138007745Y-58671861D01*
X137179605Y-59500000D01*
X136820395Y-59500000D01*
X135992255Y-58671861D01*
X135746136Y-58745995D01*
X135553035Y-59283223D01*
X133786600Y-59283223D01*
X133786600Y-58492255D01*
X136171861Y-58492255D01*
X137000000Y-59320395D01*
X137828139Y-58492255D01*
X137754005Y-58246136D01*
X137216777Y-58053035D01*
X136646546Y-58080222D01*
X136245995Y-58246136D01*
X136171861Y-58492255D01*
X133786600Y-58492255D01*
X133786600Y-49207640D01*
X133801029Y-49135099D01*
X133786600Y-49062559D01*
X133786600Y-49062556D01*
X133743861Y-48847693D01*
X133677009Y-48747642D01*
X133622151Y-48665541D01*
X133622149Y-48665539D01*
X133581058Y-48604042D01*
X133519560Y-48562950D01*
X132776577Y-47819968D01*
X132814577Y-47794577D01*
X132895215Y-47673894D01*
X132921843Y-47807765D01*
X133062191Y-48017809D01*
X133272235Y-48158157D01*
X133520000Y-48207440D01*
X135120000Y-48207440D01*
X135367765Y-48158157D01*
X135577809Y-48017809D01*
X135718157Y-47807765D01*
X135767440Y-47560000D01*
X135767440Y-47349041D01*
X141908086Y-47349041D01*
X142147611Y-47855134D01*
X142562577Y-48231041D01*
X142950961Y-48391904D01*
X143173000Y-48269915D01*
X143173000Y-47127000D01*
X142029371Y-47127000D01*
X141908086Y-47349041D01*
X135767440Y-47349041D01*
X135767440Y-46650959D01*
X141908086Y-46650959D01*
X142029371Y-46873000D01*
X143173000Y-46873000D01*
X143173000Y-45730085D01*
X142950961Y-45608096D01*
X142562577Y-45768959D01*
X142147611Y-46144866D01*
X141908086Y-46650959D01*
X135767440Y-46650959D01*
X135767440Y-45960000D01*
X135718157Y-45712235D01*
X135577809Y-45502191D01*
X135367765Y-45361843D01*
X135120000Y-45312560D01*
X133520000Y-45312560D01*
X133272235Y-45361843D01*
X133062191Y-45502191D01*
X132921843Y-45712235D01*
X132895215Y-45846106D01*
X132814577Y-45725423D01*
X132339909Y-45408260D01*
X131921333Y-45325000D01*
X131638667Y-45325000D01*
X131220091Y-45408260D01*
X130745423Y-45725423D01*
X130510000Y-46077758D01*
X130274577Y-45725423D01*
X129799909Y-45408260D01*
X129381333Y-45325000D01*
X129098667Y-45325000D01*
X128680091Y-45408260D01*
X128205423Y-45725423D01*
X127970000Y-46077758D01*
X127734577Y-45725423D01*
X127259909Y-45408260D01*
X126841333Y-45325000D01*
X126558667Y-45325000D01*
X126140091Y-45408260D01*
X125665423Y-45725423D01*
X125430000Y-46077758D01*
X125194577Y-45725423D01*
X124719909Y-45408260D01*
X124301333Y-45325000D01*
X124018667Y-45325000D01*
X123600091Y-45408260D01*
X123125423Y-45725423D01*
X122890000Y-46077758D01*
X122654577Y-45725423D01*
X122179909Y-45408260D01*
X121761333Y-45325000D01*
X121478667Y-45325000D01*
X121060091Y-45408260D01*
X120585423Y-45725423D01*
X120350000Y-46077758D01*
X120114577Y-45725423D01*
X119639909Y-45408260D01*
X119221333Y-45325000D01*
X118938667Y-45325000D01*
X118520091Y-45408260D01*
X118045423Y-45725423D01*
X117810000Y-46077758D01*
X117574577Y-45725423D01*
X117099909Y-45408260D01*
X116681333Y-45325000D01*
X116398667Y-45325000D01*
X115980091Y-45408260D01*
X115505423Y-45725423D01*
X115270000Y-46077758D01*
X115034577Y-45725423D01*
X114559909Y-45408260D01*
X114141333Y-45325000D01*
X113858667Y-45325000D01*
X113440091Y-45408260D01*
X112965423Y-45725423D01*
X112730000Y-46077758D01*
X112494577Y-45725423D01*
X112019909Y-45408260D01*
X111601333Y-45325000D01*
X111318667Y-45325000D01*
X110900091Y-45408260D01*
X110425423Y-45725423D01*
X110190000Y-46077758D01*
X109954577Y-45725423D01*
X109479909Y-45408260D01*
X109061333Y-45325000D01*
X108778667Y-45325000D01*
X108360091Y-45408260D01*
X107885423Y-45725423D01*
X107650000Y-46077758D01*
X107414577Y-45725423D01*
X106939909Y-45408260D01*
X106521333Y-45325000D01*
X106238667Y-45325000D01*
X105820091Y-45408260D01*
X105345423Y-45725423D01*
X105110000Y-46077758D01*
X104874577Y-45725423D01*
X104399909Y-45408260D01*
X103981333Y-45325000D01*
X103698667Y-45325000D01*
X103280091Y-45408260D01*
X102805423Y-45725423D01*
X102549053Y-46109108D01*
X102452389Y-45904866D01*
X102037423Y-45528959D01*
X101649039Y-45368096D01*
X101427000Y-45490085D01*
X101427000Y-46633000D01*
X101447000Y-46633000D01*
X101447000Y-46887000D01*
X101427000Y-46887000D01*
X101427000Y-48029915D01*
X101649039Y-48151904D01*
X102037423Y-47991041D01*
X102452389Y-47615134D01*
X102549053Y-47410892D01*
X102805423Y-47794577D01*
X102843423Y-47819968D01*
X102262040Y-48401351D01*
X102200543Y-48442442D01*
X102159452Y-48503939D01*
X102159449Y-48503942D01*
X102037739Y-48686094D01*
X101980571Y-48973500D01*
X101995001Y-49046045D01*
X101995000Y-60738525D01*
X101859909Y-60648260D01*
X101441333Y-60565000D01*
X101158667Y-60565000D01*
X100740091Y-60648260D01*
X100265423Y-60965423D01*
X99948260Y-61440091D01*
X99836887Y-62000000D01*
X99948260Y-62559909D01*
X100265423Y-63034577D01*
X100563401Y-63233679D01*
X100563400Y-64836460D01*
X100548971Y-64909000D01*
X100563400Y-64981540D01*
X100563400Y-64981543D01*
X100606139Y-65196406D01*
X100640840Y-65248339D01*
X100768942Y-65440058D01*
X100830442Y-65481151D01*
X101062765Y-65713474D01*
X100870961Y-65608096D01*
X100482577Y-65768959D01*
X100067611Y-66144866D01*
X99828086Y-66650959D01*
X99949371Y-66873000D01*
X101093000Y-66873000D01*
X101093000Y-66853000D01*
X101347000Y-66853000D01*
X101347000Y-66873000D01*
X101367000Y-66873000D01*
X101367000Y-67127000D01*
X101347000Y-67127000D01*
X101347000Y-68269915D01*
X101569039Y-68391904D01*
X101596601Y-68380488D01*
X101596600Y-79716590D01*
X100750440Y-80562751D01*
X100688943Y-80603842D01*
X100647852Y-80665339D01*
X100647849Y-80665342D01*
X100526139Y-80847494D01*
X100496255Y-80997732D01*
X100185423Y-81205423D01*
X99868260Y-81680091D01*
X99756887Y-82240000D01*
X99868260Y-82799909D01*
X100185423Y-83274577D01*
X100660091Y-83591740D01*
X101078667Y-83675000D01*
X101361333Y-83675000D01*
X101779909Y-83591740D01*
X102254577Y-83274577D01*
X102490000Y-82922242D01*
X102725423Y-83274577D01*
X103200091Y-83591740D01*
X103618667Y-83675000D01*
X103901333Y-83675000D01*
X104319909Y-83591740D01*
X104443000Y-83509493D01*
X104443000Y-84791260D01*
X104428571Y-84863800D01*
X104443000Y-84936340D01*
X104443000Y-84936343D01*
X104485739Y-85151206D01*
X104648542Y-85394858D01*
X104710042Y-85435951D01*
X106389001Y-87114911D01*
X106389000Y-91831623D01*
X105779800Y-91222423D01*
X105779800Y-89097905D01*
X105874577Y-89034577D01*
X106191740Y-88559909D01*
X106303113Y-88000000D01*
X106191740Y-87440091D01*
X105874577Y-86965423D01*
X105399909Y-86648260D01*
X104981333Y-86565000D01*
X104698667Y-86565000D01*
X104280091Y-86648260D01*
X103805423Y-86965423D01*
X103488260Y-87440091D01*
X103376887Y-88000000D01*
X103488260Y-88559909D01*
X103805423Y-89034577D01*
X103900201Y-89097905D01*
X103900201Y-89215738D01*
X103900200Y-89215742D01*
X103900201Y-91519141D01*
X103881790Y-91611700D01*
X103954729Y-91978392D01*
X104110012Y-92210789D01*
X104110015Y-92210792D01*
X104162444Y-92289257D01*
X104240908Y-92341685D01*
X104877101Y-92977878D01*
X104650000Y-93317758D01*
X104414577Y-92965423D01*
X103939909Y-92648260D01*
X103521333Y-92565000D01*
X103238667Y-92565000D01*
X102820091Y-92648260D01*
X102345423Y-92965423D01*
X102110000Y-93317758D01*
X101874577Y-92965423D01*
X101399909Y-92648260D01*
X100981333Y-92565000D01*
X100698667Y-92565000D01*
X100280091Y-92648260D01*
X99805423Y-92965423D01*
X99570000Y-93317758D01*
X99334577Y-92965423D01*
X98859909Y-92648260D01*
X98441333Y-92565000D01*
X98158667Y-92565000D01*
X97740091Y-92648260D01*
X97265423Y-92965423D01*
X96948260Y-93440091D01*
X96836887Y-94000000D01*
X96948260Y-94559909D01*
X97265423Y-95034577D01*
X97576255Y-95242268D01*
X97606139Y-95392506D01*
X97727849Y-95574658D01*
X97727852Y-95574661D01*
X97768943Y-95636158D01*
X97830440Y-95677249D01*
X98668500Y-96515309D01*
X98668501Y-107850186D01*
X98441333Y-107805000D01*
X98158667Y-107805000D01*
X97740091Y-107888260D01*
X97265423Y-108205423D01*
X96948260Y-108680091D01*
X96836887Y-109240000D01*
X96948260Y-109799909D01*
X97265423Y-110274577D01*
X97563401Y-110473679D01*
X97563400Y-113018491D01*
X96724640Y-113857251D01*
X96663143Y-113898342D01*
X96622052Y-113959839D01*
X96622049Y-113959842D01*
X96500339Y-114141994D01*
X96443171Y-114429400D01*
X89027000Y-114429400D01*
X89027000Y-70525431D01*
X91225000Y-70525431D01*
X91225000Y-71414569D01*
X91565259Y-72236026D01*
X92193974Y-72864741D01*
X93015431Y-73205000D01*
X93904569Y-73205000D01*
X94726026Y-72864741D01*
X95354741Y-72236026D01*
X95695000Y-71414569D01*
X95695000Y-70525431D01*
X95354741Y-69703974D01*
X94726026Y-69075259D01*
X93904569Y-68735000D01*
X93015431Y-68735000D01*
X92193974Y-69075259D01*
X91565259Y-69703974D01*
X91225000Y-70525431D01*
X89027000Y-70525431D01*
X89027000Y-67349041D01*
X99828086Y-67349041D01*
X100067611Y-67855134D01*
X100482577Y-68231041D01*
X100870961Y-68391904D01*
X101093000Y-68269915D01*
X101093000Y-67127000D01*
X99949371Y-67127000D01*
X99828086Y-67349041D01*
X89027000Y-67349041D01*
X89027000Y-47109041D01*
X99908086Y-47109041D01*
X100147611Y-47615134D01*
X100562577Y-47991041D01*
X100950961Y-48151904D01*
X101173000Y-48029915D01*
X101173000Y-46887000D01*
X100029371Y-46887000D01*
X99908086Y-47109041D01*
X89027000Y-47109041D01*
X89027000Y-46410959D01*
X99908086Y-46410959D01*
X100029371Y-46633000D01*
X101173000Y-46633000D01*
X101173000Y-45490085D01*
X100950961Y-45368096D01*
X100562577Y-45528959D01*
X100147611Y-45904866D01*
X99908086Y-46410959D01*
X89027000Y-46410959D01*
X89027000Y-42710000D01*
X187198000Y-42710000D01*
X187198000Y-140843000D01*
X187198000Y-140843000D01*
G37*
X187198000Y-140843000D02*
X89027000Y-140843000D01*
X89027000Y-136515431D01*
X91225000Y-136515431D01*
X91225000Y-137404569D01*
X91565259Y-138226026D01*
X92193974Y-138854741D01*
X93015431Y-139195000D01*
X93904569Y-139195000D01*
X94726026Y-138854741D01*
X95354741Y-138226026D01*
X95695000Y-137404569D01*
X95695000Y-136515431D01*
X95354741Y-135693974D01*
X94726026Y-135065259D01*
X93904569Y-134725000D01*
X93015431Y-134725000D01*
X92193974Y-135065259D01*
X91565259Y-135693974D01*
X91225000Y-136515431D01*
X89027000Y-136515431D01*
X89027000Y-114429400D01*
X96443171Y-114429400D01*
X96457601Y-114501945D01*
X96457600Y-117796560D01*
X96443171Y-117869100D01*
X96457600Y-117941640D01*
X96457600Y-117941643D01*
X96500339Y-118156506D01*
X96663142Y-118400158D01*
X96724642Y-118441251D01*
X99843423Y-121560032D01*
X99805423Y-121585423D01*
X99591225Y-121905993D01*
X99542268Y-121896255D01*
X99334577Y-121585423D01*
X98859909Y-121268260D01*
X98441333Y-121185000D01*
X98158667Y-121185000D01*
X97740091Y-121268260D01*
X97265423Y-121585423D01*
X96948260Y-122060091D01*
X96836887Y-122620000D01*
X96948260Y-123179909D01*
X97265423Y-123654577D01*
X97740091Y-123971740D01*
X98158667Y-124055000D01*
X98441333Y-124055000D01*
X98859909Y-123971740D01*
X99289792Y-123684501D01*
X113265851Y-137660561D01*
X113306942Y-137722058D01*
X113368439Y-137763149D01*
X113368441Y-137763151D01*
X113460481Y-137824650D01*
X113550593Y-137884861D01*
X113765456Y-137927600D01*
X113765459Y-137927600D01*
X113838000Y-137942029D01*
X113910540Y-137927600D01*
X139730460Y-137927600D01*
X139803000Y-137942029D01*
X139875540Y-137927600D01*
X139875544Y-137927600D01*
X140090407Y-137884861D01*
X140334058Y-137722058D01*
X140375151Y-137660558D01*
X142151619Y-135884090D01*
X171858940Y-135884090D01*
X171858940Y-137474709D01*
X171955613Y-137708098D01*
X172134241Y-137886727D01*
X172367630Y-137983400D01*
X173958250Y-137983400D01*
X174117000Y-137824650D01*
X174117000Y-135725340D01*
X174371000Y-135725340D01*
X174371000Y-137824650D01*
X174529750Y-137983400D01*
X176120370Y-137983400D01*
X176353759Y-137886727D01*
X176532387Y-137708098D01*
X176629060Y-137474709D01*
X176629060Y-136515431D01*
X180215000Y-136515431D01*
X180215000Y-137404569D01*
X180555259Y-138226026D01*
X181183974Y-138854741D01*
X182005431Y-139195000D01*
X182894569Y-139195000D01*
X183716026Y-138854741D01*
X184344741Y-138226026D01*
X184685000Y-137404569D01*
X184685000Y-136515431D01*
X184344741Y-135693974D01*
X183716026Y-135065259D01*
X182894569Y-134725000D01*
X182005431Y-134725000D01*
X181183974Y-135065259D01*
X180555259Y-135693974D01*
X180215000Y-136515431D01*
X176629060Y-136515431D01*
X176629060Y-135884090D01*
X176470310Y-135725340D01*
X174371000Y-135725340D01*
X174117000Y-135725340D01*
X172017690Y-135725340D01*
X171858940Y-135884090D01*
X142151619Y-135884090D01*
X143336889Y-134698820D01*
X143715275Y-134951650D01*
X144152402Y-135038600D01*
X144447598Y-135038600D01*
X144884725Y-134951650D01*
X145380430Y-134620430D01*
X145570000Y-134336719D01*
X145759570Y-134620430D01*
X146255275Y-134951650D01*
X146692402Y-135038600D01*
X146987598Y-135038600D01*
X147424725Y-134951650D01*
X147920430Y-134620430D01*
X148110000Y-134336719D01*
X148299570Y-134620430D01*
X148795275Y-134951650D01*
X149232402Y-135038600D01*
X149527598Y-135038600D01*
X149964725Y-134951650D01*
X150460430Y-134620430D01*
X150650000Y-134336719D01*
X150839570Y-134620430D01*
X151335275Y-134951650D01*
X151772402Y-135038600D01*
X152067598Y-135038600D01*
X152504725Y-134951650D01*
X153000430Y-134620430D01*
X153190000Y-134336719D01*
X153379570Y-134620430D01*
X153875275Y-134951650D01*
X154312402Y-135038600D01*
X154607598Y-135038600D01*
X155044725Y-134951650D01*
X155540430Y-134620430D01*
X155730000Y-134336719D01*
X155919570Y-134620430D01*
X156415275Y-134951650D01*
X156852402Y-135038600D01*
X157147598Y-135038600D01*
X157584725Y-134951650D01*
X158080430Y-134620430D01*
X158281854Y-134318979D01*
X158333179Y-134428490D01*
X158765053Y-134822688D01*
X159180974Y-134994958D01*
X159413000Y-134873817D01*
X159413000Y-133667000D01*
X159667000Y-133667000D01*
X159667000Y-134873817D01*
X159899026Y-134994958D01*
X160314947Y-134822688D01*
X160746821Y-134428490D01*
X160810000Y-134293687D01*
X160873179Y-134428490D01*
X161305053Y-134822688D01*
X161720974Y-134994958D01*
X161953000Y-134873817D01*
X161953000Y-133667000D01*
X162207000Y-133667000D01*
X162207000Y-134873817D01*
X162439026Y-134994958D01*
X162854947Y-134822688D01*
X163286821Y-134428490D01*
X163534968Y-133899027D01*
X163443018Y-133721971D01*
X171858940Y-133721971D01*
X171858940Y-135312590D01*
X172017690Y-135471340D01*
X174117000Y-135471340D01*
X174117000Y-133372030D01*
X173958250Y-133213280D01*
X172367630Y-133213280D01*
X172134241Y-133309953D01*
X171955613Y-133488582D01*
X171858940Y-133721971D01*
X163443018Y-133721971D01*
X163414469Y-133667000D01*
X162207000Y-133667000D01*
X161953000Y-133667000D01*
X159667000Y-133667000D01*
X159413000Y-133667000D01*
X159393000Y-133667000D01*
X159393000Y-133413000D01*
X159413000Y-133413000D01*
X159413000Y-133393000D01*
X159667000Y-133393000D01*
X159667000Y-133413000D01*
X161953000Y-133413000D01*
X161953000Y-133393000D01*
X162207000Y-133393000D01*
X162207000Y-133413000D01*
X163414469Y-133413000D01*
X163534968Y-133180973D01*
X163286821Y-132651510D01*
X163099050Y-132480119D01*
X163191365Y-132461757D01*
X163401409Y-132321409D01*
X163541757Y-132111365D01*
X163591040Y-131863600D01*
X163591040Y-130136400D01*
X163541757Y-129888635D01*
X163401409Y-129678591D01*
X163191365Y-129538243D01*
X162943600Y-129488960D01*
X161216400Y-129488960D01*
X160968635Y-129538243D01*
X160758591Y-129678591D01*
X160618243Y-129888635D01*
X160613068Y-129914651D01*
X160253988Y-129674721D01*
X162642959Y-127285750D01*
X164465000Y-127285750D01*
X164465000Y-128026309D01*
X164561673Y-128259698D01*
X164740301Y-128438327D01*
X164973690Y-128535000D01*
X165714250Y-128535000D01*
X165873000Y-128376250D01*
X165873000Y-127127000D01*
X166127000Y-127127000D01*
X166127000Y-128376250D01*
X166285750Y-128535000D01*
X167026310Y-128535000D01*
X167259699Y-128438327D01*
X167438327Y-128259698D01*
X167535000Y-128026309D01*
X167535000Y-127598860D01*
X171596560Y-127598860D01*
X171596560Y-131598860D01*
X171645843Y-131846625D01*
X171786191Y-132056669D01*
X171996235Y-132197017D01*
X172244000Y-132246300D01*
X176244000Y-132246300D01*
X176491765Y-132197017D01*
X176545500Y-132161112D01*
X176545500Y-133520240D01*
X176532387Y-133488582D01*
X176353759Y-133309953D01*
X176120370Y-133213280D01*
X174529750Y-133213280D01*
X174371000Y-133372030D01*
X174371000Y-135471340D01*
X176470310Y-135471340D01*
X176629060Y-135312590D01*
X176629060Y-134647724D01*
X176735131Y-134806469D01*
X176945175Y-134946817D01*
X177192940Y-134996100D01*
X180693060Y-134996100D01*
X180940825Y-134946817D01*
X181150869Y-134806469D01*
X181291217Y-134596425D01*
X181340500Y-134348660D01*
X181340500Y-130848540D01*
X181291217Y-130600775D01*
X181150869Y-130390731D01*
X180940825Y-130250383D01*
X180693060Y-130201100D01*
X177192940Y-130201100D01*
X176945175Y-130250383D01*
X176891440Y-130286288D01*
X176891440Y-127598860D01*
X176842157Y-127351095D01*
X176701809Y-127141051D01*
X176491765Y-127000703D01*
X176244000Y-126951420D01*
X175183800Y-126951420D01*
X175183800Y-122660277D01*
X177052560Y-120791517D01*
X177052560Y-121800000D01*
X177101843Y-122047765D01*
X177242191Y-122257809D01*
X177452235Y-122398157D01*
X177700000Y-122447440D01*
X179300000Y-122447440D01*
X179547765Y-122398157D01*
X179757809Y-122257809D01*
X179898157Y-122047765D01*
X179906117Y-122007745D01*
X180171861Y-122007745D01*
X180245995Y-122253864D01*
X180783223Y-122446965D01*
X181353454Y-122419778D01*
X181754005Y-122253864D01*
X181828139Y-122007745D01*
X181000000Y-121179605D01*
X180171861Y-122007745D01*
X179906117Y-122007745D01*
X179944693Y-121813813D01*
X179992255Y-121828139D01*
X180820395Y-121000000D01*
X181179605Y-121000000D01*
X182007745Y-121828139D01*
X182253864Y-121754005D01*
X182446965Y-121216777D01*
X182419778Y-120646546D01*
X182253864Y-120245995D01*
X182007745Y-120171861D01*
X181179605Y-121000000D01*
X180820395Y-121000000D01*
X179992255Y-120171861D01*
X179944693Y-120186187D01*
X179906118Y-119992255D01*
X180171861Y-119992255D01*
X181000000Y-120820395D01*
X181828139Y-119992255D01*
X181754005Y-119746136D01*
X181216777Y-119553035D01*
X180646546Y-119580222D01*
X180245995Y-119746136D01*
X180171861Y-119992255D01*
X179906118Y-119992255D01*
X179898157Y-119952235D01*
X179757809Y-119742191D01*
X179547765Y-119601843D01*
X179300000Y-119552560D01*
X178291517Y-119552560D01*
X183259078Y-114585000D01*
X183830276Y-114585000D01*
X184412830Y-114343698D01*
X184858698Y-113897830D01*
X185100000Y-113315276D01*
X185100000Y-112684724D01*
X184858698Y-112102170D01*
X184412830Y-111656302D01*
X183830276Y-111415000D01*
X183199724Y-111415000D01*
X182617170Y-111656302D01*
X182265000Y-112008472D01*
X181912830Y-111656302D01*
X181330276Y-111415000D01*
X180699724Y-111415000D01*
X180117170Y-111656302D01*
X180026339Y-111747133D01*
X179922809Y-111592191D01*
X179712765Y-111451843D01*
X179465000Y-111402560D01*
X177565000Y-111402560D01*
X177317235Y-111451843D01*
X177107191Y-111592191D01*
X176966843Y-111802235D01*
X176917560Y-112050000D01*
X176917560Y-113950000D01*
X176966843Y-114197765D01*
X177107191Y-114407809D01*
X177317235Y-114548157D01*
X177565000Y-114597440D01*
X179465000Y-114597440D01*
X179712765Y-114548157D01*
X179922809Y-114407809D01*
X180026339Y-114252867D01*
X180117170Y-114343698D01*
X180629861Y-114556062D01*
X173644911Y-121541012D01*
X173566443Y-121593443D01*
X173514013Y-121671910D01*
X173514012Y-121671911D01*
X173372700Y-121883400D01*
X173358728Y-121904310D01*
X173304200Y-122178442D01*
X173304200Y-122178446D01*
X173285790Y-122271000D01*
X173304200Y-122363554D01*
X173304201Y-126951420D01*
X172244000Y-126951420D01*
X171996235Y-127000703D01*
X171786191Y-127141051D01*
X171645843Y-127351095D01*
X171596560Y-127598860D01*
X167535000Y-127598860D01*
X167535000Y-127285750D01*
X167376250Y-127127000D01*
X166127000Y-127127000D01*
X165873000Y-127127000D01*
X164623750Y-127127000D01*
X164465000Y-127285750D01*
X162642959Y-127285750D01*
X163397309Y-126531400D01*
X164465000Y-126531400D01*
X164465000Y-126714250D01*
X164623750Y-126873000D01*
X165873000Y-126873000D01*
X165873000Y-126853000D01*
X166127000Y-126853000D01*
X166127000Y-126873000D01*
X167376250Y-126873000D01*
X167535000Y-126714250D01*
X167535000Y-125973691D01*
X167453434Y-125776775D01*
X169125558Y-124104651D01*
X169187058Y-124063558D01*
X169349861Y-123819907D01*
X169392600Y-123605044D01*
X169392600Y-123605041D01*
X169407029Y-123532501D01*
X169392600Y-123459960D01*
X169392600Y-121408123D01*
X169468862Y-121376534D01*
X169872534Y-120972862D01*
X170091000Y-120445439D01*
X170091000Y-119874561D01*
X169872534Y-119347138D01*
X169468862Y-118943466D01*
X168941439Y-118725000D01*
X168370561Y-118725000D01*
X168294298Y-118756589D01*
X167841700Y-118303991D01*
X167841700Y-114874607D01*
X167926012Y-115000789D01*
X167926015Y-115000792D01*
X167978444Y-115079257D01*
X168056909Y-115131686D01*
X171155681Y-118230459D01*
X171108191Y-118262191D01*
X170967843Y-118472235D01*
X170918560Y-118720000D01*
X170918560Y-120520000D01*
X170967843Y-120767765D01*
X171108191Y-120977809D01*
X171318235Y-121118157D01*
X171566000Y-121167440D01*
X173366000Y-121167440D01*
X173613765Y-121118157D01*
X173823809Y-120977809D01*
X173964157Y-120767765D01*
X174013440Y-120520000D01*
X174013440Y-118720000D01*
X173964157Y-118472235D01*
X173823809Y-118262191D01*
X173613765Y-118121843D01*
X173397792Y-118078884D01*
X173351272Y-117845009D01*
X173286539Y-117748129D01*
X173195988Y-117612610D01*
X173195986Y-117612608D01*
X173143557Y-117534143D01*
X173065092Y-117481714D01*
X169595800Y-114012423D01*
X169595800Y-111097905D01*
X169690577Y-111034577D01*
X170007740Y-110559909D01*
X170119113Y-110000000D01*
X170007740Y-109440091D01*
X169690577Y-108965423D01*
X169595800Y-108902095D01*
X169595800Y-103831036D01*
X170752193Y-103831036D01*
X170782518Y-104321413D01*
X170874505Y-104543490D01*
X170801843Y-104652235D01*
X170752560Y-104900000D01*
X170752560Y-106100000D01*
X170801843Y-106347765D01*
X170942191Y-106557809D01*
X171152235Y-106698157D01*
X171400000Y-106747440D01*
X172600000Y-106747440D01*
X172847765Y-106698157D01*
X172975918Y-106612527D01*
X173168500Y-106805110D01*
X173168501Y-109050689D01*
X171996440Y-110222751D01*
X171934943Y-110263842D01*
X171893852Y-110325339D01*
X171893849Y-110325342D01*
X171772139Y-110507494D01*
X171746905Y-110634356D01*
X171359327Y-110893327D01*
X171020062Y-111401073D01*
X170900928Y-112000000D01*
X171020062Y-112598927D01*
X171359327Y-113106673D01*
X171867073Y-113445938D01*
X172314818Y-113535000D01*
X172617182Y-113535000D01*
X173064927Y-113445938D01*
X173572673Y-113106673D01*
X173911938Y-112598927D01*
X174031072Y-112000000D01*
X173911938Y-111401073D01*
X173572673Y-110893327D01*
X173474727Y-110827882D01*
X174374660Y-109927950D01*
X174436158Y-109886858D01*
X174477249Y-109825361D01*
X174477251Y-109825359D01*
X174598961Y-109643207D01*
X174601628Y-109629800D01*
X174641700Y-109428344D01*
X174641700Y-109428341D01*
X174656129Y-109355800D01*
X174641700Y-109283260D01*
X174641700Y-107236600D01*
X176035399Y-107236600D01*
X176113914Y-107426153D01*
X176573847Y-107886086D01*
X177174778Y-108135000D01*
X177825222Y-108135000D01*
X178426153Y-107886086D01*
X178886086Y-107426153D01*
X179135000Y-106825222D01*
X179135000Y-106174778D01*
X182365000Y-106174778D01*
X182365000Y-106825222D01*
X182613914Y-107426153D01*
X183073847Y-107886086D01*
X183674778Y-108135000D01*
X184325222Y-108135000D01*
X184926153Y-107886086D01*
X185386086Y-107426153D01*
X185635000Y-106825222D01*
X185635000Y-106174778D01*
X185386086Y-105573847D01*
X184926153Y-105113914D01*
X184325222Y-104865000D01*
X183674778Y-104865000D01*
X183073847Y-105113914D01*
X182613914Y-105573847D01*
X182365000Y-106174778D01*
X179135000Y-106174778D01*
X178886086Y-105573847D01*
X178426153Y-105113914D01*
X177825222Y-104865000D01*
X177174778Y-104865000D01*
X176573847Y-105113914D01*
X176113914Y-105573847D01*
X176035399Y-105763400D01*
X174210210Y-105763400D01*
X173477251Y-105030442D01*
X173436158Y-104968942D01*
X173234328Y-104834083D01*
X173198157Y-104652235D01*
X173121291Y-104537198D01*
X173247807Y-104168964D01*
X173217482Y-103678587D01*
X173088164Y-103366383D01*
X172862735Y-103316870D01*
X172179605Y-104000000D01*
X172193748Y-104014143D01*
X172014143Y-104193748D01*
X172000000Y-104179605D01*
X171985858Y-104193748D01*
X171806253Y-104014143D01*
X171820395Y-104000000D01*
X171137265Y-103316870D01*
X170911836Y-103366383D01*
X170752193Y-103831036D01*
X169595800Y-103831036D01*
X169595800Y-103137265D01*
X171316870Y-103137265D01*
X172000000Y-103820395D01*
X172667863Y-103152532D01*
X176527073Y-103152532D01*
X176625736Y-103419387D01*
X177235461Y-103645908D01*
X177885460Y-103621856D01*
X178374264Y-103419387D01*
X178472927Y-103152532D01*
X183027073Y-103152532D01*
X183125736Y-103419387D01*
X183735461Y-103645908D01*
X184385460Y-103621856D01*
X184874264Y-103419387D01*
X184972927Y-103152532D01*
X184000000Y-102179605D01*
X183027073Y-103152532D01*
X178472927Y-103152532D01*
X177500000Y-102179605D01*
X176527073Y-103152532D01*
X172667863Y-103152532D01*
X172683130Y-103137265D01*
X172633617Y-102911836D01*
X172168964Y-102752193D01*
X171678587Y-102782518D01*
X171366383Y-102911836D01*
X171316870Y-103137265D01*
X169595800Y-103137265D01*
X169595800Y-101735461D01*
X175854092Y-101735461D01*
X175878144Y-102385460D01*
X176080613Y-102874264D01*
X176347468Y-102972927D01*
X177320395Y-102000000D01*
X177679605Y-102000000D01*
X178652532Y-102972927D01*
X178919387Y-102874264D01*
X179145908Y-102264539D01*
X179126331Y-101735461D01*
X182354092Y-101735461D01*
X182378144Y-102385460D01*
X182580613Y-102874264D01*
X182847468Y-102972927D01*
X183820395Y-102000000D01*
X184179605Y-102000000D01*
X185152532Y-102972927D01*
X185419387Y-102874264D01*
X185645908Y-102264539D01*
X185621856Y-101614540D01*
X185419387Y-101125736D01*
X185152532Y-101027073D01*
X184179605Y-102000000D01*
X183820395Y-102000000D01*
X182847468Y-101027073D01*
X182580613Y-101125736D01*
X182354092Y-101735461D01*
X179126331Y-101735461D01*
X179121856Y-101614540D01*
X178919387Y-101125736D01*
X178652532Y-101027073D01*
X177679605Y-102000000D01*
X177320395Y-102000000D01*
X176347468Y-101027073D01*
X176080613Y-101125736D01*
X175854092Y-101735461D01*
X169595800Y-101735461D01*
X169595800Y-100847468D01*
X176527073Y-100847468D01*
X177500000Y-101820395D01*
X178472927Y-100847468D01*
X183027073Y-100847468D01*
X184000000Y-101820395D01*
X184972927Y-100847468D01*
X184874264Y-100580613D01*
X184264539Y-100354092D01*
X183614540Y-100378144D01*
X183125736Y-100580613D01*
X183027073Y-100847468D01*
X178472927Y-100847468D01*
X178374264Y-100580613D01*
X177764539Y-100354092D01*
X177114540Y-100378144D01*
X176625736Y-100580613D01*
X176527073Y-100847468D01*
X169595800Y-100847468D01*
X169595800Y-100741577D01*
X171679092Y-98658286D01*
X171757557Y-98605857D01*
X171809986Y-98527392D01*
X171809988Y-98527390D01*
X171918909Y-98364377D01*
X171965272Y-98294991D01*
X171981402Y-98213900D01*
X173184504Y-98213900D01*
X173187138Y-98216534D01*
X173714561Y-98435000D01*
X174285439Y-98435000D01*
X174812862Y-98216534D01*
X175216534Y-97812862D01*
X175435000Y-97285439D01*
X175435000Y-96714561D01*
X175216534Y-96187138D01*
X174812862Y-95783466D01*
X174747701Y-95756475D01*
X174754005Y-95753864D01*
X174828139Y-95507745D01*
X174000000Y-94679605D01*
X173171861Y-95507745D01*
X173245995Y-95753864D01*
X173252746Y-95756290D01*
X173187138Y-95783466D01*
X172783466Y-96187138D01*
X172722509Y-96334300D01*
X172486284Y-96334300D01*
X172431740Y-96060091D01*
X172122899Y-95597878D01*
X172664312Y-95056465D01*
X172746136Y-95254005D01*
X172992255Y-95328139D01*
X173820395Y-94500000D01*
X174179605Y-94500000D01*
X175007745Y-95328139D01*
X175253864Y-95254005D01*
X175446965Y-94716777D01*
X175419778Y-94146546D01*
X175253864Y-93745995D01*
X175007745Y-93671861D01*
X174179605Y-94500000D01*
X173820395Y-94500000D01*
X173806253Y-94485858D01*
X173985858Y-94306252D01*
X174000000Y-94320395D01*
X174828139Y-93492255D01*
X174754005Y-93246136D01*
X174216777Y-93053035D01*
X173795200Y-93073135D01*
X173795200Y-70525431D01*
X180215000Y-70525431D01*
X180215000Y-71414569D01*
X180555259Y-72236026D01*
X181183974Y-72864741D01*
X182005431Y-73205000D01*
X182894569Y-73205000D01*
X183716026Y-72864741D01*
X184344741Y-72236026D01*
X184685000Y-71414569D01*
X184685000Y-70525431D01*
X184344741Y-69703974D01*
X183716026Y-69075259D01*
X182894569Y-68735000D01*
X182005431Y-68735000D01*
X181183974Y-69075259D01*
X180555259Y-69703974D01*
X180215000Y-70525431D01*
X173795200Y-70525431D01*
X173795200Y-61947954D01*
X173813610Y-61855400D01*
X173795200Y-61762846D01*
X173795200Y-61762841D01*
X173740672Y-61488709D01*
X173691605Y-61415275D01*
X173585388Y-61256310D01*
X173585386Y-61256308D01*
X173532957Y-61177843D01*
X173454492Y-61125414D01*
X165435000Y-53105923D01*
X165435000Y-52714561D01*
X165400181Y-52630500D01*
X176413560Y-52630500D01*
X176486100Y-52644929D01*
X176558640Y-52630500D01*
X176558644Y-52630500D01*
X176773507Y-52587761D01*
X177017158Y-52424958D01*
X177058251Y-52363458D01*
X177349848Y-52071861D01*
X177435950Y-52504725D01*
X177767170Y-53000430D01*
X178050881Y-53190000D01*
X177767170Y-53379570D01*
X177435950Y-53875275D01*
X177319641Y-54460000D01*
X177435950Y-55044725D01*
X177767170Y-55540430D01*
X178050881Y-55730000D01*
X177767170Y-55919570D01*
X177435950Y-56415275D01*
X177319641Y-57000000D01*
X177435950Y-57584725D01*
X177767170Y-58080430D01*
X178050881Y-58270000D01*
X177767170Y-58459570D01*
X177435950Y-58955275D01*
X177319641Y-59540000D01*
X177435950Y-60124725D01*
X177767170Y-60620430D01*
X178262875Y-60951650D01*
X178700002Y-61038600D01*
X179299998Y-61038600D01*
X179737125Y-60951650D01*
X180232830Y-60620430D01*
X180564050Y-60124725D01*
X180680359Y-59540000D01*
X180564050Y-58955275D01*
X180232830Y-58459570D01*
X179949119Y-58270000D01*
X180232830Y-58080430D01*
X180564050Y-57584725D01*
X180680359Y-57000000D01*
X180564050Y-56415275D01*
X180232830Y-55919570D01*
X179949119Y-55730000D01*
X180232830Y-55540430D01*
X180564050Y-55044725D01*
X180680359Y-54460000D01*
X180564050Y-53875275D01*
X180232830Y-53379570D01*
X179949119Y-53190000D01*
X180232830Y-53000430D01*
X180564050Y-52504725D01*
X180680359Y-51920000D01*
X180564050Y-51335275D01*
X180232830Y-50839570D01*
X179949119Y-50650000D01*
X180232830Y-50460430D01*
X180564050Y-49964725D01*
X180680359Y-49380000D01*
X180564050Y-48795275D01*
X180233633Y-48300772D01*
X180375698Y-48241927D01*
X180554327Y-48063299D01*
X180651000Y-47829910D01*
X180651000Y-47125750D01*
X180492250Y-46967000D01*
X179127000Y-46967000D01*
X179127000Y-46987000D01*
X178873000Y-46987000D01*
X178873000Y-46967000D01*
X177507750Y-46967000D01*
X177349000Y-47125750D01*
X177349000Y-47829910D01*
X177445673Y-48063299D01*
X177624302Y-48241927D01*
X177766367Y-48300772D01*
X177435950Y-48795275D01*
X177319641Y-49380000D01*
X177429320Y-49931394D01*
X177361741Y-49976549D01*
X177361739Y-49976551D01*
X177300242Y-50017642D01*
X177259150Y-50079140D01*
X176180991Y-51157300D01*
X165288624Y-51157300D01*
X165446965Y-50716777D01*
X165419778Y-50146546D01*
X165253864Y-49745995D01*
X165007745Y-49671861D01*
X164179605Y-50500000D01*
X164193748Y-50514142D01*
X164014142Y-50693748D01*
X164000000Y-50679605D01*
X163985858Y-50693748D01*
X163806252Y-50514142D01*
X163820395Y-50500000D01*
X162992255Y-49671861D01*
X162746136Y-49745995D01*
X162553035Y-50283223D01*
X162580222Y-50853454D01*
X162746136Y-51254005D01*
X162986206Y-51326317D01*
X162931542Y-51362842D01*
X162890450Y-51424340D01*
X162331940Y-51982851D01*
X162270443Y-52023942D01*
X162229352Y-52085439D01*
X162229349Y-52085442D01*
X162107639Y-52267594D01*
X162050471Y-52555000D01*
X162064901Y-52627545D01*
X162064901Y-53552231D01*
X161639909Y-53268260D01*
X161221333Y-53185000D01*
X160938667Y-53185000D01*
X160520091Y-53268260D01*
X160045423Y-53585423D01*
X159810000Y-53937758D01*
X159574577Y-53585423D01*
X159099909Y-53268260D01*
X158681333Y-53185000D01*
X158398667Y-53185000D01*
X157980091Y-53268260D01*
X157505423Y-53585423D01*
X157270000Y-53937758D01*
X157034577Y-53585423D01*
X156559909Y-53268260D01*
X156141333Y-53185000D01*
X155858667Y-53185000D01*
X155440091Y-53268260D01*
X154965423Y-53585423D01*
X154730000Y-53937758D01*
X154494577Y-53585423D01*
X154019909Y-53268260D01*
X153601333Y-53185000D01*
X153318667Y-53185000D01*
X152900091Y-53268260D01*
X152425423Y-53585423D01*
X152190000Y-53937758D01*
X151954577Y-53585423D01*
X151479909Y-53268260D01*
X151061333Y-53185000D01*
X150778667Y-53185000D01*
X150360091Y-53268260D01*
X149885423Y-53585423D01*
X149650000Y-53937758D01*
X149414577Y-53585423D01*
X148939909Y-53268260D01*
X148521333Y-53185000D01*
X148238667Y-53185000D01*
X147820091Y-53268260D01*
X147345423Y-53585423D01*
X147110000Y-53937758D01*
X146874577Y-53585423D01*
X146399909Y-53268260D01*
X145981333Y-53185000D01*
X145698667Y-53185000D01*
X145403000Y-53243812D01*
X145403000Y-49583809D01*
X145494554Y-49492255D01*
X163171861Y-49492255D01*
X164000000Y-50320395D01*
X164828139Y-49492255D01*
X164754005Y-49246136D01*
X164216777Y-49053035D01*
X163646546Y-49080222D01*
X163245995Y-49246136D01*
X163171861Y-49492255D01*
X145494554Y-49492255D01*
X146309560Y-48677250D01*
X146371058Y-48636158D01*
X146412149Y-48574661D01*
X146412151Y-48574659D01*
X146533861Y-48392507D01*
X146560654Y-48257809D01*
X146563745Y-48242268D01*
X146874577Y-48034577D01*
X147110000Y-47682242D01*
X147345423Y-48034577D01*
X147820091Y-48351740D01*
X148238667Y-48435000D01*
X148521333Y-48435000D01*
X148939909Y-48351740D01*
X149414577Y-48034577D01*
X149670947Y-47650892D01*
X149767611Y-47855134D01*
X150182577Y-48231041D01*
X150570961Y-48391904D01*
X150793000Y-48269915D01*
X150793000Y-47127000D01*
X151047000Y-47127000D01*
X151047000Y-48269915D01*
X151269039Y-48391904D01*
X151657423Y-48231041D01*
X152072389Y-47855134D01*
X152190000Y-47606633D01*
X152307611Y-47855134D01*
X152722577Y-48231041D01*
X153110961Y-48391904D01*
X153333000Y-48269915D01*
X153333000Y-47127000D01*
X151047000Y-47127000D01*
X150793000Y-47127000D01*
X150773000Y-47127000D01*
X150773000Y-46873000D01*
X150793000Y-46873000D01*
X150793000Y-45730085D01*
X151047000Y-45730085D01*
X151047000Y-46873000D01*
X153333000Y-46873000D01*
X153333000Y-45730085D01*
X153587000Y-45730085D01*
X153587000Y-46873000D01*
X153607000Y-46873000D01*
X153607000Y-47127000D01*
X153587000Y-47127000D01*
X153587000Y-48269915D01*
X153809039Y-48391904D01*
X154197423Y-48231041D01*
X154612389Y-47855134D01*
X154709053Y-47650892D01*
X154965423Y-48034577D01*
X155440091Y-48351740D01*
X155858667Y-48435000D01*
X156141333Y-48435000D01*
X156559909Y-48351740D01*
X157034577Y-48034577D01*
X157270000Y-47682242D01*
X157505423Y-48034577D01*
X157980091Y-48351740D01*
X158398667Y-48435000D01*
X158681333Y-48435000D01*
X159099909Y-48351740D01*
X159574577Y-48034577D01*
X159655215Y-47913894D01*
X159681843Y-48047765D01*
X159822191Y-48257809D01*
X160032235Y-48398157D01*
X160280000Y-48447440D01*
X161880000Y-48447440D01*
X162127765Y-48398157D01*
X162337809Y-48257809D01*
X162478157Y-48047765D01*
X162527440Y-47800000D01*
X162527440Y-46200000D01*
X162478157Y-45952235D01*
X162409906Y-45850090D01*
X177349000Y-45850090D01*
X177349000Y-46554250D01*
X177507750Y-46713000D01*
X178873000Y-46713000D01*
X178873000Y-45500150D01*
X179127000Y-45500150D01*
X179127000Y-46713000D01*
X180492250Y-46713000D01*
X180651000Y-46554250D01*
X180651000Y-45850090D01*
X180554327Y-45616701D01*
X180375698Y-45438073D01*
X180142309Y-45341400D01*
X179285750Y-45341400D01*
X179127000Y-45500150D01*
X178873000Y-45500150D01*
X178714250Y-45341400D01*
X177857691Y-45341400D01*
X177624302Y-45438073D01*
X177445673Y-45616701D01*
X177349000Y-45850090D01*
X162409906Y-45850090D01*
X162337809Y-45742191D01*
X162127765Y-45601843D01*
X161880000Y-45552560D01*
X160280000Y-45552560D01*
X160032235Y-45601843D01*
X159822191Y-45742191D01*
X159681843Y-45952235D01*
X159655215Y-46086106D01*
X159574577Y-45965423D01*
X159099909Y-45648260D01*
X158681333Y-45565000D01*
X158398667Y-45565000D01*
X157980091Y-45648260D01*
X157505423Y-45965423D01*
X157270000Y-46317758D01*
X157034577Y-45965423D01*
X156559909Y-45648260D01*
X156141333Y-45565000D01*
X155858667Y-45565000D01*
X155440091Y-45648260D01*
X154965423Y-45965423D01*
X154709053Y-46349108D01*
X154612389Y-46144866D01*
X154197423Y-45768959D01*
X153809039Y-45608096D01*
X153587000Y-45730085D01*
X153333000Y-45730085D01*
X153110961Y-45608096D01*
X152722577Y-45768959D01*
X152307611Y-46144866D01*
X152190000Y-46393367D01*
X152072389Y-46144866D01*
X151657423Y-45768959D01*
X151269039Y-45608096D01*
X151047000Y-45730085D01*
X150793000Y-45730085D01*
X150570961Y-45608096D01*
X150182577Y-45768959D01*
X149767611Y-46144866D01*
X149670947Y-46349108D01*
X149414577Y-45965423D01*
X148939909Y-45648260D01*
X148521333Y-45565000D01*
X148238667Y-45565000D01*
X147820091Y-45648260D01*
X147345423Y-45965423D01*
X147110000Y-46317758D01*
X146874577Y-45965423D01*
X146399909Y-45648260D01*
X145981333Y-45565000D01*
X145698667Y-45565000D01*
X145280091Y-45648260D01*
X144805423Y-45965423D01*
X144549053Y-46349108D01*
X144452389Y-46144866D01*
X144037423Y-45768959D01*
X143649039Y-45608096D01*
X143427000Y-45730085D01*
X143427000Y-46873000D01*
X143447000Y-46873000D01*
X143447000Y-47127000D01*
X143427000Y-47127000D01*
X143427000Y-48269915D01*
X143649039Y-48391904D01*
X144037423Y-48231041D01*
X144452389Y-47855134D01*
X144549053Y-47650892D01*
X144805423Y-48034577D01*
X144843423Y-48059968D01*
X144196842Y-48706549D01*
X144135342Y-48747642D01*
X143972539Y-48991294D01*
X143929800Y-49206157D01*
X143929800Y-49206160D01*
X143915371Y-49278700D01*
X143929800Y-49351240D01*
X143929800Y-53314960D01*
X143859909Y-53268260D01*
X143441333Y-53185000D01*
X143158667Y-53185000D01*
X142740091Y-53268260D01*
X142265423Y-53585423D01*
X141948260Y-54060091D01*
X141836887Y-54620000D01*
X141948260Y-55179909D01*
X142265423Y-55654577D01*
X142740091Y-55971740D01*
X143158667Y-56055000D01*
X143441333Y-56055000D01*
X143859909Y-55971740D01*
X143929801Y-55925040D01*
X143929801Y-57159789D01*
X143370440Y-57719151D01*
X143308943Y-57760242D01*
X143267852Y-57821739D01*
X143267849Y-57821742D01*
X143146139Y-58003894D01*
X143119212Y-58139264D01*
X142759570Y-58379570D01*
X142428350Y-58875275D01*
X142312041Y-59460000D01*
X142428350Y-60044725D01*
X142759570Y-60540430D01*
X143043281Y-60730000D01*
X142759570Y-60919570D01*
X142428350Y-61415275D01*
X142312041Y-62000000D01*
X142428350Y-62584725D01*
X142759570Y-63080430D01*
X143255275Y-63411650D01*
X143692402Y-63498600D01*
X143987598Y-63498600D01*
X144424725Y-63411650D01*
X144920430Y-63080430D01*
X145110000Y-62796719D01*
X145299570Y-63080430D01*
X145795275Y-63411650D01*
X146232402Y-63498600D01*
X146527598Y-63498600D01*
X146964725Y-63411650D01*
X147460430Y-63080430D01*
X147650000Y-62796719D01*
X147839570Y-63080430D01*
X148335275Y-63411650D01*
X148772402Y-63498600D01*
X149067598Y-63498600D01*
X149504725Y-63411650D01*
X150000430Y-63080430D01*
X150190000Y-62796719D01*
X150379570Y-63080430D01*
X150516119Y-63171669D01*
X150468971Y-63408700D01*
X150483401Y-63481245D01*
X150483400Y-65766321D01*
X150258213Y-65916786D01*
X150257561Y-65916351D01*
X149709651Y-65368442D01*
X149668558Y-65306942D01*
X149424907Y-65144139D01*
X149210044Y-65101400D01*
X149210040Y-65101400D01*
X149137500Y-65086971D01*
X149064960Y-65101400D01*
X148250640Y-65101400D01*
X148178099Y-65086971D01*
X148105559Y-65101400D01*
X148105556Y-65101400D01*
X147906444Y-65141006D01*
X147890693Y-65144139D01*
X147708541Y-65265849D01*
X147708539Y-65265851D01*
X147647042Y-65306942D01*
X147605950Y-65368440D01*
X147075301Y-65899089D01*
X146699909Y-65648260D01*
X146281333Y-65565000D01*
X145998667Y-65565000D01*
X145580091Y-65648260D01*
X145105423Y-65965423D01*
X144870000Y-66317758D01*
X144634577Y-65965423D01*
X144159909Y-65648260D01*
X143741333Y-65565000D01*
X143458667Y-65565000D01*
X143040091Y-65648260D01*
X142565423Y-65965423D01*
X142293355Y-66372601D01*
X142216534Y-66187138D01*
X141812862Y-65783466D01*
X141285439Y-65565000D01*
X140714561Y-65565000D01*
X140187138Y-65783466D01*
X139783466Y-66187138D01*
X139565000Y-66714561D01*
X139565000Y-67285439D01*
X139783466Y-67812862D01*
X140187138Y-68216534D01*
X140252299Y-68243525D01*
X140245995Y-68246136D01*
X140171861Y-68492255D01*
X141000000Y-69320395D01*
X141828139Y-68492255D01*
X141754005Y-68246136D01*
X141747254Y-68243710D01*
X141812862Y-68216534D01*
X142216534Y-67812862D01*
X142293355Y-67627399D01*
X142565423Y-68034577D01*
X142660201Y-68097905D01*
X142660201Y-68215737D01*
X142641789Y-68308300D01*
X142714728Y-68674991D01*
X142922443Y-68985857D01*
X143233309Y-69193572D01*
X143422300Y-69231165D01*
X143422301Y-74748621D01*
X138424538Y-79746385D01*
X138419778Y-79646546D01*
X138253864Y-79245995D01*
X138007745Y-79171861D01*
X137179605Y-80000000D01*
X137193748Y-80014143D01*
X137014143Y-80193748D01*
X137000000Y-80179605D01*
X136985858Y-80193748D01*
X136806253Y-80014143D01*
X136820395Y-80000000D01*
X136806253Y-79985858D01*
X136985858Y-79806252D01*
X137000000Y-79820395D01*
X137828139Y-78992255D01*
X137754005Y-78746136D01*
X137216777Y-78553035D01*
X136646546Y-78580222D01*
X136584000Y-78606129D01*
X136584000Y-70507745D01*
X140171861Y-70507745D01*
X140245995Y-70753864D01*
X140783223Y-70946965D01*
X141353454Y-70919778D01*
X141754005Y-70753864D01*
X141828139Y-70507745D01*
X141000000Y-69679605D01*
X140171861Y-70507745D01*
X136584000Y-70507745D01*
X136584000Y-69283223D01*
X139553035Y-69283223D01*
X139580222Y-69853454D01*
X139746136Y-70254005D01*
X139992255Y-70328139D01*
X140820395Y-69500000D01*
X141179605Y-69500000D01*
X142007745Y-70328139D01*
X142253864Y-70254005D01*
X142446965Y-69716777D01*
X142419778Y-69146546D01*
X142253864Y-68745995D01*
X142007745Y-68671861D01*
X141179605Y-69500000D01*
X140820395Y-69500000D01*
X139992255Y-68671861D01*
X139746136Y-68745995D01*
X139553035Y-69283223D01*
X136584000Y-69283223D01*
X136584000Y-66611940D01*
X136598429Y-66539400D01*
X136584000Y-66466857D01*
X136584000Y-66466856D01*
X136541261Y-66251993D01*
X136497926Y-66187138D01*
X136419551Y-66069841D01*
X136419549Y-66069839D01*
X136378458Y-66008342D01*
X136316961Y-65967251D01*
X135720251Y-65370542D01*
X135679158Y-65309042D01*
X135435507Y-65146239D01*
X135220644Y-65103500D01*
X135220640Y-65103500D01*
X135148100Y-65089071D01*
X135075560Y-65103500D01*
X133786600Y-65103500D01*
X133786600Y-63357013D01*
X134178667Y-63435000D01*
X134461333Y-63435000D01*
X134879909Y-63351740D01*
X135354577Y-63034577D01*
X135671740Y-62559909D01*
X135673995Y-62548575D01*
X135783466Y-62812862D01*
X136187138Y-63216534D01*
X136714561Y-63435000D01*
X137285439Y-63435000D01*
X137812862Y-63216534D01*
X138216534Y-62812862D01*
X138435000Y-62285439D01*
X138435000Y-61714561D01*
X138216534Y-61187138D01*
X137812862Y-60783466D01*
X137747701Y-60756475D01*
X137754005Y-60753864D01*
X137828139Y-60507745D01*
X137000000Y-59679605D01*
X136171861Y-60507745D01*
X136245995Y-60753864D01*
X136252746Y-60756290D01*
X136187138Y-60783466D01*
X135783466Y-61187138D01*
X135673995Y-61451425D01*
X135671740Y-61440091D01*
X135354577Y-60965423D01*
X134879909Y-60648260D01*
X134461333Y-60565000D01*
X134178667Y-60565000D01*
X133786600Y-60642987D01*
X133786600Y-59283223D01*
X135553035Y-59283223D01*
X135580222Y-59853454D01*
X135746136Y-60254005D01*
X135992255Y-60328139D01*
X136820395Y-59500000D01*
X137179605Y-59500000D01*
X138007745Y-60328139D01*
X138253864Y-60254005D01*
X138446965Y-59716777D01*
X138419778Y-59146546D01*
X138253864Y-58745995D01*
X138007745Y-58671861D01*
X137179605Y-59500000D01*
X136820395Y-59500000D01*
X135992255Y-58671861D01*
X135746136Y-58745995D01*
X135553035Y-59283223D01*
X133786600Y-59283223D01*
X133786600Y-58492255D01*
X136171861Y-58492255D01*
X137000000Y-59320395D01*
X137828139Y-58492255D01*
X137754005Y-58246136D01*
X137216777Y-58053035D01*
X136646546Y-58080222D01*
X136245995Y-58246136D01*
X136171861Y-58492255D01*
X133786600Y-58492255D01*
X133786600Y-49207640D01*
X133801029Y-49135099D01*
X133786600Y-49062559D01*
X133786600Y-49062556D01*
X133743861Y-48847693D01*
X133677009Y-48747642D01*
X133622151Y-48665541D01*
X133622149Y-48665539D01*
X133581058Y-48604042D01*
X133519560Y-48562950D01*
X132776577Y-47819968D01*
X132814577Y-47794577D01*
X132895215Y-47673894D01*
X132921843Y-47807765D01*
X133062191Y-48017809D01*
X133272235Y-48158157D01*
X133520000Y-48207440D01*
X135120000Y-48207440D01*
X135367765Y-48158157D01*
X135577809Y-48017809D01*
X135718157Y-47807765D01*
X135767440Y-47560000D01*
X135767440Y-47349041D01*
X141908086Y-47349041D01*
X142147611Y-47855134D01*
X142562577Y-48231041D01*
X142950961Y-48391904D01*
X143173000Y-48269915D01*
X143173000Y-47127000D01*
X142029371Y-47127000D01*
X141908086Y-47349041D01*
X135767440Y-47349041D01*
X135767440Y-46650959D01*
X141908086Y-46650959D01*
X142029371Y-46873000D01*
X143173000Y-46873000D01*
X143173000Y-45730085D01*
X142950961Y-45608096D01*
X142562577Y-45768959D01*
X142147611Y-46144866D01*
X141908086Y-46650959D01*
X135767440Y-46650959D01*
X135767440Y-45960000D01*
X135718157Y-45712235D01*
X135577809Y-45502191D01*
X135367765Y-45361843D01*
X135120000Y-45312560D01*
X133520000Y-45312560D01*
X133272235Y-45361843D01*
X133062191Y-45502191D01*
X132921843Y-45712235D01*
X132895215Y-45846106D01*
X132814577Y-45725423D01*
X132339909Y-45408260D01*
X131921333Y-45325000D01*
X131638667Y-45325000D01*
X131220091Y-45408260D01*
X130745423Y-45725423D01*
X130510000Y-46077758D01*
X130274577Y-45725423D01*
X129799909Y-45408260D01*
X129381333Y-45325000D01*
X129098667Y-45325000D01*
X128680091Y-45408260D01*
X128205423Y-45725423D01*
X127970000Y-46077758D01*
X127734577Y-45725423D01*
X127259909Y-45408260D01*
X126841333Y-45325000D01*
X126558667Y-45325000D01*
X126140091Y-45408260D01*
X125665423Y-45725423D01*
X125430000Y-46077758D01*
X125194577Y-45725423D01*
X124719909Y-45408260D01*
X124301333Y-45325000D01*
X124018667Y-45325000D01*
X123600091Y-45408260D01*
X123125423Y-45725423D01*
X122890000Y-46077758D01*
X122654577Y-45725423D01*
X122179909Y-45408260D01*
X121761333Y-45325000D01*
X121478667Y-45325000D01*
X121060091Y-45408260D01*
X120585423Y-45725423D01*
X120350000Y-46077758D01*
X120114577Y-45725423D01*
X119639909Y-45408260D01*
X119221333Y-45325000D01*
X118938667Y-45325000D01*
X118520091Y-45408260D01*
X118045423Y-45725423D01*
X117810000Y-46077758D01*
X117574577Y-45725423D01*
X117099909Y-45408260D01*
X116681333Y-45325000D01*
X116398667Y-45325000D01*
X115980091Y-45408260D01*
X115505423Y-45725423D01*
X115270000Y-46077758D01*
X115034577Y-45725423D01*
X114559909Y-45408260D01*
X114141333Y-45325000D01*
X113858667Y-45325000D01*
X113440091Y-45408260D01*
X112965423Y-45725423D01*
X112730000Y-46077758D01*
X112494577Y-45725423D01*
X112019909Y-45408260D01*
X111601333Y-45325000D01*
X111318667Y-45325000D01*
X110900091Y-45408260D01*
X110425423Y-45725423D01*
X110190000Y-46077758D01*
X109954577Y-45725423D01*
X109479909Y-45408260D01*
X109061333Y-45325000D01*
X108778667Y-45325000D01*
X108360091Y-45408260D01*
X107885423Y-45725423D01*
X107650000Y-46077758D01*
X107414577Y-45725423D01*
X106939909Y-45408260D01*
X106521333Y-45325000D01*
X106238667Y-45325000D01*
X105820091Y-45408260D01*
X105345423Y-45725423D01*
X105110000Y-46077758D01*
X104874577Y-45725423D01*
X104399909Y-45408260D01*
X103981333Y-45325000D01*
X103698667Y-45325000D01*
X103280091Y-45408260D01*
X102805423Y-45725423D01*
X102549053Y-46109108D01*
X102452389Y-45904866D01*
X102037423Y-45528959D01*
X101649039Y-45368096D01*
X101427000Y-45490085D01*
X101427000Y-46633000D01*
X101447000Y-46633000D01*
X101447000Y-46887000D01*
X101427000Y-46887000D01*
X101427000Y-48029915D01*
X101649039Y-48151904D01*
X102037423Y-47991041D01*
X102452389Y-47615134D01*
X102549053Y-47410892D01*
X102805423Y-47794577D01*
X102843423Y-47819968D01*
X102262040Y-48401351D01*
X102200543Y-48442442D01*
X102159452Y-48503939D01*
X102159449Y-48503942D01*
X102037739Y-48686094D01*
X101980571Y-48973500D01*
X101995001Y-49046045D01*
X101995000Y-60738525D01*
X101859909Y-60648260D01*
X101441333Y-60565000D01*
X101158667Y-60565000D01*
X100740091Y-60648260D01*
X100265423Y-60965423D01*
X99948260Y-61440091D01*
X99836887Y-62000000D01*
X99948260Y-62559909D01*
X100265423Y-63034577D01*
X100563401Y-63233679D01*
X100563400Y-64836460D01*
X100548971Y-64909000D01*
X100563400Y-64981540D01*
X100563400Y-64981543D01*
X100606139Y-65196406D01*
X100640840Y-65248339D01*
X100768942Y-65440058D01*
X100830442Y-65481151D01*
X101062765Y-65713474D01*
X100870961Y-65608096D01*
X100482577Y-65768959D01*
X100067611Y-66144866D01*
X99828086Y-66650959D01*
X99949371Y-66873000D01*
X101093000Y-66873000D01*
X101093000Y-66853000D01*
X101347000Y-66853000D01*
X101347000Y-66873000D01*
X101367000Y-66873000D01*
X101367000Y-67127000D01*
X101347000Y-67127000D01*
X101347000Y-68269915D01*
X101569039Y-68391904D01*
X101596601Y-68380488D01*
X101596600Y-79716590D01*
X100750440Y-80562751D01*
X100688943Y-80603842D01*
X100647852Y-80665339D01*
X100647849Y-80665342D01*
X100526139Y-80847494D01*
X100496255Y-80997732D01*
X100185423Y-81205423D01*
X99868260Y-81680091D01*
X99756887Y-82240000D01*
X99868260Y-82799909D01*
X100185423Y-83274577D01*
X100660091Y-83591740D01*
X101078667Y-83675000D01*
X101361333Y-83675000D01*
X101779909Y-83591740D01*
X102254577Y-83274577D01*
X102490000Y-82922242D01*
X102725423Y-83274577D01*
X103200091Y-83591740D01*
X103618667Y-83675000D01*
X103901333Y-83675000D01*
X104319909Y-83591740D01*
X104443000Y-83509493D01*
X104443000Y-84791260D01*
X104428571Y-84863800D01*
X104443000Y-84936340D01*
X104443000Y-84936343D01*
X104485739Y-85151206D01*
X104648542Y-85394858D01*
X104710042Y-85435951D01*
X106389001Y-87114911D01*
X106389000Y-91831623D01*
X105779800Y-91222423D01*
X105779800Y-89097905D01*
X105874577Y-89034577D01*
X106191740Y-88559909D01*
X106303113Y-88000000D01*
X106191740Y-87440091D01*
X105874577Y-86965423D01*
X105399909Y-86648260D01*
X104981333Y-86565000D01*
X104698667Y-86565000D01*
X104280091Y-86648260D01*
X103805423Y-86965423D01*
X103488260Y-87440091D01*
X103376887Y-88000000D01*
X103488260Y-88559909D01*
X103805423Y-89034577D01*
X103900201Y-89097905D01*
X103900201Y-89215738D01*
X103900200Y-89215742D01*
X103900201Y-91519141D01*
X103881790Y-91611700D01*
X103954729Y-91978392D01*
X104110012Y-92210789D01*
X104110015Y-92210792D01*
X104162444Y-92289257D01*
X104240908Y-92341685D01*
X104877101Y-92977878D01*
X104650000Y-93317758D01*
X104414577Y-92965423D01*
X103939909Y-92648260D01*
X103521333Y-92565000D01*
X103238667Y-92565000D01*
X102820091Y-92648260D01*
X102345423Y-92965423D01*
X102110000Y-93317758D01*
X101874577Y-92965423D01*
X101399909Y-92648260D01*
X100981333Y-92565000D01*
X100698667Y-92565000D01*
X100280091Y-92648260D01*
X99805423Y-92965423D01*
X99570000Y-93317758D01*
X99334577Y-92965423D01*
X98859909Y-92648260D01*
X98441333Y-92565000D01*
X98158667Y-92565000D01*
X97740091Y-92648260D01*
X97265423Y-92965423D01*
X96948260Y-93440091D01*
X96836887Y-94000000D01*
X96948260Y-94559909D01*
X97265423Y-95034577D01*
X97576255Y-95242268D01*
X97606139Y-95392506D01*
X97727849Y-95574658D01*
X97727852Y-95574661D01*
X97768943Y-95636158D01*
X97830440Y-95677249D01*
X98668500Y-96515309D01*
X98668501Y-107850186D01*
X98441333Y-107805000D01*
X98158667Y-107805000D01*
X97740091Y-107888260D01*
X97265423Y-108205423D01*
X96948260Y-108680091D01*
X96836887Y-109240000D01*
X96948260Y-109799909D01*
X97265423Y-110274577D01*
X97563401Y-110473679D01*
X97563400Y-113018491D01*
X96724640Y-113857251D01*
X96663143Y-113898342D01*
X96622052Y-113959839D01*
X96622049Y-113959842D01*
X96500339Y-114141994D01*
X96443171Y-114429400D01*
X89027000Y-114429400D01*
X89027000Y-70525431D01*
X91225000Y-70525431D01*
X91225000Y-71414569D01*
X91565259Y-72236026D01*
X92193974Y-72864741D01*
X93015431Y-73205000D01*
X93904569Y-73205000D01*
X94726026Y-72864741D01*
X95354741Y-72236026D01*
X95695000Y-71414569D01*
X95695000Y-70525431D01*
X95354741Y-69703974D01*
X94726026Y-69075259D01*
X93904569Y-68735000D01*
X93015431Y-68735000D01*
X92193974Y-69075259D01*
X91565259Y-69703974D01*
X91225000Y-70525431D01*
X89027000Y-70525431D01*
X89027000Y-67349041D01*
X99828086Y-67349041D01*
X100067611Y-67855134D01*
X100482577Y-68231041D01*
X100870961Y-68391904D01*
X101093000Y-68269915D01*
X101093000Y-67127000D01*
X99949371Y-67127000D01*
X99828086Y-67349041D01*
X89027000Y-67349041D01*
X89027000Y-47109041D01*
X99908086Y-47109041D01*
X100147611Y-47615134D01*
X100562577Y-47991041D01*
X100950961Y-48151904D01*
X101173000Y-48029915D01*
X101173000Y-46887000D01*
X100029371Y-46887000D01*
X99908086Y-47109041D01*
X89027000Y-47109041D01*
X89027000Y-46410959D01*
X99908086Y-46410959D01*
X100029371Y-46633000D01*
X101173000Y-46633000D01*
X101173000Y-45490085D01*
X100950961Y-45368096D01*
X100562577Y-45528959D01*
X100147611Y-45904866D01*
X99908086Y-46410959D01*
X89027000Y-46410959D01*
X89027000Y-42710000D01*
X187198000Y-42710000D01*
X187198000Y-140843000D01*
G36*
X166368501Y-118536555D02*
X166354071Y-118609100D01*
X166411239Y-118896506D01*
X166532949Y-119078658D01*
X166532952Y-119078661D01*
X166574043Y-119140158D01*
X166635540Y-119181249D01*
X167252589Y-119798298D01*
X167221000Y-119874561D01*
X167221000Y-120445439D01*
X167439466Y-120972862D01*
X167843138Y-121376534D01*
X167919401Y-121408123D01*
X167919400Y-123227391D01*
X167375994Y-123770797D01*
X167301310Y-123590493D01*
X166869507Y-123158690D01*
X166305330Y-122925000D01*
X165694670Y-122925000D01*
X165130493Y-123158690D01*
X164698690Y-123590493D01*
X164465000Y-124154670D01*
X164465000Y-124765330D01*
X164586311Y-125058200D01*
X163164738Y-125058200D01*
X163092199Y-125043771D01*
X163019660Y-125058200D01*
X163019656Y-125058200D01*
X162804793Y-125100939D01*
X162561142Y-125263742D01*
X162520049Y-125325242D01*
X157987689Y-129857602D01*
X157584725Y-129588350D01*
X157147598Y-129501400D01*
X156852402Y-129501400D01*
X156466600Y-129578141D01*
X156466600Y-124995996D01*
X156687138Y-125216534D01*
X157214561Y-125435000D01*
X157785439Y-125435000D01*
X158312862Y-125216534D01*
X158521651Y-125007745D01*
X159171861Y-125007745D01*
X159245995Y-125253864D01*
X159783223Y-125446965D01*
X160353454Y-125419778D01*
X160754005Y-125253864D01*
X160828139Y-125007745D01*
X160000000Y-124179605D01*
X159171861Y-125007745D01*
X158521651Y-125007745D01*
X158716534Y-124812862D01*
X158743525Y-124747701D01*
X158746136Y-124754005D01*
X158992255Y-124828139D01*
X159820395Y-124000000D01*
X160179605Y-124000000D01*
X161007745Y-124828139D01*
X161253864Y-124754005D01*
X161446965Y-124216777D01*
X161419778Y-123646546D01*
X161253864Y-123245995D01*
X161007745Y-123171861D01*
X160179605Y-124000000D01*
X159820395Y-124000000D01*
X158992255Y-123171861D01*
X158746136Y-123245995D01*
X158743710Y-123252746D01*
X158716534Y-123187138D01*
X158521651Y-122992255D01*
X159171861Y-122992255D01*
X160000000Y-123820395D01*
X160828139Y-122992255D01*
X160754005Y-122746136D01*
X160216777Y-122553035D01*
X159646546Y-122580222D01*
X159245995Y-122746136D01*
X159171861Y-122992255D01*
X158521651Y-122992255D01*
X158312862Y-122783466D01*
X157785439Y-122565000D01*
X157214561Y-122565000D01*
X156687138Y-122783466D01*
X156466600Y-123004004D01*
X156466600Y-122777609D01*
X159219560Y-120024649D01*
X159281058Y-119983558D01*
X159322149Y-119922061D01*
X159322151Y-119922059D01*
X159353888Y-119874561D01*
X163565000Y-119874561D01*
X163565000Y-120445439D01*
X163783466Y-120972862D01*
X164187138Y-121376534D01*
X164714561Y-121595000D01*
X165285439Y-121595000D01*
X165812862Y-121376534D01*
X166216534Y-120972862D01*
X166435000Y-120445439D01*
X166435000Y-119874561D01*
X166216534Y-119347138D01*
X165812862Y-118943466D01*
X165285439Y-118725000D01*
X164714561Y-118725000D01*
X164187138Y-118943466D01*
X163783466Y-119347138D01*
X163565000Y-119874561D01*
X159353888Y-119874561D01*
X159443861Y-119739907D01*
X159461302Y-119652224D01*
X159486600Y-119525044D01*
X159486600Y-119525041D01*
X159501029Y-119452500D01*
X159486600Y-119379960D01*
X159486600Y-119340347D01*
X159783223Y-119446965D01*
X160353454Y-119419778D01*
X160754005Y-119253864D01*
X160828139Y-119007745D01*
X160000000Y-118179605D01*
X159985858Y-118193748D01*
X159806253Y-118014143D01*
X159820395Y-118000000D01*
X160179605Y-118000000D01*
X161007745Y-118828139D01*
X161253864Y-118754005D01*
X161446965Y-118216777D01*
X161419778Y-117646546D01*
X161253864Y-117245995D01*
X161007745Y-117171861D01*
X160179605Y-118000000D01*
X159820395Y-118000000D01*
X159806253Y-117985858D01*
X159985858Y-117806252D01*
X160000000Y-117820395D01*
X160828139Y-116992255D01*
X160754005Y-116746136D01*
X160216777Y-116553035D01*
X159646546Y-116580222D01*
X159486600Y-116646474D01*
X159486600Y-115555109D01*
X162113460Y-112928249D01*
X162174958Y-112887158D01*
X162216049Y-112825661D01*
X162216051Y-112825659D01*
X162337761Y-112643507D01*
X162340500Y-112629739D01*
X162380500Y-112428644D01*
X162380500Y-112428641D01*
X162394929Y-112356100D01*
X162380500Y-112283560D01*
X162380500Y-112048809D01*
X163736836Y-110692473D01*
X163965423Y-111034577D01*
X164440091Y-111351740D01*
X164858667Y-111435000D01*
X165141333Y-111435000D01*
X165559909Y-111351740D01*
X166034577Y-111034577D01*
X166351740Y-110559909D01*
X166368501Y-110475647D01*
X166368501Y-118536555D01*
X166368501Y-118536555D01*
G37*
X166368501Y-118536555D02*
X166354071Y-118609100D01*
X166411239Y-118896506D01*
X166532949Y-119078658D01*
X166532952Y-119078661D01*
X166574043Y-119140158D01*
X166635540Y-119181249D01*
X167252589Y-119798298D01*
X167221000Y-119874561D01*
X167221000Y-120445439D01*
X167439466Y-120972862D01*
X167843138Y-121376534D01*
X167919401Y-121408123D01*
X167919400Y-123227391D01*
X167375994Y-123770797D01*
X167301310Y-123590493D01*
X166869507Y-123158690D01*
X166305330Y-122925000D01*
X165694670Y-122925000D01*
X165130493Y-123158690D01*
X164698690Y-123590493D01*
X164465000Y-124154670D01*
X164465000Y-124765330D01*
X164586311Y-125058200D01*
X163164738Y-125058200D01*
X163092199Y-125043771D01*
X163019660Y-125058200D01*
X163019656Y-125058200D01*
X162804793Y-125100939D01*
X162561142Y-125263742D01*
X162520049Y-125325242D01*
X157987689Y-129857602D01*
X157584725Y-129588350D01*
X157147598Y-129501400D01*
X156852402Y-129501400D01*
X156466600Y-129578141D01*
X156466600Y-124995996D01*
X156687138Y-125216534D01*
X157214561Y-125435000D01*
X157785439Y-125435000D01*
X158312862Y-125216534D01*
X158521651Y-125007745D01*
X159171861Y-125007745D01*
X159245995Y-125253864D01*
X159783223Y-125446965D01*
X160353454Y-125419778D01*
X160754005Y-125253864D01*
X160828139Y-125007745D01*
X160000000Y-124179605D01*
X159171861Y-125007745D01*
X158521651Y-125007745D01*
X158716534Y-124812862D01*
X158743525Y-124747701D01*
X158746136Y-124754005D01*
X158992255Y-124828139D01*
X159820395Y-124000000D01*
X160179605Y-124000000D01*
X161007745Y-124828139D01*
X161253864Y-124754005D01*
X161446965Y-124216777D01*
X161419778Y-123646546D01*
X161253864Y-123245995D01*
X161007745Y-123171861D01*
X160179605Y-124000000D01*
X159820395Y-124000000D01*
X158992255Y-123171861D01*
X158746136Y-123245995D01*
X158743710Y-123252746D01*
X158716534Y-123187138D01*
X158521651Y-122992255D01*
X159171861Y-122992255D01*
X160000000Y-123820395D01*
X160828139Y-122992255D01*
X160754005Y-122746136D01*
X160216777Y-122553035D01*
X159646546Y-122580222D01*
X159245995Y-122746136D01*
X159171861Y-122992255D01*
X158521651Y-122992255D01*
X158312862Y-122783466D01*
X157785439Y-122565000D01*
X157214561Y-122565000D01*
X156687138Y-122783466D01*
X156466600Y-123004004D01*
X156466600Y-122777609D01*
X159219560Y-120024649D01*
X159281058Y-119983558D01*
X159322149Y-119922061D01*
X159322151Y-119922059D01*
X159353888Y-119874561D01*
X163565000Y-119874561D01*
X163565000Y-120445439D01*
X163783466Y-120972862D01*
X164187138Y-121376534D01*
X164714561Y-121595000D01*
X165285439Y-121595000D01*
X165812862Y-121376534D01*
X166216534Y-120972862D01*
X166435000Y-120445439D01*
X166435000Y-119874561D01*
X166216534Y-119347138D01*
X165812862Y-118943466D01*
X165285439Y-118725000D01*
X164714561Y-118725000D01*
X164187138Y-118943466D01*
X163783466Y-119347138D01*
X163565000Y-119874561D01*
X159353888Y-119874561D01*
X159443861Y-119739907D01*
X159461302Y-119652224D01*
X159486600Y-119525044D01*
X159486600Y-119525041D01*
X159501029Y-119452500D01*
X159486600Y-119379960D01*
X159486600Y-119340347D01*
X159783223Y-119446965D01*
X160353454Y-119419778D01*
X160754005Y-119253864D01*
X160828139Y-119007745D01*
X160000000Y-118179605D01*
X159985858Y-118193748D01*
X159806253Y-118014143D01*
X159820395Y-118000000D01*
X160179605Y-118000000D01*
X161007745Y-118828139D01*
X161253864Y-118754005D01*
X161446965Y-118216777D01*
X161419778Y-117646546D01*
X161253864Y-117245995D01*
X161007745Y-117171861D01*
X160179605Y-118000000D01*
X159820395Y-118000000D01*
X159806253Y-117985858D01*
X159985858Y-117806252D01*
X160000000Y-117820395D01*
X160828139Y-116992255D01*
X160754005Y-116746136D01*
X160216777Y-116553035D01*
X159646546Y-116580222D01*
X159486600Y-116646474D01*
X159486600Y-115555109D01*
X162113460Y-112928249D01*
X162174958Y-112887158D01*
X162216049Y-112825661D01*
X162216051Y-112825659D01*
X162337761Y-112643507D01*
X162340500Y-112629739D01*
X162380500Y-112428644D01*
X162380500Y-112428641D01*
X162394929Y-112356100D01*
X162380500Y-112283560D01*
X162380500Y-112048809D01*
X163736836Y-110692473D01*
X163965423Y-111034577D01*
X164440091Y-111351740D01*
X164858667Y-111435000D01*
X165141333Y-111435000D01*
X165559909Y-111351740D01*
X166034577Y-111034577D01*
X166351740Y-110559909D01*
X166368501Y-110475647D01*
X166368501Y-118536555D01*
G36*
X131753141Y-119320249D02*
X131753139Y-119320251D01*
X131691642Y-119361342D01*
X131650551Y-119422840D01*
X129529002Y-121544388D01*
X129357423Y-121388959D01*
X128969039Y-121228096D01*
X128747000Y-121350085D01*
X128747000Y-122493000D01*
X128767000Y-122493000D01*
X128767000Y-122747000D01*
X128747000Y-122747000D01*
X128747000Y-122767000D01*
X128493000Y-122767000D01*
X128493000Y-122747000D01*
X128473000Y-122747000D01*
X128473000Y-122493000D01*
X128493000Y-122493000D01*
X128493000Y-121350085D01*
X128270961Y-121228096D01*
X128086600Y-121304456D01*
X128086600Y-120449309D01*
X128241809Y-120294100D01*
X128494326Y-120294100D01*
X128891088Y-120129756D01*
X129194756Y-119826088D01*
X129359100Y-119429326D01*
X129359100Y-119201600D01*
X131930712Y-119201600D01*
X131753141Y-119320249D01*
X131753141Y-119320249D01*
G37*
X131753141Y-119320249D02*
X131753139Y-119320251D01*
X131691642Y-119361342D01*
X131650551Y-119422840D01*
X129529002Y-121544388D01*
X129357423Y-121388959D01*
X128969039Y-121228096D01*
X128747000Y-121350085D01*
X128747000Y-122493000D01*
X128767000Y-122493000D01*
X128767000Y-122747000D01*
X128747000Y-122747000D01*
X128747000Y-122767000D01*
X128493000Y-122767000D01*
X128493000Y-122747000D01*
X128473000Y-122747000D01*
X128473000Y-122493000D01*
X128493000Y-122493000D01*
X128493000Y-121350085D01*
X128270961Y-121228096D01*
X128086600Y-121304456D01*
X128086600Y-120449309D01*
X128241809Y-120294100D01*
X128494326Y-120294100D01*
X128891088Y-120129756D01*
X129194756Y-119826088D01*
X129359100Y-119429326D01*
X129359100Y-119201600D01*
X131930712Y-119201600D01*
X131753141Y-119320249D01*
G36*
X135540342Y-120666342D02*
X135499250Y-120727840D01*
X134647672Y-121579418D01*
X134437423Y-121388959D01*
X134049039Y-121228096D01*
X133827000Y-121350085D01*
X133827000Y-122493000D01*
X133847000Y-122493000D01*
X133847000Y-122747000D01*
X133827000Y-122747000D01*
X133827000Y-122767000D01*
X133573000Y-122767000D01*
X133573000Y-122747000D01*
X133553000Y-122747000D01*
X133553000Y-122493000D01*
X133573000Y-122493000D01*
X133573000Y-121350085D01*
X133350961Y-121228096D01*
X132962577Y-121388959D01*
X132547611Y-121764866D01*
X132450947Y-121969108D01*
X132194577Y-121585423D01*
X131821002Y-121335808D01*
X132527810Y-120629000D01*
X135596228Y-120629000D01*
X135540342Y-120666342D01*
X135540342Y-120666342D01*
G37*
X135540342Y-120666342D02*
X135499250Y-120727840D01*
X134647672Y-121579418D01*
X134437423Y-121388959D01*
X134049039Y-121228096D01*
X133827000Y-121350085D01*
X133827000Y-122493000D01*
X133847000Y-122493000D01*
X133847000Y-122747000D01*
X133827000Y-122747000D01*
X133827000Y-122767000D01*
X133573000Y-122767000D01*
X133573000Y-122747000D01*
X133553000Y-122747000D01*
X133553000Y-122493000D01*
X133573000Y-122493000D01*
X133573000Y-121350085D01*
X133350961Y-121228096D01*
X132962577Y-121388959D01*
X132547611Y-121764866D01*
X132450947Y-121969108D01*
X132194577Y-121585423D01*
X131821002Y-121335808D01*
X132527810Y-120629000D01*
X135596228Y-120629000D01*
X135540342Y-120666342D01*
G36*
X98427000Y-114873000D02*
X98447000Y-114873000D01*
X98447000Y-115127000D01*
X98427000Y-115127000D01*
X98427000Y-116269915D01*
X98649039Y-116391904D01*
X98668501Y-116383843D01*
X98668501Y-117467455D01*
X98654071Y-117540000D01*
X98711239Y-117827406D01*
X98832949Y-118009558D01*
X98832952Y-118009561D01*
X98874043Y-118071058D01*
X98935540Y-118112149D01*
X102383423Y-121560032D01*
X102345423Y-121585423D01*
X102110000Y-121937758D01*
X101874577Y-121585423D01*
X101563745Y-121377732D01*
X101533861Y-121227493D01*
X101526701Y-121216777D01*
X101412151Y-121045341D01*
X101412149Y-121045339D01*
X101371058Y-120983842D01*
X101309561Y-120942751D01*
X97930800Y-117563991D01*
X97930800Y-116383554D01*
X97950961Y-116391904D01*
X98173000Y-116269915D01*
X98173000Y-115127000D01*
X98153000Y-115127000D01*
X98153000Y-114873000D01*
X98173000Y-114873000D01*
X98173000Y-114853000D01*
X98427000Y-114853000D01*
X98427000Y-114873000D01*
X98427000Y-114873000D01*
G37*
X98427000Y-114873000D02*
X98447000Y-114873000D01*
X98447000Y-115127000D01*
X98427000Y-115127000D01*
X98427000Y-116269915D01*
X98649039Y-116391904D01*
X98668501Y-116383843D01*
X98668501Y-117467455D01*
X98654071Y-117540000D01*
X98711239Y-117827406D01*
X98832949Y-118009558D01*
X98832952Y-118009561D01*
X98874043Y-118071058D01*
X98935540Y-118112149D01*
X102383423Y-121560032D01*
X102345423Y-121585423D01*
X102110000Y-121937758D01*
X101874577Y-121585423D01*
X101563745Y-121377732D01*
X101533861Y-121227493D01*
X101526701Y-121216777D01*
X101412151Y-121045341D01*
X101412149Y-121045339D01*
X101371058Y-120983842D01*
X101309561Y-120942751D01*
X97930800Y-117563991D01*
X97930800Y-116383554D01*
X97950961Y-116391904D01*
X98173000Y-116269915D01*
X98173000Y-115127000D01*
X98153000Y-115127000D01*
X98153000Y-114873000D01*
X98173000Y-114873000D01*
X98173000Y-114853000D01*
X98427000Y-114853000D01*
X98427000Y-114873000D01*
G36*
X121892339Y-110688506D02*
X122014049Y-110870658D01*
X122014052Y-110870661D01*
X122055143Y-110932158D01*
X122116640Y-110973249D01*
X125083423Y-113940032D01*
X125045423Y-113965423D01*
X124810000Y-114317758D01*
X124574577Y-113965423D01*
X124099909Y-113648260D01*
X123681333Y-113565000D01*
X123398667Y-113565000D01*
X122980091Y-113648260D01*
X122505423Y-113965423D01*
X122249053Y-114349108D01*
X122152389Y-114144866D01*
X121737423Y-113768959D01*
X121349039Y-113608096D01*
X121127000Y-113730085D01*
X121127000Y-114873000D01*
X121147000Y-114873000D01*
X121147000Y-115127000D01*
X121127000Y-115127000D01*
X121127000Y-116269915D01*
X121349039Y-116391904D01*
X121737423Y-116231041D01*
X122152389Y-115855134D01*
X122249053Y-115650892D01*
X122505423Y-116034577D01*
X122980091Y-116351740D01*
X123398667Y-116435000D01*
X123603290Y-116435000D01*
X118255963Y-121782328D01*
X118216534Y-121687138D01*
X117812862Y-121283466D01*
X117747701Y-121256475D01*
X117754005Y-121253864D01*
X117828139Y-121007745D01*
X117000000Y-120179605D01*
X116985858Y-120193748D01*
X116806253Y-120014143D01*
X116820395Y-120000000D01*
X117179605Y-120000000D01*
X118007745Y-120828139D01*
X118253864Y-120754005D01*
X118446965Y-120216777D01*
X118419778Y-119646546D01*
X118253864Y-119245995D01*
X118007745Y-119171861D01*
X117179605Y-120000000D01*
X116820395Y-120000000D01*
X116806253Y-119985858D01*
X116985858Y-119806253D01*
X117000000Y-119820395D01*
X117828139Y-118992255D01*
X117754005Y-118746136D01*
X117216777Y-118553035D01*
X116646546Y-118580222D01*
X116631400Y-118586496D01*
X116631400Y-117912609D01*
X119194968Y-115349041D01*
X119608086Y-115349041D01*
X119847611Y-115855134D01*
X120262577Y-116231041D01*
X120650961Y-116391904D01*
X120873000Y-116269915D01*
X120873000Y-115127000D01*
X119729371Y-115127000D01*
X119608086Y-115349041D01*
X119194968Y-115349041D01*
X119708754Y-114835256D01*
X119729371Y-114873000D01*
X120873000Y-114873000D01*
X120873000Y-113730085D01*
X120650961Y-113608096D01*
X120641012Y-113612217D01*
X120626600Y-113539760D01*
X120626600Y-110597013D01*
X121018667Y-110675000D01*
X121301333Y-110675000D01*
X121719909Y-110591740D01*
X121855121Y-110501394D01*
X121892339Y-110688506D01*
X121892339Y-110688506D01*
G37*
X121892339Y-110688506D02*
X122014049Y-110870658D01*
X122014052Y-110870661D01*
X122055143Y-110932158D01*
X122116640Y-110973249D01*
X125083423Y-113940032D01*
X125045423Y-113965423D01*
X124810000Y-114317758D01*
X124574577Y-113965423D01*
X124099909Y-113648260D01*
X123681333Y-113565000D01*
X123398667Y-113565000D01*
X122980091Y-113648260D01*
X122505423Y-113965423D01*
X122249053Y-114349108D01*
X122152389Y-114144866D01*
X121737423Y-113768959D01*
X121349039Y-113608096D01*
X121127000Y-113730085D01*
X121127000Y-114873000D01*
X121147000Y-114873000D01*
X121147000Y-115127000D01*
X121127000Y-115127000D01*
X121127000Y-116269915D01*
X121349039Y-116391904D01*
X121737423Y-116231041D01*
X122152389Y-115855134D01*
X122249053Y-115650892D01*
X122505423Y-116034577D01*
X122980091Y-116351740D01*
X123398667Y-116435000D01*
X123603290Y-116435000D01*
X118255963Y-121782328D01*
X118216534Y-121687138D01*
X117812862Y-121283466D01*
X117747701Y-121256475D01*
X117754005Y-121253864D01*
X117828139Y-121007745D01*
X117000000Y-120179605D01*
X116985858Y-120193748D01*
X116806253Y-120014143D01*
X116820395Y-120000000D01*
X117179605Y-120000000D01*
X118007745Y-120828139D01*
X118253864Y-120754005D01*
X118446965Y-120216777D01*
X118419778Y-119646546D01*
X118253864Y-119245995D01*
X118007745Y-119171861D01*
X117179605Y-120000000D01*
X116820395Y-120000000D01*
X116806253Y-119985858D01*
X116985858Y-119806253D01*
X117000000Y-119820395D01*
X117828139Y-118992255D01*
X117754005Y-118746136D01*
X117216777Y-118553035D01*
X116646546Y-118580222D01*
X116631400Y-118586496D01*
X116631400Y-117912609D01*
X119194968Y-115349041D01*
X119608086Y-115349041D01*
X119847611Y-115855134D01*
X120262577Y-116231041D01*
X120650961Y-116391904D01*
X120873000Y-116269915D01*
X120873000Y-115127000D01*
X119729371Y-115127000D01*
X119608086Y-115349041D01*
X119194968Y-115349041D01*
X119708754Y-114835256D01*
X119729371Y-114873000D01*
X120873000Y-114873000D01*
X120873000Y-113730085D01*
X120650961Y-113608096D01*
X120641012Y-113612217D01*
X120626600Y-113539760D01*
X120626600Y-110597013D01*
X121018667Y-110675000D01*
X121301333Y-110675000D01*
X121719909Y-110591740D01*
X121855121Y-110501394D01*
X121892339Y-110688506D01*
G36*
X142648260Y-115399909D02*
X142965423Y-115874577D01*
X143440091Y-116191740D01*
X143858667Y-116275000D01*
X144141333Y-116275000D01*
X144306804Y-116242086D01*
X141268225Y-119280666D01*
X141253864Y-119245995D01*
X141007745Y-119171861D01*
X140179605Y-120000000D01*
X140193748Y-120014143D01*
X140014143Y-120193748D01*
X140000000Y-120179605D01*
X139985858Y-120193748D01*
X139806252Y-120014142D01*
X139820395Y-120000000D01*
X139806253Y-119985858D01*
X139985858Y-119806253D01*
X140000000Y-119820395D01*
X140246572Y-119573823D01*
X140251407Y-119572861D01*
X140495058Y-119410058D01*
X140536151Y-119348558D01*
X141341761Y-118542949D01*
X141403258Y-118501858D01*
X141444349Y-118440361D01*
X141444351Y-118440359D01*
X141566061Y-118258207D01*
X141586290Y-118156507D01*
X141608800Y-118043344D01*
X141608800Y-118043341D01*
X141623229Y-117970800D01*
X141608800Y-117898260D01*
X141608800Y-116338009D01*
X142631443Y-115315366D01*
X142648260Y-115399909D01*
X142648260Y-115399909D01*
G37*
X142648260Y-115399909D02*
X142965423Y-115874577D01*
X143440091Y-116191740D01*
X143858667Y-116275000D01*
X144141333Y-116275000D01*
X144306804Y-116242086D01*
X141268225Y-119280666D01*
X141253864Y-119245995D01*
X141007745Y-119171861D01*
X140179605Y-120000000D01*
X140193748Y-120014143D01*
X140014143Y-120193748D01*
X140000000Y-120179605D01*
X139985858Y-120193748D01*
X139806252Y-120014142D01*
X139820395Y-120000000D01*
X139806253Y-119985858D01*
X139985858Y-119806253D01*
X140000000Y-119820395D01*
X140246572Y-119573823D01*
X140251407Y-119572861D01*
X140495058Y-119410058D01*
X140536151Y-119348558D01*
X141341761Y-118542949D01*
X141403258Y-118501858D01*
X141444349Y-118440361D01*
X141444351Y-118440359D01*
X141566061Y-118258207D01*
X141586290Y-118156507D01*
X141608800Y-118043344D01*
X141608800Y-118043341D01*
X141623229Y-117970800D01*
X141608800Y-117898260D01*
X141608800Y-116338009D01*
X142631443Y-115315366D01*
X142648260Y-115399909D01*
G36*
X120187138Y-100716534D02*
X120252299Y-100743525D01*
X120245995Y-100746136D01*
X120171861Y-100992255D01*
X121000000Y-101820395D01*
X121014142Y-101806252D01*
X121193748Y-101985858D01*
X121179605Y-102000000D01*
X121193748Y-102014142D01*
X121014142Y-102193748D01*
X121000000Y-102179605D01*
X120171861Y-103007745D01*
X120245995Y-103253864D01*
X120549705Y-103363030D01*
X120295212Y-103468444D01*
X119991544Y-103772112D01*
X119827200Y-104168874D01*
X119827200Y-104421391D01*
X119420442Y-104828149D01*
X119358942Y-104869242D01*
X119196139Y-105112894D01*
X119153400Y-105327757D01*
X119153400Y-105327760D01*
X119138971Y-105400300D01*
X119153400Y-105472840D01*
X119153400Y-107924456D01*
X118969039Y-107848096D01*
X118747000Y-107970085D01*
X118747000Y-109113000D01*
X118767000Y-109113000D01*
X118767000Y-109367000D01*
X118747000Y-109367000D01*
X118747000Y-110509915D01*
X118969039Y-110631904D01*
X119153401Y-110555544D01*
X119153401Y-113307189D01*
X115788200Y-116672391D01*
X115788200Y-114076353D01*
X115806610Y-113983799D01*
X115788200Y-113891245D01*
X115788200Y-113891241D01*
X115733672Y-113617109D01*
X115733671Y-113617107D01*
X115578387Y-113384709D01*
X115578386Y-113384708D01*
X115525957Y-113306243D01*
X115447493Y-113253815D01*
X113714588Y-111520910D01*
X113662157Y-111442443D01*
X113351291Y-111234728D01*
X113077159Y-111180200D01*
X113077154Y-111180200D01*
X112984600Y-111161790D01*
X112892046Y-111180200D01*
X111729278Y-111180200D01*
X111210349Y-110661272D01*
X111559909Y-110591740D01*
X112034577Y-110274577D01*
X112270000Y-109922242D01*
X112505423Y-110274577D01*
X112980091Y-110591740D01*
X113398667Y-110675000D01*
X113681333Y-110675000D01*
X114099909Y-110591740D01*
X114574577Y-110274577D01*
X114810000Y-109922242D01*
X115045423Y-110274577D01*
X115520091Y-110591740D01*
X115938667Y-110675000D01*
X116221333Y-110675000D01*
X116639909Y-110591740D01*
X117114577Y-110274577D01*
X117370947Y-109890892D01*
X117467611Y-110095134D01*
X117882577Y-110471041D01*
X118270961Y-110631904D01*
X118493000Y-110509915D01*
X118493000Y-109367000D01*
X118473000Y-109367000D01*
X118473000Y-109113000D01*
X118493000Y-109113000D01*
X118493000Y-107970085D01*
X118270961Y-107848096D01*
X117882577Y-108008959D01*
X117467611Y-108384866D01*
X117370947Y-108589108D01*
X117114577Y-108205423D01*
X116639909Y-107888260D01*
X116221333Y-107805000D01*
X115938667Y-107805000D01*
X115520091Y-107888260D01*
X115045423Y-108205423D01*
X114810000Y-108557758D01*
X114574577Y-108205423D01*
X114099909Y-107888260D01*
X113681333Y-107805000D01*
X113398667Y-107805000D01*
X112980091Y-107888260D01*
X112505423Y-108205423D01*
X112270000Y-108557758D01*
X112034577Y-108205423D01*
X111559909Y-107888260D01*
X111141333Y-107805000D01*
X110858667Y-107805000D01*
X110440091Y-107888260D01*
X109965423Y-108205423D01*
X109730000Y-108557758D01*
X109494577Y-108205423D01*
X109399800Y-108142095D01*
X109399800Y-101783223D01*
X119553035Y-101783223D01*
X119580222Y-102353454D01*
X119746136Y-102754005D01*
X119992255Y-102828139D01*
X120820395Y-102000000D01*
X119992255Y-101171861D01*
X119746136Y-101245995D01*
X119553035Y-101783223D01*
X109399800Y-101783223D01*
X109399800Y-100439800D01*
X119910404Y-100439800D01*
X120187138Y-100716534D01*
X120187138Y-100716534D01*
G37*
X120187138Y-100716534D02*
X120252299Y-100743525D01*
X120245995Y-100746136D01*
X120171861Y-100992255D01*
X121000000Y-101820395D01*
X121014142Y-101806252D01*
X121193748Y-101985858D01*
X121179605Y-102000000D01*
X121193748Y-102014142D01*
X121014142Y-102193748D01*
X121000000Y-102179605D01*
X120171861Y-103007745D01*
X120245995Y-103253864D01*
X120549705Y-103363030D01*
X120295212Y-103468444D01*
X119991544Y-103772112D01*
X119827200Y-104168874D01*
X119827200Y-104421391D01*
X119420442Y-104828149D01*
X119358942Y-104869242D01*
X119196139Y-105112894D01*
X119153400Y-105327757D01*
X119153400Y-105327760D01*
X119138971Y-105400300D01*
X119153400Y-105472840D01*
X119153400Y-107924456D01*
X118969039Y-107848096D01*
X118747000Y-107970085D01*
X118747000Y-109113000D01*
X118767000Y-109113000D01*
X118767000Y-109367000D01*
X118747000Y-109367000D01*
X118747000Y-110509915D01*
X118969039Y-110631904D01*
X119153401Y-110555544D01*
X119153401Y-113307189D01*
X115788200Y-116672391D01*
X115788200Y-114076353D01*
X115806610Y-113983799D01*
X115788200Y-113891245D01*
X115788200Y-113891241D01*
X115733672Y-113617109D01*
X115733671Y-113617107D01*
X115578387Y-113384709D01*
X115578386Y-113384708D01*
X115525957Y-113306243D01*
X115447493Y-113253815D01*
X113714588Y-111520910D01*
X113662157Y-111442443D01*
X113351291Y-111234728D01*
X113077159Y-111180200D01*
X113077154Y-111180200D01*
X112984600Y-111161790D01*
X112892046Y-111180200D01*
X111729278Y-111180200D01*
X111210349Y-110661272D01*
X111559909Y-110591740D01*
X112034577Y-110274577D01*
X112270000Y-109922242D01*
X112505423Y-110274577D01*
X112980091Y-110591740D01*
X113398667Y-110675000D01*
X113681333Y-110675000D01*
X114099909Y-110591740D01*
X114574577Y-110274577D01*
X114810000Y-109922242D01*
X115045423Y-110274577D01*
X115520091Y-110591740D01*
X115938667Y-110675000D01*
X116221333Y-110675000D01*
X116639909Y-110591740D01*
X117114577Y-110274577D01*
X117370947Y-109890892D01*
X117467611Y-110095134D01*
X117882577Y-110471041D01*
X118270961Y-110631904D01*
X118493000Y-110509915D01*
X118493000Y-109367000D01*
X118473000Y-109367000D01*
X118473000Y-109113000D01*
X118493000Y-109113000D01*
X118493000Y-107970085D01*
X118270961Y-107848096D01*
X117882577Y-108008959D01*
X117467611Y-108384866D01*
X117370947Y-108589108D01*
X117114577Y-108205423D01*
X116639909Y-107888260D01*
X116221333Y-107805000D01*
X115938667Y-107805000D01*
X115520091Y-107888260D01*
X115045423Y-108205423D01*
X114810000Y-108557758D01*
X114574577Y-108205423D01*
X114099909Y-107888260D01*
X113681333Y-107805000D01*
X113398667Y-107805000D01*
X112980091Y-107888260D01*
X112505423Y-108205423D01*
X112270000Y-108557758D01*
X112034577Y-108205423D01*
X111559909Y-107888260D01*
X111141333Y-107805000D01*
X110858667Y-107805000D01*
X110440091Y-107888260D01*
X109965423Y-108205423D01*
X109730000Y-108557758D01*
X109494577Y-108205423D01*
X109399800Y-108142095D01*
X109399800Y-101783223D01*
X119553035Y-101783223D01*
X119580222Y-102353454D01*
X119746136Y-102754005D01*
X119992255Y-102828139D01*
X120820395Y-102000000D01*
X119992255Y-101171861D01*
X119746136Y-101245995D01*
X119553035Y-101783223D01*
X109399800Y-101783223D01*
X109399800Y-100439800D01*
X119910404Y-100439800D01*
X120187138Y-100716534D01*
G36*
X160345423Y-83274577D02*
X160383423Y-83299968D01*
X156508540Y-87174851D01*
X156447043Y-87215942D01*
X156405952Y-87277439D01*
X156405949Y-87277442D01*
X156284239Y-87459594D01*
X156249703Y-87633222D01*
X156189039Y-87608096D01*
X155967000Y-87730085D01*
X155967000Y-88873000D01*
X155987000Y-88873000D01*
X155987000Y-89127000D01*
X155967000Y-89127000D01*
X155967000Y-90269915D01*
X156189039Y-90391904D01*
X156241501Y-90370175D01*
X156241501Y-95236751D01*
X155981333Y-95185000D01*
X155698667Y-95185000D01*
X155280091Y-95268260D01*
X154805423Y-95585423D01*
X154488260Y-96060091D01*
X154376887Y-96620000D01*
X154488260Y-97179909D01*
X154805423Y-97654577D01*
X155280091Y-97971740D01*
X155698667Y-98055000D01*
X155981333Y-98055000D01*
X156241501Y-98003249D01*
X156241500Y-111127790D01*
X152129600Y-115239691D01*
X152129600Y-91100309D01*
X153880868Y-89349041D01*
X154448086Y-89349041D01*
X154687611Y-89855134D01*
X155102577Y-90231041D01*
X155490961Y-90391904D01*
X155713000Y-90269915D01*
X155713000Y-89127000D01*
X154569371Y-89127000D01*
X154448086Y-89349041D01*
X153880868Y-89349041D01*
X154494316Y-88735593D01*
X154569371Y-88873000D01*
X155713000Y-88873000D01*
X155713000Y-87730085D01*
X155575414Y-87654495D01*
X159309558Y-83920351D01*
X159371058Y-83879258D01*
X159533861Y-83635607D01*
X159564457Y-83481793D01*
X159874577Y-83274577D01*
X160110000Y-82922242D01*
X160345423Y-83274577D01*
X160345423Y-83274577D01*
G37*
X160345423Y-83274577D02*
X160383423Y-83299968D01*
X156508540Y-87174851D01*
X156447043Y-87215942D01*
X156405952Y-87277439D01*
X156405949Y-87277442D01*
X156284239Y-87459594D01*
X156249703Y-87633222D01*
X156189039Y-87608096D01*
X155967000Y-87730085D01*
X155967000Y-88873000D01*
X155987000Y-88873000D01*
X155987000Y-89127000D01*
X155967000Y-89127000D01*
X155967000Y-90269915D01*
X156189039Y-90391904D01*
X156241501Y-90370175D01*
X156241501Y-95236751D01*
X155981333Y-95185000D01*
X155698667Y-95185000D01*
X155280091Y-95268260D01*
X154805423Y-95585423D01*
X154488260Y-96060091D01*
X154376887Y-96620000D01*
X154488260Y-97179909D01*
X154805423Y-97654577D01*
X155280091Y-97971740D01*
X155698667Y-98055000D01*
X155981333Y-98055000D01*
X156241501Y-98003249D01*
X156241500Y-111127790D01*
X152129600Y-115239691D01*
X152129600Y-91100309D01*
X153880868Y-89349041D01*
X154448086Y-89349041D01*
X154687611Y-89855134D01*
X155102577Y-90231041D01*
X155490961Y-90391904D01*
X155713000Y-90269915D01*
X155713000Y-89127000D01*
X154569371Y-89127000D01*
X154448086Y-89349041D01*
X153880868Y-89349041D01*
X154494316Y-88735593D01*
X154569371Y-88873000D01*
X155713000Y-88873000D01*
X155713000Y-87730085D01*
X155575414Y-87654495D01*
X159309558Y-83920351D01*
X159371058Y-83879258D01*
X159533861Y-83635607D01*
X159564457Y-83481793D01*
X159874577Y-83274577D01*
X160110000Y-82922242D01*
X160345423Y-83274577D01*
G36*
X163993400Y-95304456D02*
X163809039Y-95228096D01*
X163587000Y-95350085D01*
X163587000Y-96493000D01*
X163607000Y-96493000D01*
X163607000Y-96747000D01*
X163587000Y-96747000D01*
X163587000Y-97889915D01*
X163809039Y-98011904D01*
X163993401Y-97935544D01*
X163993401Y-108352490D01*
X161174342Y-111171549D01*
X161112842Y-111212642D01*
X160950039Y-111456294D01*
X160907300Y-111671157D01*
X160907300Y-111671160D01*
X160892871Y-111743700D01*
X160907300Y-111816240D01*
X160907300Y-112050990D01*
X159378978Y-113579312D01*
X159216534Y-113187138D01*
X158812862Y-112783466D01*
X158285439Y-112565000D01*
X158087910Y-112565000D01*
X162659561Y-107993349D01*
X162721058Y-107952258D01*
X162762149Y-107890761D01*
X162762151Y-107890759D01*
X162883861Y-107708607D01*
X162917876Y-107537600D01*
X162926600Y-107493744D01*
X162926600Y-107493741D01*
X162941029Y-107421200D01*
X162926600Y-107348660D01*
X162926600Y-97935544D01*
X163110961Y-98011904D01*
X163333000Y-97889915D01*
X163333000Y-96747000D01*
X163313000Y-96747000D01*
X163313000Y-96493000D01*
X163333000Y-96493000D01*
X163333000Y-95350085D01*
X163110961Y-95228096D01*
X162926600Y-95304456D01*
X162926600Y-90357013D01*
X163318667Y-90435000D01*
X163601333Y-90435000D01*
X163993400Y-90357013D01*
X163993400Y-95304456D01*
X163993400Y-95304456D01*
G37*
X163993400Y-95304456D02*
X163809039Y-95228096D01*
X163587000Y-95350085D01*
X163587000Y-96493000D01*
X163607000Y-96493000D01*
X163607000Y-96747000D01*
X163587000Y-96747000D01*
X163587000Y-97889915D01*
X163809039Y-98011904D01*
X163993401Y-97935544D01*
X163993401Y-108352490D01*
X161174342Y-111171549D01*
X161112842Y-111212642D01*
X160950039Y-111456294D01*
X160907300Y-111671157D01*
X160907300Y-111671160D01*
X160892871Y-111743700D01*
X160907300Y-111816240D01*
X160907300Y-112050990D01*
X159378978Y-113579312D01*
X159216534Y-113187138D01*
X158812862Y-112783466D01*
X158285439Y-112565000D01*
X158087910Y-112565000D01*
X162659561Y-107993349D01*
X162721058Y-107952258D01*
X162762149Y-107890761D01*
X162762151Y-107890759D01*
X162883861Y-107708607D01*
X162917876Y-107537600D01*
X162926600Y-107493744D01*
X162926600Y-107493741D01*
X162941029Y-107421200D01*
X162926600Y-107348660D01*
X162926600Y-97935544D01*
X163110961Y-98011904D01*
X163333000Y-97889915D01*
X163333000Y-96747000D01*
X163313000Y-96747000D01*
X163313000Y-96493000D01*
X163333000Y-96493000D01*
X163333000Y-95350085D01*
X163110961Y-95228096D01*
X162926600Y-95304456D01*
X162926600Y-90357013D01*
X163318667Y-90435000D01*
X163601333Y-90435000D01*
X163993400Y-90357013D01*
X163993400Y-95304456D01*
G36*
X157820091Y-90351740D02*
X158238667Y-90435000D01*
X158521333Y-90435000D01*
X158913401Y-90357013D01*
X158913401Y-95304456D01*
X158729039Y-95228096D01*
X158507000Y-95350085D01*
X158507000Y-96493000D01*
X158527000Y-96493000D01*
X158527000Y-96747000D01*
X158507000Y-96747000D01*
X158507000Y-97889915D01*
X158729039Y-98011904D01*
X158913401Y-97935544D01*
X158913400Y-109080690D01*
X157714700Y-110279390D01*
X157714700Y-97880913D01*
X158030961Y-98011904D01*
X158253000Y-97889915D01*
X158253000Y-96747000D01*
X158233000Y-96747000D01*
X158233000Y-96493000D01*
X158253000Y-96493000D01*
X158253000Y-95350085D01*
X158030961Y-95228096D01*
X157714700Y-95359087D01*
X157714700Y-90281320D01*
X157820091Y-90351740D01*
X157820091Y-90351740D01*
G37*
X157820091Y-90351740D02*
X158238667Y-90435000D01*
X158521333Y-90435000D01*
X158913401Y-90357013D01*
X158913401Y-95304456D01*
X158729039Y-95228096D01*
X158507000Y-95350085D01*
X158507000Y-96493000D01*
X158527000Y-96493000D01*
X158527000Y-96747000D01*
X158507000Y-96747000D01*
X158507000Y-97889915D01*
X158729039Y-98011904D01*
X158913401Y-97935544D01*
X158913400Y-109080690D01*
X157714700Y-110279390D01*
X157714700Y-97880913D01*
X158030961Y-98011904D01*
X158253000Y-97889915D01*
X158253000Y-96747000D01*
X158233000Y-96747000D01*
X158233000Y-96493000D01*
X158253000Y-96493000D01*
X158253000Y-95350085D01*
X158030961Y-95228096D01*
X157714700Y-95359087D01*
X157714700Y-90281320D01*
X157820091Y-90351740D01*
G36*
X167505423Y-90034577D02*
X167980091Y-90351740D01*
X168398667Y-90435000D01*
X168681333Y-90435000D01*
X169099909Y-90351740D01*
X169574577Y-90034577D01*
X169655215Y-89913894D01*
X169681843Y-90047765D01*
X169822191Y-90257809D01*
X170032235Y-90398157D01*
X170280000Y-90447440D01*
X171880000Y-90447440D01*
X171915600Y-90440359D01*
X171915600Y-93147022D01*
X170480908Y-94581714D01*
X170402444Y-94634143D01*
X170350015Y-94712608D01*
X170350012Y-94712611D01*
X170194729Y-94945008D01*
X170121790Y-95311700D01*
X170140201Y-95404258D01*
X170140201Y-95522095D01*
X170045423Y-95585423D01*
X169789053Y-95969108D01*
X169692389Y-95764866D01*
X169277423Y-95388959D01*
X168889039Y-95228096D01*
X168667000Y-95350085D01*
X168667000Y-96493000D01*
X168687000Y-96493000D01*
X168687000Y-96747000D01*
X168667000Y-96747000D01*
X168667000Y-97889915D01*
X168889039Y-98011904D01*
X169277423Y-97851041D01*
X169692389Y-97475134D01*
X169789053Y-97270892D01*
X170037101Y-97642122D01*
X168056908Y-99622314D01*
X167978444Y-99674743D01*
X167926015Y-99753208D01*
X167926012Y-99753211D01*
X167841700Y-99879393D01*
X167841700Y-97867245D01*
X168190961Y-98011904D01*
X168413000Y-97889915D01*
X168413000Y-96747000D01*
X168393000Y-96747000D01*
X168393000Y-96493000D01*
X168413000Y-96493000D01*
X168413000Y-95350085D01*
X168190961Y-95228096D01*
X167841700Y-95372755D01*
X167841700Y-91282738D01*
X167856129Y-91210199D01*
X167841700Y-91137660D01*
X167841700Y-91137656D01*
X167798961Y-90922793D01*
X167636158Y-90679142D01*
X167574658Y-90638049D01*
X166996577Y-90059968D01*
X167034577Y-90034577D01*
X167270000Y-89682242D01*
X167505423Y-90034577D01*
X167505423Y-90034577D01*
G37*
X167505423Y-90034577D02*
X167980091Y-90351740D01*
X168398667Y-90435000D01*
X168681333Y-90435000D01*
X169099909Y-90351740D01*
X169574577Y-90034577D01*
X169655215Y-89913894D01*
X169681843Y-90047765D01*
X169822191Y-90257809D01*
X170032235Y-90398157D01*
X170280000Y-90447440D01*
X171880000Y-90447440D01*
X171915600Y-90440359D01*
X171915600Y-93147022D01*
X170480908Y-94581714D01*
X170402444Y-94634143D01*
X170350015Y-94712608D01*
X170350012Y-94712611D01*
X170194729Y-94945008D01*
X170121790Y-95311700D01*
X170140201Y-95404258D01*
X170140201Y-95522095D01*
X170045423Y-95585423D01*
X169789053Y-95969108D01*
X169692389Y-95764866D01*
X169277423Y-95388959D01*
X168889039Y-95228096D01*
X168667000Y-95350085D01*
X168667000Y-96493000D01*
X168687000Y-96493000D01*
X168687000Y-96747000D01*
X168667000Y-96747000D01*
X168667000Y-97889915D01*
X168889039Y-98011904D01*
X169277423Y-97851041D01*
X169692389Y-97475134D01*
X169789053Y-97270892D01*
X170037101Y-97642122D01*
X168056908Y-99622314D01*
X167978444Y-99674743D01*
X167926015Y-99753208D01*
X167926012Y-99753211D01*
X167841700Y-99879393D01*
X167841700Y-97867245D01*
X168190961Y-98011904D01*
X168413000Y-97889915D01*
X168413000Y-96747000D01*
X168393000Y-96747000D01*
X168393000Y-96493000D01*
X168413000Y-96493000D01*
X168413000Y-95350085D01*
X168190961Y-95228096D01*
X167841700Y-95372755D01*
X167841700Y-91282738D01*
X167856129Y-91210199D01*
X167841700Y-91137660D01*
X167841700Y-91137656D01*
X167798961Y-90922793D01*
X167636158Y-90679142D01*
X167574658Y-90638049D01*
X166996577Y-90059968D01*
X167034577Y-90034577D01*
X167270000Y-89682242D01*
X167505423Y-90034577D01*
G36*
X165425423Y-83274577D02*
X165463423Y-83299968D01*
X161720440Y-87042951D01*
X161658943Y-87084042D01*
X161617852Y-87145539D01*
X161617849Y-87145542D01*
X161496139Y-87327694D01*
X161438971Y-87615100D01*
X161452710Y-87684170D01*
X161269039Y-87608096D01*
X161047000Y-87730085D01*
X161047000Y-88873000D01*
X161067000Y-88873000D01*
X161067000Y-89127000D01*
X161047000Y-89127000D01*
X161047000Y-90269915D01*
X161269039Y-90391904D01*
X161453401Y-90315544D01*
X161453401Y-95262987D01*
X161061333Y-95185000D01*
X160778667Y-95185000D01*
X160386600Y-95262987D01*
X160386600Y-90315544D01*
X160570961Y-90391904D01*
X160793000Y-90269915D01*
X160793000Y-89127000D01*
X160773000Y-89127000D01*
X160773000Y-88873000D01*
X160793000Y-88873000D01*
X160793000Y-87730085D01*
X160653413Y-87653396D01*
X164389561Y-83917249D01*
X164451058Y-83876158D01*
X164492149Y-83814661D01*
X164492151Y-83814659D01*
X164613861Y-83632507D01*
X164616951Y-83616971D01*
X164643745Y-83482268D01*
X164954577Y-83274577D01*
X165190000Y-82922242D01*
X165425423Y-83274577D01*
X165425423Y-83274577D01*
G37*
X165425423Y-83274577D02*
X165463423Y-83299968D01*
X161720440Y-87042951D01*
X161658943Y-87084042D01*
X161617852Y-87145539D01*
X161617849Y-87145542D01*
X161496139Y-87327694D01*
X161438971Y-87615100D01*
X161452710Y-87684170D01*
X161269039Y-87608096D01*
X161047000Y-87730085D01*
X161047000Y-88873000D01*
X161067000Y-88873000D01*
X161067000Y-89127000D01*
X161047000Y-89127000D01*
X161047000Y-90269915D01*
X161269039Y-90391904D01*
X161453401Y-90315544D01*
X161453401Y-95262987D01*
X161061333Y-95185000D01*
X160778667Y-95185000D01*
X160386600Y-95262987D01*
X160386600Y-90315544D01*
X160570961Y-90391904D01*
X160793000Y-90269915D01*
X160793000Y-89127000D01*
X160773000Y-89127000D01*
X160773000Y-88873000D01*
X160793000Y-88873000D01*
X160793000Y-87730085D01*
X160653413Y-87653396D01*
X164389561Y-83917249D01*
X164451058Y-83876158D01*
X164492149Y-83814661D01*
X164492151Y-83814659D01*
X164613861Y-83632507D01*
X164616951Y-83616971D01*
X164643745Y-83482268D01*
X164954577Y-83274577D01*
X165190000Y-82922242D01*
X165425423Y-83274577D01*
G36*
X163714561Y-54435000D02*
X164105923Y-54435000D01*
X171915601Y-62244679D01*
X171915601Y-65565000D01*
X171825750Y-65565000D01*
X171667000Y-65723750D01*
X171667000Y-66873000D01*
X171687000Y-66873000D01*
X171687000Y-67127000D01*
X171667000Y-67127000D01*
X171667000Y-68276250D01*
X171825750Y-68435000D01*
X171915601Y-68435000D01*
X171915600Y-80851599D01*
X171681333Y-80805000D01*
X171398667Y-80805000D01*
X170980091Y-80888260D01*
X170505423Y-81205423D01*
X170249053Y-81589108D01*
X170152389Y-81384866D01*
X169737423Y-81008959D01*
X169349039Y-80848096D01*
X169127000Y-80970085D01*
X169127000Y-82113000D01*
X169147000Y-82113000D01*
X169147000Y-82367000D01*
X169127000Y-82367000D01*
X169127000Y-83509915D01*
X169349039Y-83631904D01*
X169737423Y-83471041D01*
X170152389Y-83095134D01*
X170249053Y-82890892D01*
X170505423Y-83274577D01*
X170980091Y-83591740D01*
X171398667Y-83675000D01*
X171681333Y-83675000D01*
X171915600Y-83628401D01*
X171915600Y-87559641D01*
X171880000Y-87552560D01*
X170280000Y-87552560D01*
X170032235Y-87601843D01*
X169822191Y-87742191D01*
X169681843Y-87952235D01*
X169655215Y-88086106D01*
X169574577Y-87965423D01*
X169099909Y-87648260D01*
X168681333Y-87565000D01*
X168398667Y-87565000D01*
X167980091Y-87648260D01*
X167505423Y-87965423D01*
X167270000Y-88317758D01*
X167034577Y-87965423D01*
X166559909Y-87648260D01*
X166141333Y-87565000D01*
X165858667Y-87565000D01*
X165466600Y-87642987D01*
X165466600Y-87280309D01*
X168095360Y-84651549D01*
X168156858Y-84610458D01*
X168197949Y-84548961D01*
X168197951Y-84548959D01*
X168319661Y-84366807D01*
X168332362Y-84302956D01*
X168362400Y-84151944D01*
X168362400Y-84151941D01*
X168376829Y-84079400D01*
X168362400Y-84006860D01*
X168362400Y-83512386D01*
X168650961Y-83631904D01*
X168873000Y-83509915D01*
X168873000Y-82367000D01*
X168853000Y-82367000D01*
X168853000Y-82113000D01*
X168873000Y-82113000D01*
X168873000Y-80970085D01*
X168650961Y-80848096D01*
X168362400Y-80967614D01*
X168362400Y-69343440D01*
X168376829Y-69270899D01*
X168362400Y-69198357D01*
X168362400Y-69198356D01*
X168319661Y-68983493D01*
X168285718Y-68932694D01*
X168197951Y-68801341D01*
X168197949Y-68801339D01*
X168156858Y-68739842D01*
X168095361Y-68698751D01*
X167456577Y-68059968D01*
X167494577Y-68034577D01*
X167730000Y-67682242D01*
X167965423Y-68034577D01*
X168440091Y-68351740D01*
X168858667Y-68435000D01*
X169141333Y-68435000D01*
X169559909Y-68351740D01*
X170034577Y-68034577D01*
X170105735Y-67928082D01*
X170201673Y-68159698D01*
X170380301Y-68338327D01*
X170613690Y-68435000D01*
X171254250Y-68435000D01*
X171413000Y-68276250D01*
X171413000Y-67127000D01*
X171393000Y-67127000D01*
X171393000Y-66873000D01*
X171413000Y-66873000D01*
X171413000Y-65723750D01*
X171254250Y-65565000D01*
X170613690Y-65565000D01*
X170380301Y-65661673D01*
X170201673Y-65840302D01*
X170105735Y-66071918D01*
X170034577Y-65965423D01*
X169559909Y-65648260D01*
X169141333Y-65565000D01*
X168858667Y-65565000D01*
X168440091Y-65648260D01*
X167965423Y-65965423D01*
X167730000Y-66317758D01*
X167494577Y-65965423D01*
X167019909Y-65648260D01*
X166601333Y-65565000D01*
X166318667Y-65565000D01*
X165900091Y-65648260D01*
X165425423Y-65965423D01*
X165190000Y-66317758D01*
X164954577Y-65965423D01*
X164479909Y-65648260D01*
X164061333Y-65565000D01*
X163778667Y-65565000D01*
X163360091Y-65648260D01*
X162885423Y-65965423D01*
X162650000Y-66317758D01*
X162414577Y-65965423D01*
X162376577Y-65940032D01*
X163271061Y-65045549D01*
X163332558Y-65004458D01*
X163373649Y-64942961D01*
X163373651Y-64942959D01*
X163495361Y-64760807D01*
X163503806Y-64718351D01*
X163538100Y-64545944D01*
X163538100Y-64545941D01*
X163552529Y-64473400D01*
X163538100Y-64400860D01*
X163538100Y-54361907D01*
X163714561Y-54435000D01*
X163714561Y-54435000D01*
G37*
X163714561Y-54435000D02*
X164105923Y-54435000D01*
X171915601Y-62244679D01*
X171915601Y-65565000D01*
X171825750Y-65565000D01*
X171667000Y-65723750D01*
X171667000Y-66873000D01*
X171687000Y-66873000D01*
X171687000Y-67127000D01*
X171667000Y-67127000D01*
X171667000Y-68276250D01*
X171825750Y-68435000D01*
X171915601Y-68435000D01*
X171915600Y-80851599D01*
X171681333Y-80805000D01*
X171398667Y-80805000D01*
X170980091Y-80888260D01*
X170505423Y-81205423D01*
X170249053Y-81589108D01*
X170152389Y-81384866D01*
X169737423Y-81008959D01*
X169349039Y-80848096D01*
X169127000Y-80970085D01*
X169127000Y-82113000D01*
X169147000Y-82113000D01*
X169147000Y-82367000D01*
X169127000Y-82367000D01*
X169127000Y-83509915D01*
X169349039Y-83631904D01*
X169737423Y-83471041D01*
X170152389Y-83095134D01*
X170249053Y-82890892D01*
X170505423Y-83274577D01*
X170980091Y-83591740D01*
X171398667Y-83675000D01*
X171681333Y-83675000D01*
X171915600Y-83628401D01*
X171915600Y-87559641D01*
X171880000Y-87552560D01*
X170280000Y-87552560D01*
X170032235Y-87601843D01*
X169822191Y-87742191D01*
X169681843Y-87952235D01*
X169655215Y-88086106D01*
X169574577Y-87965423D01*
X169099909Y-87648260D01*
X168681333Y-87565000D01*
X168398667Y-87565000D01*
X167980091Y-87648260D01*
X167505423Y-87965423D01*
X167270000Y-88317758D01*
X167034577Y-87965423D01*
X166559909Y-87648260D01*
X166141333Y-87565000D01*
X165858667Y-87565000D01*
X165466600Y-87642987D01*
X165466600Y-87280309D01*
X168095360Y-84651549D01*
X168156858Y-84610458D01*
X168197949Y-84548961D01*
X168197951Y-84548959D01*
X168319661Y-84366807D01*
X168332362Y-84302956D01*
X168362400Y-84151944D01*
X168362400Y-84151941D01*
X168376829Y-84079400D01*
X168362400Y-84006860D01*
X168362400Y-83512386D01*
X168650961Y-83631904D01*
X168873000Y-83509915D01*
X168873000Y-82367000D01*
X168853000Y-82367000D01*
X168853000Y-82113000D01*
X168873000Y-82113000D01*
X168873000Y-80970085D01*
X168650961Y-80848096D01*
X168362400Y-80967614D01*
X168362400Y-69343440D01*
X168376829Y-69270899D01*
X168362400Y-69198357D01*
X168362400Y-69198356D01*
X168319661Y-68983493D01*
X168285718Y-68932694D01*
X168197951Y-68801341D01*
X168197949Y-68801339D01*
X168156858Y-68739842D01*
X168095361Y-68698751D01*
X167456577Y-68059968D01*
X167494577Y-68034577D01*
X167730000Y-67682242D01*
X167965423Y-68034577D01*
X168440091Y-68351740D01*
X168858667Y-68435000D01*
X169141333Y-68435000D01*
X169559909Y-68351740D01*
X170034577Y-68034577D01*
X170105735Y-67928082D01*
X170201673Y-68159698D01*
X170380301Y-68338327D01*
X170613690Y-68435000D01*
X171254250Y-68435000D01*
X171413000Y-68276250D01*
X171413000Y-67127000D01*
X171393000Y-67127000D01*
X171393000Y-66873000D01*
X171413000Y-66873000D01*
X171413000Y-65723750D01*
X171254250Y-65565000D01*
X170613690Y-65565000D01*
X170380301Y-65661673D01*
X170201673Y-65840302D01*
X170105735Y-66071918D01*
X170034577Y-65965423D01*
X169559909Y-65648260D01*
X169141333Y-65565000D01*
X168858667Y-65565000D01*
X168440091Y-65648260D01*
X167965423Y-65965423D01*
X167730000Y-66317758D01*
X167494577Y-65965423D01*
X167019909Y-65648260D01*
X166601333Y-65565000D01*
X166318667Y-65565000D01*
X165900091Y-65648260D01*
X165425423Y-65965423D01*
X165190000Y-66317758D01*
X164954577Y-65965423D01*
X164479909Y-65648260D01*
X164061333Y-65565000D01*
X163778667Y-65565000D01*
X163360091Y-65648260D01*
X162885423Y-65965423D01*
X162650000Y-66317758D01*
X162414577Y-65965423D01*
X162376577Y-65940032D01*
X163271061Y-65045549D01*
X163332558Y-65004458D01*
X163373649Y-64942961D01*
X163373651Y-64942959D01*
X163495361Y-64760807D01*
X163503806Y-64718351D01*
X163538100Y-64545944D01*
X163538100Y-64545941D01*
X163552529Y-64473400D01*
X163538100Y-64400860D01*
X163538100Y-54361907D01*
X163714561Y-54435000D01*
G04 #@! TD*
M02*
