M48
;DRILL file {KiCad (5.0.0-3-g5ebb6b6)} date 2018 December 25, Tuesday 22:54:46
;FORMAT={-:-/ absolute / metric / decimal}
FMAT,2
METRIC,TZ
T1C0.600
T2C0.610
T3C0.762
T4C0.800
T5C0.900
T6C1.001
T7C1.016
T8C1.100
T9C3.200
%
G90
G05
M71
T1
X172.Y-104.
X172.Y-105.5
T2
X97.289Y-112.507
X99.695Y-87.63
X113.538Y-87.426
X120.907Y-104.384
X123.055Y-100.805
X124.687Y-126.755
X124.76Y-84.518
X128.28Y-119.215
X130.298Y-83.464
X130.694Y-105.108
X131.902Y-121.284
X134.92Y-89.892
X135.619Y-134.847
X135.63Y-118.991
X137.445Y-84.368
X138.53Y-82.328
X139.547Y-73.025
X139.653Y-118.129
X144.87Y-78.151
X144.994Y-103.812
X145.76Y-97.596
X148.478Y-106.458
X154.305Y-99.695
T3
X150.Y-119.92
X150.Y-125.
T4
X143.3Y-47.
X143.3Y-54.62
X145.84Y-47.
X145.84Y-54.62
X148.38Y-47.
X148.38Y-54.62
X150.92Y-47.
X150.92Y-54.62
X153.46Y-47.
X153.46Y-54.62
X156.Y-47.
X156.Y-54.62
X158.54Y-47.
X158.54Y-54.62
X161.08Y-47.
X161.08Y-54.62
X140.Y-120.
X140.Y-122.5
X121.Y-99.5
X121.Y-102.
X147.84Y-114.
X158.Y-114.
X119.68Y-88.
X122.22Y-88.
X124.76Y-88.
X127.3Y-88.
X129.84Y-88.
X132.38Y-88.
X134.92Y-88.
X137.46Y-88.
X140.Y-88.
X164.Y-50.5
X164.Y-53.
X157.5Y-124.
X160.Y-124.
X178.5Y-121.
X181.Y-121.
X141.Y-67.
X141.Y-69.5
X121.Y-115.
X121.Y-122.62
X123.54Y-115.
X123.54Y-122.62
X126.08Y-115.
X126.08Y-122.62
X128.62Y-115.
X128.62Y-122.62
X131.16Y-115.
X131.16Y-122.62
X133.7Y-115.
X133.7Y-122.62
X136.24Y-115.
X136.24Y-122.62
X144.Y-114.84
X144.Y-125.
X137.Y-59.5
X137.Y-62.
X165.Y-110.
X165.Y-120.16
X98.3Y-115.
X98.3Y-122.62
X100.84Y-115.
X100.84Y-122.62
X103.38Y-115.
X103.38Y-122.62
X105.92Y-115.
X105.92Y-122.62
X108.46Y-115.
X108.46Y-122.62
X111.Y-115.
X111.Y-122.62
X113.54Y-115.
X113.54Y-122.62
X104.84Y-88.
X115.Y-88.
X174.Y-94.5
X174.Y-97.
X157.5Y-118.
X160.Y-118.
X168.656Y-110.
X168.656Y-120.16
X98.3Y-94.
X98.3Y-109.24
X100.84Y-94.
X100.84Y-109.24
X103.38Y-94.
X103.38Y-109.24
X105.92Y-94.
X105.92Y-109.24
X108.46Y-94.
X108.46Y-109.24
X111.Y-94.
X111.Y-109.24
X113.54Y-94.
X113.54Y-109.24
X116.08Y-94.
X116.08Y-109.24
X118.62Y-94.
X118.62Y-109.24
X121.16Y-94.
X121.16Y-109.24
X123.7Y-94.
X123.7Y-109.24
X126.24Y-94.
X126.24Y-109.24
X128.78Y-94.
X128.78Y-109.24
X131.32Y-94.
X131.32Y-109.24
X133.86Y-94.
X133.86Y-109.24
X136.4Y-94.
X136.4Y-109.24
X138.94Y-94.
X138.94Y-109.24
X141.48Y-94.
X141.48Y-109.24
X144.02Y-94.
X144.02Y-109.24
X146.56Y-94.
X146.56Y-109.24
X137.Y-80.
X137.Y-82.5
X155.84Y-89.
X155.84Y-96.62
X158.38Y-89.
X158.38Y-96.62
X160.92Y-89.
X160.92Y-96.62
X163.46Y-89.
X163.46Y-96.62
X166.Y-89.
X166.Y-96.62
X168.54Y-89.
X168.54Y-96.62
X171.08Y-89.
X171.08Y-96.62
X101.3Y-46.76
X101.3Y-62.
X103.84Y-46.76
X103.84Y-62.
X106.38Y-46.76
X106.38Y-62.
X108.92Y-46.76
X108.92Y-62.
X111.46Y-46.76
X111.46Y-62.
X114.Y-46.76
X114.Y-62.
X116.54Y-46.76
X116.54Y-62.
X119.08Y-46.76
X119.08Y-62.
X121.62Y-46.76
X121.62Y-62.
X124.16Y-46.76
X124.16Y-62.
X126.7Y-46.76
X126.7Y-62.
X129.24Y-46.76
X129.24Y-62.
X131.78Y-46.76
X131.78Y-62.
X134.32Y-46.76
X134.32Y-62.
X101.22Y-67.
X101.22Y-82.24
X103.76Y-67.
X103.76Y-82.24
X106.3Y-67.
X106.3Y-82.24
X108.84Y-67.
X108.84Y-82.24
X111.38Y-67.
X111.38Y-82.24
X113.92Y-67.
X113.92Y-82.24
X116.46Y-67.
X116.46Y-82.24
X119.Y-67.
X119.Y-82.24
X121.54Y-67.
X121.54Y-82.24
X124.08Y-67.
X124.08Y-82.24
X126.62Y-67.
X126.62Y-82.24
X129.16Y-67.
X129.16Y-82.24
X131.7Y-67.
X131.7Y-82.24
X134.24Y-67.
X134.24Y-82.24
X143.6Y-67.
X143.6Y-82.24
X146.14Y-67.
X146.14Y-82.24
X148.68Y-67.
X148.68Y-82.24
X151.22Y-67.
X151.22Y-82.24
X153.76Y-67.
X153.76Y-82.24
X156.3Y-67.
X156.3Y-82.24
X158.84Y-67.
X158.84Y-82.24
X161.38Y-67.
X161.38Y-82.24
X163.92Y-67.
X163.92Y-82.24
X166.46Y-67.
X166.46Y-82.24
X169.Y-67.
X169.Y-82.24
X171.54Y-67.
X171.54Y-82.24
X117.Y-120.
X117.Y-122.5
T5
X166.Y-124.46
X166.Y-127.
X172.466Y-112.
X172.466Y-119.62
X178.515Y-113.
X181.015Y-113.
X183.515Y-113.
T7
X179.Y-46.84
X179.Y-49.38
X179.Y-51.92
X179.Y-54.46
X179.Y-57.
X179.Y-59.54
X143.84Y-59.46
X143.84Y-62.
X146.38Y-59.46
X146.38Y-62.
X148.92Y-59.46
X148.92Y-62.
X151.46Y-59.46
X151.46Y-62.
X154.Y-59.46
X154.Y-62.
X156.54Y-59.46
X156.54Y-62.
X159.08Y-59.46
X159.08Y-62.
X161.62Y-59.46
X161.62Y-62.
X113.82Y-131.
X113.82Y-133.54
X116.36Y-131.
X116.36Y-133.54
X118.9Y-131.
X118.9Y-133.54
X121.44Y-131.
X121.44Y-133.54
X123.98Y-131.
X123.98Y-133.54
X126.52Y-131.
X126.52Y-133.54
X129.06Y-131.
X129.06Y-133.54
X131.6Y-131.
X131.6Y-133.54
X134.14Y-131.
X134.14Y-133.54
X136.68Y-131.
X136.68Y-133.54
X139.22Y-131.
X139.22Y-133.54
X141.76Y-131.
X141.76Y-133.54
X144.3Y-131.
X144.3Y-133.54
X146.84Y-131.
X146.84Y-133.54
X149.38Y-131.
X149.38Y-133.54
X151.92Y-131.
X151.92Y-133.54
X154.46Y-131.
X154.46Y-133.54
X157.Y-131.
X157.Y-133.54
X159.54Y-131.
X159.54Y-133.54
X162.08Y-131.
X162.08Y-133.54
T8
X177.5Y-102.
X177.5Y-106.5
X184.Y-102.
X184.Y-106.5
T9
X93.46Y-70.97
X182.45Y-70.97
X182.45Y-136.96
X93.46Y-136.96
T6
X172.994Y-129.599G85X175.494Y-129.599
G05
X173.244Y-135.598G85X175.244Y-135.598
G05
X178.943Y-133.598G85X178.943Y-131.599
G05
T0
M30
