G04 #@! TF.FileFunction,Copper,L1,Top,Signal*
%FSLAX46Y46*%
G04 Gerber Fmt 4.6, Leading zero omitted, Abs format (unit mm)*
G04 Created by KiCad (PCBNEW 4.0.7) date *
%MOMM*%
%LPD*%
G01*
G04 APERTURE LIST*
%ADD10C,0.100000*%
%ADD11C,1.600000*%
%ADD12R,1.200000X1.200000*%
%ADD13C,1.200000*%
%ADD14R,1.600000X1.600000*%
%ADD15R,1.800000X1.800000*%
%ADD16O,1.800000X1.800000*%
%ADD17C,1.800000*%
%ADD18R,1.727200X1.727200*%
%ADD19O,1.727200X1.727200*%
%ADD20R,2.032000X1.727200*%
%ADD21O,2.032000X1.727200*%
%ADD22R,4.000000X4.000000*%
%ADD23R,3.500120X3.500120*%
%ADD24O,1.600000X1.600000*%
%ADD25C,2.000000*%
%ADD26R,1.900000X1.900000*%
%ADD27C,1.900000*%
%ADD28C,1.422400*%
%ADD29C,0.889000*%
%ADD30C,0.609600*%
%ADD31C,0.203200*%
%ADD32C,0.254000*%
G04 APERTURE END LIST*
D10*
D11*
X121000000Y-99500000D03*
X121000000Y-102000000D03*
X157500000Y-118000000D03*
X160000000Y-118000000D03*
X157500000Y-124000000D03*
X160000000Y-124000000D03*
D12*
X172000000Y-105500000D03*
D13*
X172000000Y-104000000D03*
D14*
X178500000Y-121000000D03*
D11*
X181000000Y-121000000D03*
X164000000Y-53000000D03*
X164000000Y-50500000D03*
X137000000Y-82500000D03*
X137000000Y-80000000D03*
X141000000Y-67000000D03*
X141000000Y-69500000D03*
X117000000Y-122500000D03*
X117000000Y-120000000D03*
X137000000Y-62000000D03*
X137000000Y-59500000D03*
X140000000Y-122500000D03*
X140000000Y-120000000D03*
X174000000Y-97000000D03*
X174000000Y-94500000D03*
D15*
X172466000Y-119620000D03*
D16*
X172466000Y-112000000D03*
D15*
X166000000Y-127000000D03*
D17*
X166000000Y-124460000D03*
D18*
X161620000Y-59460000D03*
D19*
X161620000Y-62000000D03*
X159080000Y-59460000D03*
X159080000Y-62000000D03*
X156540000Y-59460000D03*
X156540000Y-62000000D03*
X154000000Y-59460000D03*
X154000000Y-62000000D03*
X151460000Y-59460000D03*
X151460000Y-62000000D03*
X148920000Y-59460000D03*
X148920000Y-62000000D03*
X146380000Y-59460000D03*
X146380000Y-62000000D03*
X143840000Y-59460000D03*
X143840000Y-62000000D03*
D20*
X179000000Y-46840000D03*
D21*
X179000000Y-49380000D03*
X179000000Y-51920000D03*
X179000000Y-54460000D03*
X179000000Y-57000000D03*
X179000000Y-59540000D03*
D18*
X162080000Y-131000000D03*
D19*
X162080000Y-133540000D03*
X159540000Y-131000000D03*
X159540000Y-133540000D03*
X157000000Y-131000000D03*
X157000000Y-133540000D03*
X154460000Y-131000000D03*
X154460000Y-133540000D03*
X151920000Y-131000000D03*
X151920000Y-133540000D03*
X149380000Y-131000000D03*
X149380000Y-133540000D03*
X146840000Y-131000000D03*
X146840000Y-133540000D03*
X144300000Y-131000000D03*
X144300000Y-133540000D03*
X141760000Y-131000000D03*
X141760000Y-133540000D03*
X139220000Y-131000000D03*
X139220000Y-133540000D03*
X136680000Y-131000000D03*
X136680000Y-133540000D03*
X134140000Y-131000000D03*
X134140000Y-133540000D03*
X131600000Y-131000000D03*
X131600000Y-133540000D03*
X129060000Y-131000000D03*
X129060000Y-133540000D03*
X126520000Y-131000000D03*
X126520000Y-133540000D03*
X123980000Y-131000000D03*
X123980000Y-133540000D03*
X121440000Y-131000000D03*
X121440000Y-133540000D03*
X118900000Y-131000000D03*
X118900000Y-133540000D03*
X116360000Y-131000000D03*
X116360000Y-133540000D03*
X113820000Y-131000000D03*
X113820000Y-133540000D03*
D22*
X174244000Y-129598860D03*
D23*
X174244000Y-135598340D03*
X178943000Y-132598600D03*
D11*
X115000000Y-88000000D03*
D24*
X104840000Y-88000000D03*
D11*
X158000000Y-114000000D03*
D24*
X147840000Y-114000000D03*
D11*
X144000000Y-125000000D03*
D24*
X144000000Y-114840000D03*
D11*
X168656000Y-120160000D03*
D24*
X168656000Y-110000000D03*
D11*
X165000000Y-120160000D03*
D24*
X165000000Y-110000000D03*
D14*
X119680000Y-88000000D03*
D24*
X122220000Y-88000000D03*
X124760000Y-88000000D03*
X127300000Y-88000000D03*
X129840000Y-88000000D03*
X132380000Y-88000000D03*
X134920000Y-88000000D03*
X137460000Y-88000000D03*
X140000000Y-88000000D03*
D25*
X177500000Y-106500000D03*
X177500000Y-102000000D03*
X184000000Y-106500000D03*
X184000000Y-102000000D03*
D26*
X178515000Y-113000000D03*
D27*
X181015000Y-113000000D03*
X183515000Y-113000000D03*
D28*
X150000000Y-119920000D03*
X150000000Y-125000000D03*
D14*
X171080000Y-89000000D03*
D24*
X155840000Y-96620000D03*
X168540000Y-89000000D03*
X158380000Y-96620000D03*
X166000000Y-89000000D03*
X160920000Y-96620000D03*
X163460000Y-89000000D03*
X163460000Y-96620000D03*
X160920000Y-89000000D03*
X166000000Y-96620000D03*
X158380000Y-89000000D03*
X168540000Y-96620000D03*
X155840000Y-89000000D03*
X171080000Y-96620000D03*
D14*
X136240000Y-115000000D03*
D24*
X121000000Y-122620000D03*
X133700000Y-115000000D03*
X123540000Y-122620000D03*
X131160000Y-115000000D03*
X126080000Y-122620000D03*
X128620000Y-115000000D03*
X128620000Y-122620000D03*
X126080000Y-115000000D03*
X131160000Y-122620000D03*
X123540000Y-115000000D03*
X133700000Y-122620000D03*
X121000000Y-115000000D03*
X136240000Y-122620000D03*
D14*
X134320000Y-46760000D03*
D24*
X101300000Y-62000000D03*
X131780000Y-46760000D03*
X103840000Y-62000000D03*
X129240000Y-46760000D03*
X106380000Y-62000000D03*
X126700000Y-46760000D03*
X108920000Y-62000000D03*
X124160000Y-46760000D03*
X111460000Y-62000000D03*
X121620000Y-46760000D03*
X114000000Y-62000000D03*
X119080000Y-46760000D03*
X116540000Y-62000000D03*
X116540000Y-46760000D03*
X119080000Y-62000000D03*
X114000000Y-46760000D03*
X121620000Y-62000000D03*
X111460000Y-46760000D03*
X124160000Y-62000000D03*
X108920000Y-46760000D03*
X126700000Y-62000000D03*
X106380000Y-46760000D03*
X129240000Y-62000000D03*
X103840000Y-46760000D03*
X131780000Y-62000000D03*
X101300000Y-46760000D03*
X134320000Y-62000000D03*
D14*
X161080000Y-47000000D03*
D24*
X143300000Y-54620000D03*
X158540000Y-47000000D03*
X145840000Y-54620000D03*
X156000000Y-47000000D03*
X148380000Y-54620000D03*
X153460000Y-47000000D03*
X150920000Y-54620000D03*
X150920000Y-47000000D03*
X153460000Y-54620000D03*
X148380000Y-47000000D03*
X156000000Y-54620000D03*
X145840000Y-47000000D03*
X158540000Y-54620000D03*
X143300000Y-47000000D03*
X161080000Y-54620000D03*
D14*
X134240000Y-67000000D03*
D24*
X101220000Y-82240000D03*
X131700000Y-67000000D03*
X103760000Y-82240000D03*
X129160000Y-67000000D03*
X106300000Y-82240000D03*
X126620000Y-67000000D03*
X108840000Y-82240000D03*
X124080000Y-67000000D03*
X111380000Y-82240000D03*
X121540000Y-67000000D03*
X113920000Y-82240000D03*
X119000000Y-67000000D03*
X116460000Y-82240000D03*
X116460000Y-67000000D03*
X119000000Y-82240000D03*
X113920000Y-67000000D03*
X121540000Y-82240000D03*
X111380000Y-67000000D03*
X124080000Y-82240000D03*
X108840000Y-67000000D03*
X126620000Y-82240000D03*
X106300000Y-67000000D03*
X129160000Y-82240000D03*
X103760000Y-67000000D03*
X131700000Y-82240000D03*
X101220000Y-67000000D03*
X134240000Y-82240000D03*
D14*
X113540000Y-115000000D03*
D24*
X98300000Y-122620000D03*
X111000000Y-115000000D03*
X100840000Y-122620000D03*
X108460000Y-115000000D03*
X103380000Y-122620000D03*
X105920000Y-115000000D03*
X105920000Y-122620000D03*
X103380000Y-115000000D03*
X108460000Y-122620000D03*
X100840000Y-115000000D03*
X111000000Y-122620000D03*
X98300000Y-115000000D03*
X113540000Y-122620000D03*
D14*
X171540000Y-67000000D03*
D24*
X143600000Y-82240000D03*
X169000000Y-67000000D03*
X146140000Y-82240000D03*
X166460000Y-67000000D03*
X148680000Y-82240000D03*
X163920000Y-67000000D03*
X151220000Y-82240000D03*
X161380000Y-67000000D03*
X153760000Y-82240000D03*
X158840000Y-67000000D03*
X156300000Y-82240000D03*
X156300000Y-67000000D03*
X158840000Y-82240000D03*
X153760000Y-67000000D03*
X161380000Y-82240000D03*
X151220000Y-67000000D03*
X163920000Y-82240000D03*
X148680000Y-67000000D03*
X166460000Y-82240000D03*
X146140000Y-67000000D03*
X169000000Y-82240000D03*
X143600000Y-67000000D03*
X171540000Y-82240000D03*
D14*
X146560000Y-94000000D03*
D24*
X98300000Y-109240000D03*
X144020000Y-94000000D03*
X100840000Y-109240000D03*
X141480000Y-94000000D03*
X103380000Y-109240000D03*
X138940000Y-94000000D03*
X105920000Y-109240000D03*
X136400000Y-94000000D03*
X108460000Y-109240000D03*
X133860000Y-94000000D03*
X111000000Y-109240000D03*
X131320000Y-94000000D03*
X113540000Y-109240000D03*
X128780000Y-94000000D03*
X116080000Y-109240000D03*
X126240000Y-94000000D03*
X118620000Y-109240000D03*
X123700000Y-94000000D03*
X121160000Y-109240000D03*
X121160000Y-94000000D03*
X123700000Y-109240000D03*
X118620000Y-94000000D03*
X126240000Y-109240000D03*
X116080000Y-94000000D03*
X128780000Y-109240000D03*
X113540000Y-94000000D03*
X131320000Y-109240000D03*
X111000000Y-94000000D03*
X133860000Y-109240000D03*
X108460000Y-94000000D03*
X136400000Y-109240000D03*
X105920000Y-94000000D03*
X138940000Y-109240000D03*
X103380000Y-94000000D03*
X141480000Y-109240000D03*
X100840000Y-94000000D03*
X144020000Y-109240000D03*
X98300000Y-94000000D03*
X146560000Y-109240000D03*
D29*
X97288600Y-112506800D03*
X131902100Y-121283700D03*
X139653400Y-118129400D03*
X124760000Y-84518200D03*
X134920000Y-89892100D03*
X135618700Y-134847500D03*
X144994300Y-103812400D03*
X128279600Y-119214600D03*
X135629900Y-118991100D03*
X130298300Y-83464300D03*
X124687100Y-126755000D03*
X148478500Y-106458100D03*
X144870000Y-78150800D03*
X138530300Y-82327500D03*
X130694000Y-105107600D03*
X137444900Y-84368000D03*
X120906700Y-104383600D03*
X113538500Y-87426100D03*
X123054700Y-100804600D03*
X145759700Y-97596200D03*
D30*
X112442300Y-125095000D02*
X116840000Y-125095000D01*
X117000000Y-124935000D02*
X117000000Y-122500000D01*
X116840000Y-125095000D02*
X117000000Y-124935000D01*
X148380000Y-47000000D02*
X148380000Y-48308300D01*
X162388300Y-54611700D02*
X164000000Y-53000000D01*
X162388300Y-54620000D02*
X162388300Y-54611700D01*
X161080000Y-54620000D02*
X162388300Y-54620000D01*
X159716300Y-53256300D02*
X161080000Y-54620000D01*
X153328000Y-53256300D02*
X159716300Y-53256300D01*
X148380000Y-48308300D02*
X153328000Y-53256300D01*
X181015000Y-117176700D02*
X181015000Y-113000000D01*
X178500000Y-119691700D02*
X181015000Y-117176700D01*
X178500000Y-121000000D02*
X178500000Y-119691700D01*
X134240000Y-82240000D02*
X131700000Y-82240000D01*
X140695700Y-58304300D02*
X137000000Y-62000000D01*
X140695700Y-55354700D02*
X140695700Y-58304300D01*
X147742100Y-48308300D02*
X140695700Y-55354700D01*
X148380000Y-48308300D02*
X147742100Y-48308300D01*
X158116400Y-129576400D02*
X159540000Y-131000000D01*
X146694600Y-129576400D02*
X158116400Y-129576400D01*
X140000000Y-122881800D02*
X146694600Y-129576400D01*
X140000000Y-122500000D02*
X140000000Y-122881800D01*
X178500000Y-121000000D02*
X177191700Y-121000000D01*
X134240000Y-82240000D02*
X135548300Y-82240000D01*
X143600000Y-67000000D02*
X142291700Y-67000000D01*
X134320000Y-62000000D02*
X135628300Y-62000000D01*
X159540000Y-131000000D02*
X160911900Y-131000000D01*
X162080000Y-131000000D02*
X160911900Y-131000000D01*
X116880000Y-122620000D02*
X117000000Y-122500000D01*
X113540000Y-122620000D02*
X116880000Y-122620000D01*
X177191700Y-121000000D02*
X173654200Y-121000000D01*
X172466000Y-119811800D02*
X172466000Y-119620000D01*
X173654200Y-121000000D02*
X172466000Y-119811800D01*
X173654200Y-121887700D02*
X163311000Y-132230900D01*
X173654200Y-121000000D02*
X173654200Y-121887700D01*
X163311000Y-132230900D02*
X162080000Y-131000000D01*
X168656000Y-110000000D02*
X165000000Y-110000000D01*
X136740000Y-82240000D02*
X137000000Y-82500000D01*
X135548300Y-82240000D02*
X136740000Y-82240000D01*
X121000000Y-95468300D02*
X121000000Y-99500000D01*
X121160000Y-95308300D02*
X121000000Y-95468300D01*
X121160000Y-94000000D02*
X121160000Y-95308300D01*
X108460000Y-109240000D02*
X105920000Y-109240000D01*
X141000000Y-67000000D02*
X142291700Y-67000000D01*
X137000000Y-62000000D02*
X135628300Y-62000000D01*
X137000000Y-63000000D02*
X141000000Y-67000000D01*
X137000000Y-62000000D02*
X137000000Y-63000000D01*
X152450800Y-68309200D02*
X153760000Y-67000000D01*
X149989200Y-68309200D02*
X152450800Y-68309200D01*
X148680000Y-67000000D02*
X149989200Y-68309200D01*
X163458900Y-132378900D02*
X163311000Y-132230900D01*
X163458900Y-134165800D02*
X163458900Y-132378900D01*
X161829300Y-135795400D02*
X163458900Y-134165800D01*
X136018400Y-135795400D02*
X161829300Y-135795400D01*
X136013500Y-135800300D02*
X136018400Y-135795400D01*
X135224000Y-135800300D02*
X136013500Y-135800300D01*
X135219100Y-135795400D02*
X135224000Y-135800300D01*
X114100100Y-135795400D02*
X135219100Y-135795400D01*
X112442300Y-134137600D02*
X114100100Y-135795400D01*
X112442300Y-125026000D02*
X112442300Y-125095000D01*
X112442300Y-125095000D02*
X112442300Y-134137600D01*
X159540000Y-133540000D02*
X162080000Y-133540000D01*
X118620000Y-111311700D02*
X121000000Y-113691700D01*
X118620000Y-109240000D02*
X118620000Y-111311700D01*
X121000000Y-115000000D02*
X121000000Y-113691700D01*
X185563600Y-116436400D02*
X181000000Y-121000000D01*
X185563600Y-103563600D02*
X185563600Y-116436400D01*
X184000000Y-102000000D02*
X185563600Y-103563600D01*
X175308400Y-95808400D02*
X175308400Y-102000000D01*
X174000000Y-94500000D02*
X175308400Y-95808400D01*
X177500000Y-102000000D02*
X175308400Y-102000000D01*
X174000000Y-102000000D02*
X172000000Y-104000000D01*
X175308400Y-102000000D02*
X174000000Y-102000000D01*
X149608100Y-45688100D02*
X150920000Y-47000000D01*
X144611900Y-45688100D02*
X149608100Y-45688100D01*
X143300000Y-47000000D02*
X144611900Y-45688100D01*
X150920000Y-47000000D02*
X152228300Y-47000000D01*
X169000000Y-82240000D02*
X169000000Y-83548300D01*
X169000000Y-83548300D02*
X168477600Y-84070700D01*
X174000000Y-89593100D02*
X174000000Y-94500000D01*
X168477600Y-84070700D02*
X174000000Y-89593100D01*
X166000000Y-127000000D02*
X164591700Y-127000000D01*
X161591700Y-124000000D02*
X160000000Y-124000000D01*
X164591700Y-127000000D02*
X161591700Y-124000000D01*
X141156900Y-121156900D02*
X160000000Y-121156900D01*
X140000000Y-120000000D02*
X141156900Y-121156900D01*
X160000000Y-124000000D02*
X160000000Y-121156900D01*
X160000000Y-121156900D02*
X160000000Y-118000000D01*
X103300000Y-120000000D02*
X98300000Y-115000000D01*
X117000000Y-120000000D02*
X103300000Y-120000000D01*
X97288600Y-112680300D02*
X97288600Y-112506800D01*
X98300000Y-113691700D02*
X97288600Y-112680300D01*
X98300000Y-115000000D02*
X98300000Y-113691700D01*
X129956300Y-121283700D02*
X128620000Y-122620000D01*
X131902100Y-121283700D02*
X129956300Y-121283700D01*
X171540000Y-67000000D02*
X171540000Y-50500000D01*
X164000000Y-50500000D02*
X171540000Y-50500000D01*
X175340000Y-50500000D02*
X179000000Y-46840000D01*
X171540000Y-50500000D02*
X175340000Y-50500000D01*
X168071000Y-84477300D02*
X168477600Y-84070700D01*
X160362700Y-84477300D02*
X168071000Y-84477300D01*
X155840000Y-89000000D02*
X160362700Y-84477300D01*
X153460000Y-47000000D02*
X152228300Y-47000000D01*
X156960000Y-50500000D02*
X164000000Y-50500000D01*
X153460000Y-47000000D02*
X156960000Y-50500000D01*
D31*
X155580000Y-119920000D02*
X157500000Y-118000000D01*
X150000000Y-119920000D02*
X155580000Y-119920000D01*
X138887100Y-118895700D02*
X139653400Y-118129400D01*
X138887100Y-120484400D02*
X138887100Y-118895700D01*
X139508800Y-121106100D02*
X138887100Y-120484400D01*
X140206200Y-121106100D02*
X139508800Y-121106100D01*
X144000000Y-124899900D02*
X140206200Y-121106100D01*
X144000000Y-125000000D02*
X144000000Y-124899900D01*
X144000000Y-125000000D02*
X150000000Y-125000000D01*
X156500000Y-125000000D02*
X157500000Y-124000000D01*
X150000000Y-125000000D02*
X156500000Y-125000000D01*
X184000000Y-106500000D02*
X177500000Y-106500000D01*
X168656000Y-117015100D02*
X172466000Y-113205100D01*
X168656000Y-120160000D02*
X168656000Y-117015100D01*
X172466000Y-112000000D02*
X172466000Y-113205100D01*
X165000000Y-123460000D02*
X166000000Y-124460000D01*
X165000000Y-120160000D02*
X165000000Y-123460000D01*
X143840000Y-62000000D02*
X146380000Y-62000000D01*
X151460000Y-62000000D02*
X154000000Y-62000000D01*
X154000000Y-62000000D02*
X156540000Y-62000000D01*
X156540000Y-62000000D02*
X159080000Y-62000000D01*
X159080000Y-62000000D02*
X161620000Y-62000000D01*
X151460000Y-62000000D02*
X148920000Y-62000000D01*
X148920000Y-62000000D02*
X146380000Y-62000000D01*
X153486200Y-58291300D02*
X154000000Y-58291300D01*
X150920000Y-55725100D02*
X153486200Y-58291300D01*
X150920000Y-54620000D02*
X150920000Y-55725100D01*
X154000000Y-59460000D02*
X154000000Y-58291300D01*
X145866200Y-58291300D02*
X146380000Y-58291300D01*
X143300000Y-55725100D02*
X145866200Y-58291300D01*
X143300000Y-54620000D02*
X143300000Y-55725100D01*
X146380000Y-59460000D02*
X146380000Y-58291300D01*
X169000000Y-67000000D02*
X170105100Y-67000000D01*
X179000000Y-54460000D02*
X179000000Y-55628700D01*
X170105100Y-67604400D02*
X170105100Y-67000000D01*
X170605900Y-68105200D02*
X170105100Y-67604400D01*
X172515600Y-68105200D02*
X170605900Y-68105200D01*
X176815500Y-63805300D02*
X172515600Y-68105200D01*
X176815500Y-57335700D02*
X176815500Y-63805300D01*
X178522500Y-55628700D02*
X176815500Y-57335700D01*
X179000000Y-55628700D02*
X178522500Y-55628700D01*
X178522500Y-58168700D02*
X179000000Y-58168700D01*
X177628900Y-59062300D02*
X178522500Y-58168700D01*
X177628900Y-63567200D02*
X177628900Y-59062300D01*
X172667900Y-68528200D02*
X177628900Y-63567200D01*
X168925600Y-68528200D02*
X172667900Y-68528200D01*
X167730000Y-67332600D02*
X168925600Y-68528200D01*
X167730000Y-66629400D02*
X167730000Y-67332600D01*
X166935500Y-65834900D02*
X167730000Y-66629400D01*
X160972100Y-65834900D02*
X166935500Y-65834900D01*
X159945100Y-66861900D02*
X160972100Y-65834900D01*
X159945100Y-67000000D02*
X159945100Y-66861900D01*
X158840000Y-67000000D02*
X159945100Y-67000000D01*
X179000000Y-57000000D02*
X179000000Y-58168700D01*
X179000000Y-73674900D02*
X179000000Y-59540000D01*
X171540000Y-81134900D02*
X179000000Y-73674900D01*
X171540000Y-82240000D02*
X171540000Y-81134900D01*
X133860000Y-94000000D02*
X134965100Y-94000000D01*
X166460000Y-67000000D02*
X166460000Y-67552500D01*
X166460000Y-67552500D02*
X166460000Y-68105100D01*
X165577600Y-67552500D02*
X165025100Y-67000000D01*
X166460000Y-67552500D02*
X165577600Y-67552500D01*
X163920000Y-67000000D02*
X165025100Y-67000000D01*
X134965100Y-93861700D02*
X134965100Y-94000000D01*
X136338700Y-92488100D02*
X134965100Y-93861700D01*
X150764300Y-92488100D02*
X136338700Y-92488100D01*
X159385000Y-83867400D02*
X150764300Y-92488100D01*
X166395900Y-83867400D02*
X159385000Y-83867400D01*
X167598500Y-82664800D02*
X166395900Y-83867400D01*
X167598500Y-69243600D02*
X167598500Y-82664800D01*
X166460000Y-68105100D02*
X167598500Y-69243600D01*
X122220000Y-88000000D02*
X121114900Y-88000000D01*
X157484900Y-72159800D02*
X166460000Y-81134900D01*
X157484900Y-66621000D02*
X157484900Y-72159800D01*
X156705600Y-65841700D02*
X157484900Y-66621000D01*
X155890300Y-65841700D02*
X156705600Y-65841700D01*
X155030000Y-66702000D02*
X155890300Y-65841700D01*
X155030000Y-67295000D02*
X155030000Y-66702000D01*
X151711500Y-70613500D02*
X155030000Y-67295000D01*
X113420500Y-70613500D02*
X151711500Y-70613500D01*
X109945100Y-67138100D02*
X113420500Y-70613500D01*
X109945100Y-67000000D02*
X109945100Y-67138100D01*
X108840000Y-67000000D02*
X109945100Y-67000000D01*
X166460000Y-82240000D02*
X166460000Y-81134900D01*
X115951800Y-91588200D02*
X113540000Y-94000000D01*
X118146500Y-91588200D02*
X115951800Y-91588200D01*
X121114900Y-88619800D02*
X118146500Y-91588200D01*
X121114900Y-88000000D02*
X121114900Y-88619800D01*
X123654900Y-88229000D02*
X123654900Y-88000000D01*
X119395900Y-92488000D02*
X123654900Y-88229000D01*
X115956400Y-92488000D02*
X119395900Y-92488000D01*
X114810000Y-93634400D02*
X115956400Y-92488000D01*
X114810000Y-94356000D02*
X114810000Y-93634400D01*
X114057900Y-95108100D02*
X114810000Y-94356000D01*
X113075100Y-95108100D02*
X114057900Y-95108100D01*
X112105100Y-94138100D02*
X113075100Y-95108100D01*
X112105100Y-94000000D02*
X112105100Y-94138100D01*
X111000000Y-94000000D02*
X112105100Y-94000000D01*
X124760000Y-88000000D02*
X123654900Y-88000000D01*
X163920000Y-82240000D02*
X162814900Y-82240000D01*
X128819900Y-84518200D02*
X124760000Y-84518200D01*
X129443500Y-85141800D02*
X128819900Y-84518200D01*
X137806000Y-85141800D02*
X129443500Y-85141800D01*
X141823700Y-81124100D02*
X137806000Y-85141800D01*
X161928000Y-81124100D02*
X141823700Y-81124100D01*
X162814900Y-82011000D02*
X161928000Y-81124100D01*
X162814900Y-82240000D02*
X162814900Y-82011000D01*
X103760000Y-67000000D02*
X103760000Y-68105100D01*
X100079100Y-71786000D02*
X103760000Y-68105100D01*
X100079100Y-84844000D02*
X100079100Y-71786000D01*
X108008200Y-92773100D02*
X100079100Y-84844000D01*
X108862900Y-92773100D02*
X108008200Y-92773100D01*
X109730000Y-93640200D02*
X108862900Y-92773100D01*
X109730000Y-94372800D02*
X109730000Y-93640200D01*
X110922200Y-95565000D02*
X109730000Y-94372800D01*
X116178900Y-95565000D02*
X110922200Y-95565000D01*
X117514900Y-94229000D02*
X116178900Y-95565000D01*
X117514900Y-94000000D02*
X117514900Y-94229000D01*
X118395700Y-94000000D02*
X117514900Y-94000000D01*
X118395700Y-94000000D02*
X118620000Y-94000000D01*
X118620000Y-94000000D02*
X119725100Y-94000000D01*
X127300000Y-88000000D02*
X126194900Y-88000000D01*
X126194900Y-88341700D02*
X126194900Y-88000000D01*
X121641800Y-92894800D02*
X126194900Y-88341700D01*
X119725100Y-93861700D02*
X119725100Y-94000000D01*
X120692000Y-92894800D02*
X119725100Y-93861700D01*
X121641800Y-92894800D02*
X120692000Y-92894800D01*
X161380000Y-82240000D02*
X160274900Y-82240000D01*
X122430000Y-93683000D02*
X121641800Y-92894800D01*
X122430000Y-94351100D02*
X122430000Y-93683000D01*
X123618300Y-95539400D02*
X122430000Y-94351100D01*
X131408700Y-95539400D02*
X123618300Y-95539400D01*
X132590000Y-94358100D02*
X131408700Y-95539400D01*
X132590000Y-93697200D02*
X132590000Y-94358100D01*
X134222000Y-92065200D02*
X132590000Y-93697200D01*
X150611900Y-92065200D02*
X134222000Y-92065200D01*
X160274900Y-82402200D02*
X150611900Y-92065200D01*
X160274900Y-82240000D02*
X160274900Y-82402200D01*
X158840000Y-82240000D02*
X157734900Y-82240000D01*
X131512000Y-91268000D02*
X128780000Y-94000000D01*
X148851900Y-91268000D02*
X131512000Y-91268000D01*
X157734900Y-82385000D02*
X148851900Y-91268000D01*
X157734900Y-82240000D02*
X157734900Y-82385000D01*
X102325100Y-82469000D02*
X102325100Y-82240000D01*
X110700000Y-90843900D02*
X102325100Y-82469000D01*
X116120800Y-90843900D02*
X110700000Y-90843900D01*
X118360700Y-88604000D02*
X116120800Y-90843900D01*
X118360700Y-87240300D02*
X118360700Y-88604000D01*
X118706300Y-86894700D02*
X118360700Y-87240300D01*
X127873400Y-86894700D02*
X118706300Y-86894700D01*
X128734900Y-87756200D02*
X127873400Y-86894700D01*
X128734900Y-88000000D02*
X128734900Y-87756200D01*
X129840000Y-88000000D02*
X128734900Y-88000000D01*
X101220000Y-82240000D02*
X102325100Y-82240000D01*
X156300000Y-82240000D02*
X155194900Y-82240000D01*
X131320000Y-94000000D02*
X130214900Y-94000000D01*
X130214900Y-94229000D02*
X130214900Y-94000000D01*
X129331800Y-95112100D02*
X130214900Y-94229000D01*
X128320300Y-95112100D02*
X129331800Y-95112100D01*
X127633200Y-94425000D02*
X128320300Y-95112100D01*
X127633200Y-93564900D02*
X127633200Y-94425000D01*
X130336800Y-90861300D02*
X127633200Y-93564900D01*
X146711600Y-90861300D02*
X130336800Y-90861300D01*
X155194900Y-82378000D02*
X146711600Y-90861300D01*
X155194900Y-82240000D02*
X155194900Y-82378000D01*
X132380000Y-88000000D02*
X131274900Y-88000000D01*
X103760000Y-82240000D02*
X104865100Y-82240000D01*
X104865100Y-82497600D02*
X104865100Y-82240000D01*
X112804600Y-90437100D02*
X104865100Y-82497600D01*
X115931000Y-90437100D02*
X112804600Y-90437100D01*
X117923900Y-88444200D02*
X115931000Y-90437100D01*
X117923900Y-87101900D02*
X117923900Y-88444200D01*
X118537800Y-86488000D02*
X117923900Y-87101900D01*
X128377800Y-86488000D02*
X118537800Y-86488000D01*
X128784500Y-86894700D02*
X128377800Y-86488000D01*
X130307700Y-86894700D02*
X128784500Y-86894700D01*
X131274900Y-87861900D02*
X130307700Y-86894700D01*
X131274900Y-88000000D02*
X131274900Y-87861900D01*
X130347900Y-89892100D02*
X134920000Y-89892100D01*
X126240000Y-94000000D02*
X130347900Y-89892100D01*
X152654900Y-82469000D02*
X152654900Y-82240000D01*
X145231800Y-89892100D02*
X152654900Y-82469000D01*
X134920000Y-89892100D02*
X145231800Y-89892100D01*
X153760000Y-82240000D02*
X152654900Y-82240000D01*
X134920000Y-88000000D02*
X133814900Y-88000000D01*
X106300000Y-82240000D02*
X106300000Y-83345100D01*
X112979300Y-90024400D02*
X106300000Y-83345100D01*
X115741500Y-90024400D02*
X112979300Y-90024400D01*
X117517200Y-88248700D02*
X115741500Y-90024400D01*
X117517200Y-86933400D02*
X117517200Y-88248700D01*
X118369300Y-86081300D02*
X117517200Y-86933400D01*
X128657400Y-86081300D02*
X118369300Y-86081300D01*
X129064100Y-86488000D02*
X128657400Y-86081300D01*
X132441200Y-86488000D02*
X129064100Y-86488000D01*
X133814900Y-87861700D02*
X132441200Y-86488000D01*
X133814900Y-88000000D02*
X133814900Y-87861700D01*
X151220000Y-82240000D02*
X150114900Y-82240000D01*
X138565100Y-88229000D02*
X138565100Y-88000000D01*
X139455600Y-89119500D02*
X138565100Y-88229000D01*
X143464400Y-89119500D02*
X139455600Y-89119500D01*
X150114900Y-82469000D02*
X143464400Y-89119500D01*
X150114900Y-82240000D02*
X150114900Y-82469000D01*
X137736300Y-88000000D02*
X138565100Y-88000000D01*
X137736300Y-88000000D02*
X137460000Y-88000000D01*
X137460000Y-88000000D02*
X136434700Y-88000000D01*
X108840000Y-82240000D02*
X108840000Y-83345100D01*
X136434700Y-88138000D02*
X136434700Y-88000000D01*
X135467500Y-89105200D02*
X136434700Y-88138000D01*
X129561800Y-89105200D02*
X135467500Y-89105200D01*
X124805100Y-93861900D02*
X129561800Y-89105200D01*
X124805100Y-94000000D02*
X124805100Y-93861900D01*
X123700000Y-94000000D02*
X124805100Y-94000000D01*
X108840000Y-84400100D02*
X108840000Y-83345100D01*
X114039400Y-89599500D02*
X108840000Y-84400100D01*
X115553900Y-89599500D02*
X114039400Y-89599500D01*
X117110500Y-88042900D02*
X115553900Y-89599500D01*
X117110500Y-86764900D02*
X117110500Y-88042900D01*
X118200800Y-85674600D02*
X117110500Y-86764900D01*
X128825900Y-85674600D02*
X118200800Y-85674600D01*
X129232200Y-86080900D02*
X128825900Y-85674600D01*
X134564100Y-86080900D02*
X129232200Y-86080900D01*
X136434700Y-87951500D02*
X134564100Y-86080900D01*
X136434700Y-88000000D02*
X136434700Y-87951500D01*
X148680000Y-82240000D02*
X147574900Y-82240000D01*
X141105100Y-87999900D02*
X141105100Y-88000000D01*
X142056700Y-87999900D02*
X141105100Y-87999900D01*
X147574900Y-82481700D02*
X142056700Y-87999900D01*
X147574900Y-82240000D02*
X147574900Y-82481700D01*
X140000000Y-88000000D02*
X141105100Y-88000000D01*
X111116500Y-63105100D02*
X111460000Y-63105100D01*
X107689200Y-66532400D02*
X111116500Y-63105100D01*
X107689200Y-77444100D02*
X107689200Y-66532400D01*
X111380000Y-81134900D02*
X107689200Y-77444100D01*
X111380000Y-82240000D02*
X111380000Y-81134900D01*
X111460000Y-62000000D02*
X111460000Y-63105100D01*
X111380000Y-86361600D02*
X111380000Y-82240000D01*
X114173300Y-89154900D02*
X111380000Y-86361600D01*
X115412200Y-89154900D02*
X114173300Y-89154900D01*
X116703800Y-87863300D02*
X115412200Y-89154900D01*
X116703800Y-86596400D02*
X116703800Y-87863300D01*
X118032300Y-85267900D02*
X116703800Y-86596400D01*
X128994400Y-85267900D02*
X118032300Y-85267900D01*
X129400700Y-85674200D02*
X128994400Y-85267900D01*
X137674200Y-85674200D02*
X129400700Y-85674200D01*
X140000000Y-88000000D02*
X137674200Y-85674200D01*
X119080000Y-62000000D02*
X117974900Y-62000000D01*
X108460000Y-115000000D02*
X107354900Y-115000000D01*
X117974900Y-61861900D02*
X117974900Y-62000000D01*
X116580300Y-60467300D02*
X117974900Y-61861900D01*
X108860300Y-60467300D02*
X116580300Y-60467300D01*
X107650000Y-61677600D02*
X108860300Y-60467300D01*
X107650000Y-62304200D02*
X107650000Y-61677600D01*
X104854400Y-65099800D02*
X107650000Y-62304200D01*
X101530600Y-65099800D02*
X104854400Y-65099800D01*
X96765100Y-69865300D02*
X101530600Y-65099800D01*
X96765100Y-109907200D02*
X96765100Y-69865300D01*
X100212700Y-113354800D02*
X96765100Y-109907200D01*
X105938700Y-113354800D02*
X100212700Y-113354800D01*
X107354900Y-114771000D02*
X105938700Y-113354800D01*
X107354900Y-115000000D02*
X107354900Y-114771000D01*
X139220000Y-131000000D02*
X138051300Y-131000000D01*
X135511200Y-134740000D02*
X135618700Y-134847500D01*
X135511200Y-133024200D02*
X135511200Y-134740000D01*
X136265400Y-132270000D02*
X135511200Y-133024200D01*
X137144500Y-132270000D02*
X136265400Y-132270000D01*
X138051300Y-131363200D02*
X137144500Y-132270000D01*
X138051300Y-131000000D02*
X138051300Y-131363200D01*
X100160800Y-113894900D02*
X100840000Y-113894900D01*
X96358300Y-110092400D02*
X100160800Y-113894900D01*
X96358300Y-69696800D02*
X96358300Y-110092400D01*
X102949900Y-63105200D02*
X96358300Y-69696800D01*
X104301500Y-63105200D02*
X102949900Y-63105200D01*
X105110000Y-62296700D02*
X104301500Y-63105200D01*
X105110000Y-61667700D02*
X105110000Y-62296700D01*
X106720700Y-60057000D02*
X105110000Y-61667700D01*
X118740300Y-60057000D02*
X106720700Y-60057000D01*
X120350000Y-61666700D02*
X118740300Y-60057000D01*
X120350000Y-63667500D02*
X120350000Y-61666700D01*
X122974800Y-66292300D02*
X120350000Y-63667500D01*
X122974800Y-67530400D02*
X122974800Y-66292300D01*
X123549600Y-68105200D02*
X122974800Y-67530400D01*
X129691400Y-68105200D02*
X123549600Y-68105200D01*
X130430000Y-67366600D02*
X129691400Y-68105200D01*
X130430000Y-66466600D02*
X130430000Y-67366600D01*
X131780000Y-65116600D02*
X130430000Y-66466600D01*
X131780000Y-62000000D02*
X131780000Y-65116600D01*
X100840000Y-115000000D02*
X100840000Y-113894900D01*
X169974900Y-88861700D02*
X169974900Y-89000000D01*
X169008100Y-87894900D02*
X169974900Y-88861700D01*
X165532100Y-87894900D02*
X169008100Y-87894900D01*
X164565100Y-88861900D02*
X165532100Y-87894900D01*
X164565100Y-89000000D02*
X164565100Y-88861900D01*
X163460000Y-89000000D02*
X164565100Y-89000000D01*
X171080000Y-89000000D02*
X170527500Y-89000000D01*
X170527500Y-89000000D02*
X169974900Y-89000000D01*
X136680000Y-131000000D02*
X136680000Y-129831300D01*
X164740000Y-94787500D02*
X170527500Y-89000000D01*
X161185800Y-94787500D02*
X164740000Y-94787500D01*
X159650000Y-96323300D02*
X161185800Y-94787500D01*
X159650000Y-97717000D02*
X159650000Y-96323300D01*
X146501000Y-110866000D02*
X159650000Y-97717000D01*
X145856600Y-110866000D02*
X146501000Y-110866000D01*
X138480300Y-118242300D02*
X145856600Y-110866000D01*
X138480300Y-128031000D02*
X138480300Y-118242300D01*
X136680000Y-129831300D02*
X138480300Y-128031000D01*
X121160000Y-109240000D02*
X122265100Y-109240000D01*
X112485100Y-67229000D02*
X112485100Y-67000000D01*
X113822600Y-68566500D02*
X112485100Y-67229000D01*
X130552000Y-68566500D02*
X113822600Y-68566500D01*
X131013400Y-68105100D02*
X130552000Y-68566500D01*
X144068100Y-68105100D02*
X131013400Y-68105100D01*
X145034900Y-67138300D02*
X144068100Y-68105100D01*
X145034900Y-67000000D02*
X145034900Y-67138300D01*
X146140000Y-67000000D02*
X145034900Y-67000000D01*
X111380000Y-67000000D02*
X112485100Y-67000000D01*
X142152900Y-106653800D02*
X144994300Y-103812400D01*
X124713200Y-106653800D02*
X142152900Y-106653800D01*
X122265100Y-109101900D02*
X124713200Y-106653800D01*
X122265100Y-109240000D02*
X122265100Y-109101900D01*
X130431300Y-133903200D02*
X130431300Y-133540000D01*
X129616400Y-134718100D02*
X130431300Y-133903200D01*
X123489100Y-134718100D02*
X129616400Y-134718100D01*
X122756600Y-133985600D02*
X123489100Y-134718100D01*
X122756600Y-129753600D02*
X122756600Y-133985600D01*
X125455000Y-127055200D02*
X122756600Y-129753600D01*
X125455000Y-125289600D02*
X125455000Y-127055200D01*
X124805100Y-124639700D02*
X125455000Y-125289600D01*
X124805100Y-111450200D02*
X124805100Y-124639700D01*
X123700000Y-110345100D02*
X124805100Y-111450200D01*
X123700000Y-109240000D02*
X123700000Y-110345100D01*
X131600000Y-133540000D02*
X130431300Y-133540000D01*
X126240000Y-109240000D02*
X127345100Y-109240000D01*
X129060000Y-131000000D02*
X130228700Y-131000000D01*
X130228700Y-130255600D02*
X130228700Y-131000000D01*
X137350800Y-123133500D02*
X130228700Y-130255600D01*
X137350800Y-118221300D02*
X137350800Y-123133500D01*
X142616700Y-112955400D02*
X137350800Y-118221300D01*
X142616700Y-108772500D02*
X142616700Y-112955400D01*
X141519400Y-107675200D02*
X142616700Y-108772500D01*
X128771700Y-107675200D02*
X141519400Y-107675200D01*
X127345100Y-109101800D02*
X128771700Y-107675200D01*
X127345100Y-109240000D02*
X127345100Y-109101800D01*
X128780000Y-109240000D02*
X129885100Y-109240000D01*
X129060000Y-133540000D02*
X129060000Y-132371300D01*
X129885100Y-109101900D02*
X129885100Y-109240000D01*
X130867800Y-108119200D02*
X129885100Y-109101900D01*
X139391000Y-108119200D02*
X130867800Y-108119200D01*
X140062500Y-108790700D02*
X139391000Y-108119200D01*
X140062500Y-114359300D02*
X140062500Y-108790700D01*
X137028500Y-117393300D02*
X140062500Y-114359300D01*
X136138600Y-117393300D02*
X137028500Y-117393300D01*
X134811000Y-118720900D02*
X136138600Y-117393300D01*
X134811000Y-123084900D02*
X134811000Y-118720900D01*
X127862000Y-130033900D02*
X134811000Y-123084900D01*
X127862000Y-131536500D02*
X127862000Y-130033900D01*
X128696800Y-132371300D02*
X127862000Y-131536500D01*
X129060000Y-132371300D02*
X128696800Y-132371300D01*
X127466400Y-118401400D02*
X128279600Y-119214600D01*
X127466400Y-114198700D02*
X127466400Y-118401400D01*
X131320000Y-110345100D02*
X127466400Y-114198700D01*
X131320000Y-109240000D02*
X131320000Y-110345100D01*
X125265100Y-46531000D02*
X125265100Y-46760000D01*
X127546700Y-44249400D02*
X125265100Y-46531000D01*
X157362400Y-44249400D02*
X127546700Y-44249400D01*
X159974900Y-46861900D02*
X157362400Y-44249400D01*
X159974900Y-47000000D02*
X159974900Y-46861900D01*
X161080000Y-47000000D02*
X159974900Y-47000000D01*
X124160000Y-46760000D02*
X125265100Y-46760000D01*
X125265100Y-64709800D02*
X125265100Y-46760000D01*
X124080000Y-65894900D02*
X125265100Y-64709800D01*
X124080000Y-67000000D02*
X124080000Y-65894900D01*
X127811200Y-48976300D02*
X126700000Y-47865100D01*
X127811200Y-64703700D02*
X127811200Y-48976300D01*
X126620000Y-65894900D02*
X127811200Y-64703700D01*
X126620000Y-67000000D02*
X126620000Y-65894900D01*
X126700000Y-46760000D02*
X126700000Y-47865100D01*
X127805100Y-46531000D02*
X127805100Y-46760000D01*
X129679900Y-44656200D02*
X127805100Y-46531000D01*
X155229200Y-44656200D02*
X129679900Y-44656200D01*
X157434900Y-46861900D02*
X155229200Y-44656200D01*
X157434900Y-47000000D02*
X157434900Y-46861900D01*
X158540000Y-47000000D02*
X157434900Y-47000000D01*
X126700000Y-46760000D02*
X127805100Y-46760000D01*
X127350000Y-126461300D02*
X123980000Y-129831300D01*
X127350000Y-122249100D02*
X127350000Y-126461300D01*
X133163100Y-116436000D02*
X127350000Y-122249100D01*
X136835400Y-116436000D02*
X133163100Y-116436000D01*
X137393300Y-115878100D02*
X136835400Y-116436000D01*
X137393300Y-111338400D02*
X137393300Y-115878100D01*
X136400000Y-110345100D02*
X137393300Y-111338400D01*
X136400000Y-109240000D02*
X136400000Y-110345100D01*
X123980000Y-131000000D02*
X123980000Y-129831300D01*
X156000000Y-47000000D02*
X154894900Y-47000000D01*
X129240000Y-46760000D02*
X130345100Y-46760000D01*
X130345100Y-64709800D02*
X129160000Y-65894900D01*
X130345100Y-46760000D02*
X130345100Y-64709800D01*
X129160000Y-67000000D02*
X129160000Y-65894900D01*
X138940000Y-109240000D02*
X138940000Y-110345100D01*
X123980000Y-133540000D02*
X123980000Y-132371300D01*
X154894900Y-46861900D02*
X154894900Y-47000000D01*
X153106000Y-45073000D02*
X154894900Y-46861900D01*
X131872400Y-45073000D02*
X153106000Y-45073000D01*
X130345100Y-46600300D02*
X131872400Y-45073000D01*
X130345100Y-46760000D02*
X130345100Y-46600300D01*
X138940000Y-114906600D02*
X138940000Y-110345100D01*
X136860000Y-116986600D02*
X138940000Y-114906600D01*
X135956500Y-116986600D02*
X136860000Y-116986600D01*
X132651700Y-120291400D02*
X135956500Y-116986600D01*
X132651700Y-121594300D02*
X132651700Y-120291400D01*
X132317200Y-121928800D02*
X132651700Y-121594300D01*
X132317200Y-123272200D02*
X132317200Y-121928800D01*
X125351200Y-130238200D02*
X132317200Y-123272200D01*
X125351200Y-131363300D02*
X125351200Y-130238200D01*
X124343200Y-132371300D02*
X125351200Y-131363300D01*
X123980000Y-132371300D02*
X124343200Y-132371300D01*
X136005900Y-118991100D02*
X135629900Y-118991100D01*
X141480000Y-113517000D02*
X136005900Y-118991100D01*
X141480000Y-109240000D02*
X141480000Y-113517000D01*
X125185100Y-82469000D02*
X125185100Y-82240000D01*
X126180400Y-83464300D02*
X125185100Y-82469000D01*
X130298300Y-83464300D02*
X126180400Y-83464300D01*
X124080000Y-82240000D02*
X125185100Y-82240000D01*
X120068700Y-130636800D02*
X120068700Y-131000000D01*
X123950500Y-126755000D02*
X120068700Y-130636800D01*
X124687100Y-126755000D02*
X123950500Y-126755000D01*
X118900000Y-131000000D02*
X120068700Y-131000000D01*
X116460000Y-82240000D02*
X117565100Y-82240000D01*
X146560000Y-109240000D02*
X146560000Y-108134900D01*
X148236800Y-106458100D02*
X148478500Y-106458100D01*
X146560000Y-108134900D02*
X148236800Y-106458100D01*
X117565100Y-82011000D02*
X117565100Y-82240000D01*
X121425300Y-78150800D02*
X117565100Y-82011000D01*
X144870000Y-78150800D02*
X121425300Y-78150800D01*
X146560000Y-94000000D02*
X146560000Y-95105100D01*
X118900000Y-133540000D02*
X120068700Y-133540000D01*
X121540000Y-82240000D02*
X122645100Y-82240000D01*
X122645100Y-82011000D02*
X122645100Y-82240000D01*
X123521300Y-81134800D02*
X122645100Y-82011000D01*
X137337600Y-81134800D02*
X123521300Y-81134800D01*
X138530300Y-82327500D02*
X137337600Y-81134800D01*
X146560000Y-105401600D02*
X146560000Y-95105100D01*
X145226600Y-106735000D02*
X146560000Y-105401600D01*
X145226600Y-110920800D02*
X145226600Y-106735000D01*
X138059500Y-118087900D02*
X145226600Y-110920800D01*
X138059500Y-124010300D02*
X138059500Y-118087900D01*
X132870000Y-129199800D02*
X138059500Y-124010300D01*
X132870000Y-133994800D02*
X132870000Y-129199800D01*
X131689200Y-135175600D02*
X132870000Y-133994800D01*
X121341100Y-135175600D02*
X131689200Y-135175600D01*
X120068700Y-133903200D02*
X121341100Y-135175600D01*
X120068700Y-133540000D02*
X120068700Y-133903200D01*
X144020000Y-94000000D02*
X142914900Y-94000000D01*
X131945100Y-105107600D02*
X130694000Y-105107600D01*
X142914900Y-94137800D02*
X131945100Y-105107600D01*
X142914900Y-94000000D02*
X142914900Y-94137800D01*
X129160000Y-82240000D02*
X130265100Y-82240000D01*
X130265100Y-82371000D02*
X130265100Y-82240000D01*
X132262100Y-84368000D02*
X130265100Y-82371000D01*
X137444900Y-84368000D02*
X132262100Y-84368000D01*
X133214900Y-48970200D02*
X134320000Y-47865100D01*
X133214900Y-64869800D02*
X133214900Y-48970200D01*
X134240000Y-65894900D02*
X133214900Y-64869800D01*
X134240000Y-67000000D02*
X134240000Y-65894900D01*
X134320000Y-46760000D02*
X134320000Y-47865100D01*
X127589400Y-104383600D02*
X120906700Y-104383600D01*
X137834900Y-94138100D02*
X127589400Y-104383600D01*
X137834900Y-94000000D02*
X137834900Y-94138100D01*
X138940000Y-94000000D02*
X137834900Y-94000000D01*
X113920000Y-87044600D02*
X113920000Y-82240000D01*
X113538500Y-87426100D02*
X113920000Y-87044600D01*
X129595400Y-100804600D02*
X123054700Y-100804600D01*
X136400000Y-94000000D02*
X129595400Y-100804600D01*
X156300000Y-67000000D02*
X156300000Y-68105100D01*
X115000000Y-87725000D02*
X115000000Y-88000000D01*
X117863800Y-84861200D02*
X115000000Y-87725000D01*
X118001300Y-84861200D02*
X117863800Y-84861200D01*
X120270000Y-82592500D02*
X118001300Y-84861200D01*
X120270000Y-81890800D02*
X120270000Y-82592500D01*
X123266000Y-78894800D02*
X120270000Y-81890800D01*
X143832500Y-78894800D02*
X123266000Y-78894800D01*
X143878800Y-78941100D02*
X143832500Y-78894800D01*
X145464000Y-78941100D02*
X143878800Y-78941100D01*
X156300000Y-68105100D02*
X145464000Y-78941100D01*
X145894900Y-114840000D02*
X146734900Y-114000000D01*
X144000000Y-114840000D02*
X145894900Y-114840000D01*
X147840000Y-114000000D02*
X146734900Y-114000000D01*
X135134900Y-114861700D02*
X135134900Y-115000000D01*
X134168100Y-113894900D02*
X135134900Y-114861700D01*
X130692100Y-113894900D02*
X134168100Y-113894900D01*
X129725100Y-114861900D02*
X130692100Y-113894900D01*
X129725100Y-115000000D02*
X129725100Y-114861900D01*
X128620000Y-115000000D02*
X129725100Y-115000000D01*
X136240000Y-115000000D02*
X135134900Y-115000000D01*
X122434900Y-122391000D02*
X122434900Y-122620000D01*
X121428500Y-121384600D02*
X122434900Y-122391000D01*
X110662400Y-121384600D02*
X121428500Y-121384600D01*
X109565100Y-122481900D02*
X110662400Y-121384600D01*
X109565100Y-122620000D02*
X109565100Y-122481900D01*
X108460000Y-122620000D02*
X109565100Y-122620000D01*
X123540000Y-122620000D02*
X122434900Y-122620000D01*
X107354900Y-122849000D02*
X107354900Y-122620000D01*
X106478800Y-123725100D02*
X107354900Y-122849000D01*
X105452100Y-123725100D02*
X106478800Y-123725100D01*
X104485100Y-122758100D02*
X105452100Y-123725100D01*
X104485100Y-122620000D02*
X104485100Y-122758100D01*
X103380000Y-122620000D02*
X104485100Y-122620000D01*
X108460000Y-122620000D02*
X107354900Y-122620000D01*
X112434900Y-114861900D02*
X112434900Y-115000000D01*
X108324900Y-110751900D02*
X112434900Y-114861900D01*
X100778900Y-110751900D02*
X108324900Y-110751900D01*
X99405100Y-109378100D02*
X100778900Y-110751900D01*
X99405100Y-109240000D02*
X99405100Y-109378100D01*
X98300000Y-109240000D02*
X99405100Y-109240000D01*
X113540000Y-115000000D02*
X112434900Y-115000000D01*
X137159800Y-106196100D02*
X145759700Y-97596200D01*
X117536300Y-106196100D02*
X137159800Y-106196100D01*
X114810000Y-108922400D02*
X117536300Y-106196100D01*
X114810000Y-109535100D02*
X114810000Y-108922400D01*
X113999900Y-110345200D02*
X114810000Y-109535100D01*
X102912200Y-110345200D02*
X113999900Y-110345200D01*
X101945100Y-109378100D02*
X102912200Y-110345200D01*
X101945100Y-109240000D02*
X101945100Y-109378100D01*
X100840000Y-109240000D02*
X101945100Y-109240000D01*
X167434900Y-89229000D02*
X167434900Y-89000000D01*
X163769000Y-92894900D02*
X167434900Y-89229000D01*
X141010800Y-92894900D02*
X163769000Y-92894900D01*
X140210000Y-93695700D02*
X141010800Y-92894900D01*
X140210000Y-94293000D02*
X140210000Y-93695700D01*
X128928700Y-105574300D02*
X140210000Y-94293000D01*
X115632700Y-105574300D02*
X128928700Y-105574300D01*
X112105100Y-109101900D02*
X115632700Y-105574300D01*
X112105100Y-109240000D02*
X112105100Y-109101900D01*
X111000000Y-109240000D02*
X112105100Y-109240000D01*
X168540000Y-89000000D02*
X167434900Y-89000000D01*
X114000000Y-62000000D02*
X112894900Y-62000000D01*
X123540000Y-115000000D02*
X122434900Y-115000000D01*
X122434900Y-115229000D02*
X122434900Y-115000000D01*
X121536300Y-116127600D02*
X122434900Y-115229000D01*
X110540600Y-116127600D02*
X121536300Y-116127600D01*
X109730000Y-115317000D02*
X110540600Y-116127600D01*
X109730000Y-114703900D02*
X109730000Y-115317000D01*
X106997900Y-111971800D02*
X109730000Y-114703900D01*
X99404800Y-111971800D02*
X106997900Y-111971800D01*
X97171900Y-109738900D02*
X99404800Y-111971800D01*
X97171900Y-73661300D02*
X97171900Y-109738900D01*
X102490000Y-68343200D02*
X97171900Y-73661300D01*
X102490000Y-66675000D02*
X102490000Y-68343200D01*
X103434400Y-65730600D02*
X102490000Y-66675000D01*
X106816100Y-65730600D02*
X103434400Y-65730600D01*
X110163000Y-62383700D02*
X106816100Y-65730600D01*
X110163000Y-61662000D02*
X110163000Y-62383700D01*
X110950500Y-60874500D02*
X110163000Y-61662000D01*
X111907500Y-60874500D02*
X110950500Y-60874500D01*
X112894900Y-61861900D02*
X111907500Y-60874500D01*
X112894900Y-62000000D02*
X112894900Y-61861900D01*
D32*
G36*
X187198000Y-140843000D02*
X89027000Y-140843000D01*
X89027000Y-137582619D01*
X91104613Y-137582619D01*
X91444155Y-138404372D01*
X92072321Y-139033636D01*
X92893481Y-139374611D01*
X93782619Y-139375387D01*
X94604372Y-139035845D01*
X95233636Y-138407679D01*
X95574611Y-137586519D01*
X95575387Y-136697381D01*
X95235845Y-135875628D01*
X94607679Y-135246364D01*
X93786519Y-134905389D01*
X92897381Y-134904613D01*
X92075628Y-135244155D01*
X91446364Y-135872321D01*
X91105389Y-136693481D01*
X91104613Y-137582619D01*
X89027000Y-137582619D01*
X89027000Y-118992255D01*
X116171861Y-118992255D01*
X117000000Y-119820395D01*
X117828139Y-118992255D01*
X117754005Y-118746136D01*
X117216777Y-118553035D01*
X116646546Y-118580222D01*
X116245995Y-118746136D01*
X116171861Y-118992255D01*
X89027000Y-118992255D01*
X89027000Y-115349041D01*
X96908086Y-115349041D01*
X97147611Y-115855134D01*
X97562577Y-116231041D01*
X97950961Y-116391904D01*
X98173000Y-116269915D01*
X98173000Y-115127000D01*
X97029371Y-115127000D01*
X96908086Y-115349041D01*
X89027000Y-115349041D01*
X89027000Y-114650959D01*
X96908086Y-114650959D01*
X97029371Y-114873000D01*
X98173000Y-114873000D01*
X98173000Y-113730085D01*
X97950961Y-113608096D01*
X97562577Y-113768959D01*
X97147611Y-114144866D01*
X96908086Y-114650959D01*
X89027000Y-114650959D01*
X89027000Y-71722619D01*
X91074613Y-71722619D01*
X91414155Y-72544372D01*
X92042321Y-73173636D01*
X92863481Y-73514611D01*
X93752619Y-73515387D01*
X94574372Y-73175845D01*
X95203636Y-72547679D01*
X95544611Y-71726519D01*
X95545387Y-70837381D01*
X95205845Y-70015628D01*
X94887574Y-69696800D01*
X95621700Y-69696800D01*
X95621700Y-110092400D01*
X95677770Y-110374285D01*
X95837445Y-110613255D01*
X98961846Y-113737656D01*
X98649039Y-113608096D01*
X98427000Y-113730085D01*
X98427000Y-114873000D01*
X98447000Y-114873000D01*
X98447000Y-115127000D01*
X98427000Y-115127000D01*
X98427000Y-116269915D01*
X98649039Y-116391904D01*
X99037423Y-116231041D01*
X99452389Y-115855134D01*
X99555014Y-115638297D01*
X99825302Y-116042811D01*
X100290849Y-116353880D01*
X100840000Y-116463113D01*
X101389151Y-116353880D01*
X101854698Y-116042811D01*
X102110000Y-115660725D01*
X102365302Y-116042811D01*
X102830849Y-116353880D01*
X103380000Y-116463113D01*
X103929151Y-116353880D01*
X104394698Y-116042811D01*
X104650000Y-115660725D01*
X104905302Y-116042811D01*
X105370849Y-116353880D01*
X105920000Y-116463113D01*
X106469151Y-116353880D01*
X106934698Y-116042811D01*
X107164595Y-115698746D01*
X107223193Y-115710402D01*
X107445302Y-116042811D01*
X107910849Y-116353880D01*
X108460000Y-116463113D01*
X109009151Y-116353880D01*
X109438373Y-116067083D01*
X110019745Y-116648455D01*
X110258716Y-116808131D01*
X110540600Y-116864201D01*
X110540605Y-116864200D01*
X121536300Y-116864200D01*
X121818185Y-116808130D01*
X122057155Y-116648455D01*
X122607725Y-116097885D01*
X122990849Y-116353880D01*
X123540000Y-116463113D01*
X124068500Y-116357988D01*
X124068500Y-121262012D01*
X123540000Y-121156887D01*
X122990849Y-121266120D01*
X122607725Y-121522115D01*
X121949355Y-120863745D01*
X121710385Y-120704070D01*
X121428500Y-120648000D01*
X118291966Y-120648000D01*
X118446965Y-120216777D01*
X118419778Y-119646546D01*
X118253864Y-119245995D01*
X118007745Y-119171861D01*
X117179605Y-120000000D01*
X117193748Y-120014142D01*
X117014142Y-120193748D01*
X117000000Y-120179605D01*
X116985858Y-120193748D01*
X116806252Y-120014142D01*
X116820395Y-120000000D01*
X115992255Y-119171861D01*
X115746136Y-119245995D01*
X115553035Y-119783223D01*
X115580222Y-120353454D01*
X115702227Y-120648000D01*
X110662405Y-120648000D01*
X110662400Y-120647999D01*
X110427283Y-120694767D01*
X110380515Y-120704070D01*
X110218605Y-120812255D01*
X110141545Y-120863745D01*
X109446765Y-121558525D01*
X109009151Y-121266120D01*
X108460000Y-121156887D01*
X107910849Y-121266120D01*
X107445302Y-121577189D01*
X107223193Y-121909598D01*
X107164595Y-121921254D01*
X106934698Y-121577189D01*
X106469151Y-121266120D01*
X105920000Y-121156887D01*
X105370849Y-121266120D01*
X104905302Y-121577189D01*
X104675405Y-121921254D01*
X104616807Y-121909598D01*
X104394698Y-121577189D01*
X103929151Y-121266120D01*
X103380000Y-121156887D01*
X102830849Y-121266120D01*
X102365302Y-121577189D01*
X102110000Y-121959275D01*
X101854698Y-121577189D01*
X101389151Y-121266120D01*
X100840000Y-121156887D01*
X100290849Y-121266120D01*
X99825302Y-121577189D01*
X99570000Y-121959275D01*
X99314698Y-121577189D01*
X98849151Y-121266120D01*
X98300000Y-121156887D01*
X97750849Y-121266120D01*
X97285302Y-121577189D01*
X96974233Y-122042736D01*
X96865000Y-122591887D01*
X96865000Y-122648113D01*
X96974233Y-123197264D01*
X97285302Y-123662811D01*
X97750849Y-123973880D01*
X98300000Y-124083113D01*
X98849151Y-123973880D01*
X99314698Y-123662811D01*
X99570000Y-123280725D01*
X99825302Y-123662811D01*
X100290849Y-123973880D01*
X100840000Y-124083113D01*
X101389151Y-123973880D01*
X101854698Y-123662811D01*
X102110000Y-123280725D01*
X102365302Y-123662811D01*
X102830849Y-123973880D01*
X103380000Y-124083113D01*
X103929151Y-123973880D01*
X104366765Y-123681475D01*
X104931245Y-124245955D01*
X105170216Y-124405631D01*
X105452100Y-124461701D01*
X105452105Y-124461700D01*
X106478800Y-124461700D01*
X106760685Y-124405630D01*
X106999655Y-124245955D01*
X107527725Y-123717885D01*
X107910849Y-123973880D01*
X108460000Y-124083113D01*
X109009151Y-123973880D01*
X109474698Y-123662811D01*
X109696807Y-123330402D01*
X109755405Y-123318746D01*
X109985302Y-123662811D01*
X110450849Y-123973880D01*
X111000000Y-124083113D01*
X111549151Y-123973880D01*
X112014698Y-123662811D01*
X112270000Y-123280725D01*
X112525302Y-123662811D01*
X112990849Y-123973880D01*
X113540000Y-124083113D01*
X114089151Y-123973880D01*
X114554698Y-123662811D01*
X114623528Y-123559800D01*
X116030325Y-123559800D01*
X116060200Y-123589727D01*
X116060200Y-124155200D01*
X112789187Y-124155200D01*
X112442300Y-124086200D01*
X112082654Y-124157738D01*
X111777761Y-124361461D01*
X111574038Y-124666354D01*
X111502500Y-125026000D01*
X111502500Y-134137600D01*
X111574038Y-134497246D01*
X111777761Y-134802139D01*
X113435561Y-136459939D01*
X113740454Y-136663662D01*
X114100100Y-136735200D01*
X135199366Y-136735200D01*
X135224000Y-136740100D01*
X136013500Y-136740100D01*
X136038134Y-136735200D01*
X161829300Y-136735200D01*
X162188946Y-136663662D01*
X162493839Y-136459939D01*
X163069688Y-135884090D01*
X171858940Y-135884090D01*
X171858940Y-137474709D01*
X171955613Y-137708098D01*
X172134241Y-137886727D01*
X172367630Y-137983400D01*
X173958250Y-137983400D01*
X174117000Y-137824650D01*
X174117000Y-135725340D01*
X174371000Y-135725340D01*
X174371000Y-137824650D01*
X174529750Y-137983400D01*
X176120370Y-137983400D01*
X176353759Y-137886727D01*
X176532387Y-137708098D01*
X176613357Y-137512619D01*
X180734613Y-137512619D01*
X181074155Y-138334372D01*
X181702321Y-138963636D01*
X182523481Y-139304611D01*
X183412619Y-139305387D01*
X184234372Y-138965845D01*
X184863636Y-138337679D01*
X185204611Y-137516519D01*
X185205387Y-136627381D01*
X184865845Y-135805628D01*
X184237679Y-135176364D01*
X183416519Y-134835389D01*
X182527381Y-134834613D01*
X181705628Y-135174155D01*
X181076364Y-135802321D01*
X180735389Y-136623481D01*
X180734613Y-137512619D01*
X176613357Y-137512619D01*
X176629060Y-137474709D01*
X176629060Y-135884090D01*
X176470310Y-135725340D01*
X174371000Y-135725340D01*
X174117000Y-135725340D01*
X172017690Y-135725340D01*
X171858940Y-135884090D01*
X163069688Y-135884090D01*
X164123439Y-134830339D01*
X164327162Y-134525446D01*
X164398700Y-134165800D01*
X164398700Y-133721971D01*
X171858940Y-133721971D01*
X171858940Y-135312590D01*
X172017690Y-135471340D01*
X174117000Y-135471340D01*
X174117000Y-133372030D01*
X173958250Y-133213280D01*
X172367630Y-133213280D01*
X172134241Y-133309953D01*
X171955613Y-133488582D01*
X171858940Y-133721971D01*
X164398700Y-133721971D01*
X164398700Y-132472278D01*
X169272118Y-127598860D01*
X171596560Y-127598860D01*
X171596560Y-131598860D01*
X171640838Y-131834177D01*
X171779910Y-132050301D01*
X171992110Y-132195291D01*
X172244000Y-132246300D01*
X176244000Y-132246300D01*
X176479317Y-132202022D01*
X176545500Y-132159434D01*
X176545500Y-133520240D01*
X176532387Y-133488582D01*
X176353759Y-133309953D01*
X176120370Y-133213280D01*
X174529750Y-133213280D01*
X174371000Y-133372030D01*
X174371000Y-135471340D01*
X176470310Y-135471340D01*
X176629060Y-135312590D01*
X176629060Y-134645023D01*
X176728850Y-134800101D01*
X176941050Y-134945091D01*
X177192940Y-134996100D01*
X180693060Y-134996100D01*
X180928377Y-134951822D01*
X181144501Y-134812750D01*
X181289491Y-134600550D01*
X181340500Y-134348660D01*
X181340500Y-130848540D01*
X181296222Y-130613223D01*
X181157150Y-130397099D01*
X180944950Y-130252109D01*
X180693060Y-130201100D01*
X177192940Y-130201100D01*
X176957623Y-130245378D01*
X176891440Y-130287966D01*
X176891440Y-127598860D01*
X176847162Y-127363543D01*
X176708090Y-127147419D01*
X176495890Y-127002429D01*
X176244000Y-126951420D01*
X172244000Y-126951420D01*
X172008683Y-126995698D01*
X171792559Y-127134770D01*
X171647569Y-127346970D01*
X171596560Y-127598860D01*
X169272118Y-127598860D01*
X174318739Y-122552239D01*
X174522462Y-122247346D01*
X174583637Y-121939800D01*
X177078865Y-121939800D01*
X177096838Y-122035317D01*
X177235910Y-122251441D01*
X177448110Y-122396431D01*
X177700000Y-122447440D01*
X179300000Y-122447440D01*
X179535317Y-122403162D01*
X179751441Y-122264090D01*
X179896431Y-122051890D01*
X179905370Y-122007745D01*
X180171861Y-122007745D01*
X180245995Y-122253864D01*
X180783223Y-122446965D01*
X181353454Y-122419778D01*
X181754005Y-122253864D01*
X181828139Y-122007745D01*
X181000000Y-121179605D01*
X180171861Y-122007745D01*
X179905370Y-122007745D01*
X179944646Y-121813799D01*
X179992255Y-121828139D01*
X180820395Y-121000000D01*
X181179605Y-121000000D01*
X182007745Y-121828139D01*
X182253864Y-121754005D01*
X182446965Y-121216777D01*
X182419778Y-120646546D01*
X182253864Y-120245995D01*
X182007745Y-120171861D01*
X181179605Y-121000000D01*
X180820395Y-121000000D01*
X179992255Y-120171861D01*
X179944833Y-120186145D01*
X179908351Y-119992255D01*
X180171861Y-119992255D01*
X181000000Y-120820395D01*
X181828139Y-119992255D01*
X181754005Y-119746136D01*
X181216777Y-119553035D01*
X180646546Y-119580222D01*
X180245995Y-119746136D01*
X180171861Y-119992255D01*
X179908351Y-119992255D01*
X179903162Y-119964683D01*
X179767273Y-119753505D01*
X181679539Y-117841239D01*
X181883262Y-117536346D01*
X181954800Y-117176700D01*
X181954800Y-114301413D01*
X182265226Y-113991529D01*
X182615997Y-114342914D01*
X183198341Y-114584724D01*
X183828893Y-114585275D01*
X184411657Y-114344481D01*
X184857914Y-113899003D01*
X185099724Y-113316659D01*
X185100275Y-112686107D01*
X184859481Y-112103343D01*
X184414003Y-111657086D01*
X183831659Y-111415276D01*
X183201107Y-111414725D01*
X182618343Y-111655519D01*
X182264774Y-112008471D01*
X181914003Y-111657086D01*
X181331659Y-111415276D01*
X180701107Y-111414725D01*
X180118343Y-111655519D01*
X180025428Y-111748272D01*
X179929090Y-111598559D01*
X179716890Y-111453569D01*
X179465000Y-111402560D01*
X177565000Y-111402560D01*
X177329683Y-111446838D01*
X177113559Y-111585910D01*
X176968569Y-111798110D01*
X176917560Y-112050000D01*
X176917560Y-113950000D01*
X176961838Y-114185317D01*
X177100910Y-114401441D01*
X177313110Y-114546431D01*
X177565000Y-114597440D01*
X179465000Y-114597440D01*
X179700317Y-114553162D01*
X179916441Y-114414090D01*
X180026400Y-114253160D01*
X180075200Y-114302046D01*
X180075200Y-116787422D01*
X177835461Y-119027161D01*
X177631738Y-119332054D01*
X177583517Y-119574478D01*
X177464683Y-119596838D01*
X177248559Y-119735910D01*
X177103569Y-119948110D01*
X177080870Y-120060200D01*
X174043478Y-120060200D01*
X174013440Y-120030162D01*
X174013440Y-118720000D01*
X173969162Y-118484683D01*
X173830090Y-118268559D01*
X173617890Y-118123569D01*
X173366000Y-118072560D01*
X171566000Y-118072560D01*
X171330683Y-118116838D01*
X171114559Y-118255910D01*
X170969569Y-118468110D01*
X170918560Y-118720000D01*
X170918560Y-120520000D01*
X170962838Y-120755317D01*
X171101910Y-120971441D01*
X171314110Y-121116431D01*
X171566000Y-121167440D01*
X172492562Y-121167440D01*
X172714400Y-121389278D01*
X172714400Y-121498422D01*
X167535000Y-126677822D01*
X167535000Y-125973691D01*
X167438327Y-125740302D01*
X167259699Y-125561673D01*
X167125006Y-125505881D01*
X167300551Y-125330643D01*
X167534733Y-124766670D01*
X167535265Y-124156009D01*
X167302068Y-123591629D01*
X166870643Y-123159449D01*
X166306670Y-122925267D01*
X165736600Y-122924770D01*
X165736600Y-121408315D01*
X165811800Y-121377243D01*
X166215824Y-120973923D01*
X166434750Y-120446691D01*
X166434752Y-120444187D01*
X167220752Y-120444187D01*
X167438757Y-120971800D01*
X167842077Y-121375824D01*
X168369309Y-121594750D01*
X168940187Y-121595248D01*
X169467800Y-121377243D01*
X169871824Y-120973923D01*
X170090750Y-120446691D01*
X170091248Y-119875813D01*
X169873243Y-119348200D01*
X169469923Y-118944176D01*
X169392600Y-118912069D01*
X169392600Y-117320210D01*
X172986855Y-113725955D01*
X173073128Y-113596838D01*
X173146530Y-113486985D01*
X173169693Y-113370535D01*
X173551409Y-113115481D01*
X173884155Y-112617491D01*
X174001000Y-112030072D01*
X174001000Y-111969928D01*
X173884155Y-111382509D01*
X173551409Y-110884519D01*
X173053419Y-110551773D01*
X172466000Y-110434928D01*
X171878581Y-110551773D01*
X171380591Y-110884519D01*
X171047845Y-111382509D01*
X170931000Y-111969928D01*
X170931000Y-112030072D01*
X171047845Y-112617491D01*
X171380591Y-113115481D01*
X171460509Y-113168881D01*
X168135145Y-116494245D01*
X167975470Y-116733215D01*
X167919400Y-117015100D01*
X167919400Y-118911685D01*
X167844200Y-118942757D01*
X167440176Y-119346077D01*
X167221250Y-119873309D01*
X167220752Y-120444187D01*
X166434752Y-120444187D01*
X166435248Y-119875813D01*
X166217243Y-119348200D01*
X165813923Y-118944176D01*
X165286691Y-118725250D01*
X164715813Y-118724752D01*
X164188200Y-118942757D01*
X163784176Y-119346077D01*
X163565250Y-119873309D01*
X163564752Y-120444187D01*
X163782757Y-120971800D01*
X164186077Y-121375824D01*
X164263400Y-121407931D01*
X164263400Y-123460000D01*
X164319470Y-123741885D01*
X164479145Y-123980855D01*
X164519944Y-124021654D01*
X164465267Y-124153330D01*
X164464735Y-124763991D01*
X164697932Y-125328371D01*
X164875092Y-125505841D01*
X164740301Y-125561673D01*
X164561673Y-125740302D01*
X164465000Y-125973691D01*
X164465000Y-126714250D01*
X164623750Y-126873000D01*
X165873000Y-126873000D01*
X165873000Y-126853000D01*
X166127000Y-126853000D01*
X166127000Y-126873000D01*
X166147000Y-126873000D01*
X166147000Y-127127000D01*
X166127000Y-127127000D01*
X166127000Y-127147000D01*
X165873000Y-127147000D01*
X165873000Y-127127000D01*
X164623750Y-127127000D01*
X164465000Y-127285750D01*
X164465000Y-128026309D01*
X164561673Y-128259698D01*
X164740301Y-128438327D01*
X164973690Y-128535000D01*
X165677822Y-128535000D01*
X163591040Y-130621782D01*
X163591040Y-130136400D01*
X163546762Y-129901083D01*
X163407690Y-129684959D01*
X163195490Y-129539969D01*
X162943600Y-129488960D01*
X161216400Y-129488960D01*
X160981083Y-129533238D01*
X160764959Y-129672310D01*
X160619969Y-129884510D01*
X160611136Y-129928131D01*
X160599670Y-129910971D01*
X160113489Y-129586115D01*
X159540000Y-129472041D01*
X159374115Y-129505037D01*
X158780939Y-128911861D01*
X158476046Y-128708138D01*
X158116400Y-128636600D01*
X147083878Y-128636600D01*
X144707583Y-126260305D01*
X144811800Y-126217243D01*
X145215824Y-125813923D01*
X145247931Y-125736600D01*
X148847766Y-125736600D01*
X148858081Y-125761565D01*
X149236443Y-126140588D01*
X149731049Y-126345966D01*
X150266601Y-126346434D01*
X150761565Y-126141919D01*
X151140588Y-125763557D01*
X151151782Y-125736600D01*
X156500000Y-125736600D01*
X156781885Y-125680530D01*
X157020855Y-125520855D01*
X157138163Y-125403547D01*
X157213309Y-125434750D01*
X157784187Y-125435248D01*
X158311800Y-125217243D01*
X158521663Y-125007745D01*
X159171861Y-125007745D01*
X159245995Y-125253864D01*
X159783223Y-125446965D01*
X160353454Y-125419778D01*
X160754005Y-125253864D01*
X160828139Y-125007745D01*
X160000000Y-124179605D01*
X159171861Y-125007745D01*
X158521663Y-125007745D01*
X158715824Y-124813923D01*
X158743423Y-124747456D01*
X158746136Y-124754005D01*
X158992255Y-124828139D01*
X159820395Y-124000000D01*
X160179605Y-124000000D01*
X161007745Y-124828139D01*
X161253864Y-124754005D01*
X161446965Y-124216777D01*
X161419778Y-123646546D01*
X161253864Y-123245995D01*
X161007745Y-123171861D01*
X160179605Y-124000000D01*
X159820395Y-124000000D01*
X158992255Y-123171861D01*
X158746136Y-123245995D01*
X158743804Y-123252483D01*
X158717243Y-123188200D01*
X158521640Y-122992255D01*
X159171861Y-122992255D01*
X160000000Y-123820395D01*
X160828139Y-122992255D01*
X160754005Y-122746136D01*
X160216777Y-122553035D01*
X159646546Y-122580222D01*
X159245995Y-122746136D01*
X159171861Y-122992255D01*
X158521640Y-122992255D01*
X158313923Y-122784176D01*
X157786691Y-122565250D01*
X157215813Y-122564752D01*
X156688200Y-122782757D01*
X156284176Y-123186077D01*
X156065250Y-123713309D01*
X156064770Y-124263400D01*
X151152234Y-124263400D01*
X151141919Y-124238435D01*
X150763557Y-123859412D01*
X150268951Y-123654034D01*
X149733399Y-123653566D01*
X149238435Y-123858081D01*
X148859412Y-124236443D01*
X148848218Y-124263400D01*
X145248315Y-124263400D01*
X145217243Y-124188200D01*
X144813923Y-123784176D01*
X144286691Y-123565250D01*
X143715813Y-123564752D01*
X143709267Y-123567457D01*
X141103723Y-120961913D01*
X141122622Y-120943014D01*
X141007747Y-120828139D01*
X141253864Y-120754005D01*
X141446965Y-120216777D01*
X141445527Y-120186601D01*
X148653566Y-120186601D01*
X148858081Y-120681565D01*
X149236443Y-121060588D01*
X149731049Y-121265966D01*
X150266601Y-121266434D01*
X150761565Y-121061919D01*
X151140588Y-120683557D01*
X151151782Y-120656600D01*
X155580000Y-120656600D01*
X155861885Y-120600530D01*
X156100855Y-120440855D01*
X157138163Y-119403547D01*
X157213309Y-119434750D01*
X157784187Y-119435248D01*
X158311800Y-119217243D01*
X158521663Y-119007745D01*
X159171861Y-119007745D01*
X159245995Y-119253864D01*
X159783223Y-119446965D01*
X160353454Y-119419778D01*
X160754005Y-119253864D01*
X160828139Y-119007745D01*
X160000000Y-118179605D01*
X159171861Y-119007745D01*
X158521663Y-119007745D01*
X158715824Y-118813923D01*
X158743423Y-118747456D01*
X158746136Y-118754005D01*
X158992255Y-118828139D01*
X159820395Y-118000000D01*
X160179605Y-118000000D01*
X161007745Y-118828139D01*
X161253864Y-118754005D01*
X161446965Y-118216777D01*
X161419778Y-117646546D01*
X161253864Y-117245995D01*
X161007745Y-117171861D01*
X160179605Y-118000000D01*
X159820395Y-118000000D01*
X158992255Y-117171861D01*
X158746136Y-117245995D01*
X158743804Y-117252483D01*
X158717243Y-117188200D01*
X158521640Y-116992255D01*
X159171861Y-116992255D01*
X160000000Y-117820395D01*
X160828139Y-116992255D01*
X160754005Y-116746136D01*
X160216777Y-116553035D01*
X159646546Y-116580222D01*
X159245995Y-116746136D01*
X159171861Y-116992255D01*
X158521640Y-116992255D01*
X158313923Y-116784176D01*
X157786691Y-116565250D01*
X157215813Y-116564752D01*
X156688200Y-116782757D01*
X156284176Y-117186077D01*
X156065250Y-117713309D01*
X156064752Y-118284187D01*
X156096724Y-118361566D01*
X155274890Y-119183400D01*
X151152234Y-119183400D01*
X151141919Y-119158435D01*
X150763557Y-118779412D01*
X150268951Y-118574034D01*
X149733399Y-118573566D01*
X149238435Y-118778081D01*
X148859412Y-119156443D01*
X148654034Y-119651049D01*
X148653566Y-120186601D01*
X141445527Y-120186601D01*
X141419778Y-119646546D01*
X141253864Y-119245995D01*
X141007745Y-119171861D01*
X140179605Y-120000000D01*
X140193748Y-120014142D01*
X140014143Y-120193748D01*
X140000000Y-120179605D01*
X139985858Y-120193748D01*
X139806252Y-120014142D01*
X139820395Y-120000000D01*
X139806253Y-119985858D01*
X139985858Y-119806253D01*
X140000000Y-119820395D01*
X140828139Y-118992255D01*
X140754005Y-118746136D01*
X140590568Y-118687390D01*
X140732713Y-118345068D01*
X140733087Y-117915616D01*
X140569089Y-117518711D01*
X140407485Y-117356825D01*
X142619949Y-115144361D01*
X142674233Y-115417264D01*
X142985302Y-115882811D01*
X143450849Y-116193880D01*
X144000000Y-116303113D01*
X144549151Y-116193880D01*
X145014698Y-115882811D01*
X145219302Y-115576600D01*
X145894900Y-115576600D01*
X146176785Y-115520530D01*
X146415755Y-115360855D01*
X146783059Y-114993551D01*
X146797189Y-115014698D01*
X147262736Y-115325767D01*
X147811887Y-115435000D01*
X147868113Y-115435000D01*
X148417264Y-115325767D01*
X148882811Y-115014698D01*
X149193880Y-114549151D01*
X149246584Y-114284187D01*
X156564752Y-114284187D01*
X156782757Y-114811800D01*
X157186077Y-115215824D01*
X157713309Y-115434750D01*
X158284187Y-115435248D01*
X158811800Y-115217243D01*
X159215824Y-114813923D01*
X159434750Y-114286691D01*
X159435248Y-113715813D01*
X159217243Y-113188200D01*
X158813923Y-112784176D01*
X158286691Y-112565250D01*
X157715813Y-112564752D01*
X157188200Y-112782757D01*
X156784176Y-113186077D01*
X156565250Y-113713309D01*
X156564752Y-114284187D01*
X149246584Y-114284187D01*
X149303113Y-114000000D01*
X149193880Y-113450849D01*
X148882811Y-112985302D01*
X148417264Y-112674233D01*
X147868113Y-112565000D01*
X147811887Y-112565000D01*
X147262736Y-112674233D01*
X146797189Y-112985302D01*
X146592435Y-113291738D01*
X146453015Y-113319470D01*
X146214045Y-113479145D01*
X145589790Y-114103400D01*
X145219302Y-114103400D01*
X145014698Y-113797189D01*
X144549151Y-113486120D01*
X144323145Y-113441165D01*
X146161710Y-111602600D01*
X146501000Y-111602600D01*
X146782885Y-111546530D01*
X147021855Y-111386855D01*
X148436823Y-109971887D01*
X163565000Y-109971887D01*
X163565000Y-110028113D01*
X163674233Y-110577264D01*
X163985302Y-111042811D01*
X164450849Y-111353880D01*
X165000000Y-111463113D01*
X165549151Y-111353880D01*
X166014698Y-111042811D01*
X166083528Y-110939800D01*
X167572472Y-110939800D01*
X167641302Y-111042811D01*
X168106849Y-111353880D01*
X168656000Y-111463113D01*
X169205151Y-111353880D01*
X169670698Y-111042811D01*
X169981767Y-110577264D01*
X170091000Y-110028113D01*
X170091000Y-109971887D01*
X169981767Y-109422736D01*
X169670698Y-108957189D01*
X169205151Y-108646120D01*
X168656000Y-108536887D01*
X168106849Y-108646120D01*
X167641302Y-108957189D01*
X167572472Y-109060200D01*
X166083528Y-109060200D01*
X166014698Y-108957189D01*
X165549151Y-108646120D01*
X165000000Y-108536887D01*
X164450849Y-108646120D01*
X163985302Y-108957189D01*
X163674233Y-109422736D01*
X163565000Y-109971887D01*
X148436823Y-109971887D01*
X151584915Y-106823795D01*
X175864716Y-106823795D01*
X176113106Y-107424943D01*
X176572637Y-107885278D01*
X177173352Y-108134716D01*
X177823795Y-108135284D01*
X178424943Y-107886894D01*
X178885278Y-107427363D01*
X178964490Y-107236600D01*
X182535284Y-107236600D01*
X182613106Y-107424943D01*
X183072637Y-107885278D01*
X183673352Y-108134716D01*
X184323795Y-108135284D01*
X184924943Y-107886894D01*
X185385278Y-107427363D01*
X185634716Y-106826648D01*
X185635284Y-106176205D01*
X185386894Y-105575057D01*
X184927363Y-105114722D01*
X184326648Y-104865284D01*
X183676205Y-104864716D01*
X183075057Y-105113106D01*
X182614722Y-105572637D01*
X182535510Y-105763400D01*
X178964716Y-105763400D01*
X178886894Y-105575057D01*
X178427363Y-105114722D01*
X177826648Y-104865284D01*
X177176205Y-104864716D01*
X176575057Y-105113106D01*
X176114722Y-105572637D01*
X175865284Y-106173352D01*
X175864716Y-106823795D01*
X151584915Y-106823795D01*
X154577674Y-103831036D01*
X170752193Y-103831036D01*
X170782518Y-104321413D01*
X170874711Y-104543990D01*
X170803569Y-104648110D01*
X170752560Y-104900000D01*
X170752560Y-106100000D01*
X170796838Y-106335317D01*
X170935910Y-106551441D01*
X171148110Y-106696431D01*
X171400000Y-106747440D01*
X172600000Y-106747440D01*
X172835317Y-106703162D01*
X173051441Y-106564090D01*
X173196431Y-106351890D01*
X173247440Y-106100000D01*
X173247440Y-104900000D01*
X173203162Y-104664683D01*
X173121234Y-104537364D01*
X173247807Y-104168964D01*
X173217482Y-103678587D01*
X173088164Y-103366383D01*
X172862735Y-103316870D01*
X172179605Y-104000000D01*
X172193748Y-104014143D01*
X172014143Y-104193748D01*
X172000000Y-104179605D01*
X171985858Y-104193748D01*
X171806253Y-104014143D01*
X171820395Y-104000000D01*
X171137265Y-103316870D01*
X170911836Y-103366383D01*
X170752193Y-103831036D01*
X154577674Y-103831036D01*
X155271445Y-103137265D01*
X171316870Y-103137265D01*
X172000000Y-103820395D01*
X172667863Y-103152532D01*
X176527073Y-103152532D01*
X176625736Y-103419387D01*
X177235461Y-103645908D01*
X177885460Y-103621856D01*
X178374264Y-103419387D01*
X178472927Y-103152532D01*
X183027073Y-103152532D01*
X183125736Y-103419387D01*
X183735461Y-103645908D01*
X184385460Y-103621856D01*
X184874264Y-103419387D01*
X184972927Y-103152532D01*
X184000000Y-102179605D01*
X183027073Y-103152532D01*
X178472927Y-103152532D01*
X177500000Y-102179605D01*
X176527073Y-103152532D01*
X172667863Y-103152532D01*
X172683130Y-103137265D01*
X172633617Y-102911836D01*
X172168964Y-102752193D01*
X171678587Y-102782518D01*
X171366383Y-102911836D01*
X171316870Y-103137265D01*
X155271445Y-103137265D01*
X156673249Y-101735461D01*
X175854092Y-101735461D01*
X175878144Y-102385460D01*
X176080613Y-102874264D01*
X176347468Y-102972927D01*
X177320395Y-102000000D01*
X177679605Y-102000000D01*
X178652532Y-102972927D01*
X178919387Y-102874264D01*
X179145908Y-102264539D01*
X179126331Y-101735461D01*
X182354092Y-101735461D01*
X182378144Y-102385460D01*
X182580613Y-102874264D01*
X182847468Y-102972927D01*
X183820395Y-102000000D01*
X184179605Y-102000000D01*
X185152532Y-102972927D01*
X185419387Y-102874264D01*
X185645908Y-102264539D01*
X185621856Y-101614540D01*
X185419387Y-101125736D01*
X185152532Y-101027073D01*
X184179605Y-102000000D01*
X183820395Y-102000000D01*
X182847468Y-101027073D01*
X182580613Y-101125736D01*
X182354092Y-101735461D01*
X179126331Y-101735461D01*
X179121856Y-101614540D01*
X178919387Y-101125736D01*
X178652532Y-101027073D01*
X177679605Y-102000000D01*
X177320395Y-102000000D01*
X176347468Y-101027073D01*
X176080613Y-101125736D01*
X175854092Y-101735461D01*
X156673249Y-101735461D01*
X157561242Y-100847468D01*
X176527073Y-100847468D01*
X177500000Y-101820395D01*
X178472927Y-100847468D01*
X183027073Y-100847468D01*
X184000000Y-101820395D01*
X184972927Y-100847468D01*
X184874264Y-100580613D01*
X184264539Y-100354092D01*
X183614540Y-100378144D01*
X183125736Y-100580613D01*
X183027073Y-100847468D01*
X178472927Y-100847468D01*
X178374264Y-100580613D01*
X177764539Y-100354092D01*
X177114540Y-100378144D01*
X176625736Y-100580613D01*
X176527073Y-100847468D01*
X157561242Y-100847468D01*
X160170855Y-98237855D01*
X160330530Y-97998885D01*
X160339650Y-97953034D01*
X160370849Y-97973880D01*
X160920000Y-98083113D01*
X161469151Y-97973880D01*
X161934698Y-97662811D01*
X162190000Y-97280725D01*
X162445302Y-97662811D01*
X162910849Y-97973880D01*
X163460000Y-98083113D01*
X164009151Y-97973880D01*
X164474698Y-97662811D01*
X164730000Y-97280725D01*
X164985302Y-97662811D01*
X165450849Y-97973880D01*
X166000000Y-98083113D01*
X166549151Y-97973880D01*
X167014698Y-97662811D01*
X167270000Y-97280725D01*
X167525302Y-97662811D01*
X167990849Y-97973880D01*
X168540000Y-98083113D01*
X169089151Y-97973880D01*
X169554698Y-97662811D01*
X169810000Y-97280725D01*
X170065302Y-97662811D01*
X170530849Y-97973880D01*
X171080000Y-98083113D01*
X171629151Y-97973880D01*
X172094698Y-97662811D01*
X172347686Y-97284187D01*
X172564752Y-97284187D01*
X172782757Y-97811800D01*
X173186077Y-98215824D01*
X173713309Y-98434750D01*
X174284187Y-98435248D01*
X174811800Y-98217243D01*
X175215824Y-97813923D01*
X175434750Y-97286691D01*
X175435248Y-96715813D01*
X175217243Y-96188200D01*
X174813923Y-95784176D01*
X174747456Y-95756577D01*
X174754005Y-95753864D01*
X174828139Y-95507745D01*
X174000000Y-94679605D01*
X173171861Y-95507745D01*
X173245995Y-95753864D01*
X173252483Y-95756196D01*
X173188200Y-95782757D01*
X172784176Y-96186077D01*
X172565250Y-96713309D01*
X172564752Y-97284187D01*
X172347686Y-97284187D01*
X172405767Y-97197264D01*
X172515000Y-96648113D01*
X172515000Y-96591887D01*
X172405767Y-96042736D01*
X172094698Y-95577189D01*
X171629151Y-95266120D01*
X171080000Y-95156887D01*
X170530849Y-95266120D01*
X170065302Y-95577189D01*
X169810000Y-95959275D01*
X169554698Y-95577189D01*
X169089151Y-95266120D01*
X168540000Y-95156887D01*
X167990849Y-95266120D01*
X167525302Y-95577189D01*
X167270000Y-95959275D01*
X167014698Y-95577189D01*
X166549151Y-95266120D01*
X166000000Y-95156887D01*
X165450849Y-95266120D01*
X164985302Y-95577189D01*
X164730000Y-95959275D01*
X164474698Y-95577189D01*
X164395245Y-95524100D01*
X164740000Y-95524100D01*
X165021885Y-95468030D01*
X165260855Y-95308355D01*
X166285987Y-94283223D01*
X172553035Y-94283223D01*
X172580222Y-94853454D01*
X172746136Y-95254005D01*
X172992255Y-95328139D01*
X173820395Y-94500000D01*
X174179605Y-94500000D01*
X175007745Y-95328139D01*
X175253864Y-95254005D01*
X175446965Y-94716777D01*
X175419778Y-94146546D01*
X175253864Y-93745995D01*
X175007745Y-93671861D01*
X174179605Y-94500000D01*
X173820395Y-94500000D01*
X172992255Y-93671861D01*
X172746136Y-93745995D01*
X172553035Y-94283223D01*
X166285987Y-94283223D01*
X167076955Y-93492255D01*
X173171861Y-93492255D01*
X174000000Y-94320395D01*
X174828139Y-93492255D01*
X174754005Y-93246136D01*
X174216777Y-93053035D01*
X173646546Y-93080222D01*
X173245995Y-93246136D01*
X173171861Y-93492255D01*
X167076955Y-93492255D01*
X170148416Y-90420794D01*
X170280000Y-90447440D01*
X171880000Y-90447440D01*
X172115317Y-90403162D01*
X172331441Y-90264090D01*
X172476431Y-90051890D01*
X172527440Y-89800000D01*
X172527440Y-88200000D01*
X172483162Y-87964683D01*
X172344090Y-87748559D01*
X172131890Y-87603569D01*
X171880000Y-87552560D01*
X170280000Y-87552560D01*
X170044683Y-87596838D01*
X169866443Y-87711533D01*
X169528955Y-87374045D01*
X169289985Y-87214370D01*
X169008100Y-87158300D01*
X165532105Y-87158300D01*
X165532100Y-87158299D01*
X165250216Y-87214369D01*
X165011245Y-87374045D01*
X164446765Y-87938525D01*
X164009151Y-87646120D01*
X163460000Y-87536887D01*
X162910849Y-87646120D01*
X162445302Y-87957189D01*
X162190000Y-88339275D01*
X161934698Y-87957189D01*
X161469151Y-87646120D01*
X160920000Y-87536887D01*
X160370849Y-87646120D01*
X159905302Y-87957189D01*
X159650000Y-88339275D01*
X159394698Y-87957189D01*
X158929151Y-87646120D01*
X158380000Y-87536887D01*
X157830849Y-87646120D01*
X157365302Y-87957189D01*
X157095014Y-88361703D01*
X156992389Y-88144866D01*
X156577423Y-87768959D01*
X156540460Y-87753650D01*
X159690110Y-84604000D01*
X166395900Y-84604000D01*
X166677785Y-84547930D01*
X166916755Y-84388255D01*
X168037689Y-83267321D01*
X168262577Y-83471041D01*
X168650961Y-83631904D01*
X168873000Y-83509915D01*
X168873000Y-82367000D01*
X168853000Y-82367000D01*
X168853000Y-82113000D01*
X168873000Y-82113000D01*
X168873000Y-80970085D01*
X168650961Y-80848096D01*
X168335100Y-80978921D01*
X168335100Y-69243600D01*
X168279030Y-68961715D01*
X168201755Y-68846065D01*
X168404745Y-69049055D01*
X168643715Y-69208730D01*
X168925600Y-69264800D01*
X172667900Y-69264800D01*
X172949785Y-69208730D01*
X173188755Y-69049055D01*
X178149755Y-64088055D01*
X178263400Y-63917974D01*
X178263400Y-73369790D01*
X171019145Y-80614045D01*
X170859470Y-80853015D01*
X170831738Y-80992435D01*
X170525302Y-81197189D01*
X170255014Y-81601703D01*
X170152389Y-81384866D01*
X169737423Y-81008959D01*
X169349039Y-80848096D01*
X169127000Y-80970085D01*
X169127000Y-82113000D01*
X169147000Y-82113000D01*
X169147000Y-82367000D01*
X169127000Y-82367000D01*
X169127000Y-83509915D01*
X169349039Y-83631904D01*
X169737423Y-83471041D01*
X170152389Y-83095134D01*
X170255014Y-82878297D01*
X170525302Y-83282811D01*
X170990849Y-83593880D01*
X171540000Y-83703113D01*
X172089151Y-83593880D01*
X172554698Y-83282811D01*
X172865767Y-82817264D01*
X172975000Y-82268113D01*
X172975000Y-82211887D01*
X172865767Y-81662736D01*
X172554698Y-81197189D01*
X172533551Y-81183059D01*
X179520855Y-74195755D01*
X179680530Y-73956785D01*
X179736600Y-73674900D01*
X179736600Y-71562619D01*
X180644613Y-71562619D01*
X180984155Y-72384372D01*
X181612321Y-73013636D01*
X182433481Y-73354611D01*
X183322619Y-73355387D01*
X184144372Y-73015845D01*
X184773636Y-72387679D01*
X185114611Y-71566519D01*
X185115387Y-70677381D01*
X184775845Y-69855628D01*
X184147679Y-69226364D01*
X183326519Y-68885389D01*
X182437381Y-68884613D01*
X181615628Y-69224155D01*
X180986364Y-69852321D01*
X180645389Y-70673481D01*
X180644613Y-71562619D01*
X179736600Y-71562619D01*
X179736600Y-60928829D01*
X179758234Y-60924526D01*
X180244415Y-60599670D01*
X180569271Y-60113489D01*
X180683345Y-59540000D01*
X180569271Y-58966511D01*
X180244415Y-58480330D01*
X179929634Y-58270000D01*
X180244415Y-58059670D01*
X180569271Y-57573489D01*
X180683345Y-57000000D01*
X180569271Y-56426511D01*
X180244415Y-55940330D01*
X179929634Y-55730000D01*
X180244415Y-55519670D01*
X180569271Y-55033489D01*
X180683345Y-54460000D01*
X180569271Y-53886511D01*
X180244415Y-53400330D01*
X179929634Y-53190000D01*
X180244415Y-52979670D01*
X180569271Y-52493489D01*
X180683345Y-51920000D01*
X180569271Y-51346511D01*
X180244415Y-50860330D01*
X179929634Y-50650000D01*
X180244415Y-50439670D01*
X180569271Y-49953489D01*
X180683345Y-49380000D01*
X180569271Y-48806511D01*
X180244415Y-48320330D01*
X180222220Y-48305500D01*
X180375698Y-48241927D01*
X180554327Y-48063299D01*
X180651000Y-47829910D01*
X180651000Y-47125750D01*
X180492250Y-46967000D01*
X179127000Y-46967000D01*
X179127000Y-46987000D01*
X178873000Y-46987000D01*
X178873000Y-46967000D01*
X177507750Y-46967000D01*
X177349000Y-47125750D01*
X177349000Y-47829910D01*
X177445673Y-48063299D01*
X177624302Y-48241927D01*
X177777780Y-48305500D01*
X177755585Y-48320330D01*
X177430729Y-48806511D01*
X177316655Y-49380000D01*
X177430729Y-49953489D01*
X177755585Y-50439670D01*
X178070366Y-50650000D01*
X177755585Y-50860330D01*
X177430729Y-51346511D01*
X177316655Y-51920000D01*
X177430729Y-52493489D01*
X177755585Y-52979670D01*
X178070366Y-53190000D01*
X177755585Y-53400330D01*
X177430729Y-53886511D01*
X177316655Y-54460000D01*
X177430729Y-55033489D01*
X177689189Y-55420301D01*
X176294645Y-56814845D01*
X176134970Y-57053815D01*
X176078900Y-57335700D01*
X176078900Y-63500190D01*
X172975000Y-66604090D01*
X172975000Y-66073691D01*
X172878327Y-65840302D01*
X172699699Y-65661673D01*
X172466310Y-65565000D01*
X171825750Y-65565000D01*
X171667000Y-65723750D01*
X171667000Y-66873000D01*
X171687000Y-66873000D01*
X171687000Y-67127000D01*
X171667000Y-67127000D01*
X171667000Y-67147000D01*
X171413000Y-67147000D01*
X171413000Y-67127000D01*
X171393000Y-67127000D01*
X171393000Y-66873000D01*
X171413000Y-66873000D01*
X171413000Y-65723750D01*
X171254250Y-65565000D01*
X170613690Y-65565000D01*
X170380301Y-65661673D01*
X170201673Y-65840302D01*
X170105000Y-66073691D01*
X170105000Y-66092335D01*
X170014698Y-65957189D01*
X169549151Y-65646120D01*
X169000000Y-65536887D01*
X168450849Y-65646120D01*
X168053758Y-65911448D01*
X167456355Y-65314045D01*
X167217385Y-65154370D01*
X166935500Y-65098300D01*
X160972100Y-65098300D01*
X160690215Y-65154370D01*
X160451245Y-65314045D01*
X159826765Y-65938525D01*
X159389151Y-65646120D01*
X158840000Y-65536887D01*
X158290849Y-65646120D01*
X157847780Y-65942170D01*
X157226455Y-65320845D01*
X156987485Y-65161170D01*
X156705600Y-65105100D01*
X155890300Y-65105100D01*
X155608415Y-65161170D01*
X155369445Y-65320845D01*
X154749762Y-65940528D01*
X154309151Y-65646120D01*
X153760000Y-65536887D01*
X153210849Y-65646120D01*
X152745302Y-65957189D01*
X152490000Y-66339275D01*
X152234698Y-65957189D01*
X151769151Y-65646120D01*
X151220000Y-65536887D01*
X150670849Y-65646120D01*
X150205302Y-65957189D01*
X149950000Y-66339275D01*
X149694698Y-65957189D01*
X149229151Y-65646120D01*
X148680000Y-65536887D01*
X148130849Y-65646120D01*
X147665302Y-65957189D01*
X147410000Y-66339275D01*
X147154698Y-65957189D01*
X146689151Y-65646120D01*
X146140000Y-65536887D01*
X145590849Y-65646120D01*
X145125302Y-65957189D01*
X144903193Y-66289598D01*
X144844595Y-66301254D01*
X144614698Y-65957189D01*
X144149151Y-65646120D01*
X143600000Y-65536887D01*
X143050849Y-65646120D01*
X142585302Y-65957189D01*
X142516472Y-66060200D01*
X142089466Y-66060200D01*
X141813923Y-65784176D01*
X141286691Y-65565250D01*
X140893985Y-65564907D01*
X138179381Y-62850303D01*
X138215824Y-62813923D01*
X138434750Y-62286691D01*
X138435093Y-61893985D01*
X141360239Y-58968839D01*
X141563962Y-58663946D01*
X141635500Y-58304300D01*
X141635500Y-55743978D01*
X142057539Y-55321939D01*
X142285302Y-55662811D01*
X142591738Y-55867565D01*
X142619470Y-56006985D01*
X142779145Y-56245955D01*
X145153636Y-58620446D01*
X145110000Y-58685752D01*
X144899670Y-58370971D01*
X144413489Y-58046115D01*
X143840000Y-57932041D01*
X143266511Y-58046115D01*
X142780330Y-58370971D01*
X142455474Y-58857152D01*
X142341400Y-59430641D01*
X142341400Y-59489359D01*
X142455474Y-60062848D01*
X142780330Y-60549029D01*
X143051172Y-60730000D01*
X142780330Y-60910971D01*
X142455474Y-61397152D01*
X142341400Y-61970641D01*
X142341400Y-62029359D01*
X142455474Y-62602848D01*
X142780330Y-63089029D01*
X143266511Y-63413885D01*
X143840000Y-63527959D01*
X144413489Y-63413885D01*
X144899670Y-63089029D01*
X145110000Y-62774248D01*
X145320330Y-63089029D01*
X145806511Y-63413885D01*
X146380000Y-63527959D01*
X146953489Y-63413885D01*
X147439670Y-63089029D01*
X147650000Y-62774248D01*
X147860330Y-63089029D01*
X148346511Y-63413885D01*
X148920000Y-63527959D01*
X149493489Y-63413885D01*
X149979670Y-63089029D01*
X150190000Y-62774248D01*
X150400330Y-63089029D01*
X150886511Y-63413885D01*
X151460000Y-63527959D01*
X152033489Y-63413885D01*
X152519670Y-63089029D01*
X152730000Y-62774248D01*
X152940330Y-63089029D01*
X153426511Y-63413885D01*
X154000000Y-63527959D01*
X154573489Y-63413885D01*
X155059670Y-63089029D01*
X155270000Y-62774248D01*
X155480330Y-63089029D01*
X155966511Y-63413885D01*
X156540000Y-63527959D01*
X157113489Y-63413885D01*
X157599670Y-63089029D01*
X157810000Y-62774248D01*
X158020330Y-63089029D01*
X158506511Y-63413885D01*
X159080000Y-63527959D01*
X159653489Y-63413885D01*
X160139670Y-63089029D01*
X160350000Y-62774248D01*
X160560330Y-63089029D01*
X161046511Y-63413885D01*
X161620000Y-63527959D01*
X162193489Y-63413885D01*
X162679670Y-63089029D01*
X163004526Y-62602848D01*
X163118600Y-62029359D01*
X163118600Y-61970641D01*
X163004526Y-61397152D01*
X162693426Y-60931558D01*
X162718917Y-60926762D01*
X162935041Y-60787690D01*
X163080031Y-60575490D01*
X163131040Y-60323600D01*
X163131040Y-58596400D01*
X163086762Y-58361083D01*
X162947690Y-58144959D01*
X162735490Y-57999969D01*
X162483600Y-57948960D01*
X160756400Y-57948960D01*
X160521083Y-57993238D01*
X160304959Y-58132310D01*
X160159969Y-58344510D01*
X160151136Y-58388131D01*
X160139670Y-58370971D01*
X159653489Y-58046115D01*
X159080000Y-57932041D01*
X158506511Y-58046115D01*
X158020330Y-58370971D01*
X157810000Y-58685752D01*
X157599670Y-58370971D01*
X157113489Y-58046115D01*
X156540000Y-57932041D01*
X155966511Y-58046115D01*
X155480330Y-58370971D01*
X155270000Y-58685752D01*
X155059670Y-58370971D01*
X154705356Y-58134226D01*
X154680530Y-58009415D01*
X154520855Y-57770445D01*
X154281885Y-57610770D01*
X154000000Y-57554700D01*
X153791310Y-57554700D01*
X151913551Y-55676941D01*
X151934698Y-55662811D01*
X152190000Y-55280725D01*
X152445302Y-55662811D01*
X152910849Y-55973880D01*
X153460000Y-56083113D01*
X154009151Y-55973880D01*
X154474698Y-55662811D01*
X154730000Y-55280725D01*
X154985302Y-55662811D01*
X155450849Y-55973880D01*
X156000000Y-56083113D01*
X156549151Y-55973880D01*
X157014698Y-55662811D01*
X157270000Y-55280725D01*
X157525302Y-55662811D01*
X157990849Y-55973880D01*
X158540000Y-56083113D01*
X159089151Y-55973880D01*
X159554698Y-55662811D01*
X159810000Y-55280725D01*
X160065302Y-55662811D01*
X160530849Y-55973880D01*
X161080000Y-56083113D01*
X161629151Y-55973880D01*
X162094698Y-55662811D01*
X162163528Y-55559800D01*
X162388300Y-55559800D01*
X162747946Y-55488262D01*
X163052839Y-55284539D01*
X163069552Y-55259526D01*
X163894170Y-54434908D01*
X164284187Y-54435248D01*
X164811800Y-54217243D01*
X165215824Y-53813923D01*
X165434750Y-53286691D01*
X165435248Y-52715813D01*
X165217243Y-52188200D01*
X164813923Y-51784176D01*
X164747456Y-51756577D01*
X164754005Y-51753864D01*
X164828139Y-51507745D01*
X164000000Y-50679605D01*
X163171861Y-51507745D01*
X163245995Y-51753864D01*
X163252483Y-51756196D01*
X163188200Y-51782757D01*
X162784176Y-52186077D01*
X162565250Y-52713309D01*
X162564907Y-53106015D01*
X162094120Y-53576802D01*
X161629151Y-53266120D01*
X161080000Y-53156887D01*
X160968203Y-53179125D01*
X160380839Y-52591761D01*
X160075946Y-52388038D01*
X159716300Y-52316500D01*
X153717278Y-52316500D01*
X151684001Y-50283223D01*
X162553035Y-50283223D01*
X162580222Y-50853454D01*
X162746136Y-51254005D01*
X162992255Y-51328139D01*
X163820395Y-50500000D01*
X164179605Y-50500000D01*
X165007745Y-51328139D01*
X165253864Y-51254005D01*
X165446965Y-50716777D01*
X165419778Y-50146546D01*
X165253864Y-49745995D01*
X165007745Y-49671861D01*
X164179605Y-50500000D01*
X163820395Y-50500000D01*
X162992255Y-49671861D01*
X162746136Y-49745995D01*
X162553035Y-50283223D01*
X151684001Y-50283223D01*
X150893033Y-49492255D01*
X163171861Y-49492255D01*
X164000000Y-50320395D01*
X164828139Y-49492255D01*
X164754005Y-49246136D01*
X164216777Y-49053035D01*
X163646546Y-49080222D01*
X163245995Y-49246136D01*
X163171861Y-49492255D01*
X150893033Y-49492255D01*
X149414281Y-48013503D01*
X149664986Y-47638297D01*
X149767611Y-47855134D01*
X150182577Y-48231041D01*
X150570961Y-48391904D01*
X150793000Y-48269915D01*
X150793000Y-47127000D01*
X151047000Y-47127000D01*
X151047000Y-48269915D01*
X151269039Y-48391904D01*
X151657423Y-48231041D01*
X152072389Y-47855134D01*
X152190000Y-47606633D01*
X152307611Y-47855134D01*
X152722577Y-48231041D01*
X153110961Y-48391904D01*
X153333000Y-48269915D01*
X153333000Y-47127000D01*
X151047000Y-47127000D01*
X150793000Y-47127000D01*
X150773000Y-47127000D01*
X150773000Y-46873000D01*
X150793000Y-46873000D01*
X150793000Y-46853000D01*
X151047000Y-46853000D01*
X151047000Y-46873000D01*
X153333000Y-46873000D01*
X153333000Y-46853000D01*
X153587000Y-46853000D01*
X153587000Y-46873000D01*
X153607000Y-46873000D01*
X153607000Y-47127000D01*
X153587000Y-47127000D01*
X153587000Y-48269915D01*
X153809039Y-48391904D01*
X154197423Y-48231041D01*
X154612389Y-47855134D01*
X154687970Y-47695439D01*
X154763193Y-47710402D01*
X154985302Y-48042811D01*
X155450849Y-48353880D01*
X156000000Y-48463113D01*
X156549151Y-48353880D01*
X157014698Y-48042811D01*
X157244595Y-47698746D01*
X157303193Y-47710402D01*
X157525302Y-48042811D01*
X157990849Y-48353880D01*
X158540000Y-48463113D01*
X159089151Y-48353880D01*
X159554698Y-48042811D01*
X159651101Y-47898535D01*
X159676838Y-48035317D01*
X159815910Y-48251441D01*
X160028110Y-48396431D01*
X160280000Y-48447440D01*
X161880000Y-48447440D01*
X162115317Y-48403162D01*
X162331441Y-48264090D01*
X162476431Y-48051890D01*
X162527440Y-47800000D01*
X162527440Y-46200000D01*
X162483162Y-45964683D01*
X162409424Y-45850090D01*
X177349000Y-45850090D01*
X177349000Y-46554250D01*
X177507750Y-46713000D01*
X178873000Y-46713000D01*
X178873000Y-45500150D01*
X179127000Y-45500150D01*
X179127000Y-46713000D01*
X180492250Y-46713000D01*
X180651000Y-46554250D01*
X180651000Y-45850090D01*
X180554327Y-45616701D01*
X180375698Y-45438073D01*
X180142309Y-45341400D01*
X179285750Y-45341400D01*
X179127000Y-45500150D01*
X178873000Y-45500150D01*
X178714250Y-45341400D01*
X177857691Y-45341400D01*
X177624302Y-45438073D01*
X177445673Y-45616701D01*
X177349000Y-45850090D01*
X162409424Y-45850090D01*
X162344090Y-45748559D01*
X162131890Y-45603569D01*
X161880000Y-45552560D01*
X160280000Y-45552560D01*
X160044683Y-45596838D01*
X159866321Y-45711611D01*
X157883255Y-43728545D01*
X157644285Y-43568870D01*
X157362400Y-43512800D01*
X127546700Y-43512800D01*
X127264815Y-43568870D01*
X127025845Y-43728545D01*
X125092275Y-45662115D01*
X124709151Y-45406120D01*
X124160000Y-45296887D01*
X123610849Y-45406120D01*
X123145302Y-45717189D01*
X122890000Y-46099275D01*
X122634698Y-45717189D01*
X122169151Y-45406120D01*
X121620000Y-45296887D01*
X121070849Y-45406120D01*
X120605302Y-45717189D01*
X120350000Y-46099275D01*
X120094698Y-45717189D01*
X119629151Y-45406120D01*
X119080000Y-45296887D01*
X118530849Y-45406120D01*
X118065302Y-45717189D01*
X117810000Y-46099275D01*
X117554698Y-45717189D01*
X117089151Y-45406120D01*
X116540000Y-45296887D01*
X115990849Y-45406120D01*
X115525302Y-45717189D01*
X115270000Y-46099275D01*
X115014698Y-45717189D01*
X114549151Y-45406120D01*
X114000000Y-45296887D01*
X113450849Y-45406120D01*
X112985302Y-45717189D01*
X112730000Y-46099275D01*
X112474698Y-45717189D01*
X112009151Y-45406120D01*
X111460000Y-45296887D01*
X110910849Y-45406120D01*
X110445302Y-45717189D01*
X110190000Y-46099275D01*
X109934698Y-45717189D01*
X109469151Y-45406120D01*
X108920000Y-45296887D01*
X108370849Y-45406120D01*
X107905302Y-45717189D01*
X107650000Y-46099275D01*
X107394698Y-45717189D01*
X106929151Y-45406120D01*
X106380000Y-45296887D01*
X105830849Y-45406120D01*
X105365302Y-45717189D01*
X105110000Y-46099275D01*
X104854698Y-45717189D01*
X104389151Y-45406120D01*
X103840000Y-45296887D01*
X103290849Y-45406120D01*
X102825302Y-45717189D01*
X102555014Y-46121703D01*
X102452389Y-45904866D01*
X102037423Y-45528959D01*
X101649039Y-45368096D01*
X101427000Y-45490085D01*
X101427000Y-46633000D01*
X101447000Y-46633000D01*
X101447000Y-46887000D01*
X101427000Y-46887000D01*
X101427000Y-48029915D01*
X101649039Y-48151904D01*
X102037423Y-47991041D01*
X102452389Y-47615134D01*
X102555014Y-47398297D01*
X102825302Y-47802811D01*
X103290849Y-48113880D01*
X103840000Y-48223113D01*
X104389151Y-48113880D01*
X104854698Y-47802811D01*
X105110000Y-47420725D01*
X105365302Y-47802811D01*
X105830849Y-48113880D01*
X106380000Y-48223113D01*
X106929151Y-48113880D01*
X107394698Y-47802811D01*
X107650000Y-47420725D01*
X107905302Y-47802811D01*
X108370849Y-48113880D01*
X108920000Y-48223113D01*
X109469151Y-48113880D01*
X109934698Y-47802811D01*
X110190000Y-47420725D01*
X110445302Y-47802811D01*
X110910849Y-48113880D01*
X111460000Y-48223113D01*
X112009151Y-48113880D01*
X112474698Y-47802811D01*
X112730000Y-47420725D01*
X112985302Y-47802811D01*
X113450849Y-48113880D01*
X114000000Y-48223113D01*
X114549151Y-48113880D01*
X115014698Y-47802811D01*
X115270000Y-47420725D01*
X115525302Y-47802811D01*
X115990849Y-48113880D01*
X116540000Y-48223113D01*
X117089151Y-48113880D01*
X117554698Y-47802811D01*
X117810000Y-47420725D01*
X118065302Y-47802811D01*
X118530849Y-48113880D01*
X119080000Y-48223113D01*
X119629151Y-48113880D01*
X120094698Y-47802811D01*
X120350000Y-47420725D01*
X120605302Y-47802811D01*
X121070849Y-48113880D01*
X121620000Y-48223113D01*
X122169151Y-48113880D01*
X122634698Y-47802811D01*
X122890000Y-47420725D01*
X123145302Y-47802811D01*
X123610849Y-48113880D01*
X124160000Y-48223113D01*
X124528500Y-48149814D01*
X124528500Y-60610186D01*
X124160000Y-60536887D01*
X123610849Y-60646120D01*
X123145302Y-60957189D01*
X122890000Y-61339275D01*
X122634698Y-60957189D01*
X122169151Y-60646120D01*
X121620000Y-60536887D01*
X121070849Y-60646120D01*
X120651398Y-60926388D01*
X119261155Y-59536145D01*
X119022185Y-59376470D01*
X118740300Y-59320400D01*
X106720700Y-59320400D01*
X106438815Y-59376470D01*
X106357743Y-59430641D01*
X106199845Y-59536145D01*
X104809201Y-60926789D01*
X104389151Y-60646120D01*
X103840000Y-60536887D01*
X103290849Y-60646120D01*
X102825302Y-60957189D01*
X102570000Y-61339275D01*
X102314698Y-60957189D01*
X101849151Y-60646120D01*
X101300000Y-60536887D01*
X100750849Y-60646120D01*
X100285302Y-60957189D01*
X99974233Y-61422736D01*
X99865000Y-61971887D01*
X99865000Y-62028113D01*
X99974233Y-62577264D01*
X100285302Y-63042811D01*
X100750849Y-63353880D01*
X101300000Y-63463113D01*
X101612422Y-63400968D01*
X95837445Y-69175945D01*
X95677770Y-69414915D01*
X95621700Y-69696800D01*
X94887574Y-69696800D01*
X94577679Y-69386364D01*
X93756519Y-69045389D01*
X92867381Y-69044613D01*
X92045628Y-69384155D01*
X91416364Y-70012321D01*
X91075389Y-70833481D01*
X91074613Y-71722619D01*
X89027000Y-71722619D01*
X89027000Y-47109041D01*
X99908086Y-47109041D01*
X100147611Y-47615134D01*
X100562577Y-47991041D01*
X100950961Y-48151904D01*
X101173000Y-48029915D01*
X101173000Y-46887000D01*
X100029371Y-46887000D01*
X99908086Y-47109041D01*
X89027000Y-47109041D01*
X89027000Y-46410959D01*
X99908086Y-46410959D01*
X100029371Y-46633000D01*
X101173000Y-46633000D01*
X101173000Y-45490085D01*
X100950961Y-45368096D01*
X100562577Y-45528959D01*
X100147611Y-45904866D01*
X99908086Y-46410959D01*
X89027000Y-46410959D01*
X89027000Y-42710000D01*
X187198000Y-42710000D01*
X187198000Y-140843000D01*
X187198000Y-140843000D01*
G37*
X187198000Y-140843000D02*
X89027000Y-140843000D01*
X89027000Y-137582619D01*
X91104613Y-137582619D01*
X91444155Y-138404372D01*
X92072321Y-139033636D01*
X92893481Y-139374611D01*
X93782619Y-139375387D01*
X94604372Y-139035845D01*
X95233636Y-138407679D01*
X95574611Y-137586519D01*
X95575387Y-136697381D01*
X95235845Y-135875628D01*
X94607679Y-135246364D01*
X93786519Y-134905389D01*
X92897381Y-134904613D01*
X92075628Y-135244155D01*
X91446364Y-135872321D01*
X91105389Y-136693481D01*
X91104613Y-137582619D01*
X89027000Y-137582619D01*
X89027000Y-118992255D01*
X116171861Y-118992255D01*
X117000000Y-119820395D01*
X117828139Y-118992255D01*
X117754005Y-118746136D01*
X117216777Y-118553035D01*
X116646546Y-118580222D01*
X116245995Y-118746136D01*
X116171861Y-118992255D01*
X89027000Y-118992255D01*
X89027000Y-115349041D01*
X96908086Y-115349041D01*
X97147611Y-115855134D01*
X97562577Y-116231041D01*
X97950961Y-116391904D01*
X98173000Y-116269915D01*
X98173000Y-115127000D01*
X97029371Y-115127000D01*
X96908086Y-115349041D01*
X89027000Y-115349041D01*
X89027000Y-114650959D01*
X96908086Y-114650959D01*
X97029371Y-114873000D01*
X98173000Y-114873000D01*
X98173000Y-113730085D01*
X97950961Y-113608096D01*
X97562577Y-113768959D01*
X97147611Y-114144866D01*
X96908086Y-114650959D01*
X89027000Y-114650959D01*
X89027000Y-71722619D01*
X91074613Y-71722619D01*
X91414155Y-72544372D01*
X92042321Y-73173636D01*
X92863481Y-73514611D01*
X93752619Y-73515387D01*
X94574372Y-73175845D01*
X95203636Y-72547679D01*
X95544611Y-71726519D01*
X95545387Y-70837381D01*
X95205845Y-70015628D01*
X94887574Y-69696800D01*
X95621700Y-69696800D01*
X95621700Y-110092400D01*
X95677770Y-110374285D01*
X95837445Y-110613255D01*
X98961846Y-113737656D01*
X98649039Y-113608096D01*
X98427000Y-113730085D01*
X98427000Y-114873000D01*
X98447000Y-114873000D01*
X98447000Y-115127000D01*
X98427000Y-115127000D01*
X98427000Y-116269915D01*
X98649039Y-116391904D01*
X99037423Y-116231041D01*
X99452389Y-115855134D01*
X99555014Y-115638297D01*
X99825302Y-116042811D01*
X100290849Y-116353880D01*
X100840000Y-116463113D01*
X101389151Y-116353880D01*
X101854698Y-116042811D01*
X102110000Y-115660725D01*
X102365302Y-116042811D01*
X102830849Y-116353880D01*
X103380000Y-116463113D01*
X103929151Y-116353880D01*
X104394698Y-116042811D01*
X104650000Y-115660725D01*
X104905302Y-116042811D01*
X105370849Y-116353880D01*
X105920000Y-116463113D01*
X106469151Y-116353880D01*
X106934698Y-116042811D01*
X107164595Y-115698746D01*
X107223193Y-115710402D01*
X107445302Y-116042811D01*
X107910849Y-116353880D01*
X108460000Y-116463113D01*
X109009151Y-116353880D01*
X109438373Y-116067083D01*
X110019745Y-116648455D01*
X110258716Y-116808131D01*
X110540600Y-116864201D01*
X110540605Y-116864200D01*
X121536300Y-116864200D01*
X121818185Y-116808130D01*
X122057155Y-116648455D01*
X122607725Y-116097885D01*
X122990849Y-116353880D01*
X123540000Y-116463113D01*
X124068500Y-116357988D01*
X124068500Y-121262012D01*
X123540000Y-121156887D01*
X122990849Y-121266120D01*
X122607725Y-121522115D01*
X121949355Y-120863745D01*
X121710385Y-120704070D01*
X121428500Y-120648000D01*
X118291966Y-120648000D01*
X118446965Y-120216777D01*
X118419778Y-119646546D01*
X118253864Y-119245995D01*
X118007745Y-119171861D01*
X117179605Y-120000000D01*
X117193748Y-120014142D01*
X117014142Y-120193748D01*
X117000000Y-120179605D01*
X116985858Y-120193748D01*
X116806252Y-120014142D01*
X116820395Y-120000000D01*
X115992255Y-119171861D01*
X115746136Y-119245995D01*
X115553035Y-119783223D01*
X115580222Y-120353454D01*
X115702227Y-120648000D01*
X110662405Y-120648000D01*
X110662400Y-120647999D01*
X110427283Y-120694767D01*
X110380515Y-120704070D01*
X110218605Y-120812255D01*
X110141545Y-120863745D01*
X109446765Y-121558525D01*
X109009151Y-121266120D01*
X108460000Y-121156887D01*
X107910849Y-121266120D01*
X107445302Y-121577189D01*
X107223193Y-121909598D01*
X107164595Y-121921254D01*
X106934698Y-121577189D01*
X106469151Y-121266120D01*
X105920000Y-121156887D01*
X105370849Y-121266120D01*
X104905302Y-121577189D01*
X104675405Y-121921254D01*
X104616807Y-121909598D01*
X104394698Y-121577189D01*
X103929151Y-121266120D01*
X103380000Y-121156887D01*
X102830849Y-121266120D01*
X102365302Y-121577189D01*
X102110000Y-121959275D01*
X101854698Y-121577189D01*
X101389151Y-121266120D01*
X100840000Y-121156887D01*
X100290849Y-121266120D01*
X99825302Y-121577189D01*
X99570000Y-121959275D01*
X99314698Y-121577189D01*
X98849151Y-121266120D01*
X98300000Y-121156887D01*
X97750849Y-121266120D01*
X97285302Y-121577189D01*
X96974233Y-122042736D01*
X96865000Y-122591887D01*
X96865000Y-122648113D01*
X96974233Y-123197264D01*
X97285302Y-123662811D01*
X97750849Y-123973880D01*
X98300000Y-124083113D01*
X98849151Y-123973880D01*
X99314698Y-123662811D01*
X99570000Y-123280725D01*
X99825302Y-123662811D01*
X100290849Y-123973880D01*
X100840000Y-124083113D01*
X101389151Y-123973880D01*
X101854698Y-123662811D01*
X102110000Y-123280725D01*
X102365302Y-123662811D01*
X102830849Y-123973880D01*
X103380000Y-124083113D01*
X103929151Y-123973880D01*
X104366765Y-123681475D01*
X104931245Y-124245955D01*
X105170216Y-124405631D01*
X105452100Y-124461701D01*
X105452105Y-124461700D01*
X106478800Y-124461700D01*
X106760685Y-124405630D01*
X106999655Y-124245955D01*
X107527725Y-123717885D01*
X107910849Y-123973880D01*
X108460000Y-124083113D01*
X109009151Y-123973880D01*
X109474698Y-123662811D01*
X109696807Y-123330402D01*
X109755405Y-123318746D01*
X109985302Y-123662811D01*
X110450849Y-123973880D01*
X111000000Y-124083113D01*
X111549151Y-123973880D01*
X112014698Y-123662811D01*
X112270000Y-123280725D01*
X112525302Y-123662811D01*
X112990849Y-123973880D01*
X113540000Y-124083113D01*
X114089151Y-123973880D01*
X114554698Y-123662811D01*
X114623528Y-123559800D01*
X116030325Y-123559800D01*
X116060200Y-123589727D01*
X116060200Y-124155200D01*
X112789187Y-124155200D01*
X112442300Y-124086200D01*
X112082654Y-124157738D01*
X111777761Y-124361461D01*
X111574038Y-124666354D01*
X111502500Y-125026000D01*
X111502500Y-134137600D01*
X111574038Y-134497246D01*
X111777761Y-134802139D01*
X113435561Y-136459939D01*
X113740454Y-136663662D01*
X114100100Y-136735200D01*
X135199366Y-136735200D01*
X135224000Y-136740100D01*
X136013500Y-136740100D01*
X136038134Y-136735200D01*
X161829300Y-136735200D01*
X162188946Y-136663662D01*
X162493839Y-136459939D01*
X163069688Y-135884090D01*
X171858940Y-135884090D01*
X171858940Y-137474709D01*
X171955613Y-137708098D01*
X172134241Y-137886727D01*
X172367630Y-137983400D01*
X173958250Y-137983400D01*
X174117000Y-137824650D01*
X174117000Y-135725340D01*
X174371000Y-135725340D01*
X174371000Y-137824650D01*
X174529750Y-137983400D01*
X176120370Y-137983400D01*
X176353759Y-137886727D01*
X176532387Y-137708098D01*
X176613357Y-137512619D01*
X180734613Y-137512619D01*
X181074155Y-138334372D01*
X181702321Y-138963636D01*
X182523481Y-139304611D01*
X183412619Y-139305387D01*
X184234372Y-138965845D01*
X184863636Y-138337679D01*
X185204611Y-137516519D01*
X185205387Y-136627381D01*
X184865845Y-135805628D01*
X184237679Y-135176364D01*
X183416519Y-134835389D01*
X182527381Y-134834613D01*
X181705628Y-135174155D01*
X181076364Y-135802321D01*
X180735389Y-136623481D01*
X180734613Y-137512619D01*
X176613357Y-137512619D01*
X176629060Y-137474709D01*
X176629060Y-135884090D01*
X176470310Y-135725340D01*
X174371000Y-135725340D01*
X174117000Y-135725340D01*
X172017690Y-135725340D01*
X171858940Y-135884090D01*
X163069688Y-135884090D01*
X164123439Y-134830339D01*
X164327162Y-134525446D01*
X164398700Y-134165800D01*
X164398700Y-133721971D01*
X171858940Y-133721971D01*
X171858940Y-135312590D01*
X172017690Y-135471340D01*
X174117000Y-135471340D01*
X174117000Y-133372030D01*
X173958250Y-133213280D01*
X172367630Y-133213280D01*
X172134241Y-133309953D01*
X171955613Y-133488582D01*
X171858940Y-133721971D01*
X164398700Y-133721971D01*
X164398700Y-132472278D01*
X169272118Y-127598860D01*
X171596560Y-127598860D01*
X171596560Y-131598860D01*
X171640838Y-131834177D01*
X171779910Y-132050301D01*
X171992110Y-132195291D01*
X172244000Y-132246300D01*
X176244000Y-132246300D01*
X176479317Y-132202022D01*
X176545500Y-132159434D01*
X176545500Y-133520240D01*
X176532387Y-133488582D01*
X176353759Y-133309953D01*
X176120370Y-133213280D01*
X174529750Y-133213280D01*
X174371000Y-133372030D01*
X174371000Y-135471340D01*
X176470310Y-135471340D01*
X176629060Y-135312590D01*
X176629060Y-134645023D01*
X176728850Y-134800101D01*
X176941050Y-134945091D01*
X177192940Y-134996100D01*
X180693060Y-134996100D01*
X180928377Y-134951822D01*
X181144501Y-134812750D01*
X181289491Y-134600550D01*
X181340500Y-134348660D01*
X181340500Y-130848540D01*
X181296222Y-130613223D01*
X181157150Y-130397099D01*
X180944950Y-130252109D01*
X180693060Y-130201100D01*
X177192940Y-130201100D01*
X176957623Y-130245378D01*
X176891440Y-130287966D01*
X176891440Y-127598860D01*
X176847162Y-127363543D01*
X176708090Y-127147419D01*
X176495890Y-127002429D01*
X176244000Y-126951420D01*
X172244000Y-126951420D01*
X172008683Y-126995698D01*
X171792559Y-127134770D01*
X171647569Y-127346970D01*
X171596560Y-127598860D01*
X169272118Y-127598860D01*
X174318739Y-122552239D01*
X174522462Y-122247346D01*
X174583637Y-121939800D01*
X177078865Y-121939800D01*
X177096838Y-122035317D01*
X177235910Y-122251441D01*
X177448110Y-122396431D01*
X177700000Y-122447440D01*
X179300000Y-122447440D01*
X179535317Y-122403162D01*
X179751441Y-122264090D01*
X179896431Y-122051890D01*
X179905370Y-122007745D01*
X180171861Y-122007745D01*
X180245995Y-122253864D01*
X180783223Y-122446965D01*
X181353454Y-122419778D01*
X181754005Y-122253864D01*
X181828139Y-122007745D01*
X181000000Y-121179605D01*
X180171861Y-122007745D01*
X179905370Y-122007745D01*
X179944646Y-121813799D01*
X179992255Y-121828139D01*
X180820395Y-121000000D01*
X181179605Y-121000000D01*
X182007745Y-121828139D01*
X182253864Y-121754005D01*
X182446965Y-121216777D01*
X182419778Y-120646546D01*
X182253864Y-120245995D01*
X182007745Y-120171861D01*
X181179605Y-121000000D01*
X180820395Y-121000000D01*
X179992255Y-120171861D01*
X179944833Y-120186145D01*
X179908351Y-119992255D01*
X180171861Y-119992255D01*
X181000000Y-120820395D01*
X181828139Y-119992255D01*
X181754005Y-119746136D01*
X181216777Y-119553035D01*
X180646546Y-119580222D01*
X180245995Y-119746136D01*
X180171861Y-119992255D01*
X179908351Y-119992255D01*
X179903162Y-119964683D01*
X179767273Y-119753505D01*
X181679539Y-117841239D01*
X181883262Y-117536346D01*
X181954800Y-117176700D01*
X181954800Y-114301413D01*
X182265226Y-113991529D01*
X182615997Y-114342914D01*
X183198341Y-114584724D01*
X183828893Y-114585275D01*
X184411657Y-114344481D01*
X184857914Y-113899003D01*
X185099724Y-113316659D01*
X185100275Y-112686107D01*
X184859481Y-112103343D01*
X184414003Y-111657086D01*
X183831659Y-111415276D01*
X183201107Y-111414725D01*
X182618343Y-111655519D01*
X182264774Y-112008471D01*
X181914003Y-111657086D01*
X181331659Y-111415276D01*
X180701107Y-111414725D01*
X180118343Y-111655519D01*
X180025428Y-111748272D01*
X179929090Y-111598559D01*
X179716890Y-111453569D01*
X179465000Y-111402560D01*
X177565000Y-111402560D01*
X177329683Y-111446838D01*
X177113559Y-111585910D01*
X176968569Y-111798110D01*
X176917560Y-112050000D01*
X176917560Y-113950000D01*
X176961838Y-114185317D01*
X177100910Y-114401441D01*
X177313110Y-114546431D01*
X177565000Y-114597440D01*
X179465000Y-114597440D01*
X179700317Y-114553162D01*
X179916441Y-114414090D01*
X180026400Y-114253160D01*
X180075200Y-114302046D01*
X180075200Y-116787422D01*
X177835461Y-119027161D01*
X177631738Y-119332054D01*
X177583517Y-119574478D01*
X177464683Y-119596838D01*
X177248559Y-119735910D01*
X177103569Y-119948110D01*
X177080870Y-120060200D01*
X174043478Y-120060200D01*
X174013440Y-120030162D01*
X174013440Y-118720000D01*
X173969162Y-118484683D01*
X173830090Y-118268559D01*
X173617890Y-118123569D01*
X173366000Y-118072560D01*
X171566000Y-118072560D01*
X171330683Y-118116838D01*
X171114559Y-118255910D01*
X170969569Y-118468110D01*
X170918560Y-118720000D01*
X170918560Y-120520000D01*
X170962838Y-120755317D01*
X171101910Y-120971441D01*
X171314110Y-121116431D01*
X171566000Y-121167440D01*
X172492562Y-121167440D01*
X172714400Y-121389278D01*
X172714400Y-121498422D01*
X167535000Y-126677822D01*
X167535000Y-125973691D01*
X167438327Y-125740302D01*
X167259699Y-125561673D01*
X167125006Y-125505881D01*
X167300551Y-125330643D01*
X167534733Y-124766670D01*
X167535265Y-124156009D01*
X167302068Y-123591629D01*
X166870643Y-123159449D01*
X166306670Y-122925267D01*
X165736600Y-122924770D01*
X165736600Y-121408315D01*
X165811800Y-121377243D01*
X166215824Y-120973923D01*
X166434750Y-120446691D01*
X166434752Y-120444187D01*
X167220752Y-120444187D01*
X167438757Y-120971800D01*
X167842077Y-121375824D01*
X168369309Y-121594750D01*
X168940187Y-121595248D01*
X169467800Y-121377243D01*
X169871824Y-120973923D01*
X170090750Y-120446691D01*
X170091248Y-119875813D01*
X169873243Y-119348200D01*
X169469923Y-118944176D01*
X169392600Y-118912069D01*
X169392600Y-117320210D01*
X172986855Y-113725955D01*
X173073128Y-113596838D01*
X173146530Y-113486985D01*
X173169693Y-113370535D01*
X173551409Y-113115481D01*
X173884155Y-112617491D01*
X174001000Y-112030072D01*
X174001000Y-111969928D01*
X173884155Y-111382509D01*
X173551409Y-110884519D01*
X173053419Y-110551773D01*
X172466000Y-110434928D01*
X171878581Y-110551773D01*
X171380591Y-110884519D01*
X171047845Y-111382509D01*
X170931000Y-111969928D01*
X170931000Y-112030072D01*
X171047845Y-112617491D01*
X171380591Y-113115481D01*
X171460509Y-113168881D01*
X168135145Y-116494245D01*
X167975470Y-116733215D01*
X167919400Y-117015100D01*
X167919400Y-118911685D01*
X167844200Y-118942757D01*
X167440176Y-119346077D01*
X167221250Y-119873309D01*
X167220752Y-120444187D01*
X166434752Y-120444187D01*
X166435248Y-119875813D01*
X166217243Y-119348200D01*
X165813923Y-118944176D01*
X165286691Y-118725250D01*
X164715813Y-118724752D01*
X164188200Y-118942757D01*
X163784176Y-119346077D01*
X163565250Y-119873309D01*
X163564752Y-120444187D01*
X163782757Y-120971800D01*
X164186077Y-121375824D01*
X164263400Y-121407931D01*
X164263400Y-123460000D01*
X164319470Y-123741885D01*
X164479145Y-123980855D01*
X164519944Y-124021654D01*
X164465267Y-124153330D01*
X164464735Y-124763991D01*
X164697932Y-125328371D01*
X164875092Y-125505841D01*
X164740301Y-125561673D01*
X164561673Y-125740302D01*
X164465000Y-125973691D01*
X164465000Y-126714250D01*
X164623750Y-126873000D01*
X165873000Y-126873000D01*
X165873000Y-126853000D01*
X166127000Y-126853000D01*
X166127000Y-126873000D01*
X166147000Y-126873000D01*
X166147000Y-127127000D01*
X166127000Y-127127000D01*
X166127000Y-127147000D01*
X165873000Y-127147000D01*
X165873000Y-127127000D01*
X164623750Y-127127000D01*
X164465000Y-127285750D01*
X164465000Y-128026309D01*
X164561673Y-128259698D01*
X164740301Y-128438327D01*
X164973690Y-128535000D01*
X165677822Y-128535000D01*
X163591040Y-130621782D01*
X163591040Y-130136400D01*
X163546762Y-129901083D01*
X163407690Y-129684959D01*
X163195490Y-129539969D01*
X162943600Y-129488960D01*
X161216400Y-129488960D01*
X160981083Y-129533238D01*
X160764959Y-129672310D01*
X160619969Y-129884510D01*
X160611136Y-129928131D01*
X160599670Y-129910971D01*
X160113489Y-129586115D01*
X159540000Y-129472041D01*
X159374115Y-129505037D01*
X158780939Y-128911861D01*
X158476046Y-128708138D01*
X158116400Y-128636600D01*
X147083878Y-128636600D01*
X144707583Y-126260305D01*
X144811800Y-126217243D01*
X145215824Y-125813923D01*
X145247931Y-125736600D01*
X148847766Y-125736600D01*
X148858081Y-125761565D01*
X149236443Y-126140588D01*
X149731049Y-126345966D01*
X150266601Y-126346434D01*
X150761565Y-126141919D01*
X151140588Y-125763557D01*
X151151782Y-125736600D01*
X156500000Y-125736600D01*
X156781885Y-125680530D01*
X157020855Y-125520855D01*
X157138163Y-125403547D01*
X157213309Y-125434750D01*
X157784187Y-125435248D01*
X158311800Y-125217243D01*
X158521663Y-125007745D01*
X159171861Y-125007745D01*
X159245995Y-125253864D01*
X159783223Y-125446965D01*
X160353454Y-125419778D01*
X160754005Y-125253864D01*
X160828139Y-125007745D01*
X160000000Y-124179605D01*
X159171861Y-125007745D01*
X158521663Y-125007745D01*
X158715824Y-124813923D01*
X158743423Y-124747456D01*
X158746136Y-124754005D01*
X158992255Y-124828139D01*
X159820395Y-124000000D01*
X160179605Y-124000000D01*
X161007745Y-124828139D01*
X161253864Y-124754005D01*
X161446965Y-124216777D01*
X161419778Y-123646546D01*
X161253864Y-123245995D01*
X161007745Y-123171861D01*
X160179605Y-124000000D01*
X159820395Y-124000000D01*
X158992255Y-123171861D01*
X158746136Y-123245995D01*
X158743804Y-123252483D01*
X158717243Y-123188200D01*
X158521640Y-122992255D01*
X159171861Y-122992255D01*
X160000000Y-123820395D01*
X160828139Y-122992255D01*
X160754005Y-122746136D01*
X160216777Y-122553035D01*
X159646546Y-122580222D01*
X159245995Y-122746136D01*
X159171861Y-122992255D01*
X158521640Y-122992255D01*
X158313923Y-122784176D01*
X157786691Y-122565250D01*
X157215813Y-122564752D01*
X156688200Y-122782757D01*
X156284176Y-123186077D01*
X156065250Y-123713309D01*
X156064770Y-124263400D01*
X151152234Y-124263400D01*
X151141919Y-124238435D01*
X150763557Y-123859412D01*
X150268951Y-123654034D01*
X149733399Y-123653566D01*
X149238435Y-123858081D01*
X148859412Y-124236443D01*
X148848218Y-124263400D01*
X145248315Y-124263400D01*
X145217243Y-124188200D01*
X144813923Y-123784176D01*
X144286691Y-123565250D01*
X143715813Y-123564752D01*
X143709267Y-123567457D01*
X141103723Y-120961913D01*
X141122622Y-120943014D01*
X141007747Y-120828139D01*
X141253864Y-120754005D01*
X141446965Y-120216777D01*
X141445527Y-120186601D01*
X148653566Y-120186601D01*
X148858081Y-120681565D01*
X149236443Y-121060588D01*
X149731049Y-121265966D01*
X150266601Y-121266434D01*
X150761565Y-121061919D01*
X151140588Y-120683557D01*
X151151782Y-120656600D01*
X155580000Y-120656600D01*
X155861885Y-120600530D01*
X156100855Y-120440855D01*
X157138163Y-119403547D01*
X157213309Y-119434750D01*
X157784187Y-119435248D01*
X158311800Y-119217243D01*
X158521663Y-119007745D01*
X159171861Y-119007745D01*
X159245995Y-119253864D01*
X159783223Y-119446965D01*
X160353454Y-119419778D01*
X160754005Y-119253864D01*
X160828139Y-119007745D01*
X160000000Y-118179605D01*
X159171861Y-119007745D01*
X158521663Y-119007745D01*
X158715824Y-118813923D01*
X158743423Y-118747456D01*
X158746136Y-118754005D01*
X158992255Y-118828139D01*
X159820395Y-118000000D01*
X160179605Y-118000000D01*
X161007745Y-118828139D01*
X161253864Y-118754005D01*
X161446965Y-118216777D01*
X161419778Y-117646546D01*
X161253864Y-117245995D01*
X161007745Y-117171861D01*
X160179605Y-118000000D01*
X159820395Y-118000000D01*
X158992255Y-117171861D01*
X158746136Y-117245995D01*
X158743804Y-117252483D01*
X158717243Y-117188200D01*
X158521640Y-116992255D01*
X159171861Y-116992255D01*
X160000000Y-117820395D01*
X160828139Y-116992255D01*
X160754005Y-116746136D01*
X160216777Y-116553035D01*
X159646546Y-116580222D01*
X159245995Y-116746136D01*
X159171861Y-116992255D01*
X158521640Y-116992255D01*
X158313923Y-116784176D01*
X157786691Y-116565250D01*
X157215813Y-116564752D01*
X156688200Y-116782757D01*
X156284176Y-117186077D01*
X156065250Y-117713309D01*
X156064752Y-118284187D01*
X156096724Y-118361566D01*
X155274890Y-119183400D01*
X151152234Y-119183400D01*
X151141919Y-119158435D01*
X150763557Y-118779412D01*
X150268951Y-118574034D01*
X149733399Y-118573566D01*
X149238435Y-118778081D01*
X148859412Y-119156443D01*
X148654034Y-119651049D01*
X148653566Y-120186601D01*
X141445527Y-120186601D01*
X141419778Y-119646546D01*
X141253864Y-119245995D01*
X141007745Y-119171861D01*
X140179605Y-120000000D01*
X140193748Y-120014142D01*
X140014143Y-120193748D01*
X140000000Y-120179605D01*
X139985858Y-120193748D01*
X139806252Y-120014142D01*
X139820395Y-120000000D01*
X139806253Y-119985858D01*
X139985858Y-119806253D01*
X140000000Y-119820395D01*
X140828139Y-118992255D01*
X140754005Y-118746136D01*
X140590568Y-118687390D01*
X140732713Y-118345068D01*
X140733087Y-117915616D01*
X140569089Y-117518711D01*
X140407485Y-117356825D01*
X142619949Y-115144361D01*
X142674233Y-115417264D01*
X142985302Y-115882811D01*
X143450849Y-116193880D01*
X144000000Y-116303113D01*
X144549151Y-116193880D01*
X145014698Y-115882811D01*
X145219302Y-115576600D01*
X145894900Y-115576600D01*
X146176785Y-115520530D01*
X146415755Y-115360855D01*
X146783059Y-114993551D01*
X146797189Y-115014698D01*
X147262736Y-115325767D01*
X147811887Y-115435000D01*
X147868113Y-115435000D01*
X148417264Y-115325767D01*
X148882811Y-115014698D01*
X149193880Y-114549151D01*
X149246584Y-114284187D01*
X156564752Y-114284187D01*
X156782757Y-114811800D01*
X157186077Y-115215824D01*
X157713309Y-115434750D01*
X158284187Y-115435248D01*
X158811800Y-115217243D01*
X159215824Y-114813923D01*
X159434750Y-114286691D01*
X159435248Y-113715813D01*
X159217243Y-113188200D01*
X158813923Y-112784176D01*
X158286691Y-112565250D01*
X157715813Y-112564752D01*
X157188200Y-112782757D01*
X156784176Y-113186077D01*
X156565250Y-113713309D01*
X156564752Y-114284187D01*
X149246584Y-114284187D01*
X149303113Y-114000000D01*
X149193880Y-113450849D01*
X148882811Y-112985302D01*
X148417264Y-112674233D01*
X147868113Y-112565000D01*
X147811887Y-112565000D01*
X147262736Y-112674233D01*
X146797189Y-112985302D01*
X146592435Y-113291738D01*
X146453015Y-113319470D01*
X146214045Y-113479145D01*
X145589790Y-114103400D01*
X145219302Y-114103400D01*
X145014698Y-113797189D01*
X144549151Y-113486120D01*
X144323145Y-113441165D01*
X146161710Y-111602600D01*
X146501000Y-111602600D01*
X146782885Y-111546530D01*
X147021855Y-111386855D01*
X148436823Y-109971887D01*
X163565000Y-109971887D01*
X163565000Y-110028113D01*
X163674233Y-110577264D01*
X163985302Y-111042811D01*
X164450849Y-111353880D01*
X165000000Y-111463113D01*
X165549151Y-111353880D01*
X166014698Y-111042811D01*
X166083528Y-110939800D01*
X167572472Y-110939800D01*
X167641302Y-111042811D01*
X168106849Y-111353880D01*
X168656000Y-111463113D01*
X169205151Y-111353880D01*
X169670698Y-111042811D01*
X169981767Y-110577264D01*
X170091000Y-110028113D01*
X170091000Y-109971887D01*
X169981767Y-109422736D01*
X169670698Y-108957189D01*
X169205151Y-108646120D01*
X168656000Y-108536887D01*
X168106849Y-108646120D01*
X167641302Y-108957189D01*
X167572472Y-109060200D01*
X166083528Y-109060200D01*
X166014698Y-108957189D01*
X165549151Y-108646120D01*
X165000000Y-108536887D01*
X164450849Y-108646120D01*
X163985302Y-108957189D01*
X163674233Y-109422736D01*
X163565000Y-109971887D01*
X148436823Y-109971887D01*
X151584915Y-106823795D01*
X175864716Y-106823795D01*
X176113106Y-107424943D01*
X176572637Y-107885278D01*
X177173352Y-108134716D01*
X177823795Y-108135284D01*
X178424943Y-107886894D01*
X178885278Y-107427363D01*
X178964490Y-107236600D01*
X182535284Y-107236600D01*
X182613106Y-107424943D01*
X183072637Y-107885278D01*
X183673352Y-108134716D01*
X184323795Y-108135284D01*
X184924943Y-107886894D01*
X185385278Y-107427363D01*
X185634716Y-106826648D01*
X185635284Y-106176205D01*
X185386894Y-105575057D01*
X184927363Y-105114722D01*
X184326648Y-104865284D01*
X183676205Y-104864716D01*
X183075057Y-105113106D01*
X182614722Y-105572637D01*
X182535510Y-105763400D01*
X178964716Y-105763400D01*
X178886894Y-105575057D01*
X178427363Y-105114722D01*
X177826648Y-104865284D01*
X177176205Y-104864716D01*
X176575057Y-105113106D01*
X176114722Y-105572637D01*
X175865284Y-106173352D01*
X175864716Y-106823795D01*
X151584915Y-106823795D01*
X154577674Y-103831036D01*
X170752193Y-103831036D01*
X170782518Y-104321413D01*
X170874711Y-104543990D01*
X170803569Y-104648110D01*
X170752560Y-104900000D01*
X170752560Y-106100000D01*
X170796838Y-106335317D01*
X170935910Y-106551441D01*
X171148110Y-106696431D01*
X171400000Y-106747440D01*
X172600000Y-106747440D01*
X172835317Y-106703162D01*
X173051441Y-106564090D01*
X173196431Y-106351890D01*
X173247440Y-106100000D01*
X173247440Y-104900000D01*
X173203162Y-104664683D01*
X173121234Y-104537364D01*
X173247807Y-104168964D01*
X173217482Y-103678587D01*
X173088164Y-103366383D01*
X172862735Y-103316870D01*
X172179605Y-104000000D01*
X172193748Y-104014143D01*
X172014143Y-104193748D01*
X172000000Y-104179605D01*
X171985858Y-104193748D01*
X171806253Y-104014143D01*
X171820395Y-104000000D01*
X171137265Y-103316870D01*
X170911836Y-103366383D01*
X170752193Y-103831036D01*
X154577674Y-103831036D01*
X155271445Y-103137265D01*
X171316870Y-103137265D01*
X172000000Y-103820395D01*
X172667863Y-103152532D01*
X176527073Y-103152532D01*
X176625736Y-103419387D01*
X177235461Y-103645908D01*
X177885460Y-103621856D01*
X178374264Y-103419387D01*
X178472927Y-103152532D01*
X183027073Y-103152532D01*
X183125736Y-103419387D01*
X183735461Y-103645908D01*
X184385460Y-103621856D01*
X184874264Y-103419387D01*
X184972927Y-103152532D01*
X184000000Y-102179605D01*
X183027073Y-103152532D01*
X178472927Y-103152532D01*
X177500000Y-102179605D01*
X176527073Y-103152532D01*
X172667863Y-103152532D01*
X172683130Y-103137265D01*
X172633617Y-102911836D01*
X172168964Y-102752193D01*
X171678587Y-102782518D01*
X171366383Y-102911836D01*
X171316870Y-103137265D01*
X155271445Y-103137265D01*
X156673249Y-101735461D01*
X175854092Y-101735461D01*
X175878144Y-102385460D01*
X176080613Y-102874264D01*
X176347468Y-102972927D01*
X177320395Y-102000000D01*
X177679605Y-102000000D01*
X178652532Y-102972927D01*
X178919387Y-102874264D01*
X179145908Y-102264539D01*
X179126331Y-101735461D01*
X182354092Y-101735461D01*
X182378144Y-102385460D01*
X182580613Y-102874264D01*
X182847468Y-102972927D01*
X183820395Y-102000000D01*
X184179605Y-102000000D01*
X185152532Y-102972927D01*
X185419387Y-102874264D01*
X185645908Y-102264539D01*
X185621856Y-101614540D01*
X185419387Y-101125736D01*
X185152532Y-101027073D01*
X184179605Y-102000000D01*
X183820395Y-102000000D01*
X182847468Y-101027073D01*
X182580613Y-101125736D01*
X182354092Y-101735461D01*
X179126331Y-101735461D01*
X179121856Y-101614540D01*
X178919387Y-101125736D01*
X178652532Y-101027073D01*
X177679605Y-102000000D01*
X177320395Y-102000000D01*
X176347468Y-101027073D01*
X176080613Y-101125736D01*
X175854092Y-101735461D01*
X156673249Y-101735461D01*
X157561242Y-100847468D01*
X176527073Y-100847468D01*
X177500000Y-101820395D01*
X178472927Y-100847468D01*
X183027073Y-100847468D01*
X184000000Y-101820395D01*
X184972927Y-100847468D01*
X184874264Y-100580613D01*
X184264539Y-100354092D01*
X183614540Y-100378144D01*
X183125736Y-100580613D01*
X183027073Y-100847468D01*
X178472927Y-100847468D01*
X178374264Y-100580613D01*
X177764539Y-100354092D01*
X177114540Y-100378144D01*
X176625736Y-100580613D01*
X176527073Y-100847468D01*
X157561242Y-100847468D01*
X160170855Y-98237855D01*
X160330530Y-97998885D01*
X160339650Y-97953034D01*
X160370849Y-97973880D01*
X160920000Y-98083113D01*
X161469151Y-97973880D01*
X161934698Y-97662811D01*
X162190000Y-97280725D01*
X162445302Y-97662811D01*
X162910849Y-97973880D01*
X163460000Y-98083113D01*
X164009151Y-97973880D01*
X164474698Y-97662811D01*
X164730000Y-97280725D01*
X164985302Y-97662811D01*
X165450849Y-97973880D01*
X166000000Y-98083113D01*
X166549151Y-97973880D01*
X167014698Y-97662811D01*
X167270000Y-97280725D01*
X167525302Y-97662811D01*
X167990849Y-97973880D01*
X168540000Y-98083113D01*
X169089151Y-97973880D01*
X169554698Y-97662811D01*
X169810000Y-97280725D01*
X170065302Y-97662811D01*
X170530849Y-97973880D01*
X171080000Y-98083113D01*
X171629151Y-97973880D01*
X172094698Y-97662811D01*
X172347686Y-97284187D01*
X172564752Y-97284187D01*
X172782757Y-97811800D01*
X173186077Y-98215824D01*
X173713309Y-98434750D01*
X174284187Y-98435248D01*
X174811800Y-98217243D01*
X175215824Y-97813923D01*
X175434750Y-97286691D01*
X175435248Y-96715813D01*
X175217243Y-96188200D01*
X174813923Y-95784176D01*
X174747456Y-95756577D01*
X174754005Y-95753864D01*
X174828139Y-95507745D01*
X174000000Y-94679605D01*
X173171861Y-95507745D01*
X173245995Y-95753864D01*
X173252483Y-95756196D01*
X173188200Y-95782757D01*
X172784176Y-96186077D01*
X172565250Y-96713309D01*
X172564752Y-97284187D01*
X172347686Y-97284187D01*
X172405767Y-97197264D01*
X172515000Y-96648113D01*
X172515000Y-96591887D01*
X172405767Y-96042736D01*
X172094698Y-95577189D01*
X171629151Y-95266120D01*
X171080000Y-95156887D01*
X170530849Y-95266120D01*
X170065302Y-95577189D01*
X169810000Y-95959275D01*
X169554698Y-95577189D01*
X169089151Y-95266120D01*
X168540000Y-95156887D01*
X167990849Y-95266120D01*
X167525302Y-95577189D01*
X167270000Y-95959275D01*
X167014698Y-95577189D01*
X166549151Y-95266120D01*
X166000000Y-95156887D01*
X165450849Y-95266120D01*
X164985302Y-95577189D01*
X164730000Y-95959275D01*
X164474698Y-95577189D01*
X164395245Y-95524100D01*
X164740000Y-95524100D01*
X165021885Y-95468030D01*
X165260855Y-95308355D01*
X166285987Y-94283223D01*
X172553035Y-94283223D01*
X172580222Y-94853454D01*
X172746136Y-95254005D01*
X172992255Y-95328139D01*
X173820395Y-94500000D01*
X174179605Y-94500000D01*
X175007745Y-95328139D01*
X175253864Y-95254005D01*
X175446965Y-94716777D01*
X175419778Y-94146546D01*
X175253864Y-93745995D01*
X175007745Y-93671861D01*
X174179605Y-94500000D01*
X173820395Y-94500000D01*
X172992255Y-93671861D01*
X172746136Y-93745995D01*
X172553035Y-94283223D01*
X166285987Y-94283223D01*
X167076955Y-93492255D01*
X173171861Y-93492255D01*
X174000000Y-94320395D01*
X174828139Y-93492255D01*
X174754005Y-93246136D01*
X174216777Y-93053035D01*
X173646546Y-93080222D01*
X173245995Y-93246136D01*
X173171861Y-93492255D01*
X167076955Y-93492255D01*
X170148416Y-90420794D01*
X170280000Y-90447440D01*
X171880000Y-90447440D01*
X172115317Y-90403162D01*
X172331441Y-90264090D01*
X172476431Y-90051890D01*
X172527440Y-89800000D01*
X172527440Y-88200000D01*
X172483162Y-87964683D01*
X172344090Y-87748559D01*
X172131890Y-87603569D01*
X171880000Y-87552560D01*
X170280000Y-87552560D01*
X170044683Y-87596838D01*
X169866443Y-87711533D01*
X169528955Y-87374045D01*
X169289985Y-87214370D01*
X169008100Y-87158300D01*
X165532105Y-87158300D01*
X165532100Y-87158299D01*
X165250216Y-87214369D01*
X165011245Y-87374045D01*
X164446765Y-87938525D01*
X164009151Y-87646120D01*
X163460000Y-87536887D01*
X162910849Y-87646120D01*
X162445302Y-87957189D01*
X162190000Y-88339275D01*
X161934698Y-87957189D01*
X161469151Y-87646120D01*
X160920000Y-87536887D01*
X160370849Y-87646120D01*
X159905302Y-87957189D01*
X159650000Y-88339275D01*
X159394698Y-87957189D01*
X158929151Y-87646120D01*
X158380000Y-87536887D01*
X157830849Y-87646120D01*
X157365302Y-87957189D01*
X157095014Y-88361703D01*
X156992389Y-88144866D01*
X156577423Y-87768959D01*
X156540460Y-87753650D01*
X159690110Y-84604000D01*
X166395900Y-84604000D01*
X166677785Y-84547930D01*
X166916755Y-84388255D01*
X168037689Y-83267321D01*
X168262577Y-83471041D01*
X168650961Y-83631904D01*
X168873000Y-83509915D01*
X168873000Y-82367000D01*
X168853000Y-82367000D01*
X168853000Y-82113000D01*
X168873000Y-82113000D01*
X168873000Y-80970085D01*
X168650961Y-80848096D01*
X168335100Y-80978921D01*
X168335100Y-69243600D01*
X168279030Y-68961715D01*
X168201755Y-68846065D01*
X168404745Y-69049055D01*
X168643715Y-69208730D01*
X168925600Y-69264800D01*
X172667900Y-69264800D01*
X172949785Y-69208730D01*
X173188755Y-69049055D01*
X178149755Y-64088055D01*
X178263400Y-63917974D01*
X178263400Y-73369790D01*
X171019145Y-80614045D01*
X170859470Y-80853015D01*
X170831738Y-80992435D01*
X170525302Y-81197189D01*
X170255014Y-81601703D01*
X170152389Y-81384866D01*
X169737423Y-81008959D01*
X169349039Y-80848096D01*
X169127000Y-80970085D01*
X169127000Y-82113000D01*
X169147000Y-82113000D01*
X169147000Y-82367000D01*
X169127000Y-82367000D01*
X169127000Y-83509915D01*
X169349039Y-83631904D01*
X169737423Y-83471041D01*
X170152389Y-83095134D01*
X170255014Y-82878297D01*
X170525302Y-83282811D01*
X170990849Y-83593880D01*
X171540000Y-83703113D01*
X172089151Y-83593880D01*
X172554698Y-83282811D01*
X172865767Y-82817264D01*
X172975000Y-82268113D01*
X172975000Y-82211887D01*
X172865767Y-81662736D01*
X172554698Y-81197189D01*
X172533551Y-81183059D01*
X179520855Y-74195755D01*
X179680530Y-73956785D01*
X179736600Y-73674900D01*
X179736600Y-71562619D01*
X180644613Y-71562619D01*
X180984155Y-72384372D01*
X181612321Y-73013636D01*
X182433481Y-73354611D01*
X183322619Y-73355387D01*
X184144372Y-73015845D01*
X184773636Y-72387679D01*
X185114611Y-71566519D01*
X185115387Y-70677381D01*
X184775845Y-69855628D01*
X184147679Y-69226364D01*
X183326519Y-68885389D01*
X182437381Y-68884613D01*
X181615628Y-69224155D01*
X180986364Y-69852321D01*
X180645389Y-70673481D01*
X180644613Y-71562619D01*
X179736600Y-71562619D01*
X179736600Y-60928829D01*
X179758234Y-60924526D01*
X180244415Y-60599670D01*
X180569271Y-60113489D01*
X180683345Y-59540000D01*
X180569271Y-58966511D01*
X180244415Y-58480330D01*
X179929634Y-58270000D01*
X180244415Y-58059670D01*
X180569271Y-57573489D01*
X180683345Y-57000000D01*
X180569271Y-56426511D01*
X180244415Y-55940330D01*
X179929634Y-55730000D01*
X180244415Y-55519670D01*
X180569271Y-55033489D01*
X180683345Y-54460000D01*
X180569271Y-53886511D01*
X180244415Y-53400330D01*
X179929634Y-53190000D01*
X180244415Y-52979670D01*
X180569271Y-52493489D01*
X180683345Y-51920000D01*
X180569271Y-51346511D01*
X180244415Y-50860330D01*
X179929634Y-50650000D01*
X180244415Y-50439670D01*
X180569271Y-49953489D01*
X180683345Y-49380000D01*
X180569271Y-48806511D01*
X180244415Y-48320330D01*
X180222220Y-48305500D01*
X180375698Y-48241927D01*
X180554327Y-48063299D01*
X180651000Y-47829910D01*
X180651000Y-47125750D01*
X180492250Y-46967000D01*
X179127000Y-46967000D01*
X179127000Y-46987000D01*
X178873000Y-46987000D01*
X178873000Y-46967000D01*
X177507750Y-46967000D01*
X177349000Y-47125750D01*
X177349000Y-47829910D01*
X177445673Y-48063299D01*
X177624302Y-48241927D01*
X177777780Y-48305500D01*
X177755585Y-48320330D01*
X177430729Y-48806511D01*
X177316655Y-49380000D01*
X177430729Y-49953489D01*
X177755585Y-50439670D01*
X178070366Y-50650000D01*
X177755585Y-50860330D01*
X177430729Y-51346511D01*
X177316655Y-51920000D01*
X177430729Y-52493489D01*
X177755585Y-52979670D01*
X178070366Y-53190000D01*
X177755585Y-53400330D01*
X177430729Y-53886511D01*
X177316655Y-54460000D01*
X177430729Y-55033489D01*
X177689189Y-55420301D01*
X176294645Y-56814845D01*
X176134970Y-57053815D01*
X176078900Y-57335700D01*
X176078900Y-63500190D01*
X172975000Y-66604090D01*
X172975000Y-66073691D01*
X172878327Y-65840302D01*
X172699699Y-65661673D01*
X172466310Y-65565000D01*
X171825750Y-65565000D01*
X171667000Y-65723750D01*
X171667000Y-66873000D01*
X171687000Y-66873000D01*
X171687000Y-67127000D01*
X171667000Y-67127000D01*
X171667000Y-67147000D01*
X171413000Y-67147000D01*
X171413000Y-67127000D01*
X171393000Y-67127000D01*
X171393000Y-66873000D01*
X171413000Y-66873000D01*
X171413000Y-65723750D01*
X171254250Y-65565000D01*
X170613690Y-65565000D01*
X170380301Y-65661673D01*
X170201673Y-65840302D01*
X170105000Y-66073691D01*
X170105000Y-66092335D01*
X170014698Y-65957189D01*
X169549151Y-65646120D01*
X169000000Y-65536887D01*
X168450849Y-65646120D01*
X168053758Y-65911448D01*
X167456355Y-65314045D01*
X167217385Y-65154370D01*
X166935500Y-65098300D01*
X160972100Y-65098300D01*
X160690215Y-65154370D01*
X160451245Y-65314045D01*
X159826765Y-65938525D01*
X159389151Y-65646120D01*
X158840000Y-65536887D01*
X158290849Y-65646120D01*
X157847780Y-65942170D01*
X157226455Y-65320845D01*
X156987485Y-65161170D01*
X156705600Y-65105100D01*
X155890300Y-65105100D01*
X155608415Y-65161170D01*
X155369445Y-65320845D01*
X154749762Y-65940528D01*
X154309151Y-65646120D01*
X153760000Y-65536887D01*
X153210849Y-65646120D01*
X152745302Y-65957189D01*
X152490000Y-66339275D01*
X152234698Y-65957189D01*
X151769151Y-65646120D01*
X151220000Y-65536887D01*
X150670849Y-65646120D01*
X150205302Y-65957189D01*
X149950000Y-66339275D01*
X149694698Y-65957189D01*
X149229151Y-65646120D01*
X148680000Y-65536887D01*
X148130849Y-65646120D01*
X147665302Y-65957189D01*
X147410000Y-66339275D01*
X147154698Y-65957189D01*
X146689151Y-65646120D01*
X146140000Y-65536887D01*
X145590849Y-65646120D01*
X145125302Y-65957189D01*
X144903193Y-66289598D01*
X144844595Y-66301254D01*
X144614698Y-65957189D01*
X144149151Y-65646120D01*
X143600000Y-65536887D01*
X143050849Y-65646120D01*
X142585302Y-65957189D01*
X142516472Y-66060200D01*
X142089466Y-66060200D01*
X141813923Y-65784176D01*
X141286691Y-65565250D01*
X140893985Y-65564907D01*
X138179381Y-62850303D01*
X138215824Y-62813923D01*
X138434750Y-62286691D01*
X138435093Y-61893985D01*
X141360239Y-58968839D01*
X141563962Y-58663946D01*
X141635500Y-58304300D01*
X141635500Y-55743978D01*
X142057539Y-55321939D01*
X142285302Y-55662811D01*
X142591738Y-55867565D01*
X142619470Y-56006985D01*
X142779145Y-56245955D01*
X145153636Y-58620446D01*
X145110000Y-58685752D01*
X144899670Y-58370971D01*
X144413489Y-58046115D01*
X143840000Y-57932041D01*
X143266511Y-58046115D01*
X142780330Y-58370971D01*
X142455474Y-58857152D01*
X142341400Y-59430641D01*
X142341400Y-59489359D01*
X142455474Y-60062848D01*
X142780330Y-60549029D01*
X143051172Y-60730000D01*
X142780330Y-60910971D01*
X142455474Y-61397152D01*
X142341400Y-61970641D01*
X142341400Y-62029359D01*
X142455474Y-62602848D01*
X142780330Y-63089029D01*
X143266511Y-63413885D01*
X143840000Y-63527959D01*
X144413489Y-63413885D01*
X144899670Y-63089029D01*
X145110000Y-62774248D01*
X145320330Y-63089029D01*
X145806511Y-63413885D01*
X146380000Y-63527959D01*
X146953489Y-63413885D01*
X147439670Y-63089029D01*
X147650000Y-62774248D01*
X147860330Y-63089029D01*
X148346511Y-63413885D01*
X148920000Y-63527959D01*
X149493489Y-63413885D01*
X149979670Y-63089029D01*
X150190000Y-62774248D01*
X150400330Y-63089029D01*
X150886511Y-63413885D01*
X151460000Y-63527959D01*
X152033489Y-63413885D01*
X152519670Y-63089029D01*
X152730000Y-62774248D01*
X152940330Y-63089029D01*
X153426511Y-63413885D01*
X154000000Y-63527959D01*
X154573489Y-63413885D01*
X155059670Y-63089029D01*
X155270000Y-62774248D01*
X155480330Y-63089029D01*
X155966511Y-63413885D01*
X156540000Y-63527959D01*
X157113489Y-63413885D01*
X157599670Y-63089029D01*
X157810000Y-62774248D01*
X158020330Y-63089029D01*
X158506511Y-63413885D01*
X159080000Y-63527959D01*
X159653489Y-63413885D01*
X160139670Y-63089029D01*
X160350000Y-62774248D01*
X160560330Y-63089029D01*
X161046511Y-63413885D01*
X161620000Y-63527959D01*
X162193489Y-63413885D01*
X162679670Y-63089029D01*
X163004526Y-62602848D01*
X163118600Y-62029359D01*
X163118600Y-61970641D01*
X163004526Y-61397152D01*
X162693426Y-60931558D01*
X162718917Y-60926762D01*
X162935041Y-60787690D01*
X163080031Y-60575490D01*
X163131040Y-60323600D01*
X163131040Y-58596400D01*
X163086762Y-58361083D01*
X162947690Y-58144959D01*
X162735490Y-57999969D01*
X162483600Y-57948960D01*
X160756400Y-57948960D01*
X160521083Y-57993238D01*
X160304959Y-58132310D01*
X160159969Y-58344510D01*
X160151136Y-58388131D01*
X160139670Y-58370971D01*
X159653489Y-58046115D01*
X159080000Y-57932041D01*
X158506511Y-58046115D01*
X158020330Y-58370971D01*
X157810000Y-58685752D01*
X157599670Y-58370971D01*
X157113489Y-58046115D01*
X156540000Y-57932041D01*
X155966511Y-58046115D01*
X155480330Y-58370971D01*
X155270000Y-58685752D01*
X155059670Y-58370971D01*
X154705356Y-58134226D01*
X154680530Y-58009415D01*
X154520855Y-57770445D01*
X154281885Y-57610770D01*
X154000000Y-57554700D01*
X153791310Y-57554700D01*
X151913551Y-55676941D01*
X151934698Y-55662811D01*
X152190000Y-55280725D01*
X152445302Y-55662811D01*
X152910849Y-55973880D01*
X153460000Y-56083113D01*
X154009151Y-55973880D01*
X154474698Y-55662811D01*
X154730000Y-55280725D01*
X154985302Y-55662811D01*
X155450849Y-55973880D01*
X156000000Y-56083113D01*
X156549151Y-55973880D01*
X157014698Y-55662811D01*
X157270000Y-55280725D01*
X157525302Y-55662811D01*
X157990849Y-55973880D01*
X158540000Y-56083113D01*
X159089151Y-55973880D01*
X159554698Y-55662811D01*
X159810000Y-55280725D01*
X160065302Y-55662811D01*
X160530849Y-55973880D01*
X161080000Y-56083113D01*
X161629151Y-55973880D01*
X162094698Y-55662811D01*
X162163528Y-55559800D01*
X162388300Y-55559800D01*
X162747946Y-55488262D01*
X163052839Y-55284539D01*
X163069552Y-55259526D01*
X163894170Y-54434908D01*
X164284187Y-54435248D01*
X164811800Y-54217243D01*
X165215824Y-53813923D01*
X165434750Y-53286691D01*
X165435248Y-52715813D01*
X165217243Y-52188200D01*
X164813923Y-51784176D01*
X164747456Y-51756577D01*
X164754005Y-51753864D01*
X164828139Y-51507745D01*
X164000000Y-50679605D01*
X163171861Y-51507745D01*
X163245995Y-51753864D01*
X163252483Y-51756196D01*
X163188200Y-51782757D01*
X162784176Y-52186077D01*
X162565250Y-52713309D01*
X162564907Y-53106015D01*
X162094120Y-53576802D01*
X161629151Y-53266120D01*
X161080000Y-53156887D01*
X160968203Y-53179125D01*
X160380839Y-52591761D01*
X160075946Y-52388038D01*
X159716300Y-52316500D01*
X153717278Y-52316500D01*
X151684001Y-50283223D01*
X162553035Y-50283223D01*
X162580222Y-50853454D01*
X162746136Y-51254005D01*
X162992255Y-51328139D01*
X163820395Y-50500000D01*
X164179605Y-50500000D01*
X165007745Y-51328139D01*
X165253864Y-51254005D01*
X165446965Y-50716777D01*
X165419778Y-50146546D01*
X165253864Y-49745995D01*
X165007745Y-49671861D01*
X164179605Y-50500000D01*
X163820395Y-50500000D01*
X162992255Y-49671861D01*
X162746136Y-49745995D01*
X162553035Y-50283223D01*
X151684001Y-50283223D01*
X150893033Y-49492255D01*
X163171861Y-49492255D01*
X164000000Y-50320395D01*
X164828139Y-49492255D01*
X164754005Y-49246136D01*
X164216777Y-49053035D01*
X163646546Y-49080222D01*
X163245995Y-49246136D01*
X163171861Y-49492255D01*
X150893033Y-49492255D01*
X149414281Y-48013503D01*
X149664986Y-47638297D01*
X149767611Y-47855134D01*
X150182577Y-48231041D01*
X150570961Y-48391904D01*
X150793000Y-48269915D01*
X150793000Y-47127000D01*
X151047000Y-47127000D01*
X151047000Y-48269915D01*
X151269039Y-48391904D01*
X151657423Y-48231041D01*
X152072389Y-47855134D01*
X152190000Y-47606633D01*
X152307611Y-47855134D01*
X152722577Y-48231041D01*
X153110961Y-48391904D01*
X153333000Y-48269915D01*
X153333000Y-47127000D01*
X151047000Y-47127000D01*
X150793000Y-47127000D01*
X150773000Y-47127000D01*
X150773000Y-46873000D01*
X150793000Y-46873000D01*
X150793000Y-46853000D01*
X151047000Y-46853000D01*
X151047000Y-46873000D01*
X153333000Y-46873000D01*
X153333000Y-46853000D01*
X153587000Y-46853000D01*
X153587000Y-46873000D01*
X153607000Y-46873000D01*
X153607000Y-47127000D01*
X153587000Y-47127000D01*
X153587000Y-48269915D01*
X153809039Y-48391904D01*
X154197423Y-48231041D01*
X154612389Y-47855134D01*
X154687970Y-47695439D01*
X154763193Y-47710402D01*
X154985302Y-48042811D01*
X155450849Y-48353880D01*
X156000000Y-48463113D01*
X156549151Y-48353880D01*
X157014698Y-48042811D01*
X157244595Y-47698746D01*
X157303193Y-47710402D01*
X157525302Y-48042811D01*
X157990849Y-48353880D01*
X158540000Y-48463113D01*
X159089151Y-48353880D01*
X159554698Y-48042811D01*
X159651101Y-47898535D01*
X159676838Y-48035317D01*
X159815910Y-48251441D01*
X160028110Y-48396431D01*
X160280000Y-48447440D01*
X161880000Y-48447440D01*
X162115317Y-48403162D01*
X162331441Y-48264090D01*
X162476431Y-48051890D01*
X162527440Y-47800000D01*
X162527440Y-46200000D01*
X162483162Y-45964683D01*
X162409424Y-45850090D01*
X177349000Y-45850090D01*
X177349000Y-46554250D01*
X177507750Y-46713000D01*
X178873000Y-46713000D01*
X178873000Y-45500150D01*
X179127000Y-45500150D01*
X179127000Y-46713000D01*
X180492250Y-46713000D01*
X180651000Y-46554250D01*
X180651000Y-45850090D01*
X180554327Y-45616701D01*
X180375698Y-45438073D01*
X180142309Y-45341400D01*
X179285750Y-45341400D01*
X179127000Y-45500150D01*
X178873000Y-45500150D01*
X178714250Y-45341400D01*
X177857691Y-45341400D01*
X177624302Y-45438073D01*
X177445673Y-45616701D01*
X177349000Y-45850090D01*
X162409424Y-45850090D01*
X162344090Y-45748559D01*
X162131890Y-45603569D01*
X161880000Y-45552560D01*
X160280000Y-45552560D01*
X160044683Y-45596838D01*
X159866321Y-45711611D01*
X157883255Y-43728545D01*
X157644285Y-43568870D01*
X157362400Y-43512800D01*
X127546700Y-43512800D01*
X127264815Y-43568870D01*
X127025845Y-43728545D01*
X125092275Y-45662115D01*
X124709151Y-45406120D01*
X124160000Y-45296887D01*
X123610849Y-45406120D01*
X123145302Y-45717189D01*
X122890000Y-46099275D01*
X122634698Y-45717189D01*
X122169151Y-45406120D01*
X121620000Y-45296887D01*
X121070849Y-45406120D01*
X120605302Y-45717189D01*
X120350000Y-46099275D01*
X120094698Y-45717189D01*
X119629151Y-45406120D01*
X119080000Y-45296887D01*
X118530849Y-45406120D01*
X118065302Y-45717189D01*
X117810000Y-46099275D01*
X117554698Y-45717189D01*
X117089151Y-45406120D01*
X116540000Y-45296887D01*
X115990849Y-45406120D01*
X115525302Y-45717189D01*
X115270000Y-46099275D01*
X115014698Y-45717189D01*
X114549151Y-45406120D01*
X114000000Y-45296887D01*
X113450849Y-45406120D01*
X112985302Y-45717189D01*
X112730000Y-46099275D01*
X112474698Y-45717189D01*
X112009151Y-45406120D01*
X111460000Y-45296887D01*
X110910849Y-45406120D01*
X110445302Y-45717189D01*
X110190000Y-46099275D01*
X109934698Y-45717189D01*
X109469151Y-45406120D01*
X108920000Y-45296887D01*
X108370849Y-45406120D01*
X107905302Y-45717189D01*
X107650000Y-46099275D01*
X107394698Y-45717189D01*
X106929151Y-45406120D01*
X106380000Y-45296887D01*
X105830849Y-45406120D01*
X105365302Y-45717189D01*
X105110000Y-46099275D01*
X104854698Y-45717189D01*
X104389151Y-45406120D01*
X103840000Y-45296887D01*
X103290849Y-45406120D01*
X102825302Y-45717189D01*
X102555014Y-46121703D01*
X102452389Y-45904866D01*
X102037423Y-45528959D01*
X101649039Y-45368096D01*
X101427000Y-45490085D01*
X101427000Y-46633000D01*
X101447000Y-46633000D01*
X101447000Y-46887000D01*
X101427000Y-46887000D01*
X101427000Y-48029915D01*
X101649039Y-48151904D01*
X102037423Y-47991041D01*
X102452389Y-47615134D01*
X102555014Y-47398297D01*
X102825302Y-47802811D01*
X103290849Y-48113880D01*
X103840000Y-48223113D01*
X104389151Y-48113880D01*
X104854698Y-47802811D01*
X105110000Y-47420725D01*
X105365302Y-47802811D01*
X105830849Y-48113880D01*
X106380000Y-48223113D01*
X106929151Y-48113880D01*
X107394698Y-47802811D01*
X107650000Y-47420725D01*
X107905302Y-47802811D01*
X108370849Y-48113880D01*
X108920000Y-48223113D01*
X109469151Y-48113880D01*
X109934698Y-47802811D01*
X110190000Y-47420725D01*
X110445302Y-47802811D01*
X110910849Y-48113880D01*
X111460000Y-48223113D01*
X112009151Y-48113880D01*
X112474698Y-47802811D01*
X112730000Y-47420725D01*
X112985302Y-47802811D01*
X113450849Y-48113880D01*
X114000000Y-48223113D01*
X114549151Y-48113880D01*
X115014698Y-47802811D01*
X115270000Y-47420725D01*
X115525302Y-47802811D01*
X115990849Y-48113880D01*
X116540000Y-48223113D01*
X117089151Y-48113880D01*
X117554698Y-47802811D01*
X117810000Y-47420725D01*
X118065302Y-47802811D01*
X118530849Y-48113880D01*
X119080000Y-48223113D01*
X119629151Y-48113880D01*
X120094698Y-47802811D01*
X120350000Y-47420725D01*
X120605302Y-47802811D01*
X121070849Y-48113880D01*
X121620000Y-48223113D01*
X122169151Y-48113880D01*
X122634698Y-47802811D01*
X122890000Y-47420725D01*
X123145302Y-47802811D01*
X123610849Y-48113880D01*
X124160000Y-48223113D01*
X124528500Y-48149814D01*
X124528500Y-60610186D01*
X124160000Y-60536887D01*
X123610849Y-60646120D01*
X123145302Y-60957189D01*
X122890000Y-61339275D01*
X122634698Y-60957189D01*
X122169151Y-60646120D01*
X121620000Y-60536887D01*
X121070849Y-60646120D01*
X120651398Y-60926388D01*
X119261155Y-59536145D01*
X119022185Y-59376470D01*
X118740300Y-59320400D01*
X106720700Y-59320400D01*
X106438815Y-59376470D01*
X106357743Y-59430641D01*
X106199845Y-59536145D01*
X104809201Y-60926789D01*
X104389151Y-60646120D01*
X103840000Y-60536887D01*
X103290849Y-60646120D01*
X102825302Y-60957189D01*
X102570000Y-61339275D01*
X102314698Y-60957189D01*
X101849151Y-60646120D01*
X101300000Y-60536887D01*
X100750849Y-60646120D01*
X100285302Y-60957189D01*
X99974233Y-61422736D01*
X99865000Y-61971887D01*
X99865000Y-62028113D01*
X99974233Y-62577264D01*
X100285302Y-63042811D01*
X100750849Y-63353880D01*
X101300000Y-63463113D01*
X101612422Y-63400968D01*
X95837445Y-69175945D01*
X95677770Y-69414915D01*
X95621700Y-69696800D01*
X94887574Y-69696800D01*
X94577679Y-69386364D01*
X93756519Y-69045389D01*
X92867381Y-69044613D01*
X92045628Y-69384155D01*
X91416364Y-70012321D01*
X91075389Y-70833481D01*
X91074613Y-71722619D01*
X89027000Y-71722619D01*
X89027000Y-47109041D01*
X99908086Y-47109041D01*
X100147611Y-47615134D01*
X100562577Y-47991041D01*
X100950961Y-48151904D01*
X101173000Y-48029915D01*
X101173000Y-46887000D01*
X100029371Y-46887000D01*
X99908086Y-47109041D01*
X89027000Y-47109041D01*
X89027000Y-46410959D01*
X99908086Y-46410959D01*
X100029371Y-46633000D01*
X101173000Y-46633000D01*
X101173000Y-45490085D01*
X100950961Y-45368096D01*
X100562577Y-45528959D01*
X100147611Y-45904866D01*
X99908086Y-46410959D01*
X89027000Y-46410959D01*
X89027000Y-42710000D01*
X187198000Y-42710000D01*
X187198000Y-140843000D01*
G36*
X159667000Y-133413000D02*
X161953000Y-133413000D01*
X161953000Y-133393000D01*
X162207000Y-133393000D01*
X162207000Y-133413000D01*
X162227000Y-133413000D01*
X162227000Y-133667000D01*
X162207000Y-133667000D01*
X162207000Y-133687000D01*
X161953000Y-133687000D01*
X161953000Y-133667000D01*
X159667000Y-133667000D01*
X159667000Y-133687000D01*
X159413000Y-133687000D01*
X159413000Y-133667000D01*
X159393000Y-133667000D01*
X159393000Y-133413000D01*
X159413000Y-133413000D01*
X159413000Y-133393000D01*
X159667000Y-133393000D01*
X159667000Y-133413000D01*
X159667000Y-133413000D01*
G37*
X159667000Y-133413000D02*
X161953000Y-133413000D01*
X161953000Y-133393000D01*
X162207000Y-133393000D01*
X162207000Y-133413000D01*
X162227000Y-133413000D01*
X162227000Y-133667000D01*
X162207000Y-133667000D01*
X162207000Y-133687000D01*
X161953000Y-133687000D01*
X161953000Y-133667000D01*
X159667000Y-133667000D01*
X159667000Y-133687000D01*
X159413000Y-133687000D01*
X159413000Y-133667000D01*
X159393000Y-133667000D01*
X159393000Y-133413000D01*
X159413000Y-133413000D01*
X159413000Y-133393000D01*
X159667000Y-133393000D01*
X159667000Y-133413000D01*
G36*
X128747000Y-122493000D02*
X128767000Y-122493000D01*
X128767000Y-122747000D01*
X128747000Y-122747000D01*
X128747000Y-123889915D01*
X128969039Y-124011904D01*
X129357423Y-123851041D01*
X129772389Y-123475134D01*
X129875014Y-123258297D01*
X130145302Y-123662811D01*
X130588646Y-123959044D01*
X128086600Y-126461090D01*
X128086600Y-123935544D01*
X128270961Y-124011904D01*
X128493000Y-123889915D01*
X128493000Y-122747000D01*
X128473000Y-122747000D01*
X128473000Y-122493000D01*
X128493000Y-122493000D01*
X128493000Y-122473000D01*
X128747000Y-122473000D01*
X128747000Y-122493000D01*
X128747000Y-122493000D01*
G37*
X128747000Y-122493000D02*
X128767000Y-122493000D01*
X128767000Y-122747000D01*
X128747000Y-122747000D01*
X128747000Y-123889915D01*
X128969039Y-124011904D01*
X129357423Y-123851041D01*
X129772389Y-123475134D01*
X129875014Y-123258297D01*
X130145302Y-123662811D01*
X130588646Y-123959044D01*
X128086600Y-126461090D01*
X128086600Y-123935544D01*
X128270961Y-124011904D01*
X128493000Y-123889915D01*
X128493000Y-122747000D01*
X128473000Y-122747000D01*
X128473000Y-122493000D01*
X128493000Y-122493000D01*
X128493000Y-122473000D01*
X128747000Y-122473000D01*
X128747000Y-122493000D01*
G36*
X134074400Y-121238600D02*
X134049039Y-121228096D01*
X133827000Y-121350085D01*
X133827000Y-122493000D01*
X133847000Y-122493000D01*
X133847000Y-122747000D01*
X133827000Y-122747000D01*
X133827000Y-122767000D01*
X133573000Y-122767000D01*
X133573000Y-122747000D01*
X133553000Y-122747000D01*
X133553000Y-122493000D01*
X133573000Y-122493000D01*
X133573000Y-121350085D01*
X133388300Y-121248610D01*
X133388300Y-120596510D01*
X134074400Y-119910410D01*
X134074400Y-121238600D01*
X134074400Y-121238600D01*
G37*
X134074400Y-121238600D02*
X134049039Y-121228096D01*
X133827000Y-121350085D01*
X133827000Y-122493000D01*
X133847000Y-122493000D01*
X133847000Y-122747000D01*
X133827000Y-122747000D01*
X133827000Y-122767000D01*
X133573000Y-122767000D01*
X133573000Y-122747000D01*
X133553000Y-122747000D01*
X133553000Y-122493000D01*
X133573000Y-122493000D01*
X133573000Y-121350085D01*
X133388300Y-121248610D01*
X133388300Y-120596510D01*
X134074400Y-119910410D01*
X134074400Y-121238600D01*
G36*
X132130845Y-119770545D02*
X131971170Y-120009515D01*
X131915100Y-120291400D01*
X131915100Y-121289190D01*
X131846438Y-121357852D01*
X131709151Y-121266120D01*
X131160000Y-121156887D01*
X130610849Y-121266120D01*
X130145302Y-121577189D01*
X129875014Y-121981703D01*
X129772389Y-121764866D01*
X129357423Y-121388959D01*
X129282771Y-121358039D01*
X133468210Y-117172600D01*
X134728790Y-117172600D01*
X132130845Y-119770545D01*
X132130845Y-119770545D01*
G37*
X132130845Y-119770545D02*
X131971170Y-120009515D01*
X131915100Y-120291400D01*
X131915100Y-121289190D01*
X131846438Y-121357852D01*
X131709151Y-121266120D01*
X131160000Y-121156887D01*
X130610849Y-121266120D01*
X130145302Y-121577189D01*
X129875014Y-121981703D01*
X129772389Y-121764866D01*
X129357423Y-121388959D01*
X129282771Y-121358039D01*
X133468210Y-117172600D01*
X134728790Y-117172600D01*
X132130845Y-119770545D01*
G36*
X122146765Y-108178525D02*
X121709151Y-107886120D01*
X121160000Y-107776887D01*
X120610849Y-107886120D01*
X120145302Y-108197189D01*
X119875014Y-108601703D01*
X119772389Y-108384866D01*
X119357423Y-108008959D01*
X118969039Y-107848096D01*
X118747000Y-107970085D01*
X118747000Y-109113000D01*
X118767000Y-109113000D01*
X118767000Y-109367000D01*
X118747000Y-109367000D01*
X118747000Y-110509915D01*
X118969039Y-110631904D01*
X119357423Y-110471041D01*
X119772389Y-110095134D01*
X119875014Y-109878297D01*
X120145302Y-110282811D01*
X120610849Y-110593880D01*
X121160000Y-110703113D01*
X121709151Y-110593880D01*
X122174698Y-110282811D01*
X122396807Y-109950402D01*
X122455405Y-109938746D01*
X122685302Y-110282811D01*
X122991738Y-110487565D01*
X123019470Y-110626985D01*
X123179145Y-110865955D01*
X124068500Y-111755310D01*
X124068500Y-113642012D01*
X123540000Y-113536887D01*
X122990849Y-113646120D01*
X122525302Y-113957189D01*
X122303193Y-114289598D01*
X122227970Y-114304561D01*
X122152389Y-114144866D01*
X121737423Y-113768959D01*
X121349039Y-113608096D01*
X121127000Y-113730085D01*
X121127000Y-114873000D01*
X121147000Y-114873000D01*
X121147000Y-115127000D01*
X121127000Y-115127000D01*
X121127000Y-115147000D01*
X120873000Y-115147000D01*
X120873000Y-115127000D01*
X119729371Y-115127000D01*
X119608086Y-115349041D01*
X119627944Y-115391000D01*
X114987440Y-115391000D01*
X114987440Y-114650959D01*
X119608086Y-114650959D01*
X119729371Y-114873000D01*
X120873000Y-114873000D01*
X120873000Y-113730085D01*
X120650961Y-113608096D01*
X120262577Y-113768959D01*
X119847611Y-114144866D01*
X119608086Y-114650959D01*
X114987440Y-114650959D01*
X114987440Y-114200000D01*
X114943162Y-113964683D01*
X114804090Y-113748559D01*
X114591890Y-113603569D01*
X114340000Y-113552560D01*
X112740000Y-113552560D01*
X112504683Y-113596838D01*
X112326321Y-113711611D01*
X109696510Y-111081800D01*
X113999900Y-111081800D01*
X114281785Y-111025730D01*
X114520755Y-110866055D01*
X115088499Y-110298311D01*
X115530849Y-110593880D01*
X116080000Y-110703113D01*
X116629151Y-110593880D01*
X117094698Y-110282811D01*
X117364986Y-109878297D01*
X117467611Y-110095134D01*
X117882577Y-110471041D01*
X118270961Y-110631904D01*
X118493000Y-110509915D01*
X118493000Y-109367000D01*
X118473000Y-109367000D01*
X118473000Y-109113000D01*
X118493000Y-109113000D01*
X118493000Y-107970085D01*
X118270961Y-107848096D01*
X117882577Y-108008959D01*
X117467611Y-108384866D01*
X117364986Y-108601703D01*
X117094698Y-108197189D01*
X116784314Y-107989796D01*
X117841410Y-106932700D01*
X123392590Y-106932700D01*
X122146765Y-108178525D01*
X122146765Y-108178525D01*
G37*
X122146765Y-108178525D02*
X121709151Y-107886120D01*
X121160000Y-107776887D01*
X120610849Y-107886120D01*
X120145302Y-108197189D01*
X119875014Y-108601703D01*
X119772389Y-108384866D01*
X119357423Y-108008959D01*
X118969039Y-107848096D01*
X118747000Y-107970085D01*
X118747000Y-109113000D01*
X118767000Y-109113000D01*
X118767000Y-109367000D01*
X118747000Y-109367000D01*
X118747000Y-110509915D01*
X118969039Y-110631904D01*
X119357423Y-110471041D01*
X119772389Y-110095134D01*
X119875014Y-109878297D01*
X120145302Y-110282811D01*
X120610849Y-110593880D01*
X121160000Y-110703113D01*
X121709151Y-110593880D01*
X122174698Y-110282811D01*
X122396807Y-109950402D01*
X122455405Y-109938746D01*
X122685302Y-110282811D01*
X122991738Y-110487565D01*
X123019470Y-110626985D01*
X123179145Y-110865955D01*
X124068500Y-111755310D01*
X124068500Y-113642012D01*
X123540000Y-113536887D01*
X122990849Y-113646120D01*
X122525302Y-113957189D01*
X122303193Y-114289598D01*
X122227970Y-114304561D01*
X122152389Y-114144866D01*
X121737423Y-113768959D01*
X121349039Y-113608096D01*
X121127000Y-113730085D01*
X121127000Y-114873000D01*
X121147000Y-114873000D01*
X121147000Y-115127000D01*
X121127000Y-115127000D01*
X121127000Y-115147000D01*
X120873000Y-115147000D01*
X120873000Y-115127000D01*
X119729371Y-115127000D01*
X119608086Y-115349041D01*
X119627944Y-115391000D01*
X114987440Y-115391000D01*
X114987440Y-114650959D01*
X119608086Y-114650959D01*
X119729371Y-114873000D01*
X120873000Y-114873000D01*
X120873000Y-113730085D01*
X120650961Y-113608096D01*
X120262577Y-113768959D01*
X119847611Y-114144866D01*
X119608086Y-114650959D01*
X114987440Y-114650959D01*
X114987440Y-114200000D01*
X114943162Y-113964683D01*
X114804090Y-113748559D01*
X114591890Y-113603569D01*
X114340000Y-113552560D01*
X112740000Y-113552560D01*
X112504683Y-113596838D01*
X112326321Y-113711611D01*
X109696510Y-111081800D01*
X113999900Y-111081800D01*
X114281785Y-111025730D01*
X114520755Y-110866055D01*
X115088499Y-110298311D01*
X115530849Y-110593880D01*
X116080000Y-110703113D01*
X116629151Y-110593880D01*
X117094698Y-110282811D01*
X117364986Y-109878297D01*
X117467611Y-110095134D01*
X117882577Y-110471041D01*
X118270961Y-110631904D01*
X118493000Y-110509915D01*
X118493000Y-109367000D01*
X118473000Y-109367000D01*
X118473000Y-109113000D01*
X118493000Y-109113000D01*
X118493000Y-107970085D01*
X118270961Y-107848096D01*
X117882577Y-108008959D01*
X117467611Y-108384866D01*
X117364986Y-108601703D01*
X117094698Y-108197189D01*
X116784314Y-107989796D01*
X117841410Y-106932700D01*
X123392590Y-106932700D01*
X122146765Y-108178525D01*
G36*
X107445302Y-95042811D02*
X107910849Y-95353880D01*
X108460000Y-95463113D01*
X109009151Y-95353880D01*
X109404923Y-95089433D01*
X110401345Y-96085855D01*
X110640315Y-96245530D01*
X110922200Y-96301600D01*
X116178900Y-96301600D01*
X116460785Y-96245530D01*
X116699755Y-96085855D01*
X117687725Y-95097885D01*
X118070849Y-95353880D01*
X118620000Y-95463113D01*
X119169151Y-95353880D01*
X119634698Y-95042811D01*
X119856807Y-94710402D01*
X119915405Y-94698746D01*
X120145302Y-95042811D01*
X120166340Y-95056868D01*
X120131738Y-95108654D01*
X120060200Y-95468300D01*
X120060200Y-98410534D01*
X119784176Y-98686077D01*
X119565250Y-99213309D01*
X119564752Y-99784187D01*
X119782757Y-100311800D01*
X120186077Y-100715824D01*
X120252544Y-100743423D01*
X120245995Y-100746136D01*
X120171861Y-100992255D01*
X121000000Y-101820395D01*
X121014142Y-101806252D01*
X121193748Y-101985858D01*
X121179605Y-102000000D01*
X122007745Y-102828139D01*
X122253864Y-102754005D01*
X122446965Y-102216777D01*
X122422281Y-101699054D01*
X122442414Y-101719222D01*
X122839032Y-101883913D01*
X123268484Y-101884287D01*
X123665389Y-101720289D01*
X123844791Y-101541200D01*
X129390090Y-101541200D01*
X127284290Y-103647000D01*
X121696698Y-103647000D01*
X121518986Y-103468978D01*
X121377006Y-103410022D01*
X121754005Y-103253864D01*
X121828139Y-103007745D01*
X121000000Y-102179605D01*
X120171861Y-103007745D01*
X120245995Y-103253864D01*
X120549779Y-103363056D01*
X120296011Y-103467911D01*
X119992078Y-103771314D01*
X119827387Y-104167932D01*
X119827013Y-104597384D01*
X119926310Y-104837700D01*
X115632700Y-104837700D01*
X115350815Y-104893770D01*
X115200378Y-104994289D01*
X115111845Y-105053445D01*
X111986765Y-108178525D01*
X111549151Y-107886120D01*
X111000000Y-107776887D01*
X110450849Y-107886120D01*
X109985302Y-108197189D01*
X109730000Y-108579275D01*
X109474698Y-108197189D01*
X109009151Y-107886120D01*
X108460000Y-107776887D01*
X107910849Y-107886120D01*
X107445302Y-108197189D01*
X107376472Y-108300200D01*
X107003528Y-108300200D01*
X106934698Y-108197189D01*
X106469151Y-107886120D01*
X105920000Y-107776887D01*
X105370849Y-107886120D01*
X104905302Y-108197189D01*
X104650000Y-108579275D01*
X104394698Y-108197189D01*
X103929151Y-107886120D01*
X103380000Y-107776887D01*
X102830849Y-107886120D01*
X102365302Y-108197189D01*
X102135405Y-108541254D01*
X102076807Y-108529598D01*
X101854698Y-108197189D01*
X101389151Y-107886120D01*
X100840000Y-107776887D01*
X100290849Y-107886120D01*
X99825302Y-108197189D01*
X99595405Y-108541254D01*
X99536807Y-108529598D01*
X99314698Y-108197189D01*
X98849151Y-107886120D01*
X98300000Y-107776887D01*
X97908500Y-107854761D01*
X97908500Y-101783223D01*
X119553035Y-101783223D01*
X119580222Y-102353454D01*
X119746136Y-102754005D01*
X119992255Y-102828139D01*
X120820395Y-102000000D01*
X119992255Y-101171861D01*
X119746136Y-101245995D01*
X119553035Y-101783223D01*
X97908500Y-101783223D01*
X97908500Y-95385239D01*
X98300000Y-95463113D01*
X98849151Y-95353880D01*
X99314698Y-95042811D01*
X99570000Y-94660725D01*
X99825302Y-95042811D01*
X100290849Y-95353880D01*
X100840000Y-95463113D01*
X101389151Y-95353880D01*
X101854698Y-95042811D01*
X102110000Y-94660725D01*
X102365302Y-95042811D01*
X102830849Y-95353880D01*
X103380000Y-95463113D01*
X103929151Y-95353880D01*
X104394698Y-95042811D01*
X104650000Y-94660725D01*
X104905302Y-95042811D01*
X105370849Y-95353880D01*
X105920000Y-95463113D01*
X106469151Y-95353880D01*
X106934698Y-95042811D01*
X107190000Y-94660725D01*
X107445302Y-95042811D01*
X107445302Y-95042811D01*
G37*
X107445302Y-95042811D02*
X107910849Y-95353880D01*
X108460000Y-95463113D01*
X109009151Y-95353880D01*
X109404923Y-95089433D01*
X110401345Y-96085855D01*
X110640315Y-96245530D01*
X110922200Y-96301600D01*
X116178900Y-96301600D01*
X116460785Y-96245530D01*
X116699755Y-96085855D01*
X117687725Y-95097885D01*
X118070849Y-95353880D01*
X118620000Y-95463113D01*
X119169151Y-95353880D01*
X119634698Y-95042811D01*
X119856807Y-94710402D01*
X119915405Y-94698746D01*
X120145302Y-95042811D01*
X120166340Y-95056868D01*
X120131738Y-95108654D01*
X120060200Y-95468300D01*
X120060200Y-98410534D01*
X119784176Y-98686077D01*
X119565250Y-99213309D01*
X119564752Y-99784187D01*
X119782757Y-100311800D01*
X120186077Y-100715824D01*
X120252544Y-100743423D01*
X120245995Y-100746136D01*
X120171861Y-100992255D01*
X121000000Y-101820395D01*
X121014142Y-101806252D01*
X121193748Y-101985858D01*
X121179605Y-102000000D01*
X122007745Y-102828139D01*
X122253864Y-102754005D01*
X122446965Y-102216777D01*
X122422281Y-101699054D01*
X122442414Y-101719222D01*
X122839032Y-101883913D01*
X123268484Y-101884287D01*
X123665389Y-101720289D01*
X123844791Y-101541200D01*
X129390090Y-101541200D01*
X127284290Y-103647000D01*
X121696698Y-103647000D01*
X121518986Y-103468978D01*
X121377006Y-103410022D01*
X121754005Y-103253864D01*
X121828139Y-103007745D01*
X121000000Y-102179605D01*
X120171861Y-103007745D01*
X120245995Y-103253864D01*
X120549779Y-103363056D01*
X120296011Y-103467911D01*
X119992078Y-103771314D01*
X119827387Y-104167932D01*
X119827013Y-104597384D01*
X119926310Y-104837700D01*
X115632700Y-104837700D01*
X115350815Y-104893770D01*
X115200378Y-104994289D01*
X115111845Y-105053445D01*
X111986765Y-108178525D01*
X111549151Y-107886120D01*
X111000000Y-107776887D01*
X110450849Y-107886120D01*
X109985302Y-108197189D01*
X109730000Y-108579275D01*
X109474698Y-108197189D01*
X109009151Y-107886120D01*
X108460000Y-107776887D01*
X107910849Y-107886120D01*
X107445302Y-108197189D01*
X107376472Y-108300200D01*
X107003528Y-108300200D01*
X106934698Y-108197189D01*
X106469151Y-107886120D01*
X105920000Y-107776887D01*
X105370849Y-107886120D01*
X104905302Y-108197189D01*
X104650000Y-108579275D01*
X104394698Y-108197189D01*
X103929151Y-107886120D01*
X103380000Y-107776887D01*
X102830849Y-107886120D01*
X102365302Y-108197189D01*
X102135405Y-108541254D01*
X102076807Y-108529598D01*
X101854698Y-108197189D01*
X101389151Y-107886120D01*
X100840000Y-107776887D01*
X100290849Y-107886120D01*
X99825302Y-108197189D01*
X99595405Y-108541254D01*
X99536807Y-108529598D01*
X99314698Y-108197189D01*
X98849151Y-107886120D01*
X98300000Y-107776887D01*
X97908500Y-107854761D01*
X97908500Y-101783223D01*
X119553035Y-101783223D01*
X119580222Y-102353454D01*
X119746136Y-102754005D01*
X119992255Y-102828139D01*
X120820395Y-102000000D01*
X119992255Y-101171861D01*
X119746136Y-101245995D01*
X119553035Y-101783223D01*
X97908500Y-101783223D01*
X97908500Y-95385239D01*
X98300000Y-95463113D01*
X98849151Y-95353880D01*
X99314698Y-95042811D01*
X99570000Y-94660725D01*
X99825302Y-95042811D01*
X100290849Y-95353880D01*
X100840000Y-95463113D01*
X101389151Y-95353880D01*
X101854698Y-95042811D01*
X102110000Y-94660725D01*
X102365302Y-95042811D01*
X102830849Y-95353880D01*
X103380000Y-95463113D01*
X103929151Y-95353880D01*
X104394698Y-95042811D01*
X104650000Y-94660725D01*
X104905302Y-95042811D01*
X105370849Y-95353880D01*
X105920000Y-95463113D01*
X106469151Y-95353880D01*
X106934698Y-95042811D01*
X107190000Y-94660725D01*
X107445302Y-95042811D01*
G36*
X155967000Y-88873000D02*
X155987000Y-88873000D01*
X155987000Y-89127000D01*
X155967000Y-89127000D01*
X155967000Y-90269915D01*
X156189039Y-90391904D01*
X156577423Y-90231041D01*
X156992389Y-89855134D01*
X157095014Y-89638297D01*
X157365302Y-90042811D01*
X157830849Y-90353880D01*
X158380000Y-90463113D01*
X158929151Y-90353880D01*
X159394698Y-90042811D01*
X159650000Y-89660725D01*
X159905302Y-90042811D01*
X160370849Y-90353880D01*
X160920000Y-90463113D01*
X161469151Y-90353880D01*
X161934698Y-90042811D01*
X162190000Y-89660725D01*
X162445302Y-90042811D01*
X162910849Y-90353880D01*
X163460000Y-90463113D01*
X164009151Y-90353880D01*
X164474698Y-90042811D01*
X164696807Y-89710402D01*
X164755405Y-89698746D01*
X164985302Y-90042811D01*
X165341425Y-90280765D01*
X163463890Y-92158300D01*
X152135810Y-92158300D01*
X154607739Y-89686371D01*
X154687611Y-89855134D01*
X155102577Y-90231041D01*
X155490961Y-90391904D01*
X155713000Y-90269915D01*
X155713000Y-89127000D01*
X155693000Y-89127000D01*
X155693000Y-88873000D01*
X155713000Y-88873000D01*
X155713000Y-88853000D01*
X155967000Y-88853000D01*
X155967000Y-88873000D01*
X155967000Y-88873000D01*
G37*
X155967000Y-88873000D02*
X155987000Y-88873000D01*
X155987000Y-89127000D01*
X155967000Y-89127000D01*
X155967000Y-90269915D01*
X156189039Y-90391904D01*
X156577423Y-90231041D01*
X156992389Y-89855134D01*
X157095014Y-89638297D01*
X157365302Y-90042811D01*
X157830849Y-90353880D01*
X158380000Y-90463113D01*
X158929151Y-90353880D01*
X159394698Y-90042811D01*
X159650000Y-89660725D01*
X159905302Y-90042811D01*
X160370849Y-90353880D01*
X160920000Y-90463113D01*
X161469151Y-90353880D01*
X161934698Y-90042811D01*
X162190000Y-89660725D01*
X162445302Y-90042811D01*
X162910849Y-90353880D01*
X163460000Y-90463113D01*
X164009151Y-90353880D01*
X164474698Y-90042811D01*
X164696807Y-89710402D01*
X164755405Y-89698746D01*
X164985302Y-90042811D01*
X165341425Y-90280765D01*
X163463890Y-92158300D01*
X152135810Y-92158300D01*
X154607739Y-89686371D01*
X154687611Y-89855134D01*
X155102577Y-90231041D01*
X155490961Y-90391904D01*
X155713000Y-90269915D01*
X155713000Y-89127000D01*
X155693000Y-89127000D01*
X155693000Y-88873000D01*
X155713000Y-88873000D01*
X155713000Y-88853000D01*
X155967000Y-88853000D01*
X155967000Y-88873000D01*
G36*
X137193748Y-79985858D02*
X137179605Y-80000000D01*
X137193748Y-80014142D01*
X137014143Y-80193748D01*
X137000000Y-80179605D01*
X136985858Y-80193748D01*
X136806253Y-80014143D01*
X136820395Y-80000000D01*
X136806253Y-79985858D01*
X136985858Y-79806253D01*
X137000000Y-79820395D01*
X137014143Y-79806253D01*
X137193748Y-79985858D01*
X137193748Y-79985858D01*
G37*
X137193748Y-79985858D02*
X137179605Y-80000000D01*
X137193748Y-80014142D01*
X137014143Y-80193748D01*
X137000000Y-80179605D01*
X136985858Y-80193748D01*
X136806253Y-80014143D01*
X136820395Y-80000000D01*
X136806253Y-79985858D01*
X136985858Y-79806253D01*
X137000000Y-79820395D01*
X137014143Y-79806253D01*
X137193748Y-79985858D01*
G36*
X101347000Y-66873000D02*
X101367000Y-66873000D01*
X101367000Y-67127000D01*
X101347000Y-67127000D01*
X101347000Y-68269915D01*
X101459672Y-68331818D01*
X97501700Y-72289790D01*
X97501700Y-70170410D01*
X99987096Y-67685014D01*
X100067611Y-67855134D01*
X100482577Y-68231041D01*
X100870961Y-68391904D01*
X101093000Y-68269915D01*
X101093000Y-67127000D01*
X101073000Y-67127000D01*
X101073000Y-66873000D01*
X101093000Y-66873000D01*
X101093000Y-66853000D01*
X101347000Y-66853000D01*
X101347000Y-66873000D01*
X101347000Y-66873000D01*
G37*
X101347000Y-66873000D02*
X101367000Y-66873000D01*
X101367000Y-67127000D01*
X101347000Y-67127000D01*
X101347000Y-68269915D01*
X101459672Y-68331818D01*
X97501700Y-72289790D01*
X97501700Y-70170410D01*
X99987096Y-67685014D01*
X100067611Y-67855134D01*
X100482577Y-68231041D01*
X100870961Y-68391904D01*
X101093000Y-68269915D01*
X101093000Y-67127000D01*
X101073000Y-67127000D01*
X101073000Y-66873000D01*
X101093000Y-66873000D01*
X101093000Y-66853000D01*
X101347000Y-66853000D01*
X101347000Y-66873000D01*
G36*
X141193748Y-69485858D02*
X141179605Y-69500000D01*
X141193748Y-69514143D01*
X141014143Y-69693748D01*
X141000000Y-69679605D01*
X140985858Y-69693748D01*
X140806253Y-69514143D01*
X140820395Y-69500000D01*
X140806252Y-69485858D01*
X140985858Y-69306252D01*
X141000000Y-69320395D01*
X141014142Y-69306252D01*
X141193748Y-69485858D01*
X141193748Y-69485858D01*
G37*
X141193748Y-69485858D02*
X141179605Y-69500000D01*
X141193748Y-69514143D01*
X141014143Y-69693748D01*
X141000000Y-69679605D01*
X140985858Y-69693748D01*
X140806253Y-69514143D01*
X140820395Y-69500000D01*
X140806252Y-69485858D01*
X140985858Y-69306252D01*
X141000000Y-69320395D01*
X141014142Y-69306252D01*
X141193748Y-69485858D01*
G36*
X142147611Y-46144866D02*
X141908086Y-46650959D01*
X142029371Y-46873000D01*
X143173000Y-46873000D01*
X143173000Y-46853000D01*
X143427000Y-46853000D01*
X143427000Y-46873000D01*
X143447000Y-46873000D01*
X143447000Y-47127000D01*
X143427000Y-47127000D01*
X143427000Y-48269915D01*
X143649039Y-48391904D01*
X144037423Y-48231041D01*
X144452389Y-47855134D01*
X144555014Y-47638297D01*
X144825302Y-48042811D01*
X145290849Y-48353880D01*
X145840000Y-48463113D01*
X146362052Y-48359270D01*
X140031161Y-54690161D01*
X139827438Y-54995054D01*
X139755900Y-55354700D01*
X139755900Y-57915022D01*
X138424538Y-59246384D01*
X138419778Y-59146546D01*
X138253864Y-58745995D01*
X138007745Y-58671861D01*
X137179605Y-59500000D01*
X137193748Y-59514142D01*
X137014142Y-59693748D01*
X137000000Y-59679605D01*
X136171861Y-60507745D01*
X136245995Y-60753864D01*
X136252483Y-60756196D01*
X136188200Y-60782757D01*
X135910273Y-61060200D01*
X135403528Y-61060200D01*
X135334698Y-60957189D01*
X134869151Y-60646120D01*
X134320000Y-60536887D01*
X133951500Y-60610186D01*
X133951500Y-59283223D01*
X135553035Y-59283223D01*
X135580222Y-59853454D01*
X135746136Y-60254005D01*
X135992255Y-60328139D01*
X136820395Y-59500000D01*
X135992255Y-58671861D01*
X135746136Y-58745995D01*
X135553035Y-59283223D01*
X133951500Y-59283223D01*
X133951500Y-58492255D01*
X136171861Y-58492255D01*
X137000000Y-59320395D01*
X137828139Y-58492255D01*
X137754005Y-58246136D01*
X137216777Y-58053035D01*
X136646546Y-58080222D01*
X136245995Y-58246136D01*
X136171861Y-58492255D01*
X133951500Y-58492255D01*
X133951500Y-49275310D01*
X134840855Y-48385955D01*
X134960135Y-48207440D01*
X135120000Y-48207440D01*
X135355317Y-48163162D01*
X135571441Y-48024090D01*
X135716431Y-47811890D01*
X135767440Y-47560000D01*
X135767440Y-47349041D01*
X141908086Y-47349041D01*
X142147611Y-47855134D01*
X142562577Y-48231041D01*
X142950961Y-48391904D01*
X143173000Y-48269915D01*
X143173000Y-47127000D01*
X142029371Y-47127000D01*
X141908086Y-47349041D01*
X135767440Y-47349041D01*
X135767440Y-45960000D01*
X135739140Y-45809600D01*
X142517713Y-45809600D01*
X142147611Y-46144866D01*
X142147611Y-46144866D01*
G37*
X142147611Y-46144866D02*
X141908086Y-46650959D01*
X142029371Y-46873000D01*
X143173000Y-46873000D01*
X143173000Y-46853000D01*
X143427000Y-46853000D01*
X143427000Y-46873000D01*
X143447000Y-46873000D01*
X143447000Y-47127000D01*
X143427000Y-47127000D01*
X143427000Y-48269915D01*
X143649039Y-48391904D01*
X144037423Y-48231041D01*
X144452389Y-47855134D01*
X144555014Y-47638297D01*
X144825302Y-48042811D01*
X145290849Y-48353880D01*
X145840000Y-48463113D01*
X146362052Y-48359270D01*
X140031161Y-54690161D01*
X139827438Y-54995054D01*
X139755900Y-55354700D01*
X139755900Y-57915022D01*
X138424538Y-59246384D01*
X138419778Y-59146546D01*
X138253864Y-58745995D01*
X138007745Y-58671861D01*
X137179605Y-59500000D01*
X137193748Y-59514142D01*
X137014142Y-59693748D01*
X137000000Y-59679605D01*
X136171861Y-60507745D01*
X136245995Y-60753864D01*
X136252483Y-60756196D01*
X136188200Y-60782757D01*
X135910273Y-61060200D01*
X135403528Y-61060200D01*
X135334698Y-60957189D01*
X134869151Y-60646120D01*
X134320000Y-60536887D01*
X133951500Y-60610186D01*
X133951500Y-59283223D01*
X135553035Y-59283223D01*
X135580222Y-59853454D01*
X135746136Y-60254005D01*
X135992255Y-60328139D01*
X136820395Y-59500000D01*
X135992255Y-58671861D01*
X135746136Y-58745995D01*
X135553035Y-59283223D01*
X133951500Y-59283223D01*
X133951500Y-58492255D01*
X136171861Y-58492255D01*
X137000000Y-59320395D01*
X137828139Y-58492255D01*
X137754005Y-58246136D01*
X137216777Y-58053035D01*
X136646546Y-58080222D01*
X136245995Y-58246136D01*
X136171861Y-58492255D01*
X133951500Y-58492255D01*
X133951500Y-49275310D01*
X134840855Y-48385955D01*
X134960135Y-48207440D01*
X135120000Y-48207440D01*
X135355317Y-48163162D01*
X135571441Y-48024090D01*
X135716431Y-47811890D01*
X135767440Y-47560000D01*
X135767440Y-47349041D01*
X141908086Y-47349041D01*
X142147611Y-47855134D01*
X142562577Y-48231041D01*
X142950961Y-48391904D01*
X143173000Y-48269915D01*
X143173000Y-47127000D01*
X142029371Y-47127000D01*
X141908086Y-47349041D01*
X135767440Y-47349041D01*
X135767440Y-45960000D01*
X135739140Y-45809600D01*
X142517713Y-45809600D01*
X142147611Y-46144866D01*
M02*
