G04 #@! TF.FileFunction,Copper,L2,Bot,Signal*
%FSLAX46Y46*%
G04 Gerber Fmt 4.6, Leading zero omitted, Abs format (unit mm)*
G04 Created by KiCad (PCBNEW 4.0.7) date *
%MOMM*%
%LPD*%
G01*
G04 APERTURE LIST*
%ADD10C,0.100000*%
%ADD11C,1.600000*%
%ADD12R,1.200000X1.200000*%
%ADD13C,1.200000*%
%ADD14R,1.600000X1.600000*%
%ADD15R,1.800000X1.800000*%
%ADD16O,1.800000X1.800000*%
%ADD17C,1.800000*%
%ADD18R,1.727200X1.727200*%
%ADD19O,1.727200X1.727200*%
%ADD20R,2.032000X1.727200*%
%ADD21O,2.032000X1.727200*%
%ADD22R,4.000000X4.000000*%
%ADD23R,3.500120X3.500120*%
%ADD24O,1.600000X1.600000*%
%ADD25C,2.000000*%
%ADD26R,1.900000X1.900000*%
%ADD27C,1.900000*%
%ADD28C,1.422400*%
%ADD29C,0.889000*%
%ADD30C,0.609600*%
%ADD31C,0.203200*%
%ADD32C,0.254000*%
G04 APERTURE END LIST*
D10*
D11*
X121000000Y-99500000D03*
X121000000Y-102000000D03*
X157500000Y-118000000D03*
X160000000Y-118000000D03*
X157500000Y-124000000D03*
X160000000Y-124000000D03*
D12*
X172000000Y-105500000D03*
D13*
X172000000Y-104000000D03*
D14*
X178500000Y-121000000D03*
D11*
X181000000Y-121000000D03*
X164000000Y-53000000D03*
X164000000Y-50500000D03*
X137000000Y-82500000D03*
X137000000Y-80000000D03*
X141000000Y-67000000D03*
X141000000Y-69500000D03*
X117000000Y-122500000D03*
X117000000Y-120000000D03*
X137000000Y-62000000D03*
X137000000Y-59500000D03*
X140000000Y-122500000D03*
X140000000Y-120000000D03*
X174000000Y-97000000D03*
X174000000Y-94500000D03*
D15*
X172466000Y-119620000D03*
D16*
X172466000Y-112000000D03*
D15*
X166000000Y-127000000D03*
D17*
X166000000Y-124460000D03*
D18*
X161620000Y-59460000D03*
D19*
X161620000Y-62000000D03*
X159080000Y-59460000D03*
X159080000Y-62000000D03*
X156540000Y-59460000D03*
X156540000Y-62000000D03*
X154000000Y-59460000D03*
X154000000Y-62000000D03*
X151460000Y-59460000D03*
X151460000Y-62000000D03*
X148920000Y-59460000D03*
X148920000Y-62000000D03*
X146380000Y-59460000D03*
X146380000Y-62000000D03*
X143840000Y-59460000D03*
X143840000Y-62000000D03*
D20*
X179000000Y-46840000D03*
D21*
X179000000Y-49380000D03*
X179000000Y-51920000D03*
X179000000Y-54460000D03*
X179000000Y-57000000D03*
X179000000Y-59540000D03*
D18*
X162080000Y-131000000D03*
D19*
X162080000Y-133540000D03*
X159540000Y-131000000D03*
X159540000Y-133540000D03*
X157000000Y-131000000D03*
X157000000Y-133540000D03*
X154460000Y-131000000D03*
X154460000Y-133540000D03*
X151920000Y-131000000D03*
X151920000Y-133540000D03*
X149380000Y-131000000D03*
X149380000Y-133540000D03*
X146840000Y-131000000D03*
X146840000Y-133540000D03*
X144300000Y-131000000D03*
X144300000Y-133540000D03*
X141760000Y-131000000D03*
X141760000Y-133540000D03*
X139220000Y-131000000D03*
X139220000Y-133540000D03*
X136680000Y-131000000D03*
X136680000Y-133540000D03*
X134140000Y-131000000D03*
X134140000Y-133540000D03*
X131600000Y-131000000D03*
X131600000Y-133540000D03*
X129060000Y-131000000D03*
X129060000Y-133540000D03*
X126520000Y-131000000D03*
X126520000Y-133540000D03*
X123980000Y-131000000D03*
X123980000Y-133540000D03*
X121440000Y-131000000D03*
X121440000Y-133540000D03*
X118900000Y-131000000D03*
X118900000Y-133540000D03*
X116360000Y-131000000D03*
X116360000Y-133540000D03*
X113820000Y-131000000D03*
X113820000Y-133540000D03*
D22*
X174244000Y-129598860D03*
D23*
X174244000Y-135598340D03*
X178943000Y-132598600D03*
D11*
X115000000Y-88000000D03*
D24*
X104840000Y-88000000D03*
D11*
X158000000Y-114000000D03*
D24*
X147840000Y-114000000D03*
D11*
X144000000Y-125000000D03*
D24*
X144000000Y-114840000D03*
D11*
X168656000Y-120160000D03*
D24*
X168656000Y-110000000D03*
D11*
X165000000Y-120160000D03*
D24*
X165000000Y-110000000D03*
D14*
X119680000Y-88000000D03*
D24*
X122220000Y-88000000D03*
X124760000Y-88000000D03*
X127300000Y-88000000D03*
X129840000Y-88000000D03*
X132380000Y-88000000D03*
X134920000Y-88000000D03*
X137460000Y-88000000D03*
X140000000Y-88000000D03*
D25*
X177500000Y-106500000D03*
X177500000Y-102000000D03*
X184000000Y-106500000D03*
X184000000Y-102000000D03*
D26*
X178515000Y-113000000D03*
D27*
X181015000Y-113000000D03*
X183515000Y-113000000D03*
D28*
X150000000Y-119920000D03*
X150000000Y-125000000D03*
D14*
X171080000Y-89000000D03*
D24*
X155840000Y-96620000D03*
X168540000Y-89000000D03*
X158380000Y-96620000D03*
X166000000Y-89000000D03*
X160920000Y-96620000D03*
X163460000Y-89000000D03*
X163460000Y-96620000D03*
X160920000Y-89000000D03*
X166000000Y-96620000D03*
X158380000Y-89000000D03*
X168540000Y-96620000D03*
X155840000Y-89000000D03*
X171080000Y-96620000D03*
D14*
X136240000Y-115000000D03*
D24*
X121000000Y-122620000D03*
X133700000Y-115000000D03*
X123540000Y-122620000D03*
X131160000Y-115000000D03*
X126080000Y-122620000D03*
X128620000Y-115000000D03*
X128620000Y-122620000D03*
X126080000Y-115000000D03*
X131160000Y-122620000D03*
X123540000Y-115000000D03*
X133700000Y-122620000D03*
X121000000Y-115000000D03*
X136240000Y-122620000D03*
D14*
X134320000Y-46760000D03*
D24*
X101300000Y-62000000D03*
X131780000Y-46760000D03*
X103840000Y-62000000D03*
X129240000Y-46760000D03*
X106380000Y-62000000D03*
X126700000Y-46760000D03*
X108920000Y-62000000D03*
X124160000Y-46760000D03*
X111460000Y-62000000D03*
X121620000Y-46760000D03*
X114000000Y-62000000D03*
X119080000Y-46760000D03*
X116540000Y-62000000D03*
X116540000Y-46760000D03*
X119080000Y-62000000D03*
X114000000Y-46760000D03*
X121620000Y-62000000D03*
X111460000Y-46760000D03*
X124160000Y-62000000D03*
X108920000Y-46760000D03*
X126700000Y-62000000D03*
X106380000Y-46760000D03*
X129240000Y-62000000D03*
X103840000Y-46760000D03*
X131780000Y-62000000D03*
X101300000Y-46760000D03*
X134320000Y-62000000D03*
D14*
X161080000Y-47000000D03*
D24*
X143300000Y-54620000D03*
X158540000Y-47000000D03*
X145840000Y-54620000D03*
X156000000Y-47000000D03*
X148380000Y-54620000D03*
X153460000Y-47000000D03*
X150920000Y-54620000D03*
X150920000Y-47000000D03*
X153460000Y-54620000D03*
X148380000Y-47000000D03*
X156000000Y-54620000D03*
X145840000Y-47000000D03*
X158540000Y-54620000D03*
X143300000Y-47000000D03*
X161080000Y-54620000D03*
D14*
X134240000Y-67000000D03*
D24*
X101220000Y-82240000D03*
X131700000Y-67000000D03*
X103760000Y-82240000D03*
X129160000Y-67000000D03*
X106300000Y-82240000D03*
X126620000Y-67000000D03*
X108840000Y-82240000D03*
X124080000Y-67000000D03*
X111380000Y-82240000D03*
X121540000Y-67000000D03*
X113920000Y-82240000D03*
X119000000Y-67000000D03*
X116460000Y-82240000D03*
X116460000Y-67000000D03*
X119000000Y-82240000D03*
X113920000Y-67000000D03*
X121540000Y-82240000D03*
X111380000Y-67000000D03*
X124080000Y-82240000D03*
X108840000Y-67000000D03*
X126620000Y-82240000D03*
X106300000Y-67000000D03*
X129160000Y-82240000D03*
X103760000Y-67000000D03*
X131700000Y-82240000D03*
X101220000Y-67000000D03*
X134240000Y-82240000D03*
D14*
X113540000Y-115000000D03*
D24*
X98300000Y-122620000D03*
X111000000Y-115000000D03*
X100840000Y-122620000D03*
X108460000Y-115000000D03*
X103380000Y-122620000D03*
X105920000Y-115000000D03*
X105920000Y-122620000D03*
X103380000Y-115000000D03*
X108460000Y-122620000D03*
X100840000Y-115000000D03*
X111000000Y-122620000D03*
X98300000Y-115000000D03*
X113540000Y-122620000D03*
D14*
X171540000Y-67000000D03*
D24*
X143600000Y-82240000D03*
X169000000Y-67000000D03*
X146140000Y-82240000D03*
X166460000Y-67000000D03*
X148680000Y-82240000D03*
X163920000Y-67000000D03*
X151220000Y-82240000D03*
X161380000Y-67000000D03*
X153760000Y-82240000D03*
X158840000Y-67000000D03*
X156300000Y-82240000D03*
X156300000Y-67000000D03*
X158840000Y-82240000D03*
X153760000Y-67000000D03*
X161380000Y-82240000D03*
X151220000Y-67000000D03*
X163920000Y-82240000D03*
X148680000Y-67000000D03*
X166460000Y-82240000D03*
X146140000Y-67000000D03*
X169000000Y-82240000D03*
X143600000Y-67000000D03*
X171540000Y-82240000D03*
D14*
X146560000Y-94000000D03*
D24*
X98300000Y-109240000D03*
X144020000Y-94000000D03*
X100840000Y-109240000D03*
X141480000Y-94000000D03*
X103380000Y-109240000D03*
X138940000Y-94000000D03*
X105920000Y-109240000D03*
X136400000Y-94000000D03*
X108460000Y-109240000D03*
X133860000Y-94000000D03*
X111000000Y-109240000D03*
X131320000Y-94000000D03*
X113540000Y-109240000D03*
X128780000Y-94000000D03*
X116080000Y-109240000D03*
X126240000Y-94000000D03*
X118620000Y-109240000D03*
X123700000Y-94000000D03*
X121160000Y-109240000D03*
X121160000Y-94000000D03*
X123700000Y-109240000D03*
X118620000Y-94000000D03*
X126240000Y-109240000D03*
X116080000Y-94000000D03*
X128780000Y-109240000D03*
X113540000Y-94000000D03*
X131320000Y-109240000D03*
X111000000Y-94000000D03*
X133860000Y-109240000D03*
X108460000Y-94000000D03*
X136400000Y-109240000D03*
X105920000Y-94000000D03*
X138940000Y-109240000D03*
X103380000Y-94000000D03*
X141480000Y-109240000D03*
X100840000Y-94000000D03*
X144020000Y-109240000D03*
X98300000Y-94000000D03*
X146560000Y-109240000D03*
D29*
X97288600Y-112506800D03*
X131902100Y-121283700D03*
X139653400Y-118129400D03*
X124760000Y-84518200D03*
X134920000Y-89892100D03*
X135618700Y-134847500D03*
X144994300Y-103812400D03*
X128279600Y-119214600D03*
X135629900Y-118991100D03*
X130298300Y-83464300D03*
X124687100Y-126755000D03*
X148478500Y-106458100D03*
X144870000Y-78150800D03*
X138530300Y-82327500D03*
X130694000Y-105107600D03*
X137444900Y-84368000D03*
X120906700Y-104383600D03*
X113538500Y-87426100D03*
X123054700Y-100804600D03*
X145759700Y-97596200D03*
D30*
X104840000Y-88000000D02*
X104840000Y-89308300D01*
X105920000Y-94000000D02*
X105920000Y-95308300D01*
X114848400Y-120003300D02*
X113540000Y-121311700D01*
X114848400Y-113983800D02*
X114848400Y-120003300D01*
X112984600Y-112120000D02*
X114848400Y-113983800D01*
X111340000Y-112120000D02*
X112984600Y-112120000D01*
X108460000Y-109240000D02*
X111340000Y-112120000D01*
X113540000Y-122620000D02*
X113540000Y-121311700D01*
X137668300Y-122500000D02*
X137548300Y-122620000D01*
X140000000Y-122500000D02*
X137668300Y-122500000D01*
X136240000Y-122620000D02*
X137548300Y-122620000D01*
X172466000Y-119620000D02*
X172466000Y-118211700D01*
X104840000Y-91611700D02*
X105920000Y-92691700D01*
X104840000Y-89308300D02*
X104840000Y-91611700D01*
X105920000Y-94000000D02*
X105920000Y-92691700D01*
X108460000Y-109240000D02*
X108460000Y-107931700D01*
X108460000Y-99500000D02*
X108460000Y-107931700D01*
X121000000Y-99500000D02*
X108460000Y-99500000D01*
X105920000Y-96960000D02*
X105920000Y-95308300D01*
X108460000Y-99500000D02*
X105920000Y-96960000D01*
X172855400Y-61855400D02*
X164000000Y-53000000D01*
X172855400Y-93536300D02*
X172855400Y-61855400D01*
X171080000Y-95311700D02*
X172855400Y-93536300D01*
X171080000Y-96620000D02*
X171080000Y-95311700D01*
X168656000Y-114401700D02*
X172466000Y-118211700D01*
X168656000Y-110000000D02*
X168656000Y-114401700D01*
X168656000Y-100352300D02*
X171080000Y-97928300D01*
X168656000Y-110000000D02*
X168656000Y-100352300D01*
X171080000Y-96620000D02*
X171080000Y-97274100D01*
X171080000Y-97274100D02*
X171080000Y-97928300D01*
X173725900Y-97274100D02*
X174000000Y-97000000D01*
X171080000Y-97274100D02*
X173725900Y-97274100D01*
X147359200Y-68320800D02*
X148680000Y-67000000D01*
X144362100Y-68320800D02*
X147359200Y-68320800D01*
X144349600Y-68308300D02*
X144362100Y-68320800D01*
X143600000Y-68308300D02*
X144349600Y-68308300D01*
X144362100Y-75137900D02*
X137000000Y-82500000D01*
X144362100Y-68320800D02*
X144362100Y-75137900D01*
X143600000Y-67000000D02*
X143600000Y-68308300D01*
X119680000Y-91211700D02*
X119680000Y-88000000D01*
X121160000Y-92691700D02*
X119680000Y-91211700D01*
X121160000Y-94000000D02*
X121160000Y-92691700D01*
X143300000Y-47000000D02*
X141991700Y-47000000D01*
X177500000Y-102000000D02*
X184000000Y-102000000D01*
X101300000Y-46760000D02*
X101300000Y-48068300D01*
X101220000Y-67000000D02*
X101220000Y-65691700D01*
X120691700Y-116308300D02*
X117000000Y-120000000D01*
X121000000Y-116308300D02*
X120691700Y-116308300D01*
X121000000Y-115000000D02*
X121000000Y-116308300D01*
X99990500Y-64462200D02*
X101220000Y-65691700D01*
X99990500Y-49377800D02*
X99990500Y-64462200D01*
X101300000Y-48068300D02*
X99990500Y-49377800D01*
X141991700Y-47000000D02*
X141216700Y-47000000D01*
X139666700Y-45450000D02*
X141216700Y-47000000D01*
X102610000Y-45450000D02*
X139666700Y-45450000D01*
X101300000Y-46760000D02*
X102610000Y-45450000D01*
X141216700Y-55283300D02*
X137000000Y-59500000D01*
X141216700Y-47000000D02*
X141216700Y-55283300D01*
X166000000Y-127000000D02*
X167408300Y-127000000D01*
X162080000Y-133540000D02*
X163451900Y-133540000D01*
X167408300Y-133540000D02*
X163451900Y-133540000D01*
X167408300Y-133540000D02*
X167408300Y-127000000D01*
X169927300Y-133540000D02*
X167408300Y-133540000D01*
X171985600Y-135598300D02*
X169927300Y-133540000D01*
X174244000Y-135598300D02*
X171985600Y-135598300D01*
X139547500Y-69500000D02*
X141000000Y-69500000D01*
X139547500Y-62047500D02*
X139547500Y-69500000D01*
X137000000Y-59500000D02*
X139547500Y-62047500D01*
X139547500Y-77452500D02*
X137000000Y-80000000D01*
X139547500Y-69500000D02*
X139547500Y-77452500D01*
X96958200Y-72570100D02*
X101220000Y-68308300D01*
X96958200Y-112176400D02*
X96958200Y-72570100D01*
X97288600Y-112506800D02*
X96958200Y-112176400D01*
X101220000Y-67000000D02*
X101220000Y-68308300D01*
X131953900Y-121335500D02*
X131902100Y-121283700D01*
X133700000Y-121335500D02*
X131953900Y-121335500D01*
X133700000Y-122620000D02*
X133700000Y-121335500D01*
X169000000Y-70848300D02*
X169000000Y-82240000D01*
X171540000Y-68308300D02*
X169000000Y-70848300D01*
X171540000Y-67000000D02*
X171540000Y-68308300D01*
X180164400Y-135598300D02*
X174244000Y-135598300D01*
X181201500Y-134561200D02*
X180164400Y-135598300D01*
X181201500Y-121201500D02*
X181201500Y-134561200D01*
X181000000Y-121000000D02*
X181201500Y-121201500D01*
X134533100Y-120502400D02*
X133700000Y-121335500D01*
X139497600Y-120502400D02*
X134533100Y-120502400D01*
X140000000Y-120000000D02*
X139497600Y-120502400D01*
X118620000Y-104380000D02*
X121000000Y-102000000D01*
X118620000Y-109240000D02*
X118620000Y-104380000D01*
D31*
X157500000Y-114500000D02*
X158000000Y-114000000D01*
X157500000Y-118000000D02*
X157500000Y-114500000D01*
X131160000Y-115000000D02*
X132265100Y-115000000D01*
X137629100Y-116105100D02*
X139653400Y-118129400D01*
X133231900Y-116105100D02*
X137629100Y-116105100D01*
X132265100Y-115138300D02*
X133231900Y-116105100D01*
X132265100Y-115000000D02*
X132265100Y-115138300D01*
X172000000Y-105500000D02*
X172905100Y-105500000D01*
X168656000Y-123532500D02*
X168656000Y-120160000D01*
X166393700Y-125794800D02*
X168656000Y-123532500D01*
X163092200Y-125794800D02*
X166393700Y-125794800D01*
X158168700Y-130718300D02*
X163092200Y-125794800D01*
X158168700Y-131494900D02*
X158168700Y-130718300D01*
X157292300Y-132371300D02*
X158168700Y-131494900D01*
X157000000Y-132371300D02*
X157292300Y-132371300D01*
X157000000Y-133540000D02*
X157000000Y-132371300D01*
X173905100Y-109355800D02*
X172466000Y-110794900D01*
X173905100Y-106500000D02*
X173905100Y-109355800D01*
X177500000Y-106500000D02*
X173905100Y-106500000D01*
X173905100Y-106500000D02*
X172905100Y-105500000D01*
X172466000Y-112000000D02*
X172466000Y-110794900D01*
X167105100Y-118609100D02*
X168656000Y-120160000D01*
X167105100Y-91210200D02*
X167105100Y-118609100D01*
X166000000Y-90105100D02*
X167105100Y-91210200D01*
X166000000Y-89000000D02*
X166000000Y-90105100D01*
X161106200Y-58291300D02*
X161620000Y-58291300D01*
X158540000Y-55725100D02*
X161106200Y-58291300D01*
X158540000Y-54620000D02*
X158540000Y-55725100D01*
X161620000Y-59460000D02*
X161620000Y-58291300D01*
X151220000Y-63408700D02*
X151460000Y-63168700D01*
X151220000Y-67000000D02*
X151220000Y-63408700D01*
X151460000Y-62000000D02*
X151460000Y-63168700D01*
X158566200Y-58291300D02*
X159080000Y-58291300D01*
X156000000Y-55725100D02*
X158566200Y-58291300D01*
X156000000Y-54620000D02*
X156000000Y-55725100D01*
X159080000Y-59460000D02*
X159080000Y-58291300D01*
X156026200Y-58291300D02*
X156540000Y-58291300D01*
X153460000Y-55725100D02*
X156026200Y-58291300D01*
X153460000Y-54620000D02*
X153460000Y-55725100D01*
X156540000Y-59460000D02*
X156540000Y-58291300D01*
X150946200Y-58291300D02*
X151460000Y-58291300D01*
X148380000Y-55725100D02*
X150946200Y-58291300D01*
X148380000Y-54620000D02*
X148380000Y-55725100D01*
X151460000Y-59460000D02*
X151460000Y-58291300D01*
X148406200Y-58291300D02*
X148920000Y-58291300D01*
X145840000Y-55725100D02*
X148406200Y-58291300D01*
X145840000Y-54620000D02*
X145840000Y-55725100D01*
X148920000Y-59460000D02*
X148920000Y-58291300D01*
X144666400Y-57464900D02*
X143840000Y-58291300D01*
X144666400Y-49278700D02*
X144666400Y-57464900D01*
X145840000Y-48105100D02*
X144666400Y-49278700D01*
X145840000Y-47000000D02*
X145840000Y-48105100D01*
X143840000Y-59460000D02*
X143840000Y-58291300D01*
X177831300Y-50548700D02*
X179000000Y-50548700D01*
X176486100Y-51893900D02*
X177831300Y-50548700D01*
X163462600Y-51893900D02*
X176486100Y-51893900D01*
X162801500Y-52555000D02*
X163462600Y-51893900D01*
X162801500Y-64473400D02*
X162801500Y-52555000D01*
X161380000Y-65894900D02*
X162801500Y-64473400D01*
X161380000Y-67000000D02*
X161380000Y-65894900D01*
X179000000Y-49380000D02*
X179000000Y-50548700D01*
X154823200Y-132371300D02*
X154460000Y-132371300D01*
X155730000Y-131464500D02*
X154823200Y-132371300D01*
X155730000Y-122472500D02*
X155730000Y-131464500D01*
X158750000Y-119452500D02*
X155730000Y-122472500D01*
X158750000Y-115250000D02*
X158750000Y-119452500D01*
X161643900Y-112356100D02*
X158750000Y-115250000D01*
X161643900Y-111743700D02*
X161643900Y-112356100D01*
X164730000Y-108657600D02*
X161643900Y-111743700D01*
X164730000Y-86975200D02*
X164730000Y-108657600D01*
X167625800Y-84079400D02*
X164730000Y-86975200D01*
X167625800Y-69270900D02*
X167625800Y-84079400D01*
X166460000Y-68105100D02*
X167625800Y-69270900D01*
X166460000Y-67000000D02*
X166460000Y-68105100D01*
X154460000Y-133540000D02*
X154460000Y-132371300D01*
X134805100Y-114380200D02*
X134805100Y-115000000D01*
X137011600Y-112173700D02*
X134805100Y-114380200D01*
X140123400Y-112173700D02*
X137011600Y-112173700D01*
X142592500Y-109704600D02*
X140123400Y-112173700D01*
X142592500Y-107195400D02*
X142592500Y-109704600D01*
X133860000Y-98462900D02*
X142592500Y-107195400D01*
X133860000Y-94000000D02*
X133860000Y-98462900D01*
X133700000Y-115000000D02*
X134805100Y-115000000D01*
X107808000Y-48977100D02*
X108920000Y-47865100D01*
X107808000Y-64862900D02*
X107808000Y-48977100D01*
X108840000Y-65894900D02*
X107808000Y-64862900D01*
X108840000Y-67000000D02*
X108840000Y-65894900D01*
X108920000Y-46760000D02*
X108920000Y-47865100D01*
X108840000Y-67000000D02*
X108840000Y-68105100D01*
X113540000Y-94000000D02*
X113540000Y-92894900D01*
X166460000Y-82240000D02*
X166460000Y-83345100D01*
X151920000Y-131000000D02*
X151920000Y-129831300D01*
X108840000Y-79338100D02*
X108840000Y-68105100D01*
X107725200Y-80452900D02*
X108840000Y-79338100D01*
X107725200Y-82756600D02*
X107725200Y-80452900D01*
X111385300Y-86416700D02*
X107725200Y-82756600D01*
X115592400Y-86416700D02*
X111385300Y-86416700D01*
X116545500Y-87369800D02*
X115592400Y-86416700D01*
X116545500Y-89889400D02*
X116545500Y-87369800D01*
X113540000Y-92894900D02*
X116545500Y-89889400D01*
X162190000Y-87615100D02*
X166460000Y-83345100D01*
X162190000Y-107421200D02*
X162190000Y-87615100D01*
X152614100Y-116997100D02*
X162190000Y-107421200D01*
X152614100Y-129137200D02*
X152614100Y-116997100D01*
X151920000Y-129831300D02*
X152614100Y-129137200D01*
X163920000Y-82240000D02*
X163920000Y-83345100D01*
X151920000Y-133540000D02*
X151920000Y-132371300D01*
X106380000Y-46760000D02*
X106380000Y-47865100D01*
X105269300Y-48975800D02*
X106380000Y-47865100D01*
X105269300Y-64864200D02*
X105269300Y-48975800D01*
X106300000Y-65894900D02*
X105269300Y-64864200D01*
X106300000Y-67000000D02*
X106300000Y-65894900D01*
X106300000Y-80559600D02*
X106300000Y-67000000D01*
X105179600Y-81680000D02*
X106300000Y-80559600D01*
X105179600Y-84863800D02*
X105179600Y-81680000D01*
X107125600Y-86809800D02*
X105179600Y-84863800D01*
X107125600Y-94259700D02*
X107125600Y-86809800D01*
X107971300Y-95105400D02*
X107125600Y-94259700D01*
X109894600Y-95105400D02*
X107971300Y-95105400D01*
X111000000Y-94000000D02*
X109894600Y-95105400D01*
X159650000Y-87615100D02*
X163920000Y-83345100D01*
X159650000Y-109385800D02*
X159650000Y-87615100D01*
X152207400Y-116828400D02*
X159650000Y-109385800D01*
X152207400Y-126245000D02*
X152207400Y-116828400D01*
X150703900Y-127748500D02*
X152207400Y-126245000D01*
X150703900Y-131518400D02*
X150703900Y-127748500D01*
X151556800Y-132371300D02*
X150703900Y-131518400D01*
X151920000Y-132371300D02*
X151556800Y-132371300D01*
X124760000Y-88000000D02*
X124760000Y-86894900D01*
X124760000Y-86894900D02*
X124760000Y-84518200D01*
X103840000Y-46760000D02*
X103840000Y-47865100D01*
X102731600Y-48973500D02*
X103840000Y-47865100D01*
X102731600Y-64866500D02*
X102731600Y-48973500D01*
X103760000Y-65894900D02*
X102731600Y-64866500D01*
X103760000Y-67000000D02*
X103760000Y-65894900D01*
X161380000Y-82240000D02*
X161380000Y-83345100D01*
X149380000Y-131000000D02*
X149380000Y-129831300D01*
X156978100Y-87747000D02*
X161380000Y-83345100D01*
X156978100Y-111432900D02*
X156978100Y-87747000D01*
X151799700Y-116611300D02*
X156978100Y-111432900D01*
X151799700Y-119557600D02*
X151799700Y-116611300D01*
X148970600Y-122386700D02*
X151799700Y-119557600D01*
X148970600Y-129421900D02*
X148970600Y-122386700D01*
X149380000Y-129831300D02*
X148970600Y-129421900D01*
X101300000Y-64909000D02*
X101300000Y-62000000D01*
X102333200Y-65942200D02*
X101300000Y-64909000D01*
X102333200Y-80021700D02*
X102333200Y-65942200D01*
X101220000Y-81134900D02*
X102333200Y-80021700D01*
X101220000Y-82240000D02*
X101220000Y-81134900D01*
X129840000Y-88000000D02*
X129840000Y-89105100D01*
X149380000Y-133540000D02*
X149380000Y-132371300D01*
X158840000Y-82240000D02*
X158840000Y-83345100D01*
X158840000Y-83348200D02*
X158840000Y-83345100D01*
X151393000Y-90795200D02*
X158840000Y-83348200D01*
X151393000Y-116982700D02*
X151393000Y-90795200D01*
X148211200Y-120164500D02*
X151393000Y-116982700D01*
X148211200Y-131565700D02*
X148211200Y-120164500D01*
X149016800Y-132371300D02*
X148211200Y-131565700D01*
X149380000Y-132371300D02*
X149016800Y-132371300D01*
X128780000Y-94000000D02*
X128780000Y-92894900D01*
X129840000Y-91834900D02*
X129840000Y-89105100D01*
X128780000Y-92894900D02*
X129840000Y-91834900D01*
X103760000Y-82240000D02*
X103760000Y-81134900D01*
X132380000Y-91834900D02*
X132380000Y-88000000D01*
X131320000Y-92894900D02*
X132380000Y-91834900D01*
X131320000Y-94000000D02*
X131320000Y-92894900D01*
X104870700Y-80024200D02*
X103760000Y-81134900D01*
X104870700Y-66430300D02*
X104870700Y-80024200D01*
X103840000Y-65399600D02*
X104870700Y-66430300D01*
X103840000Y-62000000D02*
X103840000Y-65399600D01*
X156300000Y-82240000D02*
X156300000Y-83345100D01*
X146840000Y-131000000D02*
X146840000Y-129831300D01*
X150986300Y-88658800D02*
X156300000Y-83345100D01*
X150986300Y-116274500D02*
X150986300Y-88658800D01*
X147804400Y-119456400D02*
X150986300Y-116274500D01*
X147804400Y-128866900D02*
X147804400Y-119456400D01*
X146840000Y-129831300D02*
X147804400Y-128866900D01*
X106380000Y-65399600D02*
X106380000Y-62000000D01*
X107410700Y-66430300D02*
X106380000Y-65399600D01*
X107410700Y-80024200D02*
X107410700Y-66430300D01*
X106300000Y-81134900D02*
X107410700Y-80024200D01*
X106300000Y-82240000D02*
X106300000Y-81134900D01*
X153760000Y-82240000D02*
X153760000Y-83345100D01*
X146840000Y-133540000D02*
X146840000Y-132371300D01*
X150579600Y-86525500D02*
X153760000Y-83345100D01*
X150579600Y-116070700D02*
X150579600Y-86525500D01*
X147397600Y-119252700D02*
X150579600Y-116070700D01*
X147397600Y-127067800D02*
X147397600Y-119252700D01*
X145649400Y-128816000D02*
X147397600Y-127067800D01*
X145649400Y-131543900D02*
X145649400Y-128816000D01*
X146476800Y-132371300D02*
X145649400Y-131543900D01*
X146840000Y-132371300D02*
X146476800Y-132371300D01*
X134920000Y-88000000D02*
X134920000Y-89892100D01*
X108840000Y-82240000D02*
X108840000Y-81134900D01*
X109950700Y-80024200D02*
X108840000Y-81134900D01*
X109950700Y-66430300D02*
X109950700Y-80024200D01*
X108920000Y-65399600D02*
X109950700Y-66430300D01*
X108920000Y-62000000D02*
X108920000Y-65399600D01*
X151220000Y-82240000D02*
X151220000Y-83345100D01*
X150172900Y-84392200D02*
X151220000Y-83345100D01*
X150172900Y-115902200D02*
X150172900Y-84392200D01*
X146917600Y-119157500D02*
X150172900Y-115902200D01*
X146917600Y-126111600D02*
X146917600Y-119157500D01*
X144300000Y-128729200D02*
X146917600Y-126111600D01*
X144300000Y-131000000D02*
X144300000Y-128729200D01*
X148680000Y-82240000D02*
X148680000Y-83345100D01*
X144300000Y-133540000D02*
X144300000Y-132371300D01*
X116080000Y-94000000D02*
X116080000Y-92894900D01*
X111380000Y-82240000D02*
X112485100Y-82240000D01*
X112485100Y-82474200D02*
X112485100Y-82240000D01*
X115209700Y-85198800D02*
X112485100Y-82474200D01*
X115550700Y-85198800D02*
X115209700Y-85198800D01*
X117360100Y-87008200D02*
X115550700Y-85198800D01*
X117360100Y-91614800D02*
X117360100Y-87008200D01*
X116080000Y-92894900D02*
X117360100Y-91614800D01*
X149766200Y-84431300D02*
X148680000Y-83345100D01*
X149766200Y-115733600D02*
X149766200Y-84431300D01*
X145743000Y-119756800D02*
X149766200Y-115733600D01*
X145743000Y-126257100D02*
X145743000Y-119756800D01*
X143086400Y-128913700D02*
X145743000Y-126257100D01*
X143086400Y-131520900D02*
X143086400Y-128913700D01*
X143936800Y-132371300D02*
X143086400Y-131520900D01*
X144300000Y-132371300D02*
X143936800Y-132371300D01*
X98300000Y-122620000D02*
X99405100Y-122620000D01*
X141760000Y-131000000D02*
X141760000Y-132168700D01*
X142123200Y-132168700D02*
X141760000Y-132168700D01*
X142942400Y-132987900D02*
X142123200Y-132168700D01*
X142942400Y-134051600D02*
X142942400Y-132987900D01*
X139803000Y-137191000D02*
X142942400Y-134051600D01*
X113838000Y-137191000D02*
X139803000Y-137191000D01*
X99405100Y-122758100D02*
X113838000Y-137191000D01*
X99405100Y-122620000D02*
X99405100Y-122758100D01*
X108460000Y-115000000D02*
X108460000Y-116105100D01*
X141760000Y-133540000D02*
X140591300Y-133540000D01*
X112110900Y-119756000D02*
X108460000Y-116105100D01*
X112110900Y-133483800D02*
X112110900Y-119756000D01*
X114572900Y-135945800D02*
X112110900Y-133483800D01*
X133460000Y-135945800D02*
X114572900Y-135945800D01*
X135435700Y-133970100D02*
X133460000Y-135945800D01*
X135435700Y-133070700D02*
X135435700Y-133970100D01*
X136160000Y-132346400D02*
X135435700Y-133070700D01*
X139760900Y-132346400D02*
X136160000Y-132346400D01*
X140591300Y-133176800D02*
X139760900Y-132346400D01*
X140591300Y-133540000D02*
X140591300Y-133176800D01*
X119080000Y-65399600D02*
X119080000Y-62000000D01*
X120172400Y-66492000D02*
X119080000Y-65399600D01*
X120172400Y-79962500D02*
X120172400Y-66492000D01*
X119000000Y-81134900D02*
X120172400Y-79962500D01*
X119000000Y-82240000D02*
X119000000Y-81134900D01*
X105920000Y-122620000D02*
X105920000Y-123725100D01*
X105920100Y-123725100D02*
X105920000Y-123725100D01*
X105920100Y-127898900D02*
X105920100Y-123725100D01*
X114373800Y-136352600D02*
X105920100Y-127898900D01*
X134113600Y-136352600D02*
X114373800Y-136352600D01*
X135618700Y-134847500D02*
X134113600Y-136352600D01*
X138051300Y-133903200D02*
X138051300Y-133540000D01*
X135179800Y-136774700D02*
X138051300Y-133903200D01*
X114131700Y-136774700D02*
X135179800Y-136774700D01*
X104650000Y-127293000D02*
X114131700Y-136774700D01*
X104650000Y-119915100D02*
X104650000Y-127293000D01*
X100840000Y-116105100D02*
X104650000Y-119915100D01*
X100840000Y-115000000D02*
X100840000Y-116105100D01*
X139220000Y-133540000D02*
X138051300Y-133540000D01*
X110348000Y-48977100D02*
X111460000Y-47865100D01*
X110348000Y-64862900D02*
X110348000Y-48977100D01*
X111380000Y-65894900D02*
X110348000Y-64862900D01*
X111380000Y-67000000D02*
X111380000Y-65894900D01*
X111460000Y-46760000D02*
X111460000Y-47865100D01*
X131600000Y-131000000D02*
X132768700Y-131000000D01*
X146140000Y-67000000D02*
X147245100Y-67000000D01*
X132768700Y-130706100D02*
X132768700Y-131000000D01*
X137876000Y-125598800D02*
X132768700Y-130706100D01*
X139110000Y-125598800D02*
X137876000Y-125598800D01*
X144450700Y-120258100D02*
X139110000Y-125598800D01*
X144450700Y-119682900D02*
X144450700Y-120258100D01*
X148948900Y-115184700D02*
X144450700Y-119682900D01*
X148948900Y-108264200D02*
X148948900Y-115184700D01*
X144994300Y-104309600D02*
X148948900Y-108264200D01*
X144994300Y-103812400D02*
X144994300Y-104309600D01*
X144994300Y-97234400D02*
X144994300Y-103812400D01*
X146359700Y-95869000D02*
X144994300Y-97234400D01*
X146773100Y-95869000D02*
X146359700Y-95869000D01*
X147665100Y-94977000D02*
X146773100Y-95869000D01*
X147665100Y-90492300D02*
X147665100Y-94977000D01*
X142469400Y-85296600D02*
X147665100Y-90492300D01*
X142469400Y-78977200D02*
X142469400Y-85296600D01*
X149788000Y-71658600D02*
X142469400Y-78977200D01*
X149788000Y-66488500D02*
X149788000Y-71658600D01*
X149137500Y-65838000D02*
X149788000Y-66488500D01*
X148178100Y-65838000D02*
X149137500Y-65838000D01*
X147245100Y-66771000D02*
X148178100Y-65838000D01*
X147245100Y-67000000D02*
X147245100Y-66771000D01*
X112888000Y-48977100D02*
X114000000Y-47865100D01*
X112888000Y-64862900D02*
X112888000Y-48977100D01*
X113920000Y-65894900D02*
X112888000Y-64862900D01*
X113920000Y-67000000D02*
X113920000Y-65894900D01*
X114000000Y-46760000D02*
X114000000Y-47865100D01*
X113920000Y-77572300D02*
X113920000Y-67000000D01*
X110233700Y-81258600D02*
X113920000Y-77572300D01*
X110233700Y-82671100D02*
X110233700Y-81258600D01*
X113312000Y-85749400D02*
X110233700Y-82671100D01*
X115526100Y-85749400D02*
X113312000Y-85749400D01*
X116953400Y-87176700D02*
X115526100Y-85749400D01*
X116953400Y-91446300D02*
X116953400Y-87176700D01*
X114974000Y-93425700D02*
X116953400Y-91446300D01*
X114974000Y-94533300D02*
X114974000Y-93425700D01*
X117943900Y-97503200D02*
X114974000Y-94533300D01*
X121214300Y-97503200D02*
X117943900Y-97503200D01*
X123858800Y-100147700D02*
X121214300Y-97503200D01*
X123858800Y-107976100D02*
X123858800Y-100147700D01*
X123700000Y-108134900D02*
X123858800Y-107976100D01*
X123700000Y-109240000D02*
X123700000Y-108134900D01*
X126240000Y-109240000D02*
X126240000Y-108134900D01*
X116540000Y-46760000D02*
X116540000Y-47865100D01*
X115412100Y-48993000D02*
X116540000Y-47865100D01*
X115412100Y-64847000D02*
X115412100Y-48993000D01*
X116460000Y-65894900D02*
X115412100Y-64847000D01*
X116460000Y-67000000D02*
X116460000Y-65894900D01*
X116460000Y-67000000D02*
X116460000Y-68105100D01*
X126239900Y-108134900D02*
X126240000Y-108134900D01*
X126239900Y-101953700D02*
X126239900Y-108134900D01*
X119408600Y-95122400D02*
X126239900Y-101953700D01*
X118172100Y-95122400D02*
X119408600Y-95122400D01*
X117488000Y-94438300D02*
X118172100Y-95122400D01*
X117488000Y-92637300D02*
X117488000Y-94438300D01*
X117766800Y-92358500D02*
X117488000Y-92637300D01*
X117766800Y-86839800D02*
X117766800Y-92358500D01*
X115345000Y-84418000D02*
X117766800Y-86839800D01*
X115345000Y-69220100D02*
X115345000Y-84418000D01*
X116460000Y-68105100D02*
X115345000Y-69220100D01*
X119080000Y-46760000D02*
X119080000Y-47865100D01*
X117969300Y-48975800D02*
X119080000Y-47865100D01*
X117969300Y-64864200D02*
X117969300Y-48975800D01*
X119000000Y-65894900D02*
X117969300Y-64864200D01*
X119000000Y-67000000D02*
X119000000Y-65894900D01*
X119000000Y-80559600D02*
X119000000Y-67000000D01*
X117879600Y-81680000D02*
X119000000Y-80559600D01*
X117879600Y-84733500D02*
X117879600Y-81680000D01*
X118574800Y-85428700D02*
X117879600Y-84733500D01*
X118574800Y-91779000D02*
X118574800Y-85428700D01*
X120033900Y-93238100D02*
X118574800Y-91779000D01*
X120033900Y-95008100D02*
X120033900Y-93238100D01*
X128780000Y-103754200D02*
X120033900Y-95008100D01*
X128780000Y-109240000D02*
X128780000Y-103754200D01*
X120498700Y-48986400D02*
X121620000Y-47865100D01*
X120498700Y-64853600D02*
X120498700Y-48986400D01*
X121540000Y-65894900D02*
X120498700Y-64853600D01*
X121620000Y-46760000D02*
X121620000Y-47865100D01*
X121540000Y-67000000D02*
X121540000Y-65894900D01*
X123933700Y-127245000D02*
X126520000Y-129831300D01*
X123933700Y-126350400D02*
X123933700Y-127245000D01*
X127350000Y-122934100D02*
X123933700Y-126350400D01*
X127350000Y-120144200D02*
X127350000Y-122934100D01*
X128279600Y-119214600D02*
X127350000Y-120144200D01*
X126520000Y-131000000D02*
X126520000Y-129831300D01*
X131320000Y-109240000D02*
X131320000Y-108134900D01*
X121540000Y-80559600D02*
X121540000Y-67000000D01*
X120429000Y-81670600D02*
X121540000Y-80559600D01*
X120429000Y-84857200D02*
X120429000Y-81670600D01*
X121114800Y-85543000D02*
X120429000Y-84857200D01*
X121114800Y-90324300D02*
X121114800Y-85543000D01*
X122326300Y-91535800D02*
X121114800Y-90324300D01*
X122326300Y-94903600D02*
X122326300Y-91535800D01*
X131443600Y-104020900D02*
X122326300Y-94903600D01*
X131443600Y-108011300D02*
X131443600Y-104020900D01*
X131320000Y-108134900D02*
X131443600Y-108011300D01*
X125351300Y-133903200D02*
X125351300Y-133540000D01*
X124533800Y-134720700D02*
X125351300Y-133903200D01*
X120930800Y-134720700D02*
X124533800Y-134720700D01*
X120218500Y-134008400D02*
X120930800Y-134720700D01*
X120218500Y-125691600D02*
X120218500Y-134008400D01*
X122184900Y-123725200D02*
X120218500Y-125691600D01*
X122184900Y-122404600D02*
X122184900Y-123725200D01*
X123461100Y-121128400D02*
X122184900Y-122404600D01*
X124063400Y-121128400D02*
X123461100Y-121128400D01*
X129842100Y-115349700D02*
X124063400Y-121128400D01*
X129842100Y-114363000D02*
X129842100Y-115349700D01*
X133860000Y-110345100D02*
X129842100Y-114363000D01*
X126520000Y-133540000D02*
X125351300Y-133540000D01*
X133860000Y-109792500D02*
X133860000Y-110345100D01*
X133860000Y-109792500D02*
X133860000Y-109240000D01*
X133860000Y-104725900D02*
X133860000Y-109240000D01*
X124970000Y-95835900D02*
X133860000Y-104725900D01*
X124970000Y-91331500D02*
X124970000Y-95835900D01*
X123632100Y-89993600D02*
X124970000Y-91331500D01*
X123632100Y-85767000D02*
X123632100Y-89993600D01*
X122966100Y-85101000D02*
X123632100Y-85767000D01*
X122966100Y-79085000D02*
X122966100Y-85101000D01*
X124080000Y-77971100D02*
X122966100Y-79085000D01*
X124080000Y-67000000D02*
X124080000Y-77971100D01*
X126620000Y-80559600D02*
X126620000Y-67000000D01*
X125501500Y-81678100D02*
X126620000Y-80559600D01*
X125501500Y-83755300D02*
X125501500Y-81678100D01*
X126121700Y-84375500D02*
X125501500Y-83755300D01*
X126121700Y-89943200D02*
X126121700Y-84375500D01*
X127510000Y-91331500D02*
X126121700Y-89943200D01*
X127510000Y-97163300D02*
X127510000Y-91331500D01*
X136400000Y-106053300D02*
X127510000Y-97163300D01*
X136400000Y-109240000D02*
X136400000Y-106053300D01*
X129160000Y-80559600D02*
X129160000Y-67000000D01*
X128039000Y-81680600D02*
X129160000Y-80559600D01*
X128039000Y-82699200D02*
X128039000Y-81680600D01*
X130327900Y-84988100D02*
X128039000Y-82699200D01*
X130996900Y-84988100D02*
X130327900Y-84988100D01*
X133492900Y-87484100D02*
X130996900Y-84988100D01*
X133492900Y-91991900D02*
X133492900Y-87484100D01*
X132739800Y-92745000D02*
X133492900Y-91991900D01*
X132739800Y-98867700D02*
X132739800Y-92745000D01*
X138940000Y-105067900D02*
X132739800Y-98867700D01*
X138940000Y-109240000D02*
X138940000Y-105067900D01*
X126620000Y-82240000D02*
X126620000Y-81134900D01*
X126700000Y-62000000D02*
X126700000Y-63105100D01*
X135103800Y-118465000D02*
X135629900Y-118991100D01*
X127969100Y-118465000D02*
X135103800Y-118465000D01*
X124810000Y-121624100D02*
X127969100Y-118465000D01*
X124810000Y-122979300D02*
X124810000Y-121624100D01*
X121440000Y-126349300D02*
X124810000Y-122979300D01*
X121440000Y-131000000D02*
X121440000Y-126349300D01*
X127729800Y-80025100D02*
X126620000Y-81134900D01*
X127729800Y-64134900D02*
X127729800Y-80025100D01*
X126700000Y-63105100D02*
X127729800Y-64134900D01*
X141480000Y-109240000D02*
X140374900Y-109240000D01*
X126620000Y-82240000D02*
X126620000Y-83345100D01*
X126849000Y-83345100D02*
X126620000Y-83345100D01*
X130948000Y-87444100D02*
X126849000Y-83345100D01*
X130948000Y-92081900D02*
X130948000Y-87444100D01*
X130196000Y-92833900D02*
X130948000Y-92081900D01*
X130196000Y-98229800D02*
X130196000Y-92833900D01*
X137670000Y-105703800D02*
X130196000Y-98229800D01*
X137670000Y-109584400D02*
X137670000Y-105703800D01*
X138452000Y-110366400D02*
X137670000Y-109584400D01*
X139386600Y-110366400D02*
X138452000Y-110366400D01*
X140374900Y-109378100D02*
X139386600Y-110366400D01*
X140374900Y-109240000D02*
X140374900Y-109378100D01*
X121440000Y-133540000D02*
X122608700Y-133540000D01*
X124080000Y-82240000D02*
X124080000Y-81134900D01*
X124160000Y-62000000D02*
X124160000Y-63105100D01*
X144020000Y-109240000D02*
X144020000Y-108404100D01*
X122608700Y-133176800D02*
X122608700Y-133540000D01*
X123515500Y-132270000D02*
X122608700Y-133176800D01*
X126921000Y-132270000D02*
X123515500Y-132270000D01*
X127787200Y-131403800D02*
X126921000Y-132270000D01*
X127787200Y-130128700D02*
X127787200Y-131403800D01*
X134970000Y-122945900D02*
X127787200Y-130128700D01*
X134970000Y-122298800D02*
X134970000Y-122945900D01*
X136071400Y-121197400D02*
X134970000Y-122298800D01*
X140393200Y-121197400D02*
X136071400Y-121197400D01*
X145173200Y-116417400D02*
X140393200Y-121197400D01*
X145173200Y-112930400D02*
X145173200Y-116417400D01*
X148121600Y-109982000D02*
X145173200Y-112930400D01*
X148121600Y-108641000D02*
X148121600Y-109982000D01*
X147171800Y-107691200D02*
X148121600Y-108641000D01*
X144020000Y-107691200D02*
X147171800Y-107691200D01*
X144020000Y-108404100D02*
X144020000Y-107691200D01*
X130298300Y-83464400D02*
X130298300Y-83464300D01*
X131984000Y-83464400D02*
X130298300Y-83464400D01*
X136190000Y-87670400D02*
X131984000Y-83464400D01*
X136190000Y-89851500D02*
X136190000Y-87670400D01*
X137670000Y-91331500D02*
X136190000Y-89851500D01*
X137670000Y-101341200D02*
X137670000Y-91331500D01*
X144020000Y-107691200D02*
X137670000Y-101341200D01*
X125193200Y-80021700D02*
X124080000Y-81134900D01*
X125193200Y-64138300D02*
X125193200Y-80021700D01*
X124160000Y-63105100D02*
X125193200Y-64138300D01*
X116460000Y-82240000D02*
X116460000Y-81134900D01*
X146560000Y-109240000D02*
X146560000Y-110345100D01*
X140872200Y-116032900D02*
X146560000Y-110345100D01*
X140872200Y-117970800D02*
X140872200Y-116032900D01*
X139964000Y-118879000D02*
X140872200Y-117970800D01*
X137717400Y-118879000D02*
X139964000Y-118879000D01*
X136704000Y-119892400D02*
X137717400Y-118879000D01*
X132222700Y-119892400D02*
X136704000Y-119892400D01*
X129890000Y-122225100D02*
X132222700Y-119892400D01*
X129890000Y-122975200D02*
X129890000Y-122225100D01*
X126110200Y-126755000D02*
X129890000Y-122975200D01*
X124687100Y-126755000D02*
X126110200Y-126755000D01*
X117570700Y-80024200D02*
X116460000Y-81134900D01*
X117570700Y-66430300D02*
X117570700Y-80024200D01*
X116540000Y-65399600D02*
X117570700Y-66430300D01*
X116540000Y-62000000D02*
X116540000Y-65399600D01*
X144870000Y-83213600D02*
X144870000Y-78150800D01*
X148478500Y-86822100D02*
X144870000Y-83213600D01*
X148478500Y-106458100D02*
X148478500Y-86822100D01*
X121540000Y-82240000D02*
X121540000Y-81134900D01*
X121620000Y-62000000D02*
X121620000Y-63105100D01*
X146560000Y-90357200D02*
X138530300Y-82327500D01*
X146560000Y-94000000D02*
X146560000Y-90357200D01*
X122072900Y-80602000D02*
X121540000Y-81134900D01*
X122072900Y-79115500D02*
X122072900Y-80602000D01*
X122661100Y-78527300D02*
X122072900Y-79115500D01*
X122661100Y-64146200D02*
X122661100Y-78527300D01*
X121620000Y-63105100D02*
X122661100Y-64146200D01*
X131700000Y-67000000D02*
X132805100Y-67000000D01*
X132805100Y-66380200D02*
X132805100Y-67000000D01*
X133345200Y-65840100D02*
X132805100Y-66380200D01*
X133050000Y-49135100D02*
X131780000Y-47865100D01*
X133050000Y-65544900D02*
X133050000Y-49135100D01*
X133345200Y-65840100D02*
X133050000Y-65544900D01*
X131780000Y-46760000D02*
X131780000Y-47865100D01*
X144020000Y-94000000D02*
X144020000Y-92894900D01*
X144020000Y-89877700D02*
X144020000Y-92894900D01*
X137760700Y-83618400D02*
X144020000Y-89877700D01*
X136535700Y-83618400D02*
X137760700Y-83618400D01*
X135847400Y-82930100D02*
X136535700Y-83618400D01*
X135847400Y-66539400D02*
X135847400Y-82930100D01*
X135148100Y-65840100D02*
X135847400Y-66539400D01*
X133345200Y-65840100D02*
X135148100Y-65840100D01*
X130050000Y-105751600D02*
X130694000Y-105107600D01*
X130050000Y-109589300D02*
X130050000Y-105751600D01*
X127185200Y-112454100D02*
X130050000Y-109589300D01*
X127185200Y-115483600D02*
X127185200Y-112454100D01*
X126398800Y-116270000D02*
X127185200Y-115483600D01*
X125765400Y-116270000D02*
X126398800Y-116270000D01*
X116360000Y-125675400D02*
X125765400Y-116270000D01*
X116360000Y-131000000D02*
X116360000Y-125675400D01*
X116360000Y-133540000D02*
X117528700Y-133540000D01*
X130271700Y-64136800D02*
X129240000Y-63105100D01*
X130271700Y-80023200D02*
X130271700Y-64136800D01*
X129160000Y-81134900D02*
X130271700Y-80023200D01*
X129160000Y-82240000D02*
X129160000Y-81134900D01*
X129240000Y-62000000D02*
X129240000Y-63105100D01*
X141480000Y-94552500D02*
X141480000Y-95105100D01*
X141480000Y-94552500D02*
X141480000Y-94000000D01*
X137935200Y-84368000D02*
X137444900Y-84368000D01*
X141480000Y-87912800D02*
X137935200Y-84368000D01*
X141480000Y-94000000D02*
X141480000Y-87912800D01*
X117528700Y-133832200D02*
X117528700Y-133540000D01*
X118824300Y-135127800D02*
X117528700Y-133832200D01*
X126587100Y-135127800D02*
X118824300Y-135127800D01*
X127790000Y-133924900D02*
X126587100Y-135127800D01*
X127790000Y-133117300D02*
X127790000Y-133924900D01*
X128536100Y-132371200D02*
X127790000Y-133117300D01*
X129450500Y-132371200D02*
X128536100Y-132371200D01*
X130330000Y-131491700D02*
X129450500Y-132371200D01*
X130330000Y-130612100D02*
X130330000Y-131491700D01*
X135893900Y-125048200D02*
X130330000Y-130612100D01*
X139085400Y-125048200D02*
X135893900Y-125048200D01*
X144044000Y-120089600D02*
X139085400Y-125048200D01*
X144044000Y-119514400D02*
X144044000Y-120089600D01*
X145960100Y-117598300D02*
X144044000Y-119514400D01*
X145960100Y-113314300D02*
X145960100Y-117598300D01*
X148542100Y-110732300D02*
X145960100Y-113314300D01*
X148542100Y-108432700D02*
X148542100Y-110732300D01*
X141480000Y-101370600D02*
X148542100Y-108432700D01*
X141480000Y-95105100D02*
X141480000Y-101370600D01*
X138940000Y-94000000D02*
X138940000Y-92894900D01*
X134240000Y-67000000D02*
X134240000Y-68105100D01*
X138589700Y-92544600D02*
X138940000Y-92894900D01*
X138589700Y-86706600D02*
X138589700Y-92544600D01*
X135345100Y-83462000D02*
X138589700Y-86706600D01*
X135345100Y-69210200D02*
X135345100Y-83462000D01*
X134240000Y-68105100D02*
X135345100Y-69210200D01*
X113820000Y-124487100D02*
X113820000Y-131000000D01*
X115894800Y-122412300D02*
X113820000Y-124487100D01*
X115894800Y-117607500D02*
X115894800Y-122412300D01*
X119890000Y-113612300D02*
X115894800Y-117607500D01*
X119890000Y-105400300D02*
X119890000Y-113612300D01*
X120906700Y-104383600D02*
X119890000Y-105400300D01*
X114112300Y-132371300D02*
X113820000Y-132371300D01*
X114988700Y-131494900D02*
X114112300Y-132371300D01*
X114988700Y-126091300D02*
X114988700Y-131494900D01*
X126080000Y-115000000D02*
X114988700Y-126091300D01*
X113820000Y-133540000D02*
X113820000Y-132371300D01*
X126080000Y-115000000D02*
X126080000Y-113894900D01*
X123054700Y-99922200D02*
X123054700Y-100804600D01*
X121468900Y-98336400D02*
X123054700Y-99922200D01*
X116285200Y-98336400D02*
X121468900Y-98336400D01*
X112406300Y-94457500D02*
X116285200Y-98336400D01*
X112406300Y-93147900D02*
X112406300Y-94457500D01*
X116138800Y-89415400D02*
X112406300Y-93147900D01*
X116138800Y-87538300D02*
X116138800Y-89415400D01*
X115474700Y-86874200D02*
X116138800Y-87538300D01*
X114090400Y-86874200D02*
X115474700Y-86874200D01*
X113538500Y-87426100D02*
X114090400Y-86874200D01*
X122586200Y-110401100D02*
X126080000Y-113894900D01*
X122586200Y-101273100D02*
X122586200Y-110401100D01*
X123054700Y-100804600D02*
X122586200Y-101273100D01*
D30*
X174244000Y-122271000D02*
X174244000Y-129598900D01*
X183515000Y-113000000D02*
X174244000Y-122271000D01*
D31*
X109565100Y-93434900D02*
X115000000Y-88000000D01*
X109565100Y-94000000D02*
X109565100Y-93434900D01*
X108460000Y-94000000D02*
X109565100Y-94000000D01*
X136240000Y-115000000D02*
X137345100Y-115000000D01*
X144000000Y-113528400D02*
X144000000Y-114840000D01*
X147714900Y-109813500D02*
X144000000Y-113528400D01*
X147714900Y-108809500D02*
X147714900Y-109813500D01*
X147040300Y-108134900D02*
X147714900Y-108809500D01*
X146079900Y-108134900D02*
X147040300Y-108134900D01*
X145290000Y-108924800D02*
X146079900Y-108134900D01*
X145290000Y-109583400D02*
X145290000Y-108924800D01*
X139873400Y-115000000D02*
X145290000Y-109583400D01*
X137345100Y-115000000D02*
X139873400Y-115000000D01*
X100840000Y-94000000D02*
X100840000Y-95105100D01*
X105920000Y-115000000D02*
X105920000Y-113894900D01*
X104751700Y-112726600D02*
X105920000Y-113894900D01*
X104751700Y-99016800D02*
X104751700Y-112726600D01*
X100840000Y-95105100D02*
X104751700Y-99016800D01*
X108928100Y-113894900D02*
X105920000Y-113894900D01*
X109894900Y-114861700D02*
X108928100Y-113894900D01*
X109894900Y-115000000D02*
X109894900Y-114861700D01*
X111000000Y-115000000D02*
X109894900Y-115000000D01*
X99405100Y-117540000D02*
X103380000Y-121514900D01*
X99405100Y-96210200D02*
X99405100Y-117540000D01*
X98300000Y-95105100D02*
X99405100Y-96210200D01*
X98300000Y-94000000D02*
X98300000Y-95105100D01*
X103380000Y-122620000D02*
X103380000Y-121514900D01*
X98300000Y-109240000D02*
X98300000Y-110345100D01*
X100840000Y-122620000D02*
X100840000Y-121514900D01*
X98300000Y-113323600D02*
X98300000Y-110345100D01*
X97194200Y-114429400D02*
X98300000Y-113323600D01*
X97194200Y-117869100D02*
X97194200Y-114429400D01*
X100840000Y-121514900D02*
X97194200Y-117869100D01*
X104485100Y-115229000D02*
X104485100Y-115000000D01*
X110771000Y-121514900D02*
X104485100Y-115229000D01*
X111000000Y-121514900D02*
X110771000Y-121514900D01*
X111000000Y-122620000D02*
X111000000Y-121514900D01*
X103380000Y-115000000D02*
X104485100Y-115000000D01*
X100840000Y-111354900D02*
X103380000Y-113894900D01*
X100840000Y-109240000D02*
X100840000Y-111354900D01*
X103380000Y-115000000D02*
X103380000Y-113894900D01*
X148071800Y-95284100D02*
X145759700Y-97596200D01*
X148071800Y-87816900D02*
X148071800Y-95284100D01*
X143600000Y-83345100D02*
X148071800Y-87816900D01*
X143600000Y-82240000D02*
X143600000Y-83345100D01*
X146140000Y-82240000D02*
X146140000Y-83345100D01*
X121000000Y-122620000D02*
X121000000Y-123725100D01*
X117630000Y-127095100D02*
X121000000Y-123725100D01*
X117630000Y-131422700D02*
X117630000Y-127095100D01*
X116883900Y-132168800D02*
X117630000Y-131422700D01*
X116038500Y-132168800D02*
X116883900Y-132168800D01*
X115191200Y-133016100D02*
X116038500Y-132168800D01*
X115191200Y-134081200D02*
X115191200Y-133016100D01*
X116646300Y-135536300D02*
X115191200Y-134081200D01*
X131307900Y-135536300D02*
X116646300Y-135536300D01*
X132870000Y-133974200D02*
X131307900Y-135536300D01*
X132870000Y-133117300D02*
X132870000Y-133974200D01*
X133616100Y-132371200D02*
X132870000Y-133117300D01*
X134507300Y-132371200D02*
X133616100Y-132371200D01*
X135403000Y-131475500D02*
X134507300Y-132371200D01*
X135403000Y-130346400D02*
X135403000Y-131475500D01*
X145001300Y-120748100D02*
X135403000Y-130346400D01*
X145001300Y-119923100D02*
X145001300Y-120748100D01*
X149359500Y-115564900D02*
X145001300Y-119923100D01*
X149359500Y-86564600D02*
X149359500Y-115564900D01*
X146140000Y-83345100D02*
X149359500Y-86564600D01*
D32*
G36*
X187198000Y-43306183D02*
X187198000Y-140843000D01*
X89027000Y-140843000D01*
X89027000Y-137582619D01*
X91104613Y-137582619D01*
X91444155Y-138404372D01*
X92072321Y-139033636D01*
X92893481Y-139374611D01*
X93782619Y-139375387D01*
X94604372Y-139035845D01*
X95233636Y-138407679D01*
X95574611Y-137586519D01*
X95575387Y-136697381D01*
X95235845Y-135875628D01*
X94607679Y-135246364D01*
X93786519Y-134905389D01*
X92897381Y-134904613D01*
X92075628Y-135244155D01*
X91446364Y-135872321D01*
X91105389Y-136693481D01*
X91104613Y-137582619D01*
X89027000Y-137582619D01*
X89027000Y-114429400D01*
X96457600Y-114429400D01*
X96457600Y-117869100D01*
X96513670Y-118150985D01*
X96673345Y-118389955D01*
X99846449Y-121563059D01*
X99825302Y-121577189D01*
X99595405Y-121921254D01*
X99536807Y-121909598D01*
X99314698Y-121577189D01*
X98849151Y-121266120D01*
X98300000Y-121156887D01*
X97750849Y-121266120D01*
X97285302Y-121577189D01*
X96974233Y-122042736D01*
X96865000Y-122591887D01*
X96865000Y-122648113D01*
X96974233Y-123197264D01*
X97285302Y-123662811D01*
X97750849Y-123973880D01*
X98300000Y-124083113D01*
X98849151Y-123973880D01*
X99286765Y-123681475D01*
X113317145Y-137711855D01*
X113556115Y-137871530D01*
X113838000Y-137927600D01*
X139803000Y-137927600D01*
X140084885Y-137871530D01*
X140323855Y-137711855D01*
X142151620Y-135884090D01*
X171858940Y-135884090D01*
X171858940Y-137474709D01*
X171955613Y-137708098D01*
X172134241Y-137886727D01*
X172367630Y-137983400D01*
X173958250Y-137983400D01*
X174117000Y-137824650D01*
X174117000Y-135725340D01*
X174371000Y-135725340D01*
X174371000Y-137824650D01*
X174529750Y-137983400D01*
X176120370Y-137983400D01*
X176353759Y-137886727D01*
X176532387Y-137708098D01*
X176613357Y-137512619D01*
X180734613Y-137512619D01*
X181074155Y-138334372D01*
X181702321Y-138963636D01*
X182523481Y-139304611D01*
X183412619Y-139305387D01*
X184234372Y-138965845D01*
X184863636Y-138337679D01*
X185204611Y-137516519D01*
X185205387Y-136627381D01*
X184865845Y-135805628D01*
X184237679Y-135176364D01*
X183416519Y-134835389D01*
X182527381Y-134834613D01*
X181705628Y-135174155D01*
X181076364Y-135802321D01*
X180735389Y-136623481D01*
X180734613Y-137512619D01*
X176613357Y-137512619D01*
X176629060Y-137474709D01*
X176629060Y-135884090D01*
X176470310Y-135725340D01*
X174371000Y-135725340D01*
X174117000Y-135725340D01*
X172017690Y-135725340D01*
X171858940Y-135884090D01*
X142151620Y-135884090D01*
X143340050Y-134695660D01*
X143726511Y-134953885D01*
X144300000Y-135067959D01*
X144873489Y-134953885D01*
X145359670Y-134629029D01*
X145570000Y-134314248D01*
X145780330Y-134629029D01*
X146266511Y-134953885D01*
X146840000Y-135067959D01*
X147413489Y-134953885D01*
X147899670Y-134629029D01*
X148110000Y-134314248D01*
X148320330Y-134629029D01*
X148806511Y-134953885D01*
X149380000Y-135067959D01*
X149953489Y-134953885D01*
X150439670Y-134629029D01*
X150650000Y-134314248D01*
X150860330Y-134629029D01*
X151346511Y-134953885D01*
X151920000Y-135067959D01*
X152493489Y-134953885D01*
X152979670Y-134629029D01*
X153190000Y-134314248D01*
X153400330Y-134629029D01*
X153886511Y-134953885D01*
X154460000Y-135067959D01*
X155033489Y-134953885D01*
X155519670Y-134629029D01*
X155730000Y-134314248D01*
X155940330Y-134629029D01*
X156426511Y-134953885D01*
X157000000Y-135067959D01*
X157573489Y-134953885D01*
X158059670Y-134629029D01*
X158275664Y-134305772D01*
X158333179Y-134428490D01*
X158765053Y-134822688D01*
X159180974Y-134994958D01*
X159413000Y-134873817D01*
X159413000Y-133667000D01*
X159667000Y-133667000D01*
X159667000Y-134873817D01*
X159899026Y-134994958D01*
X160314947Y-134822688D01*
X160746821Y-134428490D01*
X160810000Y-134293687D01*
X160873179Y-134428490D01*
X161305053Y-134822688D01*
X161720974Y-134994958D01*
X161953000Y-134873817D01*
X161953000Y-133667000D01*
X162207000Y-133667000D01*
X162207000Y-134873817D01*
X162439026Y-134994958D01*
X162854947Y-134822688D01*
X163286821Y-134428490D01*
X163534968Y-133899027D01*
X163443018Y-133721971D01*
X171858940Y-133721971D01*
X171858940Y-135312590D01*
X172017690Y-135471340D01*
X174117000Y-135471340D01*
X174117000Y-133372030D01*
X173958250Y-133213280D01*
X172367630Y-133213280D01*
X172134241Y-133309953D01*
X171955613Y-133488582D01*
X171858940Y-133721971D01*
X163443018Y-133721971D01*
X163414469Y-133667000D01*
X162207000Y-133667000D01*
X161953000Y-133667000D01*
X159667000Y-133667000D01*
X159413000Y-133667000D01*
X159393000Y-133667000D01*
X159393000Y-133413000D01*
X159413000Y-133413000D01*
X159413000Y-133393000D01*
X159667000Y-133393000D01*
X159667000Y-133413000D01*
X161953000Y-133413000D01*
X161953000Y-133393000D01*
X162207000Y-133393000D01*
X162207000Y-133413000D01*
X163414469Y-133413000D01*
X163534968Y-133180973D01*
X163286821Y-132651510D01*
X163100567Y-132481505D01*
X163178917Y-132466762D01*
X163395041Y-132327690D01*
X163540031Y-132115490D01*
X163591040Y-131863600D01*
X163591040Y-130136400D01*
X163546762Y-129901083D01*
X163407690Y-129684959D01*
X163195490Y-129539969D01*
X162943600Y-129488960D01*
X161216400Y-129488960D01*
X160981083Y-129533238D01*
X160764959Y-129672310D01*
X160619969Y-129884510D01*
X160611136Y-129928131D01*
X160599670Y-129910971D01*
X160250828Y-129677882D01*
X162642960Y-127285750D01*
X164465000Y-127285750D01*
X164465000Y-128026309D01*
X164561673Y-128259698D01*
X164740301Y-128438327D01*
X164973690Y-128535000D01*
X165714250Y-128535000D01*
X165873000Y-128376250D01*
X165873000Y-127127000D01*
X166127000Y-127127000D01*
X166127000Y-128376250D01*
X166285750Y-128535000D01*
X167026310Y-128535000D01*
X167259699Y-128438327D01*
X167438327Y-128259698D01*
X167535000Y-128026309D01*
X167535000Y-127598860D01*
X171596560Y-127598860D01*
X171596560Y-131598860D01*
X171640838Y-131834177D01*
X171779910Y-132050301D01*
X171992110Y-132195291D01*
X172244000Y-132246300D01*
X176244000Y-132246300D01*
X176479317Y-132202022D01*
X176545500Y-132159434D01*
X176545500Y-133520240D01*
X176532387Y-133488582D01*
X176353759Y-133309953D01*
X176120370Y-133213280D01*
X174529750Y-133213280D01*
X174371000Y-133372030D01*
X174371000Y-135471340D01*
X176470310Y-135471340D01*
X176629060Y-135312590D01*
X176629060Y-134645023D01*
X176728850Y-134800101D01*
X176941050Y-134945091D01*
X177192940Y-134996100D01*
X180693060Y-134996100D01*
X180928377Y-134951822D01*
X181144501Y-134812750D01*
X181289491Y-134600550D01*
X181340500Y-134348660D01*
X181340500Y-130848540D01*
X181296222Y-130613223D01*
X181157150Y-130397099D01*
X180944950Y-130252109D01*
X180693060Y-130201100D01*
X177192940Y-130201100D01*
X176957623Y-130245378D01*
X176891440Y-130287966D01*
X176891440Y-127598860D01*
X176847162Y-127363543D01*
X176708090Y-127147419D01*
X176495890Y-127002429D01*
X176244000Y-126951420D01*
X175183800Y-126951420D01*
X175183800Y-122660278D01*
X177052560Y-120791518D01*
X177052560Y-121800000D01*
X177096838Y-122035317D01*
X177235910Y-122251441D01*
X177448110Y-122396431D01*
X177700000Y-122447440D01*
X179300000Y-122447440D01*
X179535317Y-122403162D01*
X179751441Y-122264090D01*
X179896431Y-122051890D01*
X179905370Y-122007745D01*
X180171861Y-122007745D01*
X180245995Y-122253864D01*
X180783223Y-122446965D01*
X181353454Y-122419778D01*
X181754005Y-122253864D01*
X181828139Y-122007745D01*
X181000000Y-121179605D01*
X180171861Y-122007745D01*
X179905370Y-122007745D01*
X179944646Y-121813799D01*
X179992255Y-121828139D01*
X180820395Y-121000000D01*
X181179605Y-121000000D01*
X182007745Y-121828139D01*
X182253864Y-121754005D01*
X182446965Y-121216777D01*
X182419778Y-120646546D01*
X182253864Y-120245995D01*
X182007745Y-120171861D01*
X181179605Y-121000000D01*
X180820395Y-121000000D01*
X179992255Y-120171861D01*
X179944833Y-120186145D01*
X179908351Y-119992255D01*
X180171861Y-119992255D01*
X181000000Y-120820395D01*
X181828139Y-119992255D01*
X181754005Y-119746136D01*
X181216777Y-119553035D01*
X180646546Y-119580222D01*
X180245995Y-119746136D01*
X180171861Y-119992255D01*
X179908351Y-119992255D01*
X179903162Y-119964683D01*
X179764090Y-119748559D01*
X179551890Y-119603569D01*
X179300000Y-119552560D01*
X178291518Y-119552560D01*
X183259301Y-114584777D01*
X183828893Y-114585275D01*
X184411657Y-114344481D01*
X184857914Y-113899003D01*
X185099724Y-113316659D01*
X185100275Y-112686107D01*
X184859481Y-112103343D01*
X184414003Y-111657086D01*
X183831659Y-111415276D01*
X183201107Y-111414725D01*
X182618343Y-111655519D01*
X182264774Y-112008471D01*
X181914003Y-111657086D01*
X181331659Y-111415276D01*
X180701107Y-111414725D01*
X180118343Y-111655519D01*
X180025428Y-111748272D01*
X179929090Y-111598559D01*
X179716890Y-111453569D01*
X179465000Y-111402560D01*
X177565000Y-111402560D01*
X177329683Y-111446838D01*
X177113559Y-111585910D01*
X176968569Y-111798110D01*
X176917560Y-112050000D01*
X176917560Y-113950000D01*
X176961838Y-114185317D01*
X177100910Y-114401441D01*
X177313110Y-114546431D01*
X177565000Y-114597440D01*
X179465000Y-114597440D01*
X179700317Y-114553162D01*
X179916441Y-114414090D01*
X180026400Y-114253160D01*
X180115997Y-114342914D01*
X180629700Y-114556222D01*
X173579461Y-121606461D01*
X173375738Y-121911354D01*
X173304200Y-122271000D01*
X173304200Y-126951420D01*
X172244000Y-126951420D01*
X172008683Y-126995698D01*
X171792559Y-127134770D01*
X171647569Y-127346970D01*
X171596560Y-127598860D01*
X167535000Y-127598860D01*
X167535000Y-127285750D01*
X167376250Y-127127000D01*
X166127000Y-127127000D01*
X165873000Y-127127000D01*
X164623750Y-127127000D01*
X164465000Y-127285750D01*
X162642960Y-127285750D01*
X163397310Y-126531400D01*
X164465000Y-126531400D01*
X164465000Y-126714250D01*
X164623750Y-126873000D01*
X165873000Y-126873000D01*
X165873000Y-126853000D01*
X166127000Y-126853000D01*
X166127000Y-126873000D01*
X167376250Y-126873000D01*
X167535000Y-126714250D01*
X167535000Y-125973691D01*
X167453435Y-125776775D01*
X169176855Y-124053355D01*
X169336530Y-123814385D01*
X169392600Y-123532500D01*
X169392600Y-121408315D01*
X169467800Y-121377243D01*
X169871824Y-120973923D01*
X170090750Y-120446691D01*
X170091248Y-119875813D01*
X169873243Y-119348200D01*
X169469923Y-118944176D01*
X168942691Y-118725250D01*
X168371813Y-118724752D01*
X168294434Y-118756724D01*
X167841700Y-118303990D01*
X167841700Y-114842106D01*
X167991461Y-115066239D01*
X171155066Y-118229844D01*
X171114559Y-118255910D01*
X170969569Y-118468110D01*
X170918560Y-118720000D01*
X170918560Y-120520000D01*
X170962838Y-120755317D01*
X171101910Y-120971441D01*
X171314110Y-121116431D01*
X171566000Y-121167440D01*
X173366000Y-121167440D01*
X173601317Y-121123162D01*
X173817441Y-120984090D01*
X173962431Y-120771890D01*
X174013440Y-120520000D01*
X174013440Y-118720000D01*
X173969162Y-118484683D01*
X173830090Y-118268559D01*
X173617890Y-118123569D01*
X173378632Y-118075118D01*
X173334262Y-117852054D01*
X173130539Y-117547161D01*
X169595800Y-114012422D01*
X169595800Y-111092856D01*
X169670698Y-111042811D01*
X169981767Y-110577264D01*
X170091000Y-110028113D01*
X170091000Y-109971887D01*
X169981767Y-109422736D01*
X169670698Y-108957189D01*
X169595800Y-108907144D01*
X169595800Y-103831036D01*
X170752193Y-103831036D01*
X170782518Y-104321413D01*
X170874711Y-104543990D01*
X170803569Y-104648110D01*
X170752560Y-104900000D01*
X170752560Y-106100000D01*
X170796838Y-106335317D01*
X170935910Y-106551441D01*
X171148110Y-106696431D01*
X171400000Y-106747440D01*
X172600000Y-106747440D01*
X172835317Y-106703162D01*
X172976015Y-106612625D01*
X173168500Y-106805110D01*
X173168500Y-109050690D01*
X171945145Y-110274045D01*
X171785470Y-110513015D01*
X171762307Y-110629465D01*
X171380591Y-110884519D01*
X171047845Y-111382509D01*
X170931000Y-111969928D01*
X170931000Y-112030072D01*
X171047845Y-112617491D01*
X171380591Y-113115481D01*
X171878581Y-113448227D01*
X172466000Y-113565072D01*
X173053419Y-113448227D01*
X173551409Y-113115481D01*
X173884155Y-112617491D01*
X174001000Y-112030072D01*
X174001000Y-111969928D01*
X173884155Y-111382509D01*
X173551409Y-110884519D01*
X173471491Y-110831119D01*
X174425955Y-109876655D01*
X174468154Y-109813500D01*
X174585630Y-109637685D01*
X174641700Y-109355800D01*
X174641700Y-107236600D01*
X176035284Y-107236600D01*
X176113106Y-107424943D01*
X176572637Y-107885278D01*
X177173352Y-108134716D01*
X177823795Y-108135284D01*
X178424943Y-107886894D01*
X178885278Y-107427363D01*
X179134716Y-106826648D01*
X179134718Y-106823795D01*
X182364716Y-106823795D01*
X182613106Y-107424943D01*
X183072637Y-107885278D01*
X183673352Y-108134716D01*
X184323795Y-108135284D01*
X184924943Y-107886894D01*
X185385278Y-107427363D01*
X185634716Y-106826648D01*
X185635284Y-106176205D01*
X185386894Y-105575057D01*
X184927363Y-105114722D01*
X184326648Y-104865284D01*
X183676205Y-104864716D01*
X183075057Y-105113106D01*
X182614722Y-105572637D01*
X182365284Y-106173352D01*
X182364716Y-106823795D01*
X179134718Y-106823795D01*
X179135284Y-106176205D01*
X178886894Y-105575057D01*
X178427363Y-105114722D01*
X177826648Y-104865284D01*
X177176205Y-104864716D01*
X176575057Y-105113106D01*
X176114722Y-105572637D01*
X176035510Y-105763400D01*
X174210210Y-105763400D01*
X173425955Y-104979145D01*
X173238802Y-104854093D01*
X173203162Y-104664683D01*
X173121234Y-104537364D01*
X173247807Y-104168964D01*
X173217482Y-103678587D01*
X173088164Y-103366383D01*
X172862735Y-103316870D01*
X172179605Y-104000000D01*
X172193748Y-104014143D01*
X172014143Y-104193748D01*
X172000000Y-104179605D01*
X171985858Y-104193748D01*
X171806253Y-104014143D01*
X171820395Y-104000000D01*
X171137265Y-103316870D01*
X170911836Y-103366383D01*
X170752193Y-103831036D01*
X169595800Y-103831036D01*
X169595800Y-103137265D01*
X171316870Y-103137265D01*
X172000000Y-103820395D01*
X172667863Y-103152532D01*
X176527073Y-103152532D01*
X176625736Y-103419387D01*
X177235461Y-103645908D01*
X177885460Y-103621856D01*
X178374264Y-103419387D01*
X178472927Y-103152532D01*
X183027073Y-103152532D01*
X183125736Y-103419387D01*
X183735461Y-103645908D01*
X184385460Y-103621856D01*
X184874264Y-103419387D01*
X184972927Y-103152532D01*
X184000000Y-102179605D01*
X183027073Y-103152532D01*
X178472927Y-103152532D01*
X177500000Y-102179605D01*
X176527073Y-103152532D01*
X172667863Y-103152532D01*
X172683130Y-103137265D01*
X172633617Y-102911836D01*
X172168964Y-102752193D01*
X171678587Y-102782518D01*
X171366383Y-102911836D01*
X171316870Y-103137265D01*
X169595800Y-103137265D01*
X169595800Y-101735461D01*
X175854092Y-101735461D01*
X175878144Y-102385460D01*
X176080613Y-102874264D01*
X176347468Y-102972927D01*
X177320395Y-102000000D01*
X177679605Y-102000000D01*
X178652532Y-102972927D01*
X178919387Y-102874264D01*
X179145908Y-102264539D01*
X179126331Y-101735461D01*
X182354092Y-101735461D01*
X182378144Y-102385460D01*
X182580613Y-102874264D01*
X182847468Y-102972927D01*
X183820395Y-102000000D01*
X184179605Y-102000000D01*
X185152532Y-102972927D01*
X185419387Y-102874264D01*
X185645908Y-102264539D01*
X185621856Y-101614540D01*
X185419387Y-101125736D01*
X185152532Y-101027073D01*
X184179605Y-102000000D01*
X183820395Y-102000000D01*
X182847468Y-101027073D01*
X182580613Y-101125736D01*
X182354092Y-101735461D01*
X179126331Y-101735461D01*
X179121856Y-101614540D01*
X178919387Y-101125736D01*
X178652532Y-101027073D01*
X177679605Y-102000000D01*
X177320395Y-102000000D01*
X176347468Y-101027073D01*
X176080613Y-101125736D01*
X175854092Y-101735461D01*
X169595800Y-101735461D01*
X169595800Y-100847468D01*
X176527073Y-100847468D01*
X177500000Y-101820395D01*
X178472927Y-100847468D01*
X183027073Y-100847468D01*
X184000000Y-101820395D01*
X184972927Y-100847468D01*
X184874264Y-100580613D01*
X184264539Y-100354092D01*
X183614540Y-100378144D01*
X183125736Y-100580613D01*
X183027073Y-100847468D01*
X178472927Y-100847468D01*
X178374264Y-100580613D01*
X177764539Y-100354092D01*
X177114540Y-100378144D01*
X176625736Y-100580613D01*
X176527073Y-100847468D01*
X169595800Y-100847468D01*
X169595800Y-100741578D01*
X171744539Y-98592839D01*
X171948262Y-98287946D01*
X171962991Y-98213900D01*
X173184156Y-98213900D01*
X173186077Y-98215824D01*
X173713309Y-98434750D01*
X174284187Y-98435248D01*
X174811800Y-98217243D01*
X175215824Y-97813923D01*
X175434750Y-97286691D01*
X175435248Y-96715813D01*
X175217243Y-96188200D01*
X174813923Y-95784176D01*
X174747456Y-95756577D01*
X174754005Y-95753864D01*
X174828139Y-95507745D01*
X174000000Y-94679605D01*
X173171861Y-95507745D01*
X173245995Y-95753864D01*
X173252483Y-95756196D01*
X173188200Y-95782757D01*
X172784176Y-96186077D01*
X172722628Y-96334300D01*
X172463763Y-96334300D01*
X172405767Y-96042736D01*
X172114281Y-95606497D01*
X172664312Y-95056466D01*
X172746136Y-95254005D01*
X172992255Y-95328139D01*
X173820395Y-94500000D01*
X174179605Y-94500000D01*
X175007745Y-95328139D01*
X175253864Y-95254005D01*
X175446965Y-94716777D01*
X175419778Y-94146546D01*
X175253864Y-93745995D01*
X175007745Y-93671861D01*
X174179605Y-94500000D01*
X173820395Y-94500000D01*
X173806253Y-94485858D01*
X173985858Y-94306253D01*
X174000000Y-94320395D01*
X174828139Y-93492255D01*
X174754005Y-93246136D01*
X174216777Y-93053035D01*
X173795200Y-93073135D01*
X173795200Y-71562619D01*
X180644613Y-71562619D01*
X180984155Y-72384372D01*
X181612321Y-73013636D01*
X182433481Y-73354611D01*
X183322619Y-73355387D01*
X184144372Y-73015845D01*
X184773636Y-72387679D01*
X185114611Y-71566519D01*
X185115387Y-70677381D01*
X184775845Y-69855628D01*
X184147679Y-69226364D01*
X183326519Y-68885389D01*
X182437381Y-68884613D01*
X181615628Y-69224155D01*
X180986364Y-69852321D01*
X180645389Y-70673481D01*
X180644613Y-71562619D01*
X173795200Y-71562619D01*
X173795200Y-61855400D01*
X173723662Y-61495754D01*
X173519939Y-61190861D01*
X165434908Y-53105830D01*
X165435248Y-52715813D01*
X165399997Y-52630500D01*
X176486100Y-52630500D01*
X176767985Y-52574430D01*
X177006955Y-52414755D01*
X177347358Y-52074352D01*
X177430729Y-52493489D01*
X177755585Y-52979670D01*
X178070366Y-53190000D01*
X177755585Y-53400330D01*
X177430729Y-53886511D01*
X177316655Y-54460000D01*
X177430729Y-55033489D01*
X177755585Y-55519670D01*
X178070366Y-55730000D01*
X177755585Y-55940330D01*
X177430729Y-56426511D01*
X177316655Y-57000000D01*
X177430729Y-57573489D01*
X177755585Y-58059670D01*
X178070366Y-58270000D01*
X177755585Y-58480330D01*
X177430729Y-58966511D01*
X177316655Y-59540000D01*
X177430729Y-60113489D01*
X177755585Y-60599670D01*
X178241766Y-60924526D01*
X178815255Y-61038600D01*
X179184745Y-61038600D01*
X179758234Y-60924526D01*
X180244415Y-60599670D01*
X180569271Y-60113489D01*
X180683345Y-59540000D01*
X180569271Y-58966511D01*
X180244415Y-58480330D01*
X179929634Y-58270000D01*
X180244415Y-58059670D01*
X180569271Y-57573489D01*
X180683345Y-57000000D01*
X180569271Y-56426511D01*
X180244415Y-55940330D01*
X179929634Y-55730000D01*
X180244415Y-55519670D01*
X180569271Y-55033489D01*
X180683345Y-54460000D01*
X180569271Y-53886511D01*
X180244415Y-53400330D01*
X179929634Y-53190000D01*
X180244415Y-52979670D01*
X180569271Y-52493489D01*
X180683345Y-51920000D01*
X180569271Y-51346511D01*
X180244415Y-50860330D01*
X179929634Y-50650000D01*
X180244415Y-50439670D01*
X180569271Y-49953489D01*
X180683345Y-49380000D01*
X180569271Y-48806511D01*
X180244415Y-48320330D01*
X180222220Y-48305500D01*
X180375698Y-48241927D01*
X180554327Y-48063299D01*
X180651000Y-47829910D01*
X180651000Y-47125750D01*
X180492250Y-46967000D01*
X179127000Y-46967000D01*
X179127000Y-46987000D01*
X178873000Y-46987000D01*
X178873000Y-46967000D01*
X177507750Y-46967000D01*
X177349000Y-47125750D01*
X177349000Y-47829910D01*
X177445673Y-48063299D01*
X177624302Y-48241927D01*
X177777780Y-48305500D01*
X177755585Y-48320330D01*
X177430729Y-48806511D01*
X177316655Y-49380000D01*
X177429673Y-49948179D01*
X177310445Y-50027845D01*
X176180990Y-51157300D01*
X165288624Y-51157300D01*
X165446965Y-50716777D01*
X165419778Y-50146546D01*
X165253864Y-49745995D01*
X165007745Y-49671861D01*
X164179605Y-50500000D01*
X164193748Y-50514142D01*
X164014142Y-50693748D01*
X164000000Y-50679605D01*
X163985858Y-50693748D01*
X163806252Y-50514142D01*
X163820395Y-50500000D01*
X162992255Y-49671861D01*
X162746136Y-49745995D01*
X162553035Y-50283223D01*
X162580222Y-50853454D01*
X162746136Y-51254005D01*
X162992253Y-51328139D01*
X162958628Y-51361764D01*
X162941745Y-51373045D01*
X162280645Y-52034145D01*
X162120970Y-52273115D01*
X162064900Y-52555000D01*
X162064900Y-53557279D01*
X161629151Y-53266120D01*
X161080000Y-53156887D01*
X160530849Y-53266120D01*
X160065302Y-53577189D01*
X159810000Y-53959275D01*
X159554698Y-53577189D01*
X159089151Y-53266120D01*
X158540000Y-53156887D01*
X157990849Y-53266120D01*
X157525302Y-53577189D01*
X157270000Y-53959275D01*
X157014698Y-53577189D01*
X156549151Y-53266120D01*
X156000000Y-53156887D01*
X155450849Y-53266120D01*
X154985302Y-53577189D01*
X154730000Y-53959275D01*
X154474698Y-53577189D01*
X154009151Y-53266120D01*
X153460000Y-53156887D01*
X152910849Y-53266120D01*
X152445302Y-53577189D01*
X152190000Y-53959275D01*
X151934698Y-53577189D01*
X151469151Y-53266120D01*
X150920000Y-53156887D01*
X150370849Y-53266120D01*
X149905302Y-53577189D01*
X149650000Y-53959275D01*
X149394698Y-53577189D01*
X148929151Y-53266120D01*
X148380000Y-53156887D01*
X147830849Y-53266120D01*
X147365302Y-53577189D01*
X147110000Y-53959275D01*
X146854698Y-53577189D01*
X146389151Y-53266120D01*
X145840000Y-53156887D01*
X145403000Y-53243812D01*
X145403000Y-49583810D01*
X145494555Y-49492255D01*
X163171861Y-49492255D01*
X164000000Y-50320395D01*
X164828139Y-49492255D01*
X164754005Y-49246136D01*
X164216777Y-49053035D01*
X163646546Y-49080222D01*
X163245995Y-49246136D01*
X163171861Y-49492255D01*
X145494555Y-49492255D01*
X146360855Y-48625955D01*
X146520530Y-48386985D01*
X146548262Y-48247565D01*
X146854698Y-48042811D01*
X147110000Y-47660725D01*
X147365302Y-48042811D01*
X147830849Y-48353880D01*
X148380000Y-48463113D01*
X148929151Y-48353880D01*
X149394698Y-48042811D01*
X149664986Y-47638297D01*
X149767611Y-47855134D01*
X150182577Y-48231041D01*
X150570961Y-48391904D01*
X150793000Y-48269915D01*
X150793000Y-47127000D01*
X151047000Y-47127000D01*
X151047000Y-48269915D01*
X151269039Y-48391904D01*
X151657423Y-48231041D01*
X152072389Y-47855134D01*
X152190000Y-47606633D01*
X152307611Y-47855134D01*
X152722577Y-48231041D01*
X153110961Y-48391904D01*
X153333000Y-48269915D01*
X153333000Y-47127000D01*
X151047000Y-47127000D01*
X150793000Y-47127000D01*
X150773000Y-47127000D01*
X150773000Y-46873000D01*
X150793000Y-46873000D01*
X150793000Y-45730085D01*
X151047000Y-45730085D01*
X151047000Y-46873000D01*
X153333000Y-46873000D01*
X153333000Y-45730085D01*
X153587000Y-45730085D01*
X153587000Y-46873000D01*
X153607000Y-46873000D01*
X153607000Y-47127000D01*
X153587000Y-47127000D01*
X153587000Y-48269915D01*
X153809039Y-48391904D01*
X154197423Y-48231041D01*
X154612389Y-47855134D01*
X154715014Y-47638297D01*
X154985302Y-48042811D01*
X155450849Y-48353880D01*
X156000000Y-48463113D01*
X156549151Y-48353880D01*
X157014698Y-48042811D01*
X157270000Y-47660725D01*
X157525302Y-48042811D01*
X157990849Y-48353880D01*
X158540000Y-48463113D01*
X159089151Y-48353880D01*
X159554698Y-48042811D01*
X159651101Y-47898535D01*
X159676838Y-48035317D01*
X159815910Y-48251441D01*
X160028110Y-48396431D01*
X160280000Y-48447440D01*
X161880000Y-48447440D01*
X162115317Y-48403162D01*
X162331441Y-48264090D01*
X162476431Y-48051890D01*
X162527440Y-47800000D01*
X162527440Y-46200000D01*
X162483162Y-45964683D01*
X162409424Y-45850090D01*
X177349000Y-45850090D01*
X177349000Y-46554250D01*
X177507750Y-46713000D01*
X178873000Y-46713000D01*
X178873000Y-45500150D01*
X179127000Y-45500150D01*
X179127000Y-46713000D01*
X180492250Y-46713000D01*
X180651000Y-46554250D01*
X180651000Y-45850090D01*
X180554327Y-45616701D01*
X180375698Y-45438073D01*
X180142309Y-45341400D01*
X179285750Y-45341400D01*
X179127000Y-45500150D01*
X178873000Y-45500150D01*
X178714250Y-45341400D01*
X177857691Y-45341400D01*
X177624302Y-45438073D01*
X177445673Y-45616701D01*
X177349000Y-45850090D01*
X162409424Y-45850090D01*
X162344090Y-45748559D01*
X162131890Y-45603569D01*
X161880000Y-45552560D01*
X160280000Y-45552560D01*
X160044683Y-45596838D01*
X159828559Y-45735910D01*
X159683569Y-45948110D01*
X159652185Y-46103089D01*
X159554698Y-45957189D01*
X159089151Y-45646120D01*
X158540000Y-45536887D01*
X157990849Y-45646120D01*
X157525302Y-45957189D01*
X157270000Y-46339275D01*
X157014698Y-45957189D01*
X156549151Y-45646120D01*
X156000000Y-45536887D01*
X155450849Y-45646120D01*
X154985302Y-45957189D01*
X154715014Y-46361703D01*
X154612389Y-46144866D01*
X154197423Y-45768959D01*
X153809039Y-45608096D01*
X153587000Y-45730085D01*
X153333000Y-45730085D01*
X153110961Y-45608096D01*
X152722577Y-45768959D01*
X152307611Y-46144866D01*
X152190000Y-46393367D01*
X152072389Y-46144866D01*
X151657423Y-45768959D01*
X151269039Y-45608096D01*
X151047000Y-45730085D01*
X150793000Y-45730085D01*
X150570961Y-45608096D01*
X150182577Y-45768959D01*
X149767611Y-46144866D01*
X149664986Y-46361703D01*
X149394698Y-45957189D01*
X148929151Y-45646120D01*
X148380000Y-45536887D01*
X147830849Y-45646120D01*
X147365302Y-45957189D01*
X147110000Y-46339275D01*
X146854698Y-45957189D01*
X146389151Y-45646120D01*
X145840000Y-45536887D01*
X145290849Y-45646120D01*
X144825302Y-45957189D01*
X144555014Y-46361703D01*
X144452389Y-46144866D01*
X144037423Y-45768959D01*
X143649039Y-45608096D01*
X143427000Y-45730085D01*
X143427000Y-46873000D01*
X143447000Y-46873000D01*
X143447000Y-47127000D01*
X143427000Y-47127000D01*
X143427000Y-48269915D01*
X143649039Y-48391904D01*
X144037423Y-48231041D01*
X144452389Y-47855134D01*
X144555014Y-47638297D01*
X144825302Y-48042811D01*
X144846449Y-48056941D01*
X144145545Y-48757845D01*
X143985870Y-48996815D01*
X143929800Y-49278700D01*
X143929800Y-53320008D01*
X143849151Y-53266120D01*
X143300000Y-53156887D01*
X142750849Y-53266120D01*
X142285302Y-53577189D01*
X141974233Y-54042736D01*
X141865000Y-54591887D01*
X141865000Y-54648113D01*
X141974233Y-55197264D01*
X142285302Y-55662811D01*
X142750849Y-55973880D01*
X143300000Y-56083113D01*
X143849151Y-55973880D01*
X143929800Y-55919992D01*
X143929800Y-57159790D01*
X143319145Y-57770445D01*
X143159470Y-58009415D01*
X143134644Y-58134226D01*
X142780330Y-58370971D01*
X142455474Y-58857152D01*
X142341400Y-59430641D01*
X142341400Y-59489359D01*
X142455474Y-60062848D01*
X142780330Y-60549029D01*
X143051172Y-60730000D01*
X142780330Y-60910971D01*
X142455474Y-61397152D01*
X142341400Y-61970641D01*
X142341400Y-62029359D01*
X142455474Y-62602848D01*
X142780330Y-63089029D01*
X143266511Y-63413885D01*
X143840000Y-63527959D01*
X144413489Y-63413885D01*
X144899670Y-63089029D01*
X145110000Y-62774248D01*
X145320330Y-63089029D01*
X145806511Y-63413885D01*
X146380000Y-63527959D01*
X146953489Y-63413885D01*
X147439670Y-63089029D01*
X147650000Y-62774248D01*
X147860330Y-63089029D01*
X148346511Y-63413885D01*
X148920000Y-63527959D01*
X149493489Y-63413885D01*
X149979670Y-63089029D01*
X150190000Y-62774248D01*
X150400330Y-63089029D01*
X150529781Y-63175525D01*
X150483400Y-63408700D01*
X150483400Y-65771370D01*
X150261110Y-65919900D01*
X149658355Y-65317145D01*
X149419385Y-65157470D01*
X149137500Y-65101400D01*
X148178100Y-65101400D01*
X147896215Y-65157470D01*
X147657245Y-65317145D01*
X147072275Y-65902115D01*
X146689151Y-65646120D01*
X146140000Y-65536887D01*
X145590849Y-65646120D01*
X145125302Y-65957189D01*
X144870000Y-66339275D01*
X144614698Y-65957189D01*
X144149151Y-65646120D01*
X143600000Y-65536887D01*
X143050849Y-65646120D01*
X142585302Y-65957189D01*
X142298898Y-66385822D01*
X142217243Y-66188200D01*
X141813923Y-65784176D01*
X141286691Y-65565250D01*
X140715813Y-65564752D01*
X140188200Y-65782757D01*
X139784176Y-66186077D01*
X139565250Y-66713309D01*
X139564752Y-67284187D01*
X139782757Y-67811800D01*
X140186077Y-68215824D01*
X140252544Y-68243423D01*
X140245995Y-68246136D01*
X140171861Y-68492255D01*
X141000000Y-69320395D01*
X141828139Y-68492255D01*
X141754005Y-68246136D01*
X141747517Y-68243804D01*
X141811800Y-68217243D01*
X142215824Y-67813923D01*
X142298816Y-67614055D01*
X142585302Y-68042811D01*
X142660200Y-68092856D01*
X142660200Y-68308300D01*
X142731738Y-68667946D01*
X142935461Y-68972839D01*
X143240354Y-69176562D01*
X143422300Y-69212753D01*
X143422300Y-74748622D01*
X138424538Y-79746384D01*
X138419778Y-79646546D01*
X138253864Y-79245995D01*
X138007745Y-79171861D01*
X137179605Y-80000000D01*
X137193748Y-80014142D01*
X137014142Y-80193748D01*
X137000000Y-80179605D01*
X136985858Y-80193748D01*
X136806253Y-80014143D01*
X136820395Y-80000000D01*
X136806253Y-79985858D01*
X136985858Y-79806252D01*
X137000000Y-79820395D01*
X137828139Y-78992255D01*
X137754005Y-78746136D01*
X137216777Y-78553035D01*
X136646546Y-78580222D01*
X136584000Y-78606129D01*
X136584000Y-70507745D01*
X140171861Y-70507745D01*
X140245995Y-70753864D01*
X140783223Y-70946965D01*
X141353454Y-70919778D01*
X141754005Y-70753864D01*
X141828139Y-70507745D01*
X141000000Y-69679605D01*
X140171861Y-70507745D01*
X136584000Y-70507745D01*
X136584000Y-69283223D01*
X139553035Y-69283223D01*
X139580222Y-69853454D01*
X139746136Y-70254005D01*
X139992255Y-70328139D01*
X140820395Y-69500000D01*
X141179605Y-69500000D01*
X142007745Y-70328139D01*
X142253864Y-70254005D01*
X142446965Y-69716777D01*
X142419778Y-69146546D01*
X142253864Y-68745995D01*
X142007745Y-68671861D01*
X141179605Y-69500000D01*
X140820395Y-69500000D01*
X139992255Y-68671861D01*
X139746136Y-68745995D01*
X139553035Y-69283223D01*
X136584000Y-69283223D01*
X136584000Y-66539405D01*
X136584001Y-66539400D01*
X136532701Y-66281500D01*
X136527930Y-66257515D01*
X136368255Y-66018545D01*
X135668955Y-65319245D01*
X135429985Y-65159570D01*
X135148100Y-65103500D01*
X133786600Y-65103500D01*
X133786600Y-63357013D01*
X134320000Y-63463113D01*
X134869151Y-63353880D01*
X135334698Y-63042811D01*
X135645767Y-62577264D01*
X135658792Y-62511782D01*
X135782757Y-62811800D01*
X136186077Y-63215824D01*
X136713309Y-63434750D01*
X137284187Y-63435248D01*
X137811800Y-63217243D01*
X138215824Y-62813923D01*
X138434750Y-62286691D01*
X138435248Y-61715813D01*
X138217243Y-61188200D01*
X137813923Y-60784176D01*
X137747456Y-60756577D01*
X137754005Y-60753864D01*
X137828139Y-60507745D01*
X137000000Y-59679605D01*
X136171861Y-60507745D01*
X136245995Y-60753864D01*
X136252483Y-60756196D01*
X136188200Y-60782757D01*
X135784176Y-61186077D01*
X135658768Y-61488094D01*
X135645767Y-61422736D01*
X135334698Y-60957189D01*
X134869151Y-60646120D01*
X134320000Y-60536887D01*
X133786600Y-60642987D01*
X133786600Y-59283223D01*
X135553035Y-59283223D01*
X135580222Y-59853454D01*
X135746136Y-60254005D01*
X135992255Y-60328139D01*
X136820395Y-59500000D01*
X137179605Y-59500000D01*
X138007745Y-60328139D01*
X138253864Y-60254005D01*
X138446965Y-59716777D01*
X138419778Y-59146546D01*
X138253864Y-58745995D01*
X138007745Y-58671861D01*
X137179605Y-59500000D01*
X136820395Y-59500000D01*
X135992255Y-58671861D01*
X135746136Y-58745995D01*
X135553035Y-59283223D01*
X133786600Y-59283223D01*
X133786600Y-58492255D01*
X136171861Y-58492255D01*
X137000000Y-59320395D01*
X137828139Y-58492255D01*
X137754005Y-58246136D01*
X137216777Y-58053035D01*
X136646546Y-58080222D01*
X136245995Y-58246136D01*
X136171861Y-58492255D01*
X133786600Y-58492255D01*
X133786600Y-49135100D01*
X133730530Y-48853215D01*
X133570855Y-48614245D01*
X132773551Y-47816941D01*
X132794698Y-47802811D01*
X132891101Y-47658535D01*
X132916838Y-47795317D01*
X133055910Y-48011441D01*
X133268110Y-48156431D01*
X133520000Y-48207440D01*
X135120000Y-48207440D01*
X135355317Y-48163162D01*
X135571441Y-48024090D01*
X135716431Y-47811890D01*
X135767440Y-47560000D01*
X135767440Y-47349041D01*
X141908086Y-47349041D01*
X142147611Y-47855134D01*
X142562577Y-48231041D01*
X142950961Y-48391904D01*
X143173000Y-48269915D01*
X143173000Y-47127000D01*
X142029371Y-47127000D01*
X141908086Y-47349041D01*
X135767440Y-47349041D01*
X135767440Y-46650959D01*
X141908086Y-46650959D01*
X142029371Y-46873000D01*
X143173000Y-46873000D01*
X143173000Y-45730085D01*
X142950961Y-45608096D01*
X142562577Y-45768959D01*
X142147611Y-46144866D01*
X141908086Y-46650959D01*
X135767440Y-46650959D01*
X135767440Y-45960000D01*
X135723162Y-45724683D01*
X135584090Y-45508559D01*
X135371890Y-45363569D01*
X135120000Y-45312560D01*
X133520000Y-45312560D01*
X133284683Y-45356838D01*
X133068559Y-45495910D01*
X132923569Y-45708110D01*
X132892185Y-45863089D01*
X132794698Y-45717189D01*
X132329151Y-45406120D01*
X131780000Y-45296887D01*
X131230849Y-45406120D01*
X130765302Y-45717189D01*
X130510000Y-46099275D01*
X130254698Y-45717189D01*
X129789151Y-45406120D01*
X129240000Y-45296887D01*
X128690849Y-45406120D01*
X128225302Y-45717189D01*
X127970000Y-46099275D01*
X127714698Y-45717189D01*
X127249151Y-45406120D01*
X126700000Y-45296887D01*
X126150849Y-45406120D01*
X125685302Y-45717189D01*
X125430000Y-46099275D01*
X125174698Y-45717189D01*
X124709151Y-45406120D01*
X124160000Y-45296887D01*
X123610849Y-45406120D01*
X123145302Y-45717189D01*
X122890000Y-46099275D01*
X122634698Y-45717189D01*
X122169151Y-45406120D01*
X121620000Y-45296887D01*
X121070849Y-45406120D01*
X120605302Y-45717189D01*
X120350000Y-46099275D01*
X120094698Y-45717189D01*
X119629151Y-45406120D01*
X119080000Y-45296887D01*
X118530849Y-45406120D01*
X118065302Y-45717189D01*
X117810000Y-46099275D01*
X117554698Y-45717189D01*
X117089151Y-45406120D01*
X116540000Y-45296887D01*
X115990849Y-45406120D01*
X115525302Y-45717189D01*
X115270000Y-46099275D01*
X115014698Y-45717189D01*
X114549151Y-45406120D01*
X114000000Y-45296887D01*
X113450849Y-45406120D01*
X112985302Y-45717189D01*
X112730000Y-46099275D01*
X112474698Y-45717189D01*
X112009151Y-45406120D01*
X111460000Y-45296887D01*
X110910849Y-45406120D01*
X110445302Y-45717189D01*
X110190000Y-46099275D01*
X109934698Y-45717189D01*
X109469151Y-45406120D01*
X108920000Y-45296887D01*
X108370849Y-45406120D01*
X107905302Y-45717189D01*
X107650000Y-46099275D01*
X107394698Y-45717189D01*
X106929151Y-45406120D01*
X106380000Y-45296887D01*
X105830849Y-45406120D01*
X105365302Y-45717189D01*
X105110000Y-46099275D01*
X104854698Y-45717189D01*
X104389151Y-45406120D01*
X103840000Y-45296887D01*
X103290849Y-45406120D01*
X102825302Y-45717189D01*
X102555014Y-46121703D01*
X102452389Y-45904866D01*
X102037423Y-45528959D01*
X101649039Y-45368096D01*
X101427000Y-45490085D01*
X101427000Y-46633000D01*
X101447000Y-46633000D01*
X101447000Y-46887000D01*
X101427000Y-46887000D01*
X101427000Y-48029915D01*
X101649039Y-48151904D01*
X102037423Y-47991041D01*
X102452389Y-47615134D01*
X102555014Y-47398297D01*
X102825302Y-47802811D01*
X102846449Y-47816941D01*
X102210745Y-48452645D01*
X102051070Y-48691615D01*
X101995000Y-48973500D01*
X101995000Y-60743573D01*
X101849151Y-60646120D01*
X101300000Y-60536887D01*
X100750849Y-60646120D01*
X100285302Y-60957189D01*
X99974233Y-61422736D01*
X99865000Y-61971887D01*
X99865000Y-62028113D01*
X99974233Y-62577264D01*
X100285302Y-63042811D01*
X100563400Y-63228630D01*
X100563400Y-64909000D01*
X100619470Y-65190885D01*
X100779145Y-65429855D01*
X101062762Y-65713472D01*
X100870961Y-65608096D01*
X100482577Y-65768959D01*
X100067611Y-66144866D01*
X99828086Y-66650959D01*
X99949371Y-66873000D01*
X101093000Y-66873000D01*
X101093000Y-66853000D01*
X101347000Y-66853000D01*
X101347000Y-66873000D01*
X101367000Y-66873000D01*
X101367000Y-67127000D01*
X101347000Y-67127000D01*
X101347000Y-68269915D01*
X101569039Y-68391904D01*
X101596600Y-68380489D01*
X101596600Y-79716590D01*
X100699145Y-80614045D01*
X100539470Y-80853015D01*
X100511738Y-80992435D01*
X100205302Y-81197189D01*
X99894233Y-81662736D01*
X99785000Y-82211887D01*
X99785000Y-82268113D01*
X99894233Y-82817264D01*
X100205302Y-83282811D01*
X100670849Y-83593880D01*
X101220000Y-83703113D01*
X101769151Y-83593880D01*
X102234698Y-83282811D01*
X102490000Y-82900725D01*
X102745302Y-83282811D01*
X103210849Y-83593880D01*
X103760000Y-83703113D01*
X104309151Y-83593880D01*
X104443000Y-83504445D01*
X104443000Y-84863800D01*
X104499070Y-85145685D01*
X104658745Y-85384655D01*
X106389000Y-87114910D01*
X106389000Y-91831622D01*
X105779800Y-91222422D01*
X105779800Y-89083528D01*
X105882811Y-89014698D01*
X106193880Y-88549151D01*
X106303113Y-88000000D01*
X106193880Y-87450849D01*
X105882811Y-86985302D01*
X105417264Y-86674233D01*
X104868113Y-86565000D01*
X104811887Y-86565000D01*
X104262736Y-86674233D01*
X103797189Y-86985302D01*
X103486120Y-87450849D01*
X103376887Y-88000000D01*
X103486120Y-88549151D01*
X103797189Y-89014698D01*
X103900200Y-89083528D01*
X103900200Y-91611700D01*
X103971738Y-91971346D01*
X104175461Y-92276239D01*
X104885719Y-92986497D01*
X104650000Y-93339275D01*
X104394698Y-92957189D01*
X103929151Y-92646120D01*
X103380000Y-92536887D01*
X102830849Y-92646120D01*
X102365302Y-92957189D01*
X102110000Y-93339275D01*
X101854698Y-92957189D01*
X101389151Y-92646120D01*
X100840000Y-92536887D01*
X100290849Y-92646120D01*
X99825302Y-92957189D01*
X99570000Y-93339275D01*
X99314698Y-92957189D01*
X98849151Y-92646120D01*
X98300000Y-92536887D01*
X97750849Y-92646120D01*
X97285302Y-92957189D01*
X96974233Y-93422736D01*
X96865000Y-93971887D01*
X96865000Y-94028113D01*
X96974233Y-94577264D01*
X97285302Y-95042811D01*
X97591738Y-95247565D01*
X97619470Y-95386985D01*
X97779145Y-95625955D01*
X98668500Y-96515310D01*
X98668500Y-107850186D01*
X98300000Y-107776887D01*
X97750849Y-107886120D01*
X97285302Y-108197189D01*
X96974233Y-108662736D01*
X96865000Y-109211887D01*
X96865000Y-109268113D01*
X96974233Y-109817264D01*
X97285302Y-110282811D01*
X97563400Y-110468630D01*
X97563400Y-113018490D01*
X96673345Y-113908545D01*
X96513670Y-114147515D01*
X96457600Y-114429400D01*
X89027000Y-114429400D01*
X89027000Y-71722619D01*
X91074613Y-71722619D01*
X91414155Y-72544372D01*
X92042321Y-73173636D01*
X92863481Y-73514611D01*
X93752619Y-73515387D01*
X94574372Y-73175845D01*
X95203636Y-72547679D01*
X95544611Y-71726519D01*
X95545387Y-70837381D01*
X95205845Y-70015628D01*
X94577679Y-69386364D01*
X93756519Y-69045389D01*
X92867381Y-69044613D01*
X92045628Y-69384155D01*
X91416364Y-70012321D01*
X91075389Y-70833481D01*
X91074613Y-71722619D01*
X89027000Y-71722619D01*
X89027000Y-67349041D01*
X99828086Y-67349041D01*
X100067611Y-67855134D01*
X100482577Y-68231041D01*
X100870961Y-68391904D01*
X101093000Y-68269915D01*
X101093000Y-67127000D01*
X99949371Y-67127000D01*
X99828086Y-67349041D01*
X89027000Y-67349041D01*
X89027000Y-47109041D01*
X99908086Y-47109041D01*
X100147611Y-47615134D01*
X100562577Y-47991041D01*
X100950961Y-48151904D01*
X101173000Y-48029915D01*
X101173000Y-46887000D01*
X100029371Y-46887000D01*
X99908086Y-47109041D01*
X89027000Y-47109041D01*
X89027000Y-46410959D01*
X99908086Y-46410959D01*
X100029371Y-46633000D01*
X101173000Y-46633000D01*
X101173000Y-45490085D01*
X100950961Y-45368096D01*
X100562577Y-45528959D01*
X100147611Y-45904866D01*
X99908086Y-46410959D01*
X89027000Y-46410959D01*
X89027000Y-42710000D01*
X94789593Y-42710000D01*
X187198000Y-43306183D01*
X187198000Y-43306183D01*
G37*
X187198000Y-43306183D02*
X187198000Y-140843000D01*
X89027000Y-140843000D01*
X89027000Y-137582619D01*
X91104613Y-137582619D01*
X91444155Y-138404372D01*
X92072321Y-139033636D01*
X92893481Y-139374611D01*
X93782619Y-139375387D01*
X94604372Y-139035845D01*
X95233636Y-138407679D01*
X95574611Y-137586519D01*
X95575387Y-136697381D01*
X95235845Y-135875628D01*
X94607679Y-135246364D01*
X93786519Y-134905389D01*
X92897381Y-134904613D01*
X92075628Y-135244155D01*
X91446364Y-135872321D01*
X91105389Y-136693481D01*
X91104613Y-137582619D01*
X89027000Y-137582619D01*
X89027000Y-114429400D01*
X96457600Y-114429400D01*
X96457600Y-117869100D01*
X96513670Y-118150985D01*
X96673345Y-118389955D01*
X99846449Y-121563059D01*
X99825302Y-121577189D01*
X99595405Y-121921254D01*
X99536807Y-121909598D01*
X99314698Y-121577189D01*
X98849151Y-121266120D01*
X98300000Y-121156887D01*
X97750849Y-121266120D01*
X97285302Y-121577189D01*
X96974233Y-122042736D01*
X96865000Y-122591887D01*
X96865000Y-122648113D01*
X96974233Y-123197264D01*
X97285302Y-123662811D01*
X97750849Y-123973880D01*
X98300000Y-124083113D01*
X98849151Y-123973880D01*
X99286765Y-123681475D01*
X113317145Y-137711855D01*
X113556115Y-137871530D01*
X113838000Y-137927600D01*
X139803000Y-137927600D01*
X140084885Y-137871530D01*
X140323855Y-137711855D01*
X142151620Y-135884090D01*
X171858940Y-135884090D01*
X171858940Y-137474709D01*
X171955613Y-137708098D01*
X172134241Y-137886727D01*
X172367630Y-137983400D01*
X173958250Y-137983400D01*
X174117000Y-137824650D01*
X174117000Y-135725340D01*
X174371000Y-135725340D01*
X174371000Y-137824650D01*
X174529750Y-137983400D01*
X176120370Y-137983400D01*
X176353759Y-137886727D01*
X176532387Y-137708098D01*
X176613357Y-137512619D01*
X180734613Y-137512619D01*
X181074155Y-138334372D01*
X181702321Y-138963636D01*
X182523481Y-139304611D01*
X183412619Y-139305387D01*
X184234372Y-138965845D01*
X184863636Y-138337679D01*
X185204611Y-137516519D01*
X185205387Y-136627381D01*
X184865845Y-135805628D01*
X184237679Y-135176364D01*
X183416519Y-134835389D01*
X182527381Y-134834613D01*
X181705628Y-135174155D01*
X181076364Y-135802321D01*
X180735389Y-136623481D01*
X180734613Y-137512619D01*
X176613357Y-137512619D01*
X176629060Y-137474709D01*
X176629060Y-135884090D01*
X176470310Y-135725340D01*
X174371000Y-135725340D01*
X174117000Y-135725340D01*
X172017690Y-135725340D01*
X171858940Y-135884090D01*
X142151620Y-135884090D01*
X143340050Y-134695660D01*
X143726511Y-134953885D01*
X144300000Y-135067959D01*
X144873489Y-134953885D01*
X145359670Y-134629029D01*
X145570000Y-134314248D01*
X145780330Y-134629029D01*
X146266511Y-134953885D01*
X146840000Y-135067959D01*
X147413489Y-134953885D01*
X147899670Y-134629029D01*
X148110000Y-134314248D01*
X148320330Y-134629029D01*
X148806511Y-134953885D01*
X149380000Y-135067959D01*
X149953489Y-134953885D01*
X150439670Y-134629029D01*
X150650000Y-134314248D01*
X150860330Y-134629029D01*
X151346511Y-134953885D01*
X151920000Y-135067959D01*
X152493489Y-134953885D01*
X152979670Y-134629029D01*
X153190000Y-134314248D01*
X153400330Y-134629029D01*
X153886511Y-134953885D01*
X154460000Y-135067959D01*
X155033489Y-134953885D01*
X155519670Y-134629029D01*
X155730000Y-134314248D01*
X155940330Y-134629029D01*
X156426511Y-134953885D01*
X157000000Y-135067959D01*
X157573489Y-134953885D01*
X158059670Y-134629029D01*
X158275664Y-134305772D01*
X158333179Y-134428490D01*
X158765053Y-134822688D01*
X159180974Y-134994958D01*
X159413000Y-134873817D01*
X159413000Y-133667000D01*
X159667000Y-133667000D01*
X159667000Y-134873817D01*
X159899026Y-134994958D01*
X160314947Y-134822688D01*
X160746821Y-134428490D01*
X160810000Y-134293687D01*
X160873179Y-134428490D01*
X161305053Y-134822688D01*
X161720974Y-134994958D01*
X161953000Y-134873817D01*
X161953000Y-133667000D01*
X162207000Y-133667000D01*
X162207000Y-134873817D01*
X162439026Y-134994958D01*
X162854947Y-134822688D01*
X163286821Y-134428490D01*
X163534968Y-133899027D01*
X163443018Y-133721971D01*
X171858940Y-133721971D01*
X171858940Y-135312590D01*
X172017690Y-135471340D01*
X174117000Y-135471340D01*
X174117000Y-133372030D01*
X173958250Y-133213280D01*
X172367630Y-133213280D01*
X172134241Y-133309953D01*
X171955613Y-133488582D01*
X171858940Y-133721971D01*
X163443018Y-133721971D01*
X163414469Y-133667000D01*
X162207000Y-133667000D01*
X161953000Y-133667000D01*
X159667000Y-133667000D01*
X159413000Y-133667000D01*
X159393000Y-133667000D01*
X159393000Y-133413000D01*
X159413000Y-133413000D01*
X159413000Y-133393000D01*
X159667000Y-133393000D01*
X159667000Y-133413000D01*
X161953000Y-133413000D01*
X161953000Y-133393000D01*
X162207000Y-133393000D01*
X162207000Y-133413000D01*
X163414469Y-133413000D01*
X163534968Y-133180973D01*
X163286821Y-132651510D01*
X163100567Y-132481505D01*
X163178917Y-132466762D01*
X163395041Y-132327690D01*
X163540031Y-132115490D01*
X163591040Y-131863600D01*
X163591040Y-130136400D01*
X163546762Y-129901083D01*
X163407690Y-129684959D01*
X163195490Y-129539969D01*
X162943600Y-129488960D01*
X161216400Y-129488960D01*
X160981083Y-129533238D01*
X160764959Y-129672310D01*
X160619969Y-129884510D01*
X160611136Y-129928131D01*
X160599670Y-129910971D01*
X160250828Y-129677882D01*
X162642960Y-127285750D01*
X164465000Y-127285750D01*
X164465000Y-128026309D01*
X164561673Y-128259698D01*
X164740301Y-128438327D01*
X164973690Y-128535000D01*
X165714250Y-128535000D01*
X165873000Y-128376250D01*
X165873000Y-127127000D01*
X166127000Y-127127000D01*
X166127000Y-128376250D01*
X166285750Y-128535000D01*
X167026310Y-128535000D01*
X167259699Y-128438327D01*
X167438327Y-128259698D01*
X167535000Y-128026309D01*
X167535000Y-127598860D01*
X171596560Y-127598860D01*
X171596560Y-131598860D01*
X171640838Y-131834177D01*
X171779910Y-132050301D01*
X171992110Y-132195291D01*
X172244000Y-132246300D01*
X176244000Y-132246300D01*
X176479317Y-132202022D01*
X176545500Y-132159434D01*
X176545500Y-133520240D01*
X176532387Y-133488582D01*
X176353759Y-133309953D01*
X176120370Y-133213280D01*
X174529750Y-133213280D01*
X174371000Y-133372030D01*
X174371000Y-135471340D01*
X176470310Y-135471340D01*
X176629060Y-135312590D01*
X176629060Y-134645023D01*
X176728850Y-134800101D01*
X176941050Y-134945091D01*
X177192940Y-134996100D01*
X180693060Y-134996100D01*
X180928377Y-134951822D01*
X181144501Y-134812750D01*
X181289491Y-134600550D01*
X181340500Y-134348660D01*
X181340500Y-130848540D01*
X181296222Y-130613223D01*
X181157150Y-130397099D01*
X180944950Y-130252109D01*
X180693060Y-130201100D01*
X177192940Y-130201100D01*
X176957623Y-130245378D01*
X176891440Y-130287966D01*
X176891440Y-127598860D01*
X176847162Y-127363543D01*
X176708090Y-127147419D01*
X176495890Y-127002429D01*
X176244000Y-126951420D01*
X175183800Y-126951420D01*
X175183800Y-122660278D01*
X177052560Y-120791518D01*
X177052560Y-121800000D01*
X177096838Y-122035317D01*
X177235910Y-122251441D01*
X177448110Y-122396431D01*
X177700000Y-122447440D01*
X179300000Y-122447440D01*
X179535317Y-122403162D01*
X179751441Y-122264090D01*
X179896431Y-122051890D01*
X179905370Y-122007745D01*
X180171861Y-122007745D01*
X180245995Y-122253864D01*
X180783223Y-122446965D01*
X181353454Y-122419778D01*
X181754005Y-122253864D01*
X181828139Y-122007745D01*
X181000000Y-121179605D01*
X180171861Y-122007745D01*
X179905370Y-122007745D01*
X179944646Y-121813799D01*
X179992255Y-121828139D01*
X180820395Y-121000000D01*
X181179605Y-121000000D01*
X182007745Y-121828139D01*
X182253864Y-121754005D01*
X182446965Y-121216777D01*
X182419778Y-120646546D01*
X182253864Y-120245995D01*
X182007745Y-120171861D01*
X181179605Y-121000000D01*
X180820395Y-121000000D01*
X179992255Y-120171861D01*
X179944833Y-120186145D01*
X179908351Y-119992255D01*
X180171861Y-119992255D01*
X181000000Y-120820395D01*
X181828139Y-119992255D01*
X181754005Y-119746136D01*
X181216777Y-119553035D01*
X180646546Y-119580222D01*
X180245995Y-119746136D01*
X180171861Y-119992255D01*
X179908351Y-119992255D01*
X179903162Y-119964683D01*
X179764090Y-119748559D01*
X179551890Y-119603569D01*
X179300000Y-119552560D01*
X178291518Y-119552560D01*
X183259301Y-114584777D01*
X183828893Y-114585275D01*
X184411657Y-114344481D01*
X184857914Y-113899003D01*
X185099724Y-113316659D01*
X185100275Y-112686107D01*
X184859481Y-112103343D01*
X184414003Y-111657086D01*
X183831659Y-111415276D01*
X183201107Y-111414725D01*
X182618343Y-111655519D01*
X182264774Y-112008471D01*
X181914003Y-111657086D01*
X181331659Y-111415276D01*
X180701107Y-111414725D01*
X180118343Y-111655519D01*
X180025428Y-111748272D01*
X179929090Y-111598559D01*
X179716890Y-111453569D01*
X179465000Y-111402560D01*
X177565000Y-111402560D01*
X177329683Y-111446838D01*
X177113559Y-111585910D01*
X176968569Y-111798110D01*
X176917560Y-112050000D01*
X176917560Y-113950000D01*
X176961838Y-114185317D01*
X177100910Y-114401441D01*
X177313110Y-114546431D01*
X177565000Y-114597440D01*
X179465000Y-114597440D01*
X179700317Y-114553162D01*
X179916441Y-114414090D01*
X180026400Y-114253160D01*
X180115997Y-114342914D01*
X180629700Y-114556222D01*
X173579461Y-121606461D01*
X173375738Y-121911354D01*
X173304200Y-122271000D01*
X173304200Y-126951420D01*
X172244000Y-126951420D01*
X172008683Y-126995698D01*
X171792559Y-127134770D01*
X171647569Y-127346970D01*
X171596560Y-127598860D01*
X167535000Y-127598860D01*
X167535000Y-127285750D01*
X167376250Y-127127000D01*
X166127000Y-127127000D01*
X165873000Y-127127000D01*
X164623750Y-127127000D01*
X164465000Y-127285750D01*
X162642960Y-127285750D01*
X163397310Y-126531400D01*
X164465000Y-126531400D01*
X164465000Y-126714250D01*
X164623750Y-126873000D01*
X165873000Y-126873000D01*
X165873000Y-126853000D01*
X166127000Y-126853000D01*
X166127000Y-126873000D01*
X167376250Y-126873000D01*
X167535000Y-126714250D01*
X167535000Y-125973691D01*
X167453435Y-125776775D01*
X169176855Y-124053355D01*
X169336530Y-123814385D01*
X169392600Y-123532500D01*
X169392600Y-121408315D01*
X169467800Y-121377243D01*
X169871824Y-120973923D01*
X170090750Y-120446691D01*
X170091248Y-119875813D01*
X169873243Y-119348200D01*
X169469923Y-118944176D01*
X168942691Y-118725250D01*
X168371813Y-118724752D01*
X168294434Y-118756724D01*
X167841700Y-118303990D01*
X167841700Y-114842106D01*
X167991461Y-115066239D01*
X171155066Y-118229844D01*
X171114559Y-118255910D01*
X170969569Y-118468110D01*
X170918560Y-118720000D01*
X170918560Y-120520000D01*
X170962838Y-120755317D01*
X171101910Y-120971441D01*
X171314110Y-121116431D01*
X171566000Y-121167440D01*
X173366000Y-121167440D01*
X173601317Y-121123162D01*
X173817441Y-120984090D01*
X173962431Y-120771890D01*
X174013440Y-120520000D01*
X174013440Y-118720000D01*
X173969162Y-118484683D01*
X173830090Y-118268559D01*
X173617890Y-118123569D01*
X173378632Y-118075118D01*
X173334262Y-117852054D01*
X173130539Y-117547161D01*
X169595800Y-114012422D01*
X169595800Y-111092856D01*
X169670698Y-111042811D01*
X169981767Y-110577264D01*
X170091000Y-110028113D01*
X170091000Y-109971887D01*
X169981767Y-109422736D01*
X169670698Y-108957189D01*
X169595800Y-108907144D01*
X169595800Y-103831036D01*
X170752193Y-103831036D01*
X170782518Y-104321413D01*
X170874711Y-104543990D01*
X170803569Y-104648110D01*
X170752560Y-104900000D01*
X170752560Y-106100000D01*
X170796838Y-106335317D01*
X170935910Y-106551441D01*
X171148110Y-106696431D01*
X171400000Y-106747440D01*
X172600000Y-106747440D01*
X172835317Y-106703162D01*
X172976015Y-106612625D01*
X173168500Y-106805110D01*
X173168500Y-109050690D01*
X171945145Y-110274045D01*
X171785470Y-110513015D01*
X171762307Y-110629465D01*
X171380591Y-110884519D01*
X171047845Y-111382509D01*
X170931000Y-111969928D01*
X170931000Y-112030072D01*
X171047845Y-112617491D01*
X171380591Y-113115481D01*
X171878581Y-113448227D01*
X172466000Y-113565072D01*
X173053419Y-113448227D01*
X173551409Y-113115481D01*
X173884155Y-112617491D01*
X174001000Y-112030072D01*
X174001000Y-111969928D01*
X173884155Y-111382509D01*
X173551409Y-110884519D01*
X173471491Y-110831119D01*
X174425955Y-109876655D01*
X174468154Y-109813500D01*
X174585630Y-109637685D01*
X174641700Y-109355800D01*
X174641700Y-107236600D01*
X176035284Y-107236600D01*
X176113106Y-107424943D01*
X176572637Y-107885278D01*
X177173352Y-108134716D01*
X177823795Y-108135284D01*
X178424943Y-107886894D01*
X178885278Y-107427363D01*
X179134716Y-106826648D01*
X179134718Y-106823795D01*
X182364716Y-106823795D01*
X182613106Y-107424943D01*
X183072637Y-107885278D01*
X183673352Y-108134716D01*
X184323795Y-108135284D01*
X184924943Y-107886894D01*
X185385278Y-107427363D01*
X185634716Y-106826648D01*
X185635284Y-106176205D01*
X185386894Y-105575057D01*
X184927363Y-105114722D01*
X184326648Y-104865284D01*
X183676205Y-104864716D01*
X183075057Y-105113106D01*
X182614722Y-105572637D01*
X182365284Y-106173352D01*
X182364716Y-106823795D01*
X179134718Y-106823795D01*
X179135284Y-106176205D01*
X178886894Y-105575057D01*
X178427363Y-105114722D01*
X177826648Y-104865284D01*
X177176205Y-104864716D01*
X176575057Y-105113106D01*
X176114722Y-105572637D01*
X176035510Y-105763400D01*
X174210210Y-105763400D01*
X173425955Y-104979145D01*
X173238802Y-104854093D01*
X173203162Y-104664683D01*
X173121234Y-104537364D01*
X173247807Y-104168964D01*
X173217482Y-103678587D01*
X173088164Y-103366383D01*
X172862735Y-103316870D01*
X172179605Y-104000000D01*
X172193748Y-104014143D01*
X172014143Y-104193748D01*
X172000000Y-104179605D01*
X171985858Y-104193748D01*
X171806253Y-104014143D01*
X171820395Y-104000000D01*
X171137265Y-103316870D01*
X170911836Y-103366383D01*
X170752193Y-103831036D01*
X169595800Y-103831036D01*
X169595800Y-103137265D01*
X171316870Y-103137265D01*
X172000000Y-103820395D01*
X172667863Y-103152532D01*
X176527073Y-103152532D01*
X176625736Y-103419387D01*
X177235461Y-103645908D01*
X177885460Y-103621856D01*
X178374264Y-103419387D01*
X178472927Y-103152532D01*
X183027073Y-103152532D01*
X183125736Y-103419387D01*
X183735461Y-103645908D01*
X184385460Y-103621856D01*
X184874264Y-103419387D01*
X184972927Y-103152532D01*
X184000000Y-102179605D01*
X183027073Y-103152532D01*
X178472927Y-103152532D01*
X177500000Y-102179605D01*
X176527073Y-103152532D01*
X172667863Y-103152532D01*
X172683130Y-103137265D01*
X172633617Y-102911836D01*
X172168964Y-102752193D01*
X171678587Y-102782518D01*
X171366383Y-102911836D01*
X171316870Y-103137265D01*
X169595800Y-103137265D01*
X169595800Y-101735461D01*
X175854092Y-101735461D01*
X175878144Y-102385460D01*
X176080613Y-102874264D01*
X176347468Y-102972927D01*
X177320395Y-102000000D01*
X177679605Y-102000000D01*
X178652532Y-102972927D01*
X178919387Y-102874264D01*
X179145908Y-102264539D01*
X179126331Y-101735461D01*
X182354092Y-101735461D01*
X182378144Y-102385460D01*
X182580613Y-102874264D01*
X182847468Y-102972927D01*
X183820395Y-102000000D01*
X184179605Y-102000000D01*
X185152532Y-102972927D01*
X185419387Y-102874264D01*
X185645908Y-102264539D01*
X185621856Y-101614540D01*
X185419387Y-101125736D01*
X185152532Y-101027073D01*
X184179605Y-102000000D01*
X183820395Y-102000000D01*
X182847468Y-101027073D01*
X182580613Y-101125736D01*
X182354092Y-101735461D01*
X179126331Y-101735461D01*
X179121856Y-101614540D01*
X178919387Y-101125736D01*
X178652532Y-101027073D01*
X177679605Y-102000000D01*
X177320395Y-102000000D01*
X176347468Y-101027073D01*
X176080613Y-101125736D01*
X175854092Y-101735461D01*
X169595800Y-101735461D01*
X169595800Y-100847468D01*
X176527073Y-100847468D01*
X177500000Y-101820395D01*
X178472927Y-100847468D01*
X183027073Y-100847468D01*
X184000000Y-101820395D01*
X184972927Y-100847468D01*
X184874264Y-100580613D01*
X184264539Y-100354092D01*
X183614540Y-100378144D01*
X183125736Y-100580613D01*
X183027073Y-100847468D01*
X178472927Y-100847468D01*
X178374264Y-100580613D01*
X177764539Y-100354092D01*
X177114540Y-100378144D01*
X176625736Y-100580613D01*
X176527073Y-100847468D01*
X169595800Y-100847468D01*
X169595800Y-100741578D01*
X171744539Y-98592839D01*
X171948262Y-98287946D01*
X171962991Y-98213900D01*
X173184156Y-98213900D01*
X173186077Y-98215824D01*
X173713309Y-98434750D01*
X174284187Y-98435248D01*
X174811800Y-98217243D01*
X175215824Y-97813923D01*
X175434750Y-97286691D01*
X175435248Y-96715813D01*
X175217243Y-96188200D01*
X174813923Y-95784176D01*
X174747456Y-95756577D01*
X174754005Y-95753864D01*
X174828139Y-95507745D01*
X174000000Y-94679605D01*
X173171861Y-95507745D01*
X173245995Y-95753864D01*
X173252483Y-95756196D01*
X173188200Y-95782757D01*
X172784176Y-96186077D01*
X172722628Y-96334300D01*
X172463763Y-96334300D01*
X172405767Y-96042736D01*
X172114281Y-95606497D01*
X172664312Y-95056466D01*
X172746136Y-95254005D01*
X172992255Y-95328139D01*
X173820395Y-94500000D01*
X174179605Y-94500000D01*
X175007745Y-95328139D01*
X175253864Y-95254005D01*
X175446965Y-94716777D01*
X175419778Y-94146546D01*
X175253864Y-93745995D01*
X175007745Y-93671861D01*
X174179605Y-94500000D01*
X173820395Y-94500000D01*
X173806253Y-94485858D01*
X173985858Y-94306253D01*
X174000000Y-94320395D01*
X174828139Y-93492255D01*
X174754005Y-93246136D01*
X174216777Y-93053035D01*
X173795200Y-93073135D01*
X173795200Y-71562619D01*
X180644613Y-71562619D01*
X180984155Y-72384372D01*
X181612321Y-73013636D01*
X182433481Y-73354611D01*
X183322619Y-73355387D01*
X184144372Y-73015845D01*
X184773636Y-72387679D01*
X185114611Y-71566519D01*
X185115387Y-70677381D01*
X184775845Y-69855628D01*
X184147679Y-69226364D01*
X183326519Y-68885389D01*
X182437381Y-68884613D01*
X181615628Y-69224155D01*
X180986364Y-69852321D01*
X180645389Y-70673481D01*
X180644613Y-71562619D01*
X173795200Y-71562619D01*
X173795200Y-61855400D01*
X173723662Y-61495754D01*
X173519939Y-61190861D01*
X165434908Y-53105830D01*
X165435248Y-52715813D01*
X165399997Y-52630500D01*
X176486100Y-52630500D01*
X176767985Y-52574430D01*
X177006955Y-52414755D01*
X177347358Y-52074352D01*
X177430729Y-52493489D01*
X177755585Y-52979670D01*
X178070366Y-53190000D01*
X177755585Y-53400330D01*
X177430729Y-53886511D01*
X177316655Y-54460000D01*
X177430729Y-55033489D01*
X177755585Y-55519670D01*
X178070366Y-55730000D01*
X177755585Y-55940330D01*
X177430729Y-56426511D01*
X177316655Y-57000000D01*
X177430729Y-57573489D01*
X177755585Y-58059670D01*
X178070366Y-58270000D01*
X177755585Y-58480330D01*
X177430729Y-58966511D01*
X177316655Y-59540000D01*
X177430729Y-60113489D01*
X177755585Y-60599670D01*
X178241766Y-60924526D01*
X178815255Y-61038600D01*
X179184745Y-61038600D01*
X179758234Y-60924526D01*
X180244415Y-60599670D01*
X180569271Y-60113489D01*
X180683345Y-59540000D01*
X180569271Y-58966511D01*
X180244415Y-58480330D01*
X179929634Y-58270000D01*
X180244415Y-58059670D01*
X180569271Y-57573489D01*
X180683345Y-57000000D01*
X180569271Y-56426511D01*
X180244415Y-55940330D01*
X179929634Y-55730000D01*
X180244415Y-55519670D01*
X180569271Y-55033489D01*
X180683345Y-54460000D01*
X180569271Y-53886511D01*
X180244415Y-53400330D01*
X179929634Y-53190000D01*
X180244415Y-52979670D01*
X180569271Y-52493489D01*
X180683345Y-51920000D01*
X180569271Y-51346511D01*
X180244415Y-50860330D01*
X179929634Y-50650000D01*
X180244415Y-50439670D01*
X180569271Y-49953489D01*
X180683345Y-49380000D01*
X180569271Y-48806511D01*
X180244415Y-48320330D01*
X180222220Y-48305500D01*
X180375698Y-48241927D01*
X180554327Y-48063299D01*
X180651000Y-47829910D01*
X180651000Y-47125750D01*
X180492250Y-46967000D01*
X179127000Y-46967000D01*
X179127000Y-46987000D01*
X178873000Y-46987000D01*
X178873000Y-46967000D01*
X177507750Y-46967000D01*
X177349000Y-47125750D01*
X177349000Y-47829910D01*
X177445673Y-48063299D01*
X177624302Y-48241927D01*
X177777780Y-48305500D01*
X177755585Y-48320330D01*
X177430729Y-48806511D01*
X177316655Y-49380000D01*
X177429673Y-49948179D01*
X177310445Y-50027845D01*
X176180990Y-51157300D01*
X165288624Y-51157300D01*
X165446965Y-50716777D01*
X165419778Y-50146546D01*
X165253864Y-49745995D01*
X165007745Y-49671861D01*
X164179605Y-50500000D01*
X164193748Y-50514142D01*
X164014142Y-50693748D01*
X164000000Y-50679605D01*
X163985858Y-50693748D01*
X163806252Y-50514142D01*
X163820395Y-50500000D01*
X162992255Y-49671861D01*
X162746136Y-49745995D01*
X162553035Y-50283223D01*
X162580222Y-50853454D01*
X162746136Y-51254005D01*
X162992253Y-51328139D01*
X162958628Y-51361764D01*
X162941745Y-51373045D01*
X162280645Y-52034145D01*
X162120970Y-52273115D01*
X162064900Y-52555000D01*
X162064900Y-53557279D01*
X161629151Y-53266120D01*
X161080000Y-53156887D01*
X160530849Y-53266120D01*
X160065302Y-53577189D01*
X159810000Y-53959275D01*
X159554698Y-53577189D01*
X159089151Y-53266120D01*
X158540000Y-53156887D01*
X157990849Y-53266120D01*
X157525302Y-53577189D01*
X157270000Y-53959275D01*
X157014698Y-53577189D01*
X156549151Y-53266120D01*
X156000000Y-53156887D01*
X155450849Y-53266120D01*
X154985302Y-53577189D01*
X154730000Y-53959275D01*
X154474698Y-53577189D01*
X154009151Y-53266120D01*
X153460000Y-53156887D01*
X152910849Y-53266120D01*
X152445302Y-53577189D01*
X152190000Y-53959275D01*
X151934698Y-53577189D01*
X151469151Y-53266120D01*
X150920000Y-53156887D01*
X150370849Y-53266120D01*
X149905302Y-53577189D01*
X149650000Y-53959275D01*
X149394698Y-53577189D01*
X148929151Y-53266120D01*
X148380000Y-53156887D01*
X147830849Y-53266120D01*
X147365302Y-53577189D01*
X147110000Y-53959275D01*
X146854698Y-53577189D01*
X146389151Y-53266120D01*
X145840000Y-53156887D01*
X145403000Y-53243812D01*
X145403000Y-49583810D01*
X145494555Y-49492255D01*
X163171861Y-49492255D01*
X164000000Y-50320395D01*
X164828139Y-49492255D01*
X164754005Y-49246136D01*
X164216777Y-49053035D01*
X163646546Y-49080222D01*
X163245995Y-49246136D01*
X163171861Y-49492255D01*
X145494555Y-49492255D01*
X146360855Y-48625955D01*
X146520530Y-48386985D01*
X146548262Y-48247565D01*
X146854698Y-48042811D01*
X147110000Y-47660725D01*
X147365302Y-48042811D01*
X147830849Y-48353880D01*
X148380000Y-48463113D01*
X148929151Y-48353880D01*
X149394698Y-48042811D01*
X149664986Y-47638297D01*
X149767611Y-47855134D01*
X150182577Y-48231041D01*
X150570961Y-48391904D01*
X150793000Y-48269915D01*
X150793000Y-47127000D01*
X151047000Y-47127000D01*
X151047000Y-48269915D01*
X151269039Y-48391904D01*
X151657423Y-48231041D01*
X152072389Y-47855134D01*
X152190000Y-47606633D01*
X152307611Y-47855134D01*
X152722577Y-48231041D01*
X153110961Y-48391904D01*
X153333000Y-48269915D01*
X153333000Y-47127000D01*
X151047000Y-47127000D01*
X150793000Y-47127000D01*
X150773000Y-47127000D01*
X150773000Y-46873000D01*
X150793000Y-46873000D01*
X150793000Y-45730085D01*
X151047000Y-45730085D01*
X151047000Y-46873000D01*
X153333000Y-46873000D01*
X153333000Y-45730085D01*
X153587000Y-45730085D01*
X153587000Y-46873000D01*
X153607000Y-46873000D01*
X153607000Y-47127000D01*
X153587000Y-47127000D01*
X153587000Y-48269915D01*
X153809039Y-48391904D01*
X154197423Y-48231041D01*
X154612389Y-47855134D01*
X154715014Y-47638297D01*
X154985302Y-48042811D01*
X155450849Y-48353880D01*
X156000000Y-48463113D01*
X156549151Y-48353880D01*
X157014698Y-48042811D01*
X157270000Y-47660725D01*
X157525302Y-48042811D01*
X157990849Y-48353880D01*
X158540000Y-48463113D01*
X159089151Y-48353880D01*
X159554698Y-48042811D01*
X159651101Y-47898535D01*
X159676838Y-48035317D01*
X159815910Y-48251441D01*
X160028110Y-48396431D01*
X160280000Y-48447440D01*
X161880000Y-48447440D01*
X162115317Y-48403162D01*
X162331441Y-48264090D01*
X162476431Y-48051890D01*
X162527440Y-47800000D01*
X162527440Y-46200000D01*
X162483162Y-45964683D01*
X162409424Y-45850090D01*
X177349000Y-45850090D01*
X177349000Y-46554250D01*
X177507750Y-46713000D01*
X178873000Y-46713000D01*
X178873000Y-45500150D01*
X179127000Y-45500150D01*
X179127000Y-46713000D01*
X180492250Y-46713000D01*
X180651000Y-46554250D01*
X180651000Y-45850090D01*
X180554327Y-45616701D01*
X180375698Y-45438073D01*
X180142309Y-45341400D01*
X179285750Y-45341400D01*
X179127000Y-45500150D01*
X178873000Y-45500150D01*
X178714250Y-45341400D01*
X177857691Y-45341400D01*
X177624302Y-45438073D01*
X177445673Y-45616701D01*
X177349000Y-45850090D01*
X162409424Y-45850090D01*
X162344090Y-45748559D01*
X162131890Y-45603569D01*
X161880000Y-45552560D01*
X160280000Y-45552560D01*
X160044683Y-45596838D01*
X159828559Y-45735910D01*
X159683569Y-45948110D01*
X159652185Y-46103089D01*
X159554698Y-45957189D01*
X159089151Y-45646120D01*
X158540000Y-45536887D01*
X157990849Y-45646120D01*
X157525302Y-45957189D01*
X157270000Y-46339275D01*
X157014698Y-45957189D01*
X156549151Y-45646120D01*
X156000000Y-45536887D01*
X155450849Y-45646120D01*
X154985302Y-45957189D01*
X154715014Y-46361703D01*
X154612389Y-46144866D01*
X154197423Y-45768959D01*
X153809039Y-45608096D01*
X153587000Y-45730085D01*
X153333000Y-45730085D01*
X153110961Y-45608096D01*
X152722577Y-45768959D01*
X152307611Y-46144866D01*
X152190000Y-46393367D01*
X152072389Y-46144866D01*
X151657423Y-45768959D01*
X151269039Y-45608096D01*
X151047000Y-45730085D01*
X150793000Y-45730085D01*
X150570961Y-45608096D01*
X150182577Y-45768959D01*
X149767611Y-46144866D01*
X149664986Y-46361703D01*
X149394698Y-45957189D01*
X148929151Y-45646120D01*
X148380000Y-45536887D01*
X147830849Y-45646120D01*
X147365302Y-45957189D01*
X147110000Y-46339275D01*
X146854698Y-45957189D01*
X146389151Y-45646120D01*
X145840000Y-45536887D01*
X145290849Y-45646120D01*
X144825302Y-45957189D01*
X144555014Y-46361703D01*
X144452389Y-46144866D01*
X144037423Y-45768959D01*
X143649039Y-45608096D01*
X143427000Y-45730085D01*
X143427000Y-46873000D01*
X143447000Y-46873000D01*
X143447000Y-47127000D01*
X143427000Y-47127000D01*
X143427000Y-48269915D01*
X143649039Y-48391904D01*
X144037423Y-48231041D01*
X144452389Y-47855134D01*
X144555014Y-47638297D01*
X144825302Y-48042811D01*
X144846449Y-48056941D01*
X144145545Y-48757845D01*
X143985870Y-48996815D01*
X143929800Y-49278700D01*
X143929800Y-53320008D01*
X143849151Y-53266120D01*
X143300000Y-53156887D01*
X142750849Y-53266120D01*
X142285302Y-53577189D01*
X141974233Y-54042736D01*
X141865000Y-54591887D01*
X141865000Y-54648113D01*
X141974233Y-55197264D01*
X142285302Y-55662811D01*
X142750849Y-55973880D01*
X143300000Y-56083113D01*
X143849151Y-55973880D01*
X143929800Y-55919992D01*
X143929800Y-57159790D01*
X143319145Y-57770445D01*
X143159470Y-58009415D01*
X143134644Y-58134226D01*
X142780330Y-58370971D01*
X142455474Y-58857152D01*
X142341400Y-59430641D01*
X142341400Y-59489359D01*
X142455474Y-60062848D01*
X142780330Y-60549029D01*
X143051172Y-60730000D01*
X142780330Y-60910971D01*
X142455474Y-61397152D01*
X142341400Y-61970641D01*
X142341400Y-62029359D01*
X142455474Y-62602848D01*
X142780330Y-63089029D01*
X143266511Y-63413885D01*
X143840000Y-63527959D01*
X144413489Y-63413885D01*
X144899670Y-63089029D01*
X145110000Y-62774248D01*
X145320330Y-63089029D01*
X145806511Y-63413885D01*
X146380000Y-63527959D01*
X146953489Y-63413885D01*
X147439670Y-63089029D01*
X147650000Y-62774248D01*
X147860330Y-63089029D01*
X148346511Y-63413885D01*
X148920000Y-63527959D01*
X149493489Y-63413885D01*
X149979670Y-63089029D01*
X150190000Y-62774248D01*
X150400330Y-63089029D01*
X150529781Y-63175525D01*
X150483400Y-63408700D01*
X150483400Y-65771370D01*
X150261110Y-65919900D01*
X149658355Y-65317145D01*
X149419385Y-65157470D01*
X149137500Y-65101400D01*
X148178100Y-65101400D01*
X147896215Y-65157470D01*
X147657245Y-65317145D01*
X147072275Y-65902115D01*
X146689151Y-65646120D01*
X146140000Y-65536887D01*
X145590849Y-65646120D01*
X145125302Y-65957189D01*
X144870000Y-66339275D01*
X144614698Y-65957189D01*
X144149151Y-65646120D01*
X143600000Y-65536887D01*
X143050849Y-65646120D01*
X142585302Y-65957189D01*
X142298898Y-66385822D01*
X142217243Y-66188200D01*
X141813923Y-65784176D01*
X141286691Y-65565250D01*
X140715813Y-65564752D01*
X140188200Y-65782757D01*
X139784176Y-66186077D01*
X139565250Y-66713309D01*
X139564752Y-67284187D01*
X139782757Y-67811800D01*
X140186077Y-68215824D01*
X140252544Y-68243423D01*
X140245995Y-68246136D01*
X140171861Y-68492255D01*
X141000000Y-69320395D01*
X141828139Y-68492255D01*
X141754005Y-68246136D01*
X141747517Y-68243804D01*
X141811800Y-68217243D01*
X142215824Y-67813923D01*
X142298816Y-67614055D01*
X142585302Y-68042811D01*
X142660200Y-68092856D01*
X142660200Y-68308300D01*
X142731738Y-68667946D01*
X142935461Y-68972839D01*
X143240354Y-69176562D01*
X143422300Y-69212753D01*
X143422300Y-74748622D01*
X138424538Y-79746384D01*
X138419778Y-79646546D01*
X138253864Y-79245995D01*
X138007745Y-79171861D01*
X137179605Y-80000000D01*
X137193748Y-80014142D01*
X137014142Y-80193748D01*
X137000000Y-80179605D01*
X136985858Y-80193748D01*
X136806253Y-80014143D01*
X136820395Y-80000000D01*
X136806253Y-79985858D01*
X136985858Y-79806252D01*
X137000000Y-79820395D01*
X137828139Y-78992255D01*
X137754005Y-78746136D01*
X137216777Y-78553035D01*
X136646546Y-78580222D01*
X136584000Y-78606129D01*
X136584000Y-70507745D01*
X140171861Y-70507745D01*
X140245995Y-70753864D01*
X140783223Y-70946965D01*
X141353454Y-70919778D01*
X141754005Y-70753864D01*
X141828139Y-70507745D01*
X141000000Y-69679605D01*
X140171861Y-70507745D01*
X136584000Y-70507745D01*
X136584000Y-69283223D01*
X139553035Y-69283223D01*
X139580222Y-69853454D01*
X139746136Y-70254005D01*
X139992255Y-70328139D01*
X140820395Y-69500000D01*
X141179605Y-69500000D01*
X142007745Y-70328139D01*
X142253864Y-70254005D01*
X142446965Y-69716777D01*
X142419778Y-69146546D01*
X142253864Y-68745995D01*
X142007745Y-68671861D01*
X141179605Y-69500000D01*
X140820395Y-69500000D01*
X139992255Y-68671861D01*
X139746136Y-68745995D01*
X139553035Y-69283223D01*
X136584000Y-69283223D01*
X136584000Y-66539405D01*
X136584001Y-66539400D01*
X136532701Y-66281500D01*
X136527930Y-66257515D01*
X136368255Y-66018545D01*
X135668955Y-65319245D01*
X135429985Y-65159570D01*
X135148100Y-65103500D01*
X133786600Y-65103500D01*
X133786600Y-63357013D01*
X134320000Y-63463113D01*
X134869151Y-63353880D01*
X135334698Y-63042811D01*
X135645767Y-62577264D01*
X135658792Y-62511782D01*
X135782757Y-62811800D01*
X136186077Y-63215824D01*
X136713309Y-63434750D01*
X137284187Y-63435248D01*
X137811800Y-63217243D01*
X138215824Y-62813923D01*
X138434750Y-62286691D01*
X138435248Y-61715813D01*
X138217243Y-61188200D01*
X137813923Y-60784176D01*
X137747456Y-60756577D01*
X137754005Y-60753864D01*
X137828139Y-60507745D01*
X137000000Y-59679605D01*
X136171861Y-60507745D01*
X136245995Y-60753864D01*
X136252483Y-60756196D01*
X136188200Y-60782757D01*
X135784176Y-61186077D01*
X135658768Y-61488094D01*
X135645767Y-61422736D01*
X135334698Y-60957189D01*
X134869151Y-60646120D01*
X134320000Y-60536887D01*
X133786600Y-60642987D01*
X133786600Y-59283223D01*
X135553035Y-59283223D01*
X135580222Y-59853454D01*
X135746136Y-60254005D01*
X135992255Y-60328139D01*
X136820395Y-59500000D01*
X137179605Y-59500000D01*
X138007745Y-60328139D01*
X138253864Y-60254005D01*
X138446965Y-59716777D01*
X138419778Y-59146546D01*
X138253864Y-58745995D01*
X138007745Y-58671861D01*
X137179605Y-59500000D01*
X136820395Y-59500000D01*
X135992255Y-58671861D01*
X135746136Y-58745995D01*
X135553035Y-59283223D01*
X133786600Y-59283223D01*
X133786600Y-58492255D01*
X136171861Y-58492255D01*
X137000000Y-59320395D01*
X137828139Y-58492255D01*
X137754005Y-58246136D01*
X137216777Y-58053035D01*
X136646546Y-58080222D01*
X136245995Y-58246136D01*
X136171861Y-58492255D01*
X133786600Y-58492255D01*
X133786600Y-49135100D01*
X133730530Y-48853215D01*
X133570855Y-48614245D01*
X132773551Y-47816941D01*
X132794698Y-47802811D01*
X132891101Y-47658535D01*
X132916838Y-47795317D01*
X133055910Y-48011441D01*
X133268110Y-48156431D01*
X133520000Y-48207440D01*
X135120000Y-48207440D01*
X135355317Y-48163162D01*
X135571441Y-48024090D01*
X135716431Y-47811890D01*
X135767440Y-47560000D01*
X135767440Y-47349041D01*
X141908086Y-47349041D01*
X142147611Y-47855134D01*
X142562577Y-48231041D01*
X142950961Y-48391904D01*
X143173000Y-48269915D01*
X143173000Y-47127000D01*
X142029371Y-47127000D01*
X141908086Y-47349041D01*
X135767440Y-47349041D01*
X135767440Y-46650959D01*
X141908086Y-46650959D01*
X142029371Y-46873000D01*
X143173000Y-46873000D01*
X143173000Y-45730085D01*
X142950961Y-45608096D01*
X142562577Y-45768959D01*
X142147611Y-46144866D01*
X141908086Y-46650959D01*
X135767440Y-46650959D01*
X135767440Y-45960000D01*
X135723162Y-45724683D01*
X135584090Y-45508559D01*
X135371890Y-45363569D01*
X135120000Y-45312560D01*
X133520000Y-45312560D01*
X133284683Y-45356838D01*
X133068559Y-45495910D01*
X132923569Y-45708110D01*
X132892185Y-45863089D01*
X132794698Y-45717189D01*
X132329151Y-45406120D01*
X131780000Y-45296887D01*
X131230849Y-45406120D01*
X130765302Y-45717189D01*
X130510000Y-46099275D01*
X130254698Y-45717189D01*
X129789151Y-45406120D01*
X129240000Y-45296887D01*
X128690849Y-45406120D01*
X128225302Y-45717189D01*
X127970000Y-46099275D01*
X127714698Y-45717189D01*
X127249151Y-45406120D01*
X126700000Y-45296887D01*
X126150849Y-45406120D01*
X125685302Y-45717189D01*
X125430000Y-46099275D01*
X125174698Y-45717189D01*
X124709151Y-45406120D01*
X124160000Y-45296887D01*
X123610849Y-45406120D01*
X123145302Y-45717189D01*
X122890000Y-46099275D01*
X122634698Y-45717189D01*
X122169151Y-45406120D01*
X121620000Y-45296887D01*
X121070849Y-45406120D01*
X120605302Y-45717189D01*
X120350000Y-46099275D01*
X120094698Y-45717189D01*
X119629151Y-45406120D01*
X119080000Y-45296887D01*
X118530849Y-45406120D01*
X118065302Y-45717189D01*
X117810000Y-46099275D01*
X117554698Y-45717189D01*
X117089151Y-45406120D01*
X116540000Y-45296887D01*
X115990849Y-45406120D01*
X115525302Y-45717189D01*
X115270000Y-46099275D01*
X115014698Y-45717189D01*
X114549151Y-45406120D01*
X114000000Y-45296887D01*
X113450849Y-45406120D01*
X112985302Y-45717189D01*
X112730000Y-46099275D01*
X112474698Y-45717189D01*
X112009151Y-45406120D01*
X111460000Y-45296887D01*
X110910849Y-45406120D01*
X110445302Y-45717189D01*
X110190000Y-46099275D01*
X109934698Y-45717189D01*
X109469151Y-45406120D01*
X108920000Y-45296887D01*
X108370849Y-45406120D01*
X107905302Y-45717189D01*
X107650000Y-46099275D01*
X107394698Y-45717189D01*
X106929151Y-45406120D01*
X106380000Y-45296887D01*
X105830849Y-45406120D01*
X105365302Y-45717189D01*
X105110000Y-46099275D01*
X104854698Y-45717189D01*
X104389151Y-45406120D01*
X103840000Y-45296887D01*
X103290849Y-45406120D01*
X102825302Y-45717189D01*
X102555014Y-46121703D01*
X102452389Y-45904866D01*
X102037423Y-45528959D01*
X101649039Y-45368096D01*
X101427000Y-45490085D01*
X101427000Y-46633000D01*
X101447000Y-46633000D01*
X101447000Y-46887000D01*
X101427000Y-46887000D01*
X101427000Y-48029915D01*
X101649039Y-48151904D01*
X102037423Y-47991041D01*
X102452389Y-47615134D01*
X102555014Y-47398297D01*
X102825302Y-47802811D01*
X102846449Y-47816941D01*
X102210745Y-48452645D01*
X102051070Y-48691615D01*
X101995000Y-48973500D01*
X101995000Y-60743573D01*
X101849151Y-60646120D01*
X101300000Y-60536887D01*
X100750849Y-60646120D01*
X100285302Y-60957189D01*
X99974233Y-61422736D01*
X99865000Y-61971887D01*
X99865000Y-62028113D01*
X99974233Y-62577264D01*
X100285302Y-63042811D01*
X100563400Y-63228630D01*
X100563400Y-64909000D01*
X100619470Y-65190885D01*
X100779145Y-65429855D01*
X101062762Y-65713472D01*
X100870961Y-65608096D01*
X100482577Y-65768959D01*
X100067611Y-66144866D01*
X99828086Y-66650959D01*
X99949371Y-66873000D01*
X101093000Y-66873000D01*
X101093000Y-66853000D01*
X101347000Y-66853000D01*
X101347000Y-66873000D01*
X101367000Y-66873000D01*
X101367000Y-67127000D01*
X101347000Y-67127000D01*
X101347000Y-68269915D01*
X101569039Y-68391904D01*
X101596600Y-68380489D01*
X101596600Y-79716590D01*
X100699145Y-80614045D01*
X100539470Y-80853015D01*
X100511738Y-80992435D01*
X100205302Y-81197189D01*
X99894233Y-81662736D01*
X99785000Y-82211887D01*
X99785000Y-82268113D01*
X99894233Y-82817264D01*
X100205302Y-83282811D01*
X100670849Y-83593880D01*
X101220000Y-83703113D01*
X101769151Y-83593880D01*
X102234698Y-83282811D01*
X102490000Y-82900725D01*
X102745302Y-83282811D01*
X103210849Y-83593880D01*
X103760000Y-83703113D01*
X104309151Y-83593880D01*
X104443000Y-83504445D01*
X104443000Y-84863800D01*
X104499070Y-85145685D01*
X104658745Y-85384655D01*
X106389000Y-87114910D01*
X106389000Y-91831622D01*
X105779800Y-91222422D01*
X105779800Y-89083528D01*
X105882811Y-89014698D01*
X106193880Y-88549151D01*
X106303113Y-88000000D01*
X106193880Y-87450849D01*
X105882811Y-86985302D01*
X105417264Y-86674233D01*
X104868113Y-86565000D01*
X104811887Y-86565000D01*
X104262736Y-86674233D01*
X103797189Y-86985302D01*
X103486120Y-87450849D01*
X103376887Y-88000000D01*
X103486120Y-88549151D01*
X103797189Y-89014698D01*
X103900200Y-89083528D01*
X103900200Y-91611700D01*
X103971738Y-91971346D01*
X104175461Y-92276239D01*
X104885719Y-92986497D01*
X104650000Y-93339275D01*
X104394698Y-92957189D01*
X103929151Y-92646120D01*
X103380000Y-92536887D01*
X102830849Y-92646120D01*
X102365302Y-92957189D01*
X102110000Y-93339275D01*
X101854698Y-92957189D01*
X101389151Y-92646120D01*
X100840000Y-92536887D01*
X100290849Y-92646120D01*
X99825302Y-92957189D01*
X99570000Y-93339275D01*
X99314698Y-92957189D01*
X98849151Y-92646120D01*
X98300000Y-92536887D01*
X97750849Y-92646120D01*
X97285302Y-92957189D01*
X96974233Y-93422736D01*
X96865000Y-93971887D01*
X96865000Y-94028113D01*
X96974233Y-94577264D01*
X97285302Y-95042811D01*
X97591738Y-95247565D01*
X97619470Y-95386985D01*
X97779145Y-95625955D01*
X98668500Y-96515310D01*
X98668500Y-107850186D01*
X98300000Y-107776887D01*
X97750849Y-107886120D01*
X97285302Y-108197189D01*
X96974233Y-108662736D01*
X96865000Y-109211887D01*
X96865000Y-109268113D01*
X96974233Y-109817264D01*
X97285302Y-110282811D01*
X97563400Y-110468630D01*
X97563400Y-113018490D01*
X96673345Y-113908545D01*
X96513670Y-114147515D01*
X96457600Y-114429400D01*
X89027000Y-114429400D01*
X89027000Y-71722619D01*
X91074613Y-71722619D01*
X91414155Y-72544372D01*
X92042321Y-73173636D01*
X92863481Y-73514611D01*
X93752619Y-73515387D01*
X94574372Y-73175845D01*
X95203636Y-72547679D01*
X95544611Y-71726519D01*
X95545387Y-70837381D01*
X95205845Y-70015628D01*
X94577679Y-69386364D01*
X93756519Y-69045389D01*
X92867381Y-69044613D01*
X92045628Y-69384155D01*
X91416364Y-70012321D01*
X91075389Y-70833481D01*
X91074613Y-71722619D01*
X89027000Y-71722619D01*
X89027000Y-67349041D01*
X99828086Y-67349041D01*
X100067611Y-67855134D01*
X100482577Y-68231041D01*
X100870961Y-68391904D01*
X101093000Y-68269915D01*
X101093000Y-67127000D01*
X99949371Y-67127000D01*
X99828086Y-67349041D01*
X89027000Y-67349041D01*
X89027000Y-47109041D01*
X99908086Y-47109041D01*
X100147611Y-47615134D01*
X100562577Y-47991041D01*
X100950961Y-48151904D01*
X101173000Y-48029915D01*
X101173000Y-46887000D01*
X100029371Y-46887000D01*
X99908086Y-47109041D01*
X89027000Y-47109041D01*
X89027000Y-46410959D01*
X99908086Y-46410959D01*
X100029371Y-46633000D01*
X101173000Y-46633000D01*
X101173000Y-45490085D01*
X100950961Y-45368096D01*
X100562577Y-45528959D01*
X100147611Y-45904866D01*
X99908086Y-46410959D01*
X89027000Y-46410959D01*
X89027000Y-42710000D01*
X94789593Y-42710000D01*
X187198000Y-43306183D01*
G36*
X166368500Y-118609100D02*
X166424570Y-118890985D01*
X166584245Y-119129955D01*
X167252453Y-119798163D01*
X167221250Y-119873309D01*
X167220752Y-120444187D01*
X167438757Y-120971800D01*
X167842077Y-121375824D01*
X167919400Y-121407931D01*
X167919400Y-123227390D01*
X167376068Y-123770722D01*
X167302068Y-123591629D01*
X166870643Y-123159449D01*
X166306670Y-122925267D01*
X165696009Y-122924735D01*
X165131629Y-123157932D01*
X164699449Y-123589357D01*
X164465267Y-124153330D01*
X164464735Y-124763991D01*
X164586300Y-125058200D01*
X163092200Y-125058200D01*
X162810315Y-125114270D01*
X162571345Y-125273945D01*
X157984528Y-129860762D01*
X157573489Y-129586115D01*
X157000000Y-129472041D01*
X156466600Y-129578141D01*
X156466600Y-124995964D01*
X156686077Y-125215824D01*
X157213309Y-125434750D01*
X157784187Y-125435248D01*
X158311800Y-125217243D01*
X158521663Y-125007745D01*
X159171861Y-125007745D01*
X159245995Y-125253864D01*
X159783223Y-125446965D01*
X160353454Y-125419778D01*
X160754005Y-125253864D01*
X160828139Y-125007745D01*
X160000000Y-124179605D01*
X159171861Y-125007745D01*
X158521663Y-125007745D01*
X158715824Y-124813923D01*
X158743423Y-124747456D01*
X158746136Y-124754005D01*
X158992255Y-124828139D01*
X159820395Y-124000000D01*
X160179605Y-124000000D01*
X161007745Y-124828139D01*
X161253864Y-124754005D01*
X161446965Y-124216777D01*
X161419778Y-123646546D01*
X161253864Y-123245995D01*
X161007745Y-123171861D01*
X160179605Y-124000000D01*
X159820395Y-124000000D01*
X158992255Y-123171861D01*
X158746136Y-123245995D01*
X158743804Y-123252483D01*
X158717243Y-123188200D01*
X158521640Y-122992255D01*
X159171861Y-122992255D01*
X160000000Y-123820395D01*
X160828139Y-122992255D01*
X160754005Y-122746136D01*
X160216777Y-122553035D01*
X159646546Y-122580222D01*
X159245995Y-122746136D01*
X159171861Y-122992255D01*
X158521640Y-122992255D01*
X158313923Y-122784176D01*
X157786691Y-122565250D01*
X157215813Y-122564752D01*
X156688200Y-122782757D01*
X156466600Y-123003971D01*
X156466600Y-122777610D01*
X158800023Y-120444187D01*
X163564752Y-120444187D01*
X163782757Y-120971800D01*
X164186077Y-121375824D01*
X164713309Y-121594750D01*
X165284187Y-121595248D01*
X165811800Y-121377243D01*
X166215824Y-120973923D01*
X166434750Y-120446691D01*
X166435248Y-119875813D01*
X166217243Y-119348200D01*
X165813923Y-118944176D01*
X165286691Y-118725250D01*
X164715813Y-118724752D01*
X164188200Y-118942757D01*
X163784176Y-119346077D01*
X163565250Y-119873309D01*
X163564752Y-120444187D01*
X158800023Y-120444187D01*
X159270855Y-119973355D01*
X159430530Y-119734385D01*
X159486600Y-119452500D01*
X159486600Y-119340347D01*
X159783223Y-119446965D01*
X160353454Y-119419778D01*
X160754005Y-119253864D01*
X160828139Y-119007745D01*
X160000000Y-118179605D01*
X159985858Y-118193748D01*
X159806253Y-118014143D01*
X159820395Y-118000000D01*
X160179605Y-118000000D01*
X161007745Y-118828139D01*
X161253864Y-118754005D01*
X161446965Y-118216777D01*
X161419778Y-117646546D01*
X161253864Y-117245995D01*
X161007745Y-117171861D01*
X160179605Y-118000000D01*
X159820395Y-118000000D01*
X159806253Y-117985858D01*
X159985858Y-117806252D01*
X160000000Y-117820395D01*
X160828139Y-116992255D01*
X160754005Y-116746136D01*
X160216777Y-116553035D01*
X159646546Y-116580222D01*
X159486600Y-116646474D01*
X159486600Y-115555110D01*
X162164755Y-112876955D01*
X162184189Y-112847870D01*
X162324430Y-112637985D01*
X162380500Y-112356100D01*
X162380500Y-112048810D01*
X163745455Y-110683855D01*
X163985302Y-111042811D01*
X164450849Y-111353880D01*
X165000000Y-111463113D01*
X165549151Y-111353880D01*
X166014698Y-111042811D01*
X166325767Y-110577264D01*
X166368500Y-110362431D01*
X166368500Y-118609100D01*
X166368500Y-118609100D01*
G37*
X166368500Y-118609100D02*
X166424570Y-118890985D01*
X166584245Y-119129955D01*
X167252453Y-119798163D01*
X167221250Y-119873309D01*
X167220752Y-120444187D01*
X167438757Y-120971800D01*
X167842077Y-121375824D01*
X167919400Y-121407931D01*
X167919400Y-123227390D01*
X167376068Y-123770722D01*
X167302068Y-123591629D01*
X166870643Y-123159449D01*
X166306670Y-122925267D01*
X165696009Y-122924735D01*
X165131629Y-123157932D01*
X164699449Y-123589357D01*
X164465267Y-124153330D01*
X164464735Y-124763991D01*
X164586300Y-125058200D01*
X163092200Y-125058200D01*
X162810315Y-125114270D01*
X162571345Y-125273945D01*
X157984528Y-129860762D01*
X157573489Y-129586115D01*
X157000000Y-129472041D01*
X156466600Y-129578141D01*
X156466600Y-124995964D01*
X156686077Y-125215824D01*
X157213309Y-125434750D01*
X157784187Y-125435248D01*
X158311800Y-125217243D01*
X158521663Y-125007745D01*
X159171861Y-125007745D01*
X159245995Y-125253864D01*
X159783223Y-125446965D01*
X160353454Y-125419778D01*
X160754005Y-125253864D01*
X160828139Y-125007745D01*
X160000000Y-124179605D01*
X159171861Y-125007745D01*
X158521663Y-125007745D01*
X158715824Y-124813923D01*
X158743423Y-124747456D01*
X158746136Y-124754005D01*
X158992255Y-124828139D01*
X159820395Y-124000000D01*
X160179605Y-124000000D01*
X161007745Y-124828139D01*
X161253864Y-124754005D01*
X161446965Y-124216777D01*
X161419778Y-123646546D01*
X161253864Y-123245995D01*
X161007745Y-123171861D01*
X160179605Y-124000000D01*
X159820395Y-124000000D01*
X158992255Y-123171861D01*
X158746136Y-123245995D01*
X158743804Y-123252483D01*
X158717243Y-123188200D01*
X158521640Y-122992255D01*
X159171861Y-122992255D01*
X160000000Y-123820395D01*
X160828139Y-122992255D01*
X160754005Y-122746136D01*
X160216777Y-122553035D01*
X159646546Y-122580222D01*
X159245995Y-122746136D01*
X159171861Y-122992255D01*
X158521640Y-122992255D01*
X158313923Y-122784176D01*
X157786691Y-122565250D01*
X157215813Y-122564752D01*
X156688200Y-122782757D01*
X156466600Y-123003971D01*
X156466600Y-122777610D01*
X158800023Y-120444187D01*
X163564752Y-120444187D01*
X163782757Y-120971800D01*
X164186077Y-121375824D01*
X164713309Y-121594750D01*
X165284187Y-121595248D01*
X165811800Y-121377243D01*
X166215824Y-120973923D01*
X166434750Y-120446691D01*
X166435248Y-119875813D01*
X166217243Y-119348200D01*
X165813923Y-118944176D01*
X165286691Y-118725250D01*
X164715813Y-118724752D01*
X164188200Y-118942757D01*
X163784176Y-119346077D01*
X163565250Y-119873309D01*
X163564752Y-120444187D01*
X158800023Y-120444187D01*
X159270855Y-119973355D01*
X159430530Y-119734385D01*
X159486600Y-119452500D01*
X159486600Y-119340347D01*
X159783223Y-119446965D01*
X160353454Y-119419778D01*
X160754005Y-119253864D01*
X160828139Y-119007745D01*
X160000000Y-118179605D01*
X159985858Y-118193748D01*
X159806253Y-118014143D01*
X159820395Y-118000000D01*
X160179605Y-118000000D01*
X161007745Y-118828139D01*
X161253864Y-118754005D01*
X161446965Y-118216777D01*
X161419778Y-117646546D01*
X161253864Y-117245995D01*
X161007745Y-117171861D01*
X160179605Y-118000000D01*
X159820395Y-118000000D01*
X159806253Y-117985858D01*
X159985858Y-117806252D01*
X160000000Y-117820395D01*
X160828139Y-116992255D01*
X160754005Y-116746136D01*
X160216777Y-116553035D01*
X159646546Y-116580222D01*
X159486600Y-116646474D01*
X159486600Y-115555110D01*
X162164755Y-112876955D01*
X162184189Y-112847870D01*
X162324430Y-112637985D01*
X162380500Y-112356100D01*
X162380500Y-112048810D01*
X163745455Y-110683855D01*
X163985302Y-111042811D01*
X164450849Y-111353880D01*
X165000000Y-111463113D01*
X165549151Y-111353880D01*
X166014698Y-111042811D01*
X166325767Y-110577264D01*
X166368500Y-110362431D01*
X166368500Y-118609100D01*
G36*
X131940815Y-119211870D02*
X131701845Y-119371545D01*
X129529002Y-121544388D01*
X129357423Y-121388959D01*
X128969039Y-121228096D01*
X128747000Y-121350085D01*
X128747000Y-122493000D01*
X128767000Y-122493000D01*
X128767000Y-122747000D01*
X128747000Y-122747000D01*
X128747000Y-122767000D01*
X128493000Y-122767000D01*
X128493000Y-122747000D01*
X128473000Y-122747000D01*
X128473000Y-122493000D01*
X128493000Y-122493000D01*
X128493000Y-121350085D01*
X128270961Y-121228096D01*
X128086600Y-121304456D01*
X128086600Y-120449310D01*
X128241842Y-120294068D01*
X128493384Y-120294287D01*
X128890289Y-120130289D01*
X129194222Y-119826886D01*
X129358913Y-119430268D01*
X129359112Y-119201600D01*
X131992446Y-119201600D01*
X131940815Y-119211870D01*
X131940815Y-119211870D01*
G37*
X131940815Y-119211870D02*
X131701845Y-119371545D01*
X129529002Y-121544388D01*
X129357423Y-121388959D01*
X128969039Y-121228096D01*
X128747000Y-121350085D01*
X128747000Y-122493000D01*
X128767000Y-122493000D01*
X128767000Y-122747000D01*
X128747000Y-122747000D01*
X128747000Y-122767000D01*
X128493000Y-122767000D01*
X128493000Y-122747000D01*
X128473000Y-122747000D01*
X128473000Y-122493000D01*
X128493000Y-122493000D01*
X128493000Y-121350085D01*
X128270961Y-121228096D01*
X128086600Y-121304456D01*
X128086600Y-120449310D01*
X128241842Y-120294068D01*
X128493384Y-120294287D01*
X128890289Y-120130289D01*
X129194222Y-119826886D01*
X129358913Y-119430268D01*
X129359112Y-119201600D01*
X131992446Y-119201600D01*
X131940815Y-119211870D01*
G36*
X135550545Y-120676545D02*
X134647672Y-121579418D01*
X134437423Y-121388959D01*
X134049039Y-121228096D01*
X133827000Y-121350085D01*
X133827000Y-122493000D01*
X133847000Y-122493000D01*
X133847000Y-122747000D01*
X133827000Y-122747000D01*
X133827000Y-122767000D01*
X133573000Y-122767000D01*
X133573000Y-122747000D01*
X133553000Y-122747000D01*
X133553000Y-122493000D01*
X133573000Y-122493000D01*
X133573000Y-121350085D01*
X133350961Y-121228096D01*
X132962577Y-121388959D01*
X132547611Y-121764866D01*
X132444986Y-121981703D01*
X132174698Y-121577189D01*
X131817976Y-121338834D01*
X132527810Y-120629000D01*
X135621701Y-120629000D01*
X135550545Y-120676545D01*
X135550545Y-120676545D01*
G37*
X135550545Y-120676545D02*
X134647672Y-121579418D01*
X134437423Y-121388959D01*
X134049039Y-121228096D01*
X133827000Y-121350085D01*
X133827000Y-122493000D01*
X133847000Y-122493000D01*
X133847000Y-122747000D01*
X133827000Y-122747000D01*
X133827000Y-122767000D01*
X133573000Y-122767000D01*
X133573000Y-122747000D01*
X133553000Y-122747000D01*
X133553000Y-122493000D01*
X133573000Y-122493000D01*
X133573000Y-121350085D01*
X133350961Y-121228096D01*
X132962577Y-121388959D01*
X132547611Y-121764866D01*
X132444986Y-121981703D01*
X132174698Y-121577189D01*
X131817976Y-121338834D01*
X132527810Y-120629000D01*
X135621701Y-120629000D01*
X135550545Y-120676545D01*
G36*
X98427000Y-114873000D02*
X98447000Y-114873000D01*
X98447000Y-115127000D01*
X98427000Y-115127000D01*
X98427000Y-116269915D01*
X98649039Y-116391904D01*
X98668500Y-116383844D01*
X98668500Y-117540000D01*
X98724570Y-117821885D01*
X98884245Y-118060855D01*
X102386449Y-121563059D01*
X102365302Y-121577189D01*
X102110000Y-121959275D01*
X101854698Y-121577189D01*
X101548262Y-121372435D01*
X101520530Y-121233015D01*
X101360855Y-120994045D01*
X97930800Y-117563990D01*
X97930800Y-116383554D01*
X97950961Y-116391904D01*
X98173000Y-116269915D01*
X98173000Y-115127000D01*
X98153000Y-115127000D01*
X98153000Y-114873000D01*
X98173000Y-114873000D01*
X98173000Y-114853000D01*
X98427000Y-114853000D01*
X98427000Y-114873000D01*
X98427000Y-114873000D01*
G37*
X98427000Y-114873000D02*
X98447000Y-114873000D01*
X98447000Y-115127000D01*
X98427000Y-115127000D01*
X98427000Y-116269915D01*
X98649039Y-116391904D01*
X98668500Y-116383844D01*
X98668500Y-117540000D01*
X98724570Y-117821885D01*
X98884245Y-118060855D01*
X102386449Y-121563059D01*
X102365302Y-121577189D01*
X102110000Y-121959275D01*
X101854698Y-121577189D01*
X101548262Y-121372435D01*
X101520530Y-121233015D01*
X101360855Y-120994045D01*
X97930800Y-117563990D01*
X97930800Y-116383554D01*
X97950961Y-116391904D01*
X98173000Y-116269915D01*
X98173000Y-115127000D01*
X98153000Y-115127000D01*
X98153000Y-114873000D01*
X98173000Y-114873000D01*
X98173000Y-114853000D01*
X98427000Y-114853000D01*
X98427000Y-114873000D01*
G36*
X121905670Y-110682985D02*
X122065345Y-110921955D01*
X125086449Y-113943059D01*
X125065302Y-113957189D01*
X124810000Y-114339275D01*
X124554698Y-113957189D01*
X124089151Y-113646120D01*
X123540000Y-113536887D01*
X122990849Y-113646120D01*
X122525302Y-113957189D01*
X122255014Y-114361703D01*
X122152389Y-114144866D01*
X121737423Y-113768959D01*
X121349039Y-113608096D01*
X121127000Y-113730085D01*
X121127000Y-114873000D01*
X121147000Y-114873000D01*
X121147000Y-115127000D01*
X121127000Y-115127000D01*
X121127000Y-116269915D01*
X121349039Y-116391904D01*
X121737423Y-116231041D01*
X122152389Y-115855134D01*
X122255014Y-115638297D01*
X122525302Y-116042811D01*
X122990849Y-116353880D01*
X123540000Y-116463113D01*
X123583912Y-116454378D01*
X118256085Y-121782205D01*
X118217243Y-121688200D01*
X117813923Y-121284176D01*
X117747456Y-121256577D01*
X117754005Y-121253864D01*
X117828139Y-121007745D01*
X117000000Y-120179605D01*
X116985858Y-120193748D01*
X116806253Y-120014143D01*
X116820395Y-120000000D01*
X117179605Y-120000000D01*
X118007745Y-120828139D01*
X118253864Y-120754005D01*
X118446965Y-120216777D01*
X118419778Y-119646546D01*
X118253864Y-119245995D01*
X118007745Y-119171861D01*
X117179605Y-120000000D01*
X116820395Y-120000000D01*
X116806253Y-119985858D01*
X116985858Y-119806253D01*
X117000000Y-119820395D01*
X117828139Y-118992255D01*
X117754005Y-118746136D01*
X117216777Y-118553035D01*
X116646546Y-118580222D01*
X116631400Y-118586496D01*
X116631400Y-117912610D01*
X119194969Y-115349041D01*
X119608086Y-115349041D01*
X119847611Y-115855134D01*
X120262577Y-116231041D01*
X120650961Y-116391904D01*
X120873000Y-116269915D01*
X120873000Y-115127000D01*
X119729371Y-115127000D01*
X119608086Y-115349041D01*
X119194969Y-115349041D01*
X119708754Y-114835256D01*
X119729371Y-114873000D01*
X120873000Y-114873000D01*
X120873000Y-113730085D01*
X120650961Y-113608096D01*
X120625324Y-113618714D01*
X120626600Y-113612300D01*
X120626600Y-110597013D01*
X121160000Y-110703113D01*
X121709151Y-110593880D01*
X121866971Y-110488428D01*
X121905670Y-110682985D01*
X121905670Y-110682985D01*
G37*
X121905670Y-110682985D02*
X122065345Y-110921955D01*
X125086449Y-113943059D01*
X125065302Y-113957189D01*
X124810000Y-114339275D01*
X124554698Y-113957189D01*
X124089151Y-113646120D01*
X123540000Y-113536887D01*
X122990849Y-113646120D01*
X122525302Y-113957189D01*
X122255014Y-114361703D01*
X122152389Y-114144866D01*
X121737423Y-113768959D01*
X121349039Y-113608096D01*
X121127000Y-113730085D01*
X121127000Y-114873000D01*
X121147000Y-114873000D01*
X121147000Y-115127000D01*
X121127000Y-115127000D01*
X121127000Y-116269915D01*
X121349039Y-116391904D01*
X121737423Y-116231041D01*
X122152389Y-115855134D01*
X122255014Y-115638297D01*
X122525302Y-116042811D01*
X122990849Y-116353880D01*
X123540000Y-116463113D01*
X123583912Y-116454378D01*
X118256085Y-121782205D01*
X118217243Y-121688200D01*
X117813923Y-121284176D01*
X117747456Y-121256577D01*
X117754005Y-121253864D01*
X117828139Y-121007745D01*
X117000000Y-120179605D01*
X116985858Y-120193748D01*
X116806253Y-120014143D01*
X116820395Y-120000000D01*
X117179605Y-120000000D01*
X118007745Y-120828139D01*
X118253864Y-120754005D01*
X118446965Y-120216777D01*
X118419778Y-119646546D01*
X118253864Y-119245995D01*
X118007745Y-119171861D01*
X117179605Y-120000000D01*
X116820395Y-120000000D01*
X116806253Y-119985858D01*
X116985858Y-119806253D01*
X117000000Y-119820395D01*
X117828139Y-118992255D01*
X117754005Y-118746136D01*
X117216777Y-118553035D01*
X116646546Y-118580222D01*
X116631400Y-118586496D01*
X116631400Y-117912610D01*
X119194969Y-115349041D01*
X119608086Y-115349041D01*
X119847611Y-115855134D01*
X120262577Y-116231041D01*
X120650961Y-116391904D01*
X120873000Y-116269915D01*
X120873000Y-115127000D01*
X119729371Y-115127000D01*
X119608086Y-115349041D01*
X119194969Y-115349041D01*
X119708754Y-114835256D01*
X119729371Y-114873000D01*
X120873000Y-114873000D01*
X120873000Y-113730085D01*
X120650961Y-113608096D01*
X120625324Y-113618714D01*
X120626600Y-113612300D01*
X120626600Y-110597013D01*
X121160000Y-110703113D01*
X121709151Y-110593880D01*
X121866971Y-110488428D01*
X121905670Y-110682985D01*
G36*
X142674233Y-115417264D02*
X142985302Y-115882811D01*
X143450849Y-116193880D01*
X144000000Y-116303113D01*
X144306804Y-116242086D01*
X141268225Y-119280665D01*
X141253864Y-119245995D01*
X141007745Y-119171861D01*
X140179605Y-120000000D01*
X140193748Y-120014142D01*
X140014142Y-120193748D01*
X140000000Y-120179605D01*
X139985858Y-120193748D01*
X139806252Y-120014142D01*
X139820395Y-120000000D01*
X139806253Y-119985858D01*
X139985858Y-119806253D01*
X140000000Y-119820395D01*
X140291029Y-119529366D01*
X140484855Y-119399855D01*
X141393055Y-118491655D01*
X141440332Y-118420900D01*
X141552730Y-118252685D01*
X141608800Y-117970800D01*
X141608800Y-116338010D01*
X142650228Y-115296582D01*
X142674233Y-115417264D01*
X142674233Y-115417264D01*
G37*
X142674233Y-115417264D02*
X142985302Y-115882811D01*
X143450849Y-116193880D01*
X144000000Y-116303113D01*
X144306804Y-116242086D01*
X141268225Y-119280665D01*
X141253864Y-119245995D01*
X141007745Y-119171861D01*
X140179605Y-120000000D01*
X140193748Y-120014142D01*
X140014142Y-120193748D01*
X140000000Y-120179605D01*
X139985858Y-120193748D01*
X139806252Y-120014142D01*
X139820395Y-120000000D01*
X139806253Y-119985858D01*
X139985858Y-119806253D01*
X140000000Y-119820395D01*
X140291029Y-119529366D01*
X140484855Y-119399855D01*
X141393055Y-118491655D01*
X141440332Y-118420900D01*
X141552730Y-118252685D01*
X141608800Y-117970800D01*
X141608800Y-116338010D01*
X142650228Y-115296582D01*
X142674233Y-115417264D01*
G36*
X120186077Y-100715824D02*
X120252544Y-100743423D01*
X120245995Y-100746136D01*
X120171861Y-100992255D01*
X121000000Y-101820395D01*
X121014142Y-101806252D01*
X121193748Y-101985858D01*
X121179605Y-102000000D01*
X121193748Y-102014142D01*
X121014142Y-102193748D01*
X121000000Y-102179605D01*
X120171861Y-103007745D01*
X120245995Y-103253864D01*
X120549779Y-103363056D01*
X120296011Y-103467911D01*
X119992078Y-103771314D01*
X119827387Y-104167932D01*
X119827166Y-104421424D01*
X119369145Y-104879445D01*
X119209470Y-105118415D01*
X119153400Y-105400300D01*
X119153400Y-107924456D01*
X118969039Y-107848096D01*
X118747000Y-107970085D01*
X118747000Y-109113000D01*
X118767000Y-109113000D01*
X118767000Y-109367000D01*
X118747000Y-109367000D01*
X118747000Y-110509915D01*
X118969039Y-110631904D01*
X119153400Y-110555544D01*
X119153400Y-113307190D01*
X115788200Y-116672390D01*
X115788200Y-113983800D01*
X115716662Y-113624154D01*
X115512939Y-113319261D01*
X113649139Y-111455461D01*
X113344246Y-111251738D01*
X112984600Y-111180200D01*
X111729278Y-111180200D01*
X111210350Y-110661272D01*
X111549151Y-110593880D01*
X112014698Y-110282811D01*
X112270000Y-109900725D01*
X112525302Y-110282811D01*
X112990849Y-110593880D01*
X113540000Y-110703113D01*
X114089151Y-110593880D01*
X114554698Y-110282811D01*
X114810000Y-109900725D01*
X115065302Y-110282811D01*
X115530849Y-110593880D01*
X116080000Y-110703113D01*
X116629151Y-110593880D01*
X117094698Y-110282811D01*
X117364986Y-109878297D01*
X117467611Y-110095134D01*
X117882577Y-110471041D01*
X118270961Y-110631904D01*
X118493000Y-110509915D01*
X118493000Y-109367000D01*
X118473000Y-109367000D01*
X118473000Y-109113000D01*
X118493000Y-109113000D01*
X118493000Y-107970085D01*
X118270961Y-107848096D01*
X117882577Y-108008959D01*
X117467611Y-108384866D01*
X117364986Y-108601703D01*
X117094698Y-108197189D01*
X116629151Y-107886120D01*
X116080000Y-107776887D01*
X115530849Y-107886120D01*
X115065302Y-108197189D01*
X114810000Y-108579275D01*
X114554698Y-108197189D01*
X114089151Y-107886120D01*
X113540000Y-107776887D01*
X112990849Y-107886120D01*
X112525302Y-108197189D01*
X112270000Y-108579275D01*
X112014698Y-108197189D01*
X111549151Y-107886120D01*
X111000000Y-107776887D01*
X110450849Y-107886120D01*
X109985302Y-108197189D01*
X109730000Y-108579275D01*
X109474698Y-108197189D01*
X109399800Y-108147144D01*
X109399800Y-101783223D01*
X119553035Y-101783223D01*
X119580222Y-102353454D01*
X119746136Y-102754005D01*
X119992255Y-102828139D01*
X120820395Y-102000000D01*
X119992255Y-101171861D01*
X119746136Y-101245995D01*
X119553035Y-101783223D01*
X109399800Y-101783223D01*
X109399800Y-100439800D01*
X119910534Y-100439800D01*
X120186077Y-100715824D01*
X120186077Y-100715824D01*
G37*
X120186077Y-100715824D02*
X120252544Y-100743423D01*
X120245995Y-100746136D01*
X120171861Y-100992255D01*
X121000000Y-101820395D01*
X121014142Y-101806252D01*
X121193748Y-101985858D01*
X121179605Y-102000000D01*
X121193748Y-102014142D01*
X121014142Y-102193748D01*
X121000000Y-102179605D01*
X120171861Y-103007745D01*
X120245995Y-103253864D01*
X120549779Y-103363056D01*
X120296011Y-103467911D01*
X119992078Y-103771314D01*
X119827387Y-104167932D01*
X119827166Y-104421424D01*
X119369145Y-104879445D01*
X119209470Y-105118415D01*
X119153400Y-105400300D01*
X119153400Y-107924456D01*
X118969039Y-107848096D01*
X118747000Y-107970085D01*
X118747000Y-109113000D01*
X118767000Y-109113000D01*
X118767000Y-109367000D01*
X118747000Y-109367000D01*
X118747000Y-110509915D01*
X118969039Y-110631904D01*
X119153400Y-110555544D01*
X119153400Y-113307190D01*
X115788200Y-116672390D01*
X115788200Y-113983800D01*
X115716662Y-113624154D01*
X115512939Y-113319261D01*
X113649139Y-111455461D01*
X113344246Y-111251738D01*
X112984600Y-111180200D01*
X111729278Y-111180200D01*
X111210350Y-110661272D01*
X111549151Y-110593880D01*
X112014698Y-110282811D01*
X112270000Y-109900725D01*
X112525302Y-110282811D01*
X112990849Y-110593880D01*
X113540000Y-110703113D01*
X114089151Y-110593880D01*
X114554698Y-110282811D01*
X114810000Y-109900725D01*
X115065302Y-110282811D01*
X115530849Y-110593880D01*
X116080000Y-110703113D01*
X116629151Y-110593880D01*
X117094698Y-110282811D01*
X117364986Y-109878297D01*
X117467611Y-110095134D01*
X117882577Y-110471041D01*
X118270961Y-110631904D01*
X118493000Y-110509915D01*
X118493000Y-109367000D01*
X118473000Y-109367000D01*
X118473000Y-109113000D01*
X118493000Y-109113000D01*
X118493000Y-107970085D01*
X118270961Y-107848096D01*
X117882577Y-108008959D01*
X117467611Y-108384866D01*
X117364986Y-108601703D01*
X117094698Y-108197189D01*
X116629151Y-107886120D01*
X116080000Y-107776887D01*
X115530849Y-107886120D01*
X115065302Y-108197189D01*
X114810000Y-108579275D01*
X114554698Y-108197189D01*
X114089151Y-107886120D01*
X113540000Y-107776887D01*
X112990849Y-107886120D01*
X112525302Y-108197189D01*
X112270000Y-108579275D01*
X112014698Y-108197189D01*
X111549151Y-107886120D01*
X111000000Y-107776887D01*
X110450849Y-107886120D01*
X109985302Y-108197189D01*
X109730000Y-108579275D01*
X109474698Y-108197189D01*
X109399800Y-108147144D01*
X109399800Y-101783223D01*
X119553035Y-101783223D01*
X119580222Y-102353454D01*
X119746136Y-102754005D01*
X119992255Y-102828139D01*
X120820395Y-102000000D01*
X119992255Y-101171861D01*
X119746136Y-101245995D01*
X119553035Y-101783223D01*
X109399800Y-101783223D01*
X109399800Y-100439800D01*
X119910534Y-100439800D01*
X120186077Y-100715824D01*
G36*
X160365302Y-83282811D02*
X160386449Y-83296941D01*
X156457245Y-87226145D01*
X156297570Y-87465115D01*
X156263033Y-87638743D01*
X156189039Y-87608096D01*
X155967000Y-87730085D01*
X155967000Y-88873000D01*
X155987000Y-88873000D01*
X155987000Y-89127000D01*
X155967000Y-89127000D01*
X155967000Y-90269915D01*
X156189039Y-90391904D01*
X156241500Y-90370175D01*
X156241500Y-95236750D01*
X155840000Y-95156887D01*
X155290849Y-95266120D01*
X154825302Y-95577189D01*
X154514233Y-96042736D01*
X154405000Y-96591887D01*
X154405000Y-96648113D01*
X154514233Y-97197264D01*
X154825302Y-97662811D01*
X155290849Y-97973880D01*
X155840000Y-98083113D01*
X156241500Y-98003250D01*
X156241500Y-111127790D01*
X152129600Y-115239690D01*
X152129600Y-91100310D01*
X153880869Y-89349041D01*
X154448086Y-89349041D01*
X154687611Y-89855134D01*
X155102577Y-90231041D01*
X155490961Y-90391904D01*
X155713000Y-90269915D01*
X155713000Y-89127000D01*
X154569371Y-89127000D01*
X154448086Y-89349041D01*
X153880869Y-89349041D01*
X154494316Y-88735594D01*
X154569371Y-88873000D01*
X155713000Y-88873000D01*
X155713000Y-87730085D01*
X155575415Y-87654495D01*
X159360855Y-83869055D01*
X159520530Y-83630085D01*
X159548973Y-83487090D01*
X159854698Y-83282811D01*
X160110000Y-82900725D01*
X160365302Y-83282811D01*
X160365302Y-83282811D01*
G37*
X160365302Y-83282811D02*
X160386449Y-83296941D01*
X156457245Y-87226145D01*
X156297570Y-87465115D01*
X156263033Y-87638743D01*
X156189039Y-87608096D01*
X155967000Y-87730085D01*
X155967000Y-88873000D01*
X155987000Y-88873000D01*
X155987000Y-89127000D01*
X155967000Y-89127000D01*
X155967000Y-90269915D01*
X156189039Y-90391904D01*
X156241500Y-90370175D01*
X156241500Y-95236750D01*
X155840000Y-95156887D01*
X155290849Y-95266120D01*
X154825302Y-95577189D01*
X154514233Y-96042736D01*
X154405000Y-96591887D01*
X154405000Y-96648113D01*
X154514233Y-97197264D01*
X154825302Y-97662811D01*
X155290849Y-97973880D01*
X155840000Y-98083113D01*
X156241500Y-98003250D01*
X156241500Y-111127790D01*
X152129600Y-115239690D01*
X152129600Y-91100310D01*
X153880869Y-89349041D01*
X154448086Y-89349041D01*
X154687611Y-89855134D01*
X155102577Y-90231041D01*
X155490961Y-90391904D01*
X155713000Y-90269915D01*
X155713000Y-89127000D01*
X154569371Y-89127000D01*
X154448086Y-89349041D01*
X153880869Y-89349041D01*
X154494316Y-88735594D01*
X154569371Y-88873000D01*
X155713000Y-88873000D01*
X155713000Y-87730085D01*
X155575415Y-87654495D01*
X159360855Y-83869055D01*
X159520530Y-83630085D01*
X159548973Y-83487090D01*
X159854698Y-83282811D01*
X160110000Y-82900725D01*
X160365302Y-83282811D01*
G36*
X163713309Y-54434750D02*
X164106015Y-54435093D01*
X171915600Y-62244678D01*
X171915600Y-65565000D01*
X171825750Y-65565000D01*
X171667000Y-65723750D01*
X171667000Y-66873000D01*
X171687000Y-66873000D01*
X171687000Y-67127000D01*
X171667000Y-67127000D01*
X171667000Y-68276250D01*
X171825750Y-68435000D01*
X171915600Y-68435000D01*
X171915600Y-80851599D01*
X171540000Y-80776887D01*
X170990849Y-80886120D01*
X170525302Y-81197189D01*
X170255014Y-81601703D01*
X170152389Y-81384866D01*
X169737423Y-81008959D01*
X169349039Y-80848096D01*
X169127000Y-80970085D01*
X169127000Y-82113000D01*
X169147000Y-82113000D01*
X169147000Y-82367000D01*
X169127000Y-82367000D01*
X169127000Y-83509915D01*
X169349039Y-83631904D01*
X169737423Y-83471041D01*
X170152389Y-83095134D01*
X170255014Y-82878297D01*
X170525302Y-83282811D01*
X170990849Y-83593880D01*
X171540000Y-83703113D01*
X171915600Y-83628401D01*
X171915600Y-87559769D01*
X171880000Y-87552560D01*
X170280000Y-87552560D01*
X170044683Y-87596838D01*
X169828559Y-87735910D01*
X169683569Y-87948110D01*
X169652185Y-88103089D01*
X169554698Y-87957189D01*
X169089151Y-87646120D01*
X168540000Y-87536887D01*
X167990849Y-87646120D01*
X167525302Y-87957189D01*
X167270000Y-88339275D01*
X167014698Y-87957189D01*
X166549151Y-87646120D01*
X166000000Y-87536887D01*
X165466600Y-87642987D01*
X165466600Y-87280310D01*
X168146655Y-84600255D01*
X168163319Y-84575315D01*
X168306330Y-84361285D01*
X168362400Y-84079400D01*
X168362400Y-83512386D01*
X168650961Y-83631904D01*
X168873000Y-83509915D01*
X168873000Y-82367000D01*
X168853000Y-82367000D01*
X168853000Y-82113000D01*
X168873000Y-82113000D01*
X168873000Y-80970085D01*
X168650961Y-80848096D01*
X168362400Y-80967614D01*
X168362400Y-69270900D01*
X168306330Y-68989015D01*
X168146655Y-68750045D01*
X167453551Y-68056941D01*
X167474698Y-68042811D01*
X167730000Y-67660725D01*
X167985302Y-68042811D01*
X168450849Y-68353880D01*
X169000000Y-68463113D01*
X169549151Y-68353880D01*
X170014698Y-68042811D01*
X170105000Y-67907665D01*
X170105000Y-67926309D01*
X170201673Y-68159698D01*
X170380301Y-68338327D01*
X170613690Y-68435000D01*
X171254250Y-68435000D01*
X171413000Y-68276250D01*
X171413000Y-67127000D01*
X171393000Y-67127000D01*
X171393000Y-66873000D01*
X171413000Y-66873000D01*
X171413000Y-65723750D01*
X171254250Y-65565000D01*
X170613690Y-65565000D01*
X170380301Y-65661673D01*
X170201673Y-65840302D01*
X170105000Y-66073691D01*
X170105000Y-66092335D01*
X170014698Y-65957189D01*
X169549151Y-65646120D01*
X169000000Y-65536887D01*
X168450849Y-65646120D01*
X167985302Y-65957189D01*
X167730000Y-66339275D01*
X167474698Y-65957189D01*
X167009151Y-65646120D01*
X166460000Y-65536887D01*
X165910849Y-65646120D01*
X165445302Y-65957189D01*
X165190000Y-66339275D01*
X164934698Y-65957189D01*
X164469151Y-65646120D01*
X163920000Y-65536887D01*
X163370849Y-65646120D01*
X162905302Y-65957189D01*
X162650000Y-66339275D01*
X162394698Y-65957189D01*
X162373551Y-65943059D01*
X163322355Y-64994255D01*
X163482030Y-64755285D01*
X163499580Y-64667055D01*
X163538101Y-64473400D01*
X163538100Y-64473395D01*
X163538100Y-54361997D01*
X163713309Y-54434750D01*
X163713309Y-54434750D01*
G37*
X163713309Y-54434750D02*
X164106015Y-54435093D01*
X171915600Y-62244678D01*
X171915600Y-65565000D01*
X171825750Y-65565000D01*
X171667000Y-65723750D01*
X171667000Y-66873000D01*
X171687000Y-66873000D01*
X171687000Y-67127000D01*
X171667000Y-67127000D01*
X171667000Y-68276250D01*
X171825750Y-68435000D01*
X171915600Y-68435000D01*
X171915600Y-80851599D01*
X171540000Y-80776887D01*
X170990849Y-80886120D01*
X170525302Y-81197189D01*
X170255014Y-81601703D01*
X170152389Y-81384866D01*
X169737423Y-81008959D01*
X169349039Y-80848096D01*
X169127000Y-80970085D01*
X169127000Y-82113000D01*
X169147000Y-82113000D01*
X169147000Y-82367000D01*
X169127000Y-82367000D01*
X169127000Y-83509915D01*
X169349039Y-83631904D01*
X169737423Y-83471041D01*
X170152389Y-83095134D01*
X170255014Y-82878297D01*
X170525302Y-83282811D01*
X170990849Y-83593880D01*
X171540000Y-83703113D01*
X171915600Y-83628401D01*
X171915600Y-87559769D01*
X171880000Y-87552560D01*
X170280000Y-87552560D01*
X170044683Y-87596838D01*
X169828559Y-87735910D01*
X169683569Y-87948110D01*
X169652185Y-88103089D01*
X169554698Y-87957189D01*
X169089151Y-87646120D01*
X168540000Y-87536887D01*
X167990849Y-87646120D01*
X167525302Y-87957189D01*
X167270000Y-88339275D01*
X167014698Y-87957189D01*
X166549151Y-87646120D01*
X166000000Y-87536887D01*
X165466600Y-87642987D01*
X165466600Y-87280310D01*
X168146655Y-84600255D01*
X168163319Y-84575315D01*
X168306330Y-84361285D01*
X168362400Y-84079400D01*
X168362400Y-83512386D01*
X168650961Y-83631904D01*
X168873000Y-83509915D01*
X168873000Y-82367000D01*
X168853000Y-82367000D01*
X168853000Y-82113000D01*
X168873000Y-82113000D01*
X168873000Y-80970085D01*
X168650961Y-80848096D01*
X168362400Y-80967614D01*
X168362400Y-69270900D01*
X168306330Y-68989015D01*
X168146655Y-68750045D01*
X167453551Y-68056941D01*
X167474698Y-68042811D01*
X167730000Y-67660725D01*
X167985302Y-68042811D01*
X168450849Y-68353880D01*
X169000000Y-68463113D01*
X169549151Y-68353880D01*
X170014698Y-68042811D01*
X170105000Y-67907665D01*
X170105000Y-67926309D01*
X170201673Y-68159698D01*
X170380301Y-68338327D01*
X170613690Y-68435000D01*
X171254250Y-68435000D01*
X171413000Y-68276250D01*
X171413000Y-67127000D01*
X171393000Y-67127000D01*
X171393000Y-66873000D01*
X171413000Y-66873000D01*
X171413000Y-65723750D01*
X171254250Y-65565000D01*
X170613690Y-65565000D01*
X170380301Y-65661673D01*
X170201673Y-65840302D01*
X170105000Y-66073691D01*
X170105000Y-66092335D01*
X170014698Y-65957189D01*
X169549151Y-65646120D01*
X169000000Y-65536887D01*
X168450849Y-65646120D01*
X167985302Y-65957189D01*
X167730000Y-66339275D01*
X167474698Y-65957189D01*
X167009151Y-65646120D01*
X166460000Y-65536887D01*
X165910849Y-65646120D01*
X165445302Y-65957189D01*
X165190000Y-66339275D01*
X164934698Y-65957189D01*
X164469151Y-65646120D01*
X163920000Y-65536887D01*
X163370849Y-65646120D01*
X162905302Y-65957189D01*
X162650000Y-66339275D01*
X162394698Y-65957189D01*
X162373551Y-65943059D01*
X163322355Y-64994255D01*
X163482030Y-64755285D01*
X163499580Y-64667055D01*
X163538101Y-64473400D01*
X163538100Y-64473395D01*
X163538100Y-54361997D01*
X163713309Y-54434750D01*
M02*
