G04 #@! TF.FileFunction,Soldermask,Top*
%FSLAX46Y46*%
G04 Gerber Fmt 4.6, Leading zero omitted, Abs format (unit mm)*
G04 Created by KiCad (PCBNEW 4.0.7) date *
%MOMM*%
%LPD*%
G01*
G04 APERTURE LIST*
%ADD10C,0.100000*%
%ADD11C,2.000000*%
%ADD12R,1.600000X1.600000*%
%ADD13C,1.600000*%
%ADD14R,2.000000X2.000000*%
%ADD15R,2.200000X2.200000*%
%ADD16O,2.200000X2.200000*%
%ADD17C,2.200000*%
%ADD18R,2.127200X2.127200*%
%ADD19O,2.127200X2.127200*%
%ADD20R,2.432000X2.127200*%
%ADD21O,2.432000X2.127200*%
%ADD22R,4.400000X4.400000*%
%ADD23R,3.900120X3.900120*%
%ADD24O,2.000000X2.000000*%
%ADD25C,2.400000*%
%ADD26R,2.300000X2.300000*%
%ADD27C,2.300000*%
%ADD28C,1.822400*%
%ADD29C,3.600000*%
G04 APERTURE END LIST*
D10*
D11*
X121000000Y-99500000D03*
X121000000Y-102000000D03*
X157500000Y-118000000D03*
X160000000Y-118000000D03*
X157500000Y-124000000D03*
X160000000Y-124000000D03*
D12*
X172000000Y-105500000D03*
D13*
X172000000Y-104000000D03*
D14*
X178500000Y-121000000D03*
D11*
X181000000Y-121000000D03*
X164000000Y-53000000D03*
X164000000Y-50500000D03*
X137000000Y-82500000D03*
X137000000Y-80000000D03*
X141000000Y-67000000D03*
X141000000Y-69500000D03*
X117000000Y-122500000D03*
X117000000Y-120000000D03*
X137000000Y-62000000D03*
X137000000Y-59500000D03*
X140000000Y-122500000D03*
X140000000Y-120000000D03*
X174000000Y-97000000D03*
X174000000Y-94500000D03*
D15*
X172466000Y-119620000D03*
D16*
X172466000Y-112000000D03*
D15*
X166000000Y-127000000D03*
D17*
X166000000Y-124460000D03*
D18*
X161620000Y-59460000D03*
D19*
X161620000Y-62000000D03*
X159080000Y-59460000D03*
X159080000Y-62000000D03*
X156540000Y-59460000D03*
X156540000Y-62000000D03*
X154000000Y-59460000D03*
X154000000Y-62000000D03*
X151460000Y-59460000D03*
X151460000Y-62000000D03*
X148920000Y-59460000D03*
X148920000Y-62000000D03*
X146380000Y-59460000D03*
X146380000Y-62000000D03*
X143840000Y-59460000D03*
X143840000Y-62000000D03*
D20*
X179000000Y-46840000D03*
D21*
X179000000Y-49380000D03*
X179000000Y-51920000D03*
X179000000Y-54460000D03*
X179000000Y-57000000D03*
X179000000Y-59540000D03*
D18*
X162080000Y-131000000D03*
D19*
X162080000Y-133540000D03*
X159540000Y-131000000D03*
X159540000Y-133540000D03*
X157000000Y-131000000D03*
X157000000Y-133540000D03*
X154460000Y-131000000D03*
X154460000Y-133540000D03*
X151920000Y-131000000D03*
X151920000Y-133540000D03*
X149380000Y-131000000D03*
X149380000Y-133540000D03*
X146840000Y-131000000D03*
X146840000Y-133540000D03*
X144300000Y-131000000D03*
X144300000Y-133540000D03*
X141760000Y-131000000D03*
X141760000Y-133540000D03*
X139220000Y-131000000D03*
X139220000Y-133540000D03*
X136680000Y-131000000D03*
X136680000Y-133540000D03*
X134140000Y-131000000D03*
X134140000Y-133540000D03*
X131600000Y-131000000D03*
X131600000Y-133540000D03*
X129060000Y-131000000D03*
X129060000Y-133540000D03*
X126520000Y-131000000D03*
X126520000Y-133540000D03*
X123980000Y-131000000D03*
X123980000Y-133540000D03*
X121440000Y-131000000D03*
X121440000Y-133540000D03*
X118900000Y-131000000D03*
X118900000Y-133540000D03*
X116360000Y-131000000D03*
X116360000Y-133540000D03*
X113820000Y-131000000D03*
X113820000Y-133540000D03*
D22*
X174244000Y-129598860D03*
D23*
X174244000Y-135598340D03*
X178943000Y-132598600D03*
D11*
X115000000Y-88000000D03*
D24*
X104840000Y-88000000D03*
D11*
X158000000Y-114000000D03*
D24*
X147840000Y-114000000D03*
D11*
X144000000Y-125000000D03*
D24*
X144000000Y-114840000D03*
D11*
X168656000Y-120160000D03*
D24*
X168656000Y-110000000D03*
D11*
X165000000Y-120160000D03*
D24*
X165000000Y-110000000D03*
D14*
X119680000Y-88000000D03*
D24*
X122220000Y-88000000D03*
X124760000Y-88000000D03*
X127300000Y-88000000D03*
X129840000Y-88000000D03*
X132380000Y-88000000D03*
X134920000Y-88000000D03*
X137460000Y-88000000D03*
X140000000Y-88000000D03*
D25*
X177500000Y-106500000D03*
X177500000Y-102000000D03*
X184000000Y-106500000D03*
X184000000Y-102000000D03*
D26*
X178515000Y-113000000D03*
D27*
X181015000Y-113000000D03*
X183515000Y-113000000D03*
D28*
X150000000Y-119920000D03*
X150000000Y-125000000D03*
D29*
X93310000Y-71280000D03*
X182880000Y-71120000D03*
X93340000Y-137140000D03*
X182970000Y-137070000D03*
D14*
X171080000Y-89000000D03*
D24*
X155840000Y-96620000D03*
X168540000Y-89000000D03*
X158380000Y-96620000D03*
X166000000Y-89000000D03*
X160920000Y-96620000D03*
X163460000Y-89000000D03*
X163460000Y-96620000D03*
X160920000Y-89000000D03*
X166000000Y-96620000D03*
X158380000Y-89000000D03*
X168540000Y-96620000D03*
X155840000Y-89000000D03*
X171080000Y-96620000D03*
D14*
X136240000Y-115000000D03*
D24*
X121000000Y-122620000D03*
X133700000Y-115000000D03*
X123540000Y-122620000D03*
X131160000Y-115000000D03*
X126080000Y-122620000D03*
X128620000Y-115000000D03*
X128620000Y-122620000D03*
X126080000Y-115000000D03*
X131160000Y-122620000D03*
X123540000Y-115000000D03*
X133700000Y-122620000D03*
X121000000Y-115000000D03*
X136240000Y-122620000D03*
D14*
X134320000Y-46760000D03*
D24*
X101300000Y-62000000D03*
X131780000Y-46760000D03*
X103840000Y-62000000D03*
X129240000Y-46760000D03*
X106380000Y-62000000D03*
X126700000Y-46760000D03*
X108920000Y-62000000D03*
X124160000Y-46760000D03*
X111460000Y-62000000D03*
X121620000Y-46760000D03*
X114000000Y-62000000D03*
X119080000Y-46760000D03*
X116540000Y-62000000D03*
X116540000Y-46760000D03*
X119080000Y-62000000D03*
X114000000Y-46760000D03*
X121620000Y-62000000D03*
X111460000Y-46760000D03*
X124160000Y-62000000D03*
X108920000Y-46760000D03*
X126700000Y-62000000D03*
X106380000Y-46760000D03*
X129240000Y-62000000D03*
X103840000Y-46760000D03*
X131780000Y-62000000D03*
X101300000Y-46760000D03*
X134320000Y-62000000D03*
D14*
X161080000Y-47000000D03*
D24*
X143300000Y-54620000D03*
X158540000Y-47000000D03*
X145840000Y-54620000D03*
X156000000Y-47000000D03*
X148380000Y-54620000D03*
X153460000Y-47000000D03*
X150920000Y-54620000D03*
X150920000Y-47000000D03*
X153460000Y-54620000D03*
X148380000Y-47000000D03*
X156000000Y-54620000D03*
X145840000Y-47000000D03*
X158540000Y-54620000D03*
X143300000Y-47000000D03*
X161080000Y-54620000D03*
D14*
X134240000Y-67000000D03*
D24*
X101220000Y-82240000D03*
X131700000Y-67000000D03*
X103760000Y-82240000D03*
X129160000Y-67000000D03*
X106300000Y-82240000D03*
X126620000Y-67000000D03*
X108840000Y-82240000D03*
X124080000Y-67000000D03*
X111380000Y-82240000D03*
X121540000Y-67000000D03*
X113920000Y-82240000D03*
X119000000Y-67000000D03*
X116460000Y-82240000D03*
X116460000Y-67000000D03*
X119000000Y-82240000D03*
X113920000Y-67000000D03*
X121540000Y-82240000D03*
X111380000Y-67000000D03*
X124080000Y-82240000D03*
X108840000Y-67000000D03*
X126620000Y-82240000D03*
X106300000Y-67000000D03*
X129160000Y-82240000D03*
X103760000Y-67000000D03*
X131700000Y-82240000D03*
X101220000Y-67000000D03*
X134240000Y-82240000D03*
D14*
X113540000Y-115000000D03*
D24*
X98300000Y-122620000D03*
X111000000Y-115000000D03*
X100840000Y-122620000D03*
X108460000Y-115000000D03*
X103380000Y-122620000D03*
X105920000Y-115000000D03*
X105920000Y-122620000D03*
X103380000Y-115000000D03*
X108460000Y-122620000D03*
X100840000Y-115000000D03*
X111000000Y-122620000D03*
X98300000Y-115000000D03*
X113540000Y-122620000D03*
D14*
X171540000Y-67000000D03*
D24*
X143600000Y-82240000D03*
X169000000Y-67000000D03*
X146140000Y-82240000D03*
X166460000Y-67000000D03*
X148680000Y-82240000D03*
X163920000Y-67000000D03*
X151220000Y-82240000D03*
X161380000Y-67000000D03*
X153760000Y-82240000D03*
X158840000Y-67000000D03*
X156300000Y-82240000D03*
X156300000Y-67000000D03*
X158840000Y-82240000D03*
X153760000Y-67000000D03*
X161380000Y-82240000D03*
X151220000Y-67000000D03*
X163920000Y-82240000D03*
X148680000Y-67000000D03*
X166460000Y-82240000D03*
X146140000Y-67000000D03*
X169000000Y-82240000D03*
X143600000Y-67000000D03*
X171540000Y-82240000D03*
D14*
X146560000Y-94000000D03*
D24*
X98300000Y-109240000D03*
X144020000Y-94000000D03*
X100840000Y-109240000D03*
X141480000Y-94000000D03*
X103380000Y-109240000D03*
X138940000Y-94000000D03*
X105920000Y-109240000D03*
X136400000Y-94000000D03*
X108460000Y-109240000D03*
X133860000Y-94000000D03*
X111000000Y-109240000D03*
X131320000Y-94000000D03*
X113540000Y-109240000D03*
X128780000Y-94000000D03*
X116080000Y-109240000D03*
X126240000Y-94000000D03*
X118620000Y-109240000D03*
X123700000Y-94000000D03*
X121160000Y-109240000D03*
X121160000Y-94000000D03*
X123700000Y-109240000D03*
X118620000Y-94000000D03*
X126240000Y-109240000D03*
X116080000Y-94000000D03*
X128780000Y-109240000D03*
X113540000Y-94000000D03*
X131320000Y-109240000D03*
X111000000Y-94000000D03*
X133860000Y-109240000D03*
X108460000Y-94000000D03*
X136400000Y-109240000D03*
X105920000Y-94000000D03*
X138940000Y-109240000D03*
X103380000Y-94000000D03*
X141480000Y-109240000D03*
X100840000Y-94000000D03*
X144020000Y-109240000D03*
X98300000Y-94000000D03*
X146560000Y-109240000D03*
M02*
